<svg width="30" height="30" viewBox="0 0 30 30" fill="none" xmlns="http://www.w3.org/2000/svg">
<path opacity="0.25" d="M27.73 9.61819C27.7062 10.4023 27.5046 11.388 27.7952 12.1216C27.9991 12.6366 28.6489 13.1431 28.9379 13.6365C29.7553 15.0307 30.153 16.6974 29.9457 18.308C29.6052 20.9554 27.6802 23.2395 25.2396 24.2321C22.8161 25.2178 19.9823 24.9901 17.8811 23.3778C16.8042 22.5512 16.0207 21.4193 15.5703 20.1424C15.2734 19.3011 15.4094 18.1109 14.8061 17.7177C14.6474 17.6146 12.753 17.7166 12.476 17.9018C12.0262 18.2026 11.9746 18.5465 11.8794 19.0734C11.5577 20.8466 12.6867 20.1294 13.9013 20.7021C16.1759 21.774 16.3192 25.326 13.6464 25.9747C11.1554 26.5792 7.44814 26.6845 4.98775 25.8733C3.60885 25.4184 3.29386 24.7946 3.48081 23.3449C3.5403 22.8838 3.6451 22.1847 3.86548 21.7649C3.97538 21.5553 4.9413 20.7486 4.94583 20.7055C4.96566 20.5129 3.21002 19.7084 3.0089 19.5368C2.38573 19.0037 2.04809 18.4627 1.90476 17.6373C1.73311 16.6464 2.33701 15.7558 2.27696 14.8494C2.22314 14.0416 1.46797 13.1436 1.18868 12.3465C0.859535 11.4067 0.568348 10.4334 1.22721 9.55644C1.90873 8.64945 2.69279 9.1072 3.5437 8.72423C3.99238 8.52255 4.09718 7.98889 4.59572 7.6824C5.4319 7.1697 6.56494 7.69713 7.44361 7.42067C9.29159 6.83942 10.5742 4.92346 12.5372 4.45495C14.7273 3.93206 17.2801 4.24647 19.5155 4.22835C21.4287 4.21305 24.093 3.69695 25.8458 4.59771C27.8309 5.61744 27.7839 7.66654 27.73 9.61819ZM24.4323 10.2465C24.4561 10.2102 24.5881 8.33616 24.4873 8.3288C24.2969 8.3152 22.8654 9.93374 22.9583 10.0708C23.4545 10.0878 23.9457 10.1462 24.4318 10.2465H24.4323ZM5.63868 18.7063C6.09756 19.0303 6.81534 19.4082 7.36769 19.5657C7.54501 19.6161 7.08274 18.5556 7.11503 18.5845C6.8499 18.3477 5.94403 18.5833 5.63868 18.7063Z" fill="#000E3F"/>
<path d="M26.8984 8.97859C26.8746 9.76265 26.673 10.7484 26.9636 11.482C27.1675 11.997 27.8173 12.5035 28.1063 12.9963C28.9237 14.3905 29.3214 16.0572 29.1141 17.6678C28.7736 20.3152 26.8486 22.5994 24.408 23.5919C21.9845 24.5777 19.1507 24.3499 17.0495 22.7376C15.9726 21.9111 15.1891 20.7792 14.7387 19.5022C14.4418 18.6609 14.5778 17.4707 13.9745 17.0775C13.8158 16.9744 11.9214 17.0764 11.6444 17.2616C11.1946 17.5625 11.143 17.9063 11.0478 18.4332C10.7261 20.2064 11.8551 19.4892 13.0697 20.0619C15.3443 21.1338 15.4876 24.6859 12.8148 25.3345C10.3238 25.939 6.61653 26.0444 4.15615 25.2331C2.77724 24.7782 2.46226 24.1545 2.64921 22.7048C2.7087 22.2436 2.8135 21.5445 3.03388 21.1247C3.14378 20.9151 4.10969 20.1084 4.11423 20.0653C4.13405 19.8727 2.37842 19.0683 2.1773 18.8966C1.55413 18.3635 1.21649 17.8225 1.07316 16.9971C0.901504 16.0062 1.50541 15.1157 1.44536 14.2093C1.39154 13.4014 0.636373 12.5035 0.35708 11.7064C0.0279327 10.7665 -0.263258 9.79325 0.395602 8.91628C1.07712 8.00928 1.86118 8.46703 2.71209 8.08406C3.16078 7.88238 3.26558 7.34872 3.76412 7.04224C4.6003 6.52954 5.73334 7.05697 6.612 6.78051C8.45999 6.19926 9.74258 4.28329 11.7056 3.81478C13.8957 3.29189 16.4485 3.6063 18.6839 3.58818C20.5971 3.57288 23.2614 3.05678 25.0142 3.95755C26.9993 4.97728 26.9523 7.02637 26.8984 8.97803V8.97859ZM23.6007 9.60686C23.6245 9.5706 23.7565 7.69656 23.6557 7.6892C23.4653 7.6756 22.0338 9.29414 22.1267 9.43124C22.6229 9.44824 23.1141 9.50659 23.6002 9.60686H23.6007ZM4.80764 18.0667C5.26652 18.3907 5.9843 18.7686 6.53666 18.9261C6.71398 18.9765 6.2517 17.916 6.28399 17.9449C6.01886 17.7081 5.113 17.9437 4.80764 18.0667Z" fill="white"/>
<path d="M9.78781 20.7692C9.79517 19.8849 9.80254 19.0005 9.8099 18.1162C9.82463 16.3464 9.83936 14.5771 9.85352 12.8073C9.86429 11.4777 9.87562 10.1487 9.88638 8.81906C9.88752 8.71029 9.88751 8.60208 9.88921 8.49331C9.89091 8.37264 9.89771 8.25254 9.90904 8.13244C9.91131 8.10865 9.92944 8.01517 9.90904 8.12847C9.91528 8.09222 9.92151 8.05596 9.9283 8.0197C9.9419 7.94776 9.95833 7.87637 9.97702 7.80612C9.99515 7.73588 10.0161 7.66676 10.0393 7.59765C10.0507 7.56366 10.0626 7.52967 10.0756 7.49567C10.0801 7.48264 10.1504 7.32289 10.096 7.44129C10.1555 7.31155 10.2206 7.18522 10.2948 7.06342C10.3317 7.0028 10.3708 6.94332 10.4115 6.88553C10.4319 6.85664 10.4529 6.82775 10.4739 6.79942C10.3962 6.90253 10.5033 6.76656 10.5112 6.75693C10.603 6.64929 10.7016 6.54789 10.8058 6.45271C10.858 6.40513 10.9118 6.35924 10.9673 6.31505C10.8767 6.38813 10.9684 6.31505 10.9928 6.29805C11.029 6.27313 11.0653 6.24707 11.1021 6.22271C11.5893 5.90319 12.051 5.76836 12.6 5.76043C13.6078 5.74513 14.6168 5.744 15.6246 5.73607C17.3905 5.72191 19.1557 5.70718 20.9216 5.69301C21.5244 5.68792 22.1277 5.68338 22.7305 5.67828C22.863 5.67715 22.995 5.67545 23.1276 5.67489C23.2069 5.67489 23.2857 5.67715 23.3644 5.68338C23.4613 5.69075 23.2738 5.66469 23.3678 5.68452C23.4035 5.69188 23.4398 5.69868 23.4749 5.70718C23.5457 5.72417 23.6137 5.74683 23.6822 5.77006C23.7712 5.80009 23.6023 5.72984 23.6856 5.77063C23.7258 5.79046 23.7655 5.80972 23.8046 5.83124C23.8357 5.84824 23.8663 5.86637 23.8958 5.88563C23.9077 5.893 24.0267 5.97401 23.9649 5.92925C23.906 5.88676 23.9938 5.95304 24.0068 5.96438C24.0329 5.9876 24.0595 6.0114 24.0845 6.03576C24.1411 6.09071 24.1955 6.14906 24.2448 6.21081C24.1683 6.11507 24.2867 6.27993 24.3014 6.30485C24.3196 6.33544 24.3371 6.36604 24.3535 6.3972C24.3603 6.41023 24.4215 6.54053 24.3909 6.46971C24.3558 6.3887 24.4187 6.55129 24.4176 6.54789C24.4289 6.58188 24.4391 6.617 24.4482 6.65156C24.4584 6.68952 24.4935 6.88157 24.4776 6.7592C24.4895 6.85324 24.4912 6.94842 24.4895 7.04303C24.4878 7.13027 24.4844 7.21751 24.4816 7.30476C24.4663 7.82822 24.451 8.35111 24.4351 8.87458C24.3841 10.6087 24.3332 12.3422 24.2822 14.0763C24.2436 15.3793 24.2057 16.6829 24.1672 17.9859C24.1649 18.055 24.1632 18.1241 24.1609 18.1932C24.1519 18.5105 24.4465 18.8141 24.7677 18.8C25.1042 18.7847 25.3642 18.5337 25.3744 18.1932C25.4033 17.2115 25.4322 16.2297 25.4611 15.2479C25.5143 13.4401 25.5676 11.6324 25.6208 9.82519C25.6407 9.14311 25.6611 8.46102 25.6809 7.7795C25.6905 7.45432 25.7262 7.11328 25.6934 6.78809C25.5591 5.46811 24.4799 4.45857 23.1406 4.46254C22.7599 4.46367 22.3787 4.46877 21.998 4.4716C20.3041 4.4852 18.6096 4.49936 16.9157 4.51296C15.5448 4.52429 14.1744 4.53505 12.8034 4.54638C11.9836 4.55318 11.1837 4.71974 10.4875 5.17578C9.37142 5.90716 8.6933 7.1416 8.67347 8.47575C8.65931 9.43883 8.6576 10.4019 8.64967 11.365C8.63438 13.1824 8.61965 14.9998 8.60435 16.8172C8.59415 18.0703 8.58339 19.3229 8.57319 20.576C8.57319 20.6406 8.57206 20.7052 8.57149 20.7703C8.56866 21.0876 8.85249 21.3918 9.17823 21.3771C9.50908 21.3623 9.78214 21.1108 9.78498 20.7703L9.78781 20.7692Z" fill="#FD8A02"/>
<path d="M27.4795 18.9301C27.4178 19.0768 27.3498 19.2207 27.2778 19.3618C27.2597 19.398 27.2404 19.4343 27.2212 19.47C26.76 20.3282 26.1119 21.0704 25.3483 21.6539C25.171 21.7893 24.9874 21.9162 24.7993 22.034C23.8855 22.6045 22.8465 22.9631 21.7843 23.0498C21.4671 23.0759 21.1475 23.0781 20.8292 23.0572C20.6887 23.0481 20.5487 23.0339 20.4094 23.0158C19.1681 22.8538 17.9705 22.3348 17.0375 21.4754C17.0023 21.4437 16.9683 21.4114 16.9343 21.3786C16.8777 21.3236 16.8222 21.2675 16.7678 21.2097C15.858 20.2501 15.2943 18.9641 15.1283 17.6237C15.0937 17.3461 15.0762 17.0662 15.0762 16.7869C15.0762 16.2986 15.1294 15.8103 15.2388 15.3355C15.3685 14.7724 15.5707 14.2472 15.8325 13.7657C15.8432 13.7447 15.8551 13.7238 15.8665 13.7028C16.6075 12.3749 17.8017 11.3818 19.1647 10.8255C19.1676 10.8243 19.1704 10.8232 19.1732 10.8221C20.3776 10.332 21.7141 10.1836 22.9842 10.447C23.1366 10.4782 23.2878 10.5162 23.438 10.5603C24.3081 10.8124 25.1347 11.2679 25.8525 11.9511C25.8746 11.9721 25.8961 11.9931 25.9182 12.0146C25.9635 12.0593 26.0088 12.1052 26.0536 12.1517C26.8478 12.9794 27.4212 13.9974 27.7118 15.0823C27.7701 15.2987 27.8172 15.5179 27.8523 15.7389C28.02 16.8011 27.9152 17.9018 27.4812 18.9301H27.4795Z" fill="white"/>
<path d="M20.0468 14.4871L19.5352 16.8115C19.4814 17.0551 19.5986 17.3049 19.8201 17.4194L21.9236 18.5059C22.1338 18.6147 22.3904 18.5768 22.5604 18.4119L24.1574 16.8608C24.3183 16.705 24.3681 16.467 24.2843 16.2591L23.4017 14.0758C23.3071 13.8412 23.0652 13.7019 22.8148 13.7364L20.5079 14.0593C20.2802 14.0911 20.096 14.2616 20.0462 14.4865L20.0468 14.4871Z" fill="#0D51E3"/>
<path d="M25.3479 21.654C25.1706 21.7894 24.987 21.9163 24.7989 22.0341C23.8851 22.6046 22.8461 22.9632 21.7839 23.0499C21.4667 23.0759 21.1472 23.0782 20.8288 23.0573C20.7427 22.8624 20.7761 22.6346 20.9171 22.4726L22.3805 20.7946C22.5363 20.6161 22.7884 20.5572 23.007 20.6484L25.1938 21.5565C25.2516 21.5809 25.3037 21.6138 25.3484 21.654H25.3479Z" fill="#0D51E3"/>
<path d="M27.4797 18.9301C27.4179 19.0768 27.3499 19.2207 27.278 19.3617L26.2362 17.2956C26.1353 17.0957 26.1659 16.8543 26.3126 16.6855L27.7108 15.0817C27.7692 15.2981 27.8162 15.5173 27.8513 15.7383C28.019 16.8005 27.9142 17.9013 27.4802 18.9295L27.4797 18.9301Z" fill="#0D51E3"/>
<path d="M25.8515 11.9512L24.7332 12.2039C24.4868 12.26 24.2341 12.1404 24.1202 11.915L23.437 10.561C24.3072 10.8131 25.1337 11.2686 25.8515 11.9518V11.9512Z" fill="#0D51E3"/>
<path d="M19.1721 10.8227L18.9013 12.8367C18.8713 13.0644 18.7019 13.2497 18.477 13.3001L16.2046 13.8133C16.0749 13.8422 15.9435 13.8235 15.8307 13.7652C15.8415 13.7442 15.8534 13.7233 15.8647 13.7023C16.6057 12.3744 17.8 11.3813 19.163 10.825C19.1658 10.8238 19.1687 10.8227 19.1715 10.8216L19.1721 10.8227Z" fill="#0D51E3"/>
<path d="M18.0437 18.2662L17.727 20.6252C17.6964 20.8535 17.527 21.0387 17.3027 21.0891L16.7668 21.2104C15.8569 20.2507 15.2932 18.9647 15.1273 17.6243C15.0927 17.3467 15.0751 17.0669 15.0751 16.7876C15.2134 16.7219 15.3754 16.7145 15.5227 16.7762L17.7094 17.6844C17.94 17.7801 18.0771 18.0192 18.0443 18.2662H18.0437Z" fill="#0D51E3"/>
<g opacity="0.25">
<path d="M27.4797 18.9302C27.418 19.0769 27.35 19.2214 27.2775 19.3619C27.2588 19.3981 27.2401 19.4344 27.2208 19.4701C26.7597 20.3283 26.111 21.0705 25.3474 21.654C25.1706 21.79 24.9871 21.9169 24.7984 22.0341C23.8846 22.6046 22.8456 22.9632 21.7834 23.0499C21.4661 23.076 21.1466 23.0782 20.8282 23.0573C20.6878 23.0482 20.5478 23.034 20.4079 23.0159C19.1666 22.8539 17.969 22.335 17.036 21.4761C17.0014 21.4444 16.9669 21.4121 16.9329 21.3792C16.8757 21.3237 16.8207 21.2682 16.7663 21.2104C16.1046 20.5119 15.6259 19.6412 15.3506 18.7024C16.0276 19.5709 16.9068 20.3051 17.9639 20.5889C18.9468 20.8529 20.0079 20.7034 20.9563 20.3318C23.0541 19.5092 24.6704 17.5592 25.089 15.3453C25.3717 13.8514 25.1032 12.2713 24.3911 10.9304C24.91 11.1853 25.4017 11.5241 25.8516 11.9518C25.8737 11.9722 25.8952 11.9937 25.9167 12.0153C25.9626 12.06 26.0079 12.1059 26.0527 12.1524C26.8469 12.9801 27.4202 13.9981 27.7103 15.083C27.7692 15.2994 27.8157 15.5186 27.8508 15.7396C28.0185 16.8018 27.9137 17.902 27.4797 18.9308V18.9302Z" fill="#000E3F"/>
</g>
<g opacity="0.7">
<path d="M25.465 6.17277C25.4752 6.16994 25.4803 6.15124 25.4798 6.11669C25.4798 6.09969 25.4786 6.0776 25.4747 6.05267C25.4701 6.02774 25.4639 5.99885 25.456 5.96656C25.4463 5.93427 25.4339 5.89915 25.4197 5.86006C25.4112 5.84136 25.4022 5.82153 25.3925 5.80057C25.3835 5.77961 25.3727 5.75808 25.3602 5.73712C25.3138 5.64931 25.2469 5.55584 25.1614 5.46009C24.9892 5.26918 24.7297 5.07486 24.3847 4.94343C24.2142 4.87885 24.0255 4.82843 23.825 4.79444C23.6244 4.75931 23.412 4.73948 23.1927 4.72815C22.9729 4.71682 22.7475 4.71286 22.5135 4.70662C22.2789 4.70152 22.0353 4.69643 21.7827 4.69133C21.2773 4.6817 20.738 4.67377 20.1698 4.66754C19.0339 4.65507 17.7848 4.64997 16.4744 4.65394C15.8189 4.65564 15.1793 4.6596 14.5613 4.66527C13.946 4.67207 13.3393 4.67094 12.7535 4.73835C12.4612 4.77064 12.1745 4.82276 11.8998 4.89527C11.8307 4.91227 11.7632 4.93437 11.6964 4.95419C11.6295 4.97516 11.5633 4.99895 11.4981 5.02161C11.4335 5.04824 11.3695 5.07429 11.3061 5.10035C11.2743 5.11338 11.2426 5.12585 11.212 5.14001C11.1814 5.15531 11.1514 5.1706 11.1214 5.18533C11.0613 5.21592 11.0018 5.24595 10.9429 5.27598C10.8863 5.30997 10.8302 5.34339 10.7747 5.37681C10.7469 5.39324 10.7197 5.41024 10.692 5.42667C10.6653 5.44423 10.6398 5.46293 10.6138 5.48106C10.5622 5.51731 10.5107 5.55357 10.4603 5.58926C10.4104 5.62552 10.3639 5.66631 10.3169 5.70426C10.2937 5.72353 10.2705 5.74279 10.2472 5.76148C10.224 5.78018 10.2008 5.79944 10.1798 5.81983C10.1368 5.86062 10.0943 5.90084 10.0524 5.9405C10.0314 5.96033 10.0104 5.98016 9.99004 5.99998C9.97078 6.02095 9.95152 6.04191 9.93226 6.0623C9.62181 6.39032 9.39463 6.73193 9.23261 7.04748C9.21278 7.08713 9.19352 7.12622 9.17482 7.16475C9.16519 7.18401 9.15613 7.2027 9.14706 7.22196C9.13857 7.24123 9.1312 7.26049 9.1227 7.27975C9.09211 7.35623 9.06209 7.42931 9.03376 7.49956C9.01053 7.57151 8.98844 7.64062 8.96748 7.70634C8.95784 7.73919 8.94595 7.77092 8.93859 7.80264C8.93122 7.83437 8.92386 7.86553 8.91706 7.89612C8.90346 7.95674 8.891 8.01339 8.8791 8.06721C8.8706 8.12159 8.86437 8.17258 8.85814 8.2196C8.85247 8.26662 8.84738 8.31025 8.84341 8.3499C8.84058 8.38956 8.84114 8.42638 8.84058 8.45924C8.84058 8.58954 8.85134 8.65752 8.8723 8.65979C8.89326 8.66205 8.92329 8.5986 8.96124 8.47907C8.97088 8.44904 8.97994 8.41562 8.99184 8.37879C9.00487 8.34254 9.01903 8.30288 9.03376 8.25982C9.04792 8.21677 9.06379 8.17088 9.08022 8.12159C9.09948 8.07344 9.11987 8.02189 9.14196 7.9675C9.15273 7.94031 9.16349 7.91255 9.17482 7.88366C9.18559 7.85476 9.20088 7.82701 9.21391 7.79755C9.24111 7.7392 9.26943 7.67745 9.29889 7.61343C9.33232 7.55111 9.36744 7.48653 9.40369 7.41911C9.41276 7.40212 9.42126 7.38512 9.43145 7.36813C9.44165 7.3517 9.45242 7.3347 9.46262 7.31827C9.48358 7.28485 9.5051 7.25029 9.52663 7.21573C9.70282 6.93984 9.93396 6.64525 10.2331 6.36709C10.2518 6.34953 10.2699 6.33197 10.2886 6.31384C10.3084 6.29741 10.3283 6.28098 10.3486 6.26398C10.3883 6.23056 10.4291 6.19657 10.4699 6.16258C10.4897 6.14501 10.5112 6.12915 10.5333 6.11329C10.5549 6.09743 10.577 6.08157 10.599 6.0657C10.6432 6.03454 10.6863 5.99999 10.7327 5.96996C10.7792 5.9405 10.8268 5.91048 10.8744 5.88045C10.8982 5.86572 10.922 5.84986 10.9463 5.83513C10.9713 5.82153 10.9962 5.8085 11.0217 5.79491C11.0721 5.76771 11.1225 5.74052 11.1741 5.71276C11.2267 5.68897 11.2806 5.66461 11.3344 5.64025C11.361 5.62835 11.3882 5.61589 11.4154 5.60342C11.4432 5.59266 11.4715 5.58303 11.4992 5.57226C11.5553 5.55187 11.612 5.53091 11.6692 5.50995C11.7281 5.49239 11.7865 5.47369 11.8465 5.45726C11.9071 5.44196 11.9672 5.4244 12.0295 5.41137C12.2771 5.35529 12.5382 5.31563 12.8107 5.29297C13.3557 5.24482 13.9438 5.25672 14.5641 5.25841C15.1822 5.26068 15.8223 5.26124 16.4778 5.25955C17.7887 5.25615 19.0373 5.24425 20.1732 5.22556C20.7409 5.21649 21.2807 5.20573 21.7861 5.19326C22.0387 5.18647 22.2823 5.18023 22.5169 5.174C22.7514 5.16777 22.9763 5.1587 23.1859 5.15644C23.6052 5.15021 23.974 5.17967 24.281 5.26521C24.5852 5.34849 24.8277 5.48899 25.0005 5.63005C25.0866 5.70087 25.1586 5.77111 25.2141 5.83853C25.2288 5.85439 25.2418 5.87139 25.2537 5.88725C25.2662 5.90311 25.2781 5.91841 25.2894 5.93314C25.3104 5.96373 25.3296 5.99149 25.3472 6.01642C25.3631 6.04248 25.3778 6.06513 25.3908 6.08496C25.4039 6.10479 25.4135 6.12235 25.4231 6.13538C25.4424 6.16258 25.4571 6.1756 25.4673 6.17277H25.465Z" fill="white"/>
</g>
<g opacity="0.7">
<path d="M16.4359 13.4773C16.5022 13.53 16.6778 13.4286 16.918 13.2388C17.0381 13.1436 17.1758 13.0269 17.3248 12.8949C17.4744 12.7641 17.6358 12.6179 17.8041 12.4633C17.9729 12.3097 18.1332 12.1619 18.2771 12.0248C18.4216 11.8882 18.5502 11.7619 18.6561 11.6509C18.8669 11.4288 18.9836 11.2628 18.9371 11.1926C18.8918 11.124 18.6884 11.1648 18.4029 11.3059C18.2601 11.3761 18.0981 11.473 17.9259 11.5919C17.7548 11.7115 17.5741 11.8542 17.3962 12.0168C17.2183 12.18 17.0602 12.3465 16.9254 12.5063C16.7917 12.6666 16.6807 12.8196 16.5979 12.9556C16.4314 13.2275 16.3725 13.4258 16.4371 13.4773H16.4359Z" fill="white"/>
</g>
<g opacity="0.7">
<path d="M15.8717 19.4355C15.9499 19.4021 15.9601 19.2395 15.938 19.0055C15.9324 18.9466 15.9244 18.8837 15.9159 18.8163C15.9063 18.7495 15.8972 18.6775 15.8848 18.6033C15.8627 18.4543 15.836 18.2923 15.8077 18.1223C15.7805 17.9524 15.7545 17.7904 15.7278 17.6419C15.7159 17.5677 15.7012 17.4969 15.6893 17.4301C15.6757 17.3632 15.6633 17.3009 15.6497 17.2437C15.5964 17.0142 15.5347 16.8635 15.4502 16.8567C15.3681 16.8499 15.278 16.9938 15.2214 17.2414C15.2072 17.3032 15.1953 17.3717 15.1874 17.4453C15.1778 17.519 15.1738 17.5977 15.171 17.681C15.1681 17.847 15.1795 18.03 15.21 18.2198C15.2418 18.409 15.2894 18.5863 15.3449 18.7427C15.3738 18.8209 15.4027 18.8939 15.4355 18.9608C15.4667 19.0282 15.5001 19.0888 15.533 19.1432C15.6655 19.3602 15.7964 19.4678 15.8723 19.435L15.8717 19.4355Z" fill="white"/>
</g>
<g opacity="0.7">
<path d="M19.8549 17.22C19.937 17.2358 20.0696 16.9526 20.2174 16.4807C20.2916 16.245 20.3692 15.9623 20.4463 15.6462C20.465 15.5669 20.4842 15.4859 20.5041 15.4031C20.5233 15.3193 20.5415 15.2366 20.5613 15.1612C20.5811 15.0853 20.6038 15.0151 20.6304 14.9562C20.657 14.8972 20.6871 14.8508 20.7199 14.8185C20.7364 14.8021 20.7522 14.7885 20.7726 14.7754C20.793 14.7624 20.8168 14.75 20.8451 14.7392C20.9012 14.7165 20.972 14.6984 21.0508 14.682C21.1357 14.665 21.219 14.6485 21.3012 14.6327C21.3844 14.6157 21.466 14.5987 21.5453 14.5823C21.8632 14.5143 22.1481 14.4446 22.3861 14.3777C22.8619 14.2435 23.1492 14.1194 23.1356 14.0373C23.122 13.9551 22.8098 13.9296 22.3164 13.9557C22.0694 13.9687 21.7776 13.9942 21.4547 14.0322C21.3743 14.0424 21.2915 14.0526 21.2071 14.0628C21.1216 14.0741 21.04 14.0843 20.9443 14.099C20.8491 14.1149 20.7437 14.1353 20.6287 14.1778C20.5715 14.1993 20.5126 14.2265 20.4542 14.2627C20.3959 14.2984 20.3387 14.3438 20.2894 14.3936C20.1891 14.4945 20.1234 14.61 20.0775 14.7182C20.0322 14.827 20.0044 14.9301 19.984 15.0258C19.9631 15.1227 19.95 15.2105 19.9364 15.2932C19.9234 15.3771 19.9109 15.4598 19.8985 15.5397C19.8514 15.8615 19.8169 16.1526 19.7971 16.3991C19.7568 16.8914 19.7727 17.2041 19.8549 17.2205V17.22Z" fill="white"/>
</g>
<path d="M23.2757 4.33157C23.3295 4.36953 23.3935 4.35877 23.453 4.3633C24.0501 4.41032 24.573 4.63466 25.02 5.03066C25.4766 5.43572 25.7525 5.94559 25.8794 6.54043C25.9485 6.86448 25.9474 7.19249 25.9361 7.5205C25.9219 7.9318 25.8975 8.34252 25.8845 8.75381C25.8568 9.64834 25.833 10.5434 25.8086 11.4385C25.8063 11.5156 25.7808 11.6011 25.8171 11.6685C25.8494 11.7292 25.9157 11.7717 25.9684 11.8209C26.8867 12.6735 27.5144 13.7052 27.8792 14.9022C28.0905 15.5956 28.1778 16.3038 28.1455 17.0261C28.1081 17.8595 27.907 18.652 27.532 19.3976C26.8368 20.781 25.7837 21.8086 24.4144 22.5179C23.7221 22.8765 22.9868 23.106 22.2152 23.2125C21.6623 23.289 21.1082 23.2935 20.5519 23.2289C19.6845 23.1286 18.8699 22.8697 18.1085 22.4432C17.6253 22.1724 17.1873 21.8409 16.7993 21.4455C16.1659 20.8002 15.711 20.0434 15.4022 19.1964C15.2051 18.656 15.0816 18.0985 15.0255 17.5258C14.9819 17.0816 14.9802 16.638 15.0238 16.1939C15.0255 16.1775 15.0272 16.1605 15.0266 16.144C15.0266 16.1123 15.0102 16.0919 14.9774 16.0897C14.9609 16.0885 14.9439 16.0885 14.9275 16.0897C14.5445 16.1157 14.1621 16.1418 13.7792 16.1684C13.4132 16.1939 13.0472 16.2188 12.6813 16.2471C12.3374 16.2738 11.9941 16.3038 11.6508 16.3333C11.346 16.3593 11.0412 16.3854 10.737 16.4137C10.5319 16.4324 10.3274 16.4534 10.1229 16.4754C10.0673 16.4817 10.0571 16.493 10.056 16.5502C10.0526 16.6947 10.052 16.8392 10.0509 16.9842C10.0441 17.6901 10.0362 18.3965 10.0305 19.1024C10.026 19.6474 10.0237 20.1924 10.022 20.7374C10.022 20.8155 10.0141 20.8926 9.99653 20.9691C9.92118 21.305 9.64812 21.5486 9.30764 21.5769C9.01872 21.6007 8.68051 21.4483 8.54794 21.092C8.50772 20.9844 8.45107 20.9356 8.34683 20.9017C7.20303 20.5306 6.09889 20.0615 5.01967 19.5318C4.43049 19.2429 3.85094 18.9358 3.27706 18.6186C3.02893 18.4809 2.78929 18.3297 2.55418 18.1705C2.13439 17.8866 1.89589 17.4861 1.78768 17.0012C1.71347 16.6675 1.70327 16.3299 1.7367 15.9894C1.79845 15.3532 1.97577 14.7464 2.19444 14.1499C2.92752 12.1552 4.02656 10.3877 5.49214 8.84842C5.95669 8.36065 6.45126 7.90574 6.97472 7.48141C7.78881 6.82029 8.66181 6.24924 9.596 5.77223C9.69627 5.72124 9.78408 5.65893 9.86453 5.57961C10.4361 5.0165 11.1222 4.67375 11.9108 4.53269C12.3006 4.46301 12.6931 4.43298 13.0891 4.43128C13.8064 4.42788 14.5236 4.42052 15.2413 4.41485C16.0367 4.40862 16.8316 4.40296 17.627 4.39559C18.5113 4.38709 19.3951 4.3769 20.2794 4.3684C20.6686 4.36443 21.0578 4.3633 21.447 4.36047C21.7025 4.35877 21.9585 4.3565 22.214 4.35367C22.2577 4.35367 22.3036 4.3616 22.3426 4.33157H23.2768H23.2757ZM25.4721 11.3864C25.4993 11.3354 25.493 11.2794 25.4947 11.2244C25.5095 10.7576 25.5236 10.2908 25.5384 9.82396C25.5605 9.11808 25.5826 8.4122 25.6041 7.70632C25.6115 7.46158 25.6245 7.21741 25.6115 6.97268C25.5922 6.61237 25.5123 6.26736 25.339 5.94955C24.9741 5.28162 24.424 4.85617 23.67 4.71284C23.4236 4.66582 23.1726 4.66355 22.9216 4.66639C21.9931 4.67602 21.0646 4.68508 20.1355 4.69245C19.5735 4.69698 19.0121 4.69755 18.4501 4.70208C17.4547 4.71001 16.4594 4.72134 15.464 4.7287C14.6408 4.73493 13.8177 4.7338 12.9951 4.74343C12.6059 4.74797 12.2178 4.77516 11.836 4.86297C9.93761 5.30089 8.98926 6.94719 8.91731 8.30513C8.90088 8.61105 8.89691 8.9164 8.89408 9.22232C8.88275 10.54 8.87426 11.8583 8.86349 13.176C8.85443 14.3159 8.8431 15.4563 8.8346 16.5961C8.8278 17.5246 8.8244 18.4537 8.8176 19.3823C8.81477 19.7879 8.80627 20.1941 8.80118 20.5997C8.80004 20.7051 8.79721 20.811 8.82157 20.9152C8.89012 21.2093 9.2 21.3464 9.4606 21.1957C9.62432 21.1011 9.6974 20.9555 9.69854 20.7663C9.70194 20.2269 9.71043 19.6876 9.71497 19.1483C9.7195 18.5869 9.7212 18.0249 9.72573 17.4635C9.73366 16.5015 9.74386 15.5396 9.75236 14.5776C9.75689 14.027 9.75746 13.4763 9.76199 12.9256C9.76992 11.9694 9.78125 11.0125 9.78862 10.0562C9.79258 9.57243 9.78975 9.08863 9.79258 8.60482C9.79598 7.99411 9.96424 7.43269 10.2973 6.91999C10.4016 6.75967 10.5375 6.6288 10.6673 6.49171C11.0333 6.10477 11.4848 5.86571 11.9958 5.73201C12.2666 5.66063 12.5453 5.65156 12.8235 5.64476C13.1294 5.6374 13.4353 5.63853 13.7412 5.63627C14.9366 5.62607 16.1325 5.61587 17.3278 5.60681C18.3844 5.59831 19.4409 5.59151 20.4975 5.58358C21.1093 5.57905 21.7212 5.57338 22.3325 5.56998C22.6605 5.56828 22.989 5.57905 23.3165 5.56942C23.5006 5.56432 23.6717 5.60851 23.8337 5.67762C24.1918 5.83001 24.4359 6.10534 24.6059 6.45092C24.6133 6.46565 24.6195 6.48151 24.6229 6.49794C24.6671 6.68659 24.7317 6.87127 24.726 7.06899C24.722 7.19702 24.7249 7.32449 24.7209 7.45252C24.705 7.925 24.6722 8.39691 24.6699 8.86938C24.6699 8.9419 24.6642 9.01385 24.662 9.08579C24.645 9.64721 24.6297 10.2086 24.6098 10.77C24.607 10.8477 24.6325 10.8913 24.7011 10.927C24.9435 11.0527 25.1735 11.1978 25.3956 11.3564C25.4177 11.3723 25.4392 11.3915 25.4715 11.3864H25.4721ZM20.5853 22.9179C20.6799 22.9207 20.6958 22.9105 20.702 22.8442C20.715 22.6958 20.7723 22.5638 20.8544 22.4437C20.9139 22.3565 20.9773 22.2709 21.0487 22.1939C21.4555 21.752 21.843 21.2931 22.2395 20.8422C22.3058 20.7668 22.371 20.6886 22.4554 20.6348C22.5262 20.5895 22.546 20.5408 22.5279 20.4558C22.4588 20.1295 22.3993 19.8015 22.3347 19.4746C22.2939 19.2673 22.2497 19.061 22.2118 18.8531C22.201 18.7948 22.1738 18.7647 22.1172 18.7557C22.0112 18.7381 21.9166 18.6911 21.8226 18.6429C21.1751 18.3098 20.5275 17.9767 19.8806 17.643C19.7661 17.5841 19.6625 17.511 19.5809 17.4085C19.5316 17.3456 19.5276 17.3468 19.4579 17.3841C19.2138 17.5167 18.9702 17.651 18.7266 17.7847C18.5997 17.8544 18.4745 17.9257 18.3459 17.992C18.2835 18.0237 18.2535 18.0617 18.2671 18.1359C18.2841 18.2294 18.2745 18.3246 18.262 18.4186C18.1742 19.0741 18.087 19.7295 17.9986 20.385C17.9822 20.5062 17.9669 20.628 17.9397 20.7464C17.8774 21.0172 17.7119 21.1985 17.4457 21.2829C17.3822 21.3033 17.3171 21.3186 17.2536 21.3384C17.1964 21.356 17.1885 21.3798 17.2321 21.4172C17.3584 21.526 17.4825 21.6381 17.6151 21.739C18.3731 22.3134 19.2268 22.6732 20.1582 22.8516C20.3111 22.8811 20.4652 22.9009 20.5864 22.9196L20.5853 22.9179ZM15.3241 16.3593C15.3195 16.4205 15.3127 16.4811 15.3105 16.5423C15.3076 16.6074 15.319 16.6244 15.3824 16.6284C15.5405 16.6375 15.6866 16.6896 15.8305 16.7496C16.4713 17.0159 17.1126 17.2822 17.7539 17.5479C17.8519 17.5887 17.9482 17.6334 18.0252 17.7071C18.0807 17.7603 18.1272 17.7512 18.1878 17.7173C18.4688 17.5598 18.7521 17.4068 19.0347 17.2516C19.1515 17.1876 19.2682 17.1224 19.3854 17.0595C19.4239 17.0391 19.4421 17.0114 19.4443 16.9678C19.4489 16.8567 19.4698 16.7474 19.4936 16.6386C19.6001 16.1559 19.7044 15.6733 19.8103 15.1906C19.8653 14.9413 19.914 14.6898 19.9837 14.4445C20.0103 14.3499 19.9882 14.304 19.9202 14.249C19.6783 14.053 19.4404 13.8525 19.2013 13.6536C19.1027 13.572 19.0042 13.491 18.9062 13.4089C18.8722 13.3806 18.841 13.3772 18.8008 13.3998C18.6688 13.474 18.5243 13.5137 18.3776 13.5477C17.7663 13.6882 17.155 13.8298 16.5438 13.9703C16.4078 14.0015 16.2696 14.0315 16.1313 14.0128C16.0107 13.9964 15.9557 14.0451 15.9064 14.1493C15.5733 14.8501 15.3796 15.586 15.3241 16.3593ZM22.942 13.9346C22.6559 13.9544 22.4254 13.9907 22.1948 14.0258C21.86 14.0768 21.5252 14.1272 21.1903 14.1782C20.9983 14.2077 20.8057 14.2337 20.6148 14.2689C20.4205 14.3051 20.2981 14.4201 20.263 14.6195C20.259 14.6411 20.2511 14.6626 20.246 14.6841C20.093 15.3781 19.94 16.0721 19.7888 16.7661C19.7758 16.8256 19.7667 16.8862 19.7633 16.9474C19.7548 17.0918 19.8143 17.2074 19.9287 17.2924C19.9774 17.3286 20.0318 17.3575 20.0862 17.3853C20.7077 17.7071 21.3297 18.0277 21.9512 18.3484C21.9954 18.371 22.0413 18.3925 22.0871 18.4107C22.2526 18.4764 22.4027 18.4509 22.5347 18.3297C22.5795 18.2883 22.6253 18.2475 22.669 18.205C23.1261 17.7592 23.5839 17.3128 24.0405 16.8663C24.0683 16.8392 24.0949 16.8108 24.1192 16.7808C24.2252 16.6499 24.2563 16.5049 24.2003 16.344C24.1855 16.3021 24.168 16.2613 24.1515 16.2199C23.8932 15.5815 23.6349 14.9436 23.3765 14.3057C23.3601 14.2643 23.3403 14.2247 23.3199 14.185C23.2292 14.01 23.0922 13.9159 22.9415 13.9346H22.942ZM22.52 18.7823C22.52 18.7823 22.5256 18.805 22.5296 18.8265C22.567 19.0174 22.6032 19.2083 22.6406 19.3992C22.7058 19.7318 22.7732 20.0638 22.8355 20.3969C22.8474 20.4609 22.8723 20.496 22.9386 20.5034C23.0616 20.517 23.1743 20.5646 23.2876 20.6116C23.9691 20.896 24.6518 21.1792 25.3327 21.4653C25.3854 21.4874 25.4262 21.4925 25.4687 21.4517C25.4846 21.4364 25.5033 21.424 25.5202 21.4098C26.1553 20.8824 26.6816 20.2632 27.0901 19.5448C27.1065 19.516 27.1224 19.4865 27.1388 19.4576C27.1592 19.4202 27.1575 19.3834 27.1382 19.3466C27.1252 19.3216 27.1133 19.2967 27.1008 19.2718C26.898 18.8701 26.6918 18.4696 26.4935 18.0657C26.3615 17.7966 26.2023 17.5405 26.1089 17.2533C26.0947 17.2102 26.0635 17.1938 26.0245 17.1825C25.9281 17.1547 25.8324 17.1269 25.7367 17.0986C25.3531 16.9864 24.969 16.8743 24.5855 16.7604C24.5407 16.7474 24.5107 16.7542 24.4897 16.7972C24.4206 16.94 24.3102 17.0499 24.198 17.1587C23.9669 17.3836 23.7397 17.6125 23.5029 17.8311C23.1851 18.1246 22.9109 18.4656 22.5432 18.7047C22.5234 18.7177 22.5126 18.7364 22.5188 18.7823H22.52ZM8.47373 20.5935C8.49752 20.4949 8.49016 20.4003 8.49072 20.3062C8.49412 19.8893 8.49412 19.4723 8.49809 19.0554C8.50489 18.3217 8.51395 17.5881 8.52188 16.8545C8.52188 16.8046 8.52188 16.7542 8.51962 16.7043C8.51735 16.6613 8.49979 16.6431 8.45617 16.6471C8.31227 16.6601 8.16838 16.6743 8.02505 16.6913C7.60582 16.7411 7.1866 16.7916 6.76738 16.8431C6.37591 16.8913 5.98388 16.9377 5.59299 16.9904C5.07009 17.0607 4.54719 17.1343 4.02486 17.2102C3.4861 17.2884 2.94791 17.3706 2.40916 17.451C2.39273 17.4533 2.3763 17.4572 2.361 17.4623C2.33494 17.4714 2.32814 17.4918 2.34004 17.5144C2.3525 17.5388 2.3695 17.5615 2.38536 17.5841C2.48564 17.7201 2.6097 17.8311 2.75246 17.9201C2.9836 18.064 3.21304 18.2107 3.44928 18.3467C4.10927 18.7268 4.79023 19.0667 5.47685 19.3964C6.39404 19.8372 7.32879 20.236 8.29641 20.5538C8.34853 20.5708 8.39838 20.5974 8.47429 20.594L8.47373 20.5935ZM21.7818 10.5332C21.2714 10.5236 20.7604 10.5939 20.2556 10.7123C19.9905 10.7746 19.731 10.8562 19.4749 10.9502C19.42 10.9706 19.3815 10.9972 19.373 11.0652C19.3288 11.4289 19.2806 11.7926 19.2319 12.1563C19.1905 12.4639 19.1826 12.7772 19.0852 13.0763C19.0733 13.1137 19.0812 13.1404 19.1095 13.1642C19.1566 13.2032 19.203 13.2429 19.25 13.282C19.5491 13.5307 19.8488 13.7794 20.1468 14.0292C20.1944 14.0695 20.2346 14.0836 20.2936 14.0451C20.3927 13.9805 20.506 13.951 20.6233 13.938C20.7173 13.9273 20.8108 13.9165 20.9043 13.9035C21.4102 13.8321 21.9161 13.7584 22.4225 13.6888C22.6531 13.657 22.8837 13.6106 23.1188 13.6446C23.1703 13.6519 23.2015 13.631 23.2292 13.5902C23.3358 13.4338 23.444 13.2792 23.5516 13.1239C23.7476 12.8407 23.9436 12.5568 24.1402 12.2742C24.1691 12.2322 24.177 12.1982 24.1402 12.1558C24.0819 12.0883 24.0377 12.0107 23.998 11.9308C23.9453 11.8266 23.8926 11.7229 23.84 11.6187C23.7068 11.3558 23.5731 11.0935 23.4428 10.8295C23.4134 10.7695 23.3748 10.7304 23.3086 10.7191C23.2865 10.7151 23.2649 10.7094 23.2434 10.7043C22.7664 10.5876 22.2826 10.5264 21.7812 10.5338L21.7818 10.5332ZM24.6223 12.4152C24.5866 12.4113 24.5521 12.4118 24.5209 12.4028C24.4609 12.3852 24.4257 12.4124 24.398 12.46C24.3866 12.4792 24.3725 12.4962 24.36 12.5149C24.0881 12.9081 23.8156 13.3013 23.5437 13.6944C23.5278 13.7171 23.5136 13.7409 23.4966 13.763C23.4689 13.7992 23.4712 13.8315 23.5 13.8678C23.5845 13.9731 23.6349 14.0966 23.6853 14.2207C23.9323 14.8342 24.181 15.4467 24.4286 16.0602C24.4637 16.1474 24.4983 16.2358 24.5237 16.3265C24.5424 16.3922 24.573 16.429 24.6416 16.4477C24.8665 16.5094 25.0897 16.578 25.3135 16.6431C25.5588 16.7145 25.8041 16.7865 26.0499 16.8567C26.1174 16.876 26.1208 16.8754 26.1525 16.8114C26.2097 16.6953 26.2907 16.5973 26.3751 16.5004C26.6975 16.1321 27.0187 15.7628 27.3399 15.394C27.413 15.3101 27.4849 15.2251 27.5597 15.143C27.5931 15.1062 27.6033 15.0677 27.5869 15.0206C27.5761 14.9895 27.5682 14.9566 27.558 14.9249C27.3903 14.3799 27.1535 13.8666 26.8521 13.3828C26.5983 12.9755 26.3009 12.6022 25.9667 12.2577C25.9066 12.196 25.8534 12.171 25.7627 12.1948C25.4885 12.2657 25.2109 12.3229 24.935 12.388C24.8314 12.4124 24.7266 12.4186 24.6229 12.4164L24.6223 12.4152ZM20.1123 10.395C20.1627 10.4222 20.2091 10.3984 20.2562 10.3882C20.6261 10.3072 20.9994 10.2517 21.3779 10.2319C21.7897 10.2103 22.2005 10.2205 22.61 10.2732C22.9851 10.3219 23.355 10.4007 23.7176 10.5066C23.8615 10.5485 23.9997 10.6092 24.1402 10.6607C24.1765 10.6743 24.2122 10.6896 24.2495 10.7004C24.275 10.7077 24.2932 10.6924 24.296 10.6675C24.3005 10.629 24.3034 10.5899 24.3039 10.5514C24.3079 10.3899 24.3096 10.229 24.3147 10.0676C24.3436 9.14471 24.3731 8.22242 24.4025 7.30013C24.4087 7.10015 24.4087 6.90357 24.3504 6.70585C24.2949 6.51777 24.2054 6.35631 24.0671 6.22431C23.8654 6.03113 23.9227 6.04982 23.7284 6.20675C23.7238 6.21015 23.7199 6.21411 23.7159 6.21808C22.9041 6.92396 22.1529 7.68763 21.4679 8.51814C21.0108 9.0722 20.5847 9.64834 20.1904 10.2483C20.1604 10.2936 20.1196 10.3344 20.1128 10.395H20.1123ZM15.3201 17.2561C15.3439 17.651 15.4056 18.0402 15.5014 18.4237C15.7325 19.3551 16.1421 20.1969 16.763 20.9322C16.7953 20.9702 16.8293 21.007 16.8622 21.045C16.8865 21.0727 16.9171 21.0818 16.9522 21.075C17.0446 21.0563 17.138 21.041 17.2298 21.0178C17.5306 20.9407 17.6321 20.8172 17.6677 20.5091C17.7029 20.2054 17.7431 19.9029 17.7833 19.5998C17.8394 19.1755 17.8983 18.7523 17.955 18.328C17.9793 18.1444 17.9142 17.9994 17.7522 17.9065C17.6706 17.86 17.5839 17.8204 17.4972 17.7841C17.1233 17.6272 16.7483 17.4725 16.3744 17.3167C16.1489 17.2227 15.9234 17.1286 15.698 17.0335C15.6107 16.9966 15.5223 16.9632 15.4277 16.9519C15.3292 16.94 15.3059 16.9604 15.3088 17.0567C15.3105 17.1235 15.3167 17.1898 15.3212 17.2561H15.3201ZM21.3977 22.953C21.6985 22.9559 21.9976 22.9258 22.2939 22.8777C23.2627 22.7207 24.1544 22.3661 24.9713 21.8228C25.0081 21.7985 25.0444 21.7724 25.0801 21.7458C25.0982 21.7322 25.0925 21.7021 25.0704 21.6919C25.0551 21.6846 25.0393 21.68 25.024 21.6732C24.398 21.4132 23.7725 21.1532 23.146 20.8937C23.0848 20.8682 23.0213 20.8456 22.9568 20.8291C22.8168 20.7935 22.6928 20.8263 22.588 20.9271C22.5602 20.9543 22.533 20.9827 22.5075 21.0116C22.0809 21.5022 21.6543 21.9933 21.2283 22.4845C21.1847 22.5349 21.1433 22.587 21.1031 22.6403C21.0555 22.7037 21.03 22.7768 21.0193 22.8556C21.0102 22.9213 21.0317 22.9502 21.0974 22.9519C21.1971 22.9541 21.2974 22.9524 21.3977 22.9524V22.953ZM2.02959 16.3378C2.03639 16.4488 2.03979 16.5825 2.05451 16.7151C2.06868 16.8476 2.097 16.978 2.14232 17.1043C2.16159 17.157 2.17292 17.166 2.22844 17.1581C2.43182 17.1292 2.63463 17.0975 2.83801 17.0675C3.34334 16.9927 3.84868 16.9185 4.35401 16.8437C4.46392 16.8273 4.57382 16.812 4.68372 16.795C4.72678 16.7882 4.75341 16.7644 4.75284 16.7174C4.75284 16.7009 4.75397 16.6839 4.7551 16.6675C4.77663 16.3406 4.80156 16.0137 4.84631 15.6891C4.85708 15.6121 4.86671 15.535 4.87634 15.458C4.8837 15.3968 4.86614 15.3798 4.80099 15.3855C4.77323 15.3877 4.74604 15.394 4.71828 15.3974C4.31605 15.4461 3.91326 15.4931 3.51103 15.543C3.06462 15.5985 2.61877 15.6563 2.17292 15.7135C2.09474 15.7237 2.09077 15.7276 2.07548 15.8024C2.04148 15.9724 2.04375 16.1452 2.02959 16.3389V16.3378ZM19.0274 11.1485C18.4886 11.34 17.619 11.945 17.0684 12.4996C16.7285 12.8424 16.2237 13.495 16.1744 13.6938C16.2294 13.7222 16.2815 13.6955 16.3336 13.6837C16.9947 13.5352 17.6558 13.3862 18.317 13.2372C18.3714 13.2248 18.4246 13.2095 18.4779 13.1942C18.679 13.1353 18.7996 13.0055 18.8274 12.7942C18.8404 12.6951 18.8569 12.5965 18.8705 12.4974C18.9226 12.1065 18.9747 11.715 19.0263 11.3241C19.0336 11.2697 19.0478 11.2148 19.0274 11.1496V11.1485ZM5.19415 13.8468C5.1409 13.8468 5.11315 13.8445 5.08652 13.8468C4.85481 13.8717 4.62254 13.8967 4.39083 13.9233C4.05432 13.9624 3.71781 14.002 3.38187 14.0428C3.12807 14.0734 2.8754 14.1091 2.6216 14.138C2.55588 14.1454 2.52586 14.176 2.5049 14.2349C2.3814 14.5799 2.26016 14.9255 2.17688 15.2829C2.17008 15.313 2.14799 15.3441 2.17915 15.377C2.23184 15.3945 2.28735 15.3792 2.34117 15.373C2.53945 15.3492 2.73773 15.3209 2.93602 15.296C3.34901 15.2444 3.76257 15.1929 4.17612 15.1424C4.3965 15.1152 4.61744 15.092 4.83782 15.0643C4.93299 15.0524 4.93639 15.045 4.95509 14.9543C5.0123 14.6773 5.06895 14.3997 5.12731 14.1227C5.14543 14.0366 5.16923 13.951 5.19472 13.8462L5.19415 13.8468ZM5.08482 16.5055C5.08368 16.5219 5.08312 16.5389 5.08199 16.5553C5.06782 16.7723 5.07349 16.7428 5.24911 16.7179C5.2933 16.7117 5.33748 16.7089 5.38167 16.7032C5.88814 16.6386 6.39404 16.5735 6.90051 16.5089C7.00531 16.4953 7.10955 16.4834 7.21436 16.4698C7.25855 16.4641 7.28347 16.4392 7.28461 16.3927C7.28517 16.365 7.28687 16.3372 7.28914 16.3095C7.3084 16.0494 7.3271 15.7894 7.34749 15.5294C7.35599 15.4189 7.36902 15.3084 7.37865 15.198C7.38545 15.1266 7.37015 15.1124 7.2931 15.1169C7.27101 15.1181 7.24892 15.1209 7.22682 15.1232C7.07216 15.1402 6.91807 15.1572 6.76341 15.1736C6.3 15.2223 5.83659 15.271 5.37318 15.3198C5.33465 15.3237 5.29669 15.3328 5.25817 15.3396C5.23381 15.3441 5.21908 15.3594 5.21342 15.3821C5.20662 15.4087 5.19869 15.4359 5.19529 15.4631C5.14883 15.8098 5.10691 16.1565 5.08482 16.5055ZM27.7025 15.5044C27.6475 15.5107 27.6317 15.543 27.6107 15.5668C27.2668 15.9599 26.9235 16.3531 26.5802 16.7462C26.5581 16.7712 26.5371 16.7972 26.5168 16.8233C26.4227 16.9468 26.3904 17.0816 26.4459 17.2306C26.4731 17.3031 26.5032 17.3751 26.5377 17.4442C26.7819 17.9303 27.0272 18.4158 27.2725 18.9018C27.2872 18.9313 27.3031 18.9608 27.3201 18.9897C27.3314 19.0089 27.3626 19.0055 27.3728 18.9829C27.3977 18.9273 27.4226 18.8713 27.4447 18.8146C27.6804 18.209 27.805 17.5802 27.8316 16.9309C27.843 16.6579 27.8265 16.3865 27.8016 16.1157C27.7829 15.9118 27.7557 15.7078 27.7025 15.5039V15.5044ZM7.47892 13.6145C6.97472 13.6621 6.46089 13.7103 5.94706 13.759C5.84225 13.7692 5.73745 13.7805 5.63208 13.7902C5.56919 13.7958 5.53407 13.8247 5.51934 13.8899C5.46665 14.1227 5.40773 14.3538 5.35448 14.5861C5.32842 14.6994 5.30689 14.8144 5.28763 14.9289C5.2763 14.994 5.29386 15.0116 5.35731 15.0053C5.47855 14.994 5.59978 14.9793 5.72158 14.9662C6.22918 14.913 6.73678 14.8592 7.24438 14.8059C7.45966 14.7833 7.41944 14.7935 7.4455 14.6156C7.48912 14.3193 7.52934 14.0224 7.58373 13.7278C7.58656 13.7114 7.58826 13.695 7.58939 13.678C7.59336 13.627 7.5775 13.6111 7.52141 13.6117C7.51008 13.6117 7.49932 13.6128 7.47836 13.6134L7.47892 13.6145ZM4.71885 12.6526V12.6537C4.51887 12.6622 4.31945 12.6702 4.11947 12.6798C3.83678 12.6939 3.55352 12.7121 3.27083 12.7228C3.18245 12.7262 3.12977 12.758 3.09181 12.8395C2.96094 13.1217 2.82951 13.4032 2.71451 13.6921C2.70601 13.7125 2.69751 13.7335 2.69071 13.7545C2.68052 13.7873 2.69694 13.8083 2.73263 13.8043C2.84877 13.7919 2.96434 13.7777 3.07991 13.7635C3.51556 13.7114 3.95065 13.6587 4.3863 13.6077C4.65653 13.576 4.92676 13.5449 5.19755 13.5171C5.26157 13.5103 5.29613 13.4854 5.31539 13.4236C5.3896 13.1851 5.46835 12.9483 5.54483 12.7104C5.54993 12.6945 5.55389 12.6781 5.55503 12.6617C5.55673 12.6362 5.54256 12.6192 5.51707 12.6175C5.48931 12.6152 5.46155 12.6163 5.43379 12.6175C5.19529 12.6288 4.95679 12.6407 4.71828 12.6526H4.71885ZM14.1735 14.5827C14.1735 14.5827 14.1735 14.5816 14.1735 14.581C13.935 14.594 13.697 14.6071 13.4585 14.6207C13.3922 14.6246 13.326 14.632 13.2597 14.6388C13.2302 14.6416 13.2075 14.6558 13.1996 14.687C13.1917 14.7192 13.1821 14.751 13.1753 14.7838C13.1163 15.0886 13.0574 15.394 12.9991 15.6993C12.99 15.7486 12.9826 15.7979 12.9758 15.8472C12.9713 15.8795 12.9855 15.901 13.0195 15.9027C13.0472 15.9038 13.075 15.9016 13.1022 15.8993C13.3735 15.88 13.6449 15.8608 13.9163 15.8415C14.1933 15.8223 14.4703 15.803 14.7468 15.7832C14.8567 15.7752 14.8567 15.7741 14.8646 15.6676C14.8873 15.3577 14.9162 15.0484 14.9598 14.7402C14.9643 14.7073 14.9672 14.6739 14.97 14.6405C14.9779 14.5436 14.9757 14.5408 14.8714 14.5436C14.7825 14.5459 14.6941 14.5499 14.6051 14.555C14.4613 14.5635 14.3174 14.5731 14.1729 14.5821L14.1735 14.5827ZM13.7457 7.96069C13.7678 7.98278 13.7962 7.97881 13.8228 7.97825C14.378 7.97428 14.9332 7.96862 15.4883 7.96749C15.5609 7.96749 15.5983 7.93576 15.6334 7.87911C15.843 7.53863 16.0656 7.20665 16.2945 6.87921C16.3098 6.85768 16.3313 6.83615 16.3121 6.79876C16.2894 6.7965 16.2628 6.7914 16.2356 6.7914C15.6413 6.79253 15.0476 6.81632 14.4539 6.84012C14.3848 6.84295 14.3417 6.86901 14.306 6.92679C14.11 7.24291 13.9248 7.56526 13.7565 7.89724C13.7463 7.91706 13.7355 7.9369 13.7446 7.96012L13.7457 7.96069ZM20.5791 7.07635C20.5592 7.05369 20.5321 7.04803 20.5043 7.04463C20.3995 7.03047 20.2953 7.01517 20.1904 7.00384C19.7871 6.96192 19.3832 6.92339 18.9804 6.87864C18.8943 6.86901 18.8359 6.8894 18.7787 6.95739C18.5204 7.26331 18.2694 7.57489 18.0331 7.89837C18.0167 7.92103 17.9997 7.94313 17.9867 7.96749C17.9748 7.99015 17.981 8.01394 18.0077 8.01791C18.0513 8.02527 18.096 8.02754 18.1402 8.02924C18.3068 8.0366 18.4733 8.0417 18.6399 8.05076C18.9673 8.06833 19.2948 8.08589 19.6217 8.10855C19.7083 8.11478 19.7639 8.09269 19.8182 8.02017C20.0409 7.72162 20.2794 7.43553 20.5292 7.15907C20.5508 7.13527 20.5802 7.11488 20.5796 7.07692L20.5791 7.07635ZM15.9869 7.95559C15.9993 7.95899 16.0135 7.96692 16.0282 7.96749C16.5058 7.97938 16.9834 7.98901 17.461 8.00374C17.5442 8.00657 17.593 7.97485 17.6377 7.9097C17.8694 7.57659 18.1176 7.25594 18.377 6.94379C18.3912 6.92679 18.4042 6.90867 18.4161 6.89054C18.4286 6.87184 18.4144 6.84578 18.3906 6.84295C18.3685 6.84012 18.3464 6.83842 18.3243 6.83728C17.836 6.81066 17.3477 6.79706 16.8588 6.79026C16.7783 6.78913 16.7256 6.81575 16.6792 6.88147C16.4514 7.20382 16.2288 7.529 16.0169 7.86155C15.9999 7.88817 15.9744 7.91367 15.9869 7.95559ZM4.91146 10.0324C4.96868 10.0477 5.02817 10.0313 5.08652 10.0245C5.43379 9.98429 5.78107 9.94237 6.12834 9.90271C6.36571 9.87552 6.60252 9.85002 6.84046 9.82793C6.92487 9.82 6.98039 9.78601 7.02684 9.71236C7.21606 9.41154 7.4234 9.12261 7.63811 8.83936C7.65738 8.81386 7.68627 8.79177 7.6772 8.74418C7.62678 8.72832 7.57353 8.74192 7.52084 8.74815C7.38318 8.76514 7.24552 8.78271 7.10785 8.8014C6.70109 8.85692 6.29433 8.91357 5.88701 8.96739C5.82809 8.97532 5.78503 8.99911 5.74425 9.0416C5.46552 9.33619 5.19586 9.63871 4.94036 9.9537C4.92393 9.97409 4.89957 9.99279 4.9109 10.0324H4.91146ZM6.08359 11.3847C6.03543 11.3847 6.00824 11.3825 5.98105 11.3847C5.82639 11.4 5.67173 11.4164 5.51707 11.4329C4.96472 11.4907 4.41293 11.5496 3.86001 11.6051C3.79202 11.6119 3.74727 11.6351 3.71384 11.6952C3.60054 11.8991 3.48384 12.1008 3.36884 12.3036C3.35807 12.3229 3.34901 12.3438 3.34448 12.3648C3.34108 12.3807 3.34901 12.3988 3.36884 12.3994C3.41869 12.3994 3.46854 12.3982 3.5184 12.396C3.89003 12.3773 4.26167 12.3574 4.6333 12.3399C4.94376 12.3251 5.25477 12.3093 5.56579 12.2996C5.6604 12.2968 5.71422 12.2662 5.75104 12.1722C5.84169 11.9393 5.94649 11.7127 6.04507 11.4833C6.05583 11.4584 6.06489 11.4323 6.08302 11.3847H6.08359ZM14.4726 8.27907C14.4726 8.2819 14.4726 8.2853 14.4726 8.28814C14.2058 8.29267 13.9389 8.3006 13.6721 8.3006C13.5882 8.3006 13.5412 8.32779 13.5067 8.40541C13.3781 8.6949 13.2534 8.98609 13.1379 9.28068C13.1316 9.29597 13.1271 9.3124 13.1226 9.32826C13.1095 9.37302 13.122 9.39341 13.1651 9.39454C13.2042 9.39511 13.2427 9.39454 13.2818 9.39284C13.4931 9.38548 13.7038 9.37642 13.9151 9.37132C14.1599 9.36565 14.404 9.35999 14.6488 9.36169C14.7496 9.36225 14.8091 9.326 14.8572 9.23479C15.0045 8.95436 15.1626 8.6796 15.3161 8.40257C15.3297 8.37821 15.3445 8.35442 15.3535 8.32836C15.362 8.30343 15.3496 8.28474 15.3229 8.28247C15.2844 8.27964 15.2453 8.27907 15.2062 8.27851C14.9615 8.27851 14.7173 8.27851 14.4726 8.27851V8.27907ZM4.01466 11.255C4.03789 11.2771 4.06565 11.268 4.09171 11.2658C4.62764 11.2102 5.163 11.1541 5.69892 11.0981C5.85358 11.0816 6.00824 11.0635 6.1629 11.051C6.23145 11.0459 6.27167 11.0188 6.30453 10.957C6.42917 10.7213 6.56003 10.4891 6.68863 10.2557C6.70166 10.2319 6.72092 10.2092 6.70676 10.1712C6.61668 10.1588 6.52434 10.1752 6.432 10.1854C6.08416 10.2245 5.73688 10.2641 5.3896 10.3055C5.1528 10.3338 4.916 10.3667 4.67863 10.3933C4.61178 10.4007 4.56589 10.4279 4.52793 10.4823C4.36647 10.7151 4.20332 10.9468 4.04129 11.1785C4.02543 11.2012 4.009 11.2238 4.01466 11.2544V11.255ZM17.1341 9.32996C17.1624 9.35432 17.197 9.34639 17.2293 9.34696C17.3737 9.35149 17.5182 9.35546 17.6626 9.35829C18.0405 9.36565 18.4184 9.37188 18.7962 9.38038C18.8574 9.38151 18.9005 9.36508 18.9333 9.31013C19.0993 9.03367 19.2784 8.76571 19.4625 8.50115C19.4772 8.48019 19.5004 8.45809 19.4772 8.4258C19.4262 8.402 19.3701 8.40994 19.3157 8.40597C19.1996 8.39804 19.0829 8.39067 18.9662 8.38557C18.5889 8.36801 18.211 8.35272 17.8337 8.33232C17.7578 8.32836 17.7102 8.35329 17.6694 8.41674C17.4944 8.68753 17.321 8.95889 17.1618 9.23932C17.146 9.26708 17.1199 9.29314 17.1341 9.33053V9.32996ZM11.244 14.7753C11.244 14.7753 11.244 14.7736 11.244 14.7731C11.0452 14.7872 10.8457 14.8014 10.6469 14.8167C10.4922 14.8286 10.337 14.8399 10.1829 14.8546C10.0736 14.8648 10.0656 14.875 10.0639 14.99C10.0617 15.1453 10.0617 15.3005 10.0611 15.4557C10.06 15.65 10.0583 15.8438 10.0583 16.0381C10.0583 16.1514 10.0617 16.1554 10.1687 16.148C10.307 16.1384 10.4446 16.1236 10.5829 16.1112C10.8316 16.0885 11.0797 16.0653 11.3284 16.0432C11.3737 16.0392 11.3992 16.0183 11.4043 15.9724C11.4094 15.9282 11.4179 15.8846 11.423 15.841C11.4451 15.6483 11.4672 15.4552 11.4882 15.2625C11.5046 15.1135 11.521 14.9651 11.5358 14.8161C11.5397 14.7753 11.5165 14.7532 11.4768 14.7561C11.3992 14.7617 11.3222 14.7697 11.2451 14.7765L11.244 14.7753ZM10.0764 13.985C10.073 13.985 10.0702 13.985 10.0668 13.985C10.0668 14.1352 10.0668 14.2853 10.0668 14.4354C10.0668 14.4468 10.0668 14.4575 10.0668 14.4688C10.0696 14.5238 10.0849 14.5402 10.1353 14.5408C10.1574 14.5408 10.1795 14.5402 10.2022 14.538C10.5183 14.5136 10.8338 14.4887 11.1494 14.4637C11.2491 14.4558 11.3488 14.4473 11.4485 14.4411C11.589 14.4326 11.5884 14.4303 11.6054 14.3034C11.6326 14.1051 11.6638 13.9074 11.6932 13.7097C11.7085 13.6055 11.725 13.5012 11.7391 13.3964C11.7454 13.3517 11.7295 13.3352 11.6859 13.3335C11.6695 13.333 11.6525 13.3335 11.636 13.3347C11.2865 13.3522 10.9364 13.3704 10.5868 13.3885C10.4537 13.3953 10.3206 13.4038 10.1874 13.4129C10.0838 13.4197 10.0775 13.4259 10.0764 13.5347C10.0747 13.6848 10.0764 13.8349 10.0764 13.9845V13.985ZM14.7643 12.0243V12.013C14.9972 12.013 15.23 12.0141 15.4629 12.0124C15.5773 12.0113 15.5767 12.0085 15.6158 11.9025C15.7229 11.6113 15.8305 11.3201 15.9376 11.0289C15.9455 11.008 15.9552 10.9882 15.9614 10.9672C15.9739 10.9264 15.9586 10.9032 15.9144 10.9026C15.8033 10.9015 15.6923 10.9026 15.5818 10.9037C15.2487 10.9054 14.9162 10.9043 14.5831 10.9111C14.3865 10.9151 14.4193 10.8817 14.3417 11.0697C14.2318 11.336 14.1298 11.6062 14.025 11.8742C14.0131 11.9054 14.0012 11.9365 13.9922 11.9682C13.9769 12.0204 13.9905 12.0379 14.0483 12.0368C14.2868 12.0334 14.5253 12.0289 14.7638 12.0243H14.7643ZM13.4789 14.3023C13.9163 14.2791 14.3542 14.2558 14.7915 14.232C14.8527 14.2286 14.9133 14.2218 14.974 14.2173C15.0113 14.2145 15.0357 14.1975 15.0448 14.1595C15.0499 14.138 15.0555 14.1165 15.0601 14.0949C15.1088 13.8502 15.1513 13.6043 15.2074 13.3613C15.2481 13.1862 15.2255 13.2055 15.0844 13.2089C14.6131 13.2197 14.1417 13.2327 13.6704 13.2452C13.654 13.2452 13.637 13.2474 13.6205 13.2486C13.5899 13.2508 13.5684 13.265 13.5582 13.2945C13.5475 13.3256 13.5361 13.3573 13.5276 13.3891C13.4614 13.6355 13.3945 13.8814 13.3294 14.1278C13.2761 14.33 13.2727 14.3125 13.4789 14.3017V14.3023ZM15.9433 11.9898C15.9659 12.0102 15.9942 12.0068 16.0214 12.0062C16.3653 12.0045 16.7092 12.0017 17.0531 12.0017C17.1131 12.0017 17.1584 11.9807 17.2021 11.9422C17.3817 11.7847 17.568 11.6368 17.7629 11.4986C17.7946 11.4759 17.8241 11.4521 17.8405 11.4142C17.9057 11.2675 17.9725 11.1213 18.0371 10.974C18.0552 10.9326 18.0399 10.91 17.9952 10.9094C17.8235 10.9071 17.6513 10.9054 17.4797 10.9043C17.1358 10.902 16.7919 10.9032 16.4486 10.8975C16.3631 10.8964 16.3211 10.9281 16.29 11.0063C16.1727 11.2997 16.0577 11.5938 15.9569 11.8935C15.9461 11.9246 15.9297 11.9546 15.9438 11.9892L15.9433 11.9898ZM10.3483 12.0912C10.3744 12.1184 10.4027 12.115 10.4299 12.1144C10.9188 12.1019 11.4072 12.0889 11.8961 12.0764C11.9074 12.0764 11.9182 12.0753 11.9295 12.0759C11.9771 12.077 11.9986 12.0498 12.0071 12.0068C12.0116 11.9852 12.019 11.9637 12.0241 11.9422C12.0909 11.6668 12.1584 11.3921 12.2229 11.1168C12.2326 11.0754 12.2552 11.0335 12.2348 10.9825C12.2099 10.9802 12.1827 10.9751 12.1555 10.9763C11.7006 10.9967 11.2457 11.0187 10.7908 11.0374C10.7302 11.0397 10.7024 11.0686 10.6837 11.1213C10.5761 11.4249 10.4667 11.7275 10.3591 12.0311C10.3517 12.0509 10.3517 12.0736 10.3489 12.0912H10.3483ZM6.07736 12.2685C6.13911 12.2685 6.19293 12.2702 6.24675 12.2685C6.5572 12.2566 6.86822 12.2436 7.17867 12.2311C7.39508 12.2226 7.61149 12.2141 7.8279 12.2045C7.91287 12.2005 7.92194 12.1948 7.94573 12.1167C8.02958 11.8408 8.11229 11.5643 8.19443 11.2878C8.2018 11.2635 8.21823 11.2363 8.18707 11.2102C8.14061 11.2102 8.09076 11.2068 8.04147 11.2102C7.73159 11.234 7.42171 11.2584 7.11182 11.2839C6.92374 11.2997 6.73622 11.3207 6.54813 11.3349C6.49035 11.3394 6.45749 11.3649 6.4354 11.4147C6.32153 11.6736 6.20596 11.932 6.09209 12.1909C6.08359 12.2101 6.08416 12.2328 6.07793 12.2674L6.07736 12.2685ZM15.1683 9.33279C15.2861 9.35885 15.3858 9.34242 15.485 9.34299C15.8674 9.34412 16.2503 9.34186 16.6327 9.34469C16.7086 9.34526 16.7545 9.32146 16.7913 9.25348C16.9449 8.97079 17.1131 8.69659 17.287 8.42637C17.3018 8.40314 17.3148 8.37878 17.325 8.35329C17.3318 8.33629 17.321 8.31759 17.3046 8.31589C17.2497 8.31023 17.1941 8.3074 17.1392 8.30626C16.7177 8.2989 16.2962 8.29607 15.8753 8.28247C15.7818 8.27964 15.7348 8.31023 15.6923 8.38728C15.5342 8.67393 15.3711 8.95719 15.2102 9.24159C15.1972 9.26481 15.1875 9.29031 15.1688 9.33279H15.1683ZM12.3255 7.01007C12.2785 6.99761 12.2292 7.00837 12.1805 7.0129C12.1255 7.018 12.0705 7.02537 12.015 7.0316C11.6071 7.07579 11.1998 7.12167 10.7913 7.16133C10.7166 7.1687 10.669 7.20042 10.6282 7.25764C10.5347 7.3885 10.4424 7.5205 10.3438 7.6474C10.2566 7.75957 10.2039 7.88421 10.1733 8.02187C10.1421 8.16407 10.1472 8.1703 10.2973 8.15953C10.7398 8.12838 11.1822 8.09722 11.6253 8.07003C11.7046 8.0655 11.7561 8.0434 11.7969 7.97032C11.9595 7.68026 12.1289 7.39417 12.2955 7.10638C12.3119 7.07862 12.3374 7.05256 12.3243 7.01007H12.3255ZM17.8122 9.671C17.8122 9.671 17.8122 9.66761 17.8122 9.66591C17.551 9.66591 17.2899 9.66874 17.0287 9.66421C16.9511 9.66307 16.9063 9.68913 16.8735 9.75825C16.7613 9.99392 16.6446 10.2273 16.5296 10.4619C16.52 10.4817 16.5109 10.5021 16.5052 10.5236C16.4985 10.5474 16.5064 10.5672 16.533 10.5729C16.5489 10.5763 16.5659 10.5769 16.5823 10.5774C17.099 10.5848 17.6156 10.591 18.1329 10.6001C18.1986 10.6012 18.2337 10.5723 18.262 10.5179C18.3912 10.2721 18.5232 10.0273 18.6535 9.78204C18.6886 9.71633 18.6767 9.69763 18.5957 9.6948C18.3345 9.68574 18.0734 9.67837 17.8128 9.67044L17.8122 9.671ZM6.94243 12.5534C6.94243 12.5534 6.94243 12.5557 6.94243 12.5568C6.77021 12.5631 6.59799 12.5687 6.42576 12.5761C6.28697 12.5818 6.14817 12.592 6.00938 12.5959C5.95046 12.5976 5.91873 12.6243 5.90117 12.6781C5.82243 12.9155 5.74255 13.1523 5.66323 13.3891C5.65983 13.3993 5.657 13.4106 5.65757 13.4219C5.65757 13.4468 5.67003 13.4638 5.69609 13.465C5.71252 13.4655 5.72951 13.4644 5.74594 13.4627C6.32153 13.4095 6.89654 13.3556 7.47212 13.3018C7.51631 13.2979 7.5605 13.2899 7.60469 13.286C7.65001 13.2814 7.67324 13.2554 7.68287 13.2129C7.72876 13.0067 7.77578 12.801 7.82053 12.5948C7.83186 12.5438 7.81317 12.5229 7.75935 12.5246C7.48742 12.5336 7.21492 12.5432 6.943 12.5529L6.94243 12.5534ZM20.804 6.76987C20.8839 6.77327 20.885 6.77383 20.9473 6.71152C21.1983 6.45941 21.4566 6.21581 21.7257 5.98297C21.7421 5.96881 21.7591 5.95351 21.7716 5.93539C21.7818 5.92066 21.7773 5.90196 21.7557 5.8997C21.7172 5.8963 21.6781 5.89403 21.6396 5.8946C21.234 5.8963 20.8283 5.89856 20.4233 5.90083C20.2454 5.90196 20.0675 5.90593 19.8902 5.90366C19.8182 5.90309 19.7627 5.92632 19.7129 5.97674C19.5457 6.14727 19.3769 6.31609 19.2087 6.48604C19.1934 6.5019 19.1781 6.51833 19.1667 6.53759C19.1577 6.55346 19.1667 6.57159 19.1832 6.57725C19.2092 6.58575 19.237 6.59085 19.2648 6.59312C19.697 6.62597 20.1264 6.67866 20.5559 6.73588C20.6437 6.74777 20.7315 6.7608 20.8046 6.771L20.804 6.76987ZM13.3435 10.94C13.3435 10.94 13.3435 10.9366 13.3435 10.9343C13.122 10.9434 12.8999 10.9513 12.6784 10.9621C12.5912 10.9666 12.5872 10.97 12.5657 11.055C12.4886 11.3615 12.4144 11.6685 12.3391 11.9756C12.3362 11.9864 12.3351 11.9977 12.334 12.0085C12.33 12.0402 12.3402 12.0628 12.3753 12.0657C12.4031 12.0679 12.4309 12.0679 12.4586 12.0668C12.6915 12.0611 12.9243 12.0543 13.1577 12.0487C13.2908 12.0453 13.424 12.0436 13.5571 12.0424C13.6013 12.0424 13.6307 12.0249 13.6443 11.9818C13.6494 11.966 13.6568 11.9507 13.6625 11.9354C13.7763 11.6402 13.8896 11.3456 14.0035 11.0505C14.0114 11.0301 14.0205 11.0097 14.0273 10.9887C14.0369 10.9581 14.0211 10.9298 13.9927 10.9275C13.965 10.9253 13.9372 10.9247 13.91 10.9253C13.7214 10.9298 13.5327 10.9349 13.3441 10.9394L13.3435 10.94ZM12.709 10.6301C12.7334 10.6324 12.7606 10.638 12.7878 10.6375C13.2262 10.6267 13.6647 10.6137 14.1032 10.6058C14.1786 10.6046 14.2092 10.5678 14.2369 10.5072C14.3502 10.2602 14.4669 10.0143 14.5825 9.76788C14.5944 9.74239 14.608 9.71859 14.5938 9.68233C14.5502 9.66647 14.5003 9.67327 14.4516 9.67497C14.0131 9.6863 13.5747 9.6982 13.1362 9.70953C13.1197 9.70953 13.1027 9.71123 13.0863 9.71009C13.0093 9.70499 12.9651 9.73616 12.9413 9.81433C12.8671 10.0585 12.7861 10.301 12.7079 10.544C12.6994 10.5706 12.6943 10.5978 12.7079 10.6296L12.709 10.6301ZM6.22918 8.59292C6.25071 8.59292 6.27224 8.59519 6.29377 8.59292C6.61838 8.55043 6.943 8.50681 7.26761 8.46546C7.47666 8.43883 7.68627 8.41333 7.89531 8.38954C7.97066 8.38104 8.02901 8.35385 8.07887 8.29267C8.26128 8.06889 8.4556 7.85531 8.65445 7.6457C8.67371 7.62587 8.69524 7.60605 8.70713 7.58169C8.72923 7.53806 8.75869 7.48651 8.72923 7.44289C8.70713 7.40947 8.65671 7.43439 8.61876 7.43496C8.60233 7.43496 8.58533 7.43779 8.5689 7.44006C8.17857 7.49388 7.78881 7.5494 7.39791 7.60095C7.33333 7.60945 7.28347 7.63777 7.23532 7.6763C6.90674 7.94143 6.58836 8.21845 6.28244 8.50851C6.25921 8.53061 6.22805 8.5493 6.22975 8.59292H6.22918ZM16.5302 9.6727C16.5064 9.67044 16.4798 9.66534 16.4526 9.66534C16.0753 9.66534 15.6974 9.66534 15.3201 9.66647C15.2311 9.66647 15.1422 9.66874 15.0538 9.66874C15.0113 9.66874 14.9808 9.6829 14.9609 9.72426C14.8352 9.98995 14.7077 10.2551 14.5819 10.5208C14.557 10.5729 14.5712 10.5944 14.6278 10.5944C14.7609 10.5944 14.8941 10.591 15.0272 10.5893C15.3603 10.5854 15.6934 10.5803 16.0265 10.5797C16.0962 10.5797 16.1376 10.5599 16.1682 10.4936C16.282 10.2466 16.4016 10.0024 16.5194 9.75768C16.5313 9.73276 16.5455 9.7084 16.5302 9.67327V9.6727ZM11.4151 9.45233C11.4383 9.47329 11.4666 9.46762 11.4933 9.46649C11.8876 9.4478 12.2819 9.42797 12.6762 9.41097C12.7351 9.40871 12.7668 9.38435 12.7861 9.33109C12.9033 9.01271 13.0342 8.70056 13.1707 8.39011C13.1753 8.37991 13.1815 8.36971 13.1821 8.35895C13.1832 8.34139 13.1747 8.32552 13.1566 8.32269C13.135 8.31929 13.1124 8.31986 13.0903 8.32043C12.7402 8.33572 12.3906 8.35385 12.0405 8.36405C11.9606 8.36632 11.921 8.39974 11.8881 8.46546C11.7397 8.76401 11.5879 9.06087 11.4389 9.35886C11.4247 9.38775 11.4038 9.41664 11.4151 9.45233ZM6.6637 10.9984C6.71242 10.9984 6.74585 11.0006 6.77871 10.9984C7.03874 10.9774 7.29877 10.9547 7.55937 10.9332C7.79164 10.9139 8.02448 10.8941 8.25675 10.8766C8.31227 10.8726 8.34683 10.8545 8.36722 10.7972C8.42331 10.6403 8.48789 10.4868 8.54624 10.331C8.58193 10.2353 8.574 10.1339 8.57117 10.0347C8.57003 10.003 8.54737 9.98656 8.51508 9.98712C8.50375 9.98712 8.49299 9.98825 8.48166 9.98939C8.06697 10.0273 7.65228 10.067 7.23702 10.1027C7.17527 10.1078 7.13505 10.131 7.10332 10.1837C6.95489 10.4313 6.8093 10.6811 6.6773 10.9383C6.66993 10.9519 6.66993 10.9695 6.66314 10.9984H6.6637ZM22.9131 5.8946C22.9131 5.8946 22.9131 5.8895 22.9131 5.88723C22.7573 5.88723 22.6021 5.8895 22.4463 5.8861C22.363 5.8844 22.299 5.91556 22.2356 5.96711C21.9563 6.19655 21.6844 6.43392 21.4243 6.68489C21.3847 6.72341 21.345 6.7625 21.3076 6.80329C21.2952 6.81689 21.3037 6.83558 21.319 6.84465C21.3331 6.85258 21.3495 6.85711 21.366 6.86051C21.6606 6.91659 21.9551 6.97098 22.2492 7.0299C22.3268 7.04519 22.384 7.03103 22.4418 6.97212C22.7738 6.63617 23.1193 6.31382 23.4762 6.0045C23.4927 5.99034 23.5097 5.97448 23.5221 5.95691C23.5329 5.94162 23.5244 5.91896 23.5102 5.91556C23.4734 5.90536 23.4343 5.89686 23.3958 5.8963C23.2349 5.89403 23.074 5.89516 22.9126 5.89516L22.9131 5.8946ZM10.8746 10.7026C10.8933 10.7049 10.9154 10.7111 10.9369 10.71C11.3698 10.693 11.8026 10.6754 12.2354 10.6579C12.2467 10.6579 12.2575 10.6556 12.2688 10.6556C12.3272 10.6562 12.3566 10.6296 12.3742 10.5718C12.4546 10.3061 12.5396 10.0421 12.6218 9.77751C12.6246 9.76901 12.6172 9.75711 12.6133 9.74182C12.5872 9.73955 12.56 9.73445 12.5328 9.73559C12.1499 9.75258 11.7675 9.77014 11.3845 9.78771C11.3624 9.78884 11.3403 9.79394 11.3182 9.79337C11.2525 9.79054 11.2191 9.82623 11.1953 9.88345C11.0922 10.1293 10.9874 10.3741 10.8826 10.6188C10.8718 10.6449 10.8605 10.6698 10.8752 10.7026H10.8746ZM13.9338 6.87467C13.7916 6.88374 13.654 6.89167 13.5163 6.90186C13.2954 6.91886 13.0744 6.93926 12.8535 6.95455C12.7861 6.95909 12.7413 6.98401 12.7067 7.04349C12.5306 7.34488 12.351 7.64457 12.1737 7.94539C12.1601 7.96805 12.1425 7.99185 12.1544 8.02187C12.164 8.02697 12.1731 8.03603 12.1822 8.03603C12.5532 8.02357 12.9243 8.01054 13.2954 7.99751C13.3316 7.99638 13.3594 7.98335 13.3758 7.94992C13.3883 7.925 13.4019 7.9012 13.4143 7.87628C13.5656 7.57376 13.7276 7.27747 13.9004 6.98628C13.9168 6.95852 13.9418 6.93302 13.9338 6.87524V6.87467ZM10.1206 9.01951C10.1178 9.01951 10.1149 9.01951 10.1121 9.01951C10.1121 9.16907 10.111 9.3192 10.1121 9.46876C10.1121 9.52088 10.1319 9.54127 10.1818 9.53901C10.4424 9.52598 10.7024 9.51011 10.9624 9.49595C11.0066 9.49369 11.0333 9.47046 11.0514 9.4325C11.061 9.41267 11.0706 9.39228 11.0803 9.37245C11.2174 9.09372 11.3545 8.81556 11.4921 8.53684C11.5069 8.50681 11.5222 8.47735 11.5346 8.44676C11.5448 8.42183 11.5335 8.40201 11.508 8.39917C11.4751 8.39577 11.4417 8.39804 11.4083 8.4003C11.1534 8.4156 10.899 8.4309 10.6441 8.44733C10.5166 8.45526 10.3897 8.46546 10.2622 8.47565C10.1229 8.48698 10.1212 8.48812 10.12 8.62011C10.1189 8.75325 10.12 8.88638 10.12 9.01951H10.1206ZM20.1519 8.13801C20.2074 8.14594 20.2562 8.15557 20.3054 8.1601C20.587 8.18446 20.8697 8.20486 21.1513 8.23205C21.2419 8.24111 21.3037 8.21902 21.3654 8.14594C21.5699 7.9046 21.7835 7.6712 21.9937 7.43496C22.0124 7.414 22.0316 7.39474 22.0492 7.37321C22.077 7.33922 22.0673 7.31373 22.0214 7.30523C21.7217 7.24914 21.4215 7.19589 21.1224 7.13754C21.0317 7.11998 20.9671 7.1415 20.9031 7.21232C20.6618 7.48028 20.425 7.75221 20.2012 8.03547C20.1814 8.06096 20.1553 8.08362 20.1519 8.13801ZM12.6082 14.6762C12.3929 14.6904 12.1884 14.7034 11.9833 14.717C11.9612 14.7187 11.9391 14.7215 11.9176 14.7255C11.8876 14.7311 11.87 14.751 11.8649 14.781C11.8621 14.7974 11.8604 14.8139 11.8581 14.8303C11.8162 15.177 11.7748 15.5231 11.7335 15.8698C11.7301 15.897 11.7289 15.9254 11.7295 15.9526C11.7306 15.9843 11.7488 16.0024 11.7816 16.003C11.793 16.003 11.8037 16.0024 11.815 16.0013C12.0581 15.9814 12.3011 15.9611 12.5442 15.9412C12.5549 15.9401 12.5663 15.939 12.577 15.9384C12.624 15.9361 12.6444 15.9067 12.6529 15.8647C12.6575 15.8432 12.6592 15.8211 12.6631 15.799C12.7158 15.5101 12.7708 15.2217 12.82 14.9328C12.8336 14.8518 12.8705 14.7736 12.8574 14.6881C12.7725 14.6422 12.6841 14.687 12.6087 14.6762H12.6082ZM13.2008 13.2792C13.1877 13.2763 13.1719 13.269 13.156 13.2695C12.8229 13.282 12.4903 13.295 12.1572 13.308C12.1516 13.308 12.1459 13.3092 12.1408 13.3092C12.1028 13.3114 12.0785 13.3301 12.0705 13.367C12.066 13.3885 12.0637 13.4106 12.0604 13.4327C12.019 13.6955 11.9776 13.959 11.9374 14.2224C11.9318 14.2609 11.9278 14.2995 11.9261 14.3385C11.9238 14.3833 11.9402 14.4014 11.9816 14.4026C11.998 14.4026 12.015 14.4026 12.0315 14.4009C12.3085 14.3816 12.5849 14.3629 12.862 14.3425C12.9447 14.3368 12.9464 14.3351 12.9702 14.2462C13.0478 13.951 13.1248 13.6559 13.2013 13.3607C13.2081 13.3352 13.2223 13.3086 13.2013 13.2792H13.2008ZM8.52415 15.671C8.52415 15.671 8.52811 15.671 8.53038 15.671C8.53038 15.4823 8.53151 15.2931 8.53038 15.1045C8.52981 15.0121 8.52245 15.0031 8.4369 15.0104C8.22106 15.0286 8.00522 15.0501 7.78994 15.0727C7.71799 15.0801 7.7095 15.0909 7.69987 15.1674C7.6891 15.2557 7.68004 15.3441 7.67324 15.4325C7.64888 15.7373 7.62565 16.0415 7.60299 16.3463C7.59902 16.3984 7.61772 16.4177 7.6721 16.4126C7.78824 16.4029 7.90438 16.3893 8.01995 16.3763C8.16328 16.3599 8.30717 16.3446 8.44993 16.3248C8.51452 16.3157 8.52301 16.3044 8.52358 16.2375C8.52528 16.0489 8.52358 15.8596 8.52358 15.671H8.52415ZM15.6861 6.48151C15.83 6.47981 16.0906 6.47698 16.3512 6.47301C16.4288 6.47188 16.5171 6.48887 16.58 6.45715C16.6435 6.42542 16.6826 6.34441 16.7302 6.28379C16.8055 6.18749 16.8792 6.09061 16.9534 5.99317C16.963 5.98014 16.9755 5.96315 16.9619 5.94898C16.9522 5.93879 16.9341 5.93482 16.9194 5.93199C16.9029 5.92915 16.886 5.93086 16.8695 5.93086C16.5421 5.93256 16.2146 5.93369 15.8872 5.93595C15.6209 5.93765 15.3541 5.94219 15.0878 5.94219C15.0266 5.94219 14.9824 5.96201 14.9468 6.0113C14.8425 6.1552 14.7366 6.29739 14.6318 6.44129C14.6199 6.45772 14.5995 6.47528 14.6119 6.50021C14.6244 6.524 14.6488 6.5189 14.6703 6.51777C14.97 6.507 15.2691 6.49624 15.6861 6.48094V6.48151ZM21.0108 8.5425C20.9688 8.5357 20.9422 8.53004 20.9145 8.52777C20.5995 8.50114 20.2845 8.47565 19.9701 8.44789C19.914 8.44279 19.8755 8.46036 19.8437 8.50624C19.7038 8.71246 19.5616 8.91754 19.4211 9.12375C19.3775 9.18777 19.3367 9.25405 19.297 9.3209C19.2665 9.37188 19.2772 9.39681 19.3299 9.39908C19.6455 9.41211 19.9616 9.42344 20.2771 9.43703C20.3332 9.4393 20.3695 9.41947 20.4029 9.37528C20.5955 9.11752 20.7898 8.86145 20.983 8.60482C20.9921 8.59236 20.996 8.57593 21.0108 8.5425ZM11.9204 12.4067C11.8723 12.4039 11.8451 12.4011 11.8184 12.4011C11.5743 12.405 11.3307 12.4079 11.0865 12.4141C10.8259 12.4209 10.5659 12.4316 10.3053 12.4384C10.2469 12.4401 10.2135 12.4634 10.1971 12.5195C10.1648 12.6311 10.1291 12.7421 10.0968 12.8537C10.0781 12.9183 10.0792 12.9857 10.0866 13.052C10.09 13.0826 10.1093 13.1013 10.1421 13.1001C10.1699 13.1001 10.1976 13.0979 10.2254 13.0967C10.5687 13.0769 10.9115 13.0571 11.2548 13.0367C11.4151 13.0276 11.576 13.0186 11.7363 13.0084C11.8015 13.0038 11.8111 12.9953 11.8235 12.9302C11.8558 12.7619 11.8859 12.5931 11.9204 12.4067ZM16.9953 6.45602C17.0859 6.48774 17.1528 6.47641 17.2174 6.47924C17.6717 6.49964 18.1266 6.5155 18.581 6.5393C18.6778 6.54439 18.747 6.52343 18.8127 6.44809C18.9401 6.30192 19.0784 6.16426 19.2115 6.02376C19.2308 6.00337 19.25 5.98354 19.2682 5.96258C19.2829 5.94502 19.2704 5.91499 19.2478 5.91386C19.2036 5.91159 19.1588 5.90989 19.1146 5.91046C18.6931 5.91556 18.2711 5.92122 17.8496 5.92576C17.7272 5.92745 17.6054 5.92859 17.4831 5.92746C17.4343 5.92746 17.3986 5.94445 17.3686 5.98241C17.2491 6.1348 17.129 6.28663 16.9947 6.45658L16.9953 6.45602ZM11.0106 6.79083C11.0791 6.81915 11.129 6.80442 11.1777 6.79989C11.619 6.75684 12.0598 6.71095 12.5011 6.66903C12.5589 6.66336 12.5906 6.63617 12.6195 6.59198C12.7413 6.40673 12.8642 6.22261 12.9866 6.03736C12.9985 6.01923 13.011 5.99997 12.9934 5.96768C12.8501 5.95918 12.7016 5.96315 12.5532 5.97164C12.2065 5.99147 11.8734 6.06569 11.5635 6.22714C11.5244 6.24754 11.4808 6.2651 11.4508 6.29569C11.299 6.44809 11.1545 6.60728 11.0112 6.79083H11.0106ZM19.0268 10.6052C19.0268 10.6109 19.0268 10.6165 19.0268 10.6216C19.1322 10.6216 19.237 10.6199 19.3424 10.6222C19.4154 10.6239 19.4851 10.6131 19.5531 10.5854C19.5905 10.5701 19.6194 10.5491 19.6415 10.5145C19.7916 10.2817 19.9429 10.05 20.093 9.81717C20.1225 9.77128 20.1083 9.74465 20.0534 9.74239C19.876 9.73502 19.6993 9.72936 19.522 9.72313C19.4002 9.71859 19.2784 9.71633 19.1566 9.70669C19.0846 9.70103 19.0432 9.73105 19.011 9.79111C18.8801 10.0353 18.7464 10.2777 18.6161 10.5219C18.5827 10.5842 18.5946 10.6041 18.6608 10.6052C18.7826 10.6069 18.9045 10.6052 19.0263 10.6052H19.0268ZM15.4685 12.358C15.4051 12.3257 15.3541 12.3348 15.3048 12.3353C14.8992 12.3387 14.493 12.3438 14.0874 12.3484C14.0318 12.3489 13.9763 12.3512 13.9208 12.3518C13.8766 12.3518 13.8471 12.3716 13.8336 12.4141C13.7843 12.5676 13.7338 12.7206 13.6857 12.8741C13.6761 12.9041 13.6965 12.9273 13.7287 12.929C13.7401 12.9296 13.7508 12.9296 13.7622 12.929C14.1621 12.9183 14.5627 12.9081 14.9626 12.8973C15.0623 12.8945 15.1626 12.8888 15.2623 12.8837C15.2974 12.882 15.3258 12.8707 15.3365 12.8305C15.379 12.6758 15.4232 12.5212 15.4691 12.358H15.4685ZM24.7209 12.094C24.777 12.0849 24.8546 12.0759 24.9305 12.0594C25.0988 12.0226 25.2664 11.9824 25.4341 11.9439C25.4557 11.9388 25.4783 11.9371 25.4993 11.9297C25.514 11.9246 25.5327 11.915 25.5384 11.9025C25.5486 11.8787 25.5282 11.8629 25.5117 11.8487C25.4863 11.8272 25.4608 11.8056 25.4347 11.7852C25.0937 11.5145 24.7288 11.2816 24.3345 11.0964C24.194 11.0301 24.0496 10.9717 23.9062 10.9117C23.8938 10.9066 23.8728 10.9088 23.8603 10.9162C23.8428 10.927 23.8541 10.9451 23.8603 10.9593C24.0082 11.2709 24.16 11.5796 24.3294 11.8804C24.3351 11.8901 24.3413 11.8991 24.347 11.9087C24.4291 12.0373 24.5504 12.0929 24.7209 12.094ZM7.40697 9.76108C7.4387 9.76108 7.47156 9.76391 7.50442 9.76108C7.8075 9.73276 8.11059 9.70216 8.41424 9.6761C8.56947 9.66251 8.57344 9.6812 8.58137 9.50162C8.58137 9.49028 8.58137 9.47952 8.58137 9.46819C8.58307 9.23026 8.58533 8.99175 8.58703 8.75381C8.58703 8.73172 8.58703 8.70962 8.58533 8.68753C8.58306 8.65411 8.56154 8.63654 8.53095 8.63938C8.42048 8.64901 8.31057 8.66147 8.20067 8.67393C8.16441 8.6779 8.14401 8.70623 8.12305 8.73172C7.87718 9.03877 7.64321 9.35489 7.42624 9.68347C7.41094 9.70613 7.39451 9.72936 7.40697 9.76165V9.76108ZM8.53435 14.1216C8.53435 14.1216 8.53944 14.1216 8.54171 14.1216C8.54171 14.0881 8.54171 14.0547 8.54171 14.0219C8.54341 13.8887 8.54738 13.7556 8.54624 13.6225C8.54624 13.5505 8.53038 13.5358 8.45503 13.5403C8.31114 13.5488 8.16724 13.5613 8.02391 13.5737C7.9412 13.5811 7.93837 13.5828 7.92137 13.674C7.88851 13.8542 7.85622 14.0343 7.82677 14.2145C7.80184 14.368 7.78087 14.5215 7.76048 14.6756C7.75312 14.7306 7.76954 14.7493 7.8245 14.7447C8.03467 14.7266 8.24429 14.7073 8.4539 14.6853C8.52585 14.6779 8.53264 14.6683 8.53321 14.5878C8.53491 14.4326 8.53321 14.2774 8.53321 14.1221L8.53435 14.1216ZM12.8875 12.3654C12.8875 12.3654 12.8875 12.3699 12.8875 12.3722C12.6994 12.3761 12.5107 12.3807 12.3226 12.3846C12.2773 12.3858 12.2484 12.4067 12.2399 12.4498C12.2093 12.6073 12.1799 12.7653 12.1521 12.9234C12.1448 12.9659 12.1623 12.984 12.2076 12.9829C12.3351 12.9806 12.4626 12.9766 12.5895 12.9715C12.8053 12.963 13.0212 12.9506 13.237 12.9449C13.305 12.9432 13.3362 12.9138 13.3543 12.8537C13.3962 12.716 13.4421 12.5795 13.4846 12.4418C13.5027 12.3829 13.4874 12.3654 13.4189 12.3648C13.2415 12.3642 13.0642 12.3648 12.8875 12.3648V12.3654ZM13.0019 6.61237C13.0268 6.61747 13.0376 6.62201 13.0478 6.62144C13.3628 6.60048 13.6778 6.57895 13.9927 6.55686C14.0369 6.55402 14.0811 6.54722 14.1253 6.54439C14.1684 6.54156 14.1956 6.5189 14.2188 6.48491C14.3259 6.33025 14.4341 6.17559 14.5417 6.0215C14.5542 6.00337 14.5712 5.98354 14.5536 5.96315C14.5451 5.95295 14.5241 5.94955 14.5094 5.94955C14.1769 5.95181 13.8449 5.95578 13.5123 5.95635C13.4495 5.95635 13.4098 5.98184 13.3764 6.03226C13.2597 6.20731 13.1407 6.38124 13.0234 6.55572C13.0149 6.56875 13.0121 6.58518 13.0019 6.61294V6.61237ZM10.1042 10.3044H10.1013C10.1013 10.4324 10.1008 10.5599 10.1013 10.6879C10.1013 10.727 10.1251 10.7491 10.1642 10.7491C10.2254 10.7485 10.2866 10.7457 10.3478 10.7423C10.4883 10.7344 10.4815 10.7582 10.5415 10.6109C10.6322 10.3899 10.7262 10.1701 10.8191 9.9503C10.8741 9.82057 10.8724 9.81887 10.7234 9.82736C10.6237 9.83303 10.5234 9.83586 10.4237 9.84266C10.3404 9.84776 10.2571 9.85456 10.1744 9.86419C10.12 9.87042 10.1053 9.88515 10.1042 9.93783C10.1019 10.0602 10.1036 10.1826 10.1036 10.3049L10.1042 10.3044ZM15.6832 12.8735C15.877 12.8809 16.0758 12.8735 16.2747 12.8718C16.3194 12.8718 16.3432 12.8424 16.3687 12.8118C16.4469 12.7183 16.5273 12.6265 16.6038 12.5314C16.6548 12.4673 16.729 12.422 16.7585 12.3404C16.6775 12.2877 16.5885 12.3206 16.5041 12.3195C16.3047 12.3161 16.1047 12.3212 15.9053 12.3257C15.8243 12.3274 15.8135 12.3359 15.7892 12.4152C15.7546 12.5263 15.724 12.6384 15.6917 12.7506C15.681 12.7874 15.6623 12.8231 15.6844 12.8741L15.6832 12.8735ZM9.20397 6.36537C9.18131 6.35064 9.16205 6.36537 9.14449 6.37557C8.73093 6.61294 8.3287 6.86844 7.94064 7.14547C7.92307 7.15793 7.90551 7.1721 7.92251 7.20155C7.94177 7.20155 7.96386 7.20382 7.98539 7.20155C8.25449 7.16643 8.52358 7.13017 8.79268 7.09505C8.84196 7.08882 8.87312 7.06502 8.89125 7.01913C8.97679 6.80216 9.085 6.59651 9.20284 6.3954C9.20737 6.38804 9.20284 6.37614 9.20284 6.36537H9.20397ZM8.55077 12.8622H8.5536C8.5536 12.7625 8.5536 12.6628 8.5536 12.5631C8.5536 12.5234 8.53038 12.5019 8.49186 12.5019C8.41424 12.5019 8.33663 12.503 8.25902 12.507C8.1831 12.511 8.17461 12.5161 8.15648 12.5886C8.12135 12.7279 8.08906 12.8684 8.0562 13.0084C8.04374 13.0622 8.03128 13.1166 8.02278 13.171C8.01371 13.2276 8.02788 13.2486 8.07887 13.2452C8.2171 13.2361 8.35476 13.2242 8.49299 13.2123C8.53265 13.2089 8.55021 13.1828 8.55077 13.1449C8.55134 13.0508 8.55077 12.9568 8.55077 12.8622ZM16.0685 13.21C15.9285 13.1772 15.8073 13.2072 15.6872 13.1998C15.66 13.1981 15.6317 13.2027 15.6045 13.2078C15.5807 13.2117 15.5682 13.2304 15.562 13.2531C15.5535 13.2854 15.5427 13.3171 15.5359 13.3494C15.4832 13.5992 15.4317 13.8491 15.3801 14.0995C15.3733 14.1312 15.3586 14.1686 15.3932 14.1913C15.43 14.2156 15.5229 14.1964 15.5467 14.1629C15.5626 14.1408 15.5739 14.1148 15.5858 14.0898C15.7138 13.8179 15.8555 13.5539 16.018 13.3013C16.0328 13.2786 16.0447 13.2542 16.0696 13.21H16.0685ZM8.557 11.3099C8.50885 11.3394 8.50375 11.3734 8.49469 11.404C8.43237 11.6057 8.37005 11.8073 8.31057 12.0096C8.25732 12.1903 8.25902 12.1903 8.45107 12.1795C8.4624 12.179 8.47316 12.1784 8.48449 12.1773C8.54058 12.1716 8.55644 12.1603 8.55644 12.1076C8.55757 11.847 8.557 11.5858 8.557 11.3099ZM10.1149 11.715C10.2107 11.5133 10.3223 11.1898 10.3364 11.0771C10.277 11.0578 10.2163 11.0714 10.1563 11.0737C10.1161 11.0754 10.0979 11.1009 10.0974 11.1389C10.0957 11.2827 10.0934 11.4261 10.094 11.57C10.094 11.6119 10.0832 11.6561 10.1149 11.7144V11.715ZM18.6518 10.9598C18.6246 10.9213 18.6014 10.9236 18.5804 10.9219C18.4048 10.9054 18.4184 10.9162 18.3521 11.0658C18.3487 11.0731 18.351 11.0879 18.3561 11.0935C18.3617 11.0998 18.3776 11.1043 18.3844 11.1009C18.4716 11.0561 18.5577 11.0097 18.6518 10.9604V10.9598ZM15.2685 14.8207C15.3297 14.7391 15.3626 14.649 15.3847 14.555C15.3864 14.5476 15.3767 14.5306 15.3705 14.5295C15.3558 14.5266 15.3388 14.5283 15.3252 14.534C15.3167 14.5374 15.3088 14.5504 15.3071 14.5601C15.2935 14.6467 15.2816 14.734 15.2691 14.8212L15.2685 14.8207ZM8.60573 8.18899C8.55701 8.19806 8.53774 8.24055 8.51055 8.27284C8.50545 8.27907 8.50489 8.2955 8.50942 8.30116C8.51508 8.30796 8.52868 8.31249 8.53831 8.31193C8.60799 8.30853 8.61366 8.2972 8.60573 8.18899Z" fill="#000E3F"/>
<path d="M13.507 23.6708C13.507 24.1495 11.2352 24.5376 8.4338 24.5376C5.63237 24.5376 3.36121 24.1495 3.36121 23.6708C3.36121 23.4674 3.46715 21.1781 4.1515 21.0303C5.08059 20.8297 6.82093 22.0336 8.4338 22.0336C10.0467 22.0336 11.8295 20.8581 12.7597 21.0507C13.4849 21.2008 13.507 23.4618 13.507 23.6714V23.6708Z" fill="#0D51E3"/>
<path d="M13.0974 21.3361C13.0974 21.8148 11.0092 22.2029 8.43382 22.2029C5.85843 22.2029 3.77081 21.8148 3.77081 21.3361C3.77081 20.8574 5.85843 20.4694 8.43382 20.4694C11.0092 20.4694 13.0974 20.8574 13.0974 21.3361Z" fill="#996EFC"/>
<path d="M9.25528 15.7633C10.7769 16.1151 12.4244 15.5882 13.6158 14.5781C14.8072 13.568 15.5748 12.124 15.9798 10.6154C16.0954 10.1854 16.1662 9.67436 15.8728 9.33899C15.6671 9.10445 15.3368 9.02683 15.0258 8.99851C14.1738 8.92033 13.2985 9.12314 12.5671 9.56729C12.3349 10.123 12.1145 10.7445 11.8817 11.3003C12.545 10.9281 13.3648 10.5825 14.1194 10.4851C14.3369 10.4567 14.5817 10.4488 14.7488 10.5904C15.0326 10.8306 14.8933 11.2872 14.7324 11.6221C14.4293 12.2543 14.1234 12.8899 13.7087 13.4553C13.294 14.0207 12.7598 14.517 12.11 14.7793C11.395 15.067 10.5991 15.0523 9.8286 15.0336C9.5561 15.258 9.41447 15.4489 9.25415 15.7633H9.25528Z" fill="#FFCF00"/>
<path d="M7.61299 15.7633C6.09132 16.1151 4.44389 15.5882 3.2525 14.5781C2.06112 13.568 1.29348 12.124 0.888422 10.6153C0.772853 10.1853 0.702039 9.67433 0.995495 9.33896C1.20114 9.10442 1.53142 9.0268 1.84244 8.99848C2.69448 8.9203 3.56975 9.12311 4.30112 9.56726C4.5334 10.123 4.75377 10.7445 4.98661 11.3002C4.32322 10.928 3.50347 10.5825 2.74887 10.485C2.53133 10.4567 2.28659 10.4488 2.11947 10.5904C1.83564 10.8306 1.975 11.2872 2.1359 11.622C2.43898 12.2543 2.7449 12.8899 3.15959 13.4553C3.57428 14.0207 4.10851 14.5169 4.75831 14.7792C5.47325 15.067 6.26864 15.0523 7.03967 15.0336C7.31217 15.2579 7.4538 15.4489 7.61412 15.7633H7.61299Z" fill="#FFCF00"/>
<path d="M11.5344 15.3174C11.0064 15.9803 10.3719 16.5706 9.97588 17.3195C9.39123 18.4242 9.39633 19.7181 9.5051 20.9815C9.5238 21.1962 9.3646 21.3854 9.15046 21.4018C8.68762 21.4381 8.22081 21.429 7.75966 21.3746C7.55175 21.3503 7.40105 21.165 7.41918 20.956C7.52625 19.7011 7.52739 18.4168 6.94671 17.3195C6.55014 16.5706 5.91621 15.9803 5.38821 15.3174C3.7861 13.3057 3.20146 10.5275 3.83822 8.03824C3.88184 7.86772 4.03764 7.74931 4.21382 7.74988L8.46157 7.76234L12.7088 7.74988C12.8849 7.74988 13.0407 7.86772 13.0844 8.03824C13.7211 10.5275 13.1365 13.3057 11.5344 15.3174Z" fill="#FFCF00"/>
<g opacity="0.25">
<path d="M11.5344 15.3175C11.0064 15.9803 10.3725 16.5706 9.97537 17.3195C9.39072 18.4242 9.39582 19.7187 9.50459 20.9815C9.52329 21.1962 9.36466 21.3849 9.14939 21.4019C8.93468 21.4183 8.71883 21.4257 8.50299 21.4228C8.74716 20.7011 8.89106 19.947 8.91768 19.1811C8.9766 17.4708 8.50412 15.6664 9.19527 14.1006C9.83091 12.6599 11.373 11.6566 11.6296 10.1032C11.7707 9.24892 11.4285 8.35212 10.8087 7.75445L12.7077 7.74878C12.8839 7.74821 13.0397 7.86662 13.0833 8.03714C13.7201 10.5264 13.1354 13.3046 11.5333 15.3163L11.5344 15.3175Z" fill="#000E3F"/>
</g>
<g opacity="0.7">
<path d="M7.20558 17.1269C7.23674 17.0974 7.16819 16.9688 7.02599 16.7569C6.8838 16.545 6.67135 16.2471 6.42152 15.8748C6.3575 15.7825 6.29575 15.6828 6.22833 15.5808C6.16149 15.4783 6.09577 15.3701 6.02552 15.259C5.99153 15.203 5.95754 15.1457 5.92241 15.0874C5.90485 15.0585 5.88729 15.029 5.86973 14.9996C5.85273 14.9696 5.83574 14.9395 5.81818 14.9095C5.78362 14.8489 5.7485 14.7877 5.7128 14.7254C5.67881 14.6625 5.64369 14.5985 5.60856 14.5345C5.47147 14.275 5.33041 14.0008 5.20351 13.7091C5.07491 13.4179 4.95254 13.1125 4.8432 12.7941C4.73556 12.4757 4.64662 12.1596 4.57354 11.8514C4.55597 11.7744 4.53898 11.6973 4.52142 11.6214C4.50669 11.545 4.49196 11.4696 4.47779 11.3948C4.46193 11.32 4.45173 11.2453 4.43984 11.1716C4.42851 11.098 4.41491 11.0255 4.40698 10.9529C4.39791 10.8804 4.38885 10.809 4.37979 10.7388C4.37129 10.6686 4.36619 10.5983 4.35939 10.5298C4.35599 10.4952 4.3526 10.4612 4.3492 10.4272C4.3458 10.3932 4.34466 10.3598 4.3424 10.3264C4.33787 10.2595 4.3339 10.1938 4.32993 10.1287C4.32653 10.0641 4.32597 10.0001 4.3237 9.93718C4.32257 9.87429 4.31804 9.81254 4.31974 9.75249C4.31974 9.69187 4.31974 9.63296 4.31974 9.57517C4.31974 9.54628 4.31974 9.51739 4.31974 9.48906C4.32087 9.46074 4.322 9.43298 4.32257 9.40522C4.32653 9.29474 4.32767 9.18824 4.3356 9.08853C4.3424 8.98883 4.34466 8.89365 4.35486 8.80584C4.36222 8.7169 4.36902 8.63475 4.37525 8.55884C4.38375 8.48292 4.39055 8.41324 4.39565 8.35036C4.39792 8.31863 4.40018 8.28861 4.40245 8.26085C4.40528 8.23309 4.40755 8.20647 4.40925 8.18211C4.41265 8.13282 4.41435 8.09089 4.41378 8.05634C4.41265 7.98666 4.40245 7.947 4.38206 7.94134C4.36223 7.9351 4.33333 7.96343 4.29651 8.02348C4.27782 8.05351 4.25742 8.09146 4.23533 8.13678C4.224 8.15945 4.21267 8.18437 4.2002 8.21043C4.1883 8.23706 4.17811 8.26595 4.16621 8.29654C4.14298 8.35773 4.11862 8.42571 4.09256 8.50106C4.0682 8.57697 4.04611 8.66025 4.02118 8.74976C3.99455 8.83927 3.97643 8.93671 3.95376 9.03981C3.92997 9.14292 3.91411 9.25339 3.89598 9.36896C3.89145 9.39785 3.88692 9.42731 3.88239 9.45677C3.87842 9.48623 3.87559 9.51682 3.87219 9.54741C3.86596 9.6086 3.85916 9.67091 3.85236 9.73436C3.84443 9.79838 3.84273 9.86353 3.8382 9.92981C3.8348 9.99609 3.8297 10.0641 3.82743 10.1332C3.8263 10.2023 3.82573 10.2726 3.8246 10.3439C3.8246 10.3796 3.82347 10.4159 3.8246 10.4521C3.82573 10.4884 3.82687 10.5247 3.828 10.5615C3.83083 10.6351 3.83197 10.7099 3.83593 10.7853C3.8416 10.8606 3.84726 10.9371 3.85293 11.0147C3.85746 11.0923 3.86822 11.1705 3.87672 11.2498C3.88635 11.3291 3.89371 11.409 3.90788 11.4894C3.92034 11.5699 3.93337 11.6509 3.9464 11.733C3.96227 11.8146 3.97869 11.8968 3.99512 11.98C4.0648 12.3115 4.15601 12.6502 4.27102 12.9901C4.38772 13.3289 4.52198 13.6524 4.66588 13.9572C4.80864 14.2625 4.96727 14.5464 5.12533 14.8109C5.16555 14.8766 5.20577 14.9412 5.24543 15.0052C5.28565 15.0687 5.327 15.1299 5.36723 15.1911C5.38762 15.2217 5.40745 15.2517 5.42728 15.2817C5.44767 15.3112 5.46864 15.3401 5.48903 15.369C5.52982 15.4267 5.57004 15.4834 5.6097 15.5389C5.77229 15.7587 5.93035 15.9581 6.08217 16.1338C6.38526 16.485 6.65322 16.7473 6.85207 16.9138C7.05092 17.0804 7.17725 17.1552 7.20728 17.1269H7.20558Z" fill="white"/>
</g>
<g opacity="0.7">
<path d="M3.56023 9.72756C3.58912 9.6981 3.58629 9.63919 3.5489 9.55931C3.51151 9.47943 3.43673 9.38029 3.32286 9.27888C3.20899 9.17748 3.05432 9.07664 2.86454 8.99959C2.67532 8.92254 2.45098 8.87156 2.21135 8.86646C1.97171 8.86306 1.74567 8.90612 1.55362 8.97636C1.36157 9.04661 1.20295 9.14122 1.08568 9.23866C0.967842 9.3361 0.88966 9.43241 0.849437 9.51116C0.809214 9.5899 0.804116 9.64825 0.831875 9.67884C0.890226 9.74286 1.05565 9.68281 1.29359 9.61313C1.53096 9.54175 1.85104 9.46584 2.20058 9.47207C2.55013 9.47887 2.86681 9.56554 3.10191 9.64599C3.33702 9.72416 3.50074 9.78988 3.56079 9.7287L3.56023 9.72756Z" fill="white"/>
</g>
<g opacity="0.7">
<path d="M15.7296 9.60177C15.7579 9.57174 15.7602 9.51849 15.733 9.44767C15.7058 9.37742 15.6463 9.29131 15.554 9.2035C15.4617 9.11569 15.3342 9.02902 15.1773 8.96217C15.0209 8.89532 14.834 8.85 14.634 8.84376C14.434 8.83867 14.2448 8.87266 14.0845 8.93044C13.9241 8.98823 13.7916 9.06754 13.6947 9.14969C13.5972 9.23183 13.5332 9.31454 13.5021 9.38309C13.4703 9.45221 13.4698 9.50489 13.4964 9.53662C13.5519 9.60176 13.697 9.56947 13.893 9.52925C14.089 9.48733 14.3428 9.44087 14.617 9.44881C14.8912 9.45674 15.1421 9.51792 15.3353 9.57118C15.5285 9.62273 15.6713 9.66352 15.7308 9.6012L15.7296 9.60177Z" fill="white"/>
</g>
<g opacity="0.7">
<path d="M13.5733 21.6164C13.5574 21.5779 13.4107 21.592 13.1626 21.6504C13.1003 21.6651 13.0323 21.6821 12.9575 21.7019C12.8827 21.7195 12.8011 21.7387 12.7133 21.7591C12.5383 21.7999 12.3434 21.8566 12.1224 21.9013C12.0131 21.9263 11.8987 21.9523 11.7791 21.9795C11.7202 21.9948 11.6579 22.0044 11.5956 22.0169C11.5333 22.0288 11.4698 22.0413 11.4052 22.0537C11.3406 22.0668 11.2749 22.0798 11.2087 22.0928C11.1752 22.0991 11.1418 22.107 11.1078 22.1126C11.0738 22.1177 11.0393 22.1234 11.0047 22.1291C10.8665 22.1512 10.7243 22.1744 10.5787 22.1982C9.99403 22.2809 9.34877 22.3478 8.66895 22.3749C7.98856 22.3959 7.34046 22.3744 6.75129 22.333C6.60399 22.3194 6.46066 22.307 6.3213 22.2939C6.28618 22.2911 6.25162 22.2877 6.21706 22.2849C6.1825 22.2815 6.14908 22.2764 6.11509 22.2724C6.04767 22.2639 5.98139 22.2554 5.91624 22.2475C5.85109 22.2395 5.78651 22.2316 5.72363 22.2242C5.66074 22.2163 5.59786 22.2112 5.53781 22.1999C5.41657 22.1812 5.30043 22.1631 5.18996 22.1455C4.96676 22.1166 4.76791 22.0736 4.59059 22.0452C4.50165 22.0311 4.41894 22.0175 4.34302 22.0056C4.26768 21.9908 4.19799 21.9784 4.13511 21.9688C3.88357 21.9285 3.73628 21.9246 3.72325 21.9637C3.70966 22.0033 3.83202 22.0832 4.06656 22.1942C4.12548 22.222 4.19119 22.2514 4.26314 22.2832C4.33622 22.3132 4.41667 22.3415 4.50278 22.3727C4.67613 22.4333 4.87328 22.5064 5.09762 22.5642C5.20979 22.5942 5.32706 22.6259 5.44886 22.6588C5.51005 22.6763 5.5735 22.6877 5.63751 22.7018C5.7021 22.7154 5.76724 22.729 5.83409 22.7432C5.90094 22.7568 5.96893 22.7709 6.03804 22.7851C6.0726 22.7919 6.10716 22.7998 6.14285 22.8055C6.17797 22.8112 6.21366 22.8163 6.24992 22.8219C6.39381 22.8435 6.54168 22.8656 6.6935 22.8882C7.30308 22.9624 7.9795 23.0027 8.68934 22.9806C9.39862 22.9528 10.0711 22.8655 10.6739 22.7483C10.824 22.7149 10.9701 22.6826 11.1118 22.6508C11.1475 22.6429 11.1826 22.635 11.2171 22.627C11.2517 22.6186 11.2863 22.6084 11.3203 22.5993C11.3882 22.5806 11.4551 22.5619 11.5208 22.5432C11.5865 22.5245 11.6511 22.5064 11.714 22.4882C11.7769 22.4696 11.8397 22.4537 11.8992 22.4322C12.0188 22.3908 12.1338 22.3512 12.2431 22.3132C12.4629 22.2401 12.6544 22.1534 12.8232 22.0809C12.9071 22.0435 12.9858 22.0101 13.0561 21.975C13.1263 21.9387 13.1898 21.9042 13.2464 21.8724C13.473 21.745 13.5892 21.6572 13.5727 21.6186L13.5733 21.6164Z" fill="white"/>
</g>
<path d="M12.8418 7.61948C12.8639 7.65007 12.8996 7.64894 12.9308 7.65857C13.0838 7.70616 13.1886 7.80757 13.2582 7.94863C13.2979 8.02851 13.3251 8.11292 13.346 8.19959C13.4016 8.42677 13.4435 8.65621 13.4769 8.88735C13.4837 8.93664 13.4843 8.98706 13.5149 9.03634C13.5647 9.04881 13.6112 9.02388 13.6565 9.01198C14.0514 8.90547 14.4542 8.86355 14.8615 8.86582C15.0841 8.86695 15.3056 8.88961 15.5203 8.95476C15.6218 8.98536 15.7192 9.02558 15.811 9.07826C16.0733 9.22952 16.2262 9.45557 16.2823 9.75186C16.3254 9.98016 16.314 10.2079 16.2659 10.4311C15.9679 11.8043 15.381 13.0382 14.4451 14.0925C13.7653 14.8579 12.945 15.4278 11.9779 15.7779C11.7898 15.8459 11.5978 15.9031 11.4023 15.9462C11.3338 15.9615 11.2811 15.9898 11.2346 16.0436C11.0024 16.3133 10.7678 16.5807 10.5537 16.8656C10.0903 17.4797 9.82627 18.172 9.73393 18.9334C9.68521 19.3317 9.66935 19.7311 9.67954 20.1316C9.68124 20.1928 9.68408 20.254 9.69031 20.3146C9.69541 20.3656 9.71241 20.3814 9.76339 20.3882C9.79625 20.3922 9.82967 20.3939 9.8631 20.395C10.3798 20.4205 10.8947 20.4653 11.4069 20.5372C11.8255 20.5956 12.2385 20.6845 12.643 20.8091C12.7705 20.8482 12.8957 20.8947 13.0124 20.961C13.1512 21.0397 13.2469 21.1491 13.3211 21.2964C13.5268 21.7071 13.61 22.1473 13.6707 22.5937C13.7183 22.941 13.7341 23.2911 13.7392 23.6417C13.742 23.8213 13.6684 23.9511 13.529 24.0525C13.4106 24.1386 13.2792 24.1964 13.141 24.2422C12.8396 24.342 12.5314 24.4156 12.2192 24.4689C11.6216 24.5714 11.0194 24.6337 10.4149 24.6796C9.49316 24.7498 8.5703 24.7544 7.64745 24.73C7.07526 24.7147 6.50252 24.6892 5.9326 24.6343C5.3066 24.5742 4.68569 24.4813 4.08008 24.3057C3.97358 24.2745 3.86764 24.24 3.7634 24.2026C3.66879 24.1686 3.58155 24.1199 3.4977 24.0644C3.33964 23.9601 3.26543 23.814 3.27506 23.6264C3.28243 23.482 3.28979 23.3375 3.30169 23.1936C3.32888 22.8667 3.36061 22.5404 3.42802 22.2186C3.47731 21.9841 3.54132 21.7547 3.6331 21.5332C3.65633 21.4765 3.68069 21.4204 3.68635 21.3587C3.69995 21.2153 3.77983 21.1117 3.8886 21.0273C3.98151 20.9553 4.08688 20.9049 4.19622 20.8624C4.42509 20.7735 4.66473 20.7225 4.90267 20.6686C5.34795 20.5689 5.79833 20.5038 6.25268 20.4613C6.57389 20.4313 6.89511 20.4064 7.21746 20.3911C7.36136 20.3843 7.36135 20.3809 7.36872 20.2353C7.38345 19.9242 7.39081 19.6127 7.36759 19.3016C7.32453 18.7272 7.21973 18.1669 6.96876 17.6417C6.8243 17.3392 6.64358 17.0599 6.44303 16.792C6.25324 16.5382 6.04647 16.298 5.83969 16.0572C5.7989 16.0096 5.75471 15.9756 5.68956 15.962C4.45568 15.698 3.43879 15.0664 2.59751 14.1373C2.27176 13.7775 1.98793 13.3861 1.74263 12.9674C1.35797 12.3119 1.06961 11.6151 0.849231 10.8894C0.79088 10.6979 0.746693 10.5025 0.723466 10.3036C0.716668 10.2476 0.708738 10.1926 0.660583 10.1546V9.92124C0.708738 9.88385 0.715535 9.8289 0.726865 9.77395C0.806744 9.37568 1.03958 9.11056 1.42482 8.97856C1.65822 8.89868 1.89899 8.86469 2.14373 8.86072C2.54482 8.85449 2.93968 8.90944 3.32945 9.00178C3.40196 9.01878 3.47051 9.06863 3.55096 9.04201C3.58098 8.96949 3.58495 8.89188 3.59741 8.81597C3.63027 8.61372 3.6484 8.40864 3.69768 8.20922C3.72318 8.10669 3.75717 8.00698 3.81042 7.9152C3.88633 7.7849 3.99341 7.69426 4.14127 7.65461C4.17299 7.64611 4.20812 7.64724 4.23134 7.61835H6.20056C6.25665 7.6546 6.31953 7.63988 6.37901 7.64044C6.82316 7.64384 7.26788 7.64724 7.71203 7.64667C8.85639 7.64554 10.0002 7.64271 11.1446 7.64044C11.1882 7.64044 11.2341 7.64837 11.2732 7.61835H12.8418V7.61948ZM4.71911 14.5423L4.71458 14.5491L4.72138 14.5452C4.68173 14.5197 4.66643 14.476 4.64433 14.4387C4.13843 13.5645 3.80872 12.6258 3.63367 11.6327C3.59288 11.4033 3.56625 11.171 3.53849 10.9398C3.53056 10.8764 3.50903 10.8407 3.44558 10.8214C3.27506 10.7699 3.10397 10.7223 2.92779 10.6968C2.77992 10.6753 2.6298 10.6583 2.47967 10.6855C2.31368 10.7155 2.21454 10.8209 2.19754 10.9891C2.18905 11.0724 2.19584 11.1551 2.21624 11.2373C2.25873 11.4106 2.32444 11.576 2.40319 11.7352C2.6094 12.1539 2.82298 12.5686 3.06545 12.9674C3.24787 13.2671 3.45125 13.5515 3.68919 13.8098C3.92712 14.0687 4.18772 14.301 4.49534 14.476C4.5435 14.5032 4.59278 14.5293 4.64264 14.5537C4.66926 14.5667 4.69645 14.5616 4.71968 14.5423H4.71911ZM8.52838 7.95316C8.52838 7.95316 8.52838 7.95713 8.52838 7.95939C7.96696 7.95939 7.40498 7.96109 6.84356 7.95939C6.08159 7.95713 5.31963 7.95146 4.55823 7.94806C4.47495 7.94806 4.39167 7.95089 4.30782 7.95372C4.18149 7.95826 4.10048 8.02341 4.06252 8.14294C4.04949 8.18543 4.03816 8.22849 4.02797 8.27154C3.8835 8.86299 3.81835 9.46463 3.81552 10.0725C3.81156 10.8214 3.90446 11.5585 4.09934 12.2825C4.4064 13.4257 4.91796 14.4647 5.68163 15.3745C5.79267 15.5065 5.9037 15.638 6.01644 15.7688C6.25551 16.0476 6.49628 16.324 6.72006 16.6158C7.21463 17.2616 7.51035 17.9913 7.62988 18.7923C7.72732 19.4444 7.73129 20.0993 7.65594 20.7548C7.64631 20.8375 7.64121 20.9213 7.64461 21.004C7.65141 21.1587 7.72166 21.238 7.87292 21.2669C7.94374 21.2805 8.01625 21.2867 8.0882 21.2913C8.42131 21.3133 8.75499 21.3099 9.08867 21.3043C9.12209 21.3037 9.15552 21.3015 9.18837 21.2952C9.34813 21.2652 9.41952 21.1802 9.42008 21.0193C9.42008 20.9859 9.41555 20.953 9.41215 20.9196C9.38722 20.6647 9.37079 20.4098 9.36626 20.1537C9.35606 19.6246 9.37249 19.0977 9.47107 18.5759C9.59117 17.9392 9.82117 17.3489 10.1968 16.8175C10.348 16.6039 10.5095 16.3982 10.6795 16.2C10.8862 15.9598 11.0981 15.7235 11.3021 15.481C12.5382 14.0092 13.1665 12.304 13.2435 10.3903C13.2718 9.6867 13.2067 8.99102 13.0447 8.30497C13.0322 8.25115 13.0175 8.19676 12.9982 8.14521C12.9529 8.02341 12.8645 7.95712 12.7325 7.95429C12.6827 7.95316 12.6322 7.95316 12.5824 7.95316C11.2312 7.95316 9.87953 7.95316 8.52838 7.95316ZM3.90899 21.7513C3.85574 21.796 3.85518 21.8623 3.83875 21.919C3.69542 22.4124 3.63253 22.9194 3.60138 23.431C3.59684 23.5086 3.59798 23.5868 3.59458 23.6644C3.59231 23.7137 3.61327 23.7488 3.65066 23.7783C3.71638 23.8315 3.79229 23.8661 3.86877 23.8989C4.09481 23.9952 4.33162 24.0553 4.57125 24.1046C5.45049 24.2842 6.34049 24.3703 7.23615 24.4014C7.90804 24.4247 8.5805 24.4349 9.25353 24.4184C10.1996 24.3952 11.1412 24.3295 12.0748 24.1731C12.4039 24.1182 12.7302 24.0496 13.0447 23.9358C13.1279 23.9057 13.2084 23.8666 13.2883 23.8281C13.3823 23.7828 13.4208 23.7109 13.4186 23.6009C13.4101 23.2174 13.3948 22.8339 13.3398 22.4537C13.307 22.2283 13.2605 22.0051 13.1806 21.7904C13.1591 21.7326 13.1449 21.7258 13.0962 21.7575C12.9223 21.8725 12.7291 21.9416 12.5297 21.9943C12.0669 22.1167 11.5978 22.2062 11.123 22.2657C10.5101 22.3427 9.89426 22.3784 9.27732 22.3971C8.0865 22.4328 6.89851 22.3937 5.71562 22.2407C5.09188 22.1603 4.47608 22.047 3.90899 21.7518V21.7513ZM8.5839 22.0951C8.73346 22.0912 8.96687 22.0855 9.20027 22.0793C9.94014 22.0595 10.6772 22.0113 11.4097 21.9025C11.7728 21.8487 12.132 21.7756 12.4838 21.6697C12.6169 21.6295 12.7472 21.5796 12.8668 21.5077C13.0373 21.4051 13.0424 21.3643 12.8741 21.2601C12.8317 21.234 12.7863 21.2125 12.741 21.1915C12.63 21.14 12.5144 21.0998 12.3966 21.0669C11.9298 20.9372 11.4527 20.8613 10.9723 20.8012C10.6358 20.7593 10.297 20.7378 9.9594 20.7128C9.89879 20.7083 9.8376 20.7077 9.77642 20.7077C9.75149 20.7077 9.73506 20.7253 9.73393 20.7497C9.73223 20.7939 9.73507 20.838 9.73563 20.8828C9.73677 20.9774 9.7396 21.0714 9.71807 21.1649C9.66142 21.4142 9.50563 21.5655 9.25409 21.6006C9.14985 21.6153 9.04391 21.6193 8.93854 21.6249C8.60996 21.6425 8.28308 21.6159 7.95563 21.5966C7.88935 21.5926 7.82307 21.5807 7.75848 21.5649C7.50695 21.5037 7.34776 21.3099 7.33529 21.0522C7.33246 20.9967 7.33529 20.9411 7.33643 20.8856C7.33869 20.6828 7.35512 20.6947 7.14665 20.7083C6.6753 20.7395 6.20396 20.7735 5.73545 20.8386C5.32246 20.8958 4.91343 20.974 4.51404 21.0981C4.39167 21.136 4.27213 21.1802 4.16053 21.2437C4.11237 21.2714 4.06479 21.3009 4.02966 21.3451C4.00984 21.37 4.0104 21.3955 4.03193 21.4193C4.09311 21.4873 4.17299 21.5269 4.25401 21.5638C4.46248 21.6584 4.68229 21.7173 4.90493 21.7688C5.51337 21.9088 6.13088 21.9824 6.75235 22.0277C7.33473 22.0702 7.91824 22.0878 8.58617 22.0946L8.5839 22.0951ZM5.38308 15.5496C5.38024 15.5082 5.35702 15.4844 5.33775 15.459C5.26411 15.3615 5.18706 15.2663 5.11851 15.1649C5.07262 15.0964 5.01541 15.055 4.93723 15.0301C4.44549 14.8726 4.0291 14.5927 3.65973 14.237C3.31699 13.9073 3.03373 13.53 2.78729 13.1249C2.52159 12.6875 2.29612 12.2287 2.07064 11.7698C2.00436 11.635 1.95224 11.4945 1.91542 11.3483C1.88539 11.2293 1.8633 11.1092 1.8701 10.9857C1.88766 10.6622 2.07235 10.4464 2.38846 10.3784C2.52613 10.349 2.66492 10.3541 2.80315 10.3711C2.99633 10.3949 3.18782 10.4288 3.37647 10.4776C3.41329 10.4872 3.45012 10.5025 3.48864 10.4832C3.50903 10.4526 3.50337 10.4186 3.50337 10.3858C3.4994 10.0912 3.49487 9.79661 3.5249 9.50259C3.5266 9.48616 3.5266 9.46916 3.52716 9.45273C3.52886 9.41364 3.50903 9.39098 3.47334 9.37965C3.44672 9.37115 3.42066 9.36152 3.3946 9.35359C2.91022 9.20856 2.41565 9.15474 1.91145 9.191C1.74999 9.2029 1.5942 9.24255 1.44521 9.3094C1.18121 9.42837 1.04582 9.63458 1.02542 9.92068C1.01182 10.111 1.03562 10.298 1.07924 10.4827C1.20161 10.9976 1.37666 11.495 1.59137 11.9783C1.96018 12.8094 2.44511 13.5623 3.09831 14.2007C3.70788 14.7967 4.41376 15.238 5.22275 15.5111C5.2743 15.5286 5.32472 15.5519 5.38477 15.5507L5.38308 15.5496ZM11.7054 15.515C11.7275 15.5343 11.7496 15.5269 11.77 15.5196C11.8436 15.4946 11.9173 15.4691 11.9898 15.4414C12.822 15.1264 13.5268 14.625 14.1273 13.9724C14.725 13.3232 15.1753 12.5799 15.5096 11.7658C15.6722 11.3704 15.8257 10.971 15.926 10.5535C15.9758 10.3467 16.0024 10.1382 15.9821 9.92577C15.9509 9.59946 15.7832 9.37965 15.4688 9.27598C15.3255 9.22839 15.1782 9.2012 15.028 9.18987C14.5686 9.15588 14.1182 9.20856 13.6763 9.33546C13.5483 9.37229 13.5341 9.34963 13.5449 9.51618C13.5636 9.80454 13.5778 10.0935 13.5653 10.3824C13.5653 10.3937 13.5642 10.4045 13.5653 10.4158C13.567 10.4475 13.5817 10.4685 13.6163 10.4645C13.6491 10.4606 13.6826 10.4555 13.7149 10.447C13.8769 10.405 14.0423 10.3835 14.2077 10.366C14.3516 10.3501 14.4955 10.3473 14.6383 10.383C14.9578 10.4623 15.1379 10.6877 15.1419 11.0197C15.1442 11.2129 15.0904 11.3931 15.0195 11.5692C14.7952 12.1273 14.5255 12.6626 14.2015 13.1697C13.9856 13.5073 13.7488 13.8296 13.469 14.1186C13.1489 14.4489 12.788 14.7225 12.3694 14.9179C12.2544 14.9717 12.1156 14.9865 12.0238 15.0749C11.9332 15.1627 11.8674 15.276 11.7938 15.3802C11.7626 15.4238 11.7139 15.4573 11.7054 15.5156V15.515ZM12.3864 14.5384C12.443 14.5089 12.4776 14.493 12.5104 14.4738C12.8266 14.2919 13.0996 14.0574 13.3427 13.7872C13.6605 13.4337 13.9188 13.0394 14.1437 12.6224C14.3074 12.3193 14.4627 12.0117 14.6201 11.7052C14.6938 11.5619 14.7555 11.4129 14.7941 11.2554C14.8184 11.1574 14.8269 11.0582 14.8156 10.9574C14.8003 10.8209 14.7216 10.7342 14.5935 10.6945C14.5244 10.6736 14.4519 10.6662 14.3794 10.6713C14.1233 10.6889 13.8729 10.7382 13.6253 10.8027C13.563 10.8192 13.5358 10.8537 13.5296 10.9177C13.5126 11.0837 13.4945 11.2492 13.469 11.414C13.3081 12.4564 12.9761 13.4404 12.4623 14.3627C12.4362 14.4098 12.4 14.4528 12.3864 14.5378V14.5384Z" fill="#000E3F"/>
</svg>
