<svg width="30" height="30" viewBox="0 0 30 30" fill="none" xmlns="http://www.w3.org/2000/svg">
<g clip-path="url(#clip0_4016_4279)">
<path opacity="0.25" d="M21.3065 12.3353C21.7144 12.7205 22.7292 12.7886 23.2561 13.0531C23.9733 13.4134 24.6338 13.8878 25.2121 14.4439C26.3816 15.5674 27.2573 17.049 27.6262 18.6329C28.3533 21.7535 27.2649 24.9044 24.8296 26.9622C23.7856 27.8444 22.5469 28.4914 21.2227 28.8289C19.8655 29.1746 18.3898 28.7315 17.1484 29.0907C15.5299 29.5586 14.5541 30.3863 12.7344 29.7945C12.0463 29.5711 11.3739 29.187 10.8405 28.6964C10.5338 28.4146 10.3261 27.8871 9.93935 27.7919C9.48172 27.6794 8.54265 28.5498 8.07042 28.6942C7.42509 28.8917 7.02209 28.9923 6.3508 28.7321C5.01902 28.216 3.53686 26.6154 3.19499 25.2955C2.86177 24.0114 2.9283 22.6688 3.61367 21.5328C4.07562 20.7674 4.76802 20.1394 5.25162 19.3869C5.67949 18.7216 5.92616 18.0221 6.36648 17.3644C7.07132 16.3106 7.99091 16.1456 8.07421 14.8398C8.17969 13.1819 8.04445 11.5991 9.03653 10.157C9.46819 9.52948 10.0589 9.00964 10.6674 8.55905C11.0596 8.26911 12.0495 7.97105 12.2773 7.62053C12.9118 6.64252 11.5135 4.4512 11.9451 3.20543C12.5077 1.58317 14.8618 1.53286 16.2764 1.18991C17.8186 0.815585 19.9212 -0.123474 20.8933 1.68487C21.7679 3.31308 21.7761 5.97771 22.1672 7.78065C22.5458 9.52732 23.3139 11.3833 21.3065 12.3353Z" fill="#000E3F"/>
<path d="M20.5129 11.7245C20.9207 12.1096 21.9355 12.1778 22.4624 12.4423C23.1797 12.8026 23.8402 13.2775 24.4184 13.8331C25.5879 14.9566 26.4637 16.4382 26.8326 18.022C27.5596 21.1427 26.4713 24.2936 24.036 26.3513C22.992 27.2336 21.7532 27.8806 20.429 28.2181C19.0718 28.5638 17.5962 28.1207 16.3547 28.4799C14.7362 28.9478 13.7604 29.7754 11.9407 29.1837C11.2526 28.9603 10.5803 28.5762 10.0469 28.0856C9.74019 27.8037 9.53247 27.2763 9.1457 27.1811C8.68807 27.0686 7.74901 27.939 7.27678 28.0834C6.63145 28.2808 6.22845 28.3815 5.55715 28.1213C4.22537 27.6052 2.74322 26.0046 2.40135 24.6847C2.06813 23.4005 2.13466 22.058 2.82003 20.922C3.28198 20.1566 3.97438 19.5285 4.45798 18.7761C4.88585 18.1108 5.13252 17.4113 5.57284 16.7536C6.27767 15.6998 7.19726 15.5348 7.28056 14.229C7.38604 12.5711 7.25081 10.9883 8.24289 9.54616C8.67455 8.91867 9.26525 8.39884 9.8738 7.94824C10.266 7.6583 11.2559 7.36025 11.4836 7.00972C12.1181 6.03171 10.7198 3.84039 11.1515 2.59462C11.7141 0.972363 14.0682 0.922055 15.4827 0.579103C17.0249 0.204777 19.1275 -0.734285 20.0996 1.07406C20.9743 2.70227 20.9824 5.3669 21.3735 7.16984C21.7522 8.91651 22.5203 10.7725 20.5129 11.7245Z" fill="white"/>
<path d="M25.4308 22.5859C25.3584 22.7585 25.2783 22.9283 25.1934 23.0938C25.1717 23.1366 25.149 23.1793 25.1268 23.221C24.5843 24.2309 23.8216 25.104 22.9225 25.7909C22.7143 25.9505 22.4984 26.0998 22.2761 26.2383C21.2007 26.9096 19.9782 27.3315 18.7281 27.4338C18.3549 27.4646 17.9789 27.4673 17.6041 27.4424C17.4391 27.4316 17.2741 27.4154 17.1097 27.3937C15.6491 27.2028 14.24 26.5926 13.1419 25.5816C13.1008 25.5443 13.0608 25.5064 13.0207 25.4675C12.9542 25.4026 12.8888 25.3366 12.8249 25.2689C11.7544 24.1395 11.0912 22.6259 10.8954 21.0491C10.8548 20.7224 10.8343 20.3935 10.8343 20.0641C10.8343 19.4891 10.897 18.9146 11.0252 18.3558C11.1778 17.6932 11.4158 17.0754 11.7241 16.5091C11.7366 16.4842 11.7506 16.4593 11.7642 16.435C12.6356 14.8727 14.0415 13.7038 15.6453 13.0493C15.6486 13.0482 15.6518 13.0465 15.6551 13.0455C17.0723 12.4688 18.6448 12.2941 20.1394 12.6041C20.319 12.6408 20.497 12.6852 20.6733 12.7371C21.6973 13.0336 22.6699 13.5702 23.5143 14.3735C23.5403 14.3978 23.5657 14.4227 23.5917 14.4481C23.6452 14.5011 23.6988 14.5547 23.7512 14.6093C24.6854 15.5835 25.3605 16.7812 25.7024 18.0572C25.7716 18.312 25.8263 18.57 25.8674 18.8302C26.0648 20.0803 25.9415 21.3753 25.4303 22.5854L25.4308 22.5859Z" fill="white"/>
<path d="M25.3222 22.5227C24.7271 23.927 23.708 25.1316 22.4433 25.9809C21.1305 26.8621 19.571 27.3587 17.986 27.3327C16.493 27.3084 15.0076 26.8405 13.7981 25.9587C12.6118 25.0943 11.7675 23.8323 11.3271 22.4389C10.8425 20.9053 10.8289 19.2225 11.3434 17.6944C11.7967 16.3469 12.6584 15.1644 13.77 14.2838C14.9038 13.3858 16.3016 12.8027 17.7377 12.6323C19.274 12.45 20.8524 12.7372 22.1896 13.5265C23.4781 14.2865 24.4907 15.4792 25.1226 16.8283C25.7884 18.2504 26.0173 19.8857 25.6716 21.4246C25.5851 21.8103 25.4633 22.1873 25.3103 22.5519C25.2838 22.6152 25.3389 22.6893 25.3979 22.7061C25.4698 22.7267 25.5261 22.6807 25.5521 22.6185C26.199 21.0736 26.2353 19.3328 25.7419 17.7398C25.2902 16.2804 24.4118 14.9302 23.232 13.9549C22.0122 12.9466 20.4841 12.3856 18.904 12.3315C17.3499 12.2785 15.786 12.7042 14.4559 13.5054C13.242 14.2367 12.2235 15.2856 11.5641 16.5422C10.777 18.0422 10.5439 19.7791 10.8273 21.443C11.0778 22.9122 11.7404 24.3213 12.7768 25.4C13.8268 26.4921 15.2494 27.1986 16.7348 27.4614C18.362 27.7492 20.0345 27.5053 21.5232 26.7934C22.9345 26.1189 24.1575 25.0413 24.9857 23.7122C25.1972 23.3725 25.3822 23.0166 25.5385 22.6482C25.565 22.5855 25.5569 22.5146 25.4936 22.4767C25.4412 22.4454 25.3481 22.4594 25.3222 22.5216V22.5227Z" fill="black"/>
<path d="M16.6849 17.3577L16.0834 20.0932C16.0201 20.3799 16.158 20.6736 16.4187 20.8083L18.8941 22.0871C19.1418 22.2148 19.4431 22.1704 19.6433 21.9762L21.5225 20.1511C21.7118 19.9677 21.7707 19.6875 21.6718 19.443L20.6332 16.8741C20.5217 16.5983 20.2367 16.4338 19.9424 16.4749L17.228 16.8552C16.9597 16.8925 16.7428 17.0932 16.6849 17.3577Z" fill="#0D51E3"/>
<path d="M16.564 17.324C16.4466 17.8579 16.3292 18.3918 16.2118 18.9252C16.1431 19.2373 16.0744 19.5499 16.0057 19.8621C15.9917 19.9259 15.9765 19.9897 15.9635 20.0541C15.9165 20.2851 15.9614 20.5193 16.1074 20.707C16.2481 20.8877 16.4709 20.9753 16.6689 21.0775C16.9799 21.2382 17.2915 21.3988 17.6026 21.56C17.912 21.7196 18.2214 21.8797 18.5308 22.0393C18.7445 22.1497 18.9614 22.2908 19.2108 22.2833C19.5256 22.2741 19.7192 22.0766 19.9269 21.8749C20.1731 21.6363 20.4187 21.3972 20.6648 21.1587C20.9125 20.918 21.1603 20.6778 21.408 20.4371C21.606 20.2445 21.804 20.0703 21.8397 19.7739C21.8694 19.5278 21.7537 19.3081 21.6644 19.0874C21.5335 18.7629 21.4021 18.4389 21.2712 18.1143L20.8801 17.1477C20.7914 16.928 20.7194 16.6792 20.5306 16.5234C20.351 16.3757 20.1314 16.3227 19.9031 16.3536C19.8339 16.3628 19.7652 16.373 19.696 16.3828C19.3736 16.4277 19.0512 16.4731 18.7288 16.518C18.3685 16.5683 18.0083 16.6192 17.648 16.6695C17.4619 16.6954 17.2504 16.7003 17.0714 16.763C16.8171 16.8523 16.6289 17.0616 16.5656 17.3229C16.5272 17.4798 16.7695 17.5469 16.8079 17.3894C16.8631 17.1617 17.0351 17.0103 17.265 16.974C17.3191 16.9654 17.3732 16.9589 17.4273 16.9513C17.7189 16.9107 18.011 16.8696 18.3025 16.829C18.857 16.7517 19.412 16.6543 19.9686 16.5959C20.1568 16.5759 20.3602 16.6592 20.4706 16.8285C20.5074 16.8848 20.529 16.9443 20.555 17.0092C20.6578 17.2634 20.7605 17.5177 20.8633 17.7713C21.0878 18.3269 21.3139 18.8824 21.5373 19.4385C21.5903 19.571 21.6136 19.703 21.5698 19.8437C21.5357 19.954 21.4637 20.033 21.3837 20.1103C21.1954 20.2932 21.0072 20.476 20.8189 20.6588C20.4019 21.064 19.9875 21.4719 19.5678 21.8738C19.4277 22.0079 19.2351 22.0664 19.0458 22.0112C18.9814 21.9922 18.923 21.9587 18.8635 21.9284C18.6222 21.804 18.381 21.679 18.1397 21.5546C17.6015 21.2766 17.0632 20.9986 16.525 20.7205C16.2778 20.5929 16.1529 20.3646 16.2129 20.0871C16.2621 19.8604 16.3124 19.6338 16.3627 19.4066C16.5012 18.7759 16.6402 18.1457 16.7787 17.5149C16.7879 17.4733 16.7971 17.4311 16.8063 17.3894C16.8409 17.232 16.5991 17.165 16.564 17.3229V17.324Z" fill="black"/>
<path d="M22.9222 25.7908C22.714 25.9504 22.4981 26.0997 22.2758 26.2382C21.2004 26.9095 19.9779 27.3314 18.7278 27.4336C18.3546 27.4645 17.9786 27.4672 17.6038 27.4423C17.5021 27.2135 17.5421 26.9452 17.7082 26.7548L19.4299 24.7804C19.6128 24.5705 19.9103 24.5012 20.1672 24.6083L22.7399 25.6772C22.8081 25.7059 22.8692 25.7443 22.9222 25.7919V25.7908Z" fill="#0D51E3"/>
<path d="M22.859 25.6826C21.7165 26.5535 20.3447 27.1377 18.9118 27.2908C18.4774 27.3373 18.0398 27.3444 17.6038 27.3168C17.6444 27.3476 17.6844 27.3784 17.725 27.4087C17.6449 27.2145 17.6628 27.0079 17.798 26.8424C17.8223 26.8126 17.8488 26.784 17.8743 26.7553C18.0111 26.5984 18.148 26.4416 18.2848 26.2847C18.637 25.8811 18.9886 25.4776 19.3407 25.0735C19.4284 24.9735 19.5182 24.8436 19.6307 24.7701C19.8314 24.6397 20.0342 24.6878 20.236 24.7717C20.6882 24.9594 21.141 25.1476 21.5932 25.3353C21.8582 25.4451 22.1228 25.5555 22.3878 25.6653C22.5344 25.7259 22.7102 25.7757 22.8335 25.8801C22.9563 25.9839 23.1343 25.807 23.011 25.7026C22.873 25.5858 22.7064 25.5279 22.542 25.4598C22.311 25.364 22.08 25.2677 21.8496 25.172C21.3557 24.967 20.8613 24.7614 20.3674 24.5564C20.1759 24.4769 19.9974 24.4087 19.7816 24.446C19.5479 24.4866 19.3927 24.6332 19.2455 24.802C18.8961 25.2028 18.5467 25.6036 18.1972 26.0039C18.0284 26.1976 17.8597 26.3907 17.6909 26.5844C17.653 26.6276 17.6141 26.6704 17.5795 26.7163C17.4161 26.9333 17.3799 27.2248 17.4837 27.4753C17.5064 27.5305 17.5438 27.5634 17.6049 27.5672C19.0995 27.6624 20.5919 27.313 21.9058 26.5995C22.2834 26.3945 22.6448 26.1597 22.9866 25.899C23.1132 25.8022 22.9883 25.5842 22.8601 25.6821L22.859 25.6826Z" fill="black"/>
<path d="M25.4306 22.5857C25.3581 22.7582 25.2781 22.9281 25.1931 23.0936L23.9668 20.6627C23.8484 20.4274 23.8841 20.1439 24.0572 19.9448L25.7027 18.0575C25.7719 18.3123 25.8266 18.5703 25.8677 18.8305C26.0651 20.0806 25.9418 21.3756 25.4306 22.5857Z" fill="#0D51E3"/>
<path d="M25.3223 22.5224C25.2492 22.6949 25.1697 22.8637 25.0848 23.0303H25.3017C24.9414 22.3157 24.5806 21.6012 24.2204 20.8866C24.1722 20.7914 24.1214 20.6978 24.0765 20.6015C23.9753 20.3857 24.0321 20.165 24.183 19.9919C24.4589 19.6754 24.7343 19.3595 25.0101 19.0431C25.2709 18.7445 25.5311 18.4454 25.7918 18.1468C25.722 18.1284 25.6517 18.11 25.5819 18.0916C25.9773 19.5678 25.9016 21.1392 25.3098 22.5527C25.2833 22.616 25.3385 22.6901 25.3974 22.7068C25.4694 22.7274 25.5256 22.6814 25.5516 22.6192C26.1596 21.1668 26.2294 19.5402 25.8237 18.0245C25.8004 17.938 25.6771 17.8969 25.6138 17.9693C25.088 18.5725 24.5622 19.1756 24.0359 19.7793C23.8839 19.9535 23.7671 20.1433 23.7719 20.3857C23.7757 20.5626 23.8493 20.7092 23.9261 20.8617C24.136 21.2777 24.3459 21.6937 24.5552 22.1096C24.7316 22.4591 24.9079 22.8085 25.0842 23.158C25.1259 23.2402 25.2595 23.2397 25.3012 23.158C25.3861 22.9914 25.4656 22.822 25.5386 22.65C25.5651 22.5873 25.557 22.5164 25.4937 22.4786C25.4413 22.4472 25.3482 22.4612 25.3223 22.5235V22.5224Z" fill="black"/>
<path d="M23.5152 14.3739L22.1996 14.6709C21.9097 14.7369 21.6122 14.5962 21.478 14.3306L20.6742 12.7371C21.6982 13.0335 22.6708 13.5701 23.5152 14.3734V14.3739Z" fill="#0D51E3"/>
<path d="M23.4815 14.2528C23.0434 14.3518 22.6063 14.4626 22.166 14.5497C21.9258 14.5973 21.6997 14.481 21.5861 14.2674C21.5585 14.2149 21.5331 14.1619 21.506 14.1089C21.3708 13.8406 21.235 13.5723 21.0998 13.304C20.9938 13.0941 20.8877 12.8842 20.7823 12.6743C20.7352 12.736 20.6876 12.7971 20.6405 12.8588C21.6845 13.1639 22.6366 13.7151 23.4263 14.4626C23.5437 14.5735 23.7217 14.3966 23.6038 14.2852C22.7826 13.5079 21.7927 12.934 20.7071 12.6164C20.5962 12.584 20.5177 12.7068 20.5653 12.8009C20.8028 13.271 21.0397 13.7416 21.2772 14.2116C21.3075 14.2722 21.3373 14.3334 21.3686 14.3934C21.4784 14.6017 21.6797 14.758 21.9133 14.7991C22.1752 14.8451 22.4656 14.7401 22.7193 14.6828C22.9958 14.6206 23.2722 14.5578 23.5486 14.4956C23.706 14.4599 23.6395 14.2181 23.4821 14.2533L23.4815 14.2528Z" fill="black"/>
<path d="M15.6553 13.0457L15.3373 15.4155C15.3016 15.6838 15.1025 15.9018 14.838 15.9613L12.1641 16.5655C12.0111 16.5996 11.8564 16.5774 11.7244 16.5093C11.7368 16.4844 11.7509 16.4595 11.7644 16.4352C12.6358 14.873 14.0417 13.704 15.6456 13.0495C15.6488 13.0484 15.6521 13.0468 15.6553 13.0457Z" fill="#0D51E3"/>
<path d="M15.5298 13.0458C15.4259 13.8188 15.3221 14.5918 15.2182 15.3648C15.1879 15.592 15.0424 15.7819 14.8033 15.8403C14.7043 15.8646 14.6043 15.8852 14.5047 15.9079C14.0217 16.0172 13.5386 16.1264 13.0556 16.2352C12.8175 16.2887 12.5795 16.3428 12.3415 16.3964C12.1522 16.4391 11.9769 16.4921 11.7871 16.4007C11.8022 16.458 11.8168 16.5154 11.832 16.5722C12.4659 15.3637 13.4937 14.3592 14.6659 13.6728C14.9943 13.4802 15.3361 13.3109 15.6883 13.1665C15.836 13.1059 15.771 12.863 15.6217 12.9241C14.3127 13.4602 13.1437 14.3143 12.2761 15.4357C12.0305 15.7532 11.8028 16.0891 11.6161 16.4451C11.5864 16.5013 11.5977 16.5862 11.661 16.6165C11.8796 16.722 12.0895 16.7101 12.3156 16.6587C12.5092 16.6149 12.7029 16.5711 12.8965 16.5273C13.4115 16.411 13.927 16.2947 14.442 16.1778C14.5788 16.147 14.7162 16.1167 14.8531 16.0848C15.1641 16.0123 15.4092 15.7673 15.4578 15.4476C15.5141 15.0803 15.5568 14.7108 15.6061 14.343C15.6639 13.9102 15.7224 13.4775 15.7802 13.0442C15.7894 12.9766 15.7159 12.9193 15.6547 12.9187C15.5796 12.9182 15.5384 12.9771 15.5292 13.0442L15.5298 13.0458Z" fill="black"/>
<path d="M14.328 21.8047L13.9553 24.5808C13.9191 24.8496 13.72 25.0671 13.4555 25.1266L12.8253 25.2689C11.7548 24.1394 11.0916 22.6258 10.8958 21.049C10.8552 20.7223 10.8347 20.3934 10.8347 20.064C10.9969 19.9866 11.1884 19.9785 11.3615 20.0505L13.9342 21.1193C14.2057 21.2319 14.3669 21.5137 14.3285 21.8042L14.328 21.8047Z" fill="#0D51E3"/>
<path d="M14.2025 21.8048C14.136 22.3019 14.0689 22.799 14.0024 23.2961C13.9591 23.6175 13.9158 23.9393 13.8725 24.2606C13.8455 24.4629 13.846 24.675 13.7113 24.8329C13.5864 24.9795 13.4111 25.0082 13.2342 25.0482L12.7918 25.1483C12.8323 25.1591 12.8734 25.1699 12.914 25.1808C11.9414 24.1492 11.3253 22.8196 11.0792 21.4294C10.9991 20.9793 10.9612 20.5222 10.9602 20.0651C10.9396 20.1014 10.9185 20.1376 10.898 20.1733C11.1241 20.0733 11.321 20.1695 11.5254 20.2545C11.7613 20.3524 11.9971 20.4503 12.2335 20.5487C12.7436 20.7608 13.2537 20.9723 13.7638 21.1843C13.8093 21.2033 13.8558 21.22 13.9001 21.2411C14.116 21.3423 14.229 21.5652 14.2031 21.8053C14.1852 21.9654 14.4367 21.9644 14.454 21.8053C14.4957 21.424 14.2626 21.1216 13.9239 20.9809C13.726 20.8987 13.5274 20.8165 13.3295 20.7337C12.762 20.4979 12.1946 20.262 11.6266 20.0267C11.5557 19.9975 11.4849 19.9672 11.4135 19.938C11.1998 19.8509 10.9802 19.8639 10.7714 19.9564C10.7324 19.9737 10.7092 20.0246 10.7092 20.0646C10.7119 21.1335 10.9212 22.2008 11.3356 23.1869C11.5303 23.6505 11.7689 24.0956 12.0534 24.5105C12.1913 24.7118 12.3395 24.906 12.4975 25.0915C12.5711 25.178 12.6473 25.2873 12.7366 25.3576C12.7901 25.4004 12.8367 25.3939 12.8967 25.3814C13.0254 25.3538 13.1542 25.323 13.2829 25.2943C13.3879 25.2705 13.4982 25.2527 13.5983 25.2127C13.8904 25.0958 14.0467 24.8378 14.0868 24.5365C14.149 24.0745 14.2106 23.6131 14.2728 23.1512C14.3329 22.7022 14.3935 22.2538 14.4535 21.8048C14.4627 21.7372 14.3891 21.6798 14.328 21.6793C14.2528 21.6788 14.2117 21.7377 14.2025 21.8048Z" fill="black"/>
<g opacity="0.25">
<path d="M25.4306 22.5858C25.3581 22.7584 25.278 22.9282 25.1931 23.0937C25.1715 23.1365 25.1488 23.1787 25.1266 23.2208C24.584 24.2308 23.8213 25.1038 22.9223 25.7903C22.714 25.9499 22.4982 26.0992 22.2759 26.2376C21.2005 26.9089 19.978 27.3314 18.7284 27.4331C18.3552 27.4639 17.9792 27.4666 17.6044 27.4418C17.4394 27.4309 17.2744 27.4147 17.1099 27.3931C15.6494 27.2027 14.2403 26.5919 13.1422 25.5809C13.1216 25.5625 13.1016 25.5442 13.0822 25.5252C13.913 25.5653 14.7563 25.4938 15.5737 25.3489C18.4607 24.8366 21.2573 23.3723 22.9515 20.9792C24.0755 19.3916 24.6354 17.3734 24.4564 15.4536C25.0292 16.2428 25.4538 17.1299 25.7027 18.0582C25.7719 18.313 25.8265 18.571 25.8677 18.8312C26.0651 20.0813 25.9412 21.3763 25.4306 22.5863V22.5858Z" fill="#000E3F"/>
</g>
<g opacity="0.5">
<path d="M14.6617 26.6083C14.6687 26.5975 14.6216 26.551 14.527 26.4726C14.5032 26.4531 14.4767 26.4315 14.4469 26.4077C14.4323 26.3958 14.4166 26.3839 14.4004 26.3709C14.3842 26.3584 14.3674 26.3449 14.3506 26.3298C14.283 26.2713 14.204 26.2048 14.1153 26.1307C14.1045 26.1215 14.0932 26.1123 14.0818 26.1026C14.071 26.0923 14.0596 26.082 14.0488 26.0717C14.0261 26.0512 14.0034 26.0301 13.9796 26.0079C13.932 25.9646 13.8827 25.9192 13.8308 25.8721C13.8043 25.8489 13.7794 25.8234 13.7535 25.7975C13.7275 25.7715 13.701 25.745 13.6739 25.7185C13.6469 25.6915 13.6193 25.6644 13.5917 25.6363C13.5641 25.6082 13.5344 25.5811 13.5073 25.5497C13.3975 25.428 13.2758 25.3025 13.1601 25.1576C13.0383 25.018 12.9231 24.8595 12.7992 24.6956C12.5607 24.3613 12.3254 23.9772 12.1144 23.5445C11.904 23.1117 11.7195 22.6298 11.5859 22.1072C11.5172 21.8465 11.4669 21.5744 11.4264 21.2953L11.4182 21.2428L11.4128 21.1898C11.409 21.1546 11.4058 21.1189 11.402 21.0838C11.395 21.0129 11.3874 20.9415 11.3798 20.8701C11.3761 20.7982 11.3723 20.7262 11.369 20.6532C11.3669 20.617 11.3652 20.5807 11.3631 20.5439C11.3625 20.5255 11.3609 20.5077 11.3604 20.4893V20.4341C11.3512 19.8478 11.4096 19.2397 11.5421 18.6317C11.6806 18.0253 11.8862 17.4498 12.1442 16.9229L12.1674 16.8732C12.1755 16.8569 12.1847 16.8407 12.1929 16.8245C12.2102 16.7926 12.2275 16.7601 12.2442 16.7282C12.2783 16.6644 12.3124 16.6005 12.3465 16.5367C12.3838 16.475 12.4206 16.4139 12.4574 16.3528C12.4758 16.3225 12.4942 16.2917 12.5125 16.2614L12.5401 16.2159L12.5699 16.1721C12.7251 15.9368 12.8863 15.7123 13.0594 15.5051C13.4029 15.0892 13.7745 14.7316 14.1489 14.4292C14.5237 14.1274 14.9002 13.8796 15.2583 13.6789C15.4401 13.5832 15.6116 13.4891 15.7814 13.4144C15.948 13.3322 16.1114 13.2711 16.2623 13.2073C16.2996 13.1905 16.338 13.1786 16.3754 13.1651C16.4127 13.1515 16.4489 13.1386 16.4846 13.1256C16.5203 13.1126 16.5555 13.1002 16.5901 13.0877C16.6247 13.0753 16.6583 13.0623 16.6918 13.0531C16.7589 13.0325 16.8233 13.0125 16.8844 12.9936C16.9152 12.9839 16.945 12.9747 16.9742 12.9655C16.9888 12.9611 17.0034 12.9563 17.0174 12.9519C17.032 12.9481 17.0461 12.9444 17.0602 12.9406C17.1722 12.9114 17.2717 12.8843 17.3577 12.8605C17.3793 12.854 17.3999 12.8492 17.4204 12.8448C17.4405 12.84 17.4599 12.8356 17.4783 12.8313C17.5151 12.8227 17.5481 12.8145 17.5779 12.8064C17.6969 12.7756 17.7591 12.7534 17.7574 12.741C17.7558 12.7285 17.6904 12.7264 17.5665 12.7339C17.5357 12.7356 17.501 12.7383 17.4626 12.7415C17.4437 12.7431 17.4237 12.7448 17.4026 12.7464C17.3815 12.748 17.3599 12.7502 17.3377 12.754C17.2479 12.7669 17.1446 12.7832 17.0283 12.8026C17.0137 12.8048 16.9991 12.8075 16.9839 12.8102C16.9693 12.8135 16.9542 12.8167 16.939 12.8199C16.9087 12.8264 16.8773 12.8335 16.8454 12.8405C16.7816 12.8551 16.7145 12.8703 16.6442 12.8859C16.609 12.893 16.5739 12.9038 16.5376 12.9141C16.5014 12.9243 16.4646 12.9352 16.4273 12.9454C16.39 12.9563 16.3516 12.9671 16.3126 12.9784C16.2737 12.9898 16.2336 13.0001 16.1941 13.0147C16.0357 13.0704 15.8642 13.125 15.6889 13.2013C15.5104 13.27 15.3292 13.3593 15.1377 13.4512C14.7596 13.6443 14.3609 13.8878 13.9628 14.1912C13.5652 14.4947 13.1687 14.8593 12.8025 15.2888C12.618 15.5024 12.4449 15.7356 12.2794 15.9801L12.248 16.0261L12.2188 16.0737C12.1994 16.105 12.1799 16.137 12.1599 16.1689C12.1209 16.2327 12.0814 16.2965 12.0414 16.3609C12.0052 16.4269 11.9689 16.4934 11.9321 16.5605C11.9137 16.594 11.8953 16.6276 11.8775 16.6611C11.8683 16.6779 11.8591 16.6947 11.8504 16.712L11.8256 16.7639C11.5508 17.314 11.3328 17.9166 11.1878 18.5522C11.0488 19.1894 10.9898 19.8272 11.0044 20.4422V20.4996C11.0055 20.5185 11.0071 20.538 11.0082 20.5569C11.0104 20.5953 11.0131 20.6332 11.0152 20.6711C11.0201 20.7473 11.0244 20.8225 11.0293 20.8982C11.038 20.9734 11.0461 21.0481 11.0547 21.1222C11.0591 21.1595 11.0634 21.1963 11.0672 21.2331L11.0737 21.2883L11.0829 21.3429C11.1288 21.635 11.1862 21.9195 11.2625 22.1911C11.4118 22.7358 11.6151 23.2345 11.8456 23.6781C12.0766 24.1222 12.334 24.5122 12.5937 24.8476C12.7284 25.012 12.8539 25.17 12.9864 25.3079C13.1124 25.4513 13.245 25.5741 13.3645 25.692C13.3937 25.7217 13.4262 25.7483 13.4559 25.7753C13.4862 25.8018 13.5165 25.8283 13.5457 25.8543C13.5749 25.8797 13.6042 25.9051 13.6323 25.93C13.6604 25.9544 13.688 25.9792 13.7167 26.0009C13.7735 26.0452 13.8276 26.0874 13.8795 26.1275C13.9055 26.1475 13.9309 26.1669 13.9552 26.1859C13.9677 26.1956 13.9796 26.2048 13.9915 26.214C14.0039 26.2227 14.0163 26.2313 14.0282 26.2394C14.1256 26.3065 14.2122 26.3649 14.2879 26.4152C14.3063 26.4282 14.3252 26.4396 14.3436 26.4498C14.362 26.4601 14.3793 26.4704 14.3955 26.4801C14.4285 26.4991 14.4588 26.5164 14.4864 26.531C14.5951 26.5905 14.6552 26.6165 14.6622 26.6056L14.6617 26.6083Z" fill="white"/>
</g>
<g opacity="0.5">
<path d="M16.3562 20.6981C16.4071 20.7024 16.4698 20.4823 16.5466 20.1269C16.6235 19.7715 16.7165 19.2809 16.8274 18.741C16.855 18.6063 16.8826 18.4743 16.9085 18.3472C16.935 18.2206 16.961 18.1006 16.9891 17.9875C17.0172 17.8744 17.0465 17.7695 17.0778 17.6727C17.1092 17.5758 17.1438 17.4888 17.1768 17.4098C17.3137 17.096 17.4711 16.937 17.437 16.8937C17.4289 16.884 17.411 16.8835 17.3824 16.8927C17.3683 16.897 17.351 16.904 17.3321 16.9132C17.3126 16.9224 17.2931 16.9359 17.2699 16.9511C17.179 17.0117 17.0616 17.1225 16.9518 17.2843C16.8982 17.3654 16.8452 17.4585 16.7971 17.5607C16.7495 17.6635 16.7057 17.7755 16.6667 17.8945C16.6272 18.0135 16.5926 18.139 16.5607 18.2682C16.5293 18.397 16.4985 18.5306 16.4704 18.6685C16.3573 19.2197 16.3027 19.7271 16.2908 20.0961C16.2789 20.465 16.3065 20.6949 16.3562 20.6992V20.6981Z" fill="white"/>
</g>
<g opacity="0.5">
<path d="M21.8123 14.5541C21.9037 14.5124 21.8237 14.1381 21.6327 13.7183C21.4418 13.298 21.2129 12.9913 21.1215 13.033C21.0301 13.0746 21.1102 13.4489 21.3011 13.8687C21.4921 14.289 21.7209 14.5957 21.8123 14.5541Z" fill="white"/>
</g>
<g opacity="0.5">
<path d="M14.0451 24.1914C14.071 24.1882 14.0835 24.1141 14.1029 23.988C14.1224 23.8615 14.1538 23.6819 14.2073 23.4585C14.2333 23.3465 14.2641 23.2232 14.2939 23.0868C14.309 23.0192 14.3236 22.9478 14.3372 22.8737C14.3502 22.7985 14.3626 22.7206 14.3707 22.639C14.3756 22.5984 14.3777 22.5567 14.381 22.5151C14.3821 22.4729 14.3853 22.4302 14.3842 22.3863C14.3853 22.2992 14.3794 22.2089 14.3675 22.117C14.3561 22.025 14.3345 21.9303 14.3042 21.8362C14.2961 21.8129 14.289 21.7891 14.2793 21.7653C14.2695 21.7421 14.2598 21.7188 14.2501 21.695C14.2274 21.649 14.2052 21.6025 14.177 21.5587L14.1565 21.5252C14.1495 21.5144 14.1413 21.5041 14.1338 21.4933C14.1181 21.4722 14.1035 21.4505 14.0873 21.4305C14.0543 21.3899 14.0196 21.3526 13.9829 21.318C13.9098 21.2488 13.8319 21.1898 13.7524 21.14C13.5934 21.04 13.43 20.975 13.278 20.9226C13.126 20.8706 12.9838 20.8322 12.8545 20.7938C12.7246 20.756 12.6094 20.7181 12.5072 20.6775C12.3022 20.5964 12.154 20.5006 12.0571 20.4238C11.9592 20.3481 11.9084 20.294 11.8851 20.3075C11.8743 20.314 11.8732 20.3351 11.8819 20.3724C11.8867 20.3908 11.8948 20.4119 11.9057 20.4374C11.9181 20.4612 11.9316 20.4898 11.9516 20.519C11.9901 20.5785 12.0458 20.6456 12.1199 20.7127C12.194 20.7803 12.2865 20.8468 12.3941 20.909C12.4482 20.9399 12.5056 20.9696 12.5661 20.9978C12.6267 21.0259 12.69 21.0529 12.7549 21.0789C12.8853 21.1314 13.0232 21.1811 13.1606 21.2369C13.298 21.2931 13.4349 21.3564 13.5588 21.4392C13.621 21.4803 13.6788 21.5268 13.7313 21.5776C13.7573 21.6031 13.7816 21.6301 13.8043 21.6582C13.8157 21.6723 13.8254 21.6875 13.8368 21.7021C13.8422 21.7096 13.8476 21.7167 13.8525 21.7242L13.8666 21.748C13.8871 21.7789 13.9028 21.8124 13.9196 21.8454C13.9266 21.8627 13.9342 21.8795 13.9412 21.8968C13.9488 21.9136 13.9536 21.932 13.9601 21.9493C13.9839 22.0201 14.0029 22.0926 14.0137 22.1673C14.0256 22.2414 14.0332 22.3166 14.0359 22.3912C14.0386 22.4285 14.0375 22.4659 14.038 22.5026C14.0369 22.54 14.0375 22.5762 14.0353 22.613C14.0326 22.686 14.0261 22.7574 14.0196 22.8272C14.0121 22.8981 14.0039 22.9668 13.9958 23.0344C13.9791 23.1696 13.9628 23.2978 13.9526 23.4168C13.9304 23.6548 13.9363 23.8544 13.9612 23.9891C13.9856 24.1244 14.0213 24.1936 14.0451 24.1903V24.1914Z" fill="white"/>
</g>
<g opacity="0.5">
<path d="M17.8169 26.9442C17.852 26.9799 18.0046 26.8944 18.2183 26.7219C18.4325 26.5493 18.7067 26.2875 18.9826 25.9738C19.2585 25.66 19.483 25.3544 19.6268 25.1202C19.7707 24.886 19.8356 24.7237 19.7962 24.6934C19.7556 24.6625 19.6187 24.7691 19.4251 24.9595C19.2314 25.1505 18.9799 25.4247 18.7089 25.7331C18.4379 26.0414 18.1977 26.3259 18.0333 26.5423C17.8688 26.7587 17.7806 26.908 17.8163 26.9442H17.8169Z" fill="white"/>
</g>
<path d="M26.1046 20.5369C26.084 20.5586 26.0878 20.5867 26.0873 20.6132C26.0792 20.8885 26.03 21.1584 25.9742 21.4273C25.7633 22.4426 25.3311 23.3595 24.7247 24.1963C23.9322 25.2896 22.9277 26.1356 21.7247 26.7468C21.0707 27.079 20.3832 27.3154 19.6643 27.4609C19.3462 27.5252 19.0243 27.568 18.7003 27.5918C18.3828 27.6156 18.0647 27.6204 17.7472 27.6031C16.7026 27.5463 15.7057 27.2991 14.7645 26.8377C14.1321 26.5278 13.556 26.1361 13.0427 25.6531C12.4569 25.1013 11.9906 24.4608 11.6233 23.7463C11.2874 23.0939 11.052 22.4058 10.9082 21.6869C10.8443 21.3683 10.8027 21.047 10.7756 20.723C10.7464 20.3687 10.7448 20.0138 10.7648 19.6601C10.8292 18.542 11.1143 17.485 11.6444 16.4956C11.977 15.8746 12.393 15.3153 12.8853 14.8128C13.9931 13.6806 15.3249 12.9428 16.8611 12.57C17.2647 12.4721 17.6747 12.4105 18.0891 12.3791C18.4401 12.3526 18.7917 12.3493 19.1422 12.3694C19.648 12.3986 20.1451 12.4835 20.6341 12.616C21.8096 12.9341 22.8298 13.5243 23.7034 14.3681C24.5494 15.1849 25.1747 16.1494 25.6015 17.2437C25.8066 17.769 25.9521 18.311 26.0375 18.8681C26.0608 19.0201 26.0851 19.1721 26.0846 19.3268C26.0846 19.3636 26.09 19.3988 26.103 19.4329V20.5375L26.1046 20.5369ZM19.6729 24.4874C19.6729 24.4809 19.6724 24.4738 19.6713 24.4673C19.6513 24.318 19.6334 24.1687 19.6112 24.02C19.5507 23.6094 19.4809 23.201 19.3959 22.7948C19.3667 22.6541 19.3354 22.5135 19.304 22.3734C19.291 22.3166 19.2894 22.315 19.2326 22.3133C19.1028 22.3101 18.9821 22.2744 18.8658 22.2203C18.8296 22.2035 18.7933 22.1857 18.7576 22.1668C18.1783 21.8671 17.5995 21.5669 17.0202 21.2672C16.833 21.1704 16.6448 21.0762 16.4576 20.9783C16.3137 20.9031 16.1855 20.8079 16.099 20.6657C16.0773 20.63 16.0697 20.6294 16.034 20.6478C16.0162 20.657 15.9989 20.6673 15.9816 20.6776C15.505 20.9496 15.0366 21.2353 14.5773 21.5355C14.5605 21.5463 14.5443 21.5582 14.5265 21.5679C14.5 21.5831 14.4913 21.6042 14.494 21.635C14.5054 21.7454 14.4978 21.8552 14.4783 21.965C14.4686 22.0207 14.4632 22.0775 14.4556 22.1343C14.4194 22.4064 14.3837 22.6779 14.3469 22.95C14.3101 23.2254 14.2722 23.5002 14.2349 23.7755C14.1992 24.0405 14.1657 24.3061 14.1289 24.5712C14.1148 24.674 14.0867 24.774 14.0402 24.8682C13.9985 24.9526 13.999 24.9526 14.0672 25.0158C14.0845 25.0315 14.1018 25.0472 14.1191 25.0629C14.699 25.5849 15.3508 25.9939 16.0676 26.3C16.5458 26.5045 17.0407 26.6549 17.5524 26.7506C17.5909 26.7577 17.6136 26.749 17.6385 26.7203C17.8792 26.4417 18.121 26.1643 18.3628 25.8868C18.6727 25.5308 18.9832 25.1754 19.2932 24.82C19.3927 24.7059 19.4993 24.6004 19.6372 24.5323C19.6432 24.5295 19.6491 24.5258 19.6545 24.522C19.6659 24.5139 19.6729 24.503 19.6718 24.4884L19.6729 24.4874ZM16.8514 16.9375C16.8492 16.9105 16.8319 16.8991 16.8184 16.8851C16.6772 16.7369 16.5258 16.6005 16.3656 16.4734C16.0714 16.2387 15.7528 16.0428 15.4098 15.8871C15.3319 15.8514 15.3427 15.8454 15.2816 15.906C15.1718 16.0147 15.0398 16.0834 14.8894 16.118C14.8148 16.1353 14.7396 16.1521 14.6644 16.1689C13.8914 16.3436 13.1184 16.5183 12.3454 16.6925C12.2605 16.7114 12.1745 16.726 12.0869 16.7255C12.0165 16.7255 11.9467 16.725 11.8775 16.7082C11.8283 16.6963 11.8267 16.699 11.8002 16.7471C11.7904 16.7644 11.7812 16.7823 11.772 16.8001C11.6482 17.049 11.5367 17.3027 11.4421 17.5639C11.2684 18.0438 11.1473 18.536 11.0769 19.0412C11.0412 19.2966 11.0223 19.5535 11.0077 19.8104C11.0061 19.8369 11.0066 19.864 11.0093 19.8905C11.0099 19.8975 11.0207 19.9073 11.0288 19.9094C11.0412 19.9127 11.0553 19.9121 11.0683 19.9111C11.2289 19.8943 11.3788 19.9294 11.527 19.9917C12.3292 20.3276 13.1319 20.6608 13.9358 20.9935C14.1062 21.0643 14.2544 21.1617 14.3642 21.3132C14.3891 21.3472 14.3961 21.3478 14.4296 21.3278C14.4497 21.3159 14.4691 21.3023 14.4886 21.2899C14.9154 21.0129 15.3487 20.7473 15.7901 20.4947C15.8426 20.465 15.8939 20.4331 15.947 20.4055C15.9821 20.3871 15.9918 20.3633 15.9881 20.3243C15.9778 20.227 15.9924 20.1312 16.0135 20.036C16.1384 19.468 16.2629 18.8995 16.3878 18.331C16.4581 18.0108 16.5301 17.6911 16.6004 17.3714C16.6334 17.2205 16.7032 17.0895 16.8119 16.9792C16.826 16.9651 16.839 16.95 16.8503 16.9381L16.8514 16.9375ZM21.9654 19.9138C21.9519 19.9132 21.9389 19.9121 21.9253 19.9116C21.8669 19.91 21.8658 19.9094 21.8448 19.9635C21.8036 20.0712 21.7414 20.1658 21.6641 20.2508C21.6143 20.3049 21.5629 20.3579 21.5105 20.4093C20.9755 20.9291 20.4399 21.4489 19.9044 21.9682C19.8033 22.0661 19.6994 22.1603 19.5739 22.2279C19.5382 22.2473 19.5377 22.2522 19.5463 22.2928C19.5869 22.4827 19.6291 22.672 19.6675 22.8618C19.7427 23.2356 19.8081 23.611 19.8601 23.9892C19.8795 24.1282 19.8979 24.2677 19.9174 24.4068C19.9239 24.4527 19.9255 24.4554 19.9731 24.4608C20.0494 24.47 20.1262 24.4771 20.1992 24.5036C20.2717 24.5295 20.3442 24.5555 20.4151 24.5853C21.1816 24.9028 21.9475 25.2203 22.713 25.5389C22.7806 25.5671 22.8482 25.5974 22.912 25.6341C22.9515 25.6569 22.9796 25.6547 23.0094 25.6239C23.0142 25.619 23.0197 25.6157 23.0251 25.6114C23.857 24.9428 24.5348 24.1449 25.046 23.2064C25.0974 23.1118 25.0968 23.1302 25.0482 23.0328C24.6825 22.3068 24.3163 21.5815 23.9501 20.8555C23.8776 20.7111 23.8127 20.565 23.8127 20.399C23.8127 20.3763 23.8018 20.3617 23.7802 20.3535C23.7586 20.3454 23.7369 20.3351 23.7153 20.3265C23.4762 20.2302 23.2317 20.1496 22.9823 20.0852C22.648 19.9987 22.3089 19.9424 21.9643 19.9143L21.9654 19.9138ZM21.6311 19.7082C21.6349 19.6168 21.5997 19.5227 21.5624 19.4296C21.2979 18.7756 21.0333 18.1216 20.7683 17.4671C20.698 17.2935 20.6314 17.1182 20.5568 16.9467C20.4627 16.7287 20.2501 16.6027 20.0169 16.6254C19.8438 16.6427 19.6713 16.6649 19.4993 16.6893C19.2115 16.7304 18.9237 16.7763 18.6359 16.818C18.2021 16.8802 17.7683 16.9419 17.3344 17.0003C17.0494 17.0387 16.8903 17.2296 16.8438 17.4476C16.7405 17.9318 16.6318 18.4143 16.5252 18.8979C16.4354 19.3063 16.3445 19.7142 16.2569 20.1231C16.205 20.3649 16.2877 20.5575 16.4884 20.6992C16.5317 20.73 16.5804 20.7544 16.6274 20.7787C17.2987 21.126 17.9706 21.4727 18.6419 21.8195C18.7636 21.8822 18.8848 21.9471 19.0081 22.0066C19.198 22.0981 19.3786 22.0715 19.5474 21.9515C19.5826 21.9266 19.6145 21.8957 19.6453 21.8655C20.1998 21.3272 20.7542 20.7885 21.3087 20.2497C21.3709 20.1891 21.4342 20.1291 21.4931 20.0652C21.5835 19.9684 21.6338 19.8548 21.6305 19.7082H21.6311ZM18.6468 12.6074C18.3098 12.6106 17.9392 12.635 17.5714 12.6896C17.0575 12.7659 16.5555 12.8919 16.066 13.0672C15.9935 13.0931 15.9221 13.1213 15.8501 13.1483C15.8263 13.1575 15.8112 13.1737 15.8079 13.1992C15.8063 13.2121 15.8047 13.2257 15.8025 13.2392C15.7668 13.5075 15.7311 13.7763 15.696 14.0446C15.644 14.4357 15.5926 14.8268 15.5402 15.2179C15.5267 15.3207 15.5099 15.4229 15.4942 15.5252C15.4888 15.5609 15.4585 15.5971 15.4785 15.6301C15.4974 15.6609 15.5407 15.6669 15.5732 15.6826C16.1044 15.9352 16.575 16.2722 16.9866 16.6925C17.0099 16.7163 17.0337 16.7401 17.0553 16.7655C17.078 16.792 17.1024 16.7953 17.1354 16.7845C17.2117 16.759 17.2906 16.7444 17.3707 16.7358C17.4837 16.7233 17.5968 16.7114 17.7093 16.6957C18.0669 16.646 18.4244 16.5946 18.782 16.5437C19.1098 16.4978 19.4376 16.4518 19.7654 16.4058C19.9277 16.3831 20.09 16.355 20.2539 16.3939C20.2766 16.3993 20.2917 16.388 20.3025 16.3685C20.3155 16.3452 20.3296 16.322 20.3431 16.2992C20.5779 15.8968 20.844 15.516 21.1426 15.1584C21.2779 14.9967 21.419 14.8403 21.5656 14.6889C21.5905 14.6635 21.5916 14.6543 21.5667 14.631C21.4753 14.5439 21.4158 14.4368 21.3601 14.3254C21.1323 13.871 20.903 13.4177 20.6736 12.9638C20.6185 12.8546 20.6455 12.8805 20.527 12.8492C19.9228 12.6885 19.3067 12.6139 18.6473 12.6085L18.6468 12.6074ZM20.5254 16.5113C20.5714 16.5492 20.6206 16.5897 20.6612 16.639C20.7299 16.7228 20.7797 16.8169 20.8208 16.9164C20.8592 17.0089 20.8938 17.1031 20.9317 17.1961C21.1794 17.8101 21.4277 18.4235 21.676 19.0374C21.7263 19.1613 21.7766 19.2852 21.8264 19.4096C21.8534 19.4783 21.8675 19.5508 21.8826 19.6227C21.8864 19.6406 21.8961 19.6525 21.9156 19.6541C21.9324 19.6552 21.9491 19.6563 21.9654 19.6584C22.1347 19.6785 22.3051 19.6931 22.4733 19.7201C22.9239 19.7915 23.3615 19.9127 23.7856 20.0814C23.8127 20.0923 23.8403 20.1009 23.8727 20.1123C23.9403 19.9651 24.0409 19.8483 24.1421 19.7326C24.6019 19.2057 25.0617 18.6788 25.5204 18.1514C25.5485 18.1189 25.5923 18.0914 25.5967 18.0486C25.6004 18.0113 25.581 17.9713 25.5702 17.9329C25.2694 16.9192 24.7782 16.0061 24.1123 15.186C23.9457 14.9804 23.7661 14.7868 23.5795 14.5991C23.5411 14.5607 23.5038 14.5428 23.4465 14.5564C23.196 14.6164 22.945 14.6721 22.694 14.73C22.5539 14.7625 22.4165 14.8052 22.2737 14.8252C22.1439 14.8436 22.013 14.8512 21.8859 14.8117C21.8366 14.7965 21.8026 14.803 21.7728 14.842C21.7669 14.8501 21.7587 14.856 21.7517 14.8636C21.2925 15.3364 20.8954 15.8562 20.5638 16.4258C20.5492 16.4512 20.5281 16.4745 20.526 16.5129L20.5254 16.5113ZM11.0115 20.4569C11.0196 20.6678 11.0401 20.8777 11.0667 21.0865C11.1197 21.5019 11.2051 21.9103 11.3247 22.3123C11.5703 23.1404 11.9403 23.908 12.4547 24.6042C12.5818 24.7768 12.7181 24.9417 12.8604 25.1019C12.895 25.1413 12.9258 25.1565 12.981 25.1424C13.1135 25.1078 13.2488 25.0829 13.3818 25.051C13.4435 25.0364 13.5046 25.018 13.5636 24.9942C13.7059 24.9374 13.7994 24.833 13.8481 24.6886C13.8611 24.6507 13.8709 24.6112 13.8768 24.5717C13.8947 24.4495 13.9103 24.3267 13.9266 24.2039C13.9558 23.9854 13.9855 23.7663 14.0147 23.5478C14.051 23.2762 14.0872 23.0041 14.1235 22.7326C14.164 22.4275 14.2084 22.1229 14.2452 21.8178C14.2647 21.6534 14.2143 21.5074 14.1013 21.3846C14.0385 21.3164 13.959 21.2753 13.8746 21.2401C13.4451 21.0627 13.0156 20.8842 12.5867 20.7062C12.2194 20.5537 11.8515 20.4011 11.4842 20.2486C11.3977 20.2124 11.3101 20.1799 11.217 20.1653C11.1602 20.1566 11.104 20.1556 11.0477 20.1707C11.0109 20.1804 11.0055 20.1858 11.0061 20.227C11.0071 20.3038 11.0104 20.3806 11.0126 20.4574L11.0115 20.4569ZM22.7313 25.8316C22.7021 25.7964 22.6686 25.7888 22.6383 25.7764C22.5609 25.745 22.4825 25.7153 22.4057 25.6834C22.0692 25.5438 21.7328 25.4042 21.3963 25.2647C21.029 25.1121 20.6617 24.9601 20.2944 24.8076C20.2111 24.773 20.1267 24.7427 20.037 24.727C19.8855 24.6999 19.7524 24.7373 19.6329 24.8308C19.5799 24.8725 19.536 24.9228 19.4928 24.9737C19.4387 25.0375 19.3857 25.1019 19.331 25.1651C18.9838 25.5638 18.6365 25.9619 18.2892 26.3601C18.1486 26.5213 18.0079 26.683 17.8667 26.8437C17.7645 26.96 17.7142 27.093 17.7261 27.2488C17.7331 27.3456 17.7331 27.3456 17.8316 27.3521C18.1626 27.3732 18.4931 27.3575 18.8236 27.33C19.1844 27.3002 19.5398 27.2407 19.8914 27.1558C20.8943 26.9129 21.8128 26.4839 22.6556 25.8905C22.68 25.8732 22.7032 25.8548 22.733 25.8321L22.7313 25.8316ZM15.5402 13.29C15.5175 13.2927 15.5104 13.2922 15.5045 13.2944C15.4796 13.3046 15.4552 13.3155 15.4309 13.3263C14.5189 13.7466 13.7097 14.3129 13.0124 15.0372C12.6256 15.4392 12.2892 15.8795 12.009 16.3615C11.9938 16.3874 11.9792 16.4139 11.9673 16.4415C11.9619 16.4545 11.9684 16.4686 11.9846 16.4713C12.0008 16.4745 12.0176 16.4761 12.0344 16.4772C12.1155 16.4815 12.194 16.4653 12.2724 16.4475C12.8853 16.3095 13.4981 16.171 14.111 16.0331C14.3458 15.9801 14.5806 15.9282 14.8153 15.8741C15.0723 15.814 15.2248 15.6436 15.2605 15.3813C15.2692 15.3147 15.2784 15.2487 15.287 15.1822C15.3243 14.9074 15.3617 14.6321 15.399 14.3573C15.4369 14.0755 15.4753 13.7942 15.5126 13.5124C15.5223 13.4399 15.5304 13.3674 15.5402 13.2895V13.29ZM25.2288 22.824C25.3413 22.6552 25.5539 22.0775 25.6594 21.6599C25.8677 20.8366 25.9164 20.0036 25.8233 19.1602C25.7936 18.8914 25.7173 18.4668 25.6751 18.3759C25.6464 18.3824 25.6334 18.4083 25.6161 18.4278C25.1585 18.952 24.7014 19.4767 24.2438 20.0014C24.2086 20.042 24.1751 20.0836 24.1486 20.1301C24.0555 20.2924 24.0442 20.459 24.1215 20.63C24.1394 20.6694 24.1594 20.7084 24.1789 20.7473C24.4726 21.3294 24.7669 21.9114 25.0611 22.4935C25.1152 22.6006 25.1699 22.7077 25.2288 22.824ZM13.8227 25.1457C13.813 25.1511 13.8005 25.156 13.7902 25.163C13.6977 25.2263 13.5944 25.2636 13.4862 25.2885C13.4441 25.2982 13.4013 25.3063 13.3586 25.3161C13.2931 25.3307 13.2282 25.3453 13.1633 25.3604C13.1422 25.3653 13.1363 25.3821 13.1498 25.3972C13.1606 25.4096 13.173 25.4215 13.1849 25.4329C13.337 25.579 13.4954 25.718 13.6615 25.8478C14.3631 26.3958 15.1437 26.7885 15.9951 27.0443C16.4446 27.1796 16.9033 27.2683 17.3696 27.3197C17.3929 27.3224 17.4161 27.3235 17.4394 27.3235C17.4594 27.3235 17.4691 27.3105 17.4686 27.2916C17.4686 27.2115 17.4637 27.1314 17.4821 27.0519C17.4935 27.0038 17.4859 26.9973 17.434 26.9854C17.3231 26.961 17.2111 26.9399 17.1013 26.9124C15.8902 26.6094 14.8213 26.0404 13.8963 25.2019C13.8741 25.1819 13.8552 25.1576 13.8233 25.1451L13.8227 25.1457ZM22.1185 14.5899C22.1634 14.5823 22.2229 14.5742 22.2813 14.5612C22.5718 14.4969 22.8622 14.4319 23.1522 14.3649C23.1901 14.3562 23.2328 14.3578 23.2652 14.3292C23.2582 14.2805 23.2139 14.2637 23.1825 14.2377C22.7265 13.8499 22.2272 13.5275 21.6863 13.2706C21.4899 13.177 21.2892 13.0931 21.0842 13.0201C21.0588 13.0109 21.0339 13.0023 21.0085 12.9941C21.0031 12.9925 20.9949 12.9941 20.9906 12.9979C20.9868 13.0017 20.9841 13.0104 20.9857 13.0152C20.9928 13.0342 21.0014 13.052 21.0106 13.0699C21.2065 13.4583 21.4023 13.8467 21.5986 14.2345C21.6197 14.2762 21.6414 14.3183 21.6679 14.3562C21.7733 14.5061 21.9199 14.5807 22.1174 14.5899H22.1185Z" fill="#000E3F"/>
<path d="M19.9249 10.7291C18.2627 11.085 17.0239 11.3095 15.5456 11.6086C15.1458 11.6892 14.7277 11.7758 14.2792 11.8715C14.1505 11.8991 14.0228 11.9013 13.9006 11.8807C14.0466 11.4583 14.1164 11.0039 14.0477 10.5641C14.4485 10.602 14.8797 10.4473 15.0446 10.1016C15.0506 10.0892 15.056 10.0767 15.062 10.0643C15.0717 10.0416 15.0814 10.0183 15.0901 9.99504C15.095 9.9826 15.0993 9.9707 15.1031 9.9588C15.34 9.27831 15.0371 8.46096 14.461 8.0136C13.9141 7.58897 13.1806 7.4651 12.4914 7.56517L12.2356 6.00458L11.7882 3.27989C11.7001 2.74437 12.0484 2.23427 12.5791 2.11959C14.481 1.70902 16.0167 1.25302 17.9051 0.840824C18.4752 0.71695 19.0329 1.09506 19.1271 1.67062C19.3689 3.15007 19.6464 4.60031 19.9401 6.01648C20.1873 7.20545 20.4459 8.37062 20.7044 9.50875C20.8305 10.0616 20.4794 10.6106 19.9249 10.7291Z" fill="#FFCF00"/>
<g opacity="0.25">
<path d="M19.925 10.7293C18.2627 11.0852 17.024 11.3097 15.5456 11.6088C15.1459 11.6894 14.7277 11.776 14.2793 11.8717C14.1505 11.8993 14.0229 11.9015 13.9006 11.8809C14.0067 11.5736 14.0727 11.2491 14.0748 10.9251C14.0829 10.9234 14.091 10.9218 14.0992 10.9202C15.5775 10.6211 16.8163 10.3966 18.4786 10.0406C19.033 9.92164 19.3841 9.37313 19.258 8.8203C18.9995 7.68217 18.7409 6.517 18.4937 5.32803C18.2 3.91186 17.9225 2.46162 17.6807 0.982171C17.6758 0.952419 17.6699 0.923206 17.6623 0.895078C17.7429 0.876686 17.8235 0.859377 17.9052 0.841526C18.4753 0.717652 19.033 1.09577 19.1271 1.67132C19.3689 3.15077 19.6464 4.60101 19.9402 6.01718C20.1874 7.20615 20.4459 8.37132 20.7045 9.50945C20.8305 10.0623 20.4795 10.6113 19.925 10.7298V10.7293Z" fill="#000E3F"/>
</g>
<path d="M15.525 13.5509C15.4612 14.0307 15.346 14.5224 15.0463 14.9032C14.8029 15.2132 14.4583 15.4225 14.1386 15.6519C13.1022 16.3951 12.2659 17.411 11.725 18.5648C10.2423 18.013 8.83799 17.2503 7.56842 16.3058C7.96817 15.5182 8.03092 14.5743 8.04228 13.6775C8.05526 12.6226 8.02713 11.5245 8.47556 10.5698C8.83799 9.79896 9.48116 9.19528 10.1611 8.68139C10.7843 8.21024 11.4675 7.79101 12.228 7.61467C12.3146 7.59465 12.4022 7.57788 12.4904 7.56544C13.1801 7.46537 13.913 7.58925 14.4599 8.01388C15.036 8.46123 15.3389 9.27858 15.102 9.95907C15.0982 9.97097 15.0939 9.98288 15.089 9.99532C15.0804 10.0186 15.0706 10.0413 15.0609 10.0646C15.0555 10.077 15.0495 10.0894 15.0436 10.1019C14.8791 10.4475 14.448 10.6022 14.0466 10.5644C14.1148 11.0042 14.0456 11.4591 13.8995 11.881C14.0218 11.9016 14.1494 11.8994 14.2782 11.8718C14.7266 11.7761 15.1447 11.6895 15.5445 11.6089C15.6186 12.277 15.6018 12.9667 15.5245 13.5509H15.525Z" fill="white"/>
<g opacity="0.25">
<path d="M15.525 13.5507C15.4612 14.0305 15.346 14.5222 15.0463 14.903C14.8029 15.2129 14.4583 15.4223 14.1386 15.6516C13.1022 16.3949 12.2659 17.4108 11.725 18.5646C10.2423 18.0128 8.83799 17.2501 7.56842 16.3056C7.96817 15.518 8.03092 14.5741 8.04228 13.6772C8.04444 13.5106 8.04552 13.3429 8.04715 13.1747C8.07365 13.2288 8.09745 13.2834 8.118 13.3392C8.27379 13.7622 8.28407 14.222 8.29706 14.6726C8.31274 15.2308 8.35115 15.8356 8.71411 16.2591C9.04841 16.6491 9.57961 16.7941 10.0778 16.9185C10.7085 17.0765 11.4096 17.2274 11.9819 16.9174C12.3086 16.74 12.5439 16.4349 12.7614 16.1325C13.1325 15.6165 13.4808 15.0847 13.8054 14.5389C13.9233 14.3399 14.0423 14.1062 13.9666 13.8882C13.8806 13.6405 13.5679 13.5344 13.3126 13.5923C13.0573 13.6502 12.8474 13.8276 12.6521 14.0023C12.4563 14.1765 12.254 14.3594 12.0019 14.4313C11.4804 14.5811 10.9276 14.1852 10.7102 13.6886C10.4922 13.1915 10.5024 12.5937 10.5381 12.0523C10.6896 12.2741 10.7745 12.5332 10.8649 12.7863C10.9547 13.0395 11.0553 13.2953 11.2311 13.4987C11.4069 13.7021 11.6725 13.846 11.9386 13.8092C12.2037 13.7719 12.4195 13.5626 12.5364 13.3218C12.6537 13.0811 12.6884 12.8096 12.7219 12.544C12.8842 12.7593 13.2342 12.7804 13.4727 12.6549C13.7113 12.5294 13.8703 12.293 13.992 12.0523C14.018 12.0003 14.0434 11.9473 14.0683 11.8943C14.1375 11.8943 14.2078 11.8862 14.2782 11.8716C14.7266 11.7759 15.1447 11.6893 15.5445 11.6087C15.6186 12.2768 15.6018 12.9664 15.5245 13.5507H15.525Z" fill="#000E3F"/>
</g>
<path d="M3.78729 21.6772C4.29361 21.8032 4.8075 21.8984 5.32409 21.9709C5.78172 22.0353 6.24097 22.0829 6.7013 22.1197C6.73809 22.1229 6.77541 22.1256 6.81219 22.1283C6.81111 22.1283 6.83707 22.1305 6.85384 22.1316C6.87061 22.1326 6.89658 22.1348 6.89549 22.1348C6.92308 22.137 6.95121 22.1386 6.9788 22.1408C7.09023 22.1483 7.20166 22.1554 7.31364 22.1619C7.54678 22.1759 7.77992 22.1878 8.01307 22.1992C8.88613 22.2408 9.75974 22.2695 10.6317 22.3252C10.9914 21.3483 11.3896 20.3854 11.8256 19.4404C11.9478 19.1759 11.8158 18.8649 11.5416 18.7664C10.1368 18.2639 8.80769 17.5515 7.61169 16.6595C7.39424 16.4972 7.08699 16.5399 6.92254 16.7558C5.70544 18.3494 4.48834 19.9435 3.27124 21.5371C3.44163 21.5879 3.61365 21.6344 3.78621 21.6777L3.78729 21.6772Z" fill="#14FD3B"/>
<g opacity="0.25">
<path d="M11.8266 19.4405C11.3906 20.386 10.9925 21.3489 10.6328 22.3253C10.305 22.3042 9.97717 22.2868 9.64936 22.2717C9.44813 21.9352 9.21012 21.6199 8.94939 21.3359C7.95678 20.2556 6.66557 19.5097 5.47119 18.6566C5.95533 18.0232 6.43892 17.3892 6.9236 16.7553C7.08804 16.54 7.39529 16.4972 7.61275 16.6595C8.80875 17.5515 10.1384 18.2639 11.5426 18.7665C11.8169 18.8649 11.9489 19.1759 11.8266 19.4405Z" fill="#000E3F"/>
</g>
<path d="M12.241 19.3873C12.0355 19.8336 11.8375 20.2831 11.6471 20.7354C11.5627 20.9355 11.3517 21.0469 11.144 21.0107C11.1207 21.0069 11.098 21.0009 11.0748 20.9928C9.23233 20.3654 7.47917 19.4734 5.88828 18.3525C5.84663 18.3228 5.81147 18.2876 5.7828 18.2492C5.66542 18.0891 5.66163 17.8635 5.78929 17.6969C6.1198 17.2642 6.45031 16.8309 6.78136 16.3981C6.96474 16.158 7.30661 16.1109 7.54894 16.291C7.55544 16.2959 7.56247 16.3008 7.56896 16.3062C8.83854 17.2507 10.2428 18.0128 11.7255 18.5651C11.7915 18.5895 11.858 18.6138 11.9246 18.6376C12.2302 18.7474 12.3768 19.0936 12.241 19.3879V19.3873Z" fill="#14FD3B"/>
<g opacity="0.25">
<path d="M12.241 19.3875C12.0355 19.8338 11.8375 20.2833 11.6471 20.7355C11.5627 20.9357 11.3517 21.0471 11.144 21.0109C11.1207 21.0071 11.098 21.0011 11.0748 20.993C9.23233 20.3655 7.47917 19.4735 5.88828 18.3527C5.84663 18.323 5.81147 18.2878 5.7828 18.2494C5.66542 18.0893 5.66163 17.8637 5.78929 17.6971C5.79578 17.689 5.80173 17.6809 5.80822 17.6728C6.55579 18.3078 7.325 18.938 8.22728 19.3177C9.18202 19.7202 10.3283 19.8046 11.2262 19.288C11.5113 19.1235 11.758 18.9072 11.9678 18.6562C12.2437 18.7817 12.3697 19.1084 12.2405 19.3886L12.241 19.3875Z" fill="#000E3F"/>
</g>
<g opacity="0.7">
<path d="M18.7549 2.63483C18.7576 2.62509 18.7544 2.61427 18.7447 2.60237C18.7349 2.59101 18.7187 2.57586 18.6944 2.56559C18.6467 2.54179 18.564 2.5261 18.4628 2.54449C18.3617 2.5618 18.2475 2.61211 18.1377 2.69054C18.0826 2.72949 18.0274 2.77547 17.9738 2.8274C17.9203 2.87879 17.8727 2.9291 17.8218 2.97886C17.7715 3.02863 17.7201 3.07677 17.6682 3.11572C17.6422 3.13627 17.6163 3.15196 17.5908 3.16657C17.5654 3.17955 17.5405 3.19145 17.5167 3.1974C17.4924 3.20389 17.4702 3.20876 17.4464 3.20822C17.4345 3.20822 17.4232 3.20984 17.4096 3.20714L17.3907 3.20551C17.3842 3.20551 17.3766 3.20281 17.3701 3.20173C17.3139 3.19145 17.2446 3.16548 17.164 3.12924C17.0829 3.093 16.991 3.04648 16.879 3.00266C16.7686 2.95939 16.6285 2.91774 16.4662 2.92152C16.3856 2.92152 16.3029 2.93829 16.2288 2.96155C16.1536 2.98481 16.0865 3.01673 16.0265 3.05081C15.9053 3.11842 15.8101 3.19253 15.7235 3.25203C15.6808 3.28178 15.6402 3.30883 15.6035 3.32993C15.5851 3.33966 15.5678 3.35048 15.5499 3.35806L15.5234 3.3705L15.4958 3.38132C15.4228 3.41053 15.34 3.42621 15.2546 3.43541C15.082 3.45164 14.8959 3.43379 14.712 3.40458C14.5259 3.37536 14.3371 3.33858 14.1494 3.32019C13.9617 3.30126 13.7778 3.30018 13.6058 3.33047C13.4338 3.36184 13.2872 3.42297 13.1703 3.49653C13.054 3.57118 12.968 3.65827 12.9145 3.73995C12.8604 3.82164 12.8382 3.8952 12.8317 3.94551C12.8279 3.99744 12.8371 4.02611 12.855 4.03314C12.8734 4.04071 12.901 4.02665 12.9345 3.9996C12.9707 3.97364 13.0151 3.93469 13.0762 3.89574C13.1373 3.8568 13.2158 3.81785 13.3115 3.78702C13.3602 3.77295 13.4121 3.75943 13.4684 3.75077C13.5247 3.74212 13.5847 3.73725 13.6469 3.73725C13.7719 3.73725 13.9163 3.75835 14.0742 3.79351C14.2333 3.82867 14.4085 3.88006 14.6092 3.92712C14.8115 3.97364 15.0398 4.01367 15.2957 3.9996C15.4233 3.99149 15.5586 3.96985 15.6927 3.92117C15.7598 3.89845 15.8269 3.86545 15.888 3.83191C15.9491 3.79784 16.0021 3.76159 16.053 3.72643C16.153 3.65665 16.2363 3.59282 16.3083 3.55117C16.3445 3.52953 16.377 3.51439 16.4057 3.50465C16.4349 3.49437 16.4598 3.48788 16.4863 3.48734C16.5382 3.48301 16.6074 3.49383 16.6897 3.52142C16.7719 3.54792 16.8633 3.58687 16.965 3.62365C17.0667 3.6599 17.1814 3.69614 17.3112 3.70642C17.4399 3.71724 17.5833 3.6956 17.6969 3.64096C17.7548 3.615 17.804 3.58254 17.8494 3.54955C17.8927 3.51547 17.9327 3.48085 17.9663 3.44569C18.035 3.37537 18.0874 3.30612 18.1329 3.24175C18.1778 3.17792 18.2178 3.11626 18.2519 3.06595C18.2854 3.01618 18.3189 2.97075 18.3519 2.93126C18.3849 2.89123 18.4174 2.85661 18.4488 2.82794C18.4801 2.79873 18.5099 2.77439 18.538 2.756C18.5943 2.71705 18.6446 2.69649 18.6835 2.68135C18.703 2.67215 18.7192 2.66782 18.7317 2.65971C18.7441 2.65214 18.7522 2.64402 18.7544 2.63429L18.7549 2.63483Z" fill="white"/>
</g>
<g opacity="0.7">
<path d="M18.7268 4.8448C18.6841 4.84263 18.6521 4.9281 18.5542 5.01195C18.531 5.03358 18.5007 5.0536 18.4693 5.07415C18.4352 5.09309 18.399 5.11256 18.3563 5.1277C18.3141 5.14285 18.2681 5.15638 18.2189 5.16395C18.194 5.16719 18.1691 5.17044 18.1437 5.17152C18.1312 5.17314 18.1182 5.17152 18.1058 5.17152C18.0939 5.17152 18.0793 5.17098 18.0647 5.1699C17.95 5.16341 17.8218 5.1342 17.6747 5.08768C17.6006 5.06496 17.5221 5.03791 17.4367 5.00978C17.3945 4.99572 17.3496 4.98166 17.3036 4.96813C17.256 4.95461 17.2073 4.94108 17.1559 4.92918C17.0537 4.90592 16.9444 4.88699 16.8249 4.88212C16.7064 4.87671 16.576 4.88645 16.4424 4.92432C16.3759 4.94487 16.3083 4.96975 16.2444 5.00599C16.1806 5.04116 16.1206 5.08281 16.0697 5.12608C15.9669 5.21317 15.8896 5.30297 15.8204 5.37816C15.7517 5.45335 15.6922 5.51285 15.6391 5.54801C15.5872 5.58425 15.5266 5.60805 15.4574 5.62482C15.3178 5.6562 15.1485 5.647 14.9835 5.62104C14.8164 5.59399 14.64 5.5518 14.4626 5.52637C14.2852 5.50041 14.1051 5.49284 13.9379 5.52042C13.5912 5.58047 13.3705 5.78656 13.2899 5.96183C13.2488 6.04946 13.2412 6.12573 13.2466 6.17495C13.2542 6.22526 13.2704 6.2496 13.2899 6.25231C13.3099 6.25501 13.3326 6.23608 13.3591 6.20525C13.3872 6.17495 13.4224 6.13384 13.4732 6.09273C13.5241 6.05216 13.5901 6.00889 13.6766 5.97805C13.7188 5.96128 13.7664 5.94938 13.8167 5.94019C13.867 5.93099 13.9206 5.92612 13.9741 5.92829C14.0894 5.93153 14.2197 5.95533 14.3674 5.99644C14.5162 6.03647 14.6806 6.0949 14.8791 6.14358C14.9792 6.16738 15.0858 6.18685 15.2004 6.19605C15.3146 6.20578 15.4385 6.20308 15.5683 6.18036C15.6976 6.15602 15.8355 6.10842 15.9578 6.02728C16.0805 5.94722 16.1703 5.85148 16.2472 5.76871C16.2823 5.72977 16.3175 5.69136 16.3521 5.65349C16.384 5.61941 16.4143 5.58912 16.443 5.56424C16.4998 5.51447 16.5457 5.48851 16.6074 5.46687C16.7297 5.42522 16.8925 5.42738 17.0542 5.45226C17.0948 5.45821 17.1354 5.46579 17.1765 5.4739C17.2192 5.4831 17.2619 5.49175 17.3036 5.50095C17.3891 5.51934 17.4756 5.53881 17.5632 5.5545C17.738 5.58588 17.9192 5.60156 18.0874 5.57884C18.1085 5.57614 18.1291 5.57343 18.1507 5.56857C18.1723 5.56424 18.1934 5.56045 18.2134 5.5545C18.254 5.54422 18.2924 5.53016 18.3287 5.51556C18.4011 5.48526 18.4644 5.4474 18.5196 5.40683C18.5748 5.36626 18.6202 5.31974 18.6576 5.27538C18.6938 5.22832 18.723 5.18234 18.7414 5.1369C18.7803 5.04657 18.7841 4.96921 18.7749 4.91945C18.7641 4.86914 18.7457 4.84588 18.7262 4.84534L18.7268 4.8448Z" fill="white"/>
</g>
<g opacity="0.7">
<path d="M18.9204 7.06112C18.9312 7.04435 18.9291 7.02055 18.9129 6.98918C18.9047 6.97349 18.8934 6.95564 18.8772 6.9367C18.8609 6.91939 18.8409 6.89992 18.8166 6.87937C18.7928 6.85881 18.763 6.8415 18.7306 6.82095C18.6976 6.80147 18.6597 6.78525 18.6186 6.76685C18.5353 6.73602 18.4347 6.70897 18.32 6.70086C18.2059 6.69328 18.0782 6.70086 17.944 6.73548C17.8104 6.76956 17.6698 6.83068 17.5383 6.92805C17.5221 6.94049 17.5059 6.95293 17.4897 6.96538C17.4734 6.97782 17.4588 6.99296 17.4431 7.00757C17.428 7.02217 17.4123 7.03678 17.3972 7.05138C17.3831 7.06599 17.369 7.08168 17.3555 7.09682C17.3025 7.15741 17.2576 7.21745 17.2165 7.27208C17.1754 7.32672 17.1386 7.3754 17.1034 7.41435C17.0683 7.45384 17.0364 7.48034 17.0066 7.49928C16.9769 7.51713 16.9428 7.53065 16.9022 7.53985C16.8611 7.54904 16.8135 7.55229 16.7632 7.55175C16.7123 7.5512 16.6588 7.54526 16.6047 7.53606C16.5511 7.5274 16.4943 7.51442 16.4354 7.50036C16.318 7.47223 16.1947 7.43923 16.0686 7.41922C15.942 7.3992 15.8165 7.39217 15.6927 7.41056C15.453 7.44626 15.2799 7.57176 15.2075 7.68914C15.1696 7.74702 15.1577 7.80112 15.1561 7.83736C15.1571 7.87523 15.168 7.89686 15.1858 7.90552C15.2037 7.91363 15.2286 7.9093 15.2561 7.8974C15.2859 7.88712 15.3183 7.86928 15.3605 7.85467C15.4022 7.83952 15.4514 7.82546 15.5104 7.81843C15.5688 7.81086 15.6375 7.80977 15.7094 7.81951C15.7781 7.82979 15.8625 7.85251 15.955 7.88605C16.0486 7.91904 16.1541 7.96448 16.2796 8.01046C16.3423 8.03318 16.4105 8.05644 16.4868 8.07645C16.5625 8.09593 16.6431 8.11107 16.7307 8.1181C16.8178 8.1246 16.9119 8.12351 17.0109 8.10566C17.1099 8.08727 17.2143 8.05157 17.3095 7.99261C17.4042 7.93365 17.4799 7.86116 17.5373 7.79246C17.5951 7.72376 17.64 7.65777 17.679 7.59935C17.7174 7.54147 17.7509 7.49008 17.7823 7.44735L17.805 7.41705L17.8277 7.39109C17.8353 7.38243 17.8418 7.37324 17.8505 7.36513L17.8753 7.34132C17.9413 7.27804 18.0187 7.22719 18.0982 7.18986C18.1783 7.152 18.2599 7.12657 18.3373 7.10926C18.4152 7.09249 18.4877 7.08763 18.5542 7.0833C18.5867 7.08384 18.6186 7.08222 18.6478 7.0833C18.6765 7.08546 18.7046 7.08438 18.7295 7.08654C18.7544 7.08871 18.7776 7.08925 18.7987 7.08925C18.8193 7.08979 18.8377 7.09087 18.8539 7.08925C18.8863 7.08654 18.9096 7.07735 18.9204 7.06058V7.06112Z" fill="white"/>
</g>
<g opacity="0.7">
<path d="M11.5699 18.7555C11.578 18.7166 11.5158 18.663 11.3974 18.6003C11.3676 18.5846 11.3346 18.5684 11.2984 18.5516C11.2621 18.5343 11.2232 18.5148 11.181 18.4959C11.0966 18.4569 10.9998 18.4185 10.8943 18.3709C10.8413 18.3482 10.7861 18.3244 10.7282 18.3006C10.6703 18.2768 10.6114 18.2487 10.5492 18.2227C10.4248 18.1713 10.2949 18.1102 10.1565 18.0502C9.88221 17.9247 9.58415 17.7824 9.27636 17.6228C8.96965 17.4611 8.68295 17.2977 8.42276 17.1446C8.29456 17.0657 8.17015 16.9937 8.05709 16.9212C8.00029 16.8855 7.9435 16.8525 7.89103 16.819C7.83856 16.7849 7.78771 16.753 7.73848 16.7227C7.63949 16.6632 7.5524 16.6059 7.47181 16.5588C7.43178 16.535 7.39391 16.5139 7.35875 16.4944C7.32413 16.4744 7.29222 16.4566 7.26246 16.4414C7.14346 16.3803 7.06394 16.3597 7.03635 16.389C7.0093 16.4182 7.03635 16.4944 7.11208 16.6091C7.13102 16.6378 7.15266 16.6686 7.177 16.7022C7.20188 16.7352 7.23055 16.7687 7.26192 16.8055C7.32467 16.878 7.39661 16.9602 7.48316 17.0435C7.5259 17.0857 7.57134 17.1295 7.61948 17.1744C7.66762 17.2193 7.72009 17.2631 7.77364 17.3091C7.88021 17.4027 8.00084 17.4935 8.12796 17.5898C8.38598 17.777 8.68242 17.9652 9.00806 18.1367C9.33478 18.306 9.65934 18.4418 9.95956 18.5467C10.111 18.5965 10.2549 18.6436 10.3923 18.6771C10.461 18.6944 10.5265 18.7128 10.5908 18.7263C10.6552 18.7399 10.7169 18.7523 10.7764 18.7631C10.8943 18.7869 11.003 18.7988 11.0982 18.8091C11.1458 18.814 11.1902 18.8177 11.2313 18.8199C11.2724 18.821 11.3108 18.821 11.3449 18.8199C11.4817 18.8161 11.5607 18.795 11.5688 18.7561L11.5699 18.7555Z" fill="white"/>
</g>
<path d="M10.391 22.5188C10.3429 22.4885 10.2883 22.495 10.2363 22.4923C9.6689 22.4669 9.10092 22.4442 8.53348 22.4177C7.8492 22.3857 7.16492 22.3522 6.4828 22.2905C5.60433 22.211 4.73234 22.0909 3.87442 21.8816C3.70944 21.841 3.54608 21.795 3.38217 21.7512C3.35675 21.7442 3.33132 21.7366 3.30644 21.7263C3.18419 21.6766 3.1539 21.5792 3.23287 21.4732C3.39515 21.2563 3.56068 21.0421 3.72512 20.8273C4.33421 20.03 4.94331 19.2321 5.5524 18.4348C5.57187 18.4093 5.58918 18.3823 5.61136 18.3596C5.65788 18.3114 5.66113 18.2606 5.64057 18.1989C5.58053 18.0199 5.62055 17.8527 5.71197 17.6953C5.74118 17.645 5.77688 17.5979 5.8115 17.5514C6.08143 17.1895 6.36542 16.8385 6.62615 16.4701C6.67808 16.3971 6.74028 16.33 6.80574 16.2678C6.98479 16.0974 7.20008 16.0492 7.43972 16.092C7.47109 16.0974 7.50084 16.1098 7.53221 16.1147C7.55331 16.118 7.57495 16.112 7.58522 16.0893C7.60524 16.046 7.6258 16.0027 7.64257 15.9578C7.75562 15.6587 7.82864 15.3493 7.87408 15.0334C7.94602 14.5379 7.95684 14.0391 7.96334 13.5399C7.96929 13.1098 7.96604 12.6798 8.00175 12.2503C8.03366 11.8635 8.08884 11.4805 8.19756 11.1067C8.35552 10.5626 8.63139 10.0828 8.99598 9.65163C9.25779 9.34222 9.5526 9.06742 9.86743 8.81372C10.3229 8.44643 10.8016 8.11322 11.3274 7.85195C11.6282 7.70265 11.9397 7.58472 12.2675 7.51062C12.2778 7.50845 12.2886 7.50683 12.2989 7.50412C12.3676 7.48573 12.3795 7.47275 12.3709 7.40567C12.3579 7.3056 12.3422 7.20607 12.326 7.10654C12.2221 6.4731 12.1188 5.83913 12.0138 5.2057C11.9143 4.60364 11.8132 4.00158 11.7136 3.39952C11.6428 2.97056 11.7569 2.60056 12.0744 2.29872C12.2075 2.17214 12.3665 2.08776 12.5407 2.03258C12.6927 1.98444 12.8485 1.95144 13.0048 1.92169C13.469 1.83352 13.9266 1.71505 14.3848 1.602C15.4612 1.33694 16.5371 1.06864 17.6141 0.80304C17.7272 0.774912 17.8419 0.750568 17.9571 0.733258C18.4385 0.660232 18.8377 0.804663 19.1385 1.19468C19.2548 1.34506 19.3127 1.52194 19.3462 1.7064C19.3895 1.94657 19.4295 2.18729 19.4701 2.428C19.5939 3.16043 19.7313 3.89069 19.8736 4.61987C20.0867 5.71363 20.3172 6.80362 20.5568 7.89197C20.6666 8.38963 20.7797 8.88621 20.8884 9.38387C20.9192 9.52397 20.9392 9.66569 20.9371 9.81012C20.929 10.2537 20.7277 10.5793 20.3415 10.7925C20.1679 10.8882 19.9775 10.9407 19.7849 10.9791C18.9735 11.1424 18.1616 11.3026 17.3496 11.4638C16.8655 11.5595 16.3813 11.6547 15.8972 11.7505C15.8767 11.7548 15.8556 11.7591 15.835 11.7645C15.8004 11.7737 15.7798 11.7943 15.7825 11.8327C15.7847 11.8646 15.7869 11.8965 15.789 11.9279C15.8426 12.6251 15.8177 13.3181 15.6787 14.0045C15.551 14.6342 15.2394 15.1491 14.712 15.5251C14.5735 15.6235 14.4351 15.722 14.2971 15.821C13.3435 16.5058 12.6045 17.3762 12.0609 18.4148C12.0485 18.438 12.0366 18.4624 12.0268 18.4867C12.023 18.4959 12.0247 18.5073 12.0241 18.5181C12.0544 18.5581 12.1036 18.5689 12.1453 18.5911C12.5099 18.7869 12.5656 19.1775 12.4639 19.4517C12.4493 19.4912 12.4309 19.5302 12.4141 19.5686C12.2513 19.9375 12.0885 20.3064 11.9246 20.6748C11.8921 20.7473 11.8591 20.8197 11.8207 20.8895C11.7288 21.0561 11.5941 21.1724 11.4021 21.2016C11.3247 21.213 11.2949 21.2519 11.2701 21.3163C11.1413 21.6533 11.0083 21.9887 10.8806 22.3262C10.8541 22.3966 10.8211 22.4609 10.7751 22.5199H10.3927L10.391 22.5188ZM14.1889 11.7602C14.2409 11.7932 14.289 11.778 14.335 11.7715C14.4032 11.7618 14.4713 11.7494 14.5378 11.7321C15.1037 11.5871 15.6787 11.4843 16.251 11.3707C17.2971 11.1625 18.3449 10.9639 19.3911 10.7573C19.6042 10.7151 19.8174 10.667 20.0251 10.6037C20.3653 10.4993 20.5617 10.2596 20.6282 9.9102C20.6547 9.77064 20.6352 9.6354 20.6055 9.50017C20.5033 9.03388 20.401 8.56706 20.2988 8.10077C20.0272 6.86204 19.7622 5.62167 19.5209 4.37699C19.3635 3.5645 19.2061 2.75148 19.0828 1.93251C19.0649 1.81188 19.0427 1.69179 18.9989 1.57657C18.8529 1.19143 18.4688 0.962613 18.062 1.0232C17.9885 1.03402 17.916 1.04971 17.8435 1.06593C16.8087 1.30016 15.7809 1.56521 14.751 1.82162C14.1229 1.97795 13.4971 2.14401 12.8593 2.26032C12.7501 2.28033 12.6413 2.30846 12.5391 2.3539C12.2286 2.49238 12.0436 2.72606 12.0009 3.06739C11.9857 3.18531 12.0052 3.30107 12.023 3.41575C12.1172 4.00807 12.2156 4.59931 12.313 5.19109C12.4271 5.88782 12.5413 6.584 12.6565 7.28072C12.6868 7.46247 12.6776 7.44083 12.8436 7.43326C13.3007 7.41379 13.7443 7.47816 14.1641 7.66857C14.731 7.92551 15.1215 8.3442 15.3114 8.94085C15.4185 9.27731 15.438 9.61809 15.3417 9.9605C15.2227 10.3835 14.9414 10.6367 14.5151 10.7313C14.4632 10.7427 14.4107 10.7497 14.3582 10.7578C14.2863 10.7692 14.2825 10.773 14.282 10.8498C14.282 10.9082 14.2836 10.9666 14.2841 11.0251C14.2841 11.2063 14.2647 11.3853 14.2263 11.5622C14.2117 11.6282 14.2008 11.6953 14.1889 11.7596V11.7602ZM15.5175 12.5294C15.5088 12.3666 15.4975 12.1334 15.4845 11.9003C15.4823 11.8576 15.4618 11.8419 15.4228 11.8473C15.3968 11.8505 15.3709 11.8581 15.3449 11.8624C14.9425 11.9317 14.5508 12.0588 14.1403 12.0831C14.0975 12.0858 14.0726 12.1069 14.0564 12.1443C14.0353 12.1929 14.0126 12.2411 13.9888 12.2881C13.9206 12.4217 13.8352 12.5429 13.7232 12.6435C13.5214 12.8237 13.2877 12.9021 13.0178 12.8577C12.9511 12.8469 12.9082 12.8727 12.8891 12.9351C12.8831 12.9557 12.8793 12.9762 12.8728 12.9968C12.8009 13.2267 12.6992 13.4414 12.5488 13.6313C12.4417 13.766 12.3151 13.8774 12.1621 13.9575C12.0225 14.0305 11.8743 14.0656 11.7169 14.0543C11.4415 14.0343 11.2398 13.8936 11.091 13.6681C11.0077 13.542 10.9661 13.3992 10.9341 13.2537C10.9022 13.1087 10.8719 12.9632 10.8379 12.8188C10.8119 12.7101 10.7729 12.6057 10.7161 12.5088C10.6431 12.385 10.5409 12.2973 10.3986 12.2606C10.3732 12.2541 10.3461 12.2492 10.3223 12.2395C10.2639 12.2146 10.2358 12.1583 10.2482 12.0966C10.2666 12.0052 10.337 11.9511 10.4338 11.962C10.5993 11.9809 10.7356 12.0577 10.8465 12.181C10.9255 12.2687 10.9817 12.3709 11.0261 12.4796C11.0845 12.6224 11.1224 12.7717 11.1581 12.9216C11.1878 13.0454 11.2171 13.1693 11.2522 13.2916C11.283 13.3992 11.3317 13.4998 11.4031 13.5875C11.5043 13.7113 11.6336 13.7703 11.7948 13.7579C11.9154 13.7487 12.0198 13.7 12.115 13.6286C12.2308 13.5409 12.3227 13.4311 12.3984 13.3083C12.5878 13.0011 12.6705 12.6668 12.6619 12.3071C12.6538 11.9739 12.5564 11.6704 12.3671 11.3967C12.1329 11.0581 11.8218 10.8206 11.4296 10.6918C11.3793 10.6751 11.3274 10.6632 11.2787 10.6421C11.203 10.6096 11.1743 10.5334 11.2046 10.4571C11.2381 10.3727 11.3068 10.3429 11.414 10.37C12.062 10.5339 12.723 11.077 12.9086 11.8781C12.9497 12.0545 12.9686 12.2335 12.9681 12.4153C12.9681 12.511 12.9994 12.5483 13.0914 12.5694C13.1439 12.5813 13.1969 12.5792 13.2493 12.5656C13.3819 12.5316 13.4933 12.4634 13.5809 12.3579C13.6632 12.2589 13.7227 12.1464 13.7703 12.028C13.8817 11.7505 13.9569 11.4632 13.9845 11.1657C14.0213 10.7708 13.9585 10.3927 13.7681 10.0411C13.6577 9.83717 13.5144 9.65974 13.3186 9.53316C12.915 9.27298 12.4974 9.2389 12.069 9.47528C12.0414 9.49043 12.0149 9.50937 11.9857 9.52127C11.9257 9.54669 11.8705 9.53046 11.8299 9.47961C11.7758 9.412 11.7785 9.32058 11.8435 9.26486C11.8873 9.22754 11.9381 9.19617 11.99 9.1702C12.3774 8.97438 12.7766 8.96356 13.1779 9.11719C13.6009 9.27947 13.8925 9.58401 14.0824 9.9908C14.143 10.1212 14.1884 10.2569 14.2209 10.397C14.2322 10.4463 14.2522 10.4603 14.2993 10.4571C14.6747 10.4333 14.9717 10.2515 15.0707 9.82257C15.1215 9.60186 15.1145 9.379 15.0598 9.15938C14.9219 8.6033 14.5881 8.2068 14.0759 7.95635C13.6523 7.74971 13.2028 7.69832 12.7409 7.74592C12.2876 7.79244 11.8586 7.92876 11.4513 8.13215C10.7713 8.4724 10.172 8.92624 9.61643 9.44121C9.48769 9.56075 9.3676 9.68787 9.25238 9.8204C8.93161 10.1888 8.68386 10.5999 8.52861 11.0651C8.42746 11.3686 8.36201 11.6796 8.32414 11.9966C8.27708 12.3925 8.25761 12.7901 8.25652 13.1888C8.25544 13.6399 8.25112 14.0916 8.22461 14.5422C8.21055 14.7808 8.18404 15.0182 8.14509 15.2541C8.09045 15.5851 8.00174 15.907 7.8703 16.2164C7.83838 16.2916 7.83892 16.2943 7.89572 16.3359C8.07152 16.4647 8.24408 16.5978 8.42475 16.7189C9.38978 17.3653 10.4127 17.9019 11.4918 18.3309C11.5638 18.3596 11.6384 18.4272 11.7125 18.3937C11.7775 18.3644 11.7904 18.2719 11.8251 18.207C12.3319 17.2636 12.9919 16.4485 13.8444 15.795C14.051 15.6365 14.262 15.4845 14.4691 15.3276C14.5746 15.2476 14.6801 15.1664 14.7796 15.0788C15.0074 14.8781 15.1718 14.6331 15.2692 14.3453C15.3049 14.2398 15.3373 14.1333 15.3628 14.0245C15.4726 13.5572 15.504 13.0806 15.518 12.531L15.5175 12.5294ZM3.61153 21.4813C3.65805 21.5181 3.70078 21.5235 3.7419 21.5349C4.49271 21.7345 5.25704 21.8573 6.02842 21.9416C6.64075 22.0087 7.25471 22.0552 7.8703 22.0812C8.10885 22.0915 8.3474 22.1039 8.58649 22.1147C9.20153 22.1439 9.81712 22.1726 10.4322 22.2013C10.4641 22.2029 10.496 22.2029 10.5279 22.2051C10.576 22.2083 10.6053 22.1921 10.6236 22.1429C10.741 21.8356 10.8617 21.5294 10.9801 21.2222C10.9991 21.1735 10.9926 21.1632 10.9379 21.1411C10.7854 21.0799 10.6334 21.0172 10.4792 20.9593C8.88509 20.3627 7.39481 19.5664 5.9873 18.6133C5.85369 18.5229 5.88183 18.5024 5.7704 18.6479C5.07746 19.555 4.38452 20.4627 3.69159 21.3699C3.66616 21.4034 3.6429 21.438 3.61261 21.4808L3.61153 21.4813ZM11.2701 20.9014C11.3993 20.9139 11.4983 20.8549 11.5649 20.7375C11.5833 20.7051 11.5979 20.671 11.6125 20.6369C11.7877 20.2388 11.963 19.8407 12.1372 19.442C12.1561 19.3982 12.174 19.3538 12.1869 19.3078C12.2297 19.1547 12.1853 19.0255 12.0733 18.9167C12.0149 18.8599 11.9435 18.8253 11.8689 18.7966C11.7499 18.7512 11.6303 18.7074 11.5119 18.6609C10.1135 18.1178 8.80773 17.407 7.6047 16.5101C7.56629 16.4815 7.5268 16.4539 7.48515 16.4317C7.32341 16.3446 7.18385 16.3587 7.04321 16.476C6.97343 16.5339 6.91555 16.6032 6.86037 16.6751C6.59315 17.0251 6.32539 17.3751 6.05817 17.7256C6.02625 17.7678 5.99325 17.81 5.96675 17.856C5.88777 17.9917 5.9013 18.1183 6.00516 18.2373C6.0652 18.306 6.13877 18.358 6.21558 18.4061C6.30971 18.4656 6.40545 18.5229 6.49849 18.5841C7.29204 19.1093 8.11805 19.5767 8.97488 19.9905C9.64943 20.3161 10.3472 20.5861 11.0456 20.8538C11.1148 20.8803 11.1868 20.9014 11.2701 20.9009V20.9014Z" fill="#000E3F"/>
<path d="M6.4136 27.1374C6.13339 27.3667 5.75799 27.1109 5.45398 26.9145C4.7578 26.4655 4.21524 25.7888 3.56775 25.2755C3.43576 25.1711 3.33785 25.0299 3.28755 24.8692C3.12256 24.338 2.88347 22.6519 2.99598 22.3728C3.201 21.8649 3.72624 21.4516 4.15899 21.7875C4.70912 22.2149 5.31767 23.1712 5.67955 23.7554C6.07714 24.397 6.39629 25.1678 6.68894 25.8997C6.82363 26.2373 6.4163 27.1347 6.41306 27.1374H6.4136Z" fill="#FD8A02"/>
<path d="M6.4071 27.212C7.72319 26.5104 7.80758 26.5764 9.11231 25.8791C9.31354 25.7715 9.56183 25.857 9.65703 26.0641C10.3056 27.4781 11.9024 28.4064 13.469 28.316C15.1778 28.2176 16.7335 26.9951 17.361 25.4026C17.9885 23.8101 17.7213 21.9287 16.7909 20.4925C15.8605 19.0564 13.0114 17.6245 11.3718 18.1146C7.78432 19.1856 6.46552 19.6308 3.3795 21.8059C3.18043 21.9466 3.15555 22.2333 3.32757 22.4058C4.1103 23.194 4.35156 23.4969 5.34201 24.3061C5.39069 24.3461 5.43018 24.3964 5.45452 24.4543C5.68982 25.0115 5.84724 26.062 5.82722 26.8572C5.81965 27.1579 6.1415 27.3532 6.4071 27.212Z" fill="#FFCF00"/>
<path d="M13.4689 28.316C11.9018 28.4063 10.305 27.4781 9.65692 26.0641C9.56172 25.8569 9.31343 25.7715 9.1122 25.8791C7.80747 26.5758 7.72308 26.5104 6.40699 27.212C6.14139 27.3531 5.81954 27.1579 5.82711 26.8571C5.84713 26.0619 5.69025 25.012 5.45441 24.4543C5.45441 24.4543 5.45441 24.4532 5.45387 24.4527C5.41654 24.3661 5.44035 24.2655 5.51878 24.213C7.5911 22.8212 8.46362 22.3863 10.7231 21.3255C11.8904 20.7776 13.1205 20.2658 14.4106 20.2577C15.5001 20.2507 16.6479 20.6829 17.3068 21.5219C17.3192 21.5376 17.329 21.5554 17.336 21.5738C17.798 22.8001 17.8407 24.186 17.362 25.4025C16.7345 26.995 15.1782 28.217 13.4694 28.316H13.4689Z" fill="#FD8A02"/>
<g opacity="0.25">
<path d="M13.4689 28.3159C11.9018 28.4063 10.3055 27.478 9.65692 26.064C9.56172 25.8574 9.31343 25.7714 9.1122 25.879C7.80747 26.5763 7.72254 26.5103 6.40699 27.2119C6.14139 27.3531 5.81954 27.1578 5.82711 26.857C5.84713 26.0624 5.69025 25.0119 5.45441 24.4542C5.45441 24.4542 5.45441 24.4531 5.45387 24.4526C5.41654 24.3666 5.44035 24.266 5.51878 24.2135C5.57179 24.1778 5.6248 24.1426 5.67673 24.108C5.88878 24.8432 6.51085 25.4961 7.2687 25.4966C8.25699 25.4971 9.21877 24.4521 10.0886 24.921C10.556 25.1731 10.7166 25.7487 10.986 26.2058C11.6595 27.3482 13.2065 27.808 14.4696 27.4045C15.7327 27.0004 16.6804 25.8655 17.0704 24.5981C17.3939 23.5476 17.3717 22.4198 17.1472 21.3384C17.2029 21.3974 17.256 21.4585 17.3057 21.5229C17.3182 21.5386 17.3279 21.5564 17.3349 21.5748C17.7969 22.8017 17.8396 24.187 17.3609 25.4036C16.7334 26.9961 15.1766 28.218 13.4683 28.317L13.4689 28.3159Z" fill="#000E3F"/>
</g>
<path d="M12.4208 22.7278C11.6889 23.3732 11.3589 24.4853 11.6391 25.3665C11.9188 26.2477 12.7875 26.833 13.6995 26.7551C14.6115 26.6772 15.5003 25.9415 15.8075 25.01C16.5259 22.8333 14.1312 21.2192 12.4202 22.7273L12.4208 22.7278Z" fill="#FFCF00"/>
<g opacity="0.25">
<path d="M13.6593 26.7581C12.7619 26.816 11.9148 26.2345 11.6389 25.3663C11.3592 24.4851 11.6886 23.3724 12.4205 22.7276C13.2276 22.0158 14.1872 21.9995 14.9002 22.409C14.4431 22.4334 13.9681 22.6151 13.537 22.9954C12.8046 23.6407 12.4752 24.7529 12.7554 25.6341C12.909 26.1182 13.2406 26.5136 13.6598 26.7581H13.6593Z" fill="#000E3F"/>
</g>
<path d="M10.2542 19.1446L11.1213 19.7428C11.4524 19.9716 11.4134 20.4726 11.051 20.6473L8.55187 21.8498C8.36471 21.9401 8.14184 21.9109 7.98389 21.7762L7.10974 21.0303C6.81277 20.7766 6.88688 20.2995 7.2466 20.148L9.75275 19.0932C9.91773 19.0239 10.1065 19.0434 10.2542 19.1451V19.1446Z" fill="#FD8A02"/>
<g opacity="0.7">
<path d="M17.2885 21.6203C17.2998 21.6041 17.276 21.564 17.2181 21.5018C17.1613 21.4385 17.0667 21.3585 16.9379 21.2627C16.6794 21.0767 16.2704 20.8414 15.7149 20.6726C15.4374 20.5893 15.1247 20.5233 14.7829 20.4908C14.4415 20.4589 14.0704 20.4643 13.6864 20.5168C13.3029 20.5693 12.9107 20.671 12.5201 20.804C12.1296 20.9387 11.7396 21.1043 11.3512 21.2833C10.9628 21.4629 10.5917 21.6409 10.2304 21.814C9.87009 21.9871 9.52335 22.1558 9.19393 22.3186C8.53507 22.6437 7.94491 22.944 7.45266 23.2036C6.46871 23.7229 5.87692 24.0799 5.911 24.1524C5.94508 24.2249 6.59799 23.9982 7.6263 23.5736C8.14073 23.3616 8.74874 23.0998 9.42004 22.8006C9.75596 22.6513 10.1076 22.4928 10.4711 22.3262C10.8335 22.1591 11.2084 21.9854 11.5924 21.808C11.9738 21.6322 12.3454 21.4705 12.7084 21.3374C13.0713 21.2054 13.4267 21.1032 13.7691 21.042C14.111 20.9815 14.4415 20.9593 14.7526 20.9685C15.0631 20.9777 15.3525 21.0155 15.6143 21.068C16.1374 21.1746 16.5452 21.3385 16.826 21.4575C16.9655 21.5191 17.0759 21.5662 17.1527 21.5976C17.23 21.6273 17.2771 21.6354 17.2885 21.6192V21.6203Z" fill="white"/>
</g>
<g opacity="0.7">
<path d="M14.484 26.5641C14.5148 26.5895 14.5867 26.563 14.6895 26.4905C14.7923 26.418 14.9264 26.299 15.0763 26.134C15.225 25.9685 15.3906 25.7554 15.5388 25.4893C15.687 25.2237 15.813 24.9002 15.8682 24.5394C15.9218 24.178 15.8936 23.8151 15.7833 23.5057C15.674 23.1962 15.4966 22.955 15.3159 22.7932C15.1331 22.631 14.9513 22.5466 14.8204 22.5168C14.7874 22.5098 14.7577 22.5049 14.7317 22.5028C14.7057 22.5006 14.6825 22.5022 14.6641 22.5044C14.6262 22.5093 14.6046 22.5217 14.5975 22.5401C14.5689 22.6207 14.8004 22.7516 15.0119 23.0664C15.1168 23.2227 15.2175 23.4251 15.2732 23.6598C15.3294 23.8935 15.3386 24.1678 15.2964 24.4539C15.2104 25.0311 14.9394 25.5287 14.7436 25.8977C14.6441 26.0821 14.5624 26.2352 14.5148 26.3499C14.4672 26.464 14.4537 26.5392 14.4845 26.5646L14.484 26.5641Z" fill="white"/>
</g>
<g opacity="0.7">
<path d="M9.95667 18.9552C9.99345 19.0282 10.1877 19.0071 10.4743 18.9487C10.5457 18.9335 10.6236 18.9173 10.7069 18.8994C10.7897 18.8816 10.8779 18.8621 10.9704 18.8421C11.1559 18.8037 11.3582 18.7615 11.5719 18.722C11.7856 18.6841 11.99 18.6528 12.1772 18.6241C12.2713 18.6106 12.3606 18.5976 12.4444 18.5857C12.5288 18.5727 12.6078 18.5608 12.6797 18.55C12.9686 18.504 13.1579 18.4559 13.1671 18.3747C13.1758 18.2974 12.9973 18.2006 12.6884 18.1411C12.65 18.134 12.6094 18.127 12.5667 18.1205C12.5245 18.114 12.4801 18.1102 12.4341 18.1059C12.3422 18.0962 12.2443 18.0935 12.1404 18.0918C11.9332 18.0924 11.7055 18.1108 11.4697 18.1524C11.2344 18.1957 11.0142 18.2584 10.82 18.3304C10.7232 18.3682 10.6323 18.4045 10.5495 18.4461C10.5079 18.4667 10.4679 18.4856 10.4305 18.5062C10.3932 18.5273 10.3575 18.5478 10.324 18.5678C10.0551 18.7318 9.92205 18.8848 9.95721 18.9541L9.95667 18.9552Z" fill="white"/>
</g>
<g opacity="0.7">
<path d="M3.38318 22.1309C3.42916 22.1969 3.67204 22.1142 4.0323 21.94C4.21243 21.8529 4.42285 21.7442 4.65275 21.6192C4.88372 21.4948 5.13472 21.3552 5.39653 21.206C5.65888 21.0577 5.90825 20.9138 6.13328 20.7797C6.35885 20.6461 6.56008 20.5217 6.72722 20.4119C7.06152 20.1922 7.25734 20.0267 7.22434 19.9531C7.19188 19.8812 6.93494 19.9153 6.54871 20.044C6.3556 20.1079 6.13111 20.1971 5.88661 20.3069C5.64265 20.4178 5.37976 20.5503 5.11091 20.7023C4.84207 20.8549 4.59324 21.0123 4.37308 21.1648C4.15292 21.3179 3.96143 21.4651 3.80727 21.5976C3.49839 21.8632 3.3372 22.0655 3.38264 22.1304L3.38318 22.1309Z" fill="white"/>
</g>
<path d="M16.9747 26.5644C16.9488 26.5904 16.9179 26.6131 16.8985 26.6434C16.7053 26.9398 16.4571 27.187 16.1909 27.4153C15.4969 28.0098 14.7034 28.3917 13.7924 28.5123C13.093 28.6054 12.4168 28.5064 11.7639 28.2429C11.1224 27.9844 10.5717 27.5981 10.1195 27.0729C9.9215 26.8425 9.75165 26.5931 9.61479 26.3215C9.59099 26.2739 9.56719 26.2263 9.53798 26.182C9.46982 26.0792 9.38219 26.0457 9.26373 26.077C9.22803 26.0862 9.19232 26.0998 9.16041 26.1176C8.38471 26.5374 7.56898 26.8749 6.78517 27.2774C6.70511 27.3185 6.62505 27.3607 6.54445 27.4018C6.38001 27.4862 6.21232 27.4954 6.03597 27.4369C5.76064 27.3455 5.5156 27.1989 5.28192 27.0312C4.89244 26.7521 4.54787 26.4211 4.20383 26.09C3.98584 25.8801 3.7673 25.6719 3.52983 25.4831C3.35511 25.3441 3.23502 25.1656 3.16362 24.9535C3.1263 24.8426 3.09546 24.7296 3.07653 24.6144C3.00188 24.1583 2.92291 23.7034 2.88125 23.2431C2.86611 23.0743 2.86448 22.9039 2.85204 22.7346C2.83257 22.4706 2.92885 22.2461 3.08248 22.0406C3.12034 21.9897 3.16037 21.94 3.19716 21.8886C3.24746 21.8183 3.3113 21.7625 3.38108 21.7139C4.24981 21.1123 5.12559 20.5233 6.05924 20.0251C7.02264 19.5112 8.02661 19.0963 9.0625 18.7544C9.80358 18.5099 10.5511 18.2849 11.2987 18.0604C11.7277 17.9317 12.1653 17.9116 12.6078 17.9603C13.0908 18.0139 13.556 18.1388 14.0072 18.3163C14.2046 18.3942 14.3993 18.478 14.5898 18.5732C14.6271 18.5916 14.6633 18.6165 14.7093 18.6105C14.9214 18.7322 15.1329 18.8539 15.3449 18.9757C15.3606 19.02 15.4022 19.0368 15.4369 19.0595C15.6235 19.1818 15.8042 19.3127 15.9794 19.4506C16.2807 19.6881 16.5566 19.9515 16.7919 20.255C17.0802 20.6271 17.2988 21.0382 17.4729 21.4748C17.5497 21.6668 17.6352 21.8556 17.6774 22.0601C17.705 22.1953 17.7402 22.3289 17.7683 22.4641C17.9014 23.1041 17.9327 23.7483 17.8348 24.3958C17.771 24.8167 17.679 25.2305 17.4897 25.6162C17.4762 25.6438 17.4746 25.6773 17.4675 25.7081C17.3036 25.9937 17.1392 26.2793 16.9753 26.5644H16.9747ZM16.9704 26.0116C17.1646 25.6784 17.3074 25.3246 17.4086 24.9546C17.6844 23.9414 17.6282 22.9375 17.3198 21.9411C17.262 21.755 17.1624 21.5943 17.0223 21.4585C16.8384 21.2806 16.6399 21.1215 16.4187 20.9933C15.8653 20.672 15.2654 20.5141 14.6287 20.4903C14.0229 20.4676 13.4332 20.5671 12.8528 20.7315C12.3871 20.8635 11.9365 21.0377 11.4918 21.2265C10.4408 21.6733 9.42222 22.1883 8.41176 22.7184C7.55546 23.1674 6.74081 23.6867 5.92833 24.2087C5.8434 24.2633 5.7628 24.3239 5.68274 24.385C5.62865 24.4266 5.62595 24.4434 5.64759 24.5083C5.68599 24.6241 5.73089 24.7382 5.76281 24.8556C5.94023 25.4993 6.01975 26.156 6.01704 26.8235C6.01704 26.8819 6.0138 26.9404 6.02786 26.9977C6.04571 27.0696 6.08899 27.1189 6.15498 27.1513C6.22801 27.1865 6.30104 27.1805 6.37082 27.1486C6.49631 27.0913 6.62181 27.0329 6.74244 26.9669C6.96584 26.8446 7.19195 26.7272 7.42401 26.6218C7.94601 26.3854 8.46585 26.1436 8.97216 25.8742C9.03762 25.8396 9.10686 25.8098 9.17718 25.7876C9.41465 25.7114 9.61696 25.7779 9.7695 25.9764C9.82792 26.0527 9.87174 26.1382 9.91285 26.2242C9.99074 26.3875 10.087 26.5401 10.1963 26.684C10.6604 27.2974 11.2554 27.7334 11.9765 27.9984C12.7863 28.2954 13.6053 28.3268 14.4286 28.0633C15.5396 27.708 16.3721 27.0037 16.9704 26.0116ZM16.8162 20.8695C16.8184 20.8641 16.8233 20.8581 16.8216 20.8554C16.8108 20.8316 16.8 20.8073 16.7865 20.7845C16.6653 20.5844 16.5258 20.3972 16.3683 20.2241C16.0086 19.8282 15.5872 19.5074 15.1345 19.2267C14.8911 19.0757 14.6384 18.94 14.3788 18.8177C13.9158 18.5992 13.4365 18.4336 12.9361 18.3255C12.3535 18.1994 11.7796 18.2092 11.2078 18.3958C10.5014 18.6268 9.78952 18.841 9.08252 19.0692C7.77346 19.4917 6.53093 20.0602 5.35548 20.7753C4.73828 21.1508 4.14325 21.5581 3.54768 21.9654C3.52604 21.98 3.50495 21.9973 3.48601 22.0157C3.39297 22.1055 3.37783 22.2056 3.44599 22.317C3.47628 22.3662 3.51468 22.4111 3.55471 22.4533C3.68291 22.5875 3.81328 22.7195 3.94311 22.8525C4.35854 23.2777 4.78372 23.6921 5.24297 24.0707C5.28787 24.108 5.33384 24.1443 5.38091 24.1784C5.39767 24.1908 5.42039 24.1946 5.43987 24.1784C5.60864 24.0393 5.80283 23.9393 5.98405 23.8192C6.55473 23.4405 7.13461 23.077 7.73288 22.7433C8.87912 22.1044 10.0643 21.5446 11.2565 20.9982C11.7006 20.7948 12.1572 20.6206 12.6251 20.4784C13.1249 20.3264 13.6328 20.2198 14.1554 20.1933C15.0863 20.1457 15.9616 20.3199 16.7486 20.8446C16.7681 20.8576 16.7865 20.8819 16.8162 20.8689V20.8695ZM3.20041 22.5112C3.1501 22.621 3.15334 22.7173 3.15659 22.8109C3.16254 22.9591 3.17444 23.1073 3.1885 23.255C3.23502 23.7359 3.31346 24.2119 3.41245 24.6852C3.46708 24.9476 3.59907 25.1547 3.80733 25.3186C3.87819 25.3744 3.94635 25.4339 4.01181 25.495C4.27524 25.7411 4.53651 25.9894 4.7994 26.2361C5.05472 26.4762 5.32194 26.7018 5.61892 26.8895C5.6438 26.9052 5.66814 26.9317 5.70276 26.9101C5.70601 26.8998 5.71141 26.8901 5.71141 26.8803C5.7125 26.8381 5.71304 26.7954 5.71304 26.7532C5.70979 26.2848 5.66165 25.8212 5.57132 25.3619C5.52858 25.1434 5.46962 24.9286 5.40038 24.716C5.35007 24.5608 5.25649 24.4472 5.13154 24.3525C5.04715 24.2882 4.96006 24.227 4.87946 24.1583C4.5814 23.9036 4.29147 23.639 4.01667 23.3588C3.74621 23.0835 3.47141 22.8125 3.19986 22.5112H3.20041Z" fill="#000E3F"/>
<path d="M11.7861 23.4053C12.1713 22.7454 12.69 22.3218 13.3879 22.1395C14.0299 21.9719 14.6374 22.0719 15.1778 22.4571C15.7766 22.8833 16.0904 23.4794 16.1239 24.2146C16.1461 24.7041 16.0211 25.1601 15.7809 25.5864C15.4629 26.1522 15.0112 26.5692 14.4081 26.8143C13.9683 26.9933 13.5133 27.0409 13.0509 26.9176C12.2476 26.7034 11.5768 26.05 11.447 25.1104C11.388 24.6868 11.441 24.2746 11.5779 23.8711C11.6379 23.6942 11.7229 23.5292 11.7861 23.4053ZM12.0469 23.5611C12.0036 23.6298 11.949 23.7564 11.8992 23.8851C11.7618 24.2422 11.7018 24.6105 11.7385 24.993C11.8246 25.8877 12.5083 26.5417 13.3067 26.6618C13.7205 26.724 14.11 26.6407 14.4773 26.4497C15.0523 26.1506 15.4542 25.6924 15.682 25.0871C15.835 24.6809 15.8729 24.2616 15.7701 23.8359C15.5159 22.786 14.4475 22.0974 13.3321 22.4674C12.7782 22.6513 12.3704 23.0137 12.0474 23.5617L12.0469 23.5611Z" fill="#000E3F"/>
<path d="M10.4642 19.1456C10.6876 19.2982 10.9115 19.4496 11.1339 19.6038C11.1944 19.646 11.2518 19.6936 11.308 19.7423C11.6229 20.0144 11.618 20.5537 11.2393 20.8003C11.182 20.8377 11.1209 20.8712 11.0587 20.9009C10.2851 21.2747 9.51051 21.6474 8.73644 22.0201C8.70777 22.0342 8.67856 22.0466 8.64935 22.0596C8.40376 22.164 8.17008 22.1381 7.95641 21.9828C7.81955 21.8833 7.69081 21.7718 7.56153 21.662C7.39979 21.5252 7.23968 21.3856 7.08118 21.245C7.03412 21.2028 6.98868 21.1568 6.9519 21.106C6.70686 20.7706 6.80963 20.3048 7.17476 20.1079C7.28187 20.05 7.396 20.0052 7.50851 19.9581C8.12951 19.6974 8.75104 19.4372 9.37258 19.177C9.45101 19.144 9.52782 19.1083 9.60734 19.0785C9.68686 19.0493 9.76745 19.0212 9.84968 19.0017C10.0276 18.9601 10.1975 18.9822 10.3544 19.0807C10.3901 19.1034 10.4263 19.1261 10.462 19.1489C10.4626 19.1478 10.4636 19.1467 10.4642 19.1456ZM10.376 19.4572C10.376 19.4572 10.3744 19.4594 10.3738 19.4599C10.3392 19.435 10.3035 19.4117 10.2705 19.3852C10.1542 19.2922 10.0222 19.2716 9.87997 19.2992C9.77503 19.3198 9.67658 19.3593 9.57975 19.4036C9.46886 19.4545 9.35905 19.5086 9.24653 19.5556C8.70831 19.7823 8.16954 20.0068 7.63077 20.2329C7.54746 20.2675 7.4647 20.3032 7.38302 20.3411C7.34461 20.3589 7.30729 20.38 7.27375 20.4054C7.11634 20.5272 7.03682 20.7668 7.22128 20.9626C7.25374 20.9972 7.28944 21.0291 7.32569 21.06C7.5637 21.2628 7.80657 21.4608 8.04026 21.6691C8.2166 21.8265 8.39349 21.8562 8.60715 21.7453C8.89926 21.5939 9.19948 21.4581 9.49591 21.3158C9.9649 21.0903 10.4333 20.8642 10.9018 20.6391C10.9737 20.6045 11.0446 20.5677 11.1025 20.5115C11.2437 20.3741 11.2599 20.1777 11.1436 20.0203C11.1084 19.9732 11.0657 19.9343 11.017 19.9008C10.8028 19.7531 10.5897 19.6043 10.376 19.4556V19.4572Z" fill="#000E3F"/>
</g>
<defs>
<clipPath id="clip0_4016_4279">
<rect width="30" height="30" fill="white"/>
</clipPath>
</defs>
</svg>
