<svg width="30" height="30" viewBox="0 0 30 30" fill="none" xmlns="http://www.w3.org/2000/svg">
<g clip-path="url(#clip0_4016_4286)">
<path opacity="0.25" d="M14.1905 1.69736C14.4883 2.08896 16.0462 2.17479 16.4526 2.29415C17.1892 2.51013 17.9593 2.71531 18.5527 3.22684C19.1342 3.72815 19.5394 4.56365 19.9003 5.22296C20.3726 6.08632 20.6847 7.88407 21.3281 8.54281C22.0067 9.23793 24.4814 9.26749 25.5488 9.87849C27.2255 10.8379 28.5202 12.3594 29.2801 14.1271C30.8426 17.7607 29.7996 21.8785 26.7526 24.3822C26.2763 24.7738 25.289 25.1222 24.9457 25.6303C24.5678 26.1902 24.5735 27.0637 24.1853 27.6719C23.1952 29.2224 22.4199 28.2823 21.1331 28.5102C20.459 28.6296 20.2749 29.4446 19.2808 29.1514C18.8716 29.0309 18.6437 28.5654 18.2873 28.4932C18.002 28.4352 17.7985 28.6756 17.5592 28.6677C16.5952 28.6359 16.2974 28.8439 15.421 28.3295C14.7344 27.9265 14.9634 27.1786 13.6437 27.2058C12.4655 27.2297 12.765 27.8112 12.0301 28.3767C11.3338 28.9127 10.9087 28.7188 10.1306 28.6683C9.27917 28.6126 9.97486 28.5358 9.27008 28.579C8.99954 28.5955 8.6659 28.8922 8.32147 28.9053C7.80084 28.9246 7.35979 28.3772 6.99717 28.3767C6.08948 28.375 5.49496 29.477 4.31502 28.5466C3.09303 27.5832 2.66107 24.7397 2.68835 23.317C2.7071 22.336 2.92934 21.3556 3.33743 20.4644C3.65003 19.7818 4.32241 19.2827 4.60887 18.6723C4.9084 18.034 4.67196 16.1681 4.59694 15.4099C4.47474 14.1793 4.34287 14.2458 3.1726 13.7275C1.42429 12.9534 0.501825 12.2497 0.944586 10.4361C1.4709 8.28023 1.8284 5.8476 3.31526 4.101C4.58784 2.60561 6.66069 1.72464 8.59883 1.93494C9.83049 2.0685 10.6143 2.44306 11.8869 2.20662C12.6689 2.06111 13.3913 1.69906 14.1905 1.69906V1.69736Z" fill="#000E3F"/>
<path d="M13.356 1.05569C13.6538 1.4473 15.2117 1.53313 15.6181 1.65248C16.3547 1.86846 17.1249 2.07365 17.7182 2.58518C18.2997 3.08648 18.7049 3.92199 19.0658 4.5813C19.5382 5.44465 19.8502 7.24241 20.4936 7.90115C21.1722 8.59627 23.6469 8.62582 24.7143 9.23682C26.391 10.1962 27.6858 11.7178 28.4457 13.4854C30.0081 17.119 28.9652 21.2368 25.9181 23.7405C25.4418 24.1321 24.4546 24.4805 24.1113 24.9887C23.7333 25.5485 23.739 26.4221 23.3508 27.0302C22.3607 28.5808 21.5854 27.6407 20.2986 27.8686C19.6246 27.9879 19.4404 28.803 18.4463 28.5097C18.0371 28.3892 17.8092 27.9237 17.4528 27.8515C17.1675 27.7936 16.964 28.034 16.7247 28.026C15.7608 27.9942 15.4629 28.2022 14.5865 27.6878C13.8999 27.2849 14.129 26.5369 12.8092 26.5642C11.631 26.588 11.9305 27.1695 11.1956 27.735C10.4994 28.271 10.0742 28.0772 9.29612 28.0266C8.4447 27.9709 9.14039 27.8942 8.43561 27.9374C8.16506 27.9538 7.83143 28.2505 7.487 28.2636C6.96637 28.2829 6.52531 27.7356 6.16269 27.735C5.255 27.7333 4.66049 28.8354 3.48055 27.905C2.25855 26.9416 1.82659 24.098 1.85387 22.6754C1.87263 21.6944 2.09486 20.7139 2.50295 19.8227C2.81556 19.1401 3.48794 18.6411 3.7744 18.0307C4.07393 17.3924 3.83749 15.5264 3.76246 14.7682C3.64026 13.5377 3.5084 13.6042 2.33813 13.0858C0.589818 12.3117 -0.332648 11.6081 0.110113 9.7944C0.636424 7.63857 0.993929 5.20594 2.48079 3.45933C3.75337 1.96281 5.82622 1.08127 7.76379 1.29157C8.99545 1.42514 9.77924 1.79969 11.0518 1.56325C11.8339 1.41775 12.5563 1.05569 13.3554 1.05569H13.356Z" fill="white"/>
<path d="M27.471 19.7142C27.3949 19.8956 27.3107 20.074 27.2215 20.2479C27.1988 20.2928 27.1749 20.3377 27.1516 20.3815C26.5815 21.4427 25.7801 22.36 24.8355 23.0818C24.6167 23.2495 24.3899 23.4064 24.1563 23.5519C23.0264 24.2572 21.7418 24.7006 20.4283 24.808C20.0362 24.8404 19.6411 24.8432 19.2473 24.8171C19.0739 24.8057 18.9005 24.7887 18.7278 24.7659C17.1932 24.5653 15.7126 23.9242 14.5588 22.8619C14.5156 22.8227 14.4735 22.7829 14.4314 22.742C14.3615 22.6737 14.2928 22.6044 14.2257 22.5334C13.1009 21.3466 12.4041 19.7563 12.1983 18.0995C12.1557 17.7562 12.1341 17.4106 12.1341 17.0645C12.1341 16.4603 12.2 15.8567 12.3347 15.2696C12.495 14.5733 12.7451 13.9242 13.0691 13.3292C13.0821 13.303 13.0969 13.2769 13.1111 13.2513C14.0268 11.6098 15.504 10.3816 17.1892 9.69387C17.1926 9.69273 17.196 9.69102 17.1994 9.68989C18.6885 9.084 20.3408 8.90042 21.9112 9.2261C22.0999 9.26475 22.2869 9.31135 22.4722 9.36591C23.5481 9.67738 24.57 10.2412 25.4573 11.0852C25.484 11.1108 25.5113 11.137 25.5386 11.1637C25.5948 11.2194 25.6511 11.2756 25.7062 11.333C26.6878 12.3567 27.3971 13.6151 27.7563 14.9558C27.8291 15.2235 27.8865 15.4947 27.9297 15.768C28.1371 17.0815 28.0076 18.4422 27.4704 19.7137L27.471 19.7142Z" fill="white"/>
<path d="M27.3566 19.6477C26.7314 21.1231 25.6606 22.3889 24.3318 23.2813C22.9523 24.2071 21.3137 24.7289 19.6484 24.7016C18.0797 24.676 16.519 24.1844 15.2481 23.2579C14.0016 22.3497 13.1144 21.0237 12.6518 19.5596C12.1425 17.9482 12.1283 16.18 12.6688 14.5744C13.1451 13.1586 14.0505 11.9161 15.2185 10.9908C16.4098 10.0473 17.8785 9.4346 19.3875 9.25556C21.0017 9.06402 22.6602 9.36583 24.0652 10.1951C25.4191 10.9936 26.4831 12.2469 27.1469 13.6644C27.8466 15.1587 28.087 16.8768 27.7238 18.4939C27.6329 18.8991 27.505 19.2953 27.3441 19.6783C27.3163 19.7448 27.3743 19.8227 27.4362 19.8403C27.5118 19.8619 27.5709 19.8136 27.5982 19.7483C28.278 18.125 28.3161 16.296 27.7977 14.6221C27.3231 13.0892 26.4001 11.67 25.1605 10.6452C23.8788 9.58579 22.2731 8.99639 20.6129 8.93955C18.98 8.88385 17.3368 9.33116 15.9392 10.1729C14.6638 10.9414 13.5936 12.0434 12.9007 13.3637C12.0737 14.9398 11.8288 16.7649 12.1266 18.5132C12.3897 20.0569 13.086 21.5375 14.175 22.6708C15.2782 23.8184 16.773 24.5607 18.3338 24.8369C20.0434 25.1393 21.8008 24.8829 23.365 24.1349C24.8479 23.4262 26.1329 22.294 27.0031 20.8975C27.2254 20.5406 27.4197 20.1666 27.584 19.7795C27.6118 19.7136 27.6033 19.6391 27.5368 19.5993C27.4817 19.5664 27.3839 19.5812 27.3566 19.6465V19.6477Z" fill="black"/>
<path d="M18.281 14.2206L17.649 17.0949C17.5825 17.3961 17.7274 17.7047 18.0013 17.8462L20.6022 19.1899C20.8625 19.324 21.1791 19.2774 21.3894 19.0734L23.3639 17.1557C23.5629 16.963 23.6248 16.6686 23.5208 16.4117L22.4295 13.7125C22.3124 13.4226 22.0129 13.2498 21.7037 13.293L18.8516 13.6926C18.5697 13.7318 18.3424 13.9427 18.281 14.2206Z" fill="#0D51E3"/>
<path d="M18.1541 14.1854C18.0308 14.7463 17.9074 15.3073 17.7841 15.8677C17.7119 16.1957 17.6397 16.5242 17.5675 16.8521C17.5528 16.9192 17.5369 16.9863 17.5232 17.0539C17.4738 17.2966 17.5209 17.5427 17.6744 17.7399C17.8222 17.9298 18.0563 18.0219 18.2644 18.1293C18.5912 18.2981 18.9186 18.4669 19.2454 18.6363C19.5705 18.8039 19.8956 18.9722 20.2207 19.1398C20.4452 19.2558 20.6731 19.4041 20.9351 19.3962C21.2659 19.3865 21.4694 19.1791 21.6877 18.9671C21.9463 18.7164 22.2043 18.4652 22.4629 18.2145C22.7232 17.9616 22.9836 17.7093 23.2439 17.4563C23.4519 17.254 23.6599 17.071 23.6974 16.7595C23.7287 16.5009 23.6071 16.2701 23.5133 16.0382C23.3757 15.6972 23.2376 15.3568 23.1001 15.0157C22.9631 14.677 22.8261 14.3382 22.6891 14.0001C22.5959 13.7693 22.5203 13.5079 22.322 13.3442C22.1333 13.189 21.9025 13.1333 21.6627 13.1657C21.5899 13.1754 21.5177 13.1862 21.445 13.1964C21.1062 13.2436 20.7675 13.2913 20.4287 13.3385C20.0502 13.3913 19.6717 13.4448 19.2931 13.4976C19.0976 13.5249 18.8754 13.53 18.6872 13.596C18.4201 13.6897 18.2223 13.9097 18.1558 14.1842C18.1155 14.349 18.3701 14.4195 18.4104 14.2541C18.4684 14.0148 18.6492 13.8557 18.8907 13.8176C18.9476 13.8085 19.0044 13.8017 19.0612 13.7937C19.3676 13.7505 19.6745 13.7079 19.9809 13.6653C20.5634 13.584 21.1466 13.4817 21.7314 13.4203C21.9292 13.3993 22.1429 13.4868 22.2589 13.6647C22.2975 13.7238 22.3203 13.7864 22.3475 13.8546C22.4555 14.1217 22.5635 14.3888 22.6715 14.6554C22.9074 15.2391 23.145 15.8228 23.3797 16.4071C23.4354 16.5464 23.4598 16.685 23.4138 16.8328C23.378 16.9488 23.3024 17.0318 23.2183 17.113C23.0205 17.3051 22.8227 17.4972 22.6249 17.6894C22.1867 18.1151 21.7513 18.5436 21.3103 18.9659C21.1631 19.1069 20.9607 19.1683 20.7618 19.1103C20.6942 19.0904 20.6328 19.0552 20.5703 19.0233C20.3168 18.8926 20.0633 18.7613 19.8098 18.6306C19.2442 18.3384 18.6787 18.0463 18.1132 17.7542C17.8534 17.62 17.7221 17.3802 17.7852 17.0886C17.837 16.8504 17.8898 16.6123 17.9427 16.3736C18.0882 15.7109 18.2342 15.0487 18.3798 14.386C18.3894 14.3422 18.3991 14.2979 18.4087 14.2541C18.4451 14.0887 18.1911 14.0183 18.1541 14.1842V14.1854Z" fill="black"/>
<path d="M24.8349 23.0816C24.616 23.2493 24.3893 23.4061 24.1557 23.5516C23.0257 24.257 21.7412 24.7003 20.4277 24.8077C20.0355 24.8401 19.6405 24.843 19.2466 24.8168C19.1398 24.5764 19.1819 24.2945 19.3563 24.0944L21.1655 22.0199C21.3576 21.7994 21.6702 21.7266 21.9402 21.8391L24.6433 22.9622C24.7149 22.9924 24.7792 23.0327 24.8349 23.0827V23.0816Z" fill="#0D51E3"/>
<path d="M24.7684 22.9678C23.568 23.8829 22.1266 24.4967 20.621 24.6576C20.1646 24.7065 19.7048 24.7139 19.2467 24.6849C19.2893 24.7173 19.3314 24.7497 19.374 24.7815C19.2899 24.5775 19.3087 24.3603 19.4508 24.1864C19.4763 24.1552 19.5042 24.125 19.5309 24.0949C19.6747 23.9301 19.8185 23.7653 19.9623 23.6004C20.3323 23.1764 20.7017 22.7524 21.0717 22.3278C21.1638 22.2227 21.2582 22.0863 21.3764 22.009C21.5873 21.872 21.8004 21.9226 22.0124 22.0107C22.4876 22.2079 22.9633 22.4057 23.4384 22.6029C23.7169 22.7183 23.9949 22.8343 24.2734 22.9496C24.4274 23.0133 24.6121 23.0656 24.7417 23.1753C24.8707 23.2844 25.0577 23.0986 24.9281 22.9889C24.7832 22.8661 24.6081 22.8053 24.4354 22.7337C24.1927 22.6331 23.95 22.5319 23.7078 22.4313C23.1889 22.2159 22.6694 21.9999 22.1505 21.7845C21.9493 21.7009 21.7617 21.6293 21.535 21.6685C21.2894 21.7112 21.1263 21.8652 20.9717 22.0425C20.6045 22.4637 20.2374 22.8848 19.8702 23.3054C19.6929 23.5089 19.5155 23.7118 19.3382 23.9153C19.2984 23.9608 19.2575 24.0057 19.2211 24.054C19.0495 24.2819 19.0114 24.5883 19.1205 24.8514C19.1444 24.9094 19.1836 24.9441 19.2478 24.948C20.8183 25.0481 22.3864 24.6809 23.767 23.9312C24.1637 23.7158 24.5434 23.4691 24.9026 23.1952C25.0356 23.0934 24.9043 22.8644 24.7696 22.9673L24.7684 22.9678Z" fill="black"/>
<path d="M27.4711 19.7139C27.3949 19.8953 27.3108 20.0737 27.2215 20.2476L25.9336 17.6934C25.8091 17.4461 25.8466 17.1483 26.0285 16.9392L27.7575 14.9561C27.8303 15.2238 27.8877 15.4949 27.9309 15.7683C28.1383 17.0818 28.0087 18.4425 27.4716 19.7139H27.4711Z" fill="#0D51E3"/>
<path d="M27.3566 19.6474C27.2799 19.8287 27.1963 20.006 27.1071 20.1811H27.335C26.9564 19.4303 26.5773 18.6795 26.1988 17.9286C26.1482 17.8286 26.0948 17.7303 26.0476 17.6291C25.9413 17.4023 26.001 17.1704 26.1596 16.9885C26.4495 16.6561 26.7388 16.3241 27.0286 15.9916C27.3026 15.6773 27.576 15.3636 27.8499 15.0498C27.7766 15.0305 27.7027 15.0112 27.6294 14.9919C28.0449 16.5429 27.9653 18.1941 27.3435 19.6792C27.3157 19.7457 27.3736 19.8236 27.4356 19.8412C27.5112 19.8628 27.5703 19.8145 27.5976 19.7491C28.2364 18.2231 28.3097 16.514 27.8835 14.9214C27.859 14.8304 27.7294 14.7872 27.6629 14.8634C27.1105 15.4971 26.558 16.1309 26.005 16.7652C25.8453 16.9482 25.7225 17.1477 25.7276 17.4023C25.7316 17.5882 25.8089 17.7422 25.8896 17.9025C26.1101 18.3396 26.3307 18.7766 26.5506 19.2137C26.7359 19.5809 26.9212 19.9481 27.1065 20.3152C27.1503 20.4016 27.2907 20.401 27.3344 20.3152C27.4237 20.1402 27.5072 19.9623 27.5839 19.7815C27.6118 19.7156 27.6033 19.6411 27.5368 19.6013C27.4816 19.5684 27.3839 19.5832 27.3566 19.6485V19.6474Z" fill="black"/>
<path d="M25.4578 11.0858L24.0755 11.3978C23.7709 11.4672 23.4583 11.3194 23.3173 11.0403L22.4727 9.36591C23.5486 9.67737 24.5706 10.2412 25.4578 11.0852V11.0858Z" fill="#0D51E3"/>
<path d="M25.4224 10.9584C24.962 11.0624 24.5028 11.1789 24.0401 11.2704C23.7877 11.3205 23.5502 11.1983 23.4308 10.9737C23.4018 10.9186 23.3751 10.8629 23.3467 10.8072C23.2046 10.5253 23.0619 10.2434 22.9198 9.96148C22.8084 9.74095 22.697 9.52042 22.5862 9.2999C22.5368 9.36469 22.4867 9.42892 22.4373 9.49371C23.5343 9.81427 24.5346 10.3934 25.3644 11.1789C25.4877 11.2954 25.6747 11.1096 25.5508 10.9925C24.688 10.1758 23.6479 9.57271 22.5072 9.23908C22.3907 9.20498 22.3083 9.334 22.3583 9.4329C22.6078 9.92681 22.8568 10.4213 23.1063 10.9152C23.1381 10.9789 23.1694 11.0431 23.2023 11.1062C23.3177 11.325 23.5291 11.4893 23.7747 11.5325C24.0498 11.5808 24.355 11.4705 24.6215 11.4103C24.912 11.3449 25.2024 11.279 25.4929 11.2136C25.6583 11.1761 25.5883 10.922 25.423 10.959L25.4224 10.9584Z" fill="black"/>
<path d="M17.1992 9.69006L16.865 12.1801C16.8275 12.462 16.6183 12.6911 16.3404 12.7536L13.5309 13.3885C13.3701 13.4243 13.2075 13.401 13.0688 13.3293C13.0819 13.3032 13.0967 13.2771 13.1109 13.2515C14.0266 11.61 15.5037 10.3818 17.189 9.69404C17.1924 9.6929 17.1958 9.6912 17.1992 9.69006Z" fill="#0D51E3"/>
<path d="M17.0673 9.69016C16.9582 10.5024 16.8491 11.3146 16.74 12.1268C16.7081 12.3655 16.5552 12.565 16.304 12.6264C16.2 12.6519 16.0949 12.6735 15.9903 12.6974C15.4827 12.8122 14.9752 12.927 14.4676 13.0413C14.2175 13.0975 13.9675 13.1544 13.7174 13.2107C13.5184 13.2556 13.3343 13.3113 13.1348 13.2152C13.1507 13.2754 13.1661 13.3357 13.182 13.3954C13.8481 12.1256 14.928 11.0702 16.1597 10.3489C16.5047 10.1466 16.8639 9.96867 17.2339 9.81691C17.389 9.75325 17.3208 9.49806 17.164 9.56228C15.7885 10.1255 14.5603 11.023 13.6486 12.2012C13.3906 12.5349 13.1513 12.8878 12.9552 13.2618C12.9239 13.3209 12.9359 13.4102 13.0024 13.442C13.232 13.5528 13.4525 13.5403 13.6901 13.4863C13.8936 13.4403 14.097 13.3942 14.3005 13.3482C14.8416 13.226 15.3833 13.1038 15.9244 12.981C16.0682 12.9486 16.2125 12.9168 16.3563 12.8833C16.6831 12.8071 16.9406 12.5496 16.9918 12.2137C17.0509 11.8278 17.0958 11.4396 17.1475 11.0531C17.2083 10.5984 17.2697 10.1437 17.3305 9.68846C17.3402 9.61741 17.2629 9.55717 17.1986 9.5566C17.1196 9.55603 17.0764 9.61798 17.0668 9.68846L17.0673 9.69016Z" fill="black"/>
<path d="M15.8046 18.8933L15.413 21.8102C15.3749 22.0926 15.1658 22.3211 14.8879 22.3836L14.2257 22.5331C13.1009 21.3464 12.4041 19.7561 12.1983 18.0993C12.1557 17.756 12.1341 17.4104 12.1341 17.0643C12.3046 16.983 12.5058 16.9745 12.6877 17.05L15.3909 18.1731C15.6762 18.2914 15.8456 18.5875 15.8052 18.8927L15.8046 18.8933Z" fill="#0D51E3"/>
<path d="M15.6727 18.8934L15.4624 20.4604C15.417 20.798 15.3715 21.1362 15.326 21.4738C15.2976 21.6864 15.2982 21.9092 15.1567 22.0751C15.0254 22.2292 14.8412 22.2593 14.6554 22.3013C14.5002 22.3366 14.3456 22.3712 14.1904 22.4065C14.2331 22.4179 14.2762 22.4292 14.3189 22.4406C13.2969 21.3567 12.6496 19.9596 12.391 18.4989C12.3068 18.0261 12.2671 17.5458 12.2659 17.0655L12.2006 17.1792C12.4381 17.074 12.645 17.1752 12.8599 17.2644C13.1077 17.3673 13.3555 17.4702 13.6039 17.5736C14.1398 17.7964 14.6758 18.0187 15.2118 18.2415C15.2595 18.2614 15.3084 18.279 15.355 18.3011C15.5818 18.4074 15.7006 18.6416 15.6733 18.894C15.6545 19.0622 15.9188 19.0611 15.937 18.894C15.9808 18.4933 15.7358 18.1755 15.38 18.0278C15.172 17.9414 14.9634 17.855 14.7554 17.768C14.1592 17.5202 13.5629 17.2724 12.9662 17.0252C12.8917 16.9945 12.8172 16.9626 12.7422 16.9319C12.5177 16.8404 12.287 16.8541 12.0676 16.9513C12.0266 16.9695 12.0022 17.0229 12.0022 17.0649C12.005 18.188 12.225 19.3094 12.6604 20.3456C12.865 20.8327 13.1156 21.3004 13.4146 21.7364C13.5595 21.9478 13.7153 22.1519 13.8812 22.3468C13.958 22.4377 14.0387 22.5526 14.1325 22.6264C14.1887 22.6713 14.2376 22.6645 14.3007 22.6515C14.436 22.6225 14.5712 22.5901 14.7065 22.5599C14.8168 22.5349 14.9327 22.5162 15.0379 22.4741C15.3448 22.3514 15.509 22.0802 15.5511 21.7637C15.6165 21.2783 15.6813 20.7934 15.7466 20.3081C15.8097 19.8363 15.8734 19.3651 15.9365 18.8934C15.9461 18.8223 15.8688 18.7621 15.8046 18.7615C15.7256 18.761 15.6824 18.8229 15.6727 18.8934Z" fill="black"/>
<g opacity="0.25">
<path d="M27.4703 19.714C27.3941 19.8953 27.31 20.0738 27.2208 20.2477C27.1981 20.2926 27.1742 20.3369 27.1509 20.3813C26.5808 21.4424 25.7794 22.3598 24.8348 23.081C24.616 23.2487 24.3892 23.4056 24.1556 23.5511C23.0257 24.2564 21.7411 24.7003 20.4282 24.8072C20.036 24.8396 19.641 24.8424 19.2471 24.8163C19.0738 24.8049 18.9004 24.7878 18.7276 24.7651C17.193 24.565 15.7124 23.9234 14.5586 22.8611C14.537 22.8417 14.516 22.8224 14.4955 22.8025C15.3686 22.8446 16.2547 22.7696 17.1135 22.6172C20.1469 22.079 23.0853 20.5404 24.8655 18.0259C26.0465 16.3578 26.6348 14.2372 26.4467 12.22C27.0486 13.0493 27.4948 13.9814 27.7562 14.9567C27.829 15.2244 27.8864 15.4956 27.9296 15.7689C28.137 17.0824 28.0069 18.4431 27.4703 19.7146V19.714Z" fill="#000E3F"/>
</g>
<g opacity="0.5">
<path d="M16.1559 23.9407C16.1633 23.9293 16.1138 23.8804 16.0144 23.798C15.9894 23.7776 15.9615 23.7548 15.9303 23.7298C15.9149 23.7173 15.8984 23.7048 15.8814 23.6912C15.8643 23.6781 15.8467 23.6639 15.8291 23.648C15.758 23.5866 15.6751 23.5167 15.5818 23.4388C15.5699 23.4292 15.5585 23.4195 15.5466 23.4093C15.5352 23.3985 15.5233 23.3877 15.5119 23.3769C15.4881 23.3553 15.4642 23.3331 15.4392 23.3098C15.3892 23.2643 15.3375 23.2166 15.2829 23.1671C15.255 23.1427 15.2289 23.116 15.2016 23.0887C15.1743 23.0614 15.1465 23.0336 15.1181 23.0057C15.0896 22.9773 15.0607 22.9489 15.0317 22.9193C15.0027 22.8898 14.9714 22.8614 14.943 22.8284C14.8276 22.7005 14.6997 22.5686 14.5781 22.4163C14.4502 22.2697 14.3292 22.1031 14.199 21.9309C13.9484 21.5797 13.7011 21.1761 13.4794 20.7214C13.2583 20.2667 13.0645 19.7603 12.9241 19.2113C12.852 18.9373 12.7991 18.6514 12.7565 18.3582L12.748 18.303L12.7423 18.2473C12.7383 18.2104 12.7349 18.1729 12.7309 18.1359C12.7235 18.0615 12.7156 17.9864 12.7076 17.9114C12.7036 17.8358 12.6996 17.7602 12.6962 17.6835C12.694 17.6454 12.6923 17.6073 12.69 17.5687C12.6894 17.5494 12.6877 17.5306 12.6871 17.5113V17.4533C12.6775 16.8372 12.7389 16.1983 12.8781 15.5595C13.0236 14.9224 13.2396 14.3176 13.5107 13.764L13.5351 13.7117C13.5437 13.6947 13.5533 13.6776 13.5619 13.6606C13.58 13.627 13.5982 13.5929 13.6159 13.5594C13.6517 13.4923 13.6875 13.4253 13.7233 13.3582C13.7625 13.2934 13.8011 13.2292 13.8398 13.1649C13.8591 13.1331 13.8784 13.1007 13.8978 13.0689L13.9268 13.0212L13.958 12.9751C14.1211 12.7279 14.2905 12.492 14.4724 12.2743C14.8333 11.8372 15.2238 11.4615 15.6171 11.1438C16.011 10.8267 16.4066 10.5664 16.7828 10.3555C16.9738 10.2549 17.154 10.156 17.3324 10.0776C17.5075 9.99117 17.6791 9.92694 17.8377 9.85987C17.8769 9.84225 17.9173 9.82975 17.9565 9.81554C17.9957 9.80133 18.0338 9.78769 18.0713 9.77405C18.1088 9.76041 18.1458 9.74734 18.1821 9.73426C18.2185 9.72119 18.2538 9.70755 18.289 9.69789C18.3595 9.67629 18.4271 9.65526 18.4913 9.63537C18.5237 9.62514 18.555 9.61547 18.5857 9.60581C18.601 9.6007 18.6164 9.59615 18.6312 9.5916C18.6465 9.58762 18.6613 9.58365 18.6761 9.57967C18.7937 9.54898 18.8983 9.52056 18.9887 9.49555C19.0114 9.48873 19.033 9.48361 19.054 9.47907C19.0751 9.47395 19.0955 9.4694 19.1148 9.46486C19.1535 9.45576 19.1882 9.44724 19.2194 9.43871C19.3445 9.40631 19.4098 9.38301 19.4081 9.36994C19.4064 9.35687 19.3376 9.35459 19.2075 9.36255C19.1751 9.36425 19.1387 9.3671 19.0984 9.37051C19.0785 9.37221 19.0574 9.37392 19.0353 9.37562C19.0131 9.37733 18.9904 9.3796 18.9671 9.38358C18.8727 9.39722 18.7642 9.41427 18.642 9.43473C18.6266 9.43701 18.6113 9.43985 18.5954 9.44269C18.58 9.4461 18.5641 9.44951 18.5482 9.45292C18.5163 9.45974 18.4834 9.46713 18.4498 9.47452C18.3828 9.48986 18.3123 9.50578 18.2384 9.52226C18.2015 9.52965 18.1645 9.54102 18.1264 9.55182C18.0884 9.56262 18.0497 9.57398 18.0105 9.58478C17.9713 9.59615 17.9309 9.60752 17.89 9.61945C17.8491 9.63139 17.807 9.64219 17.7655 9.65753C17.599 9.71608 17.4188 9.77348 17.2347 9.85362C17.0471 9.9258 16.8567 10.0196 16.6555 10.1162C16.2582 10.3191 15.8393 10.5749 15.421 10.8937C15.0032 11.2126 14.5866 11.5957 14.2018 12.047C14.008 12.2715 13.8262 12.5164 13.6522 12.7733L13.6193 12.8217L13.5886 12.8717C13.5681 12.9046 13.5477 12.9382 13.5266 12.9717C13.4857 13.0388 13.4442 13.1058 13.4021 13.1735C13.3641 13.2428 13.326 13.3127 13.2873 13.3832C13.268 13.4184 13.2487 13.4537 13.2299 13.4889C13.2203 13.5065 13.2106 13.5242 13.2015 13.5423L13.1754 13.5969C12.8866 14.1749 12.6576 14.8081 12.5053 15.4759C12.3592 16.1455 12.2972 16.8156 12.3126 17.4618V17.5221C12.3137 17.542 12.3154 17.5624 12.3166 17.5823C12.3188 17.6227 12.3217 17.6625 12.3239 17.7023C12.3291 17.7824 12.3336 17.8614 12.3387 17.941C12.3478 18.02 12.3563 18.0984 12.3654 18.1763C12.37 18.2155 12.3745 18.2541 12.3785 18.2928L12.3853 18.3508L12.395 18.4082C12.4433 18.7151 12.5036 19.0141 12.5837 19.2994C12.7406 19.8717 12.9543 20.3958 13.1964 20.8618C13.4391 21.3285 13.7096 21.7383 13.9825 22.0906C14.124 22.2634 14.2558 22.4294 14.3951 22.5743C14.5275 22.7249 14.6668 22.854 14.7924 22.9779C14.8231 23.0091 14.8572 23.037 14.8884 23.0654C14.9203 23.0933 14.9521 23.1211 14.9828 23.1484C15.0135 23.1751 15.0442 23.2018 15.0737 23.228C15.1033 23.2535 15.1323 23.2797 15.1624 23.3024C15.2221 23.349 15.2789 23.3933 15.3335 23.4354C15.3608 23.4564 15.3875 23.4769 15.413 23.4968C15.4261 23.507 15.4386 23.5167 15.4511 23.5263C15.4642 23.5354 15.4773 23.5445 15.4898 23.5531C15.5921 23.6235 15.683 23.6849 15.7626 23.7378C15.7819 23.7514 15.8018 23.7634 15.8211 23.7742C15.8405 23.785 15.8586 23.7958 15.8757 23.806C15.9104 23.8259 15.9422 23.8441 15.9712 23.8594C16.0854 23.9219 16.1485 23.9492 16.1559 23.9378V23.9407Z" fill="white"/>
</g>
<g opacity="0.5">
<path d="M17.9359 17.7306C17.9893 17.7351 18.0552 17.5038 18.1359 17.1304C18.2166 16.757 18.3144 16.2415 18.4309 15.6742C18.4599 15.5327 18.4889 15.394 18.5162 15.2604C18.544 15.1274 18.5713 15.0013 18.6009 14.8825C18.6304 14.7637 18.6611 14.6534 18.6941 14.5517C18.727 14.4499 18.7628 14.3584 18.7981 14.2755C18.9419 13.9458 19.1073 13.7787 19.0715 13.7332C19.0629 13.723 19.0442 13.7224 19.0141 13.7321C18.9993 13.7366 18.9811 13.744 18.9612 13.7537C18.9407 13.7634 18.9203 13.7776 18.8958 13.7935C18.8004 13.8571 18.677 13.9737 18.5616 14.1436C18.5054 14.2289 18.4497 14.3266 18.3991 14.434C18.3491 14.542 18.303 14.6597 18.2621 14.7847C18.2206 14.9098 18.1842 15.0416 18.1507 15.1775C18.1177 15.3127 18.0853 15.4531 18.0558 15.5981C17.937 16.1772 17.8796 16.7104 17.8671 17.098C17.8546 17.4856 17.8836 17.7272 17.9359 17.7317V17.7306Z" fill="white"/>
</g>
<g opacity="0.5">
<path d="M23.6687 11.2748C23.7647 11.2311 23.6806 10.8378 23.48 10.3967C23.2793 9.95509 23.0389 9.63282 22.9428 9.67659C22.8468 9.72035 22.9309 10.1137 23.1315 10.5547C23.3322 10.9963 23.5726 11.3186 23.6687 11.2748Z" fill="white"/>
</g>
<g opacity="0.5">
<path d="M15.5078 21.4017C15.5351 21.3982 15.5482 21.3204 15.5686 21.188C15.5891 21.055 15.622 20.8663 15.6783 20.6315C15.7056 20.5139 15.738 20.3843 15.7692 20.241C15.7852 20.17 15.8005 20.095 15.8147 20.0171C15.8284 19.9381 15.8414 19.8563 15.85 19.7704C15.8551 19.7278 15.8573 19.684 15.8608 19.6403C15.8619 19.5959 15.8653 19.551 15.8642 19.505C15.8653 19.4135 15.8591 19.3186 15.8465 19.222C15.8346 19.1253 15.8119 19.0259 15.78 18.927C15.7715 18.9025 15.7641 18.8775 15.7539 18.8525C15.7437 18.8281 15.7334 18.8036 15.7232 18.7786C15.6993 18.7303 15.676 18.6814 15.6465 18.6354L15.6249 18.6002C15.6175 18.5888 15.609 18.578 15.601 18.5666C15.5845 18.5445 15.5692 18.5217 15.5521 18.5007C15.5175 18.4581 15.4811 18.4188 15.4424 18.3825C15.3657 18.3097 15.2839 18.2478 15.2003 18.1955C15.0332 18.0903 14.8616 18.0221 14.7018 17.967C14.5421 17.9124 14.3927 17.8721 14.2568 17.8317C14.1204 17.7919 13.9993 17.7521 13.8919 17.7095C13.6765 17.6243 13.5208 17.5237 13.419 17.443C13.3162 17.3634 13.2627 17.3065 13.2383 17.3208C13.2269 17.3276 13.2258 17.3497 13.2349 17.389C13.24 17.4083 13.2485 17.4305 13.2599 17.4572C13.273 17.4822 13.2872 17.5123 13.3082 17.543C13.3486 17.6055 13.4071 17.676 13.485 17.7465C13.5628 17.8175 13.66 17.8874 13.7731 17.9528C13.83 17.9852 13.8902 18.0164 13.9539 18.046C14.0175 18.0756 14.084 18.104 14.1522 18.1313C14.2892 18.1864 14.4341 18.2387 14.5785 18.2972C14.7229 18.3563 14.8667 18.4228 14.9968 18.5098C15.0622 18.553 15.123 18.6019 15.1781 18.6553C15.2054 18.682 15.231 18.7104 15.2549 18.74C15.2668 18.7548 15.277 18.7707 15.289 18.786C15.2947 18.794 15.3003 18.8014 15.3055 18.8093L15.3202 18.8343C15.3413 18.8667 15.3583 18.902 15.3759 18.9366C15.3833 18.9548 15.3913 18.9724 15.3987 18.9906C15.4066 19.0082 15.4117 19.0276 15.4186 19.0458C15.4436 19.1202 15.4635 19.1964 15.4748 19.2748C15.4873 19.3527 15.4953 19.4317 15.4981 19.5101C15.501 19.5493 15.4998 19.5886 15.5004 19.6272C15.4993 19.6664 15.4998 19.7045 15.4976 19.7432C15.4947 19.8199 15.4879 19.8949 15.4811 19.9682C15.4731 20.0427 15.4646 20.1149 15.4561 20.1859C15.4385 20.328 15.4214 20.4627 15.4106 20.5878C15.3873 20.8378 15.3936 21.0476 15.4197 21.1891C15.4453 21.3312 15.4828 21.4039 15.5078 21.4005V21.4017Z" fill="white"/>
</g>
<g opacity="0.5">
<path d="M19.4704 24.2936C19.5074 24.3311 19.6677 24.2413 19.8922 24.06C20.1172 23.8786 20.4054 23.6036 20.6953 23.2739C20.9852 22.9442 21.221 22.6231 21.3722 22.377C21.5234 22.1309 21.5916 21.9604 21.5501 21.9286C21.5075 21.8962 21.3637 22.0081 21.1602 22.2082C20.9567 22.4088 20.6924 22.697 20.4077 23.021C20.1229 23.3449 19.8706 23.6439 19.6978 23.8713C19.525 24.0986 19.4324 24.2555 19.4699 24.2936H19.4704Z" fill="white"/>
</g>
<path d="M28.1786 17.5612C28.157 17.584 28.161 17.6135 28.1604 17.6414C28.1519 17.9307 28.1002 18.2143 28.0416 18.4968C27.82 19.5636 27.3658 20.527 26.7287 21.4062C25.896 22.5549 24.8406 23.4439 23.5765 24.0861C22.8893 24.4351 22.1669 24.6835 21.4116 24.8364C21.0774 24.904 20.7392 24.9489 20.3987 24.9739C20.0651 24.9989 19.7309 25.004 19.3973 24.9858C18.2997 24.9262 17.2522 24.6664 16.2633 24.1816C15.5988 23.8559 14.9935 23.4444 14.4541 22.9369C13.8386 22.3571 13.3487 21.6842 12.9627 20.9334C12.6098 20.2479 12.3625 19.5249 12.2114 18.7696C12.1443 18.4348 12.1005 18.0972 12.0721 17.7567C12.0414 17.3845 12.0397 17.0116 12.0613 16.6399C12.1289 15.4651 12.4285 14.3545 12.9855 13.3149C13.335 12.6624 13.7721 12.0747 14.2893 11.5467C15.4533 10.3571 16.8527 9.58187 18.4668 9.19026C18.8908 9.08738 19.3217 9.02259 19.757 8.98962C20.1259 8.96177 20.4948 8.95836 20.8637 8.97939C21.3951 9.01008 21.9174 9.09932 22.4312 9.23857C23.6663 9.57277 24.7382 10.1929 25.6562 11.0795C26.5451 11.9378 27.2021 12.9512 27.6506 14.101C27.866 14.6529 28.0189 15.2224 28.1087 15.8078C28.1331 15.9675 28.1587 16.1272 28.1581 16.2898C28.1581 16.3284 28.1638 16.3654 28.1775 16.4012V17.5618L28.1786 17.5612ZM21.4207 21.7126C21.4207 21.7058 21.4201 21.6984 21.419 21.6916C21.3979 21.5347 21.3792 21.3778 21.3559 21.2215C21.2922 20.7901 21.2189 20.361 21.1297 19.9342C21.099 19.7864 21.066 19.6386 21.033 19.4914C21.0194 19.4317 21.0177 19.43 20.958 19.4283C20.8216 19.4249 20.6949 19.3874 20.5727 19.3306C20.5346 19.3129 20.4965 19.2942 20.459 19.2743C19.8503 18.9594 19.2421 18.644 18.6334 18.3291C18.4367 18.2274 18.2389 18.1285 18.0423 18.0256C17.8911 17.9466 17.7564 17.8465 17.6654 17.6971C17.6427 17.6595 17.6347 17.659 17.5972 17.6783C17.5785 17.688 17.5603 17.6988 17.5421 17.7096C17.0414 17.9955 16.5492 18.2956 16.0666 18.611C16.049 18.6224 16.0319 18.6349 16.0132 18.6451C15.9853 18.661 15.9762 18.6832 15.9791 18.7156C15.991 18.8315 15.9831 18.9469 15.9626 19.0623C15.9524 19.1208 15.9467 19.1805 15.9387 19.2402C15.9006 19.5261 15.8631 19.8114 15.8245 20.0973C15.7858 20.3866 15.7461 20.6753 15.7068 20.9646C15.6693 21.2431 15.6341 21.5222 15.5954 21.8007C15.5807 21.9087 15.5511 22.0138 15.5022 22.1127C15.4585 22.2014 15.459 22.2014 15.5306 22.2679C15.5488 22.2844 15.567 22.3009 15.5852 22.3173C16.1945 22.8658 16.8794 23.2955 17.6325 23.6172C18.1349 23.8321 18.655 23.9901 19.1927 24.0907C19.233 24.0981 19.2569 24.089 19.283 24.0588C19.5359 23.7661 19.79 23.4746 20.0441 23.183C20.3697 22.809 20.696 22.4356 21.0217 22.0621C21.1263 21.9422 21.2382 21.8314 21.3832 21.7598C21.3894 21.7569 21.3957 21.753 21.4013 21.749C21.4133 21.7405 21.4207 21.7291 21.4195 21.7137L21.4207 21.7126ZM18.456 13.7799C18.4538 13.7514 18.4356 13.7395 18.4214 13.7247C18.273 13.569 18.1139 13.4258 17.9456 13.2922C17.6365 13.0455 17.3017 12.8398 16.9413 12.6761C16.8595 12.6386 16.8709 12.6323 16.8066 12.696C16.6913 12.8102 16.5526 12.8824 16.3946 12.9188C16.3161 12.937 16.2371 12.9546 16.1581 12.9722C15.3459 13.1558 14.5337 13.3394 13.7215 13.5224C13.6323 13.5423 13.5419 13.5576 13.4498 13.5571C13.3759 13.5571 13.3026 13.5565 13.2299 13.5389C13.1782 13.5264 13.1764 13.5292 13.1486 13.5798C13.1384 13.598 13.1287 13.6167 13.119 13.6355C12.9889 13.8969 12.8718 14.1635 12.7723 14.438C12.5899 14.9422 12.4626 15.4594 12.3887 15.9902C12.3512 16.2585 12.3313 16.5285 12.3159 16.7985C12.3142 16.8263 12.3148 16.8547 12.3176 16.8826C12.3182 16.89 12.3296 16.9002 12.3381 16.9025C12.3512 16.9059 12.366 16.9053 12.3796 16.9042C12.5484 16.8866 12.7058 16.9235 12.8616 16.9889C13.7045 17.3418 14.5479 17.6919 15.3925 18.0415C15.5716 18.116 15.7273 18.2183 15.8427 18.3774C15.8688 18.4132 15.8762 18.4138 15.9114 18.3927C15.9325 18.3802 15.9529 18.366 15.9734 18.353C16.4218 18.062 16.8771 17.7829 17.3409 17.5175C17.396 17.4862 17.45 17.4527 17.5057 17.4237C17.5427 17.4044 17.5529 17.3793 17.5489 17.3384C17.5381 17.2361 17.5535 17.1355 17.5756 17.0355C17.7069 16.4387 17.8377 15.8413 17.9689 15.244C18.0428 14.9075 18.1184 14.5716 18.1923 14.2357C18.227 14.0771 18.3003 13.9396 18.4146 13.8236C18.4293 13.8088 18.443 13.7929 18.4549 13.7804L18.456 13.7799ZM23.8294 16.9065C23.8152 16.9059 23.8016 16.9048 23.7874 16.9042C23.726 16.9025 23.7248 16.9019 23.7027 16.9587C23.6595 17.0719 23.5941 17.1713 23.5128 17.2606C23.4605 17.3174 23.4066 17.3731 23.3514 17.4271C22.7893 17.9733 22.2266 18.5195 21.6639 19.0651C21.5576 19.168 21.4485 19.2669 21.3167 19.3379C21.2791 19.3584 21.2786 19.3635 21.2877 19.4062C21.3303 19.6057 21.3746 19.8046 21.415 20.0041C21.494 20.3968 21.5628 20.7913 21.6173 21.1886C21.6378 21.3346 21.6571 21.4813 21.6776 21.6273C21.6844 21.6757 21.6861 21.6785 21.7361 21.6842C21.8163 21.6938 21.897 21.7012 21.9737 21.7291C22.0499 21.7564 22.126 21.7836 22.2005 21.8149C23.0059 22.1485 23.8107 22.4822 24.6149 22.8169C24.686 22.8465 24.757 22.8783 24.8241 22.917C24.8656 22.9409 24.8951 22.9386 24.9264 22.9062C24.9315 22.9011 24.9372 22.8977 24.9429 22.8931C25.817 22.1906 26.5292 21.3523 27.0663 20.3661C27.1203 20.2667 27.1197 20.286 27.0686 20.1837C26.6843 19.4209 26.2996 18.6587 25.9148 17.896C25.8386 17.7442 25.7704 17.5908 25.7704 17.4163C25.7704 17.3924 25.759 17.3771 25.7363 17.3685C25.7136 17.36 25.6908 17.3492 25.6681 17.3401C25.4169 17.239 25.16 17.1543 24.898 17.0866C24.5467 16.9957 24.1903 16.9366 23.8283 16.907L23.8294 16.9065ZM23.4782 16.6905C23.4821 16.5944 23.4452 16.4955 23.406 16.3978C23.1281 15.7106 22.8501 15.0234 22.5716 14.3357C22.4977 14.1533 22.4278 13.9691 22.3494 13.7889C22.2505 13.5599 22.0271 13.4275 21.7821 13.4513C21.6003 13.4695 21.419 13.4928 21.2382 13.5184C20.9358 13.5616 20.6335 13.6099 20.3311 13.6537C19.8753 13.719 19.4194 13.7838 18.9636 13.8452C18.6641 13.8856 18.497 14.0862 18.4481 14.3153C18.3395 14.8239 18.2253 15.3309 18.1133 15.8391C18.019 16.2682 17.9235 16.6967 17.8314 17.1264C17.7768 17.3805 17.8638 17.5828 18.0747 17.7317C18.1201 17.7641 18.1713 17.7897 18.2207 17.8153C18.9261 18.1802 19.632 18.5445 20.3374 18.9088C20.4652 18.9748 20.5926 19.043 20.7221 19.1055C20.9216 19.2015 21.1115 19.1737 21.2888 19.0475C21.3257 19.0214 21.3593 18.989 21.3917 18.9571C21.9743 18.3916 22.5568 17.8255 23.1394 17.2594C23.2048 17.1958 23.2713 17.1327 23.3332 17.0656C23.4282 16.9639 23.481 16.8445 23.4776 16.6905H23.4782ZM20.3425 9.22948C19.9884 9.23289 19.599 9.25846 19.2125 9.31587C18.6726 9.39601 18.1451 9.52844 17.6308 9.71259C17.5546 9.73987 17.4796 9.76943 17.404 9.79785C17.379 9.80751 17.3631 9.82456 17.3597 9.85127C17.358 9.86491 17.3562 9.87912 17.354 9.89333C17.3165 10.1752 17.2789 10.4577 17.242 10.7396C17.1874 11.1506 17.1334 11.5615 17.0783 11.9724C17.0641 12.0804 17.0465 12.1878 17.03 12.2953C17.0243 12.3328 16.9925 12.3709 17.0135 12.4055C17.0334 12.4379 17.0789 12.4442 17.113 12.4607C17.6711 12.7261 18.1656 13.0802 18.5981 13.5218C18.6226 13.5468 18.6476 13.5718 18.6703 13.5985C18.6942 13.6264 18.7198 13.6298 18.7544 13.6184C18.8346 13.5917 18.9176 13.5764 19.0017 13.5673C19.1205 13.5542 19.2393 13.5417 19.3575 13.5252C19.7332 13.4729 20.1089 13.4189 20.4846 13.3655C20.829 13.3172 21.1734 13.2689 21.5179 13.2206C21.6884 13.1967 21.8589 13.1671 22.0311 13.2081C22.055 13.2138 22.0709 13.2018 22.0822 13.1814C22.0959 13.1569 22.1107 13.1325 22.1249 13.1086C22.3715 12.6857 22.6512 12.2856 22.9649 11.9099C23.107 11.74 23.2554 11.5757 23.4094 11.4166C23.4355 11.3899 23.4367 11.3802 23.4105 11.3558C23.3145 11.2642 23.252 11.1517 23.1934 11.0346C22.9541 10.5572 22.7131 10.0809 22.4722 9.60403C22.4142 9.48922 22.4426 9.5165 22.3181 9.48354C21.6833 9.31473 21.0359 9.2363 20.343 9.23061L20.3425 9.22948ZM22.3164 13.3314C22.3647 13.3712 22.4165 13.4138 22.4591 13.4655C22.5313 13.5536 22.5836 13.6525 22.6267 13.7571C22.6671 13.8543 22.7035 13.9532 22.7433 14.051C23.0036 14.6961 23.2645 15.3406 23.5253 15.9857C23.5782 16.1159 23.6311 16.246 23.6834 16.3767C23.7118 16.4489 23.7265 16.5251 23.7425 16.6007C23.7464 16.6194 23.7567 16.6319 23.7771 16.6336C23.7948 16.6348 23.8124 16.6359 23.8294 16.6382C24.0073 16.6592 24.1864 16.6746 24.3631 16.703C24.8366 16.778 25.2964 16.9053 25.742 17.0827C25.7704 17.094 25.7994 17.1031 25.8335 17.1151C25.9045 16.9605 26.0103 16.8377 26.1165 16.7161C26.5997 16.1625 27.0828 15.6089 27.5648 15.0547C27.5943 15.0206 27.6403 14.9916 27.6449 14.9467C27.6489 14.9075 27.6284 14.8654 27.617 14.8251C27.301 13.76 26.785 12.8005 26.0853 11.9389C25.9102 11.7229 25.7215 11.5194 25.5254 11.3222C25.4851 11.2819 25.4459 11.2631 25.3856 11.2773C25.1225 11.3404 24.8587 11.3989 24.595 11.4598C24.4478 11.4939 24.3034 11.5388 24.1534 11.5598C24.017 11.5791 23.8794 11.5871 23.7459 11.5456C23.6941 11.5297 23.6583 11.5365 23.6271 11.5774C23.6208 11.5859 23.6123 11.5922 23.6049 11.6001C23.1224 12.0969 22.7052 12.6431 22.3568 13.2416C22.3414 13.2683 22.3193 13.2928 22.317 13.3331L22.3164 13.3314ZM12.3199 17.4771C12.3284 17.6988 12.35 17.9193 12.3779 18.1387C12.4336 18.5752 12.5234 19.0043 12.649 19.4266C12.907 20.2968 13.2958 21.1033 13.8363 21.8348C13.9699 22.0161 14.1131 22.1895 14.2626 22.3577C14.299 22.3992 14.3314 22.4151 14.3894 22.4003C14.5286 22.364 14.6707 22.3378 14.8105 22.3043C14.8753 22.2889 14.9395 22.2696 15.0015 22.2446C15.151 22.1849 15.2493 22.0752 15.3005 21.9235C15.3141 21.8837 15.3243 21.8422 15.3306 21.8007C15.3493 21.6722 15.3658 21.5432 15.3829 21.4142C15.4136 21.1846 15.4448 20.9544 15.4755 20.7248C15.5136 20.4395 15.5517 20.1536 15.5898 19.8682C15.6324 19.5477 15.679 19.2277 15.7176 18.9071C15.7381 18.7343 15.6852 18.5809 15.5664 18.4519C15.5005 18.3802 15.417 18.337 15.3283 18.3001C14.877 18.1137 14.4257 17.9261 13.975 17.7391C13.5891 17.5788 13.2026 17.4186 12.8167 17.2583C12.7257 17.2202 12.6337 17.1861 12.5359 17.1708C12.4762 17.1617 12.4171 17.1605 12.358 17.1764C12.3193 17.1867 12.3137 17.1923 12.3142 17.2355C12.3154 17.3163 12.3188 17.397 12.321 17.4777L12.3199 17.4771ZM24.6348 23.1244C24.6041 23.0875 24.5689 23.0795 24.537 23.0665C24.4558 23.0335 24.3734 23.0022 24.2926 22.9687C23.9391 22.8221 23.5856 22.6754 23.2321 22.5288C22.8461 22.3685 22.4602 22.2088 22.0743 22.0485C21.9868 22.0121 21.8981 21.9803 21.8037 21.9638C21.6446 21.9354 21.5048 21.9746 21.3792 22.0729C21.3235 22.1167 21.2774 22.1696 21.232 22.223C21.1751 22.2901 21.1194 22.3577 21.062 22.4242C20.6971 22.8431 20.3322 23.2614 19.9673 23.6797C19.8196 23.8491 19.6718 24.0191 19.5234 24.1879C19.416 24.3101 19.3632 24.4499 19.3757 24.6136C19.3831 24.7153 19.3831 24.7153 19.4865 24.7221C19.8343 24.7443 20.1816 24.7278 20.5289 24.6988C20.908 24.6676 21.2814 24.605 21.6509 24.5158C22.7046 24.2606 23.6697 23.8099 24.5552 23.1864C24.5808 23.1682 24.6052 23.1489 24.6365 23.125L24.6348 23.1244ZM17.0789 9.94733C17.055 9.95017 17.0476 9.9496 17.0414 9.95187C17.0152 9.96267 16.9896 9.97404 16.9641 9.98541C16.0058 10.427 15.1555 11.0221 14.4229 11.7832C14.0165 12.2055 13.663 12.6676 13.3686 13.1745C13.3526 13.2018 13.3373 13.2297 13.3248 13.2587C13.3191 13.2723 13.3259 13.2871 13.343 13.2905C13.36 13.2939 13.3777 13.2956 13.3953 13.2967C13.4805 13.3013 13.5629 13.2842 13.6454 13.2655C14.2893 13.1205 14.9333 12.975 15.5772 12.8301C15.8239 12.7744 16.0706 12.7198 16.3173 12.663C16.5872 12.5999 16.7475 12.4209 16.785 12.1452C16.7941 12.0753 16.8038 12.006 16.8129 11.9361C16.8521 11.6473 16.8913 11.358 16.9305 11.0693C16.9703 10.7732 17.0107 10.4776 17.0499 10.1815C17.0601 10.1053 17.0687 10.0292 17.0789 9.94733ZM27.2584 19.9643C27.3766 19.787 27.6 19.1799 27.7108 18.7412C27.9296 17.8761 27.9808 17.0008 27.883 16.1147C27.8518 15.8322 27.7716 15.3861 27.7273 15.2906C27.6972 15.2974 27.6835 15.3247 27.6654 15.3451C27.1845 15.8959 26.7042 16.4472 26.2234 16.9985C26.1865 17.0412 26.1512 17.0849 26.1234 17.1338C26.0256 17.3043 26.0137 17.4794 26.0949 17.659C26.1137 17.7005 26.1347 17.7414 26.1552 17.7823C26.4638 18.3939 26.773 19.0055 27.0822 19.617C27.139 19.7296 27.1965 19.8421 27.2584 19.9643ZM15.2737 22.4037C15.2635 22.4094 15.2504 22.4145 15.2396 22.4219C15.1424 22.4884 15.0339 22.5276 14.9202 22.5538C14.8759 22.564 14.831 22.5725 14.7861 22.5828C14.7173 22.5981 14.6491 22.6135 14.5809 22.6294C14.5587 22.6345 14.5525 22.6521 14.5667 22.668C14.5781 22.6811 14.5911 22.6936 14.6036 22.7055C14.7633 22.859 14.9299 23.0051 15.1044 23.1415C15.8415 23.7172 16.6617 24.1299 17.5563 24.3987C18.0286 24.5408 18.5106 24.634 19.0005 24.688C19.025 24.6909 19.0494 24.692 19.0739 24.692C19.0949 24.692 19.1051 24.6784 19.1046 24.6585C19.1046 24.5743 19.0994 24.4902 19.1188 24.4067C19.1307 24.3561 19.1227 24.3493 19.0682 24.3373C18.9517 24.3118 18.834 24.2896 18.7186 24.2606C17.446 23.9423 16.3229 23.3444 15.351 22.4634C15.3277 22.4424 15.3078 22.4168 15.2743 22.4037H15.2737ZM23.9903 11.3126C24.0374 11.3046 24.1 11.2961 24.1614 11.2824C24.4666 11.2148 24.7718 11.1466 25.0764 11.0761C25.1162 11.067 25.1611 11.0687 25.1952 11.0386C25.1878 10.9874 25.1412 10.9698 25.1083 10.9425C24.6291 10.535 24.1045 10.1963 23.5361 9.9263C23.3298 9.82797 23.119 9.73987 22.9035 9.66314C22.8768 9.65348 22.8507 9.64439 22.824 9.63586C22.8183 9.63415 22.8098 9.63586 22.8052 9.63984C22.8012 9.64382 22.7984 9.65291 22.8001 9.65803C22.8075 9.67792 22.8166 9.69668 22.8262 9.71543C23.032 10.1235 23.2377 10.5316 23.4441 10.9391C23.4662 10.9829 23.489 11.0272 23.5168 11.067C23.6277 11.2245 23.7817 11.3029 23.9891 11.3126H23.9903Z" fill="#000E3F"/>
<path d="M12.8667 2.01455C14.0818 2.21291 15.3891 2.54257 16.5236 3.01602C16.6975 3.08877 16.8458 3.2104 16.9532 3.365C18.3031 5.31281 19.3603 7.64142 19.7445 9.98538C19.8127 10.4014 19.6104 10.8158 19.2387 11.0141C18.435 11.4444 17.55 11.7416 16.6503 11.9133C16.17 12.0048 15.8273 12.4305 15.8466 12.9193C15.941 15.2843 16.1126 17.884 16.2064 20.2473C16.2257 20.7407 15.8767 21.1743 15.3897 21.2556C12.0726 21.8092 8.69766 21.6728 5.41475 20.9288C4.97085 20.8282 4.65313 20.4366 4.64688 19.9813C4.61676 17.8562 4.54969 15.6418 4.5207 13.5184C4.51502 13.1069 4.25414 12.7448 3.86708 12.605C2.9969 12.2901 2.12332 11.8701 1.28724 11.4546C0.85585 11.2403 0.644984 10.7459 0.783666 10.2843C1.094 9.25105 1.27929 8.1791 1.55836 7.135C1.90904 5.8232 2.4399 4.50458 3.43512 3.58041C4.37009 2.71251 5.6313 2.27714 6.90104 2.10663C7.08462 2.08219 7.27105 2.11117 7.43872 2.18961C8.88579 2.86256 10.8319 2.66761 12.3386 2.07252C12.5063 2.00659 12.6876 1.985 12.8655 2.01398L12.8667 2.01455Z" fill="white"/>
<g opacity="0.25">
<path d="M5.55681 7.77957C5.44257 10.4941 5.32775 13.2155 4.91398 15.901C4.8418 16.3711 4.75541 16.8519 4.59626 17.2981C4.56841 16.0312 4.53829 14.7597 4.52124 13.519C4.51555 13.108 4.25467 12.7454 3.86761 12.6056C3.60104 12.5096 3.33448 12.4027 3.06848 12.2896C4.21261 10.9903 5.07028 9.44035 5.55681 7.78014V7.77957Z" fill="#000E3F"/>
</g>
<g opacity="0.25">
<path d="M19.2394 11.0145C18.4358 11.4448 17.5508 11.742 16.6511 11.9137C16.1708 12.0052 15.8281 12.4315 15.8474 12.9197C15.9418 15.2852 16.1134 17.8844 16.2072 20.2477C16.2265 20.741 15.8775 21.1753 15.3904 21.2565C12.0734 21.8101 8.69844 21.6737 5.41496 20.9292C5.29106 20.9013 5.17738 20.8502 5.07678 20.7814C7.37243 21.0769 9.73629 20.8019 11.8199 19.8146C13.0169 19.2474 14.1673 18.3766 14.5976 17.1234C15.1699 15.4558 14.3287 13.5978 14.6874 11.8722C14.8238 11.2163 15.1284 10.6087 15.3296 9.96984C15.5303 9.33099 15.6212 8.61314 15.3347 8.00783C15.6616 8.47503 15.7673 9.05818 15.9975 9.57994C16.2282 10.1011 16.6755 10.6104 17.2456 10.6007C18.022 10.5871 18.4386 9.67088 18.5108 8.8979C18.6773 7.11378 18.0328 5.39389 17.224 3.76721C18.4437 5.62919 19.3867 7.80094 19.7447 9.98576C19.8129 10.4012 19.6106 10.8156 19.2389 11.0145H19.2394Z" fill="#000E3F"/>
</g>
<path d="M16.2076 20.2471C16.2269 20.7405 15.878 21.1747 15.3909 21.2554C12.0738 21.8096 8.69943 21.6726 5.41595 20.9281C4.97206 20.8275 4.65491 20.4364 4.64809 19.9806C4.64524 19.7447 4.6407 19.5071 4.63672 19.269C8.30669 20.595 12.4507 20.6552 16.1752 19.4833C16.1871 19.7402 16.1974 19.9942 16.2076 20.246V20.2471Z" fill="#915EFD"/>
<path d="M12.2262 11.3745C12.2024 11.4313 12.1762 11.487 12.1478 11.5422C12.1404 11.5564 12.133 11.57 12.1256 11.5842C11.9466 11.9173 11.6954 12.2049 11.3993 12.4311C11.3305 12.484 11.2594 12.5328 11.1861 12.5783C10.8315 12.7994 10.429 12.9387 10.017 12.9722C9.89421 12.9824 9.76974 12.983 9.6464 12.975C9.59184 12.9716 9.53784 12.9659 9.48328 12.9591C9.00187 12.896 8.53751 12.6948 8.17546 12.3618C8.16182 12.3493 8.14874 12.3368 8.13567 12.3243C8.11351 12.3027 8.09191 12.2811 8.07145 12.2589C7.71849 11.8866 7.50023 11.3881 7.43544 10.8681C7.4218 10.7601 7.41498 10.6521 7.41498 10.5435C7.41498 10.3543 7.43544 10.165 7.47807 9.98086C7.52808 9.7626 7.60652 9.55856 7.70826 9.37213C7.71224 9.36418 7.71678 9.35565 7.72133 9.34769C8.00836 8.83275 8.47158 8.44739 9.00016 8.23198C9.0013 8.23198 9.00244 8.23085 9.00357 8.23085C9.47078 8.04101 9.98856 7.98304 10.4813 8.08534C10.5404 8.09728 10.599 8.11206 10.6575 8.12911C10.9951 8.22687 11.3157 8.40363 11.5936 8.66849C11.6022 8.67645 11.6107 8.68441 11.6192 8.69293C11.6368 8.71055 11.6545 8.72817 11.6721 8.74636C11.9801 9.06749 12.2024 9.46194 12.3149 9.88253C12.3376 9.96665 12.3558 10.0513 12.3695 10.1372C12.4348 10.5492 12.3939 10.9761 12.2257 11.3745H12.2262Z" fill="#915EFD"/>
<path d="M13.6618 2.16171C13.4754 2.93242 13.0661 3.64971 12.4739 4.17829C11.394 5.14282 9.75766 5.43325 8.41176 4.89955C7.27729 4.4494 6.39404 3.43145 6.07007 2.2589C6.34402 2.19411 6.62309 2.14409 6.90159 2.10658C7.02038 2.09067 7.14031 2.09749 7.25569 2.1259C7.40517 2.59424 7.69618 3.01313 8.06619 3.31437C8.57488 3.72814 9.22055 3.92821 9.8594 3.9356C10.8023 3.9464 11.7674 3.51784 12.3364 2.71303C12.4881 2.49876 12.6069 2.2572 12.6899 2.002C12.749 2.00029 12.8075 2.00427 12.8661 2.0145C13.1281 2.05713 13.3941 2.10601 13.6618 2.16171Z" fill="#915EFD"/>
<g opacity="0.7">
<path d="M12.9231 2.34765C12.9043 2.33856 12.8736 2.35334 12.8332 2.38744C12.8134 2.40449 12.7906 2.42666 12.7662 2.45337C12.7537 2.46701 12.7412 2.48122 12.7275 2.49713C12.7139 2.51248 12.698 2.52783 12.6821 2.54488C12.6502 2.57898 12.6161 2.61649 12.5803 2.65855C12.5428 2.69947 12.4996 2.74153 12.4564 2.78814C12.4144 2.83588 12.3615 2.88078 12.3109 2.9308C12.2609 2.98195 12.2012 3.0297 12.1415 3.08142C12.1268 3.09449 12.1114 3.10756 12.0961 3.12064C12.0807 3.13371 12.0637 3.14564 12.0472 3.15815C12.0142 3.18316 11.9807 3.20873 11.9466 3.23488C11.9136 3.26216 11.8755 3.2849 11.8392 3.3099C11.8022 3.33434 11.7653 3.36106 11.7266 3.3855C11.6868 3.4088 11.6471 3.43267 11.6061 3.45711C11.5857 3.46905 11.5658 3.48212 11.5448 3.49349C11.5232 3.50429 11.5016 3.51565 11.48 3.52645C11.4362 3.54862 11.393 3.57249 11.3481 3.59409C11.3026 3.61455 11.256 3.63501 11.2088 3.65547C11.1628 3.67821 11.1134 3.69355 11.0645 3.71231C11.015 3.72993 10.9667 3.75096 10.915 3.7646C10.8638 3.77995 10.8127 3.79586 10.7604 3.81121C10.7075 3.82314 10.6541 3.83565 10.6007 3.84815C10.3847 3.89248 10.1585 3.91806 9.9266 3.91692C9.69527 3.91124 9.46963 3.87941 9.25479 3.82883C9.20136 3.81519 9.1485 3.80098 9.09621 3.78734C9.04449 3.77028 8.99334 3.75323 8.94332 3.73618C8.89217 3.7214 8.84385 3.69867 8.79554 3.67991C8.74723 3.66002 8.69778 3.64297 8.65288 3.6191C8.60628 3.59693 8.56081 3.57533 8.5159 3.55373C8.47157 3.531 8.42894 3.50542 8.38575 3.48212C8.36415 3.47018 8.34312 3.45882 8.32209 3.44688C8.30106 3.43495 8.28174 3.4213 8.26127 3.4088C8.22092 3.38322 8.1817 3.35822 8.14249 3.33378C8.1044 3.3082 8.0686 3.28035 8.03222 3.25477C7.99641 3.22806 7.9589 3.20476 7.92707 3.17634C7.89354 3.14905 7.86114 3.12291 7.82874 3.09676C7.81283 3.08369 7.79635 3.07119 7.781 3.05812C7.76622 3.04447 7.75145 3.03083 7.73667 3.01776C7.67869 2.96433 7.62015 2.91489 7.57127 2.8626C7.52182 2.81087 7.4701 2.76484 7.42975 2.71596C7.38769 2.66821 7.34563 2.62445 7.30925 2.58296C7.27458 2.54033 7.24162 2.50111 7.21093 2.46644C7.19558 2.44882 7.18023 2.43291 7.16659 2.41699C7.15352 2.40108 7.14102 2.3863 7.12965 2.37209C7.10578 2.34481 7.08418 2.32208 7.06429 2.30389C7.02507 2.26865 6.99494 2.2533 6.97562 2.26183C6.95629 2.27035 6.94891 2.30218 6.95288 2.35618C6.95516 2.38346 6.95971 2.41586 6.96766 2.45394C6.97164 2.47269 6.97619 2.49316 6.9813 2.51475C6.98699 2.53635 6.99551 2.55795 7.00347 2.58125C7.01995 2.62786 7.03985 2.67958 7.06315 2.73642C7.08759 2.79212 7.11942 2.84952 7.15238 2.91261C7.18364 2.97684 7.22741 3.03879 7.27117 3.107C7.3138 3.17634 7.3678 3.24227 7.4235 3.31331C7.4377 3.33093 7.45191 3.34912 7.46612 3.36674C7.4809 3.38436 7.49682 3.40141 7.51273 3.41846C7.54513 3.45313 7.57752 3.48837 7.61106 3.52475C7.64402 3.56169 7.6821 3.59409 7.71962 3.6299C7.7577 3.66457 7.79521 3.70094 7.83613 3.73561C7.87819 3.76858 7.92025 3.80268 7.96345 3.83678C7.98505 3.85383 8.00664 3.87145 8.02938 3.88794C8.05268 3.90385 8.07599 3.91977 8.09929 3.93568C8.14646 3.96694 8.19421 4.00047 8.24422 4.03173C8.29538 4.06072 8.3471 4.09028 8.39939 4.1204C8.45111 4.15166 8.50738 4.1761 8.56308 4.20338C8.61935 4.22953 8.67505 4.25851 8.73473 4.28011C8.79384 4.30285 8.85408 4.32615 8.91433 4.34945C8.97628 4.36821 9.03937 4.38753 9.10246 4.40629C9.35823 4.4762 9.63218 4.51996 9.91637 4.52622C10.2006 4.52849 10.4756 4.49211 10.7331 4.42959C10.7968 4.41197 10.8604 4.39492 10.923 4.37787C10.9843 4.35627 11.0446 4.33524 11.1048 4.31365C11.1651 4.29375 11.2219 4.26647 11.2788 4.24203C11.335 4.21645 11.3924 4.19372 11.4447 4.16416C11.4981 4.13575 11.5504 4.1079 11.6022 4.08005C11.6527 4.05049 11.7011 4.01866 11.7494 3.98854C11.7732 3.97319 11.7971 3.95785 11.821 3.94307C11.8443 3.92715 11.8664 3.9101 11.8886 3.89419C11.9329 3.86122 11.9761 3.82883 12.0188 3.797C12.0603 3.76346 12.0995 3.72822 12.1381 3.69469C12.1762 3.66059 12.216 3.62933 12.2495 3.59295C12.2842 3.55771 12.3177 3.52304 12.3513 3.48951C12.3678 3.47246 12.3842 3.45654 12.3996 3.43892C12.4144 3.4213 12.4291 3.40368 12.4439 3.38663C12.5013 3.31729 12.5576 3.25307 12.6019 3.18486C12.6474 3.11779 12.6929 3.05755 12.7264 2.99389C12.7611 2.93194 12.794 2.8751 12.8202 2.81997C12.8446 2.76427 12.8662 2.71311 12.8838 2.66651C12.8924 2.64321 12.9015 2.62161 12.9077 2.60058C12.9134 2.57898 12.9191 2.55909 12.9231 2.54033C12.9321 2.50282 12.9378 2.47042 12.9407 2.44314C12.9464 2.38914 12.9401 2.35731 12.9208 2.34822L12.9231 2.34765Z" fill="white"/>
</g>
<g opacity="0.7">
<path d="M15.7165 20.166C15.6966 20.0802 15.0731 20.1592 14.0739 20.2586C13.5737 20.3041 12.9792 20.3558 12.3182 20.3877C11.6578 20.4201 10.9308 20.4331 10.1686 20.4132C9.40645 20.3939 8.68121 20.3439 8.02361 20.2785C7.85935 20.2609 7.6985 20.2439 7.54277 20.2274C7.38703 20.2081 7.23585 20.1899 7.08977 20.1717C6.79763 20.1359 6.5305 20.0949 6.28951 20.0483C6.04909 20.0012 5.83595 19.9466 5.6518 19.8886C5.46764 19.8307 5.31362 19.7681 5.18744 19.7141C4.93792 19.6022 4.79981 19.5232 4.77025 19.5567C4.74411 19.5857 4.83221 19.7283 5.0641 19.9159C5.18118 20.0074 5.33351 20.108 5.52221 20.2024C5.71034 20.2973 5.93314 20.3865 6.18322 20.4644C6.43331 20.5417 6.71067 20.6093 7.00622 20.6684C7.154 20.6969 7.30746 20.7258 7.4649 20.756C7.62291 20.7827 7.7866 20.8077 7.95427 20.8338C8.62551 20.9316 9.36951 21.0004 10.1527 21.0203C10.9359 21.0407 11.6828 21.01 12.3574 20.9458C13.0327 20.8821 13.6357 20.7844 14.1376 20.6832C15.1407 20.4712 15.7341 20.2427 15.7154 20.1654L15.7165 20.166Z" fill="white"/>
</g>
<path d="M19.9635 10.4015C19.9436 10.4152 19.9368 10.4356 19.9339 10.4584C19.9061 10.6988 19.7793 10.8846 19.6071 11.0438C19.5037 11.1393 19.3849 11.2126 19.2593 11.274C18.5193 11.6338 17.7525 11.9179 16.9415 12.072C16.8369 12.0919 16.7329 12.1123 16.6334 12.1493C16.3441 12.2578 16.1656 12.4602 16.1077 12.7677C16.0719 12.9564 16.0809 13.1456 16.0895 13.3349C16.1077 13.7362 16.127 14.1374 16.148 14.5387C16.1764 15.0849 16.206 15.6305 16.2355 16.1767C16.248 16.4109 16.2617 16.6445 16.2736 16.8787C16.3009 17.4249 16.3276 17.9705 16.3543 18.5167C16.3759 18.9566 16.397 19.3971 16.4186 19.8376C16.4259 19.9882 16.4367 20.1383 16.4413 20.2889C16.4447 20.4122 16.4271 20.5344 16.3907 20.6521C16.2736 21.0295 16.0304 21.287 15.6564 21.4183C15.5137 21.4683 15.3648 21.4944 15.2153 21.5132C14.7674 21.57 14.319 21.6286 13.87 21.6746C13.5148 21.711 13.1584 21.7326 12.802 21.7564C12.033 21.8087 11.2629 21.8036 10.4933 21.7849C10.0136 21.7735 9.53502 21.7388 9.05702 21.6968C8.61767 21.6581 8.18003 21.6081 7.74352 21.549C6.99156 21.4467 6.24529 21.3125 5.50584 21.1432C5.39728 21.1182 5.28929 21.0869 5.18983 21.0352C4.81243 20.8397 4.61066 20.5236 4.56462 20.1059C4.55098 19.9843 4.54416 19.8609 4.547 19.7382C4.55837 19.1465 4.53165 18.5559 4.52199 17.9648C4.50324 16.8048 4.47595 15.6448 4.45095 14.4847C4.44697 14.3119 4.4464 14.1391 4.45095 13.9664C4.45606 13.7708 4.44583 13.5759 4.39979 13.3843C4.34125 13.1428 4.20484 12.9615 3.98431 12.8455C3.90531 12.804 3.8246 12.7654 3.74048 12.7364C3.08515 12.5102 2.46108 12.2129 1.83758 11.914C1.70685 11.8514 1.57613 11.7889 1.44597 11.7253C1.38572 11.6957 1.32661 11.665 1.2675 11.6332C0.750852 11.353 0.575226 10.8238 0.700267 10.3095C0.776429 9.99515 0.869642 9.68538 0.945803 9.37107C1.08335 8.80213 1.2118 8.23092 1.34707 7.66141C1.49826 7.02654 1.67673 6.39906 1.91772 5.79147C2.11608 5.29188 2.3582 4.81615 2.66342 4.37282C3.2909 3.46115 4.13323 2.82742 5.16425 2.43695C5.68772 2.23916 6.22881 2.10616 6.77899 2.01067C6.92222 1.98566 7.06772 1.98453 7.21323 1.99078C7.36157 1.9976 7.49457 2.05898 7.627 2.11525C7.89982 2.2312 8.18003 2.32271 8.4699 2.38466C9.00303 2.49833 9.54241 2.52391 10.0846 2.4864C10.8298 2.43411 11.5522 2.27553 12.2496 2.00954C12.5735 1.88563 12.8998 1.86915 13.2357 1.93849C14.1098 2.11923 14.9812 2.3102 15.8258 2.60348C16.073 2.68931 16.318 2.78252 16.5635 2.87516C16.8386 2.97861 17.0529 3.15594 17.2177 3.40091C18.2618 4.95199 19.0871 6.60709 19.6105 8.40712C19.7288 8.81407 19.8305 9.22557 19.9067 9.64276C19.9174 9.703 19.9237 9.76382 19.9322 9.82463C19.9373 9.86272 19.9322 9.90364 19.9641 9.93376V10.4027L19.9635 10.4015ZM16.3964 11.8884C16.4214 11.8998 16.4419 11.8884 16.4618 11.8804C16.6181 11.8185 16.7806 11.7781 16.9443 11.7457C17.6928 11.5957 18.4039 11.3393 19.0859 11C19.1808 10.9528 19.2735 10.9017 19.357 10.8352C19.552 10.68 19.6532 10.4771 19.6634 10.2287C19.6668 10.1395 19.6583 10.0508 19.6435 9.96275C19.5264 9.28582 19.3548 8.62253 19.1416 7.96947C18.6341 6.41555 17.8815 4.98268 16.9869 3.6203C16.834 3.38727 16.6277 3.23096 16.3674 3.13377C15.6558 2.86891 14.9334 2.64213 14.1934 2.47048C14.1013 2.44889 14.0087 2.42729 13.916 2.40796C13.8649 2.39716 13.8501 2.4074 13.8302 2.46139C13.7984 2.55062 13.7705 2.641 13.737 2.72966C13.4284 3.54698 12.9293 4.21709 12.1905 4.69281C11.3902 5.20833 10.5126 5.42658 9.5623 5.35497C9.0843 5.31859 8.62677 5.20264 8.19651 4.99178C7.19333 4.50014 6.50504 3.7192 6.09865 2.68362C6.08217 2.64213 6.0691 2.5995 6.05261 2.55801C6.03272 2.50913 6.0151 2.50004 5.96224 2.51425C5.67635 2.59098 5.39671 2.68419 5.12333 2.79787C4.03888 3.24915 3.20337 3.97951 2.63443 5.01053C2.41561 5.40726 2.23544 5.82046 2.08425 6.24674C1.85974 6.8782 1.69889 7.52728 1.54941 8.17977C1.41869 8.75041 1.29592 9.32276 1.14587 9.88886C1.09756 10.0719 1.04641 10.2543 0.999799 10.4385C0.96797 10.5647 0.966265 10.692 0.99923 10.8193C1.05664 11.0409 1.18281 11.2132 1.37947 11.328C1.54316 11.4235 1.70913 11.5167 1.8802 11.5974C2.52587 11.9009 3.17723 12.1925 3.84449 12.4471C3.94339 12.4846 4.03945 12.5301 4.13721 12.571C4.19347 12.5943 4.24349 12.6631 4.29862 12.6477C4.36626 12.629 4.36455 12.5397 4.38672 12.4801C4.86586 11.1722 5.21313 9.83089 5.40524 8.45031C5.42343 8.31788 5.44389 8.18545 5.46151 8.05302C5.47117 7.97857 5.51153 7.93082 5.58087 7.90638C5.68488 7.86944 5.77525 7.93082 5.77354 8.04109C5.77298 8.10247 5.76616 8.16385 5.75763 8.2241C5.73035 8.41735 5.70136 8.61003 5.67124 8.80327C5.51721 9.79678 5.28361 10.7715 4.98067 11.7304C4.86131 12.1078 4.72945 12.4812 4.58735 12.8506C4.56576 12.9075 4.56348 12.9541 4.59417 13.0081C4.66693 13.1354 4.70671 13.2758 4.72433 13.4201C4.74081 13.5526 4.75161 13.6867 4.75502 13.8203C4.76753 14.3335 4.77492 14.8462 4.78572 15.3594C4.81016 16.5695 4.8346 17.7796 4.86188 18.9902C4.86756 19.2408 4.81811 19.188 5.07104 19.2738C6.78468 19.8552 8.54833 20.1553 10.3557 20.2019C11.2384 20.2247 12.1177 20.1752 12.9941 20.0701C13.5756 20.0002 14.1525 19.9001 14.7242 19.7723C15.1431 19.6785 15.5592 19.5739 15.9695 19.4472C16.0787 19.4136 16.0809 19.4119 16.0764 19.296C16.0639 18.9953 16.0491 18.6941 16.0338 18.3934C16.0059 17.8642 15.9758 17.3351 15.9479 16.8059C15.9207 16.2881 15.894 15.7698 15.8689 15.2514C15.8354 14.5552 15.8024 13.8584 15.7718 13.1621C15.7666 13.0507 15.7701 12.9387 15.7786 12.8279C15.7968 12.5881 15.8758 12.3709 16.0332 12.1856C16.0474 12.1686 16.0616 12.1515 16.077 12.1351C16.1025 12.1083 16.1105 12.0788 16.0969 12.0436C16.0889 12.0231 16.0844 12.0009 16.0775 11.9793C15.7394 10.8915 15.4796 9.78542 15.2915 8.66232C15.2619 8.48612 15.2358 8.30993 15.2102 8.13316C15.2022 8.07803 15.1937 8.02233 15.2074 7.96663C15.2244 7.89786 15.292 7.84841 15.3705 7.8467C15.4432 7.845 15.4876 7.88422 15.5052 7.96777C15.5086 7.98425 15.5092 8.0013 15.512 8.01778C15.5666 8.34801 15.6172 8.6788 15.6763 9.00788C15.8445 9.94172 16.0707 10.8613 16.3469 11.769C16.36 11.8111 16.3674 11.856 16.397 11.889L16.3964 11.8884ZM4.86756 19.5654C4.85619 19.7904 4.85278 20.0167 4.91474 20.2389C4.9801 20.4725 5.12276 20.6419 5.33931 20.7504C5.46492 20.8135 5.59792 20.8544 5.7349 20.8811C5.88267 20.9101 6.03158 20.9312 6.17936 20.9602C6.96144 21.1153 7.74863 21.2392 8.54151 21.3262C9.01269 21.3779 9.48501 21.4177 9.95846 21.4438C10.5263 21.4757 11.0952 21.4887 11.6641 21.4813C12.2109 21.474 12.7565 21.4484 13.3016 21.4069C13.7961 21.3694 14.29 21.316 14.7811 21.2466C15.0016 21.2154 15.2238 21.1881 15.4421 21.1449C15.8485 21.0636 16.1122 20.7379 16.1162 20.3241C16.1173 20.1849 16.1116 20.0451 16.106 19.9058C16.0997 19.7438 16.098 19.7427 15.9445 19.7876C14.9738 20.0712 13.9871 20.2713 12.9828 20.3895C12.4729 20.4498 11.962 20.4924 11.4487 20.5089C10.7013 20.5322 9.95448 20.5191 9.20878 20.4537C8.64723 20.4043 8.08909 20.3338 7.53436 20.2349C6.67725 20.0815 5.8355 19.8677 5.00965 19.5904C4.96816 19.5762 4.92781 19.554 4.86756 19.5654ZM13.5278 2.34544C13.3908 2.28917 13.0515 2.2204 12.9259 2.21756C12.8861 2.21642 12.864 2.23632 12.8492 2.26928C12.8333 2.30509 12.8185 2.3409 12.802 2.3767C12.5747 2.8763 12.2376 3.28553 11.7784 3.58733C10.9974 4.10057 10.1437 4.26256 9.23549 4.0551C8.31302 3.84481 7.64746 3.29917 7.25472 2.43184C7.24562 2.41137 7.2371 2.39091 7.22914 2.36988C7.21039 2.32214 7.17458 2.30566 7.12513 2.30282C6.99611 2.29486 6.86879 2.31134 6.74205 2.33351C6.63235 2.35283 6.52379 2.37841 6.41524 2.40399C6.36522 2.41592 6.35499 2.43979 6.3692 2.49095C6.37488 2.51254 6.38341 2.53301 6.39079 2.55404C6.69033 3.34464 7.17912 3.98917 7.89073 4.45069C8.71884 4.98723 9.62767 5.15717 10.5973 4.98496C11.5448 4.81672 12.3126 4.34611 12.9003 3.58449C13.1862 3.21448 13.3926 2.80241 13.5273 2.34544H13.5278ZM12.4769 2.27155C12.3865 2.30225 12.3183 2.32498 12.2507 2.34942C11.6028 2.58359 10.9361 2.73307 10.25 2.79275C9.79988 2.83197 9.3486 2.83026 8.89845 2.77513C8.4932 2.72568 8.09648 2.64384 7.71624 2.49095C7.70601 2.48697 7.69577 2.48072 7.68498 2.47901C7.67531 2.47787 7.66167 2.47901 7.65542 2.48413C7.64917 2.48981 7.64462 2.50516 7.64803 2.51198C7.66508 2.54721 7.6827 2.58189 7.70316 2.61485C7.9379 3.00021 8.25676 3.2986 8.65859 3.50208C9.44465 3.89994 10.2517 3.92892 11.0673 3.60438C11.6391 3.37704 12.0864 2.99509 12.399 2.46082C12.4292 2.4091 12.4678 2.35965 12.4763 2.27042L12.4769 2.27155Z" fill="#000E3F"/>
<path d="M7.33258 10.6022C7.3269 10.139 7.45081 9.70702 7.66451 9.30177C7.85549 8.93972 8.1374 8.65383 8.47274 8.4225C9.00587 8.05477 9.59982 7.88369 10.2443 7.93541C11.2174 8.01327 11.9085 8.51912 12.3479 9.37907C12.5093 9.69508 12.5997 10.035 12.6218 10.3896C12.6503 10.8455 12.5673 11.2814 12.3468 11.6815C11.9114 12.4704 11.2498 12.9695 10.3643 13.1343C9.52479 13.2906 8.77113 13.0854 8.13171 12.504C7.71453 12.1249 7.48604 11.6446 7.37635 11.1007C7.34281 10.9364 7.33258 10.7687 7.33315 10.6016L7.33258 10.6022ZM8.50513 12.3795C8.50741 12.3886 8.50684 12.3948 8.50968 12.3983C8.5165 12.4068 8.52389 12.4159 8.53242 12.4221C8.81774 12.6381 9.13943 12.7694 9.49012 12.8342C9.53673 12.8427 9.56173 12.824 9.58276 12.7842C9.60891 12.7353 9.63449 12.6836 9.67143 12.6432C9.85388 12.4471 10.0022 12.2226 10.1938 12.0351C10.229 12.001 10.2449 11.9686 10.2341 11.9174C10.2034 11.7759 10.1778 11.6332 10.1511 11.4911C10.1432 11.4502 10.1256 11.4224 10.0852 11.403C9.86468 11.2968 9.64585 11.1871 9.42589 11.0785C9.39122 11.0614 9.35712 11.0416 9.32188 11.0251C9.2622 10.9972 9.21787 10.9228 9.15137 10.9319C9.08885 10.9398 9.03088 10.9853 8.97177 11.0154C8.93198 11.0359 8.8939 11.0586 8.85468 11.0802C8.81717 11.1007 8.79784 11.1314 8.79443 11.174C8.79216 11.2018 8.78705 11.2291 8.78307 11.257C8.74783 11.5218 8.71316 11.7873 8.67792 12.0521C8.66257 12.1658 8.6262 12.2687 8.53242 12.3431C8.52048 12.3528 8.51252 12.3687 8.50457 12.3789L8.50513 12.3795ZM7.66736 10.3345C7.66451 10.4095 7.6702 10.4175 7.73499 10.4402C7.78217 10.4567 7.83105 10.4703 7.87652 10.4902C8.11068 10.5931 8.34542 10.6954 8.57788 10.8023C8.62392 10.8233 8.65916 10.8256 8.70179 10.8011C8.7933 10.7483 8.88537 10.6954 8.98029 10.6488C9.03656 10.621 9.06043 10.5789 9.07294 10.5204C9.1167 10.3135 9.16387 10.1072 9.20878 9.90083C9.22299 9.83547 9.23663 9.77011 9.24913 9.70475C9.25595 9.66951 9.24629 9.63995 9.2173 9.61551C9.14 9.55185 9.061 9.48933 8.98711 9.42227C8.93994 9.37907 8.89504 9.37964 8.83536 9.39385C8.53753 9.46433 8.23914 9.53026 7.9396 9.59391C7.89754 9.60301 7.86628 9.61551 7.84923 9.6553C7.75432 9.87696 7.68725 10.1054 7.66736 10.3345ZM11.2111 10.6835C11.1748 10.6778 11.1583 10.6931 11.1429 10.7091C11.0889 10.7653 11.0367 10.8233 10.981 10.8773C10.8178 11.037 10.653 11.195 10.4887 11.353C10.4666 11.3741 10.4569 11.3985 10.4626 11.4275C10.4922 11.5747 10.5223 11.7219 10.5524 11.8697C10.5598 11.906 10.5825 11.9248 10.6172 11.9379C10.8764 12.0396 11.1356 12.1408 11.393 12.2465C11.4408 12.2658 11.4749 12.2658 11.5135 12.2306C11.7039 12.0567 11.8699 11.8628 12.004 11.6418C12.0302 11.5986 12.0302 11.5616 12.0063 11.5173C11.925 11.365 11.8472 11.2109 11.7676 11.058C11.7238 10.9745 11.6783 10.8926 11.6334 10.8097C11.538 10.7801 11.4419 10.75 11.3464 10.721C11.2987 10.7062 11.2504 10.6937 11.2129 10.6829L11.2111 10.6835ZM10.0466 8.24062C9.9613 8.24687 9.85501 8.25029 9.75043 8.26279C9.60095 8.28041 9.45545 8.31735 9.31108 8.35998C9.24231 8.37987 9.21219 8.41852 9.20707 8.48957C9.19968 8.58392 9.18206 8.67713 9.17013 8.77091C9.15592 8.88629 9.14285 9.00167 9.1292 9.11705C9.22128 9.19719 9.31336 9.27733 9.40543 9.35804C9.40941 9.36145 9.41453 9.36486 9.41851 9.36827C9.44977 9.39669 9.48444 9.40237 9.5265 9.39442C9.84819 9.33076 10.171 9.27278 10.4984 9.24721C10.5399 9.2438 10.5729 9.23186 10.5973 9.19605C10.6757 9.08124 10.7553 8.967 10.8349 8.85276C10.8559 8.82263 10.861 8.79365 10.8434 8.75955C10.7809 8.63564 10.7189 8.5106 10.6587 8.38556C10.6325 8.33099 10.5928 8.30314 10.5325 8.29064C10.3791 8.25881 10.2239 8.24972 10.0477 8.24119L10.0466 8.24062ZM11.667 10.4766C11.6909 10.4726 11.7096 10.4635 11.725 10.4453C11.867 10.2816 12.0086 10.1174 12.1535 9.9554C12.1961 9.90765 12.2001 9.86162 12.1791 9.80307C12.1143 9.61835 12.0324 9.44273 11.9279 9.27733C11.8534 9.15968 11.7676 9.04998 11.6744 8.94654C11.6363 8.90391 11.5959 8.89368 11.5408 8.91073C11.4288 8.94483 11.3152 8.97098 11.1969 8.96871C11.1606 8.96814 11.1333 8.98291 11.1128 9.01247C11.0304 9.13126 10.948 9.25005 10.865 9.36884C10.844 9.39896 10.8428 9.42852 10.8571 9.46262C10.9736 9.73885 11.0884 10.0162 11.2032 10.293C11.2191 10.3311 11.2401 10.3584 11.2828 10.3703C11.3953 10.401 11.5067 10.4357 11.6192 10.4681C11.6352 10.4726 11.6522 10.4738 11.667 10.4766Z" fill="#000E3F"/>
<path d="M17.7739 22.3725C17.6926 22.061 17.4681 21.8041 17.2112 21.6103C16.9543 21.4165 16.6627 21.2744 16.3859 21.1101C14.8246 20.1848 13.7345 18.5604 12.0873 17.7982C11.8401 17.684 11.5701 17.5891 11.2996 17.6232C11.029 17.6573 10.763 17.8562 10.734 18.1273C10.7141 18.3115 10.8022 18.4882 10.8898 18.6513C11.1285 19.0958 11.3831 19.5317 11.6531 19.9575C12.2431 20.8879 13.6475 20.9174 14.7229 21.1544C15.7988 21.3915 16.9333 21.6609 17.7739 22.3725Z" fill="#915EFD"/>
<path d="M22.205 25.4348C22.4113 25.3695 22.575 25.2098 22.6358 25.0046C22.7575 24.5971 22.637 24.1117 22.3733 23.7598C22.0288 23.2989 21.4968 23.0164 20.9756 22.7646C17.6393 21.1493 13.9795 20.1626 10.7228 18.4024C10.4841 18.2734 10.1914 18.3063 9.98276 18.4791C9.26946 19.0691 8.30039 19.3408 7.36087 19.3442C6.42363 19.3476 5.44944 19.1367 4.5463 18.8366C4.27519 18.7468 3.97338 18.8383 3.80855 19.0685C2.69568 20.6224 2.35125 22.6964 2.90882 24.5192C2.981 24.7551 3.18335 24.9296 3.42945 24.9705C5.31871 25.2836 7.25231 25.0506 9.15522 25.0006C11.0587 24.9506 13.0332 25.1086 14.9247 25.3251C16.0848 25.4581 17.2221 25.7582 18.3861 25.8549C19.6735 25.9617 20.9745 25.8213 22.2044 25.4343L22.205 25.4348Z" fill="white"/>
<g opacity="0.25">
<path d="M22.6359 25.0047C22.5751 25.2098 22.4114 25.3696 22.2051 25.4349C20.9757 25.8226 19.6741 25.9624 18.3873 25.8555C17.2233 25.7589 16.086 25.4588 14.9259 25.3258C13.0344 25.1087 11.0599 24.9512 9.15642 25.0013C7.25351 25.0513 5.31991 25.2843 3.43065 24.9711C3.18454 24.9302 2.9822 24.7557 2.91002 24.5198C2.62243 23.5792 2.57468 22.5715 2.74917 21.603C2.84807 22.3345 3.22376 23.0324 3.81203 23.4809C4.49123 23.9986 5.37789 24.1788 6.23158 24.1623C8.1936 24.1243 10.0721 23.1336 12.029 23.2711C13.2407 23.3564 14.3746 23.8685 15.5296 24.2453C16.6845 24.6222 17.9673 24.8637 19.0955 24.4136C19.4542 24.2703 19.8298 23.9816 19.8026 23.5962C19.7759 23.2183 19.3899 22.9921 19.1006 22.7471C18.7573 22.4555 18.5311 22.069 18.414 21.6445C19.2808 21.9934 20.1385 22.3589 20.9757 22.7641C21.4963 23.0165 22.0283 23.2984 22.3733 23.7594C22.6365 24.1112 22.757 24.5966 22.6353 25.0041L22.6359 25.0047Z" fill="#000E3F"/>
</g>
<path d="M22.3714 24.5398C22.0014 24.7586 21.495 24.7962 21.0795 24.8553C20.3969 24.9525 19.7086 25.011 19.0209 25.0525C17.7028 25.1315 16.2819 25.2264 14.9849 24.9195C13.8993 24.6626 12.879 24.2954 11.7469 24.3102C10.6101 24.325 9.49099 24.5648 8.35879 24.6427C7.24706 24.7189 6.12737 24.6779 5.02359 24.5228C4.49956 24.4489 3.9795 24.3494 3.46569 24.2244C3.1241 24.1414 2.7035 24.0789 2.83878 24.5677C2.9786 25.0735 3.26164 25.5743 3.4691 26.0551C3.59414 26.345 3.75385 27.0333 4.08806 27.1583C4.51377 27.3175 4.86331 27.1788 5.02303 26.798C5.20377 26.366 5.5823 26.1875 6.04723 26.3035C6.49852 26.416 6.45816 26.6826 6.69688 26.9725C6.92252 27.2458 7.58069 27.1981 7.7603 26.9088C7.87 26.732 7.8825 26.5752 8.10189 26.4808C8.27354 26.4069 8.51453 26.4143 8.69754 26.4285C9.18464 26.4666 9.18179 26.9605 9.60807 27.0344C10.1344 27.1253 10.3163 26.9719 10.4726 26.5047C10.6067 26.1051 10.8511 25.8152 11.2387 25.6345C12.0805 25.2423 12.9887 25.4504 13.8106 25.7772C14.1096 25.896 14.7012 26.0216 14.8871 26.2569C15.032 26.4399 14.99 26.7565 15.1434 26.9435C15.2946 27.1282 15.6288 27.1253 15.8431 27.1003C16.0625 27.0753 16.0994 26.9946 16.2279 26.8326C16.4331 26.574 16.5808 26.6155 16.9168 26.6462C17.1896 26.6712 17.5965 26.6036 17.8443 26.7099C18.1541 26.8423 18.0461 27.264 18.3758 27.3868C18.5474 27.451 18.9225 27.459 19.0891 27.3697C19.3391 27.2367 19.2454 26.9565 19.3948 26.7718C19.5534 26.5763 19.9314 26.6428 20.1718 26.6297C20.4401 26.6149 20.7487 26.516 20.9533 26.6985C21.1545 26.8781 21.1415 26.9315 21.4444 26.9486C21.6689 26.9617 21.9031 26.9838 22.0503 26.7798C22.2071 26.5627 22.6147 25.551 22.7011 25.281C22.767 25.0741 22.9187 24.2147 22.372 24.5387L22.3714 24.5398Z" fill="#0D51E3"/>
<path d="M13.0836 18.1603C12.4095 18.2717 11.7718 18.5291 11.2074 18.9134C10.8209 19.1771 11.1864 19.8108 11.5769 19.5448C12.0958 19.1913 12.659 18.9674 13.2786 18.8651C13.7418 18.7883 13.5451 18.0835 13.0842 18.1597L13.0836 18.1603Z" fill="#0D51E3"/>
<path d="M14.2535 18.9531C13.5419 19.0486 12.8854 19.4186 12.4301 19.9734C12.1334 20.3343 12.6484 20.8549 12.9473 20.4906C13.3355 20.0177 13.8425 19.7398 14.4478 19.6585C14.6451 19.6318 14.7485 19.3811 14.703 19.2089C14.6473 18.9969 14.4478 18.9276 14.2535 18.9537V18.9531Z" fill="#0D51E3"/>
<path d="M15.2816 19.7431C14.7632 19.9432 14.3045 20.2405 13.9289 20.6525C13.6123 20.9998 14.1284 21.5187 14.4461 21.1697C14.7331 20.8549 15.0764 20.6031 15.476 20.4485C15.6595 20.3774 15.7886 20.2024 15.7312 19.9989C15.6817 19.8233 15.4674 19.6715 15.2816 19.7437V19.7431Z" fill="#0D51E3"/>
<path d="M16.736 20.4371C16.2591 20.6332 15.8397 20.9191 15.5134 21.3221C15.3895 21.4755 15.3634 21.6892 15.5134 21.8393C15.6419 21.9677 15.9056 21.9939 16.0306 21.8393C16.2728 21.5403 16.5717 21.2897 16.9304 21.1425C17.1128 21.0674 17.243 20.8998 17.1856 20.6929C17.1384 20.5201 16.9196 20.3621 16.736 20.4377V20.4371Z" fill="#0D51E3"/>
<g opacity="0.7">
<path d="M22.4842 24.9665C22.4785 24.9245 22.2005 24.9239 21.7032 24.9546C21.4548 24.9699 21.1513 24.9932 20.7995 25.0199C20.6239 25.033 20.4363 25.0478 20.2368 25.0626C20.1374 25.0694 20.0351 25.0768 19.9299 25.0836C19.8248 25.091 19.7173 25.0989 19.6071 25.1046C19.166 25.133 18.6835 25.1546 18.1668 25.1626C17.6502 25.17 17.0988 25.1626 16.5231 25.1205C16.3793 25.1075 16.2338 25.0989 16.0871 25.083C16.0138 25.0745 15.9399 25.0665 15.8661 25.058C15.7922 25.0489 15.7171 25.0427 15.6433 25.0307C15.4943 25.008 15.3437 24.9892 15.192 24.9637C15.0402 24.9381 14.8873 24.9097 14.7316 24.8795C14.1104 24.7602 13.4567 24.6084 12.7582 24.5328C12.0602 24.4595 11.3782 24.4658 10.7303 24.5084C10.4057 24.5289 10.0891 24.5573 9.78107 24.5897C9.47245 24.6215 9.17235 24.6562 8.88077 24.6903C8.29706 24.7585 7.74687 24.8216 7.2325 24.8602C6.71812 24.8989 6.23956 24.9125 5.80418 24.9017C4.9323 24.8818 4.23605 24.7551 3.76487 24.6278C3.70576 24.6118 3.64949 24.5988 3.5972 24.584C3.54491 24.5687 3.4966 24.5539 3.45113 24.5402C3.40509 24.5277 3.36303 24.5158 3.32438 24.505C3.2863 24.4931 3.25163 24.4817 3.22037 24.4726C3.09476 24.4357 3.02315 24.4249 3.01405 24.4436C3.00439 24.4624 3.05782 24.5095 3.16979 24.584C3.19764 24.6022 3.22946 24.6226 3.2647 24.6442C3.30051 24.6641 3.3403 24.6852 3.38406 24.7079C3.42783 24.7301 3.47443 24.7539 3.52502 24.7795C3.5756 24.8034 3.6313 24.8261 3.68984 24.8517C4.15534 25.054 4.87603 25.2547 5.78202 25.3308C6.23444 25.3701 6.7312 25.3809 7.26149 25.3632C7.79178 25.3456 8.35446 25.3001 8.93989 25.2473C9.23203 25.2211 9.53099 25.195 9.83677 25.1677C10.1414 25.1416 10.4512 25.1188 10.7661 25.1029C11.3952 25.0694 12.0426 25.0688 12.6951 25.137C13.3465 25.2069 13.9876 25.3507 14.6242 25.465C14.7833 25.494 14.9419 25.5212 15.101 25.5451C15.2596 25.5696 15.4182 25.5866 15.5739 25.6071C15.6518 25.6179 15.7296 25.623 15.8075 25.6309C15.8848 25.6378 15.9621 25.6451 16.0383 25.652C16.1912 25.665 16.3429 25.6707 16.4924 25.6798C17.0909 25.7071 17.6587 25.6963 18.1867 25.6662C18.7153 25.6361 19.2047 25.5889 19.6491 25.532C19.7605 25.519 19.8685 25.5042 19.9742 25.4894C20.0794 25.4746 20.1823 25.461 20.2817 25.4456C20.4807 25.415 20.6682 25.3865 20.8433 25.3558C21.1928 25.2967 21.4929 25.2388 21.7373 25.1876C22.2261 25.0847 22.4921 25.0063 22.4864 24.9648L22.4842 24.9665Z" fill="white"/>
</g>
<g opacity="0.7">
<path d="M13.1633 18.4531C13.161 18.3707 13.0434 18.2957 12.8456 18.2627C12.7472 18.2457 12.6296 18.2417 12.5 18.2519C12.371 18.2633 12.23 18.2889 12.0874 18.3332C11.9447 18.3781 11.814 18.4372 11.702 18.502C11.59 18.5674 11.4957 18.6384 11.4241 18.7083C11.2808 18.8482 11.2269 18.9766 11.2718 19.046C11.3178 19.117 11.4502 19.1193 11.6264 19.0869C11.7145 19.0704 11.8151 19.0465 11.9225 19.0164C12.0311 18.9868 12.147 18.9522 12.2681 18.9135C12.3897 18.876 12.5051 18.8385 12.6108 18.801C12.7166 18.7646 12.8126 18.7265 12.8945 18.6902C13.0576 18.6163 13.165 18.539 13.1622 18.4543L13.1633 18.4531Z" fill="white"/>
</g>
<g opacity="0.7">
<path d="M14.5218 19.135C14.5247 19.052 14.4405 18.9713 14.2882 18.9269C14.2126 18.9048 14.1211 18.8934 14.0199 18.8957C13.9188 18.8991 13.8085 18.9167 13.6977 18.9519C13.5869 18.9877 13.4868 19.0378 13.4027 19.0935C13.3191 19.1503 13.2509 19.2123 13.2021 19.2748C13.1043 19.3992 13.0827 19.5141 13.1333 19.58C13.1844 19.6476 13.2936 19.6579 13.4249 19.6425C13.4908 19.634 13.5635 19.6203 13.6403 19.601C13.7176 19.5823 13.7983 19.5584 13.883 19.5311C13.9677 19.5044 14.0472 19.4765 14.1211 19.447C14.195 19.4186 14.2621 19.3873 14.3206 19.3561C14.4366 19.2924 14.519 19.2208 14.5218 19.1361V19.135Z" fill="white"/>
</g>
<g opacity="0.7">
<path d="M14.7683 20.1627C14.8251 20.3207 15.0775 20.3742 15.3321 20.2821C15.5867 20.19 15.7464 19.9877 15.689 19.8302C15.6322 19.6722 15.3798 19.6188 15.1252 19.7109C14.8706 19.8029 14.7109 20.0053 14.7683 20.1627Z" fill="white"/>
</g>
<g opacity="0.7">
<path d="M17.0783 20.6798C17.0408 20.5161 16.8555 20.4189 16.6634 20.4627C16.4719 20.5065 16.3462 20.6747 16.3838 20.8384C16.4213 21.0021 16.6066 21.0993 16.7987 21.0555C16.9902 21.0117 17.1158 20.8435 17.0783 20.6798Z" fill="white"/>
</g>
<path d="M15.849 20.486C15.8837 20.5048 15.9019 20.5179 15.9218 20.5253C16.0053 20.5559 16.0883 20.6043 16.1736 20.6088C16.2543 20.6128 16.3208 20.5372 16.3964 20.502C16.5026 20.4525 16.6078 20.4013 16.7135 20.3519C16.9869 20.224 17.2682 20.3809 17.3654 20.6151C17.4115 20.7253 17.4353 20.8379 17.4029 20.9572C17.3666 21.0914 17.3592 21.076 17.5007 21.1323C17.7911 21.2471 18.0827 21.3585 18.3726 21.4744C19.3047 21.8467 20.2294 22.2366 21.1326 22.6754C21.3633 22.7874 21.5924 22.9033 21.8107 23.0392C22.0198 23.1693 22.2165 23.3148 22.3887 23.4921C22.6234 23.7331 22.7871 24.0133 22.8656 24.3424C22.8781 24.3959 22.8854 24.4504 22.9156 24.501C23.015 24.667 23.0253 24.8489 23.0031 25.0353C22.9832 25.2024 22.9394 25.3644 22.8786 25.5201C22.736 25.8833 22.5933 26.2465 22.4268 26.6C22.3961 26.6654 22.3608 26.729 22.3273 26.7932C22.2091 27.0223 22.0147 27.1348 21.7641 27.1564C21.6305 27.1678 21.4969 27.161 21.3639 27.1382C21.2326 27.1155 21.1201 27.0627 21.0269 26.9677C21.0036 26.9439 20.9797 26.9206 20.9553 26.8973C20.8876 26.8325 20.8063 26.7995 20.7137 26.7978C20.6466 26.7967 20.5796 26.7967 20.5131 26.8046C20.313 26.8291 20.1129 26.8347 19.9117 26.833C19.8447 26.833 19.7787 26.837 19.7128 26.8546C19.631 26.8768 19.5735 26.9262 19.5457 27.0047C19.523 27.0672 19.5053 27.1326 19.4923 27.1979C19.4434 27.4332 19.2962 27.5685 19.066 27.6134C18.8727 27.6515 18.6784 27.6577 18.4851 27.6077C18.2765 27.5537 18.1287 27.431 18.056 27.2235C18.0378 27.1712 18.0162 27.1195 17.9946 27.0678C17.9429 26.9416 17.8451 26.8762 17.7133 26.8615C17.6417 26.8535 17.5683 26.8495 17.4962 26.8524C17.3063 26.8597 17.1171 26.8575 16.9278 26.8376C16.8613 26.8302 16.7942 26.833 16.7271 26.8302C16.6129 26.8251 16.5214 26.8711 16.4469 26.9547C16.41 26.9962 16.3753 27.0399 16.339 27.0825C16.2287 27.2104 16.0934 27.2855 15.9223 27.3053C15.7711 27.323 15.6217 27.3241 15.4728 27.2957C15.2153 27.2457 15.0368 27.1053 14.9709 26.8427C14.9516 26.7671 14.9317 26.6915 14.9175 26.6148C14.8856 26.4403 14.7839 26.3238 14.6236 26.2567C14.5361 26.2203 14.4485 26.1845 14.3587 26.1538C14.0211 26.0379 13.6835 25.9236 13.3448 25.8105C13.0958 25.7276 12.8412 25.6679 12.5792 25.64C12.2586 25.6059 11.9443 25.6315 11.6357 25.7236C11.5402 25.752 11.4464 25.7912 11.3566 25.835C11.0571 25.9793 10.8468 26.2084 10.7257 26.5187C10.6933 26.6017 10.6626 26.6858 10.6297 26.7688C10.5944 26.8575 10.5501 26.941 10.4887 27.0143C10.3682 27.1593 10.2119 27.2383 10.0272 27.2582C9.87657 27.2747 9.72596 27.2616 9.57932 27.2195C9.47019 27.1888 9.37243 27.136 9.29286 27.0536C9.23886 26.9973 9.1826 26.9422 9.13599 26.8802C8.99674 26.6961 8.81259 26.6142 8.58353 26.625C8.52783 26.6279 8.47156 26.6244 8.41643 26.6296C8.25615 26.6449 8.12884 26.7114 8.05552 26.8626C8.03108 26.9126 8.00323 26.9609 7.97538 27.0092C7.90717 27.1297 7.80941 27.2184 7.68039 27.2707C7.47407 27.3542 7.26264 27.3849 7.04211 27.3355C6.83579 27.2894 6.67437 27.1786 6.559 27.003C6.52262 26.9473 6.48852 26.8887 6.46124 26.8279C6.33619 26.546 6.10089 26.4647 5.81841 26.4761C5.58935 26.4852 5.416 26.596 5.29778 26.7915C5.26595 26.8438 5.23469 26.8973 5.21025 26.9535C5.02496 27.3821 4.58902 27.4935 4.21958 27.3946C4.03941 27.3463 3.89732 27.2462 3.79046 27.0945C3.71259 26.9842 3.65235 26.8649 3.60574 26.7393C3.42045 26.2368 3.19595 25.7503 2.97655 25.2626C2.88732 25.0643 2.80548 24.8631 2.75318 24.6505C2.73159 24.563 2.71908 24.4749 2.72874 24.3856C2.73613 24.318 2.72875 24.2526 2.7134 24.1867C2.58097 23.6121 2.53095 23.0295 2.56449 22.4418C2.63212 21.2647 2.97826 20.1768 3.63189 19.1913C3.69384 19.0981 3.76034 19.0088 3.84105 18.931C4.05873 18.7201 4.31279 18.6439 4.60892 18.7207C4.66803 18.736 4.72771 18.7519 4.78568 18.7713C5.29494 18.9384 5.81443 19.0657 6.34415 19.1509C6.80794 19.226 7.27571 19.2538 7.74519 19.2225C8.19306 19.1924 8.62787 19.0986 9.04562 18.9321C9.25933 18.8469 9.45655 18.7326 9.64752 18.6059C9.75438 18.5348 9.8618 18.4643 9.96524 18.3887C10.1346 18.266 10.3199 18.2046 10.5302 18.2222C10.5467 18.2234 10.5637 18.2239 10.5802 18.2245C10.6177 18.2262 10.645 18.2137 10.6501 18.1716C10.6513 18.1608 10.653 18.1495 10.6547 18.1387C10.7166 17.7965 10.9968 17.5447 11.347 17.518C11.5266 17.5044 11.7028 17.5243 11.8761 17.5754C12.1239 17.6487 12.3552 17.7573 12.5792 17.8835C12.6764 17.938 12.7719 17.996 12.8668 18.054C12.9071 18.0784 12.9463 18.0875 12.9935 18.0773C13.0532 18.0642 13.114 18.0551 13.1754 18.05C13.5011 18.0227 13.7699 18.3097 13.7739 18.5973C13.7739 18.6195 13.7728 18.6417 13.7722 18.6644C13.7722 18.6758 13.7705 18.6877 13.7739 18.6974C13.8017 18.7764 13.8813 18.8071 13.9342 18.8628C13.9637 18.894 14.0012 18.8991 14.0422 18.8918C14.1246 18.877 14.207 18.8645 14.2888 18.8474C14.373 18.8298 14.4554 18.8383 14.5378 18.8565C14.8242 18.919 14.9902 19.1731 14.9283 19.459C14.9175 19.5079 14.9038 19.5573 14.8799 19.6011C14.8356 19.6824 14.8458 19.6909 14.9169 19.7545C14.9447 19.7796 14.9743 19.783 15.0084 19.767C15.0846 19.7324 15.1613 19.6994 15.238 19.6659C15.5057 19.5477 15.7984 19.667 15.9201 19.9398C15.9871 20.091 15.9843 20.2433 15.9064 20.3911C15.8911 20.4207 15.8723 20.448 15.8473 20.4883L15.849 20.486ZM11.1645 18.8344C11.0213 18.7434 10.8809 18.6655 10.7365 18.5934C10.5563 18.503 10.3802 18.5127 10.2108 18.6167C10.1204 18.6718 10.0329 18.7315 9.94876 18.7963C9.81974 18.8952 9.6839 18.9821 9.5401 19.056C9.00242 19.3334 8.42894 19.4834 7.82703 19.5306C7.41951 19.5624 7.01369 19.5477 6.60788 19.5005C5.96334 19.4255 5.33302 19.2868 4.71861 19.077C4.64472 19.052 4.57083 19.0287 4.49297 19.0174C4.33326 18.9935 4.19514 19.0378 4.07578 19.1441C4.00474 19.2078 3.9462 19.2828 3.89618 19.3635C3.83707 19.4584 3.77966 19.5539 3.72396 19.6505C3.00099 20.9038 2.75034 22.2486 2.94018 23.6791C2.95382 23.7843 2.97258 23.8883 2.99247 23.9929C3.00327 24.0509 3.01464 24.0611 3.06977 24.0554C3.19936 24.0418 3.3261 24.0628 3.45171 24.0878C3.56652 24.1105 3.67963 24.1407 3.79387 24.1662C4.51854 24.3294 5.25061 24.4447 5.99006 24.5107C6.46237 24.5527 6.93639 24.5652 7.41098 24.5618C7.93047 24.5584 8.44826 24.5266 8.96434 24.4737C9.55204 24.4129 10.1386 24.339 10.7257 24.2697C11.0804 24.2282 11.4368 24.2038 11.7937 24.1998C12.366 24.193 12.9287 24.2702 13.4835 24.4038C13.9711 24.5209 14.4571 24.6465 14.9442 24.767C15.3506 24.8676 15.7615 24.9443 16.1792 24.9813C16.6186 25.0205 17.0596 25.0262 17.5001 25.0182C18.1918 25.0063 18.8818 24.9517 19.5724 24.9097C19.7452 24.8994 19.9168 24.8818 20.0891 24.8636C20.4437 24.8261 20.799 24.788 21.1531 24.7465C21.3798 24.7198 21.6072 24.692 21.8311 24.6454C22.0687 24.5965 22.283 24.4879 22.5001 24.3868C22.541 24.3674 22.5365 24.339 22.5251 24.3044C22.445 24.06 22.2995 23.8576 22.1181 23.6797C21.9579 23.5228 21.7766 23.3933 21.585 23.2773C21.3605 23.1415 21.1258 23.0244 20.8899 22.9101C19.6884 22.3304 18.4487 21.8422 17.2069 21.3585C17.125 21.3267 17.0591 21.3335 16.9846 21.3704C16.763 21.4813 16.5618 21.6182 16.3992 21.8081C16.3304 21.8882 16.2565 21.9649 16.1775 22.0354C15.9689 22.223 15.5398 22.2042 15.379 21.8399C15.3011 21.6631 15.3187 21.4915 15.4182 21.3284C15.5063 21.184 15.6217 21.0629 15.7433 20.9476C15.7751 20.9174 15.8172 20.8964 15.8337 20.8509C15.8018 20.8066 15.749 20.8015 15.7041 20.7833C15.5453 20.72 15.3915 20.7329 15.2426 20.8219C15.055 20.9345 14.8851 21.0692 14.7316 21.2255C14.6691 21.2891 14.6071 21.3534 14.5327 21.404C14.4423 21.4659 14.3428 21.4983 14.2331 21.4869C13.9671 21.4597 13.7523 21.2226 13.7438 20.9555C13.7392 20.8128 13.7949 20.6952 13.8825 20.5889C13.9711 20.4804 14.0797 20.3917 14.1831 20.2985C14.207 20.2774 14.2411 20.2615 14.2371 20.2092C14.161 20.1774 14.0768 20.1496 14.0001 20.1075C13.9041 20.0552 13.8239 20.074 13.7364 20.128C13.55 20.2428 13.3783 20.3741 13.2322 20.5383C13.1765 20.6008 13.1197 20.6634 13.0555 20.7157C12.8997 20.8418 12.727 20.8498 12.5547 20.7577C12.316 20.6298 12.1751 20.3422 12.3143 20.041C12.3763 19.9074 12.4712 19.7977 12.5752 19.696C12.615 19.6574 12.6576 19.6221 12.7054 19.5801C12.6065 19.4988 12.4956 19.4732 12.3984 19.4215C12.3496 19.3953 12.3069 19.3965 12.2569 19.422C12.1228 19.4908 11.9898 19.5613 11.8642 19.6443C11.8039 19.6841 11.7425 19.7239 11.6789 19.758C11.5931 19.804 11.5004 19.8182 11.4032 19.8068C11.0122 19.7625 10.8314 19.2578 11.0537 18.9656C11.0866 18.9224 11.1241 18.8827 11.1645 18.8349V18.8344ZM5.87013 26.1584C5.89798 26.1584 5.92583 26.1561 5.95368 26.1584C6.27936 26.1857 6.54365 26.3147 6.70791 26.6114C6.74031 26.6699 6.77611 26.7267 6.80965 26.7842C6.91593 26.9649 7.07223 27.0519 7.2831 27.0365C7.32743 27.0331 7.37233 27.0325 7.4161 27.0246C7.5616 26.999 7.67584 26.9274 7.74405 26.7921C7.75655 26.7671 7.77019 26.7427 7.78099 26.7171C7.87534 26.4903 8.05665 26.3749 8.28798 26.3243C8.46474 26.2857 8.64094 26.2891 8.81997 26.317C8.98139 26.3425 9.11666 26.4096 9.22806 26.5267C9.28149 26.5835 9.33094 26.6443 9.3855 26.7C9.43609 26.7518 9.4861 26.8063 9.54465 26.8478C9.69413 26.9535 9.85839 26.9814 10.038 26.9331C10.2 26.8893 10.2886 26.7756 10.3466 26.629C10.3756 26.5562 10.4023 26.4829 10.429 26.4096C10.5586 26.0544 10.7928 25.7861 11.1162 25.5951C11.4004 25.4275 11.7113 25.345 12.0381 25.3206C12.4422 25.2905 12.8406 25.3303 13.2317 25.436C13.7222 25.569 14.1939 25.756 14.6714 25.9276C14.739 25.9521 14.8032 25.9879 14.8657 26.0242C15.0595 26.1373 15.1823 26.301 15.2176 26.5267C15.2278 26.5926 15.2403 26.6591 15.2585 26.7233C15.3074 26.895 15.4028 26.9751 15.5796 26.9927C15.6404 26.999 15.7024 26.9945 15.7632 26.9967C15.9201 27.0035 16.0457 26.9456 16.14 26.8194C16.1633 26.7881 16.1906 26.7597 16.2162 26.7302C16.3537 26.5727 16.5265 26.4983 16.7357 26.5125C16.7749 26.5153 16.8135 26.5159 16.8528 26.5199C17.0363 26.5363 17.2205 26.5369 17.4046 26.5312C17.5166 26.5278 17.6274 26.5369 17.7383 26.5506C17.9992 26.5835 18.1805 26.7211 18.2896 26.9581C18.3152 27.0138 18.3373 27.0712 18.3646 27.1263C18.4112 27.2224 18.4857 27.282 18.5925 27.3048C18.7142 27.3309 18.8358 27.336 18.958 27.3179C19.0859 27.2985 19.1717 27.2275 19.2024 27.0979C19.2155 27.0439 19.2268 26.9893 19.2411 26.9353C19.2928 26.7341 19.4184 26.6068 19.619 26.55C19.6952 26.5284 19.7725 26.5187 19.8503 26.5199C20.0794 26.5238 20.3073 26.5113 20.5347 26.4863C20.5625 26.4835 20.5904 26.4835 20.6182 26.4812C20.8484 26.4647 21.0473 26.5318 21.211 26.6978C21.2343 26.7216 21.261 26.7427 21.2872 26.7631C21.3275 26.7944 21.3719 26.8183 21.423 26.8245C21.506 26.8347 21.589 26.8467 21.6725 26.8495C21.8573 26.8558 21.9908 26.7802 22.0727 26.6063C22.2688 26.1868 22.4529 25.7628 22.6041 25.3246C22.6536 25.1819 22.682 25.0336 22.6888 24.8824C22.6905 24.8381 22.6888 24.7931 22.6825 24.7494C22.6746 24.6965 22.6308 24.6732 22.5842 24.6925C22.5637 24.7011 22.5444 24.7124 22.5251 24.7232C22.3188 24.8398 22.096 24.9108 21.8647 24.9529C21.7004 24.9824 21.5344 25.0057 21.369 25.0296C20.9217 25.0938 20.4727 25.1404 20.0226 25.1813C19.6673 25.2137 19.311 25.237 18.9546 25.2621C18.2589 25.3115 17.5627 25.3422 16.8647 25.3303C16.148 25.3178 15.4409 25.2348 14.7464 25.0557C14.282 24.9364 13.8188 24.8125 13.3533 24.6994C12.8202 24.5704 12.2791 24.5044 11.7289 24.5135C11.1753 24.5226 10.6274 24.588 10.0801 24.6602C9.41619 24.7483 8.75234 24.8278 8.08337 24.8608C7.38541 24.8949 6.68972 24.8847 5.99404 24.8244C5.3262 24.7664 4.66632 24.6607 4.01042 24.5272C3.78648 24.4817 3.56368 24.4305 3.33974 24.3856C3.27495 24.3726 3.20959 24.3521 3.14138 24.3618C3.06977 24.372 3.02771 24.4169 3.03964 24.4879C3.05158 24.559 3.07034 24.63 3.09705 24.6965C3.17548 24.8932 3.2579 25.0887 3.34145 25.2831C3.38351 25.3803 3.43125 25.4752 3.47786 25.5701C3.61768 25.856 3.74272 26.1476 3.83593 26.4522C3.88481 26.6125 3.95302 26.7643 4.04793 26.9046C4.22015 27.1587 4.72088 27.2127 4.90845 26.8558C4.92663 26.8211 4.94482 26.7864 4.96358 26.7529C4.9937 26.6995 5.02042 26.6438 5.05452 26.5932C5.24947 26.3033 5.52001 26.1527 5.87184 26.1572L5.87013 26.1584ZM14.3502 19.1583C14.3389 19.16 14.2945 19.1634 14.2508 19.1714C13.6676 19.2782 13.1731 19.5545 12.7486 19.9626C12.6923 20.0166 12.6406 20.0757 12.6053 20.1467C12.5496 20.2598 12.5701 20.3672 12.6633 20.4491C12.7315 20.5093 12.8048 20.5145 12.8753 20.4588C12.9054 20.4349 12.9333 20.4059 12.9566 20.3752C13.0657 20.2314 13.1993 20.1132 13.3442 20.0086C13.6466 19.7898 13.9751 19.6312 14.3497 19.5818C14.394 19.5761 14.4383 19.5687 14.4809 19.555C14.5827 19.5221 14.6355 19.43 14.6208 19.3175C14.6088 19.2248 14.5423 19.1686 14.4343 19.1595C14.4179 19.1578 14.4008 19.1595 14.3508 19.1595L14.3502 19.1583ZM13.1942 18.362C13.1743 18.3654 13.1464 18.37 13.1191 18.3751C12.5263 18.4837 11.9773 18.7048 11.4663 19.0225C11.4242 19.0486 11.3862 19.0822 11.3487 19.1151C11.3191 19.1407 11.2981 19.1742 11.2856 19.2117C11.2554 19.3016 11.2878 19.3771 11.3464 19.4414C11.3998 19.4993 11.468 19.4908 11.5317 19.4601C11.5913 19.4311 11.6493 19.3976 11.7062 19.3624C12.1597 19.0805 12.6474 18.8849 13.1726 18.7843C13.2214 18.7747 13.2715 18.7656 13.3192 18.7514C13.4357 18.7167 13.4863 18.6474 13.4289 18.5053C13.3897 18.4075 13.3044 18.3683 13.1942 18.362ZM12.4564 18.2063C12.4433 18.187 12.4371 18.1688 12.4246 18.162C12.2171 18.0432 12.004 17.9358 11.7744 17.8647C11.6624 17.83 11.547 17.8107 11.4288 17.8221C11.2856 17.8357 11.16 17.8892 11.0599 17.9954C10.9877 18.0722 10.9542 18.1625 10.9627 18.2694C10.9673 18.3296 10.9883 18.3734 11.0457 18.4018C11.1651 18.4609 11.285 18.52 11.4004 18.5865C11.4657 18.6241 11.5192 18.6241 11.5851 18.5865C11.8369 18.4433 12.1029 18.3313 12.3768 18.2376C12.4018 18.229 12.4263 18.2182 12.4564 18.2069V18.2063ZM14.0649 20.9402C14.066 20.9811 14.0757 21.0186 14.095 21.0533C14.1627 21.1726 14.2809 21.2005 14.3906 21.1198C14.4304 21.0902 14.4667 21.0544 14.4991 21.0169C14.6918 20.7947 14.9271 20.6281 15.1829 20.4889C15.2704 20.4411 15.3642 20.4042 15.4557 20.3627C15.512 20.3371 15.5665 20.3093 15.6052 20.2593C15.6597 20.1888 15.6615 20.1018 15.612 20.0251C15.5643 19.9512 15.4796 19.9194 15.3943 19.9455C15.3574 19.9569 15.3216 19.9739 15.2858 19.9887C14.8794 20.157 14.5247 20.4042 14.2047 20.7032C14.1683 20.7373 14.1388 20.7782 14.1075 20.8168C14.0785 20.8526 14.0683 20.8964 14.0649 20.9402ZM15.645 21.6592C15.645 21.7177 15.6904 21.7757 15.7666 21.8138C15.8394 21.8496 15.9081 21.8405 15.9695 21.7904C15.9991 21.766 16.0235 21.7347 16.0491 21.7052C16.2742 21.4449 16.5282 21.2238 16.8528 21.0942C16.8937 21.0777 16.934 21.0567 16.971 21.0322C17.0034 21.0112 17.0341 20.9856 17.0591 20.9566C17.1182 20.8873 17.1199 20.7992 17.0687 20.7253C17.0164 20.6492 16.9352 20.6162 16.8511 20.6395C16.8243 20.6469 16.7993 20.6594 16.7738 20.6708C16.3964 20.8373 16.0673 21.072 15.7842 21.3716C15.7461 21.4119 15.7149 21.4585 15.6836 21.504C15.658 21.5415 15.6461 21.5847 15.645 21.6597V21.6592ZM13.588 19.0179C13.492 19.0367 13.4016 19.06 13.3107 19.0799C13.2237 19.0992 13.135 19.1117 13.0492 19.1356C12.9617 19.16 12.8668 19.168 12.7764 19.2351C12.8355 19.264 12.8804 19.2834 12.9225 19.3072C12.977 19.3379 13.0253 19.3322 13.0776 19.2976C13.2266 19.1992 13.3846 19.1174 13.5488 19.0475C13.5636 19.0412 13.575 19.0276 13.5875 19.0174L13.588 19.0179ZM14.3911 19.9097C14.4304 19.9523 14.4861 19.9614 14.5344 19.9819C14.5776 19.9995 14.6304 19.983 14.6333 19.9546C14.6378 19.9148 14.6037 19.8989 14.5787 19.8813C14.5628 19.8699 14.5372 19.8654 14.5168 19.8665C14.4736 19.8694 14.4281 19.8722 14.3906 19.9097H14.3911Z" fill="#000E3F"/>
</g>
<defs>
<clipPath id="clip0_4016_4286">
<rect width="30" height="30" fill="white"/>
</clipPath>
</defs>
</svg>
