<svg width="30" height="30" viewBox="0 0 30 30" fill="none" xmlns="http://www.w3.org/2000/svg">
<g clip-path="url(#clip0_4016_4280)">
<path opacity="0.25" d="M1.85434 2.85681C2.51987 2.09332 2.67541 1.09533 3.94829 1.18319C4.5586 1.22534 4.80617 1.76263 5.27638 1.90928C5.63259 2.0203 5.95912 1.87484 6.31652 1.95559C7.27949 2.17347 8.30183 2.52909 9.27608 2.7072C10.936 3.01057 12.2606 2.13191 13.6914 1.42482C14.668 0.942153 15.8643 0.17926 16.8201 1.10957C17.6115 1.87959 17.228 3.15781 17.697 4.11425C18.3607 5.46786 19.2632 6.37859 19.4573 7.96493C19.538 8.62452 19.4828 9.26512 19.4258 9.92174C19.3991 10.2316 18.9835 10.4632 18.9622 10.7197C19.0809 11.0521 23.1192 10.76 23.7058 10.7618C25.6305 10.7683 26.9307 10.7588 27.3184 12.832C27.9293 16.1021 28.2113 19.4659 28.6708 22.7621C28.8679 24.1745 29.5827 26.0648 28.1056 27.0141C26.9384 27.7645 25.0855 27.3876 23.78 27.368C21.9704 27.3401 20.159 27.3312 18.3495 27.3163C17.6192 27.3104 16.5482 27.1198 15.8702 27.3751C15.1833 27.6333 14.5362 28.5043 13.8689 28.892C8.25849 32.1543 0.745914 27.4327 2.10487 20.9329C2.26398 20.173 2.41122 19.4944 2.74487 18.7867C3.04647 18.1467 3.8717 17.4527 4.00172 16.7878C4.12936 16.1359 3.64254 15.2697 3.66094 14.5965C3.67875 13.9387 3.81708 13.3913 3.79037 12.7382C3.72506 11.1572 3.22102 9.47885 2.9307 7.92575C2.64098 6.37562 1.85315 4.38141 1.85315 2.85621L1.85434 2.85681ZM10.6754 13.0481C10.378 12.6302 8.97389 12.0495 8.45441 11.951C7.4297 11.7574 7.4386 11.8981 7.49856 12.7257C7.52231 13.0511 8.11363 14.2373 8.36357 14.3821C8.25255 14.318 9.93211 14.2557 10.0271 14.188C10.3839 13.9333 10.4949 13.44 10.6754 13.0481Z" fill="#000E3F"/>
<path d="M0.982727 2.18655C1.64826 1.42306 1.8038 0.425068 3.07668 0.512934C3.68699 0.555086 3.93456 1.09238 4.40477 1.23902C4.76098 1.35004 5.08751 1.20459 5.44491 1.28533C6.40788 1.50321 7.43022 1.85884 8.40447 2.03694C10.0644 2.34032 11.389 1.46165 12.8198 0.754567C13.7964 0.271896 14.9927 -0.490998 15.9485 0.439317C16.7399 1.20933 16.3564 2.48755 16.8254 3.44399C17.4891 4.79761 18.3916 5.70833 18.5857 7.29468C18.6664 7.95427 18.6112 8.59486 18.5542 9.25148C18.5275 9.56139 18.1119 9.79293 18.0905 10.0494C18.2093 10.3825 22.2476 10.0898 22.8341 10.0916C24.7589 10.0981 26.0591 10.0886 26.4468 12.1618C27.0577 15.4318 27.3397 18.7957 27.7992 22.0918C27.9963 23.5042 28.7111 25.3946 27.234 26.3439C26.0668 27.0943 24.2139 26.7173 22.9084 26.6977C21.0988 26.6698 19.2874 26.6609 17.4779 26.6461C16.7476 26.6401 15.6766 26.4495 14.9986 26.7048C14.3117 26.9631 13.6646 27.834 12.9973 28.2217C7.38688 31.484 -0.125695 26.7624 1.23326 20.2627C1.39237 19.5028 1.53961 18.8242 1.87326 18.1165C2.17486 17.4765 3.00009 16.7825 3.13011 16.1175C3.25775 15.4657 2.77093 14.5995 2.78933 13.9262C2.80714 13.2684 2.94547 12.721 2.91876 12.068C2.85345 10.487 2.34941 8.80859 2.05909 7.25549C1.77056 5.70596 0.982727 3.71175 0.982727 2.18655ZM9.80439 12.3785C9.50695 11.9605 8.10287 11.3799 7.58339 11.2813C6.55868 11.0878 6.56759 11.2285 6.62755 12.0561C6.6513 12.3814 7.24261 13.5676 7.49256 13.7125C7.38154 13.6484 9.06109 13.586 9.15608 13.5183C9.51289 13.2637 9.62391 12.7703 9.80439 12.3779V12.3785Z" fill="white"/>
<path d="M4.82969 24.3889L11.197 11.3716C11.3009 11.1597 11.7836 10.9911 12.2764 10.9928L24.1098 11.0326C24.6002 11.0344 25.0194 11.2036 25.0479 11.4144L26.8539 24.6003C26.9299 25.1571 26.3154 25.6178 25.4866 25.6089L5.79682 25.3905C4.99355 25.3816 4.5655 24.9286 4.82969 24.3889Z" fill="#14FD3B"/>
<g opacity="0.25">
<path d="M25.4873 25.609L5.79695 25.3905C4.99369 25.3816 4.56623 24.9286 4.82983 24.3889L6.00059 21.9958C6.00178 22.0106 6.00356 22.0254 6.00475 22.0403C6.09499 22.916 6.54916 23.819 7.47591 24.3064C8.4371 24.8116 9.68267 24.7772 10.8362 24.7244C13.1095 24.6205 15.3827 24.516 17.6559 24.4115C19.5949 24.3224 21.7204 24.171 23.0948 23.0893C24.7244 21.8064 24.6603 19.7474 24.4852 17.9379C24.3831 16.8781 24.2726 15.7929 23.7104 14.8269C23.1482 13.861 22.0297 13.0239 20.685 12.942C19.7161 12.8826 18.7834 13.2121 17.8216 13.3243C16.8604 13.4365 15.6778 13.2168 15.3477 12.4973C15.1144 11.9891 15.4171 11.4037 15.9164 11.0326C15.9289 11.0231 15.9414 11.0142 15.9544 11.0053L24.11 11.0326C24.6004 11.0338 25.0195 11.203 25.048 11.4144L26.854 24.6003C26.93 25.1566 26.3161 25.6179 25.4867 25.609H25.4873Z" fill="#000E3F"/>
</g>
<g opacity="0.7">
<path d="M23.714 16.0819C23.7086 15.9418 20.5205 15.9074 16.592 15.9092C12.6636 15.9133 9.47546 15.9525 9.47071 16.092C9.46537 16.228 12.6535 16.4132 16.5926 16.4091C20.5318 16.4073 23.7193 16.2179 23.714 16.0819Z" fill="white"/>
</g>
<g opacity="0.7">
<path d="M9.52239 15.6675C9.60728 15.6871 9.76046 15.4941 9.95578 15.1736C10.0531 15.0133 10.1624 14.8209 10.2788 14.6066C10.3963 14.3928 10.521 14.1566 10.6504 13.909C10.7804 13.6614 10.9027 13.4245 11.0108 13.2078C11.12 12.9911 11.2138 12.794 11.2886 12.6266C11.437 12.2906 11.5012 12.0685 11.4234 12.0359C11.3474 12.0032 11.1426 12.1677 10.8873 12.4693C10.7596 12.6201 10.6207 12.8053 10.4794 13.0161C10.3393 13.2274 10.1968 13.4649 10.0638 13.719C9.93085 13.9737 9.81983 14.2207 9.73018 14.4487C9.64172 14.6766 9.57404 14.885 9.5301 15.0631C9.44164 15.4187 9.43986 15.6491 9.52298 15.6681L9.52239 15.6675Z" fill="white"/>
</g>
<g opacity="0.7">
<path d="M6.44111 22.1572C6.60378 22.2083 7.36905 20.9995 8.15035 19.4577C8.93165 17.9159 9.43272 16.624 9.27005 16.5729C9.10738 16.5219 8.34211 17.7306 7.56081 19.2725C6.77951 20.8143 6.27844 22.1061 6.44111 22.1572Z" fill="white"/>
</g>
<g opacity="0.7">
<path d="M21.0131 21.4122C21.0113 21.2739 18.7333 21.183 15.9258 21.2086C13.1182 21.2341 10.8438 21.3671 10.8461 21.5048C10.8479 21.6431 13.1259 21.734 15.9335 21.7084C18.741 21.6829 21.0155 21.5499 21.0131 21.4122Z" fill="white"/>
</g>
<g opacity="0.7">
<path d="M18.0019 20.2484C18.0227 20.2187 17.9775 20.1605 17.8677 20.0851C17.7585 20.0097 17.5833 19.9213 17.3476 19.8387C17.2301 19.7972 17.0965 19.7598 16.9505 19.7259C16.8038 19.6945 16.6447 19.6648 16.4743 19.647C16.1341 19.609 15.7494 19.609 15.3546 19.6618C14.9604 19.717 14.5988 19.8198 14.2943 19.9462C14.1417 20.0085 14.004 20.0786 13.8799 20.1475C13.757 20.2187 13.6478 20.2894 13.5551 20.3594C13.3687 20.4995 13.2417 20.6301 13.1716 20.7299C13.101 20.8296 13.0832 20.8967 13.1158 20.9193C13.1853 20.9674 13.4275 20.8237 13.8265 20.6414C13.9256 20.5957 14.0366 20.5488 14.1554 20.5013C14.2759 20.4556 14.4035 20.4069 14.5424 20.3642C14.8179 20.2763 15.1302 20.2015 15.4644 20.1546C15.7987 20.1101 16.1246 20.0964 16.4221 20.1059C16.5711 20.1095 16.7124 20.1208 16.8454 20.132C16.9778 20.1457 17.1019 20.1599 17.2152 20.1766C17.6682 20.2413 17.958 20.3125 18.0031 20.2484H18.0019Z" fill="white"/>
</g>
<g opacity="0.7">
<path d="M19.161 15.3749C19.174 15.3423 19.1402 15.3001 19.0636 15.252C19.0446 15.2401 19.0226 15.2277 18.9983 15.2146C18.974 15.2021 18.9466 15.1909 18.917 15.1784C18.8576 15.1546 18.7887 15.1273 18.7098 15.1066C18.6706 15.0953 18.629 15.0846 18.5851 15.0733C18.5417 15.0626 18.4954 15.0543 18.4474 15.0448C18.3518 15.0252 18.2479 15.0133 18.138 15.0009C17.9184 14.9813 17.6732 14.9777 17.4179 14.9997C17.1632 15.0234 16.9251 15.0697 16.7161 15.1273C16.6123 15.1582 16.5149 15.1885 16.427 15.2241C16.3831 15.2413 16.3403 15.2574 16.3012 15.2758C16.262 15.2942 16.2246 15.312 16.1895 15.3298C16.1183 15.3642 16.0589 15.4022 16.0079 15.4361C15.9823 15.4533 15.9592 15.4693 15.939 15.4853C15.9188 15.502 15.901 15.518 15.8862 15.5334C15.825 15.594 15.8036 15.6409 15.8262 15.6706C15.8482 15.7002 15.9117 15.7103 16.0037 15.705C16.0269 15.7038 16.0518 15.7008 16.0779 15.6979C16.1046 15.6949 16.1337 15.6919 16.164 15.6878C16.2252 15.6801 16.2911 15.6664 16.3659 15.6557C16.4027 15.6498 16.4407 15.6433 16.4805 15.6355C16.5196 15.6284 16.5618 15.6231 16.6039 15.6153C16.6882 15.5993 16.7791 15.5874 16.8735 15.572C17.0635 15.5447 17.2707 15.518 17.4897 15.4972C17.7094 15.4788 17.919 15.4687 18.1113 15.4616C18.2075 15.4604 18.2995 15.4562 18.3862 15.4568C18.4295 15.4568 18.4717 15.4545 18.5121 15.4551C18.5524 15.4551 18.5916 15.4551 18.629 15.4551C18.7044 15.4527 18.7727 15.4539 18.8344 15.4509C18.8653 15.4497 18.8944 15.4473 18.9217 15.4456C18.9484 15.4444 18.9734 15.442 18.9965 15.4396C19.0879 15.4289 19.1467 15.4082 19.1598 15.3749H19.161Z" fill="white"/>
</g>
<g opacity="0.7">
<path d="M20.1929 17.0301C20.1371 16.972 19.8628 17.0735 19.4258 17.191C19.3166 17.2207 19.1961 17.2498 19.0678 17.2789C18.9378 17.3062 18.8001 17.3347 18.6528 17.3579C18.3595 17.4054 18.033 17.438 17.6887 17.4469C17.3443 17.4534 17.016 17.4362 16.7198 17.4018C16.5713 17.3852 16.4312 17.3632 16.3 17.3418C16.1694 17.3181 16.0471 17.2949 15.9361 17.27C15.4914 17.1726 15.21 17.0836 15.159 17.1441C15.1352 17.172 15.1744 17.2332 15.2747 17.3157C15.3751 17.3982 15.5395 17.498 15.7639 17.5965C15.8761 17.6458 16.0038 17.6927 16.1439 17.7378C16.2852 17.7806 16.439 17.8221 16.6046 17.8536C16.9353 17.9195 17.3123 17.9551 17.7071 17.9468C18.1019 17.9373 18.4753 17.8845 18.8007 17.8037C18.9639 17.7645 19.1147 17.7164 19.2525 17.6672C19.3896 17.6161 19.5137 17.5633 19.6217 17.5092C19.8384 17.4006 19.9958 17.2931 20.0902 17.2065C20.1846 17.1198 20.219 17.0574 20.1935 17.0301H20.1929Z" fill="white"/>
</g>
<path d="M23.9943 25.7763C23.9551 25.7472 23.9064 25.7579 23.8613 25.7573C23.3602 25.7519 22.8591 25.749 22.358 25.7436C21.5601 25.7353 20.7616 25.7258 19.9637 25.7169C19.072 25.7074 18.1808 25.6979 17.2891 25.6884C16.5316 25.6801 15.774 25.6712 15.017 25.6629C14.12 25.6528 13.2223 25.6433 12.3253 25.6332C11.4513 25.6231 10.5774 25.6124 9.70351 25.6029C8.82959 25.5934 7.95568 25.5845 7.08176 25.5744C6.66796 25.5697 6.25475 25.5631 5.84095 25.5566C5.65275 25.5536 5.4693 25.5275 5.29653 25.4688C4.96229 25.356 4.75212 25.1612 4.68622 24.8757C4.67909 24.8442 4.67019 24.8127 4.65891 24.7819C4.64763 24.7504 4.64229 24.7189 4.65238 24.6869C4.69453 24.5539 4.72837 24.4197 4.79249 24.2897C5.59041 22.6636 6.38536 21.0363 7.18091 19.4095C8.46269 16.7896 9.74388 14.169 11.0257 11.5491C11.0423 11.5146 11.0613 11.4814 11.0773 11.4469C11.1664 11.2558 11.3362 11.1228 11.5641 11.0337C11.804 10.9405 12.0611 10.9025 12.3253 10.8996C12.7159 10.896 13.106 10.8984 13.4966 10.8996C13.7822 10.9001 14.0677 10.9031 14.3533 10.9049C14.8134 10.9073 15.2741 10.9091 15.7342 10.9102C17.529 10.9156 19.3243 10.9209 21.119 10.9263C21.7715 10.9281 22.4245 10.9286 23.077 10.9328C23.4908 10.9352 23.904 10.9423 24.3178 10.9482C24.4585 10.95 24.5957 10.9726 24.7287 11.0076C24.7839 11.0219 24.8373 11.0403 24.8895 11.0604C25.1282 11.1513 25.2689 11.2967 25.2956 11.5081C25.3259 11.7408 25.3603 11.9735 25.3924 12.2063C25.4346 12.512 25.4767 12.8178 25.5189 13.1235C25.558 13.4109 25.5972 13.6988 25.6364 13.9862C25.6792 14.2967 25.7225 14.6066 25.7647 14.9171C25.8044 15.2092 25.843 15.5013 25.8828 15.7934C25.9238 16.0944 25.9659 16.3954 26.0075 16.697C26.0472 16.9843 26.0858 17.2716 26.1256 17.5596C26.1684 17.8701 26.2111 18.18 26.2539 18.4905C26.2936 18.7826 26.3328 19.0747 26.3726 19.3668C26.4136 19.6678 26.4557 19.9688 26.4973 20.2704C26.537 20.5625 26.5768 20.8546 26.6166 21.1467C26.6587 21.4524 26.7015 21.7582 26.7431 22.0639C26.7828 22.356 26.822 22.6481 26.8618 22.9402C26.9028 23.2412 26.9449 23.5422 26.9865 23.8438C27.0233 24.1086 27.0648 24.3728 27.0945 24.6376C27.1278 24.938 27.0072 25.1986 26.7347 25.4129C26.5091 25.5899 26.2337 25.6932 25.9255 25.7478C25.8864 25.7549 25.843 25.7508 25.8121 25.7769H23.9937L23.9943 25.7763ZM20.6435 16.5628C20.6061 16.6233 20.6102 16.694 20.5888 16.7605C20.498 17.0407 20.3021 17.2705 20.0397 17.4676C19.7838 17.6593 19.4887 17.806 19.1699 17.9229C18.4634 18.183 17.7201 18.291 16.9436 18.2495C16.5102 18.2263 16.0922 18.1479 15.6945 18.006C15.4148 17.9063 15.1673 17.7715 14.9583 17.594C14.7101 17.3833 14.5468 17.1398 14.5029 16.8507C14.4899 16.7634 14.4887 16.6768 14.4993 16.5895C14.5035 16.5551 14.4845 16.539 14.4412 16.5355C14.4121 16.5331 14.383 16.5325 14.3539 16.5325C14.1034 16.5307 13.8528 16.5283 13.6023 16.5266C13.1766 16.5242 12.7515 16.523 12.3258 16.52C11.2768 16.5135 10.2283 16.5052 9.17928 16.4999C8.92933 16.4987 8.97445 16.4725 8.88362 16.6584C8.02633 18.4092 7.16963 20.1606 6.31293 21.9114C6.15976 22.2236 6.00718 22.5365 5.8546 22.8494C5.83026 22.8993 5.8267 22.9343 5.92466 22.9396C5.95375 22.9414 5.98225 22.9467 6.01075 22.9509C6.29869 22.9954 6.57356 23.0679 6.8247 23.1908C7.21772 23.3825 7.46113 23.6568 7.54188 24.0166C7.57869 24.1804 7.57453 24.3461 7.54009 24.5099C7.49201 24.7385 7.39108 24.9528 7.25394 25.1571C7.22959 25.1933 7.20407 25.2295 7.1821 25.2669C7.17082 25.2865 7.18032 25.3037 7.20881 25.3067C7.24919 25.3108 7.29015 25.312 7.33052 25.3126C7.52881 25.3156 7.72651 25.3186 7.92481 25.3209C8.22165 25.3245 8.51909 25.3286 8.81653 25.3316C8.9234 25.3328 8.92696 25.3292 8.95486 25.2426C8.98039 25.1624 9.00355 25.0817 9.02848 25.0015C9.38113 23.8682 9.8169 22.7556 10.3512 21.6667C10.3803 21.6068 10.4136 21.548 10.4516 21.491C10.5786 21.2993 10.7828 21.1882 11.0494 21.1449C11.1871 21.1223 11.3267 21.1188 11.4668 21.1188C11.7583 21.1188 12.0498 21.1164 12.3413 21.12C12.4226 21.1211 12.4665 21.0992 12.5028 21.0416C12.7171 20.7062 13.0347 20.4414 13.4188 20.2235C13.7471 20.0371 14.1051 19.894 14.4839 19.7836C15.3252 19.5378 16.1878 19.4475 17.0772 19.5764C17.5895 19.6506 18.0348 19.8299 18.4035 20.1232C18.7098 20.3672 18.9152 20.6569 19.0239 20.9882C19.0732 21.1372 19.0654 21.1158 19.2269 21.1182C19.256 21.1182 19.2851 21.1182 19.3142 21.1182C19.6639 21.1182 20.0136 21.1182 20.3632 21.1182C20.5372 21.1182 20.6975 21.1526 20.8412 21.231C20.9759 21.3052 21.0674 21.4037 21.0929 21.5332C21.1036 21.5872 21.1036 21.643 21.1024 21.6982C21.0804 22.5383 21.0567 23.3778 21.0341 24.2178C21.024 24.5895 21.0157 24.9611 21.0062 25.3334C21.0056 25.3607 21.005 25.3886 21.0062 25.4159C21.0074 25.4492 21.0317 25.4652 21.0727 25.4658C21.1077 25.4664 21.1428 25.467 21.1778 25.467C21.5975 25.4705 22.0167 25.4735 22.4364 25.4771C22.6216 25.4788 22.6216 25.4794 22.659 25.3387C22.6602 25.334 22.6608 25.3298 22.662 25.3251C22.8128 24.7563 23.1483 24.2659 23.6754 23.8604C24.1979 23.4585 24.8284 23.2133 25.5319 23.0756C25.827 23.018 26.1274 22.9895 26.4296 22.9699C26.5287 22.9634 26.5311 22.9622 26.5222 22.8892C26.4937 22.6606 26.464 22.4326 26.4331 22.204C26.3809 21.8205 26.3257 21.4376 26.2734 21.0541C26.2325 20.7572 26.1951 20.4604 26.1541 20.1641C26.1019 19.7853 26.0472 19.4066 25.9956 19.0284C25.9434 18.6449 25.8935 18.2613 25.8412 17.8784C25.7854 17.4676 25.7278 17.0573 25.6726 16.6465C25.6536 16.5064 25.6501 16.5034 25.4749 16.5064C24.6242 16.5212 23.7734 16.5331 22.9232 16.5414C22.212 16.5479 21.5014 16.5468 20.7901 16.5497C20.7438 16.5497 20.6969 16.5444 20.647 16.5616L20.6435 16.5628ZM9.11575 16.2345C9.15612 16.2363 9.1965 16.2398 9.23627 16.2398C10.3958 16.2452 11.5558 16.2505 12.7153 16.2564C13.024 16.2582 13.3327 16.2624 13.6415 16.2647C13.927 16.2665 14.2126 16.2659 14.4982 16.2689C14.5664 16.2695 14.6021 16.2493 14.6294 16.2C14.7825 15.918 15.0349 15.699 15.3424 15.5161C15.6665 15.3237 16.0257 15.1836 16.4122 15.0881C16.753 15.0037 17.1015 14.9563 17.4583 14.9367C17.9867 14.9076 18.5062 14.9468 19.015 15.0625C19.4056 15.1516 19.7636 15.2923 20.064 15.5131C20.308 15.6924 20.4838 15.9044 20.5746 16.1591C20.59 16.2018 20.5799 16.257 20.6334 16.2837C20.6832 16.3087 20.7474 16.295 20.805 16.295C21.5684 16.2932 22.3313 16.2903 23.0948 16.2796C23.8755 16.2689 24.6562 16.2642 25.4369 16.2446C25.4779 16.2434 25.5183 16.2422 25.5592 16.2392C25.5848 16.2374 25.6014 16.2244 25.602 16.2036C25.6026 16.1763 25.602 16.1484 25.5984 16.1211C25.5735 15.9341 25.5474 15.747 25.5212 15.56C25.4678 15.1765 25.4144 14.7936 25.3615 14.4101C25.3099 14.0313 25.26 13.6525 25.2084 13.2737C25.1543 12.8765 25.0962 12.48 25.0451 12.0828C25.0261 11.9338 25.0101 11.9504 24.8575 11.945C24.4425 11.9308 24.0346 11.8821 23.6386 11.78C23.2225 11.6725 22.8467 11.5122 22.5552 11.2475C22.5124 11.2083 22.4643 11.1976 22.4026 11.1976C22.1289 11.1976 21.8546 11.1964 21.5809 11.1958C21.5518 11.1958 21.5227 11.1976 21.4942 11.2006C21.4693 11.2029 21.4521 11.216 21.4497 11.2362C21.4461 11.2635 21.4438 11.2908 21.4432 11.3187C21.4366 11.6814 21.3939 12.043 21.4099 12.4063C21.4111 12.4295 21.4081 12.4521 21.4075 12.4752C21.4004 12.6527 21.2835 12.7649 21.0739 12.8231C20.9676 12.8528 20.8578 12.8593 20.7468 12.8587C20.4844 12.8581 20.2219 12.8587 19.9601 12.8552C19.8818 12.854 19.8337 12.8712 19.7945 12.9294C19.6164 13.1936 19.3439 13.3818 19.012 13.5213C18.7686 13.6234 18.5091 13.6905 18.2402 13.7362C17.8258 13.8075 17.4067 13.8116 16.9875 13.7837C16.5915 13.757 16.2044 13.6905 15.8352 13.5706C15.6458 13.5094 15.4659 13.4346 15.3056 13.3325C15.1346 13.2233 15.0016 13.0932 14.9339 12.9252C14.9072 12.8581 14.9031 12.857 14.8081 12.8576C14.6507 12.8593 14.4934 12.8617 14.3367 12.8694C14.2191 12.8748 14.104 12.8671 13.9882 12.8558C13.9122 12.8486 13.8404 12.8291 13.7739 12.7994C13.6391 12.7394 13.5756 12.6474 13.5857 12.5257C13.5874 12.5031 13.594 12.4806 13.5975 12.4574C13.6575 12.0602 13.762 11.6702 13.9039 11.286C13.9163 11.2516 13.9407 11.2184 13.9211 11.1816C13.9092 11.178 13.8985 11.1715 13.8884 11.1715C13.6379 11.1697 13.3874 11.1691 13.1368 11.1679C13.0893 11.1679 13.0644 11.1863 13.0478 11.2207C12.9504 11.4238 12.7622 11.5645 12.5301 11.6708C12.4398 11.7123 12.3448 11.7479 12.2487 11.78C12.0551 11.8447 11.8527 11.8886 11.6461 11.9183C11.5143 11.9373 11.3819 11.9528 11.2489 11.9664C11.1955 11.9718 11.1652 11.9902 11.1491 12.0305C11.1331 12.0697 11.1112 12.1071 11.0922 12.1457C10.7757 12.7922 10.4599 13.4388 10.144 14.0853C9.81512 14.7574 9.48622 15.4294 9.1585 16.1021C9.13831 16.1436 9.1021 16.1828 9.11753 16.2363L9.11575 16.2345ZM9.26952 25.3269C9.32414 25.3304 9.35857 25.3346 9.39301 25.3352C9.96414 25.3429 10.5353 25.3512 11.1058 25.3571C11.2566 25.3589 11.2619 25.3767 11.3124 25.2283C11.4347 24.8697 11.5659 24.5123 11.6953 24.1549C11.7322 24.0534 11.7767 23.9537 11.8473 23.8628C11.9494 23.7304 12.0937 23.6461 12.289 23.6164C12.3876 23.6016 12.4861 23.6016 12.5847 23.6016C14.421 23.6016 16.2567 23.6016 18.093 23.6016C18.2562 23.6016 18.4195 23.601 18.5828 23.5992C18.6831 23.598 18.7811 23.6093 18.8755 23.6342C19.0726 23.6859 19.1919 23.81 19.199 23.9744C19.2026 24.0475 19.1937 24.1211 19.1877 24.1947C19.1586 24.5657 19.1284 24.9368 19.0993 25.3085C19.0969 25.3405 19.0975 25.3726 19.0993 25.4046C19.1005 25.4248 19.1153 25.4397 19.1408 25.442C19.1753 25.445 19.2103 25.4456 19.2453 25.4462C19.63 25.4509 20.0147 25.4557 20.3989 25.4598C20.4689 25.4604 20.539 25.4616 20.6084 25.461C20.6411 25.461 20.6625 25.4456 20.666 25.4195C20.669 25.3969 20.6696 25.3738 20.6702 25.3506C20.6904 24.5705 20.71 23.7898 20.7301 23.0097C20.7408 22.5917 20.7533 22.1744 20.7646 21.7564C20.7658 21.7059 20.7675 21.6549 20.7622 21.605C20.7527 21.5201 20.6939 21.4607 20.5972 21.4233C20.5497 21.4049 20.4998 21.3931 20.4464 21.3907C20.3591 21.3871 20.2718 21.3824 20.1845 21.3824C17.8472 21.3824 15.5098 21.3824 13.1724 21.3824C13.1083 21.3824 13.0442 21.3836 12.9801 21.3824C12.5022 21.3711 12.0242 21.3675 11.5463 21.3747C11.4127 21.377 11.2774 21.3812 11.1456 21.3972C10.9425 21.4216 10.7906 21.507 10.7086 21.6608C10.6926 21.6905 10.6789 21.7208 10.6641 21.7505C10.1826 22.7271 9.78603 23.7245 9.45238 24.7385C9.38944 24.9291 9.33245 25.1209 9.26774 25.3286L9.26952 25.3269ZM11.6306 25.3506C11.6906 25.3702 11.7494 25.3619 11.8076 25.3625C12.2326 25.3678 12.6577 25.372 13.0828 25.3767C13.9971 25.3874 14.9114 25.3993 15.8257 25.4094C16.4021 25.4159 16.9786 25.4201 17.5551 25.426C17.8579 25.4296 18.1606 25.4355 18.4634 25.4397C18.5388 25.4409 18.6148 25.4397 18.6908 25.4391C18.7324 25.4391 18.7549 25.4213 18.7585 25.3892C18.7656 25.3298 18.7733 25.2705 18.7781 25.2111C18.8006 24.9273 18.8232 24.6435 18.8446 24.3591C18.8529 24.2493 18.8618 24.1389 18.8624 24.0291C18.8624 23.9257 18.8202 23.8895 18.6932 23.8693C18.5839 23.8521 18.4735 23.848 18.3625 23.8498C18.0538 23.8545 17.7457 23.8652 17.4369 23.8658C15.8233 23.8676 14.2096 23.8664 12.5966 23.867C12.5212 23.867 12.4452 23.8682 12.3698 23.8735C12.257 23.8818 12.1715 23.9281 12.1216 24.0071C12.0878 24.0599 12.0634 24.1169 12.0409 24.1733C12.0112 24.2475 11.9874 24.3235 11.9601 24.3983C11.8622 24.6673 11.763 24.9356 11.6663 25.2046C11.649 25.2521 11.6259 25.2996 11.6324 25.35L11.6306 25.3506ZM15.4029 11.1768C15.3495 11.175 15.3151 11.1727 15.2806 11.1727C15.007 11.1715 14.7333 11.1709 14.4596 11.1703C14.4245 11.1703 14.3895 11.1709 14.3545 11.1715C14.3147 11.1715 14.2898 11.1881 14.2773 11.2172C14.2684 11.2391 14.2595 11.2605 14.2506 11.2825C14.104 11.6607 13.9983 12.0454 13.9294 12.4366C13.9074 12.5607 13.9098 12.5791 14.1004 12.5981C14.1289 12.6011 14.1586 12.5987 14.1877 12.5987C14.2518 12.5987 14.3159 12.5969 14.38 12.5969C16.3546 12.5969 18.3287 12.5969 20.3033 12.5969C20.4375 12.5969 20.571 12.6005 20.7052 12.6029C20.7877 12.604 20.8679 12.5969 20.9462 12.5761C21.0121 12.5583 21.0543 12.5227 21.0644 12.4675C21.0697 12.436 21.0721 12.404 21.0727 12.3719C21.0751 12.2805 21.0727 12.1885 21.0769 12.097C21.0887 11.8222 21.1024 11.5467 21.1149 11.2718C21.1178 11.2089 21.1036 11.194 21.0306 11.1934C20.815 11.1917 20.5995 11.1917 20.384 11.1934C20.3104 11.1934 20.2979 11.2065 20.2914 11.2688C20.2873 11.3098 20.289 11.3519 20.2813 11.3923C20.2498 11.5574 20.1394 11.6464 19.9304 11.6702C19.8444 11.6797 19.7565 11.6803 19.6692 11.6809C19.5879 11.6809 19.5065 11.6743 19.4246 11.6743C18.2479 11.6743 17.0718 11.6761 15.8951 11.6761C15.8197 11.6761 15.7431 11.6749 15.6689 11.6654C15.4979 11.644 15.4012 11.5586 15.3905 11.4232C15.3869 11.3775 15.3917 11.3318 15.394 11.2855C15.3958 11.254 15.3994 11.2219 15.4029 11.1768ZM24.3707 25.5026C24.3707 25.5026 24.3707 25.5038 24.3707 25.505C24.4639 25.505 24.5571 25.5044 24.6503 25.505C24.9477 25.5079 25.2446 25.5133 25.542 25.5139C25.8406 25.5145 26.1197 25.4575 26.3643 25.3174C26.632 25.1636 26.7716 24.9564 26.7632 24.6928C26.7615 24.6287 26.7561 24.564 26.7478 24.5004C26.7039 24.1715 26.6582 23.8432 26.6124 23.5149C26.6018 23.4371 26.5893 23.36 26.5768 23.2828C26.5727 23.2567 26.5525 23.2406 26.5204 23.2388C26.48 23.2371 26.4391 23.2377 26.3981 23.24C25.84 23.2673 25.3016 23.3629 24.7993 23.5594C23.8636 23.9263 23.2605 24.5088 23.0022 25.3091C22.988 25.3536 22.9802 25.3993 22.9707 25.4444C22.966 25.467 22.9856 25.4812 23.0081 25.4836C23.0717 25.4895 23.1358 25.4931 23.1993 25.4937C23.59 25.4978 23.98 25.5008 24.3707 25.5044V25.5026ZM17.5693 16.5503C17.5693 16.5468 17.5693 16.5438 17.5693 16.5402C16.7601 16.5402 15.9509 16.5402 15.1417 16.5402C15.0663 16.5402 14.9903 16.5373 14.9149 16.539C14.8609 16.5402 14.8383 16.5557 14.8342 16.5954C14.8229 16.7005 14.8217 16.8056 14.8496 16.9101C14.9114 17.1387 15.064 17.3245 15.2795 17.48C15.5371 17.6665 15.8411 17.7893 16.1742 17.8683C16.788 18.0144 17.4108 18.0316 18.0395 17.9396C18.5192 17.8695 18.9693 17.7365 19.3842 17.5323C19.6075 17.4224 19.8117 17.2936 19.9791 17.1321C20.1097 17.0063 20.2095 16.8685 20.2617 16.71C20.3134 16.5533 20.3122 16.5509 20.102 16.5503C19.2578 16.5503 18.4136 16.5503 17.5693 16.5503ZM12.853 21.1194H16.265C17.016 21.1194 17.7676 21.1194 18.5186 21.1194C18.5709 21.1194 18.6231 21.1176 18.6754 21.1146C18.695 21.1134 18.7063 21.101 18.7051 21.0867C18.7039 21.0689 18.6979 21.0505 18.692 21.0333C18.4943 20.4829 18.0609 20.103 17.374 19.9082C17.0071 19.8043 16.6254 19.7758 16.2389 19.7842C15.7348 19.7948 15.2444 19.8685 14.7653 19.9902C14.2969 20.1095 13.8564 20.2734 13.4681 20.5162C13.2473 20.6539 13.0555 20.813 12.9059 21.0018C12.8821 21.0321 12.8477 21.0594 12.853 21.1188V21.1194ZM17.6145 16.2867C17.6145 16.2867 17.6145 16.2921 17.6145 16.295C18.4296 16.295 19.2441 16.295 20.0593 16.295C20.2712 16.295 20.3062 16.3212 20.2101 16.1252C20.1572 16.0178 20.0795 15.921 19.9868 15.8314C19.8604 15.7091 19.709 15.6099 19.5404 15.5262C19.158 15.3368 18.7365 15.2394 18.2924 15.1985C17.7243 15.1468 17.1656 15.1925 16.6159 15.3125C16.1967 15.4045 15.8108 15.5505 15.4706 15.7678C15.3115 15.8693 15.1708 15.9851 15.0586 16.1211C15.0301 16.1555 15.0058 16.1917 14.9832 16.2291C14.9713 16.2487 14.985 16.2648 15.0135 16.2671C15.0426 16.2695 15.0717 16.2695 15.1008 16.2701C15.9391 16.276 16.7768 16.2814 17.615 16.2873L17.6145 16.2867ZM6.24822 25.3067C6.3824 25.3067 6.51598 25.3049 6.65015 25.3073C6.71427 25.3085 6.7588 25.2954 6.79561 25.2503C7.00637 24.9932 7.16844 24.7219 7.22366 24.415C7.28599 24.0682 7.16191 23.6259 6.57238 23.376C6.33312 23.2745 6.07664 23.2193 5.80948 23.1884C5.78633 23.186 5.76318 23.1848 5.74002 23.1854C5.70796 23.1854 5.68481 23.1973 5.67293 23.221C5.66165 23.2424 5.65037 23.2632 5.63969 23.2846C5.45327 23.6657 5.26685 24.0463 5.08162 24.4274C5.0549 24.4832 5.03056 24.5402 5.01453 24.5984C4.93557 24.8852 5.0929 25.1179 5.43783 25.2307C5.51917 25.2574 5.60229 25.2752 5.68956 25.2847C5.87479 25.3061 6.0618 25.299 6.24763 25.3061L6.24822 25.3067ZM17.3669 12.8552C16.7435 12.8552 16.1195 12.8552 15.4962 12.8552C15.4493 12.8552 15.4029 12.8546 15.356 12.8552C15.2723 12.857 15.2575 12.8789 15.3002 12.9401C15.3661 13.0351 15.4635 13.1069 15.5745 13.1675C15.7188 13.247 15.8767 13.3052 16.0424 13.3509C16.7334 13.5409 17.4399 13.5896 18.1601 13.4809C18.4242 13.4412 18.6783 13.3735 18.9129 13.2672C19.1016 13.1817 19.2691 13.076 19.3985 12.9365C19.4121 12.9217 19.424 12.9056 19.4323 12.889C19.4389 12.8754 19.4311 12.8599 19.4116 12.8587C19.3593 12.8558 19.3071 12.8546 19.2548 12.8546C18.6255 12.8546 17.9962 12.8546 17.3663 12.8546L17.3669 12.8552ZM17.8389 11.1863V11.1727C17.2161 11.1727 16.5933 11.1721 15.9705 11.1727C15.7419 11.1727 15.7509 11.1424 15.7396 11.3543C15.7372 11.3947 15.7621 11.4155 15.8114 11.4161C15.8868 11.4173 15.9628 11.4149 16.0382 11.4149C17.2196 11.4155 18.4017 11.4167 19.5831 11.4173C19.6585 11.4173 19.7345 11.4173 19.8099 11.4131C19.9019 11.4078 19.9281 11.384 19.9393 11.3092C19.9566 11.1952 19.9471 11.1857 19.7939 11.1857C19.142 11.1851 18.4901 11.1857 17.8383 11.1857L17.8389 11.1863ZM23.6624 11.2V11.1976C23.5051 11.1976 23.3477 11.1976 23.191 11.1976C23.1388 11.1976 23.0865 11.1994 23.0343 11.2C23.02 11.2 23.0099 11.2053 23.0105 11.216C23.0105 11.2243 23.0129 11.235 23.02 11.2397C23.061 11.2659 23.1019 11.2914 23.1453 11.3145C23.3252 11.4095 23.5217 11.4784 23.7271 11.5318C23.9937 11.6013 24.2685 11.6399 24.5464 11.6648C24.6675 11.6755 24.7904 11.6797 24.9121 11.6862C24.9436 11.688 24.9709 11.6785 24.9762 11.6512C25.0029 11.5158 24.9234 11.3787 24.7744 11.3116C24.7192 11.2866 24.6592 11.2676 24.5986 11.2522C24.471 11.2184 24.3386 11.2023 24.2038 11.2012C24.0234 11.1994 23.8429 11.2012 23.6624 11.2012V11.2ZM11.3783 11.688C11.5214 11.672 11.6692 11.6488 11.8147 11.6155C12.0391 11.5633 12.2528 11.4927 12.4464 11.3882C12.5378 11.3389 12.6227 11.2831 12.6821 11.2071C12.7046 11.1774 12.6898 11.1525 12.6458 11.1519C12.4006 11.1465 12.1572 11.1602 11.9192 11.2089C11.8414 11.2249 11.7654 11.2516 11.693 11.2795C11.4959 11.3555 11.3926 11.4903 11.3368 11.6512C11.3296 11.6708 11.3421 11.6862 11.3789 11.6892L11.3783 11.688Z" fill="#000E3F"/>
<path d="M17.3354 8.69641C17.3324 8.94457 17.1614 9.1589 16.921 9.21826C16.1076 9.41834 15.3174 9.85114 14.5848 10.2798C13.398 10.9744 12.0842 11.7082 10.7294 11.4737C9.33955 11.2327 8.20619 10.0025 6.79617 10.018C6.24048 10.0245 5.72872 10.2246 5.26029 10.5232C4.93733 10.7292 4.50927 10.5535 4.42913 10.1789C3.94052 7.89493 3.50356 5.60031 3.11885 3.29738C3.08323 3.08305 3.17703 2.86576 3.36107 2.74881C4.01651 2.33263 4.8174 2.14087 5.58682 2.25485C6.47024 2.38547 7.26638 2.87467 8.14445 3.03853C9.73257 3.33419 11.2981 2.53864 12.7212 1.77397C13.2621 1.48306 13.8243 1.18918 14.4002 0.954668C14.7914 0.794965 15.2023 1.11793 15.1488 1.53708C15.0639 2.19964 15.1619 2.88654 15.451 3.48914C15.8239 4.2645 16.4722 4.88016 16.8557 5.65077C17.3217 6.58762 17.349 7.6337 17.3366 8.69582L17.3354 8.69641Z" fill="#FD2261"/>
<g opacity="0.25">
<path d="M17.3354 8.69652C17.3324 8.94469 17.1614 9.15901 16.921 9.21838C16.107 9.41786 15.3168 9.85125 14.5848 10.2799C13.398 10.9745 12.0842 11.7089 10.7294 11.4738C9.33955 11.2328 8.20679 10.0026 6.79618 10.0187C6.24048 10.0252 5.72931 10.2247 5.2603 10.5239C4.93733 10.7299 4.50928 10.5536 4.42913 10.1796C3.94052 7.89563 3.50356 5.60101 3.11885 3.29749C3.08264 3.08317 3.17703 2.86588 3.36048 2.74892C3.6413 2.57022 3.94883 2.43367 4.26883 2.34402C4.64939 3.2963 4.85362 4.31923 4.85481 5.34513C4.85481 5.85155 4.80909 6.36569 4.92486 6.85786C5.04063 7.35062 5.36123 7.83448 5.84865 7.97222C6.52249 8.16279 7.22364 7.64272 7.91529 7.75315C8.51195 7.84814 8.92694 8.37237 9.39655 8.75233C10.5774 9.70699 12.4024 9.75626 13.6331 8.86691C14.8633 7.97756 15.3893 6.22914 14.8538 4.80844C14.5741 4.0681 14.0416 3.41326 13.9401 2.6284C13.8605 2.00799 14.1004 1.36918 14.5308 0.919161C14.8769 0.868698 15.1963 1.16495 15.1482 1.53719C15.0627 2.19975 15.1613 2.88665 15.4504 3.48925C15.8233 4.26461 16.4716 4.88027 16.8551 5.65089C17.3211 6.58773 17.3485 7.63441 17.3354 8.69593V8.69652Z" fill="#000E3F"/>
</g>
<path d="M1.97896 2.331C2.87246 6.754 3.66742 11.1966 4.36085 15.6552C4.55677 16.915 4.74437 18.1766 4.92485 19.4388C4.98185 19.839 5.4099 20.1109 5.79639 20.0402C6.20782 19.9654 6.45539 19.57 6.3978 19.1687C5.76018 14.7018 5.02341 10.2491 4.1863 5.81538C3.94942 4.56209 3.70482 3.31118 3.4525 2.06087C3.37235 1.66428 2.98408 1.38584 2.58096 1.45946C2.18734 1.5313 1.89881 1.93323 1.97955 2.331H1.97896Z" fill="white"/>
<g opacity="0.25">
<path d="M5.79691 20.04C5.41042 20.1106 4.98237 19.8387 4.92537 19.4379C4.74489 18.1758 4.55729 16.9142 4.36137 15.6544C4.2171 14.7282 4.06868 13.8026 3.9161 12.8777C3.97072 12.7666 4.02118 12.6532 4.06808 12.5369C4.82742 10.6572 4.39224 8.52411 3.83001 6.57621C3.34497 4.89725 2.76671 3.1797 2.80055 1.45206C3.11699 1.49183 3.38771 1.73703 3.45243 2.06C3.70474 3.30972 3.94994 4.56122 4.18623 5.81391C5.02393 10.2482 5.7607 14.7003 6.39773 19.1672C6.45532 19.5692 6.20775 19.964 5.79632 20.0388L5.79691 20.04Z" fill="#000E3F"/>
</g>
<path d="M3.6146 13.82C3.92214 15.7168 4.21126 17.6166 4.48317 19.5194C4.57163 20.1404 5.26447 20.6225 5.87776 20.4824C6.53082 20.3328 6.93512 19.7527 6.84072 19.0878C6.56941 17.1856 6.27969 15.2858 5.97215 13.3884C5.87182 12.7697 5.19917 12.2829 4.57757 12.4254C3.93401 12.5726 3.50774 13.1568 3.6152 13.82H3.6146Z" fill="white"/>
<g opacity="0.25">
<path d="M5.87773 20.4818C5.80946 20.4978 5.7394 20.5055 5.66994 20.5061C6.06 17.7894 5.78452 14.9747 4.83105 12.4004C5.37072 12.4159 5.88545 12.8528 5.97213 13.3877C6.27966 15.2846 6.56879 17.1844 6.8407 19.0872C6.93569 19.7521 6.53079 20.3321 5.87773 20.4818Z" fill="#000E3F"/>
</g>
<g opacity="0.7">
<path d="M14.2736 1.17845C14.2475 1.14283 14.105 1.19745 13.8693 1.32331C13.6336 1.44858 13.3059 1.64925 12.9027 1.88791C12.4996 2.12717 12.0193 2.40502 11.469 2.65971C11.1941 2.78617 10.9002 2.90669 10.5927 3.00643C10.284 3.10676 9.95803 3.1881 9.62081 3.24034C8.94638 3.34839 8.29332 3.31634 7.73525 3.16495C7.70022 3.15485 7.66579 3.14535 7.63135 3.13526L7.5797 3.12101L7.52983 3.1032C7.46334 3.07886 7.39744 3.05867 7.33273 3.03255C7.2033 2.98149 7.07625 2.9245 6.95158 2.86751C6.70282 2.75292 6.46475 2.63893 6.23558 2.5481C6.00701 2.45667 5.78735 2.38958 5.58609 2.35634C5.38482 2.3219 5.20375 2.32428 5.06126 2.34743C4.91759 2.37177 4.81251 2.41333 4.74779 2.45192C4.68249 2.4911 4.65518 2.52376 4.66171 2.54394C4.66883 2.56532 4.71039 2.57304 4.77985 2.57541C4.84931 2.57778 4.94727 2.57957 5.06898 2.59381C5.19069 2.60925 5.33555 2.64012 5.49941 2.69949C5.66327 2.75827 5.84553 2.84435 6.0462 2.95359C6.24687 3.06283 6.46534 3.19582 6.71291 3.33474C6.8364 3.4042 6.9682 3.47545 7.11009 3.54253C7.18074 3.57637 7.25733 3.60606 7.33273 3.63812C7.35173 3.64583 7.37072 3.65415 7.38972 3.66187C7.40931 3.6684 7.42891 3.67552 7.4485 3.68205C7.48768 3.6957 7.52746 3.70936 7.56724 3.72301C8.20902 3.93377 8.96419 3.98602 9.71759 3.86491C10.0952 3.80613 10.455 3.71114 10.7916 3.5924C11.1294 3.47366 11.4405 3.33118 11.7272 3.18097C12.014 3.03077 12.2752 2.87166 12.5127 2.71493C12.7502 2.55819 12.9639 2.40265 13.1539 2.256C13.5344 1.96272 13.823 1.70624 14.0153 1.51864C14.2065 1.33044 14.2991 1.20992 14.273 1.1743L14.2736 1.17845Z" fill="white"/>
</g>
<path d="M3.77027 2.40283C3.84923 2.40461 3.90445 2.36721 3.96322 2.34465C4.3984 2.17723 4.84723 2.09055 5.31387 2.11074C5.66474 2.12617 6.00671 2.19742 6.34274 2.29834C6.58259 2.37018 6.8171 2.45805 7.05161 2.54592C7.35142 2.65812 7.6542 2.76261 7.96292 2.8481C8.56552 3.01493 9.1699 3.01909 9.77962 2.89441C10.3769 2.77271 10.9415 2.5566 11.4918 2.29953C11.9513 2.08521 12.3972 1.84417 12.8443 1.6061C13.2913 1.36803 13.7419 1.1353 14.208 0.93582C14.2988 0.89723 14.3914 0.85983 14.4864 0.834301C15.0326 0.687659 15.4286 1.11274 15.3853 1.59541C15.371 1.75274 15.3657 1.90948 15.3633 2.06681C15.355 2.59757 15.4874 3.0927 15.732 3.56053C15.8561 3.7986 16.0009 4.0242 16.1565 4.24268C16.3185 4.47066 16.4854 4.69508 16.6451 4.92483C16.8487 5.21693 17.0268 5.52387 17.1723 5.84981C17.3397 6.22502 17.4382 6.61983 17.4964 7.02473C17.5789 7.59764 17.5879 8.1747 17.57 8.75177C17.5605 9.06643 17.3985 9.28906 17.1028 9.40721C17.0488 9.42858 16.9924 9.44461 16.936 9.45886C16.5323 9.5592 16.1529 9.72127 15.7807 9.90354C15.4244 10.0781 15.0807 10.2746 14.7375 10.4729C14.3036 10.7234 13.8702 10.9746 13.4166 11.1883C13.0206 11.3747 12.6133 11.5297 12.1859 11.63C11.4788 11.7962 10.7877 11.7576 10.1085 11.4976C9.82534 11.389 9.55105 11.2601 9.2827 11.12C8.98823 10.9662 8.69554 10.8095 8.40047 10.6575C8.18793 10.5477 7.96708 10.4574 7.74088 10.3803C7.09138 10.1588 6.45613 10.2016 5.83691 10.4883C5.6784 10.5613 5.52879 10.6534 5.37383 10.7335C5.32931 10.7567 5.31862 10.7893 5.32574 10.8333C5.35365 11.006 5.38155 11.1782 5.41005 11.3504C5.46586 11.6834 5.52226 12.0165 5.57806 12.3495C5.58281 12.378 5.59053 12.4065 5.59469 12.435C5.60181 12.4831 5.622 12.5205 5.66355 12.5502C5.99543 12.7895 6.16404 13.1243 6.22756 13.5203C6.30118 13.9804 6.3742 14.4405 6.44663 14.9006C6.525 15.4011 6.60337 15.9016 6.67936 16.4027C6.75595 16.9097 6.82838 17.4167 6.90496 17.9237C6.95483 18.252 7.00945 18.5792 7.05932 18.9075C7.08663 19.0862 7.0997 19.2666 7.08545 19.4471C7.02667 20.1833 6.40567 20.7461 5.67009 20.7075C5.16901 20.6814 4.78548 20.441 4.54148 19.9951C4.43699 19.8039 4.38593 19.5938 4.3515 19.38C4.32656 19.2245 4.30934 19.0684 4.28738 18.9128C4.23157 18.515 4.17695 18.1167 4.11877 17.7189C4.04693 17.2291 3.97153 16.7399 3.89673 16.2507C3.82252 15.7674 3.74771 15.2836 3.67172 14.8003C3.62363 14.4951 3.56782 14.1918 3.52567 13.886C3.47877 13.5458 3.5417 13.2223 3.72693 12.9314C3.78571 12.8393 3.79699 12.755 3.77918 12.6523C3.65213 11.9179 3.53101 11.1823 3.40218 10.448C3.25851 9.62747 3.11127 8.80817 2.96107 7.98888C2.79602 7.08944 2.63038 6.19059 2.45821 5.29233C2.28248 4.37745 2.09844 3.46376 1.91795 2.55007C1.90311 2.47586 1.88293 2.40283 1.86808 2.32922C1.86096 2.29538 1.85265 2.25857 1.85918 2.22591C1.89955 2.01278 1.95476 1.80677 2.10734 1.63994C2.57754 1.12462 3.40396 1.28135 3.64797 1.93441C3.68062 2.02109 3.69903 2.11311 3.72278 2.20335C3.73999 2.26985 3.75484 2.33634 3.77027 2.40164V2.40283ZM5.27291 10.3945C5.32812 10.391 5.3679 10.3536 5.41302 10.3286C5.57035 10.2402 5.73242 10.1606 5.90103 10.0953C6.47394 9.87444 7.05517 9.83941 7.64886 10.0045C7.95342 10.0894 8.24433 10.2069 8.52515 10.3482C8.81131 10.4925 9.09391 10.6433 9.3771 10.7923C9.61457 10.917 9.85264 11.0381 10.1014 11.139C10.8055 11.424 11.5221 11.4762 12.2571 11.2732C12.6234 11.1717 12.9743 11.0333 13.3162 10.8695C13.695 10.6884 14.0595 10.4818 14.4229 10.2716C14.7708 10.0704 15.1175 9.86673 15.4755 9.68446C15.9071 9.4648 16.3476 9.26828 16.8178 9.1442C16.8683 9.13114 16.9182 9.11452 16.9669 9.09493C17.1479 9.02309 17.2423 8.89307 17.2447 8.69359C17.2524 8.11652 17.2405 7.54005 17.1485 6.96832C17.0571 6.39779 16.8707 5.86227 16.5513 5.37782C16.4456 5.21752 16.3346 5.0602 16.223 4.90406C16.0977 4.72892 15.9671 4.55675 15.8418 4.38161C15.6785 4.15422 15.526 3.91971 15.4049 3.6668C15.1116 3.0553 14.9756 2.41411 15.0415 1.73434C15.0486 1.65894 15.0546 1.58294 15.0528 1.50755C15.0457 1.24751 14.8456 1.09196 14.5909 1.14658C14.4876 1.16855 14.392 1.21189 14.2964 1.25464C13.733 1.50814 13.1886 1.79905 12.643 2.08818C12.2779 2.28172 11.9104 2.4723 11.5346 2.64447C10.875 2.94606 10.1976 3.19007 9.47268 3.27853C9.02504 3.33315 8.57799 3.3284 8.13331 3.23935C7.81806 3.17642 7.51528 3.07371 7.21428 2.96387C6.9299 2.85998 6.6479 2.75014 6.36114 2.65218C5.80663 2.4628 5.23966 2.39037 4.65725 2.49189C4.3978 2.53701 4.14845 2.61656 3.91038 2.72818C3.83677 2.76261 3.83202 2.77092 3.84626 2.8481C3.87595 3.01434 3.90801 3.17998 3.94007 3.34562C4.15558 4.46591 4.37762 5.58562 4.586 6.70769C4.80686 7.89864 5.01406 9.09136 5.22719 10.2835C5.23432 10.3233 5.2355 10.3654 5.27112 10.3945H5.27291ZM6.75892 19.2815C6.75654 19.2548 6.75357 19.1966 6.74526 19.139C6.70727 18.8683 6.66927 18.597 6.62949 18.3262C6.53153 17.6583 6.43595 16.9898 6.33383 16.3219C6.19788 15.4296 6.05777 14.5385 5.91766 13.6474C5.90222 13.55 5.88025 13.4526 5.85354 13.3576C5.73302 12.9296 5.2919 12.5924 4.80448 12.6256C4.34378 12.6577 3.94007 13.0258 3.85576 13.49C3.82489 13.661 3.84983 13.8261 3.87654 13.9929C3.97628 14.6198 4.07721 15.2462 4.17458 15.8731C4.26304 16.4425 4.34853 17.0124 4.43343 17.5829C4.51298 18.1184 4.58957 18.6546 4.66971 19.1901C4.69465 19.3569 4.71484 19.5243 4.7653 19.6864C4.89651 20.1055 5.35009 20.416 5.80782 20.3751C6.36114 20.3252 6.76723 19.8728 6.75892 19.2821V19.2815ZM2.21005 2.27994C2.21421 2.30606 2.22133 2.36959 2.2338 2.43192C2.28545 2.69493 2.33947 2.95675 2.39113 3.21975C2.54964 4.03133 2.70934 4.84231 2.86489 5.65448C3.00263 6.37523 3.13562 7.09656 3.26801 7.8179C3.39268 8.49945 3.51617 9.18101 3.6361 9.86376C3.7489 10.5061 3.85754 11.1491 3.96738 11.7921C4.00597 12.0159 4.04218 12.2397 4.08077 12.4635C4.08849 12.5087 4.11402 12.5193 4.15558 12.4986C4.17101 12.4908 4.18586 12.4813 4.20129 12.473C4.48092 12.3199 4.77599 12.254 5.0942 12.3121C5.1227 12.3175 5.15179 12.3199 5.18088 12.3216C5.20701 12.3228 5.22719 12.3121 5.226 12.283C5.22422 12.2427 5.22125 12.2017 5.21472 12.1613C5.09955 11.4839 4.98793 10.8059 4.86801 10.1297C4.64953 8.90317 4.43283 7.676 4.20307 6.45181C3.94304 5.06732 3.66875 3.68521 3.39981 2.30191C3.37784 2.18792 3.34994 2.07393 3.29413 1.97003C3.16827 1.73671 2.91832 1.6251 2.65769 1.68744C2.422 1.74384 2.20411 1.96588 2.21124 2.28053L2.21005 2.27994Z" fill="#000E3F"/>
<path d="M15.3869 23.7705C15.3204 23.929 15.2468 24.0851 15.1684 24.2377C15.1483 24.2769 15.1281 24.3161 15.1073 24.3547C14.6086 25.2832 13.9074 26.0853 13.0816 26.7164C12.8904 26.863 12.6916 27.0002 12.4879 27.1272C11.4994 27.7441 10.3762 28.1323 9.22737 28.2256C8.88422 28.2535 8.53869 28.2564 8.19435 28.2333C8.04295 28.2232 7.89097 28.2083 7.74017 28.1887C6.39784 28.0136 5.10299 27.4526 4.09312 26.5234C4.05513 26.489 4.01832 26.454 3.98151 26.4183C3.92036 26.3584 3.8598 26.2984 3.80162 26.2361C2.81787 25.1977 2.20815 23.8073 2.02826 22.3581C1.99086 22.0577 1.97186 21.7555 1.97186 21.4533C1.97186 20.9249 2.02945 20.3971 2.1476 19.8836C2.28771 19.2745 2.50619 18.7069 2.78997 18.1862C2.80184 18.1637 2.81431 18.1405 2.82678 18.1185C3.62767 16.6824 4.91954 15.6084 6.39368 15.007C6.39665 15.0058 6.39962 15.0046 6.40258 15.0034C7.70514 14.4733 9.15019 14.313 10.524 14.598C10.689 14.6318 10.8523 14.6728 11.0144 14.7203C11.9554 14.9928 12.8495 15.4855 13.6254 16.2241C13.6492 16.2466 13.6729 16.2692 13.6961 16.2923C13.7454 16.341 13.794 16.3903 13.8427 16.4408C14.7012 17.3361 15.3216 18.4368 15.6357 19.6099C15.6992 19.8438 15.7497 20.0813 15.7871 20.3199C15.9687 21.4687 15.8548 22.6591 15.3857 23.7711L15.3869 23.7705Z" fill="white"/>
<path d="M15.287 23.7121C14.7402 25.0028 13.8033 26.1101 12.6415 26.8902C11.4351 27.7 10.0013 28.1559 8.54502 28.1328C7.173 28.1108 5.80751 27.6804 4.69612 26.87C3.6055 26.0756 2.82955 24.9156 2.42465 23.635C1.97879 22.2255 1.96691 20.679 2.43949 19.2749C2.85627 18.0365 3.64825 16.95 4.66999 16.1408C5.71192 15.3156 6.99667 14.7795 8.31645 14.6233C9.72825 14.4559 11.1786 14.7201 12.4082 15.445C13.5926 16.1438 14.5229 17.2397 15.1035 18.4793C15.7156 19.7867 15.9258 21.2893 15.6082 22.7035C15.5286 23.0579 15.4164 23.4046 15.2763 23.7395C15.252 23.7976 15.3024 23.8659 15.357 23.8814C15.4235 23.9004 15.4752 23.8582 15.4989 23.8006C16.0932 22.3805 16.1265 20.7811 15.6735 19.3165C15.2585 17.9753 14.4511 16.7339 13.367 15.838C12.2461 14.9113 10.8414 14.3959 9.38925 14.3461C7.96083 14.2974 6.5235 14.6886 5.30168 15.4248C4.18613 16.0969 3.24988 17.0604 2.64372 18.2158C1.92001 19.5943 1.70569 21.1907 1.96691 22.7201C2.19727 24.0701 2.8058 25.3656 3.75868 26.3565C4.72343 27.3604 6.03133 28.0099 7.39623 28.2509C8.89174 28.5151 10.4288 28.2913 11.7973 27.637C13.0945 27.0166 14.2183 26.027 14.9795 24.8051C15.1742 24.4929 15.344 24.1657 15.4877 23.8273C15.512 23.7697 15.5043 23.7044 15.4461 23.6694C15.398 23.6403 15.3125 23.6534 15.2882 23.711L15.287 23.7121Z" fill="black"/>
<path d="M7.3488 18.9658L6.79548 21.4795C6.73729 21.7431 6.86375 22.0126 7.1036 22.1367L9.37863 23.3116C9.60601 23.4292 9.88327 23.3882 10.0667 23.2095L11.7938 21.5323C11.9677 21.3637 12.0217 21.1061 11.9309 20.8817L10.9763 18.5205C10.8735 18.267 10.6123 18.1162 10.3416 18.1536L7.8469 18.5027C7.60052 18.5372 7.40104 18.7212 7.34761 18.9646L7.3488 18.9658Z" fill="#0D51E3"/>
<path d="M7.23777 18.935C7.12972 19.4254 7.02167 19.9163 6.91421 20.4067C6.85128 20.6935 6.78775 20.9808 6.72482 21.2676C6.71176 21.3264 6.6981 21.3851 6.68623 21.4439C6.64289 21.6565 6.68386 21.8714 6.81862 22.0441C6.94745 22.2098 7.15287 22.2905 7.33454 22.3849C7.6207 22.5327 7.90686 22.6806 8.19302 22.8284C8.4774 22.975 8.76178 23.1223 9.04616 23.2689C9.24267 23.3704 9.44155 23.4999 9.67072 23.4933C9.96044 23.485 10.138 23.3034 10.3291 23.1181C10.5553 22.8985 10.7809 22.6794 11.0071 22.4597C11.2345 22.2389 11.4625 22.0174 11.6899 21.7966C11.8721 21.6196 12.0538 21.4593 12.0865 21.1874C12.1138 20.9612 12.0075 20.7594 11.925 20.5563C11.8044 20.2583 11.6839 19.9603 11.5634 19.6622C11.4435 19.366 11.3242 19.0697 11.2042 18.7735C11.1229 18.5716 11.057 18.3431 10.883 18.2C10.718 18.064 10.5161 18.0153 10.306 18.0438C10.2424 18.0527 10.1789 18.0617 10.1154 18.0706C9.81914 18.1121 9.52289 18.1537 9.22664 18.1952C8.89536 18.2415 8.56408 18.2878 8.23339 18.3342C8.06241 18.3579 7.86827 18.3627 7.70382 18.4202C7.4705 18.5022 7.29714 18.6945 7.23896 18.935C7.20393 19.0792 7.42656 19.141 7.46159 18.9961C7.51265 18.7871 7.67057 18.6476 7.88193 18.6144C7.9318 18.6067 7.98167 18.6007 8.03154 18.5936C8.29988 18.5562 8.56764 18.5188 8.83599 18.4808C9.34538 18.4096 9.85595 18.3199 10.3671 18.2665C10.5399 18.2481 10.7275 18.3247 10.8284 18.4802C10.8623 18.5319 10.8818 18.5865 10.9062 18.6464L11.1894 19.347C11.396 19.8576 11.6038 20.3681 11.8086 20.8793C11.8573 21.001 11.8787 21.1227 11.8383 21.2516C11.8068 21.3525 11.7409 21.4255 11.6673 21.4967C11.4945 21.6648 11.3212 21.8328 11.1484 22.0008C10.7655 22.373 10.3843 22.7477 9.99844 23.1175C9.86961 23.241 9.69269 23.295 9.51873 23.244C9.45936 23.2268 9.40593 23.1959 9.35131 23.1674C9.12987 23.0528 8.90782 22.9382 8.68638 22.8237C8.19183 22.5684 7.69669 22.3125 7.20215 22.0572C6.97476 21.9396 6.86018 21.7301 6.91539 21.4754C6.96052 21.267 7.00682 21.0586 7.05313 20.8502C7.18078 20.2708 7.30783 19.6913 7.43547 19.1119C7.44378 19.0733 7.45209 19.0353 7.461 18.9967C7.49306 18.8519 7.27042 18.7901 7.23836 18.9356L7.23777 18.935Z" fill="black"/>
<path d="M13.0816 26.7163C12.8904 26.8629 12.6915 27.0001 12.4879 27.1271C11.4994 27.744 10.3761 28.1322 9.22731 28.2255C8.88415 28.2534 8.53862 28.2563 8.19428 28.2332C8.10107 28.0224 8.13729 27.776 8.28987 27.6015L9.87206 25.7866C10.0401 25.5936 10.3132 25.5301 10.5495 25.6281L12.9141 26.61C12.9765 26.6361 13.0329 26.6718 13.0816 26.7151V26.7163Z" fill="#0D51E3"/>
<path d="M13.0233 26.6166C11.9736 27.4169 10.7126 27.9542 9.39584 28.0949C8.99688 28.1376 8.59435 28.1442 8.19421 28.1186C8.23101 28.1471 8.26842 28.175 8.30523 28.2035C8.23161 28.0248 8.24823 27.8349 8.37231 27.6829C8.39487 27.6556 8.41921 27.6294 8.44237 27.6027C8.56823 27.4585 8.69409 27.3142 8.81996 27.1699C9.14352 26.7989 9.46708 26.4278 9.79005 26.0568C9.8702 25.9647 9.95272 25.8454 10.0566 25.7777C10.2407 25.6578 10.4277 25.7023 10.6129 25.7789C11.0285 25.9517 11.4447 26.1244 11.8603 26.2972C12.1037 26.3981 12.3471 26.4996 12.5905 26.6006C12.7253 26.6564 12.8867 26.7021 13.0001 26.7977C13.1129 26.8933 13.2768 26.7306 13.1634 26.6344C13.0364 26.527 12.8832 26.4741 12.7324 26.4112C12.5204 26.3233 12.3079 26.2349 12.0959 26.147C11.6418 25.9582 11.1876 25.77 10.7334 25.5812C10.5577 25.5082 10.3932 25.4453 10.1949 25.4797C9.98062 25.5171 9.83754 25.6519 9.70218 25.8068C9.38099 26.1749 9.05981 26.5436 8.73921 26.9117C8.58426 27.0898 8.42931 27.2673 8.27435 27.4454C8.23933 27.4852 8.2037 27.5244 8.17164 27.5665C8.02144 27.766 7.98819 28.0337 8.08378 28.2641C8.10456 28.3146 8.13899 28.3454 8.1948 28.349C9.56801 28.4363 10.94 28.1157 12.1476 27.4596C12.4949 27.2709 12.8268 27.0553 13.1408 26.8155C13.2572 26.7264 13.1426 26.5264 13.0245 26.616L13.0233 26.6166Z" fill="black"/>
<path d="M15.3869 23.7706C15.3204 23.9291 15.2468 24.0852 15.1684 24.2378L14.0416 22.0038C13.9323 21.7877 13.9656 21.527 14.1247 21.3442L15.6368 19.6094C15.7003 19.8433 15.7508 20.0808 15.7882 20.3195C15.9699 21.4683 15.8559 22.6586 15.3869 23.7706Z" fill="#0D51E3"/>
<path d="M15.2872 23.7124C15.2201 23.8709 15.1471 24.0265 15.0687 24.1796H15.2682C14.9369 23.523 14.6057 22.8664 14.2744 22.2092C14.2304 22.1219 14.1835 22.0352 14.142 21.9468C14.0488 21.7485 14.1016 21.5454 14.2399 21.3863C14.4935 21.0954 14.747 20.8051 14.9999 20.5142C15.2391 20.2393 15.479 19.965 15.7182 19.6901C15.6541 19.6729 15.5894 19.6563 15.5253 19.6391C15.8886 20.9957 15.8192 22.4401 15.2753 23.7391C15.251 23.7973 15.3015 23.8656 15.3561 23.881C15.4226 23.9 15.4742 23.8579 15.498 23.8003C16.0566 22.4657 16.1208 20.9701 15.7479 19.5773C15.7266 19.4978 15.6132 19.4598 15.555 19.5263C15.0717 20.0808 14.5884 20.6353 14.1052 21.1898C13.9657 21.3501 13.8582 21.5241 13.8624 21.7467C13.8659 21.9094 13.9336 22.0441 14.0043 22.1842C14.1972 22.5666 14.3896 22.9489 14.5825 23.3313C14.7446 23.6524 14.9067 23.9736 15.0687 24.2948C15.1067 24.3702 15.2296 24.3696 15.2682 24.2948C15.3466 24.1416 15.4196 23.9861 15.4867 23.8276C15.511 23.77 15.5033 23.7047 15.4451 23.6697C15.3971 23.6406 15.3116 23.6536 15.2872 23.7112V23.7124Z" fill="black"/>
<path d="M13.6258 16.2236L12.4165 16.4967C12.1499 16.5573 11.8768 16.4285 11.7533 16.1845L11.0142 14.7198C11.9552 14.9923 12.8493 15.4851 13.6252 16.2236H13.6258Z" fill="#0D51E3"/>
<path d="M13.5951 16.1125C13.1926 16.2034 12.7907 16.3055 12.3858 16.3856C12.1649 16.4296 11.9571 16.3227 11.8526 16.1262C11.8271 16.0781 11.8039 16.0294 11.779 15.9807C11.6543 15.7343 11.5302 15.4874 11.4056 15.241C11.3082 15.048 11.2108 14.8551 11.1135 14.6621C11.0701 14.7185 11.0268 14.7749 10.9835 14.8313C11.9429 15.1122 12.818 15.6186 13.5435 16.3055C13.6515 16.4076 13.8148 16.2449 13.7067 16.1422C12.9521 15.428 12.0426 14.9002 11.0446 14.6087C10.9431 14.579 10.8707 14.6918 10.9146 14.7779C11.1325 15.2101 11.351 15.6423 11.5688 16.0745C11.5967 16.1303 11.6241 16.1861 11.6531 16.2414C11.7541 16.4325 11.9393 16.5762 12.1536 16.6142C12.3947 16.6563 12.6612 16.5596 12.8946 16.5073C13.1487 16.4497 13.4028 16.3927 13.6563 16.3352C13.8011 16.3025 13.74 16.0799 13.5951 16.1125Z" fill="black"/>
<path d="M6.40251 15.003L6.10982 17.1812C6.07717 17.4276 5.89372 17.6277 5.6509 17.6829L3.19361 18.238C3.05291 18.2695 2.91101 18.2487 2.78931 18.1864C2.80118 18.1638 2.81365 18.1407 2.82612 18.1187C3.62701 16.6825 4.91888 15.6086 6.39302 15.0071C6.39598 15.006 6.39895 15.0048 6.40192 15.0036L6.40251 15.003Z" fill="#0D51E3"/>
<path d="M6.28722 15.0029C6.19164 15.7136 6.09665 16.4236 6.00106 17.1343C5.97316 17.3427 5.83958 17.5178 5.61991 17.5712C5.52908 17.5938 5.43706 17.6128 5.34563 17.633C4.90155 17.7333 4.45806 17.8337 4.01398 17.934C3.79491 17.9833 3.57643 18.0331 3.35735 18.0824C3.1834 18.1216 3.02251 18.1703 2.84797 18.086C2.86162 18.1388 2.87528 18.1911 2.88953 18.2439C3.47253 17.1331 4.41709 16.2099 5.49405 15.5788C5.79565 15.4019 6.10971 15.2463 6.43386 15.114C6.56923 15.0581 6.50986 14.8349 6.37271 14.8913C5.1699 15.3841 4.09531 16.1689 3.29739 17.1996C3.07179 17.4911 2.86222 17.8004 2.69064 18.1275C2.66333 18.1792 2.67402 18.2576 2.7322 18.2855C2.93286 18.3822 3.12581 18.3715 3.33361 18.324C3.51171 18.2837 3.68982 18.2433 3.86734 18.2035C4.34051 18.0967 4.81427 17.9898 5.28745 17.8823C5.41331 17.8538 5.53977 17.8265 5.66563 17.7968C5.95119 17.7304 6.1768 17.5047 6.22132 17.2109C6.27297 16.8737 6.31216 16.5335 6.35787 16.1957C6.4113 15.7979 6.46474 15.4001 6.51817 15.0023C6.52648 14.94 6.45939 14.8878 6.40299 14.8872C6.33353 14.8866 6.29613 14.9412 6.28782 15.0023L6.28722 15.0029Z" fill="black"/>
<path d="M5.18298 23.0528L4.84042 25.6038C4.80717 25.8508 4.62431 26.0509 4.38149 26.1055L3.80205 26.2367C2.8183 25.1984 2.20858 23.8079 2.02869 22.3587C1.99129 22.0583 1.97229 21.7561 1.97229 21.4539C2.12131 21.3827 2.29704 21.375 2.45615 21.4415L4.82082 22.4234C5.07017 22.5273 5.2186 22.7856 5.18298 23.0528Z" fill="#0D51E3"/>
<path d="M5.06725 23.0527C5.0061 23.5098 4.94436 23.9664 4.88321 24.4235C4.84343 24.7192 4.80365 25.0142 4.76388 25.3099C4.73894 25.4957 4.73953 25.6904 4.61545 25.8359C4.50028 25.9707 4.33939 25.9968 4.17731 26.0336C4.04195 26.0645 3.90599 26.0947 3.77063 26.1256C3.80803 26.1357 3.84543 26.1452 3.88284 26.1553C2.98933 25.2072 2.42295 23.9854 2.19616 22.7077C2.12254 22.2939 2.08811 21.8742 2.08692 21.4539C2.06792 21.4871 2.04892 21.5203 2.02993 21.5536C2.23772 21.4616 2.41879 21.55 2.60699 21.6284C2.82369 21.7186 3.04098 21.8083 3.25768 21.8985C3.7267 22.0933 4.19512 22.288 4.66414 22.4827C4.70569 22.4999 4.74844 22.5154 4.7894 22.535C4.9877 22.6282 5.09159 22.833 5.06785 23.0533C5.05182 23.2005 5.28276 23.1993 5.29879 23.0533C5.33738 22.703 5.12306 22.4251 4.81137 22.2957C4.62911 22.2203 4.44684 22.1443 4.26458 22.0689C3.74273 21.8522 3.22146 21.6355 2.69961 21.4188C2.6343 21.3915 2.56959 21.3642 2.50369 21.3375C2.30718 21.2573 2.10592 21.2692 1.91356 21.3547C1.87794 21.3707 1.85657 21.417 1.85657 21.4545C1.85894 22.437 2.0513 23.4178 2.43245 24.3238C2.61174 24.75 2.83082 25.1591 3.09204 25.5402C3.21909 25.7249 3.35505 25.9036 3.5005 26.074C3.56759 26.1535 3.63824 26.2539 3.72017 26.3186C3.76944 26.3577 3.81219 26.3524 3.8674 26.3405C3.98614 26.315 4.10369 26.2871 4.22243 26.2604C4.3192 26.2384 4.42013 26.2224 4.51215 26.1856C4.7805 26.0781 4.92417 25.8412 4.96157 25.564C5.01857 25.1395 5.07556 24.715 5.13256 24.2911C5.18777 23.8785 5.24358 23.4659 5.29879 23.0539C5.3071 22.9915 5.24002 22.9393 5.18362 22.9387C5.11415 22.9381 5.07675 22.9927 5.06844 23.0539L5.06725 23.0527Z" fill="black"/>
<g opacity="0.25">
<path d="M15.3869 23.7704C15.3204 23.9289 15.2468 24.085 15.1684 24.2376C15.1482 24.2768 15.1274 24.316 15.1072 24.3546C14.6085 25.2831 13.9074 26.0852 13.0816 26.7163C12.8898 26.8629 12.6915 27.0001 12.4879 27.1271C11.4994 27.7445 10.3761 28.1322 9.22732 28.2254C8.88416 28.2539 8.53864 28.2563 8.19429 28.2332C8.04231 28.2231 7.89092 28.2082 7.74012 28.1886C6.39778 28.0135 5.10294 27.4524 4.09367 26.5233C4.07526 26.5067 4.05626 26.4895 4.03845 26.4723C4.80194 26.5091 5.5773 26.4432 6.32832 26.3102C8.98153 25.8394 11.5516 24.4935 13.1089 22.2939C14.1419 20.8346 14.6566 18.9799 14.4916 17.2154C15.0182 17.9409 15.4082 18.7561 15.6368 19.6092C15.7003 19.8431 15.7508 20.08 15.7888 20.3192C15.9705 21.468 15.8565 22.6584 15.3869 23.7704Z" fill="#000E3F"/>
</g>
<g opacity="0.5">
<path d="M5.48938 27.4673C5.49532 27.4578 5.45257 27.4151 5.36589 27.3427C5.34393 27.3248 5.31958 27.3047 5.29227 27.2833C5.27862 27.2726 5.26437 27.2613 5.24953 27.2494C5.23469 27.2382 5.21925 27.2257 5.20381 27.212C5.14148 27.158 5.06905 27.0969 4.98771 27.0292C4.97762 27.0209 4.96693 27.012 4.95684 27.0031C4.94675 26.9936 4.93665 26.9847 4.92656 26.9752C4.90578 26.9562 4.885 26.9366 4.86304 26.917C4.8197 26.8772 4.77398 26.8356 4.72589 26.7923C4.70155 26.7709 4.6784 26.7472 4.65465 26.7234C4.6309 26.6997 4.60656 26.6753 4.58163 26.6504C4.55669 26.6255 4.53176 26.6005 4.50563 26.575C4.4801 26.5495 4.4528 26.524 4.42845 26.4955C4.32753 26.3838 4.21591 26.2687 4.10964 26.1351C3.99803 26.0069 3.89176 25.8608 3.77836 25.7106C3.55929 25.4037 3.34259 25.0504 3.14905 24.6526C2.9555 24.2549 2.7863 23.812 2.66341 23.3317C2.60048 23.0918 2.55417 22.8419 2.51677 22.5854L2.50905 22.5373L2.5043 22.4886C2.50074 22.456 2.49777 22.4239 2.49421 22.3913C2.48768 22.326 2.48055 22.2607 2.47402 22.1948C2.47046 22.1289 2.46749 22.0624 2.46393 21.9959C2.46215 21.9626 2.46037 21.9294 2.45858 21.8955C2.45799 21.8789 2.4568 21.8623 2.45621 21.8451V21.7946C2.4479 21.2555 2.50133 20.6969 2.62363 20.1382C2.75068 19.5807 2.94007 19.0518 3.17695 18.5679L3.19832 18.5222C3.20545 18.5073 3.21376 18.4925 3.22207 18.4777C3.2381 18.448 3.25354 18.4189 3.26957 18.3892C3.30103 18.3304 3.3325 18.2716 3.36337 18.2135C3.39721 18.1571 3.43165 18.1007 3.46549 18.0443C3.48211 18.0164 3.49933 17.9884 3.51595 17.9605L3.54088 17.919L3.56819 17.8786C3.71068 17.6625 3.8591 17.4559 4.01821 17.2659C4.33346 16.8836 4.67543 16.5547 5.01977 16.2774C5.36411 15.9996 5.71023 15.7728 6.03914 15.5876C6.20597 15.4997 6.36389 15.413 6.51944 15.3441C6.67261 15.2687 6.82281 15.2123 6.96174 15.1536C6.99617 15.1381 7.0312 15.1274 7.06563 15.115C7.10007 15.1025 7.13331 15.0906 7.16656 15.0788C7.19921 15.0669 7.23187 15.055 7.26333 15.0437C7.2948 15.0325 7.32567 15.0206 7.35714 15.0117C7.41888 14.9927 7.47765 14.9743 7.53406 14.9571C7.56196 14.9482 7.58986 14.9398 7.61658 14.9315C7.63023 14.9274 7.64329 14.9232 7.65636 14.9191C7.66942 14.9155 7.68248 14.9119 7.69554 14.909C7.79825 14.8823 7.88968 14.8573 7.96923 14.8354C7.98882 14.8294 8.00842 14.8247 8.02682 14.8211C8.04522 14.8169 8.06304 14.8128 8.07966 14.8086C8.1135 14.8003 8.14378 14.7932 8.17109 14.7861C8.28033 14.7576 8.33732 14.7374 8.33613 14.7261C8.33495 14.7148 8.27439 14.7125 8.16099 14.7196C8.1325 14.7214 8.10044 14.7237 8.06541 14.7261C8.0476 14.7279 8.02979 14.7291 8.0102 14.7309C7.9912 14.7321 7.97101 14.7344 7.95023 14.738C7.86771 14.7499 7.77272 14.7647 7.66585 14.7825C7.6522 14.7849 7.63914 14.7873 7.62489 14.789C7.61124 14.792 7.59758 14.795 7.58333 14.798C7.55543 14.8039 7.52693 14.8104 7.49725 14.817C7.43847 14.83 7.37673 14.8443 7.31261 14.8591C7.27996 14.8656 7.2479 14.8757 7.21465 14.8852C7.1814 14.8947 7.14756 14.9042 7.11313 14.9143C7.07869 14.9244 7.04367 14.9345 7.00745 14.9446C6.97183 14.9553 6.93502 14.9648 6.89881 14.9778C6.75335 15.0295 6.59543 15.0794 6.43454 15.1494C6.27068 15.2123 6.10385 15.2949 5.92812 15.3786C5.58081 15.5561 5.21391 15.7799 4.84819 16.059C4.48248 16.338 4.11855 16.6728 3.78133 17.0676C3.61153 17.2641 3.45302 17.4779 3.30044 17.7029L3.27135 17.745L3.24463 17.7884C3.22682 17.8175 3.20842 17.8466 3.19061 17.8756C3.15439 17.9338 3.11818 17.9926 3.08196 18.052C3.04871 18.1125 3.01547 18.1737 2.98163 18.2354C2.965 18.2663 2.94779 18.2972 2.93116 18.328C2.92285 18.3435 2.91395 18.3589 2.90623 18.3744L2.88307 18.4218C2.63075 18.9271 2.43009 19.481 2.29651 20.0652C2.16886 20.6506 2.11424 21.2371 2.1279 21.8023V21.8552C2.12909 21.873 2.13027 21.8902 2.13146 21.908C2.13383 21.943 2.13562 21.9781 2.13799 22.0131C2.14215 22.0831 2.1463 22.1526 2.15105 22.2215C2.15877 22.2903 2.16649 22.3592 2.17421 22.4275C2.17836 22.4613 2.18192 22.4958 2.18608 22.5296L2.19202 22.5807L2.20033 22.6311C2.24248 22.8995 2.29532 23.1613 2.36537 23.4106C2.50252 23.9111 2.68953 24.3694 2.90148 24.7773C3.11402 25.1852 3.35031 25.5438 3.58897 25.8525C3.71246 26.0033 3.82823 26.1487 3.94994 26.2758C4.06571 26.4076 4.18741 26.5204 4.29725 26.6284C4.32456 26.6558 4.35365 26.6801 4.38155 26.705C4.40946 26.7294 4.43736 26.7537 4.46408 26.7775C4.49079 26.8012 4.51751 26.8244 4.54363 26.8469C4.56975 26.8695 4.59469 26.892 4.6214 26.9122C4.67365 26.9526 4.72352 26.9918 4.77101 27.0286C4.79476 27.047 4.81792 27.0648 4.84048 27.0826C4.85176 27.0915 4.86304 27.0998 4.87372 27.1082C4.885 27.1159 4.89628 27.1236 4.90756 27.1313C4.99721 27.193 5.07676 27.2465 5.14623 27.2928C5.16344 27.3047 5.18066 27.3148 5.19728 27.3242C5.21391 27.3337 5.22994 27.3433 5.24537 27.3522C5.27565 27.3694 5.30356 27.3854 5.32908 27.3991C5.42942 27.4537 5.48463 27.4774 5.49057 27.4679L5.48938 27.4673Z" fill="white"/>
</g>
<g opacity="0.5">
<path d="M7.04669 22.0352C7.09359 22.0394 7.15118 21.8369 7.22183 21.5098C7.29248 21.1833 7.37797 20.7321 7.48008 20.2363C7.50561 20.1122 7.53055 19.9911 7.55489 19.8742C7.57923 19.7578 7.60298 19.6474 7.6291 19.5435C7.65463 19.4396 7.68194 19.3428 7.71044 19.2538C7.73953 19.1653 7.77099 19.0846 7.80187 19.0121C7.92773 18.7236 8.072 18.5775 8.04112 18.5378C8.034 18.5289 8.01678 18.5283 7.99066 18.5366C7.9776 18.5407 7.96216 18.5473 7.94435 18.5556C7.92654 18.5639 7.90814 18.5764 7.88736 18.59C7.80365 18.6458 7.69619 18.7473 7.59526 18.8964C7.54598 18.9712 7.4973 19.0561 7.45277 19.1505C7.40884 19.2449 7.36906 19.3482 7.33285 19.4568C7.29663 19.566 7.26457 19.6812 7.23548 19.8005C7.20639 19.9187 7.1779 20.0416 7.15237 20.1686C7.04847 20.6751 6.99801 21.1417 6.98732 21.4807C6.97663 21.8197 7.00157 22.031 7.04728 22.0346L7.04669 22.0352Z" fill="white"/>
</g>
<g opacity="0.5">
<path d="M12.061 16.3888C12.1453 16.3508 12.0711 16.0065 11.896 15.6206C11.7209 15.2347 11.5101 14.9527 11.4258 14.9907C11.3415 15.0287 11.4157 15.373 11.5908 15.7589C11.766 16.1448 11.9767 16.4268 12.061 16.3888Z" fill="white"/>
</g>
<g opacity="0.5">
<path d="M4.9229 25.2464C4.94665 25.2434 4.95793 25.1757 4.97574 25.0594C4.99355 24.943 5.02264 24.7779 5.07132 24.5725C5.09507 24.4698 5.12357 24.3558 5.15088 24.2312C5.16513 24.1688 5.17819 24.1035 5.19066 24.0352C5.20253 23.9658 5.2144 23.8945 5.22153 23.8197C5.22628 23.7823 5.22806 23.7443 5.23103 23.7057C5.23221 23.6666 5.23518 23.628 5.23399 23.5876C5.23459 23.5074 5.22925 23.4249 5.21856 23.34C5.20787 23.2551 5.18828 23.1684 5.16038 23.0818C5.15266 23.0604 5.14672 23.0384 5.13782 23.0171C5.12891 22.9957 5.12001 22.9743 5.1111 22.9523C5.09032 22.9102 5.07014 22.8674 5.04401 22.8271L5.02502 22.7962C5.01848 22.7861 5.01136 22.7766 5.00424 22.7671C4.98999 22.7481 4.97633 22.7279 4.96149 22.7095C4.93121 22.6727 4.89915 22.6377 4.86591 22.6062C4.79882 22.5427 4.72698 22.4887 4.65396 22.443C4.50791 22.3509 4.35771 22.291 4.21819 22.2435C4.07808 22.196 3.94746 22.1604 3.82873 22.1253C3.70939 22.0903 3.60372 22.0559 3.50932 22.0185C3.32053 21.9437 3.18457 21.8558 3.09552 21.7851C3.00528 21.7157 2.95897 21.6658 2.937 21.6783C2.92691 21.6842 2.92572 21.7038 2.93403 21.7376C2.93819 21.7543 2.94591 21.7739 2.956 21.797C2.96728 21.819 2.98034 21.8451 2.99815 21.8718C3.03318 21.9264 3.08483 21.9882 3.15251 22.0499C3.22019 22.1123 3.30568 22.1734 3.40424 22.2304C3.45351 22.2589 3.50695 22.2862 3.56275 22.3123C3.61856 22.3385 3.67615 22.3628 3.73611 22.3871C3.85604 22.4352 3.98249 22.4809 4.10895 22.5326C4.23541 22.5843 4.36127 22.6424 4.47466 22.719C4.53166 22.757 4.58509 22.7998 4.63318 22.8467C4.65752 22.8698 4.67949 22.8948 4.70027 22.9209C4.71095 22.9339 4.71986 22.9476 4.72995 22.9612C4.7347 22.9684 4.74004 22.9749 4.74479 22.982L4.75785 23.004C4.77626 23.0325 4.7911 23.0634 4.80654 23.0936C4.81307 23.1097 4.82019 23.1251 4.82672 23.1405C4.83385 23.156 4.8386 23.1726 4.84453 23.1886C4.8665 23.2533 4.88372 23.3204 4.89381 23.3893C4.9045 23.4576 4.91221 23.5264 4.914 23.5947C4.91637 23.6286 4.91518 23.663 4.91637 23.6968C4.91518 23.7307 4.91578 23.7645 4.9134 23.7978C4.91103 23.8648 4.90509 23.9307 4.89915 23.9949C4.89203 24.0596 4.8849 24.1231 4.87719 24.1854C4.86175 24.3095 4.84691 24.4277 4.83741 24.5369C4.81663 24.7554 4.82257 24.9388 4.84513 25.0629C4.86769 25.187 4.90034 25.2511 4.92231 25.2481L4.9229 25.2464Z" fill="white"/>
</g>
<g opacity="0.5">
<path d="M8.38891 27.7759C8.42097 27.8085 8.56108 27.7302 8.75819 27.5717C8.9547 27.4131 9.20702 27.1721 9.46052 26.8842C9.71403 26.5956 9.92063 26.3148 10.0524 26.0999C10.1848 25.8844 10.2442 25.7354 10.208 25.7075C10.1706 25.679 10.0447 25.7769 9.8672 25.9521C9.68909 26.1272 9.45815 26.3795 9.2088 26.6627C8.95945 26.9459 8.73919 27.2077 8.5878 27.4066C8.437 27.6055 8.35566 27.7426 8.38891 27.7759Z" fill="white"/>
</g>
<path d="M16.006 21.8873C15.987 21.9075 15.9905 21.933 15.9899 21.9573C15.9822 22.2102 15.9371 22.4584 15.886 22.7054C15.6919 23.6387 15.2947 24.4811 14.7378 25.2499C14.0094 26.2545 13.0868 27.0322 11.9807 27.5938C11.3793 27.899 10.7476 28.1163 10.0874 28.2499C9.79475 28.3086 9.49969 28.3478 9.20166 28.3704C8.90956 28.3923 8.61746 28.3965 8.32596 28.3811C7.36596 28.3288 6.44989 28.1014 5.58488 27.6775C5.00366 27.3926 4.47409 27.0328 4.0027 26.5887C3.46422 26.0817 3.03617 25.4928 2.69836 24.8367C2.38964 24.2371 2.17294 23.6048 2.04114 22.944C1.98296 22.6513 1.94437 22.3557 1.91943 22.0583C1.89272 21.7323 1.89093 21.407 1.90993 21.081C1.9693 20.0534 2.23112 19.0821 2.71854 18.1725C3.02429 17.602 3.40663 17.0879 3.85902 16.626C4.8772 15.5858 6.1008 14.9072 7.5132 14.5653C7.88425 14.4756 8.26065 14.4186 8.6418 14.3895C8.96418 14.3652 9.28715 14.3622 9.60952 14.3806C10.0744 14.4073 10.5309 14.4857 10.9809 14.6074C12.0609 14.9001 12.9989 15.4422 13.8016 16.2175C14.5787 16.9679 15.154 17.8543 15.5464 18.8606C15.7346 19.3433 15.8688 19.8414 15.9472 20.3538C15.9686 20.4933 15.9911 20.6334 15.9905 20.7753C15.9905 20.8091 15.9959 20.8412 16.0077 20.8727V21.8879L16.006 21.8873ZM10.0946 25.5183C10.0946 25.5124 10.0946 25.5058 10.0934 25.4999C10.075 25.3627 10.0584 25.2256 10.0382 25.0885C9.98236 24.7115 9.91824 24.3357 9.84047 23.9628C9.81316 23.8334 9.78466 23.7046 9.75557 23.5757C9.7437 23.5235 9.74191 23.5217 9.69026 23.5205C9.57093 23.5175 9.45991 23.4849 9.35305 23.435C9.3198 23.4196 9.28655 23.403 9.2539 23.3857C8.72136 23.1103 8.18941 22.8342 7.65687 22.5587C7.4847 22.4697 7.31193 22.383 7.14036 22.2934C7.00796 22.2239 6.89041 22.1366 6.81086 22.006C6.79067 21.9728 6.78414 21.9728 6.75149 21.99C6.73487 21.9983 6.71943 22.0078 6.7034 22.0173C6.26526 22.2672 5.83483 22.5302 5.41271 22.8057C5.39728 22.8158 5.38244 22.8265 5.36641 22.8354C5.34207 22.8496 5.33375 22.8692 5.33672 22.8965C5.34741 22.9981 5.34028 23.099 5.32247 23.1999C5.31357 23.2516 5.30882 23.3032 5.30169 23.3555C5.26845 23.6054 5.2352 23.8554 5.20195 24.1053C5.16811 24.3582 5.13309 24.6111 5.09925 24.864C5.06659 25.108 5.03572 25.3515 5.00188 25.5955C4.98882 25.6899 4.96329 25.7819 4.92054 25.868C4.88195 25.9452 4.88255 25.9457 4.94548 26.0033C4.96151 26.0182 4.97754 26.0324 4.99297 26.0467C5.52552 26.5264 6.12514 26.9022 6.78355 27.1836C7.22347 27.3712 7.67824 27.5101 8.14845 27.598C8.18347 27.6045 8.20425 27.5968 8.22741 27.5701C8.44826 27.3142 8.6709 27.0589 8.89294 26.8042C9.17791 26.4771 9.46288 26.1506 9.74785 25.8234C9.83928 25.7184 9.93724 25.6216 10.0643 25.5587C10.0696 25.5557 10.075 25.5527 10.0803 25.5492C10.091 25.5414 10.0969 25.5319 10.0963 25.5183H10.0946ZM7.50192 18.5798C7.50013 18.5549 7.48411 18.5442 7.47164 18.5311C7.34221 18.3952 7.2027 18.2699 7.05605 18.1524C6.78533 17.9368 6.49264 17.757 6.17798 17.6133C6.10615 17.5806 6.11683 17.5747 6.06043 17.6305C5.9595 17.7302 5.8378 17.7938 5.70006 17.8252C5.63119 17.8413 5.56233 17.8567 5.49346 17.8721C4.78281 18.0324 4.07275 18.1933 3.3621 18.3536C3.28433 18.3714 3.20537 18.3845 3.12463 18.3839C3.05991 18.3839 2.9958 18.3839 2.93227 18.3679C2.88715 18.3572 2.88596 18.3596 2.86103 18.4041C2.85212 18.4201 2.84322 18.4367 2.8355 18.4528C2.72151 18.6813 2.61939 18.9147 2.53212 19.1551C2.37242 19.5962 2.2614 20.0486 2.19669 20.5129C2.16403 20.748 2.14622 20.9837 2.13316 21.22C2.13197 21.2443 2.13197 21.2692 2.13435 21.2936C2.13494 21.3001 2.14504 21.309 2.15216 21.3108C2.16344 21.3138 2.1765 21.3132 2.18837 21.312C2.3362 21.2965 2.47394 21.3286 2.6099 21.3862C3.34726 21.6949 4.08522 22.0013 4.82318 22.307C4.97991 22.3717 5.11587 22.462 5.2168 22.6009C5.23995 22.6324 5.24648 22.6324 5.27735 22.6145C5.29576 22.6033 5.31357 22.5914 5.33197 22.5795C5.7244 22.3254 6.12218 22.0808 6.52826 21.8487C6.57635 21.8214 6.62325 21.7923 6.67253 21.7668C6.70459 21.7501 6.71409 21.7276 6.71053 21.6925C6.70103 21.6029 6.71468 21.515 6.73427 21.4272C6.84945 20.9047 6.96344 20.3823 7.07861 19.8604C7.14333 19.5665 7.20923 19.2726 7.27394 18.9782C7.30422 18.8393 7.36834 18.7193 7.46808 18.6178C7.48114 18.6047 7.49301 18.5911 7.5037 18.5798H7.50192ZM12.2016 21.3144C12.1891 21.3138 12.1772 21.3126 12.1648 21.3126C12.1113 21.3108 12.1102 21.3108 12.0912 21.3601C12.0532 21.4592 11.9962 21.5465 11.9249 21.6237C11.8792 21.6735 11.8323 21.7222 11.7836 21.7691C11.292 22.247 10.7993 22.7244 10.3071 23.2023C10.2145 23.2925 10.1183 23.3786 10.0037 23.441C9.97108 23.4588 9.97049 23.4629 9.9782 23.5003C10.015 23.6749 10.0542 23.8488 10.0898 24.0234C10.1593 24.3671 10.2186 24.7121 10.2667 25.0594C10.2845 25.187 10.3018 25.3152 10.3196 25.4429C10.3255 25.485 10.3273 25.4874 10.3706 25.4928C10.4407 25.5011 10.5113 25.5076 10.5784 25.5319C10.6449 25.5557 10.7114 25.58 10.7767 25.6067C11.4808 25.8983 12.185 26.1903 12.8885 26.483C12.9508 26.5092 13.0126 26.5371 13.0713 26.5703C13.1076 26.5911 13.1337 26.5893 13.161 26.5608C13.1651 26.5567 13.1705 26.5531 13.1752 26.5495C13.9399 25.9351 14.5627 25.2018 15.0323 24.3392C15.0798 24.2519 15.0792 24.2692 15.0341 24.1795C14.6981 23.5128 14.3614 22.8455 14.0248 22.1788C13.9577 22.0464 13.8984 21.9116 13.8984 21.759C13.8984 21.7383 13.8883 21.7246 13.8687 21.7175C13.8485 21.7098 13.8289 21.7003 13.8093 21.6925C13.5896 21.6041 13.3652 21.5299 13.1355 21.4705C12.8279 21.3909 12.5162 21.3393 12.1998 21.3132L12.2016 21.3144ZM11.894 21.1256C11.8976 21.0418 11.8656 20.9552 11.8305 20.8691C11.5877 20.2677 11.3443 19.6669 11.1009 19.0655C11.0362 18.9057 10.975 18.7449 10.9067 18.5869C10.8201 18.3863 10.6247 18.2705 10.4104 18.2919C10.2513 18.3079 10.0928 18.3281 9.93427 18.3506C9.66948 18.3886 9.40529 18.4308 9.1411 18.4688C8.74273 18.5258 8.34377 18.5828 7.94481 18.6368C7.6824 18.6724 7.53635 18.8476 7.4936 19.0476C7.39861 19.4923 7.29887 19.9364 7.20091 20.3805C7.11839 20.7557 7.03468 21.1309 6.95453 21.5061C6.90704 21.7288 6.98303 21.9051 7.16707 22.0357C7.20685 22.0642 7.25138 22.0862 7.29531 22.1087C7.91216 22.4281 8.5296 22.7463 9.14704 23.0652C9.25924 23.1227 9.37026 23.1827 9.48366 23.2373C9.6582 23.3216 9.82444 23.2967 9.97939 23.1863C10.012 23.1631 10.0405 23.1352 10.0696 23.1073C10.5796 22.6128 11.089 22.1176 11.5984 21.6225C11.656 21.5667 11.7136 21.5115 11.7682 21.4533C11.8513 21.3642 11.8976 21.2597 11.894 21.125V21.1256ZM9.15179 14.5997C8.84188 14.6027 8.50169 14.6246 8.16388 14.6751C7.6913 14.7452 7.23001 14.8609 6.78058 15.0224C6.71409 15.0462 6.64819 15.0723 6.58229 15.0966C6.56032 15.1049 6.54667 15.1198 6.5431 15.1435C6.54132 15.156 6.54014 15.1679 6.53835 15.1803C6.5057 15.4273 6.47305 15.6737 6.44039 15.9207C6.3929 16.2798 6.3454 16.6396 6.29732 16.9988C6.28485 17.0932 6.26941 17.187 6.25516 17.2814C6.25041 17.3141 6.22192 17.3473 6.24032 17.3776C6.25754 17.4061 6.29732 17.4114 6.32759 17.4257C6.81561 17.6578 7.24841 17.9677 7.62659 18.3536C7.64796 18.3756 7.66993 18.3975 7.69012 18.4207C7.7109 18.445 7.73346 18.448 7.76373 18.4379C7.83379 18.4148 7.90622 18.4011 7.97984 18.3928C8.08373 18.3809 8.18763 18.3708 8.29093 18.356C8.61984 18.3103 8.94815 18.2628 9.27646 18.2165C9.57746 18.1737 9.87906 18.1316 10.1801 18.09C10.3291 18.0692 10.4781 18.0431 10.6289 18.0787C10.6497 18.0835 10.6639 18.0734 10.674 18.0556C10.6859 18.0342 10.6989 18.0128 10.7108 17.9921C10.9263 17.6222 11.1709 17.2725 11.4452 16.9436C11.5693 16.7946 11.6993 16.6509 11.8341 16.512C11.8566 16.4888 11.8578 16.4805 11.8347 16.4586C11.751 16.3784 11.6958 16.2799 11.6447 16.1777C11.4351 15.7604 11.2244 15.3436 11.0136 14.9268C10.9631 14.8265 10.9875 14.8502 10.8788 14.8211C10.3231 14.6733 9.75735 14.6045 9.15119 14.6003L9.15179 14.5997ZM10.8782 18.1874C10.9204 18.2224 10.9655 18.2592 11.0029 18.3043C11.0658 18.3809 11.1116 18.4682 11.1496 18.559C11.1846 18.6439 11.2166 18.7306 11.2517 18.8161C11.4797 19.3801 11.7076 19.9441 11.9356 20.5081C11.9819 20.6221 12.0282 20.7355 12.0733 20.8501C12.0983 20.913 12.1113 20.9795 12.125 21.046C12.1286 21.0626 12.1375 21.0733 12.1553 21.0745C12.1707 21.0757 12.1861 21.0769 12.201 21.0787C12.3565 21.0971 12.5133 21.1107 12.6676 21.1351C13.082 21.201 13.484 21.312 13.874 21.4669C13.8989 21.477 13.9245 21.4847 13.9536 21.4954C14.0159 21.3601 14.1079 21.2532 14.2011 21.1463C14.6238 20.6625 15.046 20.178 15.4681 19.693C15.4942 19.6633 15.534 19.6378 15.5381 19.5986C15.5417 19.5642 15.5239 19.5273 15.5138 19.4923C15.2377 18.5602 14.7859 17.7213 14.1738 16.9679C14.0207 16.7791 13.8556 16.601 13.684 16.4289C13.649 16.3932 13.6146 16.3772 13.5617 16.3897C13.332 16.4449 13.101 16.4965 12.8701 16.5494C12.7412 16.5791 12.6148 16.6183 12.4836 16.6373C12.3643 16.6539 12.2437 16.661 12.1274 16.6248C12.0822 16.6105 12.0508 16.6171 12.0235 16.6527C12.0181 16.6598 12.0104 16.6658 12.0039 16.6723C11.5818 17.1069 11.2172 17.5842 10.9127 18.1078C10.899 18.1316 10.88 18.1529 10.8776 18.1874H10.8782ZM2.13435 21.8137C2.14147 22.0072 2.16106 22.2001 2.18541 22.3925C2.23409 22.7742 2.31305 23.15 2.42229 23.5187C2.64789 24.2798 2.98808 24.9851 3.46066 25.6251C3.57761 25.7837 3.70288 25.9351 3.83349 26.0823C3.86555 26.1185 3.89405 26.1328 3.94392 26.1191C4.06563 26.087 4.18971 26.0645 4.31201 26.0348C4.36841 26.0211 4.42481 26.0045 4.47884 25.9826C4.60945 25.9303 4.69553 25.8341 4.74006 25.7017C4.75194 25.6667 4.76084 25.6305 4.76618 25.5943C4.78281 25.4821 4.79706 25.3693 4.8119 25.2565C4.83861 25.0552 4.86592 24.8545 4.89264 24.6533C4.92589 24.4033 4.95913 24.1534 4.99238 23.904C5.02978 23.6238 5.07015 23.3442 5.10399 23.0634C5.1224 22.9126 5.0755 22.7784 4.9716 22.665C4.91401 22.6021 4.84099 22.5647 4.76322 22.5326C4.36841 22.3693 3.9742 22.2055 3.57939 22.0422C3.24158 21.9021 2.90377 21.762 2.56656 21.6213C2.487 21.588 2.40626 21.5584 2.32077 21.5447C2.26852 21.5364 2.21687 21.5358 2.16522 21.5495C2.13138 21.5584 2.12604 21.5631 2.12663 21.6011C2.12782 21.6718 2.13079 21.7424 2.13257 21.8131L2.13435 21.8137ZM12.9057 26.7532C12.879 26.7211 12.8481 26.714 12.8202 26.7027C12.749 26.6736 12.6771 26.6469 12.6065 26.6172C12.2972 26.489 11.9879 26.3607 11.6785 26.2325C11.3407 26.0924 11.0035 25.9523 10.6657 25.8122C10.5891 25.7801 10.5113 25.7528 10.4288 25.738C10.2899 25.713 10.167 25.7474 10.0572 25.8329C10.0085 25.8709 9.96811 25.9172 9.92833 25.9642C9.87846 26.0229 9.82978 26.0823 9.77932 26.1399C9.4605 26.5062 9.1411 26.8719 8.82169 27.2382C8.69227 27.3866 8.56344 27.5351 8.43342 27.6823C8.33961 27.7892 8.29331 27.9115 8.30399 28.0545C8.31052 28.143 8.31052 28.1436 8.40076 28.1495C8.70533 28.1691 9.00871 28.1543 9.31208 28.1293C9.64336 28.102 9.97049 28.0474 10.2935 27.969C11.2155 27.7458 12.0597 27.3516 12.8339 26.8066C12.8564 26.7906 12.8778 26.7739 12.9051 26.7532H12.9057ZM6.29672 15.2272C6.27594 15.2296 6.26941 15.229 6.26407 15.2314C6.24151 15.2409 6.21895 15.2504 6.19639 15.2611C5.35809 15.6476 4.61479 16.1676 3.97361 16.8332C3.61798 17.2024 3.30926 17.6068 3.05101 18.0502C3.03735 18.074 3.0237 18.0983 3.01301 18.1239C3.00767 18.1357 3.0142 18.1488 3.02904 18.1512C3.04388 18.1541 3.05932 18.1559 3.07476 18.1565C3.14956 18.1607 3.2214 18.1458 3.29383 18.1292C3.85724 18.0022 4.42066 17.8751 4.98348 17.7481C5.19899 17.6994 5.41509 17.6519 5.6306 17.602C5.86689 17.5468 6.007 17.3901 6.03965 17.149C6.04796 17.0879 6.05568 17.0273 6.06399 16.9662C6.09843 16.7132 6.13286 16.4609 6.1667 16.208C6.20173 15.9492 6.23676 15.6903 6.27119 15.4315C6.2801 15.365 6.28782 15.2985 6.29672 15.2266V15.2272ZM15.2009 23.9895C15.3042 23.8346 15.4995 23.3032 15.5969 22.9197C15.7881 22.1633 15.8326 21.3975 15.7471 20.6221C15.7198 20.3751 15.6497 19.9851 15.6112 19.9008C15.5844 19.9067 15.5732 19.9305 15.5571 19.9483C15.1368 20.4303 14.7165 20.9124 14.2961 21.3945C14.2635 21.4319 14.2332 21.4699 14.2083 21.5126C14.1228 21.6617 14.1121 21.8148 14.1833 21.9722C14.1999 22.0084 14.2178 22.044 14.2362 22.0796C14.5063 22.6145 14.7764 23.1495 15.0466 23.6844C15.0964 23.7829 15.1469 23.8815 15.2009 23.9883V23.9895ZM4.7181 26.1227C4.70919 26.1274 4.69791 26.1322 4.68782 26.1387C4.60292 26.1969 4.50793 26.2313 4.40819 26.2545C4.369 26.2634 4.32982 26.2711 4.29123 26.28C4.23127 26.2931 4.17131 26.3067 4.11134 26.321C4.09175 26.3257 4.08641 26.3405 4.09887 26.3548C4.10897 26.3661 4.12025 26.3768 4.13093 26.3875C4.27045 26.5216 4.41591 26.6493 4.56908 26.7686C5.21383 27.272 5.9316 27.633 6.71349 27.8681C7.1267 27.9922 7.54822 28.0741 7.97687 28.121C7.99824 28.1234 8.01962 28.1246 8.04099 28.1246C8.05939 28.1246 8.0683 28.1127 8.0683 28.0955C8.0683 28.0219 8.06355 27.9483 8.08077 27.8752C8.09086 27.8313 8.08433 27.8248 8.03624 27.8141C7.93412 27.7915 7.83142 27.7725 7.73049 27.747C6.61732 27.4686 5.63476 26.9455 4.78459 26.1749C4.7644 26.1565 4.74719 26.1339 4.7175 26.1227H4.7181ZM12.3423 16.4217C12.3832 16.4146 12.4385 16.4075 12.4919 16.3956C12.7591 16.3363 13.0256 16.2769 13.2922 16.2151C13.3272 16.2068 13.3664 16.2086 13.3961 16.1825C13.3896 16.138 13.3486 16.1225 13.3201 16.0982C12.9009 15.7414 12.442 15.4451 11.9451 15.2088C11.7646 15.1227 11.5806 15.0456 11.3918 14.9785C11.3686 14.9702 11.3455 14.9619 11.3217 14.9547C11.317 14.9535 11.3093 14.9547 11.3057 14.9583C11.3021 14.9613 11.2998 14.9696 11.3015 14.9743C11.3081 14.9915 11.3164 15.0082 11.3247 15.0248C11.5046 15.3816 11.6845 15.7384 11.865 16.0952C11.8845 16.1338 11.9041 16.1724 11.9285 16.2074C12.0253 16.3452 12.16 16.414 12.3417 16.4223L12.3423 16.4217Z" fill="#000E3F"/>
</g>
<defs>
<clipPath id="clip0_4016_4280">
<rect width="30" height="30" fill="white"/>
</clipPath>
</defs>
</svg>
