<svg width="24" height="24" viewBox="0 0 24 24" fill="none" xmlns="http://www.w3.org/2000/svg">
<g clip-path="url(#clip0_4026_7405)">
<path d="M0.000342595 19.3043L0.000343192 5.64922C0.000343227 4.85921 0.31337 4.10141 0.870981 3.54174C1.42848 2.98207 2.18516 2.66617 2.97516 2.66321L20.9247 2.66322C21.3206 2.65728 21.7137 2.73014 22.0811 2.87754C22.4486 3.02495 22.7831 3.24395 23.0651 3.52182C23.3471 3.79969 23.5711 4.13086 23.7239 4.49609C23.8768 4.86132 23.9555 5.2533 23.9554 5.64922L23.9554 19.3043C23.9555 19.6997 23.8768 20.0911 23.7238 20.4557C23.5708 20.8203 23.3467 21.1508 23.0645 21.4278C22.7823 21.7048 22.4477 21.9228 22.0803 22.0689C21.7129 22.215 21.32 22.2865 20.9247 22.2791L2.91924 22.2791C2.13997 22.2644 1.39761 21.9446 0.851743 21.3882C0.305875 20.8319 0.000230028 20.0836 0.000342595 19.3043ZM22.2779 5.64922C22.2796 5.4731 22.2454 5.29849 22.1774 5.13603C22.1094 4.97356 22.0091 4.82664 21.8825 4.70422C21.7559 4.58179 21.6056 4.48643 21.441 4.42394C21.2763 4.36145 21.1007 4.33314 20.9247 4.34074L2.91924 4.34074C2.58295 4.35523 2.26557 4.49981 2.03395 4.74395C1.80234 4.9881 1.67463 5.31269 1.67787 5.64922L1.67787 19.3043C1.67787 19.6484 1.81453 19.9783 2.05777 20.2215C2.30113 20.4649 2.63104 20.6015 2.97516 20.6015L20.9247 20.6015C21.2688 20.6015 21.5987 20.4649 21.842 20.2215C22.0853 19.9783 22.222 19.6484 22.222 19.3043L22.2779 5.64922Z" fill="#2857CB"/>
<path d="M11.1386 21.4179L11.1386 15.2334C11.1386 15.011 11.2269 14.7976 11.3843 14.6404C11.5415 14.483 11.7549 14.3947 11.9773 14.3947C12.1998 14.3947 12.4132 14.483 12.5704 14.6404C12.7278 14.7976 12.8161 15.011 12.8161 15.2334L12.8161 21.4179C12.8161 21.6404 12.7278 21.8538 12.5704 22.011C12.4132 22.1684 12.1998 22.2567 11.9773 22.2567C11.7549 22.2567 11.5415 22.1684 11.3843 22.011C11.2269 21.8538 11.1386 21.6404 11.1386 21.4179Z" fill="#2857CB"/>
<path d="M11.1386 9.72012L11.1386 3.52445C11.1386 3.302 11.2269 3.08865 11.3843 2.93135C11.5415 2.77406 11.7549 2.68568 11.9773 2.68568C12.1998 2.68568 12.4132 2.77406 12.5704 2.93135C12.7278 3.08865 12.8161 3.302 12.8161 3.52445L12.8161 9.72012C12.8161 9.94257 12.7278 10.1559 12.5704 10.3131C12.4132 10.4705 12.1998 10.5588 11.9773 10.5588C11.7549 10.5588 11.5415 10.4705 11.3843 10.3131C11.2269 10.1559 11.1386 9.94257 11.1386 9.72012Z" fill="#2857CB"/>
<path d="M18.5424 16.2289L18.5424 8.71363C18.5453 8.49207 18.6346 8.28041 18.7912 8.12373C18.9479 7.96706 19.1596 7.87776 19.3811 7.87486L23.1612 7.87486C23.3836 7.87486 23.597 7.96323 23.7543 8.12053C23.9116 8.27783 23.9999 8.49118 23.9999 8.71363L23.9999 16.2289C24.0014 16.3395 23.9808 16.4492 23.9391 16.5517C23.8975 16.6541 23.8358 16.7472 23.7576 16.8253C23.6794 16.9035 23.5864 16.9652 23.4839 17.007C23.3815 17.0486 23.2717 17.0691 23.1612 17.0677L19.3811 17.0677C19.1587 17.0677 18.9453 16.9793 18.788 16.822C18.6307 16.6647 18.5424 16.4514 18.5424 16.2289ZM20.2199 9.51884L20.2199 15.3566L22.2777 15.3566L22.2777 9.55239L20.2199 9.51884Z" fill="#2857CB"/>
<path d="M0.0003215 16.2289L0.000321828 8.71363C-1.33787e-05 8.49871 0.0821848 8.29187 0.229919 8.1358C0.377654 7.97973 0.57974 7.88633 0.794352 7.87486L4.57438 7.87486C4.79593 7.87776 5.00763 7.96706 5.16431 8.12373C5.32099 8.28041 5.41024 8.49207 5.41315 8.71363L5.41315 16.2289C5.41315 16.4514 5.3248 16.6647 5.16744 16.822C5.0102 16.9793 4.79682 17.0677 4.57438 17.0677L0.794351 17.0677C0.578733 17.059 0.375081 16.9664 0.226788 16.8097C0.0784937 16.653 -0.00280942 16.4446 0.0003215 16.2289ZM1.67785 9.51884L1.67785 15.3566L3.73562 15.3566L3.73562 9.55239L1.67785 9.51884Z" fill="#2857CB"/>
<path d="M8.45498 12.4712C8.45498 11.7585 8.66646 11.0619 9.06269 10.4694C9.45881 9.87703 10.0219 9.41548 10.6806 9.14325C11.3392 8.87103 12.0639 8.80037 12.7628 8.94022C13.4616 9.08008 14.1032 9.42417 14.6064 9.9289C15.1096 10.4336 15.4516 11.0763 15.5893 11.7756C15.727 12.4748 15.6541 13.1993 15.3798 13.8571C15.1056 14.5149 14.6422 15.0766 14.0485 15.4709C13.4549 15.8652 12.7576 16.0746 12.0449 16.0723C11.0917 16.0694 10.1787 15.6886 9.50578 15.0137C8.83287 14.3387 8.45498 13.4244 8.45498 12.4712ZM13.9685 12.4712C13.9685 12.0908 13.8556 11.7189 13.6442 11.4025C13.4329 11.0863 13.1325 10.8397 12.781 10.6941C12.4295 10.5485 12.0428 10.5104 11.6696 10.5846C11.2965 10.6588 10.9537 10.842 10.6848 11.1111C10.4157 11.3801 10.2325 11.7228 10.1582 12.0959C10.0841 12.4691 10.1221 12.8558 10.2677 13.2073C10.4133 13.5588 10.6599 13.8592 10.9762 14.0706C11.2926 14.282 11.6644 14.3948 12.0449 14.3948C12.5551 14.3948 13.0444 14.1922 13.405 13.8314C13.7658 13.4707 13.9685 12.9814 13.9685 12.4712Z" fill="#2857CB"/>
</g>
<defs>
<clipPath id="clip0_4026_7405">
<rect width="24" height="24" fill="white"/>
</clipPath>
</defs>
</svg>
