<svg width="30" height="30" viewBox="0 0 30 30" fill="none" xmlns="http://www.w3.org/2000/svg">
<g clip-path="url(#clip0_4016_4283)">
<path opacity="0.25" d="M17.6263 3.5381C17.8522 3.95097 21.5491 3.6138 21.9402 3.61494C23.4276 3.6201 25.5711 3.25082 27.0024 3.71701C29.1493 4.41602 28.7324 9.15025 28.9331 11.0231C29.2508 13.986 29.5863 16.9472 29.8965 19.9107C30.0181 21.0707 30.2354 22.3162 29.1539 23.1018C28.6544 23.4642 28.1068 23.4785 27.5248 23.5491C26.3315 23.6941 26.562 23.6184 25.793 24.4539C24.7804 25.5549 23.6312 26.2447 22.1082 26.372C21.2434 26.4443 20.3799 26.325 19.5794 25.981C18.8878 25.6839 18.5059 25.1185 17.8814 25.2321C17.2019 25.3559 16.6721 26.4902 16.0189 26.7889C15.3761 27.0825 14.8922 27.133 14.18 26.9386C12.7722 26.5538 11.849 25.4282 10.6723 24.8502C9.72326 24.384 7.9634 24.6741 6.82285 24.3146C5.22987 23.8128 3.77909 22.8386 2.73201 21.5317C0.787514 19.105 0.341387 15.5922 1.4028 12.6975C2.65231 9.29132 6.07854 7.01882 9.65158 6.82787C10.1373 6.80206 11.6752 7.1811 12.0135 6.96606C12.4826 6.66788 12.611 5.36906 12.8731 4.91032C13.9007 3.11147 15.8005 3.5381 17.6257 3.5381H17.6263Z" fill="#000E3F"/>
<path d="M16.7843 2.8907C17.0103 3.30357 20.7072 2.9664 21.0982 2.96754C22.5857 2.9727 24.7292 2.60342 26.1605 3.06961C28.3074 3.76862 27.8905 8.50285 28.0912 10.3757C28.4089 13.3386 28.7444 16.2998 29.0546 19.2633C29.1761 20.4233 29.3935 21.6688 28.312 22.4544C27.8125 22.8168 27.2649 22.8311 26.6829 22.9017C25.4896 23.0467 25.7201 22.971 24.9511 23.8065C23.9384 24.9075 22.7893 25.5973 21.2663 25.7246C20.4015 25.7969 19.5379 25.6776 18.7374 25.3336C18.0459 25.0365 17.664 24.4711 17.0395 24.5847C16.36 24.7085 15.8302 25.8428 15.177 26.1415C14.5336 26.4351 14.0502 26.4856 13.338 26.2912C11.9303 25.9064 11.007 24.7808 9.83036 24.2028C8.88134 23.7366 7.12148 24.0267 5.98093 23.6672C4.38795 23.1654 2.93717 22.1912 1.89009 20.8843C-0.0544047 18.4576 -0.500532 14.9448 0.560885 12.0501C1.81039 8.64392 5.23662 6.37142 8.80966 6.18047C9.29536 6.15466 10.8333 6.5337 11.1716 6.31866C11.6407 6.02048 11.7691 4.72166 12.0312 4.26292C13.0588 2.46407 14.9585 2.8907 16.7838 2.8907H16.7843Z" fill="white"/>
<path d="M6.66807 20.2783L12.8187 4.31979C12.919 4.06003 13.3852 3.85359 13.8612 3.85588L25.2908 3.90463C25.7644 3.90692 26.1693 4.11393 26.1968 4.37312L27.9411 20.5381C28.0145 21.2205 27.421 21.7859 26.6205 21.7744L7.60276 21.5066C6.82691 21.4957 6.41347 20.9401 6.66864 20.2783H6.66807Z" fill="#14FD3B"/>
<g opacity="0.25">
<path d="M26.6203 21.7743L7.60199 21.5059C6.82614 21.495 6.41327 20.9394 6.66787 20.2776L7.79867 17.3439C7.79982 17.3617 7.80154 17.3801 7.80269 17.3984C7.88985 18.4719 8.32853 19.5792 9.22365 20.1767C10.152 20.7966 11.3551 20.7541 12.4693 20.6893C14.6649 20.5615 16.8606 20.4342 19.0562 20.3057C20.9291 20.1968 22.9819 20.011 24.3094 18.6852C25.8835 17.1129 25.8216 14.588 25.6524 12.3695C25.5538 11.0701 25.4471 9.73971 24.9041 8.55558C24.361 7.37144 23.2807 6.34558 21.9819 6.24466C21.046 6.1724 20.1452 6.57553 19.2162 6.71315C18.2878 6.8502 17.1456 6.58126 16.8267 5.69933C16.6014 5.07601 16.8938 4.35865 17.3761 3.90392C17.3881 3.89245 17.4002 3.88098 17.4128 3.87009L25.29 3.90335C25.7636 3.90507 26.1685 4.11207 26.196 4.37184L27.9404 20.5368C28.0138 21.2192 27.4208 21.7846 26.6198 21.7731L26.6203 21.7743Z" fill="#000E3F"/>
</g>
<g opacity="0.7">
<path d="M24.9075 10.0948C24.9023 9.92331 21.823 9.88088 18.0286 9.88317C14.2342 9.88833 11.1549 9.93593 11.1503 10.1074C11.1452 10.2743 14.2245 10.5008 18.0292 10.4962C21.8339 10.4944 24.9126 10.2616 24.9075 10.0948Z" fill="white"/>
</g>
<g opacity="0.7">
<path d="M11.2004 9.58676C11.2824 9.61085 11.4303 9.37402 11.619 8.98122C11.713 8.78453 11.8185 8.54886 11.9309 8.28623C12.0445 8.02417 12.1649 7.73459 12.2899 7.43067C12.4155 7.12675 12.5336 6.8366 12.638 6.57052C12.7435 6.30503 12.8341 6.06361 12.9063 5.85775C13.0497 5.44603 13.1116 5.17365 13.0365 5.13294C12.9631 5.09337 12.7653 5.29464 12.5187 5.66393C12.3954 5.84858 12.2612 6.07566 12.1248 6.33427C11.9894 6.59346 11.8518 6.88419 11.7234 7.19614C11.5949 7.50808 11.4877 7.81143 11.4011 8.09069C11.3156 8.37052 11.2503 8.62569 11.2078 8.84417C11.1224 9.27998 11.1207 9.56211 11.201 9.58619L11.2004 9.58676Z" fill="white"/>
</g>
<g opacity="0.7">
<path d="M8.22424 17.5424C8.38136 17.6049 9.12051 16.1237 9.87515 14.2331C10.6298 12.3425 11.1138 10.7593 10.9566 10.6962C10.7995 10.6337 10.0604 12.1149 9.30573 14.0055C8.5511 15.8961 8.06712 17.4793 8.22424 17.5418V17.5424Z" fill="white"/>
</g>
<g opacity="0.7">
<path d="M22.2989 16.629C22.2972 16.4599 20.097 16.3481 17.3852 16.3796C14.6735 16.4111 12.4767 16.5734 12.4789 16.7431C12.4807 16.9123 14.6809 17.0241 17.3927 16.9926C20.1044 16.961 22.3012 16.7988 22.2989 16.629Z" fill="white"/>
</g>
<g opacity="0.7">
<path d="M19.3905 15.2022C19.4106 15.166 19.367 15.0944 19.2609 15.002C19.1554 14.9097 18.9862 14.8008 18.7586 14.6998C18.645 14.6488 18.516 14.6029 18.375 14.5616C18.2333 14.5226 18.0796 14.4871 17.9151 14.4647C17.5865 14.4183 17.2149 14.4177 16.8336 14.4831C16.4528 14.5507 16.103 14.6769 15.8094 14.8317C15.6621 14.908 15.529 14.994 15.4092 15.0783C15.2905 15.1655 15.185 15.252 15.0955 15.3381C14.9155 15.5101 14.7927 15.6701 14.7251 15.7922C14.6568 15.9149 14.6396 15.9969 14.6712 16.0239C14.7383 16.0829 14.9722 15.9063 15.3576 15.6833C15.4533 15.6271 15.5606 15.5703 15.6752 15.5112C15.7917 15.455 15.9149 15.3954 16.0491 15.3426C16.3152 15.2348 16.6168 15.1437 16.9397 15.0857C17.2625 15.0307 17.5773 15.0146 17.8646 15.0261C18.0085 15.0307 18.145 15.0445 18.2735 15.0582C18.4013 15.0749 18.5212 15.0921 18.6307 15.1127C19.0682 15.1924 19.3481 15.279 19.3916 15.201L19.3905 15.2022Z" fill="white"/>
</g>
<g opacity="0.7">
<path d="M20.5099 9.22772C20.5225 9.18758 20.4898 9.13597 20.4158 9.07691C20.3975 9.062 20.3763 9.04709 20.3527 9.03104C20.3292 9.01613 20.3029 9.00179 20.2742 8.98688C20.2168 8.95764 20.1503 8.92438 20.0741 8.89915C20.0362 8.88538 19.9961 8.8722 19.9536 8.85843C19.9118 8.84524 19.8671 8.8355 19.8206 8.82403C19.7283 8.79994 19.6279 8.78561 19.5219 8.7707C19.3097 8.74661 19.0729 8.7426 18.8263 8.76898C18.5803 8.79765 18.3503 8.85442 18.1485 8.92495C18.0481 8.9628 17.9541 8.9995 17.8692 9.04365C17.8268 9.06487 17.7855 9.08436 17.7477 9.10673C17.7098 9.12909 17.6737 9.15146 17.6399 9.17325C17.571 9.21511 17.5137 9.26213 17.4644 9.30341C17.4397 9.32463 17.4174 9.34413 17.3979 9.3642C17.3784 9.38484 17.3612 9.40434 17.3468 9.42269C17.2878 9.49666 17.2671 9.554 17.2889 9.5907C17.3101 9.6274 17.3715 9.63944 17.4604 9.63256C17.4827 9.63084 17.5068 9.62798 17.5321 9.62339C17.5579 9.61995 17.586 9.61593 17.6152 9.61077C17.6743 9.60102 17.7379 9.58439 17.8102 9.57121C17.8457 9.56375 17.8824 9.55572 17.9208 9.54655C17.9587 9.53737 17.9994 9.53107 18.0401 9.52189C18.1215 9.50239 18.2093 9.48806 18.3004 9.46856C18.4839 9.4353 18.6841 9.40204 18.8957 9.37739C19.1078 9.35445 19.3103 9.34241 19.496 9.33381C19.5889 9.33266 19.6778 9.32692 19.7615 9.32807C19.8034 9.32807 19.8441 9.3252 19.8831 9.32578C19.9221 9.32578 19.96 9.32578 19.9961 9.32578C20.0689 9.32234 20.1348 9.32463 20.1945 9.32062C20.2243 9.31947 20.2524 9.3166 20.2788 9.31431C20.3046 9.31259 20.3287 9.3103 20.351 9.30685C20.4393 9.29367 20.4961 9.26844 20.5087 9.22772H20.5099Z" fill="white"/>
</g>
<g opacity="0.7">
<path d="M21.5067 11.257C21.4528 11.1859 21.1879 11.3103 20.7659 11.4537C20.6603 11.4898 20.5439 11.5254 20.4201 11.5615C20.2945 11.5953 20.1615 11.6303 20.0193 11.6584C19.736 11.7169 19.4206 11.7565 19.088 11.7674C18.7554 11.7754 18.4383 11.7542 18.1522 11.7117C18.0088 11.6917 17.8735 11.6641 17.7468 11.6378C17.6206 11.6091 17.5025 11.5798 17.3952 11.5494C16.9657 11.4302 16.6939 11.3212 16.6446 11.3952C16.6217 11.4296 16.6595 11.5047 16.7564 11.6051C16.8534 11.706 17.0122 11.8287 17.229 11.9497C17.3373 12.0105 17.4606 12.0678 17.5959 12.1229C17.7324 12.1751 17.8809 12.2261 18.0409 12.2651C18.3603 12.3459 18.7245 12.3895 19.1058 12.3798C19.4871 12.3677 19.8478 12.3035 20.162 12.2049C20.3197 12.1567 20.4654 12.0976 20.5984 12.0374C20.7309 11.9749 20.8507 11.9101 20.9551 11.8436C21.1644 11.7106 21.3164 11.5787 21.4075 11.4726C21.4987 11.3665 21.532 11.2897 21.5073 11.2564L21.5067 11.257Z" fill="white"/>
</g>
<path d="M25.1782 21.979C25.1404 21.9435 25.0934 21.9567 25.0498 21.9561C24.5658 21.9498 24.0818 21.9458 23.5979 21.9395C22.8272 21.9291 22.0559 21.9177 21.2852 21.9068C20.4239 21.8947 19.5632 21.8838 18.7019 21.8718C17.9702 21.8615 17.2385 21.8506 16.5074 21.8403C15.641 21.8282 14.7739 21.8167 13.9075 21.8041C13.0634 21.7921 12.2193 21.7789 11.3752 21.7669C10.5311 21.7548 9.68706 21.7445 8.84297 21.7325C8.44329 21.7267 8.04418 21.7187 7.6445 21.7107C7.46272 21.7072 7.28553 21.6745 7.11867 21.6029C6.79583 21.4641 6.59283 21.2261 6.52918 20.8757C6.5223 20.8373 6.5137 20.7983 6.5028 20.7611C6.49191 20.7221 6.48675 20.6837 6.49649 20.6447C6.53721 20.4812 6.5699 20.3167 6.63183 20.1578C7.40252 18.164 8.17034 16.169 8.93873 14.1747C10.1768 10.9623 11.4142 7.74996 12.6523 4.53818C12.6683 4.49632 12.6867 4.45503 12.7021 4.4126C12.7882 4.17807 12.9522 4.01521 13.1724 3.90626C13.404 3.79158 13.6523 3.74513 13.9075 3.74226C14.2848 3.73767 14.6616 3.74054 15.0389 3.74169C15.3147 3.74226 15.5905 3.74628 15.8663 3.748C16.3107 3.75086 16.7557 3.75316 17.2001 3.75488C18.9336 3.76176 20.6677 3.76807 22.4011 3.77495C23.0313 3.77724 23.6621 3.77781 24.2923 3.78298C24.692 3.78584 25.0911 3.79444 25.4908 3.8019C25.6267 3.80419 25.7591 3.83172 25.8876 3.87472C25.9409 3.8925 25.9925 3.91486 26.043 3.93952C26.2735 4.05077 26.4094 4.22968 26.4352 4.48829C26.4644 4.77386 26.4977 5.05885 26.5287 5.34385C26.5694 5.71887 26.6101 6.09332 26.6508 6.46834C26.6887 6.821 26.7265 7.17309 26.7644 7.52575C26.8056 7.90593 26.8475 8.28669 26.8882 8.66687C26.9266 9.02469 26.9639 9.38308 27.0023 9.7409C27.0419 10.1102 27.0826 10.4795 27.1227 10.8482C27.1612 11.2009 27.1984 11.5529 27.2369 11.9056C27.2781 12.2858 27.3194 12.6665 27.3607 13.0467C27.3991 13.4045 27.437 13.7629 27.4754 14.1208C27.515 14.49 27.5557 14.8593 27.5958 15.228C27.6342 15.5859 27.6727 15.9443 27.7111 16.3021C27.7518 16.6771 27.7931 17.0516 27.8332 17.4266C27.8716 17.7844 27.9095 18.1428 27.9479 18.5006C27.9875 18.8699 28.0282 19.2392 28.0683 19.6079C28.1039 19.9325 28.144 20.2564 28.1727 20.5816C28.2048 20.9503 28.0884 21.2697 27.8252 21.5318C27.6073 21.7485 27.3412 21.8752 27.0436 21.9418C27.0058 21.9504 26.9639 21.9452 26.9341 21.9779H25.1777L25.1782 21.979ZM21.9418 10.6842C21.9057 10.7582 21.9097 10.8453 21.8891 10.9262C21.8013 11.2697 21.6121 11.5512 21.3586 11.7926C21.1115 12.0283 20.8265 12.2072 20.5186 12.3512C19.8362 12.6706 19.1182 12.8024 18.3682 12.7514C17.9496 12.7227 17.5459 12.6264 17.1617 12.4532C16.8916 12.3311 16.6525 12.1654 16.4507 11.948C16.211 11.6894 16.0533 11.3912 16.0108 11.0363C15.9982 10.929 15.9971 10.8235 16.0074 10.7163C16.0114 10.6739 15.9931 10.6544 15.9512 10.6498C15.9231 10.6469 15.895 10.6463 15.8669 10.6458C15.6249 10.6435 15.3829 10.6406 15.1409 10.6389C14.7298 10.636 14.3192 10.6343 13.9081 10.6309C12.8948 10.6228 11.8821 10.6125 10.8689 10.6056C10.6275 10.6039 10.6711 10.5718 10.5833 10.8C9.75529 12.9464 8.92784 15.0933 8.10038 17.2402C7.95243 17.6233 7.80506 18.0069 7.65769 18.3899C7.63418 18.4507 7.63074 18.4943 7.72536 18.5006C7.75345 18.5023 7.78098 18.5092 7.8085 18.5149C8.08661 18.5694 8.35211 18.6583 8.59467 18.8085C8.97428 19.0442 9.20939 19.3802 9.28738 19.8212C9.32293 20.0219 9.31891 20.2249 9.28565 20.4262C9.23921 20.7066 9.14172 20.9692 9.00926 21.2198C8.98575 21.2645 8.9611 21.3087 8.93988 21.3546C8.92898 21.3781 8.93759 21.3999 8.96568 21.4033C9.00468 21.4079 9.04424 21.4096 9.08324 21.4108C9.27476 21.4148 9.46571 21.4176 9.65724 21.4211C9.94395 21.4257 10.2312 21.4308 10.5185 21.4343C10.6217 21.4354 10.6252 21.4314 10.6521 21.3253C10.6768 21.2273 10.6992 21.1281 10.7232 21.03C11.0639 19.6406 11.4848 18.2764 12.0008 16.942C12.0289 16.8686 12.0611 16.7964 12.0978 16.727C12.2205 16.4919 12.4177 16.356 12.6752 16.3027C12.8082 16.2751 12.943 16.2711 13.0783 16.2711C13.3599 16.2711 13.6414 16.2682 13.923 16.2728C14.0015 16.274 14.044 16.247 14.079 16.1771C14.286 15.7659 14.5927 15.4408 14.9638 15.1741C15.2809 14.9459 15.6266 14.7705 15.9925 14.6351C16.805 14.3341 17.6382 14.2234 18.4972 14.3817C18.9921 14.4728 19.4222 14.6925 19.7783 15.052C20.0742 15.3508 20.2726 15.7063 20.3775 16.1123C20.4251 16.2952 20.4176 16.2682 20.5736 16.2717C20.6017 16.2723 20.6298 16.2717 20.6579 16.2717C20.9957 16.2717 21.3334 16.2717 21.6711 16.2717C21.8392 16.2717 21.994 16.3135 22.1328 16.4099C22.2629 16.5005 22.3512 16.6215 22.3759 16.7803C22.3862 16.8468 22.3862 16.9151 22.3851 16.9822C22.3639 18.012 22.3409 19.0414 22.3191 20.0712C22.3094 20.5271 22.3013 20.983 22.2922 21.4389C22.2916 21.4727 22.291 21.5065 22.2922 21.5404C22.2933 21.5811 22.3168 21.6006 22.3564 21.6017C22.3902 21.6029 22.4241 21.6029 22.4579 21.6034C22.8633 21.6074 23.2682 21.6115 23.6736 21.616C23.8525 21.6183 23.8525 21.6195 23.8886 21.4463C23.8897 21.4406 23.8909 21.4354 23.892 21.4297C24.0377 20.7324 24.3617 20.1314 24.8709 19.6337C25.3755 19.1411 25.9845 18.8401 26.664 18.6715C26.949 18.601 27.2391 18.566 27.531 18.5419C27.6268 18.5339 27.6291 18.5321 27.6205 18.4433C27.593 18.1634 27.5643 17.8836 27.5345 17.6038C27.484 17.1336 27.4307 16.6639 27.3802 16.1943C27.3406 15.8307 27.3045 15.4666 27.265 15.103C27.2145 14.6386 27.1617 14.1747 27.1118 13.7102C27.0614 13.24 27.0132 12.7698 26.9628 12.3001C26.9089 11.7966 26.8532 11.2932 26.7999 10.7897C26.7816 10.6183 26.7781 10.6142 26.6084 10.6177C25.7866 10.6355 24.9649 10.6509 24.1438 10.6601C23.4568 10.6681 22.7704 10.667 22.0834 10.6704C22.0387 10.6704 21.9934 10.6641 21.9452 10.6853L21.9418 10.6842ZM10.8075 10.2816C10.8465 10.2839 10.8855 10.288 10.9239 10.2885C12.0438 10.2954 13.1643 10.3017 14.2842 10.3086C14.5824 10.3103 14.8806 10.3161 15.1788 10.3183C15.4546 10.3206 15.7304 10.3195 16.0062 10.3229C16.0722 10.3235 16.1072 10.2989 16.133 10.2381C16.2809 9.89229 16.5246 9.62335 16.8217 9.39971C17.1348 9.16346 17.4817 8.99201 17.855 8.87445C18.1841 8.77123 18.5207 8.71332 18.8654 8.68924C19.3757 8.65368 19.8775 8.70185 20.3689 8.84349C20.7462 8.95244 21.092 9.12561 21.3821 9.39627C21.6178 9.6159 21.7876 9.87623 21.8753 10.1888C21.8902 10.2409 21.8805 10.3086 21.9321 10.3413C21.9802 10.3722 22.0422 10.355 22.0978 10.355C22.8352 10.3528 23.5721 10.3493 24.3095 10.3367C25.0636 10.3235 25.8176 10.3178 26.5717 10.2937C26.6112 10.2925 26.6502 10.2908 26.6898 10.2868C26.7145 10.2845 26.7305 10.2685 26.7311 10.2432C26.7317 10.2094 26.7311 10.1756 26.7276 10.1423C26.7036 9.91293 26.6783 9.68356 26.6531 9.45419C26.6015 8.98455 26.5499 8.51434 26.4989 8.0447C26.449 7.58022 26.4008 7.11575 26.3509 6.65127C26.2987 6.16443 26.2425 5.67816 26.1932 5.19132C26.1749 5.00839 26.1594 5.02904 26.012 5.02273C25.6112 5.00553 25.2172 4.94589 24.8348 4.82088C24.4328 4.68957 24.0698 4.49288 23.7883 4.16775C23.747 4.11958 23.7005 4.10639 23.6409 4.10639C23.3765 4.10639 23.1116 4.10467 22.8473 4.1041C22.8192 4.1041 22.7911 4.10582 22.7635 4.10983C22.7395 4.11327 22.7228 4.12875 22.7205 4.15398C22.7171 4.18782 22.7148 4.22108 22.7142 4.25491C22.7079 4.69931 22.6666 5.14315 22.6821 5.58813C22.6833 5.61623 22.6804 5.64433 22.6798 5.67242C22.6729 5.89033 22.56 6.02795 22.3575 6.09906C22.2549 6.13518 22.1488 6.14321 22.0416 6.14321C21.7881 6.14206 21.5347 6.14321 21.2818 6.13862C21.2061 6.13748 21.1597 6.15869 21.1218 6.22922C20.9498 6.55321 20.6866 6.7843 20.366 6.95461C20.1309 7.08019 19.8803 7.16162 19.6206 7.21839C19.2203 7.30555 18.8155 7.31071 18.4106 7.27631C18.0282 7.24362 17.6543 7.16162 17.2976 7.01482C17.1147 6.9397 16.9409 6.84795 16.7861 6.72295C16.621 6.58934 16.4925 6.42992 16.4271 6.22349C16.4013 6.14149 16.3973 6.1392 16.3056 6.14034C16.1536 6.14206 16.0017 6.1455 15.8503 6.15468C15.7367 6.16156 15.6255 6.15181 15.5137 6.13805C15.4403 6.12887 15.3709 6.10536 15.3067 6.06866C15.1765 5.99469 15.1151 5.88287 15.1249 5.73321C15.1266 5.70511 15.1329 5.67758 15.1364 5.64949C15.1943 5.16265 15.2952 4.68383 15.4322 4.21305C15.4443 4.17119 15.4678 4.13047 15.4489 4.08517C15.4374 4.08058 15.4271 4.07313 15.4173 4.07256C15.1753 4.07026 14.9334 4.06969 14.6914 4.06797C14.6455 4.06797 14.6214 4.09033 14.6054 4.13277C14.5113 4.38164 14.3295 4.55366 14.1053 4.68441C14.0182 4.73487 13.9264 4.77902 13.8329 4.81859C13.646 4.89772 13.4505 4.9522 13.2509 4.98775C13.1236 5.01069 12.9957 5.03018 12.8673 5.04681C12.8157 5.05369 12.7864 5.07606 12.771 5.12537C12.7555 5.17354 12.7343 5.21942 12.7159 5.26701C12.4103 6.05949 12.1052 6.85197 11.8001 7.64502C11.4825 8.46904 11.1648 9.29306 10.8482 10.1176C10.8288 10.1687 10.7938 10.2169 10.8087 10.2822L10.8075 10.2816ZM10.9561 21.4285C11.0088 21.4331 11.0421 21.4383 11.0753 21.4389C11.627 21.4486 12.1786 21.4584 12.7297 21.4658C12.8753 21.4675 12.8805 21.4899 12.9292 21.3081C13.0474 20.8683 13.1741 20.4302 13.2991 19.9921C13.3346 19.8677 13.3776 19.7455 13.4459 19.6337C13.5445 19.4714 13.6839 19.3682 13.8725 19.3315C13.9677 19.3132 14.0629 19.3137 14.1581 19.3137C15.9317 19.3137 17.7047 19.3137 19.4784 19.3137C19.6361 19.3137 19.7937 19.3132 19.9514 19.3109C20.0483 19.3097 20.143 19.3235 20.2341 19.3539C20.4245 19.4175 20.5398 19.5695 20.5467 19.7708C20.5501 19.8602 20.5415 19.9508 20.5358 20.0403C20.5077 20.4956 20.4784 20.9503 20.4503 21.4056C20.448 21.4446 20.4486 21.4842 20.4503 21.5237C20.4515 21.5484 20.4658 21.5667 20.4905 21.569C20.5237 21.573 20.5576 21.5736 20.5914 21.5742C20.963 21.5799 21.3345 21.5857 21.7056 21.5908C21.7732 21.592 21.8409 21.5931 21.908 21.592C21.9395 21.592 21.9602 21.573 21.9636 21.5409C21.9665 21.5128 21.967 21.4847 21.9676 21.4566C21.9871 20.5002 22.006 19.5431 22.0255 18.5866C22.0359 18.0745 22.0479 17.5625 22.0588 17.0504C22.0599 16.9885 22.0617 16.9265 22.0565 16.8646C22.0473 16.7608 21.9905 16.688 21.8971 16.6421C21.8512 16.6192 21.803 16.6049 21.7514 16.602C21.6671 16.5974 21.5828 16.5917 21.4985 16.5917C19.241 16.5917 16.9834 16.5917 14.7258 16.5917C14.6638 16.5917 14.6019 16.5928 14.54 16.5911C14.0784 16.5773 13.6168 16.5727 13.1552 16.5819C13.0261 16.5842 12.8954 16.5899 12.7681 16.6094C12.572 16.6393 12.4252 16.7442 12.346 16.9323C12.3306 16.9684 12.3174 17.0057 12.303 17.0424C11.838 18.2397 11.4549 19.4628 11.1327 20.7054C11.0719 20.9388 11.0168 21.1739 10.9543 21.4285H10.9561ZM13.2366 21.4572C13.2945 21.4813 13.3513 21.471 13.4069 21.4721C13.8175 21.4784 14.228 21.4836 14.6386 21.4899C15.5217 21.5031 16.4048 21.5174 17.2879 21.53C17.8447 21.5381 18.4015 21.5426 18.9583 21.5507C19.2507 21.5547 19.5432 21.5621 19.8356 21.5673C19.9084 21.5685 19.9818 21.5673 20.0552 21.5667C20.0954 21.5667 20.1172 21.5449 20.1206 21.5059C20.1275 21.4331 20.1349 21.3603 20.1395 21.2875C20.1613 20.9394 20.1831 20.5913 20.2037 20.2433C20.2118 20.1085 20.2204 19.9737 20.2209 19.8384C20.2209 19.7117 20.1802 19.6675 20.0575 19.6423C19.952 19.6211 19.8454 19.6159 19.7381 19.6182C19.4399 19.624 19.1423 19.6371 18.8441 19.6377C17.2856 19.64 15.727 19.6383 14.169 19.6389C14.0962 19.6389 14.0228 19.6406 13.9499 19.6469C13.841 19.6566 13.7584 19.714 13.7102 19.8109C13.6776 19.8757 13.654 19.9456 13.6322 20.015C13.6036 20.1062 13.5806 20.1991 13.5543 20.2909C13.4596 20.6206 13.3639 20.9497 13.2704 21.2794C13.2538 21.3374 13.2314 21.3958 13.2377 21.4578L13.2366 21.4572ZM16.8801 4.08116C16.8285 4.07886 16.7953 4.076 16.762 4.076C16.4977 4.07485 16.2333 4.0737 15.969 4.07313C15.9351 4.07313 15.9013 4.0737 15.8675 4.07428C15.8291 4.07485 15.805 4.09492 15.7929 4.13047C15.7843 4.15742 15.7757 4.1838 15.7671 4.21075C15.6255 4.67408 15.5234 5.14602 15.4569 5.62598C15.4357 5.77794 15.438 5.80087 15.622 5.82381C15.6496 5.82725 15.6782 5.82496 15.7063 5.82438C15.7683 5.82381 15.8302 5.82209 15.8921 5.82209C17.7994 5.82209 19.706 5.82209 21.6132 5.82209C21.7428 5.82209 21.8719 5.8261 22.0014 5.82897C22.0812 5.83069 22.1586 5.82152 22.2343 5.79628C22.2979 5.77449 22.3386 5.73091 22.3484 5.66325C22.3535 5.62426 22.3558 5.58526 22.3564 5.5457C22.3587 5.4333 22.3564 5.32091 22.3604 5.20852C22.3719 4.87134 22.3851 4.53417 22.3971 4.19699C22.4 4.11958 22.3862 4.10123 22.3157 4.10065C22.1075 4.09836 21.8994 4.09836 21.6912 4.10065C21.6201 4.10123 21.6081 4.11671 21.6018 4.19298C21.5978 4.24344 21.5995 4.29447 21.592 4.34436C21.5616 4.54678 21.455 4.65573 21.2531 4.68498C21.17 4.69702 21.0851 4.69759 21.0008 4.69817C20.9223 4.69874 20.8437 4.69014 20.7646 4.69014C19.628 4.69014 18.4921 4.69186 17.3555 4.69243C17.2827 4.69243 17.2087 4.69129 17.137 4.67982C16.9719 4.65344 16.8784 4.54908 16.8681 4.38278C16.8647 4.32716 16.8693 4.27039 16.8716 4.21419C16.8733 4.1752 16.8767 4.13678 16.8801 4.08116ZM25.5418 21.6436C25.5418 21.6436 25.5418 21.6453 25.5418 21.6464C25.6318 21.6464 25.7219 21.6453 25.8119 21.6464C26.0992 21.6499 26.3859 21.6562 26.6732 21.6573C26.9616 21.6585 27.2311 21.5879 27.4674 21.4159C27.726 21.2273 27.8607 20.9732 27.8527 20.6498C27.851 20.5713 27.8458 20.4921 27.8378 20.4141C27.7954 20.011 27.7512 19.6085 27.7071 19.2059C27.6967 19.1107 27.6847 19.0161 27.6727 18.9209C27.6686 18.8894 27.6492 18.8693 27.6182 18.867C27.5792 18.8647 27.5396 18.8659 27.5001 18.8682C26.9605 18.9014 26.4409 19.0184 25.9558 19.2598C25.0521 19.7094 24.4695 20.4233 24.22 21.4045C24.2063 21.4589 24.1988 21.5145 24.1897 21.5702C24.1851 21.5977 24.204 21.6155 24.2258 21.6178C24.2871 21.6246 24.3491 21.6292 24.4104 21.6298C24.7877 21.635 25.1645 21.6384 25.5418 21.6424V21.6436ZM18.9726 10.6687C18.9726 10.6647 18.9726 10.6607 18.9726 10.6567C18.191 10.6567 17.4094 10.6567 16.6278 10.6567C16.555 10.6567 16.4816 10.6532 16.4088 10.655C16.3566 10.6561 16.3348 10.6756 16.3308 10.7238C16.3199 10.8528 16.3188 10.9818 16.3457 11.1097C16.4054 11.3901 16.5527 11.6172 16.7609 11.8081C17.0097 12.0363 17.3033 12.1872 17.625 12.2846C18.218 12.4635 18.8195 12.4848 19.4268 12.3718C19.8901 12.2858 20.3247 12.1229 20.7256 11.8729C20.9412 11.7382 21.1384 11.5805 21.3001 11.3826C21.4263 11.2284 21.5226 11.0592 21.5731 10.8648C21.623 10.6727 21.6218 10.6693 21.4188 10.6693C20.6034 10.6693 19.788 10.6693 18.9726 10.6693V10.6687ZM14.4173 16.2705H17.7128C18.4382 16.2705 19.1641 16.2705 19.8895 16.2705C19.94 16.2705 19.9904 16.2682 20.0409 16.2648C20.0598 16.2637 20.0707 16.2482 20.0696 16.231C20.0684 16.2092 20.0627 16.1868 20.0569 16.1656C19.866 15.4907 19.4474 15.0251 18.7839 14.7865C18.4296 14.6592 18.0608 14.6242 17.6875 14.6345C17.2007 14.6477 16.727 14.7378 16.2643 14.8874C15.8119 15.0337 15.3864 15.2344 15.0113 15.532C14.798 15.7011 14.6128 15.8961 14.4683 16.1278C14.4454 16.1645 14.4121 16.1983 14.4173 16.2711V16.2705ZM19.0162 10.3459C19.0162 10.3493 19.0162 10.3528 19.0162 10.3556C19.8035 10.3556 20.5902 10.3562 21.3776 10.3556C21.5823 10.3556 21.6161 10.3877 21.5232 10.1475C21.4722 10.0156 21.3971 9.89688 21.3076 9.78735C21.1855 9.63769 21.0392 9.51612 20.8764 9.41348C20.5071 9.18124 20.1 9.06139 19.671 9.01208C19.1223 8.94842 18.5827 9.00462 18.0517 9.15199C17.6468 9.26496 17.2741 9.44387 16.9455 9.70994C16.7918 9.83495 16.6559 9.97658 16.5476 10.1429C16.52 10.1847 16.4965 10.23 16.4747 10.2753C16.4633 10.2994 16.4765 10.3189 16.504 10.3218C16.5321 10.3247 16.5602 10.3247 16.5883 10.3252C17.398 10.3321 18.2071 10.3396 19.0167 10.3464L19.0162 10.3459ZM8.03787 21.4039C8.16747 21.4039 8.29649 21.4016 8.42608 21.405C8.48802 21.4067 8.53102 21.3901 8.56658 21.3351C8.77014 21.0197 8.92669 20.6871 8.98002 20.3109C9.04023 19.886 8.92038 19.3435 8.35097 19.0373C8.11987 18.9129 7.87215 18.8452 7.61411 18.8074C7.59175 18.804 7.56938 18.8034 7.54702 18.8034C7.51605 18.8034 7.49369 18.8183 7.48222 18.8475C7.47132 18.8733 7.46043 18.8991 7.45011 18.9255C7.27005 19.3923 7.09 19.8596 6.91109 20.327C6.88528 20.3952 6.86177 20.4652 6.84629 20.5363C6.77002 20.8884 6.92198 21.1734 7.25514 21.3116C7.3337 21.3442 7.41398 21.366 7.49828 21.3781C7.67719 21.4039 7.85782 21.3953 8.0373 21.4039H8.03787ZM18.7771 6.1392C18.175 6.1392 17.5723 6.1392 16.9702 6.1392C16.9249 6.1392 16.8802 6.13862 16.8349 6.1392C16.754 6.14149 16.7397 6.16844 16.7809 6.24356C16.8446 6.35997 16.9386 6.4477 17.0459 6.52282C17.1852 6.6203 17.3377 6.69141 17.4977 6.7476C18.1652 6.98099 18.8476 7.04005 19.5432 6.90702C19.7983 6.85828 20.0438 6.7757 20.2703 6.64496C20.4526 6.54002 20.6143 6.411 20.7393 6.23955C20.7525 6.22177 20.764 6.2017 20.772 6.18106C20.7783 6.16443 20.7709 6.1455 20.7519 6.14378C20.7015 6.13977 20.651 6.13862 20.6006 6.13862C19.9927 6.13862 19.3849 6.13862 18.7765 6.13862L18.7771 6.1392ZM19.2329 4.09263V4.07542C18.6314 4.07542 18.0299 4.07428 17.4283 4.07542C17.2076 4.07542 17.2162 4.03872 17.2053 4.29791C17.203 4.3478 17.2271 4.37246 17.2747 4.37418C17.3475 4.3759 17.4209 4.37303 17.4937 4.37303C18.6348 4.37418 19.7765 4.37533 20.9177 4.3759C20.9905 4.3759 21.0639 4.3759 21.1367 4.37074C21.2256 4.36386 21.2508 4.33461 21.2617 4.24344C21.2784 4.10352 21.2692 4.09263 21.1212 4.09205C20.4916 4.09148 19.862 4.09205 19.2324 4.09205L19.2329 4.09263ZM24.8577 4.10983V4.10696C24.7057 4.10696 24.5538 4.10696 24.4024 4.10696C24.3519 4.10696 24.3015 4.10926 24.251 4.10983C24.2372 4.10983 24.2275 4.11614 24.2281 4.12933C24.2281 4.13907 24.2304 4.15284 24.2372 4.15857C24.2768 4.19011 24.3164 4.22222 24.3582 4.25032C24.532 4.36673 24.7218 4.45102 24.9202 4.51696C25.1777 4.60183 25.4432 4.64943 25.7115 4.67982C25.8285 4.69301 25.9472 4.69817 26.0648 4.70562C26.0952 4.70734 26.1215 4.69645 26.1267 4.66262C26.1525 4.49632 26.0757 4.32888 25.9317 4.24631C25.8784 4.21591 25.8205 4.19298 25.762 4.17348C25.6387 4.13219 25.5108 4.11212 25.3807 4.1104C25.2063 4.10868 25.032 4.1104 24.8577 4.1104V4.10983ZM12.9929 4.70792C13.1311 4.68785 13.2739 4.66032 13.4143 4.61903C13.6311 4.55538 13.8375 4.4688 14.0245 4.34035C14.1128 4.27956 14.1948 4.21133 14.2521 4.11843C14.2739 4.08231 14.2596 4.05134 14.2171 4.05019C13.9803 4.04389 13.7452 4.05994 13.5153 4.12015C13.4401 4.13965 13.3668 4.17233 13.2968 4.20674C13.1064 4.30021 13.0066 4.46478 12.9527 4.66204C12.9459 4.68613 12.9579 4.70505 12.9934 4.70849L12.9929 4.70792Z" fill="#000E3F"/>
<path d="M16.3073 17.8405C16.2304 18.0234 16.1456 18.2035 16.0555 18.379C16.0326 18.4243 16.0085 18.4696 15.985 18.5137C15.4099 19.5843 14.6013 20.5098 13.6483 21.2381C13.4275 21.4073 13.1987 21.5655 12.963 21.7123C11.8231 22.4239 10.5271 22.8712 9.20192 22.9796C8.80625 23.0123 8.40772 23.0152 8.01033 22.9888C7.83543 22.9773 7.66054 22.9601 7.48621 22.9372C5.93796 22.7347 4.44417 22.0879 3.28011 21.0162C3.23653 20.9766 3.1941 20.9365 3.15167 20.8952C3.08113 20.8264 3.01175 20.7564 2.94408 20.6847C1.80927 19.4874 1.10624 17.883 0.89866 16.2114C0.855653 15.8651 0.833862 15.5164 0.833862 15.1672C0.833862 14.5576 0.900382 13.9487 1.03628 13.3563C1.19799 12.6539 1.4503 11.999 1.77715 11.3986C1.79034 11.3722 1.80525 11.3459 1.81959 11.3201C2.74338 9.664 4.23372 8.42482 5.93394 7.73097C5.93738 7.72982 5.94082 7.7281 5.94427 7.72696C7.44665 7.11568 9.11361 6.93046 10.698 7.25904C10.8884 7.29803 11.077 7.34505 11.264 7.4001C12.3495 7.71434 13.3805 8.28318 14.2756 9.13472C14.3031 9.16053 14.3301 9.18691 14.3576 9.21386C14.4144 9.27005 14.4712 9.32682 14.5268 9.38474C15.5171 10.4175 16.2327 11.6871 16.5951 13.0398C16.6685 13.3099 16.7265 13.5834 16.77 13.8592C16.9793 15.1844 16.8486 16.5572 16.3067 17.84L16.3073 17.8405Z" fill="white"/>
<path d="M16.1926 17.7736C15.5618 19.2622 14.4814 20.5392 13.1408 21.4395C11.7491 22.3736 10.0959 22.9 8.41571 22.8725C6.83305 22.8467 5.25841 22.3507 3.97622 21.416C2.71869 20.4997 1.82357 19.1618 1.3568 17.6847C0.843007 16.059 0.828671 14.2751 1.374 12.6551C1.85454 11.2267 2.76801 9.97322 3.9464 9.03968C5.14831 8.08778 6.63005 7.46963 8.15251 7.289C9.78104 7.09575 11.4543 7.40024 12.8718 8.23688C14.2377 9.04254 15.3112 10.307 15.981 11.7371C16.6869 13.2446 16.9294 14.9781 16.563 16.6095C16.4712 17.0184 16.3422 17.418 16.1799 17.8045C16.1518 17.8716 16.2103 17.9502 16.2728 17.968C16.3491 17.9898 16.4087 17.941 16.4363 17.8751C17.1221 16.2374 17.1605 14.3921 16.6375 12.7033C16.1587 11.1568 15.2275 9.72492 13.9768 8.69103C12.6837 7.62216 11.0638 7.02751 9.38882 6.97017C7.74136 6.91397 6.08357 7.36526 4.67351 8.21451C3.38674 8.98979 2.30697 10.1017 1.60796 11.4337C0.773619 13.0239 0.526471 14.8651 0.826948 16.629C1.09245 18.1864 1.7949 19.6802 2.89359 20.8236C4.00662 21.9814 5.51473 22.7303 7.08937 23.009C8.81424 23.314 10.5873 23.0554 12.1654 22.3008C13.6614 21.5857 14.958 20.4435 15.8359 19.0345C16.0601 18.6744 16.2562 18.2971 16.4219 17.9066C16.45 17.8401 16.4414 17.765 16.3743 17.7248C16.3187 17.6916 16.2201 17.7065 16.1926 17.7724V17.7736Z" fill="black"/>
<path d="M7.03602 12.2979L6.39837 15.1977C6.33128 15.5016 6.4775 15.813 6.75389 15.9558L9.3779 17.3114C9.64053 17.4467 9.95994 17.3997 10.1721 17.1938L12.1642 15.2591C12.3649 15.0647 12.4274 14.7676 12.3225 14.5085L11.2215 11.7852C11.1034 11.4928 10.8012 11.3185 10.4892 11.362L7.61174 11.7652C7.32732 11.8047 7.09795 12.0175 7.03602 12.2979Z" fill="#0D51E3"/>
<path d="M6.90824 12.2629C6.78381 12.8288 6.65937 13.3948 6.53494 13.9602C6.46211 14.2911 6.38929 14.6225 6.31646 14.9534C6.30155 15.0211 6.2855 15.0887 6.27173 15.157C6.22185 15.4018 6.26944 15.6501 6.42427 15.8491C6.57336 16.0406 6.80961 16.1335 7.01949 16.2419C7.34921 16.4122 7.6795 16.5825 8.00922 16.7534C8.33722 16.9226 8.66523 17.0923 8.99323 17.2614C9.21973 17.3784 9.44968 17.5281 9.71403 17.5201C10.0478 17.5103 10.2531 17.301 10.4732 17.0871C10.7342 16.8342 10.9945 16.5808 11.2554 16.3279C11.518 16.0727 11.7807 15.8181 12.0433 15.5629C12.2532 15.3588 12.463 15.1742 12.5009 14.8599C12.5324 14.599 12.4097 14.3662 12.3151 14.1322C12.1763 13.7882 12.037 13.4447 11.8982 13.1006L11.4836 12.0759C11.3896 11.8431 11.3133 11.5793 11.1132 11.4142C10.9228 11.2576 10.69 11.2014 10.448 11.2341C10.3746 11.2439 10.3018 11.2548 10.2284 11.2651C9.88663 11.3127 9.54487 11.3609 9.2031 11.4085C8.8212 11.4618 8.4393 11.5151 8.05739 11.569C7.86013 11.5965 7.63592 11.6017 7.44612 11.6682C7.17661 11.7628 6.97705 11.9848 6.90996 12.2617C6.86925 12.428 7.12614 12.4991 7.16686 12.3323C7.22535 12.0908 7.4077 11.9303 7.6514 11.8919C7.70875 11.8827 7.76609 11.8758 7.82343 11.8678C8.13251 11.8242 8.44216 11.7812 8.75124 11.7376C9.33901 11.6556 9.92735 11.5524 10.5174 11.4905C10.717 11.4692 10.9326 11.5575 11.0495 11.737C11.0885 11.7967 11.1115 11.8597 11.139 11.9286C11.248 12.1981 11.3569 12.4676 11.4659 12.7365C11.7038 13.3254 11.9435 13.9143 12.1803 14.5038C12.2365 14.6443 12.2612 14.7842 12.2148 14.9333C12.1786 15.0503 12.1024 15.134 12.0175 15.216C11.8179 15.4098 11.6184 15.6037 11.4188 15.7975C10.9767 16.227 10.5375 16.6593 10.0925 17.0854C9.94397 17.2276 9.73984 17.2895 9.53914 17.2311C9.4709 17.211 9.40896 17.1754 9.34589 17.1433C9.09014 17.0114 8.83439 16.879 8.57864 16.7471C8.00808 16.4523 7.43752 16.1576 6.86695 15.8629C6.6049 15.7275 6.47243 15.4855 6.53608 15.1914C6.58827 14.9511 6.6416 14.7108 6.69493 14.47C6.84172 13.8014 6.98909 13.1333 7.13589 12.4647C7.14564 12.4206 7.15539 12.3758 7.16514 12.3317C7.20184 12.1648 6.94552 12.0937 6.90824 12.2611V12.2629Z" fill="black"/>
<path d="M13.6484 21.2383C13.4277 21.4075 13.1989 21.5658 12.9632 21.7126C11.8232 22.4242 10.5273 22.8715 9.20206 22.9798C8.80639 23.0125 8.40786 23.0154 8.01047 22.989C7.90266 22.7464 7.9451 22.462 8.12114 22.2602L9.94637 20.1672C10.1402 19.9447 10.4556 19.8713 10.728 19.9848L13.4552 21.1179C13.5274 21.1483 13.5922 21.189 13.6484 21.2395V21.2383Z" fill="#0D51E3"/>
<path d="M13.5814 21.1235C12.3703 22.0468 10.9161 22.6661 9.39707 22.8283C8.93661 22.8777 8.47271 22.8851 8.01052 22.8559C8.05353 22.8885 8.09596 22.9212 8.13897 22.9533C8.0541 22.7475 8.07303 22.5284 8.21638 22.353C8.24219 22.3214 8.27029 22.291 8.29724 22.2606C8.44231 22.0943 8.58739 21.9281 8.73247 21.7618C9.10577 21.334 9.4785 20.9062 9.8518 20.4779C9.9447 20.3718 10.0399 20.2341 10.1592 20.1562C10.3719 20.018 10.5869 20.069 10.8008 20.1579C11.2802 20.3569 11.7602 20.5564 12.2396 20.7554C12.5205 20.8718 12.8009 20.9888 13.0819 21.1052C13.2373 21.1694 13.4237 21.2222 13.5544 21.3328C13.6846 21.4429 13.8733 21.2554 13.7425 21.1448C13.5963 21.0209 13.4197 20.9595 13.2454 20.8873C13.0005 20.7858 12.7556 20.6837 12.5114 20.5822C11.9878 20.3649 11.4637 20.147 10.9402 19.9297C10.7372 19.8454 10.5479 19.7731 10.3191 19.8127C10.0714 19.8557 9.90685 20.0111 9.75088 20.19C9.38044 20.6149 9.01001 21.0398 8.63958 21.4642L8.10284 22.0794C8.0627 22.1253 8.02142 22.1706 7.98472 22.2194C7.81154 22.4493 7.77312 22.7584 7.88322 23.0239C7.90731 23.0824 7.94687 23.1173 8.01167 23.1214C9.59605 23.2223 11.1781 22.8518 12.571 22.0955C12.9713 21.8782 13.3543 21.6293 13.7167 21.3529C13.8509 21.2503 13.7184 21.0192 13.5825 21.123L13.5814 21.1235Z" fill="black"/>
<path d="M16.3074 17.8407C16.2306 18.0237 16.1457 18.2037 16.0557 18.3792L14.7557 15.8022C14.6301 15.5528 14.668 15.2523 14.8515 15.0413L16.5959 13.0406C16.6693 13.3106 16.7272 13.5842 16.7708 13.86C16.9801 15.1852 16.8493 16.558 16.3074 17.8407Z" fill="#0D51E3"/>
<path d="M16.1926 17.7735C16.1152 17.9565 16.0309 18.1354 15.9409 18.312H16.1708C15.7889 17.5545 15.4064 16.797 15.0245 16.0395C14.9735 15.9386 14.9196 15.8394 14.872 15.7373C14.7648 15.5085 14.825 15.2745 14.985 15.091C15.2774 14.7556 15.5693 14.4207 15.8617 14.0852C16.1381 13.7687 16.414 13.4516 16.6903 13.1351L16.4679 13.0766C16.887 14.6415 16.8068 16.3073 16.1794 17.8056C16.1513 17.8727 16.2098 17.9513 16.2723 17.9691C16.3486 17.9909 16.4082 17.9421 16.4357 17.8762C17.0803 16.3365 17.1543 14.6122 16.7242 13.0055C16.6995 12.9137 16.5688 12.8701 16.5017 12.947C15.9443 13.5864 15.3869 14.2257 14.829 14.8657C14.6679 15.0503 14.544 15.2516 14.5492 15.5085C14.5532 15.696 14.6312 15.8514 14.7126 16.0131C14.9351 16.4541 15.1576 16.895 15.3795 17.336C15.5664 17.7064 15.7534 18.0769 15.9403 18.4473C15.9845 18.5345 16.1261 18.5339 16.1702 18.4473C16.2603 18.2707 16.3446 18.0912 16.422 17.9089C16.4501 17.8423 16.4415 17.7672 16.3744 17.7271C16.3188 17.6938 16.2201 17.7087 16.1926 17.7747V17.7735Z" fill="black"/>
<path d="M14.2767 9.13522L12.8821 9.45003C12.5747 9.51999 12.2593 9.3709 12.1171 9.08935L11.265 7.40002C12.3505 7.71426 13.3815 8.28311 14.2767 9.13465V9.13522Z" fill="#0D51E3"/>
<path d="M14.2413 9.00687C13.7768 9.1118 13.3135 9.22936 12.8467 9.32168C12.5921 9.37214 12.3524 9.24885 12.232 9.02235C12.2027 8.96673 12.1758 8.91053 12.1471 8.85433C12.0038 8.56991 11.8598 8.28549 11.7165 8.00107C11.6041 7.77858 11.4917 7.55609 11.3799 7.3336C11.33 7.39897 11.2795 7.46377 11.2296 7.52914C12.3364 7.85255 13.3456 8.43688 14.1828 9.22936C14.3072 9.34691 14.4959 9.1594 14.3709 9.04127C13.5004 8.21725 12.451 7.60885 11.3002 7.27224C11.1826 7.23784 11.0995 7.36801 11.1499 7.46778C11.4017 7.96609 11.6528 8.46498 11.9046 8.96328C11.9367 9.02751 11.9682 9.09231 12.0015 9.15596C12.1179 9.37615 12.3312 9.54245 12.5789 9.58603C12.8565 9.63477 13.1644 9.52353 13.4333 9.46274C13.7263 9.3968 14.0194 9.33028 14.3124 9.26434C14.4793 9.22649 14.4087 8.97017 14.2419 9.00744L14.2413 9.00687Z" fill="black"/>
<path d="M5.945 7.72751L5.60782 10.2397C5.56998 10.5241 5.35896 10.7552 5.07855 10.8183L2.24409 11.4588C2.08181 11.4949 1.91781 11.4714 1.77789 11.3992C1.79108 11.3728 1.80599 11.3464 1.82033 11.3206C2.74412 9.66455 4.23446 8.42537 5.93468 7.73152C5.93812 7.73038 5.94156 7.72866 5.945 7.72751Z" fill="#0D51E3"/>
<path d="M5.81192 7.72765C5.70182 8.54708 5.59172 9.36651 5.48162 10.1859C5.44951 10.4268 5.29525 10.6281 5.0418 10.69C4.93686 10.7158 4.83078 10.7376 4.72527 10.7617C4.2132 10.8775 3.70112 10.9933 3.18905 11.1086C2.93674 11.1654 2.68443 11.2227 2.43213 11.2795C2.23143 11.3248 2.04563 11.381 1.84436 11.2841C1.86042 11.3448 1.8759 11.4056 1.89195 11.4658C2.56401 10.1848 3.65353 9.11994 4.89615 8.39225C5.24422 8.18811 5.60663 8.00863 5.97993 7.85552C6.13648 7.7913 6.06766 7.53383 5.9094 7.59863C4.5217 8.1669 3.28252 9.07234 2.36274 10.2611C2.1024 10.5977 1.86099 10.9538 1.66316 11.3311C1.63162 11.3907 1.64366 11.4807 1.71075 11.5129C1.94242 11.6247 2.16491 11.6121 2.4046 11.5576C2.60989 11.5111 2.81517 11.4647 3.02046 11.4182L4.65875 11.0478C4.80383 11.0151 4.94948 10.983 5.09456 10.9492C5.42428 10.8723 5.68404 10.6126 5.73565 10.2737C5.79529 9.88432 5.84059 9.49266 5.89277 9.10273C5.95413 8.64399 6.01605 8.18525 6.07741 7.72593C6.08716 7.65425 6.00918 7.59347 5.94438 7.59289C5.86467 7.59232 5.82109 7.65482 5.81134 7.72593L5.81192 7.72765Z" fill="black"/>
<path d="M4.53762 17.012L4.14252 19.9548C4.1041 20.2398 3.89308 20.4703 3.61268 20.5334L2.94463 20.6842C1.80982 19.4869 1.10679 17.8824 0.899209 16.2109C0.856202 15.8645 0.834412 15.5159 0.834412 15.1667C1.00644 15.0847 1.20943 15.0761 1.39293 15.1523L4.12016 16.2854C4.40803 16.4047 4.57891 16.7035 4.53819 17.0114L4.53762 17.012Z" fill="#0D51E3"/>
<path d="M4.40474 17.0119C4.33421 17.5389 4.26311 18.0659 4.19257 18.5929C4.1467 18.9335 4.10083 19.2747 4.05495 19.6153C4.02628 19.8298 4.02685 20.0546 3.88407 20.222C3.75161 20.3774 3.56582 20.4078 3.37831 20.4502L2.90924 20.5563C2.95225 20.5678 2.99583 20.5792 3.03884 20.5907C2.00781 19.4972 1.35468 18.0877 1.09377 16.614C1.0089 16.1369 0.968757 15.6523 0.96761 15.1678C0.94582 15.2062 0.923458 15.2446 0.901668 15.2825C1.14136 15.1764 1.35009 15.2785 1.56684 15.3685C1.81686 15.4723 2.06688 15.5761 2.31746 15.6804C2.85821 15.9052 3.39895 16.1294 3.93969 16.3542C3.98786 16.3743 4.03718 16.3921 4.0842 16.4144C4.313 16.5217 4.43284 16.7579 4.40532 17.0125C4.3864 17.1823 4.65304 17.1811 4.67139 17.0125C4.71554 16.6083 4.4684 16.2877 4.10943 16.1386C3.89956 16.0515 3.6891 15.9643 3.47923 15.8766C2.8777 15.6265 2.27618 15.3765 1.67408 15.1271C1.59896 15.0955 1.52384 15.064 1.44814 15.033C1.22164 14.9407 0.988827 14.9545 0.767484 15.0525C0.726197 15.0709 0.701538 15.1248 0.701538 15.1672C0.704405 16.3003 0.926323 17.4317 1.36557 18.4771C1.572 18.9685 1.82489 19.4404 2.12651 19.8802C2.27274 20.0936 2.42985 20.2994 2.59729 20.4961C2.67528 20.5879 2.75614 20.7037 2.85075 20.7782C2.90752 20.8235 2.95684 20.8166 3.02049 20.8035C3.15696 20.7742 3.29344 20.7415 3.42991 20.7111C3.54116 20.6859 3.65814 20.667 3.76423 20.6245C4.07388 20.5007 4.2396 20.2272 4.28203 19.9078C4.34797 19.4181 4.41335 18.9289 4.47929 18.4392C4.54294 17.9633 4.60717 17.4879 4.67082 17.0119C4.68056 16.9403 4.60258 16.8795 4.53778 16.8789C4.45807 16.8783 4.41449 16.9408 4.40474 17.0119Z" fill="black"/>
<g opacity="0.25">
<path d="M16.3074 17.8405C16.2306 18.0235 16.1457 18.2035 16.0557 18.379C16.0327 18.4243 16.0086 18.469 15.9851 18.5137C15.41 19.5843 14.6014 20.5099 13.6484 21.2375C13.4276 21.4067 13.1988 21.565 12.9632 21.7118C11.8232 22.4234 10.5272 22.8712 9.20261 22.979C8.80695 23.0117 8.40842 23.0146 8.01103 22.9882C7.83613 22.9767 7.66124 22.9595 7.48691 22.9366C5.93866 22.7348 4.44487 22.0874 3.28081 21.0156C3.2596 20.9961 3.23781 20.9766 3.21716 20.9566C4.09795 20.999 4.99193 20.9233 5.85838 20.7696C8.91877 20.2266 11.8834 18.6743 13.6794 16.1375C14.871 14.4544 15.4645 12.315 15.2747 10.2799C15.8819 11.1165 16.3321 12.0569 16.5958 13.0409C16.6692 13.311 16.7272 13.5845 16.7707 13.8604C16.98 15.1856 16.8487 16.5584 16.3074 17.8411V17.8405Z" fill="#000E3F"/>
</g>
<g opacity="0.5">
<path d="M4.89142 22.1046C4.89888 22.0932 4.84899 22.0438 4.74864 21.9607C4.72341 21.94 4.69531 21.9171 4.66377 21.8919C4.64829 21.8793 4.63166 21.8666 4.61446 21.8529C4.59726 21.8397 4.57948 21.8254 4.5617 21.8093C4.49002 21.7474 4.4063 21.6768 4.31226 21.5983C4.30022 21.5885 4.28875 21.5788 4.27671 21.5685C4.26524 21.5576 4.2532 21.5467 4.24173 21.5358C4.21765 21.514 4.19356 21.4916 4.16833 21.4681C4.11787 21.4222 4.06569 21.3741 4.01064 21.3242C3.98254 21.2995 3.95616 21.2726 3.92864 21.2451C3.90111 21.2175 3.87301 21.1894 3.84434 21.1613C3.81567 21.1327 3.78643 21.104 3.75718 21.0742C3.72794 21.0444 3.6964 21.0157 3.66773 20.9824C3.55132 20.8534 3.4223 20.7204 3.29958 20.5667C3.17056 20.4187 3.04842 20.2507 2.91711 20.077C2.66422 19.7226 2.41478 19.3155 2.19115 18.8567C1.96808 18.398 1.77254 17.8871 1.63091 17.3331C1.55808 17.0567 1.50475 16.7683 1.46174 16.4724L1.45314 16.4168L1.44741 16.3606C1.44339 16.3233 1.43995 16.2855 1.43594 16.2482C1.42848 16.1731 1.42046 16.0974 1.41243 16.0217C1.40842 15.9454 1.4044 15.8692 1.40096 15.7917C1.39867 15.7533 1.39695 15.7149 1.39465 15.6759C1.39408 15.6564 1.39236 15.6375 1.39179 15.618V15.5595C1.38204 14.9379 1.44397 14.2934 1.58446 13.6488C1.73126 13.006 1.94916 12.3959 2.22268 11.8374L2.24734 11.7846C2.25594 11.7674 2.26569 11.7502 2.27429 11.733C2.29264 11.6992 2.31099 11.6648 2.32877 11.6309C2.36489 11.5633 2.40102 11.4956 2.43715 11.4279C2.47671 11.3626 2.51571 11.2978 2.5547 11.233C2.5742 11.2009 2.59369 11.1682 2.61319 11.1361L2.64244 11.0879L2.67397 11.0415C2.83855 10.792 3.00943 10.554 3.19293 10.3344C3.55705 9.89345 3.951 9.51441 4.34781 9.19387C4.7452 8.87389 5.14431 8.61126 5.52392 8.39852C5.71659 8.29702 5.89836 8.19725 6.07842 8.11811C6.25504 8.03095 6.42821 7.96615 6.5882 7.89849C6.62777 7.88071 6.66848 7.8681 6.70805 7.85376C6.74761 7.83943 6.78603 7.82566 6.82388 7.8119C6.86173 7.79814 6.899 7.78495 6.9357 7.77176C6.9724 7.75857 7.00795 7.74481 7.0435 7.73506C7.11461 7.71327 7.18285 7.69206 7.24764 7.67199C7.28033 7.66166 7.31187 7.65192 7.34283 7.64217C7.35831 7.63701 7.3738 7.63242 7.38871 7.62783C7.40419 7.62382 7.4191 7.6198 7.43401 7.61579C7.55271 7.58482 7.65822 7.55615 7.74939 7.53092C7.77233 7.52404 7.79412 7.51888 7.81534 7.51429C7.83655 7.50913 7.8572 7.50454 7.87669 7.49996C7.91569 7.49078 7.95067 7.48218 7.98221 7.47358C8.10836 7.44089 8.17431 7.41738 8.17259 7.40419C8.17087 7.39101 8.10148 7.38871 7.97016 7.39674C7.93748 7.39846 7.90078 7.40133 7.86007 7.40477C7.84 7.40649 7.81878 7.40821 7.79642 7.40993C7.77405 7.41165 7.75111 7.41394 7.7276 7.41796C7.63241 7.43172 7.52289 7.44892 7.3996 7.46957C7.38412 7.47186 7.36864 7.47473 7.35258 7.47759C7.3371 7.48103 7.32104 7.48447 7.30499 7.48792C7.27287 7.4948 7.23962 7.50225 7.20578 7.50971C7.13812 7.52519 7.06701 7.54124 6.99247 7.55787C6.95519 7.56533 6.91792 7.5768 6.8795 7.58769C6.84108 7.59859 6.80209 7.61006 6.76252 7.62095C6.72296 7.63242 6.68224 7.64389 6.64096 7.65593C6.59967 7.66797 6.55723 7.67887 6.51537 7.69435C6.34736 7.75341 6.16558 7.81133 5.97979 7.89218C5.79056 7.96501 5.59846 8.05962 5.39547 8.15711C4.99464 8.36182 4.57202 8.61986 4.14998 8.94156C3.72851 9.26325 3.30818 9.64974 2.91997 10.105C2.72443 10.3315 2.54094 10.5787 2.36547 10.8379L2.33221 10.8866L2.30124 10.9371C2.2806 10.9703 2.25996 11.0042 2.23874 11.038C2.19745 11.1057 2.1556 11.1733 2.11316 11.2416C2.07474 11.3115 2.03632 11.3821 1.99733 11.4532C1.97783 11.4887 1.95833 11.5243 1.93941 11.5598C1.92966 11.5776 1.91991 11.5954 1.91074 11.6137L1.88436 11.6688C1.59306 12.252 1.36197 12.8908 1.20829 13.5645C1.06092 14.24 0.998413 14.9161 1.0139 15.5681V15.6289C1.01504 15.649 1.01676 15.6696 1.01791 15.6897C1.0202 15.7304 1.02307 15.7705 1.02536 15.8107C1.03053 15.8915 1.03511 15.9712 1.04027 16.0515C1.04945 16.1312 1.05805 16.2103 1.06722 16.2889C1.07181 16.3285 1.0764 16.3675 1.08042 16.4065L1.0873 16.4649L1.09704 16.5229C1.14578 16.8325 1.20657 17.1341 1.28742 17.422C1.44569 17.9994 1.6613 18.5281 1.90558 18.9984C2.15043 19.4691 2.42338 19.8826 2.69863 20.2381C2.84141 20.4124 2.97445 20.5799 3.11494 20.7261C3.24855 20.8781 3.38904 21.0082 3.51577 21.1332C3.54673 21.1648 3.58114 21.1929 3.61268 21.2215C3.64479 21.2496 3.6769 21.2777 3.70787 21.3053C3.73883 21.3322 3.7698 21.3592 3.79961 21.3855C3.82943 21.4119 3.85868 21.4377 3.88907 21.4607C3.94928 21.5077 4.00662 21.5524 4.06167 21.5948C4.0892 21.6161 4.11615 21.6367 4.14195 21.6568C4.15514 21.6671 4.16776 21.6768 4.18037 21.6866C4.19356 21.6958 4.20675 21.7049 4.21937 21.7135C4.32258 21.7846 4.41433 21.8466 4.49461 21.8999C4.51411 21.9137 4.53418 21.9257 4.55368 21.9366C4.57317 21.9475 4.59152 21.9584 4.60872 21.9687C4.6437 21.9888 4.67581 22.0071 4.70506 22.0226C4.82032 22.0857 4.88397 22.1132 4.89142 22.1018V22.1046Z" fill="white"/>
</g>
<g opacity="0.5">
<path d="M6.68803 15.8389C6.74193 15.8434 6.80845 15.6101 6.88987 15.2333C6.9713 14.8566 7.06993 14.3365 7.18748 13.7642C7.21673 13.6214 7.24597 13.4815 7.2735 13.3467C7.3016 13.2126 7.32912 13.0853 7.35894 12.9654C7.38876 12.8456 7.41972 12.7343 7.45298 12.6317C7.48681 12.529 7.52236 12.4367 7.55792 12.353C7.70299 12.0204 7.86986 11.8518 7.83374 11.8059C7.82514 11.7956 7.80621 11.795 7.77582 11.8048C7.76091 11.8094 7.74256 11.8168 7.72249 11.8266C7.70185 11.8363 7.68121 11.8507 7.65655 11.8667C7.56021 11.9309 7.43578 12.0485 7.31937 12.2199C7.2626 12.306 7.20641 12.4046 7.15537 12.513C7.10491 12.6219 7.05846 12.7406 7.01717 12.8668C6.97531 12.9929 6.93862 13.126 6.90478 13.263C6.87153 13.3995 6.83884 13.5411 6.80902 13.6874C6.68917 14.2717 6.63126 14.8096 6.61864 15.2006C6.60602 15.5917 6.63527 15.8354 6.68803 15.84V15.8389Z" fill="white"/>
</g>
<g opacity="0.5">
<path d="M12.4716 9.32615C12.5685 9.282 12.4836 8.88519 12.2812 8.4402C12.0788 7.99465 11.8362 7.66952 11.7393 7.71367C11.6424 7.75782 11.7273 8.15464 11.9297 8.59962C12.1321 9.04517 12.3747 9.37031 12.4716 9.32615Z" fill="white"/>
</g>
<g opacity="0.5">
<path d="M4.23767 19.5424C4.2652 19.539 4.27839 19.4604 4.29903 19.3268C4.31968 19.1926 4.35293 19.0022 4.4097 18.7654C4.43723 18.6467 4.46991 18.516 4.50145 18.3715C4.51751 18.2998 4.53299 18.2241 4.54732 18.1455C4.56109 18.0658 4.57428 17.9832 4.58288 17.8967C4.58804 17.8536 4.59033 17.8095 4.59377 17.7653C4.59492 17.7206 4.59836 17.6753 4.59721 17.6289C4.59836 17.5365 4.59205 17.4408 4.57944 17.3433C4.56739 17.2458 4.54446 17.1455 4.51235 17.0457C4.50374 17.021 4.49629 16.9958 4.48597 16.9706C4.47565 16.9459 4.46532 16.9213 4.455 16.896C4.43092 16.8473 4.40741 16.798 4.37759 16.7515L4.3558 16.716C4.34835 16.7045 4.33974 16.6936 4.33171 16.6821C4.31508 16.6598 4.2996 16.6368 4.2824 16.6156C4.24742 16.5726 4.21072 16.533 4.17173 16.4963C4.09432 16.4229 4.01174 16.3604 3.92745 16.3077C3.75886 16.2016 3.58569 16.1328 3.42455 16.0772C3.26342 16.0221 3.11261 15.9814 2.97556 15.9407C2.83793 15.9005 2.71579 15.8604 2.60742 15.8174C2.39009 15.7314 2.23297 15.6299 2.13032 15.5485C2.02653 15.4682 1.97263 15.4108 1.94797 15.4252C1.9365 15.4321 1.93536 15.4544 1.94453 15.494C1.94969 15.5135 1.95829 15.5358 1.96976 15.5628C1.98295 15.588 1.99729 15.6184 2.0185 15.6494C2.05922 15.7125 2.11828 15.7836 2.19684 15.8547C2.2754 15.9264 2.37346 15.9969 2.48757 16.0628C2.54491 16.0955 2.60569 16.1271 2.66992 16.1569C2.73414 16.1867 2.80123 16.2154 2.87004 16.2429C3.00824 16.2985 3.15446 16.3513 3.30012 16.4103C3.44577 16.47 3.59085 16.5371 3.72216 16.6248C3.78811 16.6684 3.84946 16.7177 3.90509 16.7716C3.93261 16.7985 3.95841 16.8272 3.9825 16.857C3.99454 16.8719 4.00486 16.888 4.0169 16.9035C4.02264 16.9115 4.02837 16.919 4.03353 16.927L4.04844 16.9522C4.07023 16.9849 4.08686 17.0205 4.10464 17.0554C4.11209 17.0738 4.12012 17.0916 4.12757 17.1099C4.1356 17.1277 4.14076 17.1472 4.14765 17.1655C4.17288 17.2407 4.19295 17.3175 4.20441 17.3966C4.21703 17.4752 4.22506 17.5549 4.22792 17.634C4.23079 17.6736 4.22965 17.7132 4.23022 17.7522C4.22907 17.7917 4.22965 17.8301 4.22735 17.8691C4.22449 17.9465 4.2176 18.0222 4.21072 18.0962C4.20269 18.1713 4.19409 18.2442 4.18549 18.3158C4.16771 18.4592 4.15051 18.5951 4.13962 18.7212C4.11611 18.9736 4.12242 19.1852 4.14879 19.3279C4.1746 19.4713 4.21244 19.5447 4.23767 19.5412V19.5424Z" fill="white"/>
</g>
<g opacity="0.5">
<path d="M8.23639 22.4601C8.27366 22.498 8.43537 22.4074 8.66187 22.2245C8.88895 22.0415 9.17968 21.764 9.47213 21.4314C9.76458 21.0988 10.0026 20.7748 10.1551 20.5265C10.3076 20.2782 10.3764 20.1062 10.3346 20.0741C10.2916 20.0414 10.1465 20.1544 9.94119 20.3562C9.73591 20.5586 9.46926 20.8494 9.18197 21.1762C8.89469 21.5031 8.64008 21.8047 8.46576 22.0341C8.29144 22.2634 8.19797 22.4217 8.23582 22.4601H8.23639Z" fill="white"/>
</g>
<path d="M17.0217 15.6679C17 15.6909 17.004 15.7207 17.0034 15.7488C16.9948 16.0407 16.9426 16.3268 16.8835 16.6118C16.6599 17.6881 16.2017 18.6601 15.5589 19.5472C14.7189 20.7061 13.654 21.6029 12.3787 22.2509C11.6854 22.603 10.9566 22.8536 10.1945 23.0078C9.85732 23.0761 9.51613 23.1214 9.17265 23.1466C8.83605 23.1718 8.49887 23.177 8.16227 23.1586C7.05498 23.0984 5.99815 22.8364 5.00038 22.3472C4.33004 22.0187 3.71934 21.6035 3.17515 21.0914C2.55413 20.5065 2.05983 19.8276 1.67048 19.0701C1.31438 18.3785 1.06494 17.6491 0.912405 16.887C0.84474 16.5493 0.800585 16.2087 0.771914 15.8652C0.740949 15.4896 0.739228 15.1134 0.761019 14.7384C0.829257 13.5531 1.13145 12.4326 1.69341 11.3838C2.04607 10.7255 2.48704 10.1326 3.00886 9.59932C4.18324 8.39914 5.59503 7.61698 7.22356 7.22189C7.65134 7.1181 8.086 7.05273 8.52525 7.01947C8.8974 6.99137 9.26956 6.98793 9.64171 7.00915C10.1779 7.04011 10.7049 7.13014 11.2232 7.27063C12.4693 7.60781 13.5508 8.23342 14.4769 9.12797C15.3737 9.99384 16.0366 11.0163 16.489 12.1763C16.7064 12.7331 16.8606 13.3077 16.9512 13.8983C16.9759 14.0595 17.0017 14.2206 17.0011 14.3846C17.0011 14.4236 17.0068 14.4609 17.0206 14.497V15.6679H17.0217ZM10.2037 19.8563C10.2037 19.8494 10.2031 19.8419 10.202 19.835C10.1807 19.6768 10.1618 19.5185 10.1383 19.3608C10.0741 18.9256 10.0001 18.4926 9.91008 18.062C9.87911 17.9129 9.84585 17.7638 9.81259 17.6153C9.79883 17.5551 9.79711 17.5534 9.7369 17.5516C9.59928 17.5482 9.47141 17.5104 9.34812 17.453C9.3097 17.4352 9.27128 17.4163 9.23343 17.3962C8.61929 17.0786 8.00572 16.7603 7.39158 16.4426C7.19317 16.34 6.99362 16.2402 6.79521 16.1364C6.64268 16.0567 6.50678 15.9558 6.41503 15.805C6.39209 15.7671 6.38406 15.7666 6.34622 15.7861C6.32729 15.7958 6.30894 15.8067 6.29059 15.8176C5.7854 16.106 5.28881 16.4088 4.80197 16.727C4.78419 16.7385 4.76699 16.7511 4.74807 16.7615C4.71997 16.7775 4.7108 16.7999 4.71366 16.8326C4.72571 16.9495 4.71768 17.0659 4.69704 17.1824C4.68671 17.2414 4.68098 17.3016 4.67295 17.3618C4.63453 17.6503 4.59668 17.9381 4.55769 18.2266C4.5187 18.5184 4.47856 18.8097 4.43899 19.1016C4.40115 19.3826 4.36559 19.6642 4.3266 19.9451C4.31169 20.0541 4.28187 20.1602 4.23256 20.2599C4.1884 20.3494 4.18898 20.3494 4.26123 20.4165C4.27958 20.4331 4.29793 20.4497 4.31628 20.4664C4.93099 21.0197 5.62197 21.4532 6.38177 21.7778C6.88868 21.9946 7.41337 22.154 7.95583 22.2555C7.99654 22.2629 8.02063 22.2538 8.04701 22.2234C8.30218 21.928 8.55851 21.6339 8.81483 21.3397C9.1434 20.9624 9.47255 20.5857 9.80113 20.2089C9.90664 20.0879 10.0196 19.9761 10.1658 19.9038C10.1721 19.901 10.1784 19.897 10.1842 19.8929C10.1962 19.8843 10.2037 19.8729 10.2025 19.8574L10.2037 19.8563ZM7.21267 11.8529C7.21038 11.8242 7.19202 11.8122 7.17769 11.7973C7.02802 11.6402 6.86746 11.4957 6.69773 11.3609C6.38578 11.112 6.04803 10.9044 5.68505 10.7393C5.60248 10.7015 5.61395 10.6951 5.54915 10.7594C5.43274 10.8746 5.29283 10.9475 5.13341 10.9842C5.05428 11.0025 4.97457 11.0203 4.89487 11.0381C4.07544 11.2233 3.25601 11.4085 2.43658 11.5931C2.34655 11.6132 2.25537 11.6287 2.16248 11.6281C2.08793 11.6281 2.01396 11.6275 1.94056 11.6098C1.88838 11.5972 1.88666 11.6 1.85856 11.6511C1.84824 11.6694 1.83849 11.6883 1.82874 11.7072C1.69743 11.971 1.5793 12.24 1.47895 12.5169C1.29488 13.0256 1.16643 13.5474 1.09188 14.083C1.05404 14.3536 1.03397 14.626 1.01849 14.8984C1.01677 14.9265 1.01734 14.9552 1.02021 14.9832C1.02078 14.9907 1.03225 15.001 1.04085 15.0033C1.05404 15.0068 1.06895 15.0062 1.08271 15.005C1.25302 14.9873 1.41186 15.0245 1.56898 15.0905C2.41937 15.4466 3.27034 15.7998 4.12246 16.1525C4.30309 16.2276 4.46021 16.3308 4.57661 16.4914C4.60299 16.5275 4.61045 16.5281 4.646 16.5069C4.66722 16.4942 4.68786 16.4799 4.7085 16.4667C5.16094 16.1731 5.62025 15.8916 6.08817 15.6238C6.14379 15.5922 6.19827 15.5584 6.25447 15.5292C6.29174 15.5097 6.30206 15.4844 6.29805 15.4431C6.28715 15.3399 6.30263 15.2384 6.325 15.1375C6.45746 14.5354 6.58935 13.9327 6.72181 13.3301C6.79636 12.9906 6.87263 12.6517 6.94717 12.3128C6.98215 12.1528 7.05612 12.014 7.17138 11.8971C7.18629 11.8821 7.20005 11.8661 7.2121 11.8535L7.21267 11.8529ZM12.6339 15.0079C12.6195 15.0073 12.6058 15.0062 12.5914 15.0056C12.5295 15.0039 12.5284 15.0033 12.506 15.0607C12.4624 15.1748 12.3965 15.2751 12.3145 15.3652C12.2617 15.4225 12.2072 15.4787 12.1516 15.5332C11.5845 16.0842 11.0168 16.6353 10.4491 17.1858C10.3419 17.2896 10.2318 17.3894 10.0987 17.461C10.0609 17.4817 10.0603 17.4868 10.0695 17.5298C10.1125 17.7311 10.1572 17.9318 10.1979 18.1331C10.2776 18.5293 10.347 18.9273 10.4021 19.3281C10.4227 19.4755 10.4422 19.6234 10.4629 19.7708C10.4697 19.8195 10.4715 19.8224 10.5219 19.8282C10.6028 19.8379 10.6842 19.8454 10.7616 19.8735C10.8385 19.901 10.9153 19.9285 10.9904 19.96C11.803 20.2966 12.6149 20.6332 13.4263 20.971C13.498 21.0008 13.5697 21.0329 13.6374 21.0719C13.6792 21.096 13.709 21.0937 13.7406 21.061C13.7457 21.0559 13.7515 21.0524 13.7572 21.0478C14.6391 20.3391 15.3577 19.4933 15.8995 18.4984C15.954 18.398 15.9534 18.4175 15.9018 18.3143C15.5142 17.5448 15.126 16.7758 14.7378 16.0062C14.6609 15.8531 14.5921 15.6983 14.5921 15.5223C14.5921 15.4982 14.5807 15.4827 14.5577 15.4741C14.5348 15.4655 14.5118 15.4546 14.4889 15.4454C14.2355 15.3434 13.9763 15.2579 13.7119 15.1897C13.3575 15.0979 12.998 15.0383 12.6327 15.0085L12.6339 15.0079ZM12.2795 14.79C12.2835 14.6931 12.2462 14.5933 12.2067 14.4947C11.9263 13.8014 11.6458 13.1081 11.3649 12.4143C11.2903 12.2302 11.2198 12.0444 11.1407 11.8626C11.0409 11.6316 10.8155 11.4979 10.5684 11.522C10.3849 11.5404 10.202 11.5639 10.0196 11.5897C9.71454 11.6333 9.40948 11.682 9.10441 11.7262C8.64452 11.7921 8.18463 11.8575 7.72474 11.9194C7.42254 11.9601 7.25395 12.1626 7.20464 12.3936C7.09512 12.9069 6.97986 13.4184 6.86689 13.931C6.7717 14.3639 6.67536 14.7963 6.58247 15.2298C6.52742 15.4861 6.61515 15.6903 6.8279 15.8405C6.87377 15.8732 6.92538 15.899 6.97527 15.9248C7.68689 16.293 8.39909 16.6605 9.11072 17.0281C9.23974 17.0946 9.36819 17.1634 9.49893 17.2265C9.7002 17.3234 9.89173 17.2953 10.0706 17.168C10.1079 17.1416 10.1417 17.109 10.1744 17.0768C10.7622 16.5063 11.35 15.9351 11.9377 15.364C12.0037 15.2998 12.0708 15.2361 12.1333 15.1685C12.229 15.0658 12.2824 14.9454 12.2789 14.79H12.2795ZM9.11588 7.26203C8.75863 7.26547 8.36583 7.29127 7.9759 7.34919C7.43115 7.43004 6.899 7.56365 6.38005 7.74944C6.30321 7.77697 6.22752 7.80679 6.15125 7.83546C6.12602 7.8452 6.10996 7.86241 6.10652 7.88936C6.1048 7.90312 6.10308 7.91746 6.10079 7.93179C6.06294 8.21621 6.02509 8.50121 5.98782 8.78563C5.93277 9.20022 5.8783 9.61481 5.82267 10.0294C5.80834 10.1383 5.79056 10.2467 5.77393 10.3551C5.7682 10.393 5.73609 10.4314 5.75731 10.4663C5.77738 10.499 5.82325 10.5053 5.85766 10.522C6.42076 10.7898 6.91965 11.147 7.35603 11.5926C7.38068 11.6178 7.40591 11.643 7.42885 11.67C7.45293 11.6981 7.47874 11.7015 7.51372 11.69C7.59457 11.6631 7.67829 11.6476 7.76316 11.6384C7.88301 11.6252 8.00285 11.6126 8.12213 11.596C8.50116 11.5432 8.8802 11.4888 9.25924 11.4349C9.60674 11.3861 9.95423 11.3374 10.3017 11.2886C10.4738 11.2646 10.6458 11.2347 10.8195 11.276C10.8436 11.2818 10.8597 11.2697 10.8711 11.2491C10.8849 11.2244 10.8998 11.1998 10.9142 11.1757C11.163 10.749 11.4451 10.3454 11.7617 9.96632C11.905 9.79486 12.0547 9.62914 12.2101 9.46858C12.2365 9.44163 12.2376 9.43188 12.2112 9.40723C12.1143 9.3149 12.0513 9.20136 11.9922 9.08324C11.7508 8.60156 11.5077 8.12102 11.2645 7.63992C11.206 7.52408 11.2347 7.55161 11.1091 7.51835C10.4686 7.34804 9.81546 7.26891 9.11645 7.26317L9.11588 7.26203ZM11.1074 11.401C11.1561 11.4412 11.2083 11.4842 11.2513 11.5364C11.3242 11.6252 11.3769 11.725 11.4205 11.8305C11.4612 11.9286 11.4979 12.0284 11.538 12.127C11.8007 12.7778 12.0639 13.4281 12.3271 14.079C12.3804 14.2103 12.4337 14.3416 12.4865 14.4735C12.5152 14.5463 12.5301 14.6231 12.5461 14.6994C12.5501 14.7183 12.5605 14.7309 12.5811 14.7327C12.5989 14.7338 12.6167 14.735 12.6339 14.7372C12.8133 14.7585 12.994 14.7739 13.1723 14.8026C13.65 14.8783 14.1139 15.0068 14.5635 15.1857C14.5921 15.1971 14.6214 15.2063 14.6558 15.2184C14.728 15.0624 14.8341 14.9385 14.9413 14.8158C15.4288 14.2573 15.9162 13.6988 16.4024 13.1397C16.4323 13.1053 16.4787 13.076 16.4833 13.0307C16.4873 12.9912 16.4667 12.9487 16.4552 12.908C16.1364 11.8334 15.6157 10.8655 14.9098 9.99614C14.7332 9.77823 14.5428 9.57295 14.345 9.37397C14.3043 9.33325 14.2647 9.31433 14.2039 9.32867C13.9384 9.39232 13.6723 9.45138 13.4063 9.51274C13.2578 9.54714 13.1115 9.59244 12.9607 9.61366C12.8231 9.63316 12.6843 9.64118 12.5496 9.59932C12.4974 9.58327 12.4613 9.59015 12.4297 9.63144C12.4234 9.64004 12.4148 9.64635 12.4074 9.65437C11.9205 10.1556 11.4996 10.7066 11.1481 11.3104C11.1326 11.3374 11.1103 11.362 11.108 11.4028L11.1074 11.401ZM1.02135 15.5836C1.02996 15.8073 1.05175 16.0298 1.07985 16.2511C1.13604 16.6915 1.22664 17.1244 1.35337 17.5505C1.61371 18.4284 2.00593 19.2421 2.55126 19.9801C2.68602 20.163 2.83052 20.3374 2.98133 20.5077C3.01803 20.5495 3.05072 20.5656 3.10921 20.5507C3.2497 20.514 3.39306 20.4876 3.53412 20.4538C3.59949 20.4383 3.66429 20.4188 3.72679 20.3936C3.8776 20.3333 3.97681 20.2227 4.02842 20.0696C4.04218 20.0294 4.0525 19.9876 4.05881 19.9457C4.07773 19.8161 4.09436 19.6859 4.11156 19.5558C4.14253 19.3241 4.17407 19.0919 4.20503 18.8602C4.24345 18.5723 4.28187 18.2839 4.32029 17.996C4.3633 17.6726 4.41032 17.3498 4.44931 17.0264C4.46996 16.8521 4.41663 16.6972 4.29678 16.5671C4.23026 16.4948 4.14597 16.4512 4.05651 16.414C3.60121 16.2259 3.14591 16.0366 2.69118 15.848C2.30182 15.6863 1.91189 15.5246 1.52253 15.3629C1.43078 15.3244 1.33789 15.29 1.23926 15.2746C1.17905 15.2654 1.11941 15.2642 1.05977 15.2803C1.02078 15.2906 1.01505 15.2963 1.01562 15.3399C1.01677 15.4213 1.02021 15.5028 1.0225 15.5842L1.02135 15.5836ZM13.4458 21.2806C13.4149 21.2434 13.3793 21.2353 13.3472 21.2222C13.2652 21.1889 13.1821 21.1574 13.1006 21.1235C12.744 20.9756 12.3873 20.8276 12.0306 20.6797C11.6413 20.518 11.2519 20.3569 10.8625 20.1951C10.7742 20.1584 10.6848 20.1263 10.5896 20.1097C10.429 20.081 10.288 20.1206 10.1612 20.2198C10.105 20.264 10.0586 20.3173 10.0127 20.3712C9.95538 20.4389 9.89918 20.5071 9.84127 20.5742C9.47312 20.9968 9.10498 21.4188 8.73684 21.8409C8.58775 22.0118 8.43866 22.1832 8.28899 22.3535C8.18062 22.4768 8.12729 22.6179 8.1399 22.783C8.14736 22.8857 8.14736 22.8857 8.25172 22.8926C8.60266 22.9149 8.95302 22.8983 9.30339 22.869C9.68587 22.8375 10.0626 22.7744 10.4353 22.6844C11.4985 22.4269 12.4722 21.9722 13.3656 21.3432C13.3914 21.3248 13.416 21.3053 13.4476 21.2812L13.4458 21.2806ZM5.82267 7.98627C5.79859 7.98914 5.79114 7.98856 5.78483 7.99086C5.75845 8.00175 5.73265 8.01322 5.70684 8.02469C4.74004 8.47024 3.88219 9.07062 3.14304 9.83844C2.73304 10.2645 2.37637 10.7307 2.07933 11.2422C2.06328 11.2697 2.04779 11.2978 2.03518 11.3271C2.02944 11.3408 2.03632 11.3557 2.05353 11.3592C2.07073 11.3626 2.0885 11.3643 2.10628 11.3655C2.1923 11.3701 2.27544 11.3529 2.35859 11.3339C3.00829 11.1877 3.65798 11.0409 4.30768 10.8947C4.55654 10.8385 4.80541 10.7835 5.05428 10.7261C5.32666 10.6625 5.48837 10.4818 5.52621 10.2037C5.53539 10.1332 5.54514 10.0632 5.55431 9.9927C5.59388 9.70139 5.63344 9.40952 5.67301 9.11822C5.71315 8.81946 5.75387 8.52128 5.79343 8.22252C5.80375 8.14568 5.81235 8.06884 5.82267 7.98627ZM16.0934 18.093C16.2126 17.914 16.438 17.3016 16.5498 16.8589C16.7706 15.9862 16.8222 15.1031 16.7236 14.2091C16.692 13.9241 16.6112 13.474 16.5664 13.3776C16.5361 13.3845 16.5223 13.4121 16.5039 13.4327C16.0188 13.9884 15.5343 14.5446 15.0491 15.1008C15.0119 15.1438 14.9763 15.188 14.9482 15.2373C14.8496 15.4093 14.8376 15.5859 14.9196 15.7671C14.9385 15.809 14.9597 15.8503 14.9803 15.8916C15.2917 16.5086 15.6037 17.1256 15.9156 17.7426C15.9729 17.8561 16.0309 17.9697 16.0934 18.093ZM4.00204 20.5535C3.99172 20.5593 3.97853 20.5644 3.96763 20.5719C3.86958 20.639 3.76005 20.6785 3.64537 20.7049C3.60064 20.7152 3.55534 20.7238 3.51004 20.7342C3.44065 20.7497 3.37184 20.7651 3.30303 20.7812C3.28067 20.7864 3.27436 20.8041 3.28869 20.8202C3.30016 20.8334 3.31335 20.846 3.32597 20.858C3.4871 21.0129 3.65511 21.1602 3.83116 21.2979C4.57489 21.8787 5.40235 22.295 6.30493 22.5663C6.78145 22.7096 7.26772 22.8037 7.76201 22.8582C7.78667 22.861 7.81133 22.8622 7.83599 22.8622C7.8572 22.8622 7.86752 22.8484 7.86695 22.8283C7.86695 22.7435 7.86179 22.6586 7.88129 22.5743C7.89333 22.5233 7.8853 22.5164 7.83025 22.5038C7.7127 22.478 7.594 22.4556 7.47759 22.4264C6.19369 22.1052 5.06059 21.502 4.08003 20.6132C4.05652 20.592 4.03644 20.5662 4.00261 20.553L4.00204 20.5535ZM12.7961 9.36365C12.8437 9.35562 12.9068 9.34702 12.9688 9.33325C13.2767 9.26501 13.5846 9.19678 13.892 9.1251C13.9321 9.11592 13.9774 9.11764 14.0118 9.08725C14.0044 9.03564 13.9573 9.01787 13.9241 8.99034C13.4407 8.57919 12.9114 8.23743 12.338 7.96505C12.1298 7.86585 11.9171 7.77697 11.6998 7.69955C11.6728 7.68981 11.6464 7.68063 11.6195 7.67203C11.6137 7.67031 11.6051 7.67203 11.6005 7.67604C11.5965 7.68006 11.5937 7.68923 11.5954 7.69439C11.6028 7.71446 11.612 7.73339 11.6218 7.75231C11.8293 8.16403 12.0369 8.57575 12.2451 8.9869C12.2674 9.03106 12.2904 9.07578 12.3185 9.11592C12.4303 9.27476 12.5857 9.3539 12.795 9.36365H12.7961Z" fill="#000E3F"/>
<path d="M14.3818 25.1175C14.157 25.4283 13.7029 25.2683 13.3376 25.1496C12.5027 24.8784 11.7629 24.3319 10.9601 23.9815C10.7967 23.9104 10.658 23.7923 10.5633 23.6415C10.2502 23.1415 9.54779 21.4791 9.58736 21.162C9.65961 20.5857 10.0857 20.0197 10.6201 20.2468C11.2996 20.5352 12.1827 21.3501 12.7125 21.8507C13.294 22.4006 13.8302 23.1036 14.3285 23.7745C14.5584 24.0836 14.3841 25.114 14.3818 25.1175Z" fill="#FD8A02"/>
<path d="M14.3956 25.1955C15.5539 24.1191 15.6583 24.1639 16.8063 23.0961C16.9829 22.9316 17.261 22.9516 17.4147 23.138C18.463 24.4116 20.3513 24.9294 21.9322 24.4116C23.6565 23.8468 24.9198 22.1724 25.1308 20.3701C25.3418 18.5684 24.5579 16.7122 23.2144 15.4931C21.8714 14.2734 18.5633 13.5795 17.0156 14.5263C13.6301 16.5975 12.3989 17.4112 9.82654 20.4767C9.66024 20.6746 9.713 20.975 9.93606 21.1058C10.9522 21.701 11.2813 21.9464 12.5159 22.5067C12.5767 22.5342 12.6306 22.5755 12.6713 22.6282C13.0641 23.1351 13.5097 24.169 13.7052 24.9896C13.7792 25.2998 14.1622 25.4128 14.3956 25.196V25.1955Z" fill="#FFCF00"/>
<path d="M21.9314 24.4113C20.3499 24.9291 18.4621 24.4113 17.4139 23.1377C17.2602 22.9514 16.9821 22.9313 16.8055 23.0959C15.6575 24.1642 15.5531 24.1194 14.3948 25.1952C14.1608 25.412 13.7778 25.299 13.7044 24.9888C13.5094 24.1688 13.0633 23.1349 12.6705 22.6274C12.6705 22.6274 12.6699 22.6262 12.6694 22.6262C12.6074 22.5477 12.6051 22.4382 12.6705 22.363C14.4166 20.375 15.193 19.692 17.2207 17.9918C18.2683 17.1133 19.3899 16.2554 20.71 15.8976C21.8247 15.5949 23.1184 15.7262 24.0204 16.4074C24.037 16.42 24.0519 16.4355 24.0645 16.4527C24.8708 17.5841 25.2905 18.9924 25.13 20.3692C24.919 22.1709 23.6557 23.8459 21.9314 24.4107V24.4113Z" fill="#FD8A02"/>
<g opacity="0.25">
<path d="M21.9316 24.4116C20.3507 24.9294 18.4624 24.4116 17.4147 23.1374C17.261 22.9516 16.9829 22.931 16.8063 23.0955C15.6583 24.1638 15.5534 24.1197 14.3956 25.1949C14.1617 25.4116 13.7786 25.2987 13.7046 24.9884C13.5097 24.1684 13.0635 23.1345 12.6707 22.6271C12.6707 22.6271 12.6707 22.6259 12.6696 22.6259C12.6077 22.5479 12.6054 22.4378 12.6713 22.3633C12.716 22.3122 12.7608 22.2618 12.8043 22.2125C13.2212 22.9086 14.0355 23.4086 14.8125 23.2034C15.8257 22.9361 16.527 21.6035 17.546 21.8489C18.0931 21.9802 18.4142 22.5261 18.8145 22.9218C19.8145 23.9104 21.5245 23.9614 22.7098 23.2051C23.8945 22.4481 24.5579 21.0278 24.6141 19.6234C24.6606 18.4588 24.332 17.3096 23.809 16.262C23.8818 16.3073 23.953 16.3555 24.0218 16.4076C24.039 16.4208 24.0533 16.4357 24.0659 16.4529C24.8722 17.5849 25.2919 18.9927 25.1313 20.3695C24.9203 22.1712 23.6565 23.8462 21.9322 24.411L21.9316 24.4116Z" fill="#000E3F"/>
</g>
<path d="M19.3412 18.9685C18.766 19.8287 18.7299 21.0575 19.2557 21.885C19.7816 22.7125 20.8304 23.0766 21.7444 22.7492C22.6579 22.4217 23.3695 21.4268 23.4315 20.3889C23.5771 17.9633 20.6853 16.9592 19.3412 18.9685Z" fill="#FFCF00"/>
<g opacity="0.25">
<path d="M21.7045 22.7631C20.8002 23.0659 19.7743 22.7 19.2565 21.8852C18.7307 21.0577 18.7668 19.8288 19.342 18.9687C19.9762 18.0202 20.955 17.7433 21.7963 17.9698C21.3341 18.1189 20.8971 18.4343 20.5582 18.9406C19.9831 19.8007 19.9469 21.0296 20.4728 21.8571C20.7618 22.3118 21.2085 22.6266 21.7045 22.7637V22.7631Z" fill="#000E3F"/>
</g>
<path d="M16.1488 15.8846L17.1999 16.2624C17.6013 16.407 17.6976 16.9311 17.3731 17.208L15.1378 19.1187C14.9704 19.2621 14.7342 19.2924 14.5357 19.1973L13.4376 18.6697C13.0649 18.4902 13.011 17.981 13.339 17.7287L15.6207 15.9677C15.7709 15.8519 15.9699 15.8203 16.1482 15.8846H16.1488Z" fill="#FD8A02"/>
<g opacity="0.7">
<path d="M24.0299 16.5136C24.0373 16.4935 24.0018 16.4591 23.9255 16.4115C23.8498 16.3616 23.7311 16.3054 23.5734 16.2424C23.2575 16.1219 22.7752 15.9918 22.1599 15.9694C21.8531 15.9597 21.5142 15.9763 21.1559 16.0365C20.7975 16.0967 20.419 16.2028 20.0394 16.3605C19.6609 16.5187 19.2865 16.7286 18.9218 16.9712C18.5582 17.2149 18.2033 17.4907 17.8541 17.7797C17.5048 18.0687 17.1728 18.352 16.8494 18.6272C16.5271 18.9025 16.2175 19.1697 15.9239 19.4255C15.3367 19.9375 14.8132 20.4049 14.3796 20.8046C13.512 21.6033 13.0028 22.1303 13.0573 22.1951C13.1118 22.2599 13.7196 21.8511 14.6583 21.1366C15.128 20.7793 15.6796 20.3464 16.2869 19.8578C16.5902 19.6135 16.9079 19.3561 17.2353 19.0866C17.561 18.817 17.8988 18.5378 18.244 18.2516C18.5875 17.9678 18.9241 17.7012 19.2601 17.4666C19.5967 17.2332 19.9327 17.032 20.267 16.876C20.6013 16.7212 20.9339 16.6088 21.2545 16.5337C21.5756 16.4591 21.8824 16.419 22.1645 16.4018C22.7299 16.3691 23.1921 16.4258 23.5121 16.4723C23.6715 16.4975 23.7976 16.5159 23.8848 16.5273C23.972 16.5371 24.0224 16.5325 24.0299 16.513V16.5136Z" fill="white"/>
</g>
<g opacity="0.7">
<path d="M22.4965 22.3404C22.5349 22.3582 22.6014 22.3111 22.6869 22.2091C22.7723 22.1064 22.8778 21.9487 22.9868 21.7389C23.0946 21.529 23.2064 21.2658 23.2855 20.9527C23.3652 20.6402 23.4071 20.2749 23.3652 19.8901C23.3222 19.5054 23.1949 19.1412 22.9976 18.8539C22.8021 18.5667 22.555 18.3677 22.3256 18.2501C22.0945 18.1331 21.8846 18.0964 21.7424 18.1016C21.7063 18.1033 21.6747 18.1068 21.6478 18.1108C21.6203 18.1154 21.5973 18.1234 21.5784 18.1308C21.5411 18.1463 21.5216 18.1647 21.5199 18.1859C21.5125 18.2765 21.7854 18.3476 22.0876 18.6131C22.2379 18.745 22.3956 18.9245 22.5165 19.1504C22.6375 19.374 22.7213 19.6533 22.7557 19.9578C22.8239 20.5731 22.6811 21.1563 22.5808 21.5869C22.5286 21.8025 22.4867 21.982 22.4689 22.1122C22.4512 22.2423 22.4575 22.3226 22.4965 22.3404Z" fill="white"/>
</g>
<g opacity="0.7">
<path d="M15.7929 15.7711C15.8502 15.8359 16.0435 15.7613 16.3216 15.6243C16.3904 15.5899 16.4661 15.5515 16.5469 15.5108C16.6266 15.47 16.7121 15.4265 16.8015 15.3806C16.981 15.2906 17.1771 15.1931 17.3853 15.0944C17.594 14.9975 17.7947 14.9098 17.9788 14.8295C18.0717 14.79 18.1594 14.7527 18.242 14.7177C18.3251 14.6816 18.4026 14.6483 18.4731 14.6174C18.7569 14.4918 18.9376 14.3914 18.9249 14.306C18.9129 14.2246 18.7036 14.1735 18.371 14.1965C18.3297 14.1999 18.2861 14.2033 18.2408 14.2085C18.1955 14.2137 18.1497 14.2217 18.1009 14.2297C18.004 14.2446 17.9031 14.2687 17.7964 14.2951C17.5843 14.3519 17.3555 14.4321 17.1255 14.5394C16.8962 14.6477 16.6874 14.7716 16.5079 14.8978C16.4191 14.9626 16.3353 15.0251 16.2625 15.0899C16.2258 15.122 16.1897 15.1524 16.157 15.1839C16.1243 15.2154 16.0934 15.2464 16.0647 15.2762C15.8336 15.5171 15.739 15.7103 15.7934 15.7717L15.7929 15.7711Z" fill="white"/>
</g>
<g opacity="0.7">
<path d="M9.91881 20.8087C9.98418 20.8638 10.2101 20.713 10.5324 20.4372C10.6929 20.299 10.8793 20.1304 11.0811 19.94C11.2841 19.7502 11.5032 19.5386 11.7314 19.315C11.9602 19.0919 12.1764 18.8769 12.3708 18.6784C12.5658 18.4806 12.7384 18.2983 12.88 18.1406C13.1627 17.8246 13.3192 17.6021 13.2653 17.5356C13.2126 17.4708 12.9586 17.5752 12.5979 17.812C12.4172 17.9301 12.2114 18.0821 11.9906 18.261C11.771 18.4405 11.5376 18.6481 11.3031 18.8769C11.0691 19.1062 10.8569 19.335 10.6723 19.5506C10.4882 19.7668 10.3317 19.9698 10.2101 20.1476C9.96583 20.5031 9.85516 20.7548 9.91938 20.8087H9.91881Z" fill="white"/>
</g>
<path d="M25.0492 21.6653C25.0297 21.6991 25.0039 21.7307 24.9919 21.7668C24.8743 22.1229 24.6874 22.4434 24.4764 22.7496C23.9264 23.5473 23.2171 24.154 22.3162 24.5244C21.6247 24.8094 20.905 24.8914 20.1647 24.7991C19.4371 24.7079 18.7679 24.4619 18.1623 24.0462C17.8968 23.8638 17.6554 23.6539 17.4415 23.4131C17.4043 23.3712 17.367 23.3282 17.3251 23.291C17.2276 23.2038 17.1284 23.1941 17.0155 23.2577C16.9816 23.2766 16.9489 23.3007 16.9203 23.3271C16.2396 23.9676 15.4953 24.5347 14.8009 25.1598C14.7298 25.224 14.6592 25.2882 14.5881 25.3524C14.4425 25.4838 14.2733 25.5382 14.0761 25.5262C13.7687 25.5073 13.478 25.4235 13.193 25.3152C12.7182 25.1345 12.2755 24.8891 11.8328 24.6431C11.5524 24.4871 11.272 24.3329 10.9778 24.2039C10.7611 24.1087 10.5896 23.9584 10.4589 23.7606C10.3906 23.6568 10.3281 23.5496 10.2777 23.4366C10.0775 22.9899 9.87283 22.5449 9.70539 22.0845C9.64403 21.9153 9.59644 21.7416 9.53738 21.5712C9.4462 21.3057 9.48348 21.05 9.58555 20.7977C9.61078 20.7352 9.6383 20.6733 9.66181 20.6108C9.6945 20.5253 9.74439 20.4502 9.80288 20.382C10.53 19.5304 11.2674 18.6886 12.0897 17.9248C12.9372 17.1369 13.8542 16.4391 14.8227 15.8077C15.5159 15.3558 16.2207 14.9223 16.926 14.49C17.3309 14.2417 17.7735 14.1023 18.2403 14.0324C18.7501 13.9561 19.2604 13.9584 19.7714 14.0175C19.995 14.0433 20.2175 14.0771 20.4383 14.1224C20.4818 14.1316 20.526 14.1471 20.5707 14.1287C20.8207 14.1958 21.0708 14.2635 21.3208 14.3306C21.3489 14.3713 21.3965 14.3776 21.4378 14.3913C21.6625 14.4659 21.8827 14.5508 22.0995 14.6448C22.4728 14.8065 22.8266 15.0015 23.1506 15.2486C23.5474 15.5514 23.8829 15.9138 24.1793 16.314C24.3101 16.4901 24.4488 16.6604 24.5475 16.8588C24.6128 16.9895 24.6845 17.1174 24.7499 17.2482C25.0595 17.868 25.2665 18.5195 25.3417 19.2099C25.3904 19.6583 25.4087 20.1073 25.3187 20.554C25.3124 20.5861 25.3199 20.6205 25.3204 20.6543C25.2298 20.9915 25.1392 21.3287 25.0486 21.6653H25.0492ZM24.8944 21.0993C25.0028 20.7054 25.0538 20.304 25.0567 19.8974C25.0647 18.7844 24.7344 17.7706 24.1484 16.833C24.0388 16.6581 23.8932 16.5205 23.7125 16.419C23.4757 16.2865 23.2297 16.1776 22.9677 16.1059C22.3134 15.927 21.6562 15.9276 20.9968 16.0761C20.37 16.2171 19.7926 16.4792 19.2427 16.8049C18.8011 17.0664 18.3865 17.3669 17.9823 17.6817C17.0264 18.4248 16.1226 19.2288 15.2304 20.0465C14.4746 20.7392 13.7808 21.4921 13.0898 22.2473C13.0175 22.3259 12.9516 22.4102 12.8862 22.4945C12.8421 22.5518 12.8438 22.5696 12.8833 22.6304C12.9539 22.7387 13.0307 22.8431 13.0961 22.9549C13.4528 23.5668 13.7125 24.2182 13.8903 24.9029C13.9058 24.9625 13.9189 25.0233 13.9488 25.0783C13.9866 25.1472 14.044 25.1861 14.1208 25.2011C14.2051 25.2177 14.2785 25.1913 14.341 25.1397C14.454 25.0468 14.5663 24.9533 14.6724 24.8524C14.8685 24.666 15.0681 24.4848 15.2774 24.314C15.7482 23.9298 16.2155 23.5415 16.6611 23.1275C16.7184 23.0742 16.7815 23.0255 16.8475 22.983C17.0705 22.8402 17.2953 22.8534 17.5058 23.0157C17.5866 23.0782 17.6543 23.1533 17.7196 23.2308C17.8441 23.377 17.984 23.5071 18.1348 23.6253C18.777 24.1282 19.5047 24.4137 20.3156 24.4894C21.2262 24.5743 22.0737 24.3839 22.8455 23.8908C23.8874 23.225 24.5498 22.2777 24.8938 21.0987L24.8944 21.0993ZM23.3415 15.8719C23.3421 15.8656 23.3456 15.8587 23.3433 15.8559C23.3255 15.8341 23.3083 15.8123 23.2882 15.7928C23.1093 15.6208 22.9161 15.4665 22.7079 15.3318C22.232 15.0238 21.713 14.8094 21.1728 14.6442C20.8821 14.5553 20.5868 14.4854 20.2875 14.4303C19.7542 14.3323 19.2174 14.2927 18.6755 14.3174C18.0442 14.346 17.4587 14.5123 16.9237 14.8587C16.2626 15.2865 15.5911 15.6999 14.9288 16.1254C13.7022 16.9133 12.5829 17.8331 11.5725 18.8847C11.0421 19.4364 10.5426 20.0155 10.0426 20.5947C10.0242 20.6159 10.0076 20.6389 9.99325 20.6629C9.92272 20.7805 9.93419 20.8866 10.034 20.9829C10.0781 21.0253 10.1303 21.0609 10.1825 21.093C10.3505 21.1957 10.5197 21.2954 10.6888 21.3963C11.2296 21.7198 11.7783 22.0288 12.3512 22.292C12.4074 22.3179 12.4642 22.3425 12.5221 22.3649C12.5427 22.3729 12.5668 22.3712 12.5823 22.3494C12.717 22.1613 12.8896 22.0059 13.0427 21.8339C13.5244 21.2914 14.0204 20.761 14.5428 20.2569C15.544 19.2913 16.6066 18.3956 17.6801 17.5131C18.0803 17.1839 18.5006 16.8817 18.9416 16.6094C19.4124 16.3181 19.9038 16.0709 20.4325 15.9018C21.3735 15.6007 22.3174 15.5411 23.2664 15.8662C23.2899 15.8742 23.3152 15.8943 23.3421 15.8731L23.3415 15.8719ZM9.83441 21.2478C9.81262 21.374 9.84187 21.4715 9.87111 21.5667C9.91699 21.7169 9.96974 21.866 10.0242 22.0134C10.2026 22.4939 10.4119 22.9601 10.6418 23.4183C10.7691 23.6723 10.9606 23.8489 11.2181 23.9602C11.3058 23.998 11.3918 24.0404 11.4756 24.0857C11.8122 24.2669 12.1476 24.4499 12.4837 24.6316C12.8105 24.8083 13.1454 24.9671 13.5009 25.0789C13.5307 25.0881 13.5629 25.1087 13.5921 25.0772C13.5921 25.0657 13.5955 25.0543 13.5932 25.0445C13.5829 25.0009 13.572 24.9573 13.5606 24.9138C13.4298 24.4349 13.2549 23.9728 13.0382 23.5266C12.9349 23.3139 12.8162 23.1103 12.6884 22.9114C12.5949 22.7663 12.4682 22.6751 12.3139 22.6114C12.2101 22.5684 12.104 22.5294 12.0031 22.4807C11.6281 22.3006 11.26 22.108 10.9021 21.8952C10.5506 21.6865 10.1951 21.4829 9.83499 21.2478H9.83441Z" fill="#000E3F"/>
<path d="M18.8753 19.8356C19.0909 19.0546 19.5072 18.4801 20.1735 18.1039C20.7859 17.7575 21.4356 17.6956 22.0939 17.9439C22.8233 18.2186 23.3061 18.7438 23.5401 19.4881C23.6961 19.9836 23.6909 20.4848 23.5608 20.9871C23.3882 21.6528 23.0384 22.2033 22.4873 22.6179C22.0847 22.9207 21.6317 23.0933 21.1242 23.0921C20.2429 23.0904 19.3787 22.603 18.9905 21.6752C18.8156 21.2566 18.7577 20.8202 18.7881 20.3701C18.8013 20.1728 18.8437 19.9807 18.8753 19.8362V19.8356ZM19.1843 19.9245C19.1585 20.0065 19.1367 20.151 19.1207 20.2967C19.0765 20.6998 19.115 21.0937 19.2566 21.4751C19.5875 22.3685 20.466 22.8536 21.3163 22.7596C21.7573 22.7108 22.1341 22.5204 22.4586 22.2251C22.9667 21.7624 23.254 21.1838 23.3239 20.502C23.3704 20.0444 23.2958 19.6045 23.0751 19.1957C22.5297 18.1882 21.2475 17.7724 20.205 18.4542C19.6872 18.7926 19.3673 19.2748 19.1855 19.9239L19.1843 19.9245Z" fill="#000E3F"/>
<path d="M16.3646 15.8284C16.6346 15.9242 16.9053 16.0188 17.1748 16.1163C17.2488 16.1432 17.3205 16.1765 17.391 16.2109C17.7878 16.4041 17.9283 16.9581 17.6072 17.3136C17.5584 17.3675 17.5051 17.418 17.4495 17.4656C16.7579 18.0585 16.0658 18.6503 15.3737 19.2426C15.3479 19.2644 15.3215 19.2856 15.2951 19.3063C15.072 19.48 14.8255 19.5167 14.564 19.4158C14.3965 19.351 14.2348 19.2713 14.072 19.1944C13.869 19.0981 13.6671 18.9983 13.467 18.8974C13.4074 18.867 13.3483 18.832 13.2967 18.7902C12.9544 18.5132 12.9337 18.0074 13.2548 17.707C13.3489 17.6187 13.4538 17.5418 13.5565 17.4627C14.1219 17.0269 14.6884 16.5916 15.255 16.1564C15.3261 16.1014 15.3955 16.0434 15.4689 15.9918C15.5423 15.9402 15.6174 15.8898 15.6965 15.8479C15.8674 15.7573 16.0474 15.7338 16.235 15.7923C16.278 15.8055 16.321 15.8192 16.3634 15.833C16.3634 15.8319 16.364 15.8307 16.3646 15.8296V15.8284ZM16.3588 16.1719C16.3588 16.1719 16.3577 16.1742 16.3577 16.1753C16.3158 16.1593 16.2728 16.1449 16.2315 16.1272C16.087 16.0635 15.9465 16.0779 15.8078 16.1455C15.7057 16.1948 15.6157 16.2619 15.5285 16.3342C15.4287 16.4168 15.3307 16.5016 15.2286 16.5802C14.7383 16.9586 14.2475 17.3348 13.7566 17.7121C13.6809 17.7706 13.6052 17.8291 13.5318 17.8905C13.4974 17.9191 13.4647 17.9507 13.4372 17.9862C13.3087 18.1537 13.2921 18.4209 13.5347 18.5717C13.5777 18.5981 13.6224 18.6216 13.6683 18.6434C13.9676 18.7867 14.2698 18.9238 14.5657 19.074C14.7888 19.1876 14.9786 19.1704 15.1672 18.9983C15.4253 18.7638 15.6965 18.5436 15.9614 18.3171C16.3806 17.9587 16.7992 17.6003 17.219 17.2419C17.2832 17.1869 17.3457 17.1301 17.3898 17.0567C17.4971 16.8778 17.4609 16.6719 17.2987 16.5423C17.2499 16.5033 17.1955 16.4752 17.1364 16.4546C16.8766 16.3617 16.618 16.2665 16.3588 16.1725V16.1719Z" fill="#000E3F"/>
</g>
<defs>
<clipPath id="clip0_4016_4283">
<rect width="30" height="30" fill="white"/>
</clipPath>
</defs>
</svg>
