<svg width="30" height="30" viewBox="0 0 30 30" fill="none" xmlns="http://www.w3.org/2000/svg">
<path opacity="0.25" d="M27.9431 20.5273C27.4987 21.827 27.6919 23.0891 26.9715 24.371C26.2496 25.6551 25.2033 26.7848 23.9606 27.5799C21.5317 29.1341 18.9129 28.4267 16.5023 29.4251C15.0563 30.0239 13.6033 30.075 12.175 29.3633C11.5359 29.0448 10.6262 27.7634 10.1038 27.6865C9.07956 27.5353 8.14352 29.0367 6.90783 28.7591C5.91852 28.537 4.44505 27.1695 3.89472 26.3749C2.11246 23.7997 3.88987 21.5613 5.32891 19.4847C6.12724 18.333 6.57429 17.2264 7.54961 16.1478C7.98428 15.6668 8.01333 15.9536 8.2269 15.258C8.43831 14.5699 8.24896 13.6748 8.31136 12.9588C8.42218 11.687 8.79714 10.5724 9.64872 9.60458C10.0807 9.11396 10.6106 8.6922 11.1512 8.328C11.4288 8.14133 12.3907 7.82232 12.5429 7.5528C12.9588 6.81687 11.9264 4.70377 11.9975 3.81614C12.1228 2.2496 13.3908 1.9704 14.7055 1.64762C16.1284 1.29795 18.2679 0.317252 19.7322 0.691133C21.1761 1.05964 21.2547 2.51105 21.4758 3.75481C21.8281 5.73665 22.4409 7.72656 22.6969 9.71916C22.7663 10.2582 22.8422 10.7628 22.5979 11.2766C22.5285 11.4229 21.4623 12.3363 21.4607 12.3261C21.4693 12.3821 23.5431 13.1277 23.7373 13.239C24.6712 13.7743 25.4809 14.4925 26.1404 15.343C27.2755 16.8073 27.942 18.6719 27.942 20.5273H27.9431Z" fill="#000E3F"/>
<path d="M27.1534 19.9198C26.709 21.2195 26.9021 22.4815 26.1818 23.7635C25.4599 25.0476 24.4135 26.1773 23.1709 26.9724C20.742 28.5266 18.1232 27.8192 15.7126 28.8176C14.2666 29.4164 12.8135 29.4675 11.3852 28.7558C10.7462 28.4373 9.83646 27.1559 9.31411 27.0789C8.28983 26.9278 7.35378 28.4292 6.11809 28.1516C5.12878 27.9295 3.65531 26.562 3.10498 25.7674C1.32272 23.1922 3.10014 20.9537 4.53918 18.8772C5.33751 17.7255 5.78456 16.6189 6.75988 15.5403C7.19455 15.0593 7.2236 15.3461 7.43717 14.6505C7.64858 13.9624 7.45922 13.0673 7.52162 12.3512C7.63244 11.0795 8.0074 9.96485 8.85899 8.99706C9.29097 8.50645 9.82086 8.08469 10.3615 7.72049C10.6391 7.53381 11.601 7.21481 11.7532 6.94529C12.1691 6.20936 11.1367 4.09626 11.2077 3.20862C11.3331 1.64209 12.601 1.36289 13.9158 1.04011C15.3387 0.690437 17.4782 -0.290262 18.9425 0.0836196C20.3864 0.452122 20.4649 1.90354 20.686 3.1473C21.0384 5.12914 21.6511 7.11905 21.9072 9.11165C21.9766 9.65068 22.0524 10.1553 21.8082 10.669C21.7388 10.8154 20.6726 11.7288 20.671 11.7186C20.6796 11.7745 22.7534 12.5202 22.9476 12.6315C23.8815 13.1668 24.6911 13.885 25.3507 14.7355C26.4858 16.1998 27.1523 18.0644 27.1523 19.9198H27.1534Z" fill="white"/>
<path d="M25.5191 22.5054C25.447 22.677 25.3674 22.8459 25.2829 23.0105C25.2614 23.053 25.2388 23.0955 25.2168 23.1369C24.6772 24.1413 23.9187 25.0096 23.0246 25.6928C22.8175 25.8515 22.6028 26 22.3817 26.1377C21.3122 26.8053 20.0965 27.2249 18.8532 27.3266C18.482 27.3572 18.1082 27.3599 17.7354 27.3352C17.5713 27.3244 17.4072 27.3083 17.2437 27.2868C15.7912 27.0969 14.3898 26.49 13.2977 25.4846C13.2569 25.4475 13.217 25.4098 13.1772 25.3711C13.1111 25.3065 13.046 25.2409 12.9825 25.1737C11.9179 24.0504 11.2583 22.5452 11.0636 20.977C11.0233 20.6521 11.0028 20.325 11.0028 19.9974C11.0028 19.4256 11.0652 18.8542 11.1927 18.2985C11.3444 17.6395 11.5811 17.0252 11.8877 16.4619C11.9001 16.4372 11.9141 16.4125 11.9276 16.3882C12.7942 14.8346 14.1924 13.6721 15.7874 13.0212C15.7906 13.0201 15.7939 13.0185 15.7971 13.0174C17.2066 12.4439 18.7704 12.2702 20.2568 12.5784C20.4354 12.615 20.6124 12.6591 20.7877 12.7108C21.8061 13.0056 22.7733 13.5392 23.6131 14.3381C23.6389 14.3623 23.6642 14.387 23.69 14.4123C23.7433 14.465 23.7965 14.5183 23.8487 14.5726C24.7778 15.5415 25.4492 16.7325 25.7891 18.0016C25.858 18.255 25.9123 18.5116 25.9532 18.7703C26.1496 20.0136 26.0269 21.3014 25.5186 22.5048L25.5191 22.5054Z" fill="white"/>
<path d="M25.4113 22.4424C24.8195 23.839 23.806 25.037 22.5482 25.8816C21.2426 26.7579 19.6917 27.2518 18.1155 27.226C16.6307 27.2018 15.1535 26.7364 13.9506 25.8595C12.7708 24.9999 11.9311 23.7448 11.4932 22.359C11.0112 20.8339 10.9977 19.1603 11.5093 17.6406C11.9601 16.3006 12.8171 15.1246 13.9226 14.2488C15.0502 13.3558 16.4403 12.7758 17.8685 12.6064C19.3963 12.4251 20.9661 12.7108 22.2959 13.4956C23.5774 14.2515 24.5844 15.4377 25.2127 16.7793C25.875 18.1936 26.1025 19.8199 25.7588 21.3504C25.6727 21.7339 25.5517 22.1089 25.3994 22.4715C25.3731 22.5344 25.4279 22.6081 25.4866 22.6248C25.5581 22.6452 25.6141 22.5995 25.6399 22.5376C26.2833 21.0012 26.3193 19.2701 25.8287 17.6858C25.3795 16.2349 24.5059 14.8916 23.3326 13.9217C22.1195 12.9189 20.5997 12.3611 19.0284 12.3073C17.4828 12.2546 15.9276 12.6779 14.6047 13.4747C13.3976 14.202 12.3846 15.2451 11.7288 16.4948C10.9461 17.9865 10.7142 19.7139 10.9961 21.3687C11.2452 22.8298 11.9042 24.2311 12.9349 25.3038C13.9791 26.39 15.3939 27.0925 16.8712 27.354C18.4893 27.6402 20.1527 27.3976 21.6332 26.6896C23.0367 26.0188 24.253 24.9472 25.0766 23.6254C25.287 23.2876 25.471 22.9336 25.6264 22.5672C25.6528 22.5048 25.6447 22.4344 25.5818 22.3967C25.5296 22.3655 25.4371 22.3795 25.4113 22.4414V22.4424Z" fill="black"/>
<path d="M16.8213 17.3061L16.2231 20.0266C16.1602 20.3117 16.2974 20.6038 16.5567 20.7378L19.0184 22.0095C19.2647 22.1365 19.5644 22.0924 19.7634 21.8992L21.6323 20.0842C21.8206 19.9018 21.8792 19.6231 21.7808 19.38L20.7479 16.8252C20.6371 16.5508 20.3536 16.3873 20.0609 16.4282L17.3614 16.8064C17.0946 16.8435 16.8789 17.0431 16.8213 17.3061Z" fill="#0D51E3"/>
<path d="M16.7013 17.273C16.5846 17.804 16.4678 18.335 16.3511 18.8654C16.2828 19.1758 16.2145 19.4867 16.1461 19.7971C16.1322 19.8606 16.1171 19.9241 16.1042 19.9881C16.0574 20.2178 16.102 20.4507 16.2473 20.6374C16.3871 20.8171 16.6088 20.9042 16.8057 21.0059C17.115 21.1657 17.4249 21.3255 17.7342 21.4858C18.0419 21.6445 18.3496 21.8037 18.6573 21.9624C18.8698 22.0722 19.0855 22.2126 19.3335 22.205C19.6466 22.1959 19.8392 21.9995 20.0458 21.7989C20.2906 21.5616 20.5348 21.3239 20.7796 21.0866C21.026 20.8472 21.2724 20.6084 21.5187 20.369C21.7156 20.1775 21.9125 20.0042 21.948 19.7094C21.9776 19.4647 21.8625 19.2463 21.7737 19.0268C21.6435 18.704 21.5128 18.3818 21.3826 18.059L20.9937 17.0976C20.9055 16.8792 20.8339 16.6318 20.6462 16.4768C20.4676 16.33 20.2491 16.2773 20.0221 16.3079C19.9533 16.3171 19.885 16.3273 19.8161 16.337C19.4955 16.3816 19.1748 16.4268 18.8542 16.4715C18.4959 16.5215 18.1377 16.5721 17.7794 16.6221C17.5943 16.6479 17.384 16.6528 17.2059 16.7152C16.9531 16.8039 16.7659 17.0121 16.7029 17.2719C16.6647 17.428 16.9057 17.4947 16.9439 17.3381C16.9988 17.1116 17.1699 16.961 17.3985 16.925C17.4523 16.9164 17.5061 16.9099 17.5599 16.9024C17.8499 16.8615 18.1404 16.8211 18.4303 16.7808C18.9817 16.7039 19.5337 16.607 20.0872 16.5489C20.2744 16.529 20.4767 16.6119 20.5864 16.7802C20.623 16.8362 20.6446 16.8954 20.6704 16.9599C20.7726 17.2128 20.8748 17.4656 20.977 17.7179C21.2003 18.2704 21.4251 18.8229 21.6473 19.3759C21.7 19.5077 21.7232 19.639 21.6796 19.7788C21.6457 19.8886 21.5741 19.9671 21.4945 20.044C21.3073 20.2259 21.1201 20.4077 20.9329 20.5895C20.5181 20.9925 20.1061 21.3981 19.6886 21.7978C19.5493 21.9312 19.3578 21.9893 19.1695 21.9344C19.1055 21.9156 19.0474 21.8823 18.9882 21.8521C18.7482 21.7284 18.5083 21.6041 18.2684 21.4804C17.7331 21.2039 17.1978 20.9274 16.6626 20.6509C16.4167 20.5239 16.2925 20.2969 16.3522 20.0209C16.4011 19.7955 16.4512 19.5701 16.5012 19.3442C16.6389 18.7169 16.7772 18.0902 16.9149 17.4629C16.924 17.4215 16.9332 17.3795 16.9423 17.3381C16.9767 17.1816 16.7363 17.1149 16.7013 17.2719V17.273Z" fill="black"/>
<path d="M23.0246 25.693C22.8174 25.8516 22.6028 26.0001 22.3817 26.1378C21.3122 26.8054 20.0964 27.2251 18.8532 27.3267C18.482 27.3574 18.1082 27.3601 17.7353 27.3353C17.6342 27.1078 17.674 26.841 17.8392 26.6516L19.5515 24.688C19.7333 24.4793 20.0292 24.4105 20.2847 24.517L22.8433 25.58C22.9111 25.6085 22.9718 25.6467 23.0246 25.694V25.693Z" fill="#0D51E3"/>
<path d="M22.9617 25.5854C21.8256 26.4515 20.4613 27.0325 19.0362 27.1847C18.6043 27.231 18.169 27.238 17.7354 27.2105C17.7758 27.2412 17.8156 27.2719 17.856 27.302C17.7763 27.1089 17.7941 26.9034 17.9286 26.7388C17.9528 26.7092 17.9791 26.6807 18.0044 26.6521C18.1405 26.4961 18.2766 26.3401 18.4127 26.1841C18.763 25.7828 19.1126 25.3815 19.4628 24.9796C19.55 24.8801 19.6393 24.751 19.7512 24.6778C19.9508 24.5482 20.1525 24.5961 20.3532 24.6794C20.8029 24.8661 21.2532 25.0533 21.7029 25.24C21.9665 25.3492 22.2296 25.459 22.4932 25.5682C22.6389 25.6284 22.8138 25.6779 22.9364 25.7817C23.0586 25.885 23.2355 25.7091 23.1129 25.6053C22.9757 25.4891 22.81 25.4315 22.6465 25.3637C22.4168 25.2685 22.1871 25.1728 21.9579 25.0775C21.4667 24.8737 20.975 24.6692 20.4839 24.4653C20.2934 24.3863 20.1159 24.3185 19.9013 24.3556C19.6689 24.3959 19.5145 24.5417 19.3682 24.7096C19.0206 25.1082 18.6731 25.5068 18.3256 25.9049C18.1578 26.0975 17.9899 26.2896 17.8221 26.4821C17.7844 26.5252 17.7457 26.5677 17.7112 26.6134C17.5488 26.8291 17.5127 27.1191 17.616 27.3682C17.6386 27.423 17.6757 27.4559 17.7365 27.4596C19.2229 27.5543 20.7071 27.2068 22.0138 26.4972C22.3893 26.2933 22.7487 26.0599 23.0887 25.8006C23.2146 25.7043 23.0903 25.4875 22.9628 25.5848L22.9617 25.5854Z" fill="black"/>
<path d="M25.5191 22.5059C25.447 22.6775 25.3674 22.8464 25.2829 23.011L24.0634 20.5934C23.9456 20.3594 23.9811 20.0775 24.1532 19.8796L25.7897 18.0026C25.8586 18.256 25.9129 18.5126 25.9538 18.7714C26.1501 20.0146 26.0275 21.3025 25.5191 22.5059Z" fill="#0D51E3"/>
<path d="M25.4114 22.4428C25.3388 22.6144 25.2597 22.7823 25.1752 22.948H25.3909C25.0327 22.2373 24.6738 21.5267 24.3156 20.816C24.2677 20.7213 24.2171 20.6283 24.1725 20.5325C24.0719 20.3179 24.1283 20.0984 24.2784 19.9262C24.5528 19.6115 24.8266 19.2974 25.101 18.9827C25.3603 18.6852 25.619 18.3882 25.8783 18.0913C25.8089 18.073 25.739 18.0547 25.6696 18.0364C26.0629 19.5045 25.9875 21.0673 25.399 22.4729C25.3727 22.5359 25.4275 22.6096 25.4862 22.6263C25.5577 22.6467 25.6137 22.601 25.6395 22.5391C26.2441 21.0947 26.3135 19.477 25.9101 17.9697C25.8869 17.8836 25.7643 17.8427 25.7013 17.9148C25.1784 18.5146 24.6556 19.1145 24.1321 19.7148C23.9809 19.888 23.8648 20.0769 23.8696 20.3179C23.8734 20.4938 23.9465 20.6396 24.0229 20.7913C24.2316 21.205 24.4404 21.6187 24.6486 22.0323C24.8239 22.3799 24.9993 22.7274 25.1747 23.0749C25.2161 23.1567 25.349 23.1561 25.3904 23.0749C25.4749 22.9092 25.5539 22.7408 25.6266 22.5698C25.6529 22.5074 25.6449 22.4369 25.5819 22.3992C25.5297 22.368 25.4372 22.382 25.4114 22.4439V22.4428Z" fill="black"/>
<path d="M23.6142 14.3388L22.3059 14.6341C22.0176 14.6998 21.7217 14.5599 21.5883 14.2958L20.7889 12.7109C21.8072 13.0057 22.7745 13.5394 23.6142 14.3383V14.3388Z" fill="#0D51E3"/>
<path d="M23.5808 14.2183C23.1451 14.3167 22.7104 14.427 22.2725 14.5136C22.0337 14.5609 21.8088 14.4453 21.6958 14.2328C21.6684 14.1806 21.6431 14.1279 21.6162 14.0752C21.4817 13.8083 21.3467 13.5415 21.2122 13.2747C21.1067 13.0659 21.0013 12.8572 20.8964 12.6485C20.8496 12.7098 20.8023 12.7706 20.7555 12.8319C21.7937 13.1353 22.7405 13.6835 23.5259 14.427C23.6427 14.5373 23.8197 14.3613 23.7024 14.2505C22.8858 13.4775 21.9013 12.9067 20.8216 12.5909C20.7113 12.5586 20.6333 12.6808 20.6807 12.7744C20.9168 13.2419 21.1525 13.7099 21.3886 14.1774C21.4188 14.2376 21.4484 14.2984 21.4796 14.3581C21.5888 14.5652 21.7889 14.7207 22.0213 14.7616C22.2816 14.8073 22.5705 14.703 22.8228 14.6459C23.0977 14.5841 23.3726 14.5217 23.6475 14.4598C23.8041 14.4243 23.7379 14.1838 23.5814 14.2188L23.5808 14.2183Z" fill="black"/>
<path d="M15.7976 13.0182L15.4813 15.375C15.4458 15.6418 15.2478 15.8586 14.9847 15.9178L12.3256 16.5187C12.1734 16.5526 12.0195 16.5305 11.8882 16.4627C11.9006 16.438 11.9146 16.4132 11.9281 16.389C12.7947 14.8354 14.1929 13.6729 15.7879 13.022C15.7911 13.0209 15.7944 13.0193 15.7976 13.0182Z" fill="#0D51E3"/>
<path d="M15.6728 13.0182C15.5695 13.7869 15.4662 14.5557 15.3629 15.3244C15.3328 15.5504 15.1881 15.7392 14.9503 15.7973C14.8519 15.8215 14.7523 15.8419 14.6534 15.8645C14.173 15.9732 13.6926 16.0819 13.2122 16.19C12.9755 16.2433 12.7388 16.2971 12.5021 16.3503C12.3138 16.3928 12.1395 16.4455 11.9507 16.3546C11.9657 16.4116 11.9802 16.4687 11.9953 16.5251C12.6258 15.3233 13.6479 14.3244 14.8137 13.6417C15.1402 13.4502 15.4802 13.2818 15.8304 13.1382C15.9773 13.0779 15.9127 12.8364 15.7642 12.8972C14.4624 13.4303 13.2999 14.2797 12.437 15.3949C12.1927 15.7107 11.9663 16.0447 11.7807 16.3987C11.7511 16.4547 11.7624 16.5391 11.8253 16.5693C12.0426 16.6742 12.2514 16.6623 12.4762 16.6112C12.6688 16.5676 12.8614 16.5241 13.054 16.4805C13.5661 16.3648 14.0788 16.2492 14.591 16.133C14.7271 16.1023 14.8637 16.0722 14.9998 16.0404C15.3091 15.9684 15.5528 15.7247 15.6012 15.4067C15.6572 15.0415 15.6997 14.674 15.7486 14.3082C15.8062 13.8779 15.8643 13.4475 15.9219 13.0166C15.931 12.9493 15.8579 12.8923 15.7971 12.8918C15.7223 12.8912 15.6814 12.9499 15.6723 13.0166L15.6728 13.0182Z" fill="black"/>
<path d="M14.4776 21.7288L14.1069 24.4896C14.0709 24.7569 13.8729 24.9732 13.6098 25.0324L12.9831 25.1738C11.9185 24.0506 11.2589 22.5454 11.0642 20.9772C11.0239 20.6523 11.0034 20.3252 11.0034 19.9976C11.1648 19.9207 11.3552 19.9126 11.5274 19.9842L14.0859 21.0472C14.356 21.1591 14.5163 21.4393 14.4781 21.7282L14.4776 21.7288Z" fill="#0D51E3"/>
<path d="M14.3528 21.7287C14.2866 22.2231 14.2199 22.7175 14.1538 23.2118C14.1107 23.5314 14.0677 23.8515 14.0246 24.171C13.9977 24.3722 13.9983 24.5831 13.8643 24.7402C13.7401 24.886 13.5658 24.9145 13.3899 24.9543L12.9498 25.0538C12.9902 25.0646 13.031 25.0753 13.0714 25.0861C12.1041 24.0602 11.4914 22.7379 11.2466 21.3553C11.167 20.9078 11.1294 20.4532 11.1283 19.9986C11.1078 20.0347 11.0869 20.0707 11.0664 20.1062C11.2913 20.0067 11.4871 20.1024 11.6904 20.1869C11.925 20.2843 12.1595 20.3816 12.3946 20.4795C12.9019 20.6904 13.4092 20.9008 13.9165 21.1117C13.9617 21.1305 14.008 21.1472 14.0521 21.1681C14.2667 21.2687 14.3792 21.4904 14.3533 21.7292C14.3356 21.8885 14.5857 21.8874 14.603 21.7292C14.6444 21.35 14.4125 21.0492 14.0758 20.9094C13.8789 20.8276 13.6814 20.7458 13.4845 20.6635C12.9202 20.429 12.3559 20.1944 11.791 19.9604C11.7206 19.9314 11.6501 19.9012 11.5791 19.8727C11.3666 19.7861 11.1482 19.799 10.9405 19.891C10.9018 19.9082 10.8787 19.9588 10.8787 19.9986C10.8814 21.0616 11.0895 22.123 11.5016 23.1037C11.6953 23.5647 11.9325 24.0075 12.2155 24.4201C12.3527 24.6202 12.5001 24.8133 12.6572 24.9979C12.7303 25.0839 12.8062 25.1926 12.8949 25.2625C12.9482 25.305 12.9945 25.2986 13.0542 25.2862C13.1822 25.2588 13.3102 25.2281 13.4383 25.1996C13.5426 25.1759 13.6524 25.1587 13.7519 25.1184C14.0424 25.0022 14.1979 24.7456 14.2377 24.4459C14.2995 23.9865 14.3609 23.5276 14.4227 23.0682C14.4825 22.6217 14.5427 22.1757 14.6024 21.7292C14.6116 21.662 14.5384 21.605 14.4776 21.6044C14.4028 21.6039 14.3619 21.6625 14.3528 21.7292V21.7287Z" fill="black"/>
<g opacity="0.25">
<path d="M25.5191 22.5054C25.447 22.677 25.3674 22.8459 25.283 23.0105C25.2614 23.053 25.2388 23.095 25.2168 23.137C24.6772 24.1413 23.9187 25.0096 23.0246 25.6923C22.8175 25.851 22.6028 25.9994 22.3817 26.1372C21.3123 26.8048 20.0965 27.2249 18.8538 27.3261C18.4826 27.3567 18.1087 27.3594 17.7359 27.3347C17.5718 27.3239 17.4078 27.3078 17.2442 27.2862C15.7917 27.0969 14.3904 26.4895 13.2983 25.4841C13.2779 25.4658 13.258 25.4475 13.2386 25.4287C14.0649 25.4685 14.9036 25.3975 15.7164 25.2533C18.5875 24.7439 21.3688 23.2876 23.0537 20.9077C24.1715 19.3288 24.7283 17.3216 24.5503 15.4124C25.12 16.1973 25.5423 17.0795 25.7897 18.0027C25.8586 18.2561 25.9129 18.5127 25.9538 18.7714C26.1501 20.0147 26.0269 21.3025 25.5191 22.5059V22.5054Z" fill="#000E3F"/>
</g>
<g opacity="0.5">
<path d="M14.8095 26.5058C14.8165 26.495 14.7697 26.4487 14.6755 26.3707C14.6518 26.3514 14.6255 26.3299 14.5959 26.3062C14.5814 26.2944 14.5658 26.2825 14.5496 26.2696C14.5335 26.2572 14.5168 26.2438 14.5001 26.2287C14.4329 26.1706 14.3544 26.1045 14.2661 26.0308C14.2554 26.0216 14.2441 26.0125 14.2328 26.0028C14.222 25.9926 14.2107 25.9823 14.2 25.9721C14.1774 25.9517 14.1548 25.9307 14.1311 25.9092C14.0838 25.8661 14.0348 25.821 13.9832 25.7741C13.9568 25.751 13.9321 25.7257 13.9062 25.6999C13.8804 25.6741 13.8541 25.6477 13.8272 25.6214C13.8003 25.5945 13.7728 25.5676 13.7454 25.5396C13.7179 25.5116 13.6884 25.4847 13.6615 25.4535C13.5523 25.3325 13.4312 25.2077 13.3161 25.0635C13.1951 24.9247 13.0805 24.7671 12.9573 24.6041C12.72 24.2716 12.486 23.8897 12.2762 23.4593C12.0669 23.0289 11.8835 22.5496 11.7506 22.03C11.6823 21.7707 11.6323 21.5001 11.5919 21.2225L11.5839 21.1703L11.5785 21.1176C11.5747 21.0826 11.5715 21.0471 11.5677 21.0121C11.5607 20.9417 11.5532 20.8707 11.5457 20.7996C11.5419 20.7281 11.5381 20.6565 11.5349 20.5845C11.5328 20.5484 11.5311 20.5124 11.529 20.4758C11.5285 20.4575 11.5268 20.4397 11.5263 20.4215V20.3666C11.5172 19.7834 11.5753 19.1788 11.7071 18.5741C11.8448 17.9711 12.0492 17.3987 12.3058 16.8747L12.3289 16.8252C12.337 16.8091 12.3462 16.7929 12.3542 16.7768C12.3714 16.745 12.3887 16.7128 12.4053 16.681C12.4392 16.6175 12.4731 16.5541 12.507 16.4906C12.5441 16.4293 12.5807 16.3685 12.6173 16.3077C12.6356 16.2776 12.6539 16.2469 12.6722 16.2168L12.6996 16.1716L12.7292 16.128C12.8836 15.894 13.0439 15.6707 13.216 15.4647C13.5576 15.051 13.9272 14.6954 14.2995 14.3947C14.6723 14.0945 15.0467 13.8481 15.4028 13.6486C15.5836 13.5533 15.7541 13.4597 15.923 13.3855C16.0887 13.3037 16.2512 13.2429 16.4013 13.1795C16.4384 13.1628 16.4766 13.1509 16.5137 13.1375C16.5508 13.124 16.5869 13.1111 16.6224 13.0982C16.6579 13.0853 16.6929 13.0729 16.7273 13.0606C16.7617 13.0482 16.7951 13.0353 16.8284 13.0261C16.8951 13.0057 16.9592 12.9858 17.0199 12.967C17.0506 12.9573 17.0802 12.9481 17.1092 12.939C17.1238 12.9347 17.1383 12.9298 17.1523 12.9255C17.1668 12.9218 17.1808 12.918 17.1948 12.9142C17.3061 12.8852 17.4051 12.8583 17.4907 12.8346C17.5122 12.8282 17.5326 12.8233 17.5531 12.819C17.573 12.8142 17.5923 12.8099 17.6106 12.8056C17.6472 12.797 17.68 12.7889 17.7096 12.7808C17.828 12.7502 17.8898 12.7281 17.8882 12.7157C17.8866 12.7034 17.8215 12.7012 17.6983 12.7087C17.6676 12.7104 17.6332 12.713 17.595 12.7163C17.5762 12.7179 17.5563 12.7195 17.5353 12.7211C17.5143 12.7227 17.4928 12.7249 17.4708 12.7286C17.3814 12.7416 17.2787 12.7577 17.163 12.7771C17.1485 12.7792 17.134 12.7819 17.1189 12.7846C17.1044 12.7878 17.0893 12.791 17.0743 12.7943C17.0441 12.8007 17.0129 12.8077 16.9812 12.8147C16.9177 12.8292 16.851 12.8443 16.7811 12.8599C16.7461 12.8669 16.7112 12.8777 16.6751 12.8879C16.6391 12.8981 16.6025 12.9089 16.5654 12.9191C16.5282 12.9298 16.49 12.9406 16.4513 12.9519C16.4126 12.9632 16.3728 12.9734 16.3335 12.9879C16.1759 13.0433 16.0054 13.0977 15.8311 13.1735C15.6535 13.2419 15.4733 13.3306 15.2829 13.4221C14.9068 13.6141 14.5104 13.8562 14.1144 14.158C13.719 14.4598 13.3247 14.8224 12.9605 15.2495C12.7771 15.462 12.6049 15.6939 12.4403 15.937L12.4091 15.9828L12.38 16.0301C12.3607 16.0613 12.3413 16.093 12.3214 16.1248C12.2827 16.1883 12.2434 16.2517 12.2036 16.3158C12.1675 16.3814 12.1315 16.4476 12.0949 16.5143C12.0766 16.5476 12.0583 16.581 12.0406 16.6143C12.0314 16.631 12.0223 16.6477 12.0137 16.6649L11.9889 16.7165C11.7157 17.2636 11.4989 17.8629 11.3547 18.495C11.2164 19.1287 11.1578 19.763 11.1723 20.3747V20.4317C11.1734 20.4505 11.175 20.4699 11.1761 20.4887C11.1782 20.5269 11.1809 20.5646 11.1831 20.6022C11.1879 20.6781 11.1922 20.7528 11.1971 20.8282C11.2057 20.9029 11.2137 20.9772 11.2224 21.0509C11.2267 21.088 11.231 21.1246 11.2347 21.1611L11.2412 21.216L11.2503 21.2704C11.2961 21.5609 11.3531 21.8438 11.4289 22.1139C11.5774 22.6556 11.7797 23.1516 12.0089 23.5927C12.2386 24.0344 12.4946 24.4223 12.7528 24.7558C12.8868 24.9193 13.0116 25.0764 13.1434 25.2136C13.2687 25.3562 13.4005 25.4783 13.5194 25.5955C13.5485 25.6251 13.5808 25.6515 13.6104 25.6784C13.6405 25.7048 13.6706 25.7311 13.6997 25.7569C13.7287 25.7822 13.7578 25.8075 13.7857 25.8322C13.8137 25.8565 13.8411 25.8812 13.8696 25.9027C13.9261 25.9468 13.9799 25.9888 14.0316 26.0286C14.0574 26.0485 14.0827 26.0679 14.1069 26.0867C14.1193 26.0964 14.1311 26.1055 14.1429 26.1147C14.1553 26.1233 14.1677 26.1319 14.1795 26.14C14.2763 26.2067 14.3624 26.2648 14.4377 26.3148C14.456 26.3277 14.4749 26.339 14.4931 26.3492C14.5114 26.3594 14.5287 26.3697 14.5448 26.3794C14.5776 26.3982 14.6077 26.4154 14.6352 26.4299C14.7433 26.4891 14.803 26.5149 14.81 26.5042L14.8095 26.5058Z" fill="white"/>
</g>
<g opacity="0.5">
<path d="M16.4947 20.6279C16.5453 20.6322 16.6077 20.4132 16.6841 20.0598C16.7605 19.7063 16.853 19.2184 16.9633 18.6815C16.9907 18.5476 17.0181 18.4163 17.044 18.2899C17.0703 18.164 17.0961 18.0446 17.1241 17.9322C17.1521 17.8197 17.1811 17.7154 17.2123 17.6191C17.2435 17.5228 17.278 17.4362 17.3108 17.3576C17.4469 17.0456 17.6034 16.8874 17.5695 16.8444C17.5615 16.8347 17.5437 16.8342 17.5152 16.8433C17.5012 16.8476 17.484 16.8546 17.4652 16.8638C17.4458 16.8729 17.4265 16.8864 17.4033 16.9014C17.3129 16.9617 17.1962 17.072 17.087 17.2328C17.0337 17.3135 16.981 17.406 16.9331 17.5077C16.8858 17.6099 16.8422 17.7213 16.8035 17.8396C16.7642 17.958 16.7298 18.0828 16.6981 18.2114C16.6669 18.3394 16.6362 18.4723 16.6082 18.6094C16.4958 19.1576 16.4415 19.6622 16.4296 20.0291C16.4178 20.396 16.4452 20.6246 16.4947 20.6289V20.6279Z" fill="white"/>
</g>
<g opacity="0.5">
<path d="M21.9205 14.5179C22.0115 14.4765 21.9318 14.1042 21.7419 13.6868C21.552 13.2688 21.3245 12.9638 21.2336 13.0052C21.1427 13.0466 21.2223 13.4189 21.4122 13.8363C21.6021 14.2543 21.8296 14.5594 21.9205 14.5179Z" fill="white"/>
</g>
<g opacity="0.5">
<path d="M14.1961 24.1022C14.2219 24.099 14.2343 24.0253 14.2537 23.8999C14.273 23.774 14.3042 23.5954 14.3575 23.3733C14.3833 23.2619 14.414 23.1392 14.4436 23.0037C14.4586 22.9364 14.4731 22.8654 14.4866 22.7917C14.4995 22.7169 14.5119 22.6395 14.52 22.5582C14.5248 22.5179 14.5269 22.4765 14.5302 22.4351C14.5312 22.3931 14.5345 22.3506 14.5334 22.307C14.5345 22.2204 14.5286 22.1306 14.5167 22.0391C14.5054 21.9477 14.4839 21.8535 14.4538 21.7599C14.4457 21.7368 14.4387 21.7131 14.429 21.6894C14.4194 21.6663 14.4097 21.6432 14.4 21.6195C14.3774 21.5738 14.3553 21.5275 14.3274 21.4839L14.3069 21.4506C14.2999 21.4398 14.2919 21.4296 14.2843 21.4189C14.2687 21.3979 14.2542 21.3764 14.2381 21.3564C14.2052 21.3161 14.1708 21.279 14.1342 21.2446C14.0616 21.1757 13.9841 21.1171 13.9051 21.0676C13.7469 20.968 13.5844 20.9035 13.4333 20.8513C13.2821 20.7997 13.1406 20.7615 13.0121 20.7233C12.8829 20.6856 12.7684 20.648 12.6667 20.6076C12.4628 20.5269 12.3154 20.4317 12.2191 20.3553C12.1217 20.28 12.0712 20.2262 12.048 20.2396C12.0373 20.2461 12.0362 20.2671 12.0448 20.3042C12.0496 20.3225 12.0577 20.3435 12.0685 20.3688C12.0808 20.3924 12.0943 20.4209 12.1142 20.45C12.1524 20.5092 12.2078 20.5759 12.2815 20.6426C12.3552 20.7098 12.4472 20.776 12.5542 20.8379C12.608 20.8685 12.6651 20.8981 12.7253 20.9261C12.7856 20.9541 12.8485 20.981 12.9131 21.0068C13.0427 21.059 13.1799 21.1084 13.3165 21.1639C13.4532 21.2198 13.5893 21.2827 13.7125 21.3651C13.7743 21.4059 13.8319 21.4522 13.8841 21.5028C13.9099 21.5281 13.9341 21.555 13.9567 21.5829C13.968 21.5969 13.9777 21.612 13.989 21.6265C13.9944 21.634 13.9997 21.641 14.0046 21.6486L14.0186 21.6722C14.039 21.7029 14.0546 21.7362 14.0713 21.7691C14.0783 21.7863 14.0858 21.803 14.0928 21.8202C14.1003 21.8368 14.1052 21.8551 14.1116 21.8724C14.1353 21.9428 14.1541 22.0149 14.1649 22.0891C14.1767 22.1628 14.1843 22.2376 14.187 22.3119C14.1896 22.349 14.1886 22.3861 14.1891 22.4227C14.188 22.4598 14.1886 22.4958 14.1864 22.5324C14.1837 22.6051 14.1773 22.6761 14.1708 22.7455C14.1633 22.8159 14.1552 22.8843 14.1471 22.9515C14.1305 23.086 14.1143 23.2135 14.1041 23.3318C14.082 23.5685 14.088 23.767 14.1127 23.901C14.1369 24.0355 14.1724 24.1043 14.1961 24.1011V24.1022Z" fill="white"/>
</g>
<g opacity="0.5">
<path d="M17.9473 26.8398C17.9823 26.8753 18.134 26.7903 18.3465 26.6187C18.5595 26.4471 18.8323 26.1867 19.1066 25.8747C19.381 25.5627 19.6042 25.2587 19.7473 25.0258C19.8904 24.7929 19.955 24.6315 19.9157 24.6013C19.8754 24.5707 19.7393 24.6767 19.5467 24.866C19.3541 25.0559 19.1039 25.3287 18.8344 25.6353C18.5649 25.9419 18.326 26.2249 18.1625 26.4401C17.999 26.6553 17.9113 26.8037 17.9468 26.8398H17.9473Z" fill="white"/>
</g>
<path d="M26.1895 20.4676C26.169 20.4891 26.1728 20.5171 26.1723 20.5434C26.1642 20.8173 26.1153 21.0857 26.0598 21.3531C25.85 22.3628 25.4202 23.2747 24.8172 24.1069C24.029 25.1941 23.0301 26.0355 21.8336 26.6433C21.1832 26.9737 20.4995 27.2087 19.7846 27.3535C19.4682 27.4175 19.1481 27.46 18.8259 27.4836C18.5101 27.5073 18.1938 27.5122 17.878 27.4949C16.8392 27.4385 15.8478 27.1926 14.9117 26.7337C14.2828 26.4255 13.7099 26.036 13.1994 25.5556C12.6168 25.0069 12.1531 24.3699 11.7878 23.6593C11.4537 23.0105 11.2197 22.3262 11.0766 21.6113C11.0131 21.2944 10.9717 20.9749 10.9448 20.6526C10.9158 20.3003 10.9141 19.9474 10.9341 19.5955C10.9981 18.4836 11.2816 17.4324 11.8088 16.4485C12.1396 15.8309 12.5533 15.2747 13.0428 14.7749C14.1446 13.649 15.469 12.9152 16.9968 12.5445C17.3982 12.4471 17.8059 12.3858 18.218 12.3546C18.5672 12.3283 18.9168 12.325 19.2654 12.3449C19.7684 12.374 20.2628 12.4584 20.7491 12.5902C21.9181 12.9066 22.9327 13.4935 23.8015 14.3327C24.6429 15.145 25.2647 16.1042 25.6892 17.1925C25.8931 17.7148 26.0378 18.2539 26.1228 18.808C26.1459 18.9591 26.1701 19.1103 26.1696 19.2642C26.1696 19.3007 26.175 19.3357 26.1879 19.3696V20.4681L26.1895 20.4676ZM19.7932 24.3963C19.7932 24.3898 19.7926 24.3828 19.7915 24.3764C19.7716 24.2279 19.7539 24.0794 19.7318 23.9315C19.6716 23.5232 19.6022 23.117 19.5177 22.713C19.4887 22.5732 19.4575 22.4333 19.4263 22.294C19.4134 22.2375 19.4117 22.2359 19.3553 22.2342C19.2262 22.231 19.1062 22.1955 18.9905 22.1417C18.9545 22.125 18.9184 22.1073 18.8829 22.0885C18.3068 21.7904 17.7312 21.4919 17.155 21.1938C16.9689 21.0975 16.7817 21.0039 16.5955 20.9066C16.4524 20.8318 16.3249 20.7371 16.2389 20.5956C16.2173 20.5601 16.2098 20.5596 16.1743 20.5779C16.1566 20.587 16.1393 20.5972 16.1221 20.6075C15.6482 20.878 15.1823 21.1621 14.7256 21.4607C14.7089 21.4714 14.6928 21.4832 14.675 21.4929C14.6487 21.508 14.64 21.529 14.6427 21.5596C14.654 21.6694 14.6465 21.7786 14.6271 21.8878C14.6175 21.9432 14.6121 21.9997 14.6045 22.0562C14.5685 22.3268 14.533 22.5968 14.4964 22.8674C14.4598 23.1412 14.4222 23.4145 14.3851 23.6883C14.3496 23.9519 14.3162 24.2161 14.2796 24.4797C14.2656 24.5819 14.2377 24.6814 14.1914 24.775C14.15 24.8589 14.1505 24.8589 14.2183 24.9219C14.2355 24.9375 14.2527 24.9531 14.2699 24.9687C14.8466 25.4878 15.4949 25.8945 16.2077 26.199C16.6832 26.4023 17.1754 26.5519 17.6844 26.6471C17.7226 26.6541 17.7451 26.6455 17.7699 26.617C18.0093 26.3399 18.2498 26.064 18.4902 25.788C18.7985 25.434 19.1073 25.0806 19.4155 24.7271C19.5145 24.6136 19.6205 24.5087 19.7577 24.4409C19.7636 24.4383 19.7695 24.4345 19.7749 24.4307C19.7862 24.4227 19.7932 24.4119 19.7921 24.3974L19.7932 24.3963ZM16.9872 16.888C16.985 16.8611 16.9678 16.8498 16.9544 16.8358C16.8139 16.6884 16.6633 16.5529 16.5041 16.4264C16.2114 16.193 15.8946 15.9982 15.5535 15.8433C15.476 15.8078 15.4868 15.8019 15.426 15.8621C15.3168 15.9702 15.1855 16.0386 15.036 16.073C14.9617 16.0902 14.887 16.1069 14.8122 16.1236C14.0435 16.2973 13.2747 16.4711 12.506 16.6443C12.4215 16.6631 12.336 16.6777 12.2488 16.6771C12.1789 16.6771 12.1095 16.6766 12.0406 16.6599C11.9917 16.6481 11.9901 16.6508 11.9637 16.6986C11.954 16.7159 11.9449 16.7336 11.9357 16.7514C11.8125 16.9988 11.7017 17.2511 11.6076 17.511C11.4349 17.9881 11.3144 18.4777 11.2445 18.9801C11.2089 19.234 11.1901 19.4896 11.1756 19.7451C11.174 19.7715 11.1745 19.7984 11.1772 19.8247C11.1777 19.8317 11.1885 19.8414 11.1966 19.8435C11.2089 19.8468 11.2229 19.8462 11.2358 19.8452C11.3956 19.8285 11.5446 19.8635 11.692 19.9253C12.4898 20.2594 13.2882 20.5908 14.0876 20.9216C14.257 20.9921 14.4044 21.0889 14.5136 21.2396C14.5384 21.2734 14.5454 21.274 14.5787 21.2541C14.5986 21.2422 14.618 21.2288 14.6374 21.2164C15.0618 20.941 15.4927 20.6768 15.9317 20.4256C15.9839 20.396 16.035 20.3643 16.0877 20.3369C16.1227 20.3186 16.1323 20.2949 16.1286 20.2562C16.1184 20.1593 16.1329 20.0641 16.1539 19.9694C16.2781 19.4046 16.4019 18.8392 16.5261 18.2738C16.5961 17.9553 16.6676 17.6374 16.7376 17.3194C16.7704 17.1694 16.8398 17.0392 16.9479 16.9294C16.9619 16.9154 16.9748 16.9004 16.9861 16.8885L16.9872 16.888ZM22.073 19.8479C22.0596 19.8473 22.0467 19.8462 22.0332 19.8457C21.9751 19.8441 21.974 19.8435 21.9531 19.8973C21.9122 20.0044 21.8503 20.0985 21.7734 20.183C21.7239 20.2368 21.6728 20.2895 21.6206 20.3406C21.0886 20.8576 20.556 21.3746 20.0234 21.891C19.9228 21.9884 19.8195 22.082 19.6947 22.1492C19.6592 22.1686 19.6587 22.1734 19.6673 22.2138C19.7076 22.4026 19.7496 22.5909 19.7878 22.7797C19.8626 23.1515 19.9276 23.5248 19.9793 23.9008C19.9987 24.0391 20.0169 24.1779 20.0363 24.3161C20.0428 24.3619 20.0444 24.3646 20.0917 24.3699C20.1676 24.3791 20.244 24.3861 20.3166 24.4124C20.3887 24.4383 20.4608 24.4641 20.5312 24.4937C21.2935 24.8094 22.0553 25.1252 22.8165 25.4421C22.8837 25.4701 22.951 25.5002 23.0145 25.5368C23.0537 25.5594 23.0817 25.5572 23.1113 25.5265C23.1161 25.5217 23.1215 25.5185 23.1269 25.5142C23.9543 24.8493 24.6283 24.0558 25.1367 23.1224C25.1878 23.0283 25.1873 23.0466 25.1389 22.9497C24.7752 22.2278 24.411 21.5064 24.0468 20.7844C23.9747 20.6408 23.9102 20.4956 23.9102 20.3304C23.9102 20.3078 23.8994 20.2933 23.8779 20.2852C23.8564 20.2771 23.8348 20.2669 23.8133 20.2583C23.5756 20.1626 23.3324 20.0824 23.0844 20.0184C22.7519 19.9323 22.4146 19.8764 22.072 19.8484L22.073 19.8479ZM21.7406 19.6434C21.7443 19.5525 21.7094 19.4589 21.6722 19.3664C21.4092 18.716 21.1461 18.0656 20.8825 17.4147C20.8126 17.242 20.7464 17.0677 20.6722 16.8971C20.5786 16.6804 20.3672 16.555 20.1353 16.5776C19.9632 16.5948 19.7915 16.6169 19.6205 16.6411C19.3343 16.682 19.0481 16.7277 18.7619 16.7691C18.3304 16.831 17.899 16.8923 17.4676 16.9504C17.1841 16.9886 17.0259 17.1785 16.9796 17.3953C16.8769 17.8768 16.7688 18.3566 16.6628 18.8376C16.5735 19.2437 16.4831 19.6493 16.3959 20.056C16.3443 20.2965 16.4266 20.488 16.6262 20.629C16.6692 20.6596 16.7176 20.6838 16.7645 20.708C17.4321 21.0534 18.1002 21.3982 18.7678 21.7431C18.8889 21.8055 19.0094 21.87 19.132 21.9292C19.3208 22.0201 19.5005 21.9938 19.6684 21.8743C19.7033 21.8496 19.7351 21.8189 19.7657 21.7888C20.3171 21.2535 20.8685 20.7177 21.4199 20.1819C21.4818 20.1217 21.5448 20.062 21.6034 19.9985C21.6932 19.9022 21.7433 19.7892 21.74 19.6434H21.7406ZM18.7726 12.5816C18.4375 12.5849 18.069 12.6091 17.7032 12.6634C17.1921 12.7393 16.6929 12.8646 16.206 13.0389C16.134 13.0647 16.063 13.0927 15.9914 13.1196C15.9677 13.1287 15.9527 13.1449 15.9494 13.1702C15.9478 13.1831 15.9462 13.1965 15.9441 13.21C15.9086 13.4768 15.8731 13.7442 15.8381 14.011C15.7864 14.3999 15.7353 14.7889 15.6832 15.1778C15.6697 15.28 15.653 15.3817 15.6374 15.4834C15.632 15.5189 15.6019 15.5549 15.6218 15.5878C15.6407 15.6184 15.6837 15.6243 15.716 15.6399C16.2442 15.8912 16.7123 16.2263 17.1217 16.6443C17.1448 16.668 17.1685 16.6916 17.19 16.7169C17.2126 16.7433 17.2368 16.7465 17.2696 16.7358C17.3454 16.7105 17.424 16.6959 17.5036 16.6873C17.616 16.675 17.7285 16.6631 17.8404 16.6475C18.196 16.598 18.5515 16.5469 18.9071 16.4964C19.2331 16.4506 19.5591 16.4049 19.8852 16.3592C20.0465 16.3366 20.2079 16.3086 20.3709 16.3474C20.3935 16.3527 20.4086 16.3414 20.4193 16.3221C20.4323 16.2989 20.4462 16.2758 20.4597 16.2532C20.6932 15.853 20.9578 15.4742 21.2548 15.1187C21.3893 14.9578 21.5297 14.8023 21.6755 14.6517C21.7002 14.6264 21.7013 14.6173 21.6766 14.5941C21.5856 14.5075 21.5265 14.401 21.4711 14.2902C21.2446 13.8383 21.0165 13.3875 20.7884 12.9362C20.7335 12.8275 20.7604 12.8533 20.6426 12.8221C20.0417 12.6623 19.429 12.5881 18.7732 12.5827L18.7726 12.5816ZM20.641 16.4641C20.6867 16.5017 20.7357 16.5421 20.776 16.591C20.8443 16.6744 20.8938 16.768 20.9347 16.867C20.9729 16.959 21.0073 17.0526 21.045 17.1451C21.2914 17.7557 21.5383 18.3658 21.7852 18.9764C21.8352 19.0996 21.8853 19.2227 21.9348 19.3465C21.9617 19.4148 21.9757 19.4869 21.9907 19.5584C21.9945 19.5762 22.0042 19.588 22.0235 19.5896C22.0402 19.5907 22.0569 19.5918 22.073 19.5939C22.2414 19.6138 22.4109 19.6284 22.5782 19.6553C23.0263 19.7263 23.4615 19.8468 23.8833 20.0146C23.9102 20.0254 23.9376 20.034 23.9699 20.0453C24.0371 19.899 24.1372 19.7828 24.2378 19.6676C24.695 19.1437 25.1523 18.6197 25.6085 18.0952C25.6365 18.0629 25.68 18.0355 25.6843 17.993C25.6881 17.9559 25.6687 17.916 25.658 17.8778C25.3589 16.8697 24.8704 15.9616 24.2082 15.1461C24.0425 14.9417 23.8639 14.7491 23.6783 14.5624C23.6401 14.5242 23.603 14.5065 23.546 14.5199C23.2969 14.5796 23.0473 14.635 22.7977 14.6926C22.6583 14.7249 22.5217 14.7674 22.3797 14.7873C22.2506 14.8056 22.1204 14.8131 21.9939 14.7738C21.945 14.7588 21.9111 14.7652 21.8815 14.8039C21.8756 14.812 21.8675 14.8179 21.8605 14.8255C21.4038 15.2956 21.0089 15.8126 20.6792 16.3791C20.6647 16.4044 20.6437 16.4275 20.6415 16.4657L20.641 16.4641ZM11.1794 20.388C11.1874 20.5978 11.2079 20.8065 11.2342 21.0141C11.2869 21.4273 11.3719 21.8335 11.4908 22.2332C11.7351 23.0568 12.103 23.8201 12.6146 24.5125C12.7411 24.6841 12.8766 24.8476 13.0181 25.0074C13.0525 25.0467 13.0832 25.0618 13.1381 25.0478C13.2699 25.0133 13.4044 24.9886 13.5367 24.9568C13.598 24.9423 13.6588 24.924 13.7174 24.9004C13.8589 24.8439 13.952 24.7401 14.0004 24.5964C14.0133 24.5588 14.023 24.5195 14.0289 24.4802C14.0467 24.3586 14.0623 24.2365 14.0784 24.1144C14.1075 23.8971 14.1371 23.6792 14.1661 23.4619C14.2021 23.1918 14.2382 22.9212 14.2742 22.6512C14.3146 22.3477 14.3587 22.0449 14.3953 21.7415C14.4146 21.5779 14.3646 21.4327 14.2522 21.3106C14.1898 21.2428 14.1107 21.2019 14.0268 21.1669C13.5996 20.9905 13.1725 20.813 12.7459 20.636C12.3806 20.4843 12.0148 20.3326 11.6495 20.1808C11.5635 20.1448 11.4763 20.1125 11.3838 20.098C11.3273 20.0894 11.2713 20.0883 11.2154 20.1034C11.1788 20.1131 11.1734 20.1184 11.174 20.1593C11.1751 20.2357 11.1783 20.3121 11.1804 20.3885L11.1794 20.388ZM22.8348 25.7331C22.8057 25.6982 22.7724 25.6906 22.7423 25.6783C22.6653 25.647 22.5873 25.6175 22.5109 25.5857C22.1763 25.4475 21.8417 25.3081 21.5071 25.1693C21.1418 25.0176 20.7766 24.8665 20.4113 24.7148C20.3284 24.6803 20.2445 24.6502 20.1552 24.6346C20.0046 24.6077 19.8722 24.6448 19.7533 24.7379C19.7006 24.7793 19.6571 24.8294 19.614 24.8799C19.5602 24.9434 19.5075 25.0074 19.4532 25.0704C19.1078 25.4668 18.7624 25.8628 18.4171 26.2587C18.2772 26.419 18.1373 26.5799 17.9969 26.7396C17.8952 26.8553 17.8452 26.9876 17.857 27.1426C17.864 27.2389 17.864 27.2389 17.9619 27.2453C18.2912 27.2663 18.6199 27.2507 18.9486 27.2233C19.3074 27.1937 19.6608 27.1345 20.0105 27.05C21.0079 26.8085 21.9213 26.3819 22.7595 25.7918C22.7837 25.7745 22.8068 25.7563 22.8364 25.7337L22.8348 25.7331ZM15.6832 13.2605C15.6606 13.2632 15.6536 13.2627 15.6476 13.2648C15.6229 13.2751 15.5987 13.2858 15.5745 13.2966C14.6675 13.7146 13.8627 14.2778 13.1693 14.9982C12.7846 15.3979 12.45 15.8352 12.1714 16.3151C12.1563 16.3409 12.1418 16.3673 12.1299 16.3947C12.1246 16.4076 12.131 16.4216 12.1471 16.4243C12.1633 16.4275 12.18 16.4291 12.1966 16.4302C12.2773 16.4345 12.3553 16.4184 12.4333 16.4006C13.0428 16.2634 13.6524 16.1257 14.2619 15.9885C14.4953 15.9358 14.7288 15.8842 14.9623 15.8304C15.2178 15.7707 15.3695 15.6012 15.405 15.3403C15.4136 15.2741 15.4228 15.2085 15.4314 15.1423C15.4685 14.869 15.5056 14.5952 15.5427 14.3219C15.5804 14.0417 15.6186 13.7619 15.6557 13.4816C15.6654 13.4096 15.6735 13.3375 15.6832 13.26V13.2605ZM25.3185 22.7421C25.4304 22.5742 25.6418 21.9997 25.7467 21.5844C25.9539 20.7656 26.0023 19.9372 25.9098 19.0985C25.8802 18.8311 25.8043 18.4088 25.7624 18.3184C25.7338 18.3249 25.7209 18.3507 25.7037 18.3701C25.2486 18.8914 24.794 19.4132 24.3389 19.935C24.3039 19.9753 24.2706 20.0168 24.2442 20.063C24.1517 20.2244 24.1404 20.3901 24.2173 20.5601C24.2351 20.5994 24.255 20.6381 24.2744 20.6768C24.5665 21.2557 24.8591 21.8345 25.1518 22.4134C25.2056 22.5199 25.2599 22.6264 25.3185 22.7421ZM13.9751 25.051C13.9655 25.0564 13.9531 25.0612 13.9429 25.0682C13.8509 25.1311 13.7481 25.1683 13.6405 25.193C13.5986 25.2027 13.5561 25.2108 13.5136 25.2204C13.4485 25.235 13.3839 25.2495 13.3194 25.2646C13.2984 25.2694 13.2925 25.2861 13.3059 25.3011C13.3167 25.3135 13.329 25.3253 13.3409 25.3366C13.492 25.4819 13.6497 25.6202 13.8148 25.7493C14.5125 26.2942 15.2888 26.6848 16.1356 26.9392C16.5826 27.0737 17.0388 27.1619 17.5025 27.213C17.5257 27.2157 17.5488 27.2168 17.5719 27.2168C17.5918 27.2168 17.6015 27.2039 17.601 27.1851C17.601 27.1055 17.5961 27.0258 17.6144 26.9468C17.6257 26.8989 17.6182 26.8924 17.5665 26.8811C17.4563 26.8569 17.3449 26.8359 17.2357 26.8085C16.0312 26.5072 14.9682 25.9413 14.0483 25.1075C14.0262 25.0876 14.0074 25.0634 13.9757 25.051H13.9751ZM22.2253 14.5533C22.2699 14.5457 22.3291 14.5377 22.3872 14.5247C22.6761 14.4607 22.965 14.3967 23.2533 14.3295C23.291 14.3209 23.3335 14.3225 23.3657 14.294C23.3587 14.2455 23.3146 14.2289 23.2834 14.203C22.8299 13.8173 22.3334 13.4967 21.7954 13.2412C21.6002 13.1481 21.4006 13.0647 21.1967 12.9921C21.1714 12.983 21.1467 12.9743 21.1214 12.9663C21.116 12.9647 21.1079 12.9663 21.1036 12.97C21.0999 12.9738 21.0972 12.9824 21.0988 12.9873C21.1058 13.0061 21.1144 13.0238 21.1235 13.0416C21.3183 13.4278 21.513 13.8141 21.7083 14.1998C21.7293 14.2412 21.7508 14.2832 21.7771 14.3209C21.8821 14.4699 22.0278 14.5441 22.2242 14.5533H22.2253Z" fill="#000E3F"/>
<path d="M20.0436 10.714C18.3905 11.068 17.1586 11.2913 15.6883 11.5888C15.2908 11.6689 14.8749 11.755 14.429 11.8502C14.3009 11.8777 14.174 11.8798 14.0524 11.8594C14.1976 11.4392 14.267 10.9873 14.1987 10.55C14.5973 10.5876 15.0261 10.4338 15.1902 10.09C15.1961 10.0776 15.2015 10.0653 15.2074 10.0529C15.2171 10.0303 15.2268 10.0072 15.2354 9.98403C15.2402 9.97166 15.2445 9.95983 15.2483 9.94799C15.4839 9.27124 15.1826 8.45838 14.6097 8.01349C14.0658 7.59119 13.3364 7.468 12.651 7.56752L12.3966 6.01551L11.9517 3.30581C11.864 2.77323 12.2104 2.26594 12.7382 2.15189C14.6296 1.74358 16.1569 1.29008 18.0349 0.880154C18.6019 0.756961 19.1565 1.13299 19.2502 1.70538C19.4906 3.1767 19.7666 4.61897 20.0587 6.02735C20.3046 7.20978 20.5617 8.36854 20.8188 9.50041C20.9442 10.0502 20.5951 10.5962 20.0436 10.714Z" fill="#FD2261"/>
<g opacity="0.25">
<path d="M20.0437 10.7138C18.3906 11.0678 17.1587 11.291 15.6884 11.5885C15.2909 11.6687 14.875 11.7547 14.4291 11.85C14.301 11.8774 14.1741 11.8795 14.0525 11.8591C14.1579 11.5535 14.2236 11.2308 14.2257 10.9085C14.2338 10.9069 14.2419 10.9053 14.2499 10.9037C15.7202 10.6062 16.9521 10.3829 18.6052 10.029C19.1566 9.91061 19.5058 9.36512 19.3804 8.81532C19.1233 7.68346 18.8661 6.52469 18.6203 5.34226C18.3282 3.93388 18.0522 2.49162 17.8117 1.0203C17.8069 0.99071 17.801 0.96166 17.7935 0.933686C17.8736 0.915396 17.9538 0.898181 18.035 0.880429C18.602 0.757236 19.1566 1.13327 19.2503 1.70566C19.4907 3.17698 19.7667 4.61924 20.0588 6.02762C20.3047 7.21005 20.5618 8.36882 20.8189 9.50068C20.9443 10.0505 20.5951 10.5965 20.0437 10.7143V10.7138Z" fill="#000E3F"/>
</g>
<path d="M15.668 13.5199C15.6045 13.9971 15.49 14.4861 15.1919 14.8648C14.9499 15.1731 14.6072 15.3813 14.2892 15.6093C13.2585 16.3485 12.4268 17.3588 11.8889 18.5063C10.4143 17.9575 9.01778 17.199 7.75519 16.2597C8.15274 15.4765 8.21514 14.5377 8.22644 13.6458C8.23935 12.5968 8.21137 11.5047 8.65734 10.5552C9.01777 9.78863 9.65741 9.18827 10.3336 8.67721C10.9534 8.20865 11.6328 7.79173 12.3892 7.61635C12.4752 7.59645 12.5624 7.57977 12.6501 7.5674C13.336 7.46788 14.0649 7.59107 14.6088 8.01337C15.1817 8.45826 15.483 9.27112 15.2473 9.94787C15.2436 9.9597 15.2393 9.97154 15.2344 9.98391C15.2258 10.007 15.2161 10.0296 15.2065 10.0528C15.2011 10.0651 15.1952 10.0775 15.1892 10.0899C15.0257 10.4336 14.597 10.5875 14.1978 10.5498C14.2656 10.9872 14.1967 11.4396 14.0515 11.8592C14.173 11.8797 14.3 11.8775 14.428 11.8501C14.874 11.7549 15.2898 11.6688 15.6874 11.5886C15.7611 12.253 15.7444 12.9389 15.6675 13.5199H15.668Z" fill="white"/>
<g opacity="0.25">
<path d="M15.668 13.5199C15.6045 13.9971 15.49 14.4861 15.1919 14.8648C14.9499 15.1731 14.6072 15.3813 14.2892 15.6094C13.2585 16.3485 12.4268 17.3588 11.8889 18.5063C10.4143 17.9575 9.01778 17.199 7.75519 16.2598C8.15274 15.4765 8.21514 14.5377 8.22644 13.6458C8.22859 13.4801 8.22967 13.3133 8.23128 13.146C8.25764 13.1998 8.28131 13.2542 8.30175 13.3096C8.45668 13.7303 8.46691 14.1875 8.47982 14.6357C8.49542 15.1908 8.53361 15.7923 8.89458 16.2135C9.22704 16.6014 9.75531 16.7455 10.2508 16.8693C10.878 17.0263 11.5752 17.1764 12.1444 16.8682C12.4693 16.6917 12.7033 16.3883 12.9196 16.0876C13.2886 15.5744 13.6351 15.0456 13.9579 14.5028C14.0751 14.3048 14.1935 14.0724 14.1182 13.8556C14.0326 13.6092 13.7217 13.5038 13.4678 13.5613C13.2139 13.6189 13.0051 13.7954 12.8109 13.9691C12.6162 14.1423 12.415 14.3242 12.1643 14.3957C11.6457 14.5447 11.0959 14.151 10.8797 13.6571C10.6629 13.1627 10.6731 12.5683 10.7086 12.0298C10.8592 12.2503 10.9437 12.508 11.0335 12.7598C11.1228 13.0116 11.2229 13.266 11.3977 13.4683C11.5725 13.6706 11.8367 13.8137 12.1014 13.7771C12.365 13.74 12.5796 13.5318 12.6958 13.2924C12.8125 13.053 12.847 12.7829 12.8803 12.5188C13.0417 12.7329 13.3898 12.7539 13.627 12.6291C13.8642 12.5043 14.0224 12.2692 14.1435 12.0298C14.1693 11.9781 14.1946 11.9254 14.2193 11.8727C14.2882 11.8727 14.3581 11.8646 14.428 11.8501C14.874 11.7549 15.2898 11.6688 15.6874 11.5887C15.7611 12.253 15.7444 12.9389 15.6675 13.5199H15.668Z" fill="#000E3F"/>
</g>
<path d="M3.99478 21.6015C4.49831 21.7268 5.00938 21.8215 5.52313 21.8936C5.97824 21.9576 6.43496 22.005 6.89277 22.0416C6.92935 22.0448 6.96646 22.0475 7.00305 22.0502C7.00197 22.0502 7.02779 22.0523 7.04447 22.0534C7.06115 22.0545 7.08697 22.0566 7.08589 22.0566C7.11333 22.0588 7.1413 22.0604 7.16874 22.0625C7.27956 22.0701 7.39038 22.0771 7.50173 22.0835C7.73359 22.0975 7.96546 22.1093 8.19732 22.1206C9.06558 22.1621 9.93439 22.1906 10.8016 22.246C11.1593 21.2744 11.5553 20.3169 11.9889 19.377C12.1104 19.114 11.9792 18.8047 11.7064 18.7067C10.3093 18.207 8.98758 17.4985 7.79815 16.6114C7.58189 16.45 7.27633 16.4925 7.11279 16.7072C5.90238 18.292 4.69198 19.8773 3.48157 21.4622C3.65102 21.5127 3.8221 21.559 3.99371 21.602L3.99478 21.6015Z" fill="#14FD3B"/>
<g opacity="0.25">
<path d="M11.99 19.3771C11.5564 20.3174 11.1604 21.275 10.8027 22.246C10.4767 22.225 10.1507 22.2078 9.82469 22.1928C9.62457 21.8581 9.38786 21.5445 9.12857 21.2621C8.14141 20.1878 6.85731 19.4459 5.66949 18.5976C6.15097 17.9676 6.6319 17.3371 7.11391 16.7067C7.27745 16.4925 7.58301 16.45 7.79927 16.6114C8.9887 17.4985 10.311 18.207 11.7075 18.7068C11.9803 18.8047 12.1116 19.114 11.99 19.3771Z" fill="#000E3F"/>
</g>
<path d="M12.402 19.3244C12.1976 19.7682 12.0007 20.2152 11.8113 20.665C11.7274 20.864 11.5176 20.9748 11.311 20.9388C11.2879 20.935 11.2653 20.9291 11.2422 20.921C9.4099 20.297 7.66637 19.4099 6.08423 18.2953C6.04281 18.2657 6.00785 18.2307 5.97934 18.1925C5.8626 18.0333 5.85883 17.8089 5.98579 17.6432C6.31448 17.2129 6.64317 16.782 6.97241 16.3516C7.15477 16.1128 7.49476 16.0659 7.73577 16.2451C7.74222 16.2499 7.74922 16.2548 7.75568 16.2602C9.01827 17.1994 10.4148 17.9574 11.8894 18.5067C11.955 18.5309 12.0211 18.5551 12.0873 18.5788C12.3913 18.688 12.5371 19.0323 12.402 19.3249V19.3244Z" fill="#14FD3B"/>
<g opacity="0.25">
<path d="M12.402 19.3244C12.1976 19.7683 12.0007 20.2153 11.8113 20.665C11.7274 20.8641 11.5176 20.9749 11.311 20.9389C11.2879 20.9351 11.2653 20.9292 11.2422 20.9211C9.4099 20.2971 7.66637 19.41 6.08423 18.2953C6.04281 18.2657 6.00785 18.2308 5.97934 18.1926C5.8626 18.0333 5.85883 17.809 5.98579 17.6433C5.99225 17.6352 5.99816 17.6272 6.00462 17.6191C6.74808 18.2507 7.51305 18.8774 8.41037 19.255C9.35987 19.6553 10.4998 19.7392 11.3928 19.2255C11.6763 19.0619 11.9216 18.8467 12.1304 18.5971C12.4047 18.7219 12.5301 19.0469 12.4015 19.3255L12.402 19.3244Z" fill="#000E3F"/>
</g>
<g opacity="0.7">
<path d="M18.8801 2.6638C18.8828 2.65411 18.8796 2.64336 18.8699 2.63152C18.8602 2.62022 18.8441 2.60516 18.8199 2.59494C18.7725 2.57127 18.6902 2.55567 18.5896 2.57396C18.489 2.59117 18.3755 2.6412 18.2663 2.71921C18.2115 2.75794 18.1566 2.80367 18.1033 2.85531C18.0501 2.90642 18.0027 2.95645 17.9522 3.00594C17.9021 3.05543 17.851 3.10331 17.7994 3.14204C17.7736 3.16249 17.7477 3.17809 17.7224 3.19261C17.6972 3.20552 17.6724 3.21736 17.6487 3.22328C17.6245 3.22973 17.6025 3.23457 17.5788 3.23403C17.567 3.23403 17.5557 3.23565 17.5422 3.23296L17.5234 3.23134C17.5169 3.23134 17.5094 3.22865 17.503 3.22758C17.447 3.21736 17.3782 3.19154 17.298 3.15549C17.2173 3.11945 17.1259 3.07318 17.0145 3.02961C16.9048 2.98657 16.7654 2.94515 16.604 2.94892C16.5239 2.94892 16.4416 2.96559 16.3679 2.98873C16.2931 3.01186 16.2264 3.0436 16.1667 3.07749C16.0462 3.14473 15.9515 3.21843 15.8654 3.27761C15.8229 3.3072 15.7826 3.3341 15.746 3.35508C15.7277 3.36476 15.7105 3.37552 15.6927 3.38305L15.6664 3.39542L15.6389 3.40618C15.5663 3.43523 15.484 3.45083 15.399 3.45998C15.2274 3.47612 15.0423 3.45836 14.8594 3.42931C14.6744 3.40026 14.4866 3.36368 14.3 3.34539C14.1133 3.32656 13.9304 3.32549 13.7593 3.35561C13.5882 3.38681 13.4424 3.4476 13.3262 3.52077C13.2106 3.595 13.1251 3.68162 13.0718 3.76285C13.018 3.84408 12.9959 3.91724 12.9895 3.96727C12.9857 4.01892 12.9949 4.04743 13.0126 4.05442C13.0309 4.06195 13.0583 4.04797 13.0917 4.02107C13.1277 3.99525 13.1719 3.95651 13.2326 3.91778C13.2934 3.87905 13.3714 3.84031 13.4667 3.80965C13.5151 3.79566 13.5667 3.78221 13.6227 3.77361C13.6786 3.765 13.7383 3.76016 13.8002 3.76016C13.9245 3.76016 14.0681 3.78114 14.2252 3.81611C14.3833 3.85107 14.5576 3.90218 14.7572 3.94898C14.9584 3.99525 15.1854 4.03506 15.4399 4.02107C15.5668 4.013 15.7013 3.99202 15.8348 3.94306C15.9015 3.92047 15.9682 3.88765 16.029 3.8543C16.0897 3.82041 16.1425 3.78437 16.193 3.7494C16.2926 3.68 16.3754 3.61652 16.4469 3.5751C16.483 3.55358 16.5153 3.53852 16.5438 3.52884C16.5728 3.51861 16.5976 3.51216 16.6239 3.51162C16.6756 3.50732 16.7444 3.51808 16.8262 3.54551C16.908 3.57187 16.9989 3.61061 17.1 3.64719C17.2012 3.68323 17.3152 3.71927 17.4443 3.72949C17.5724 3.74025 17.7149 3.71874 17.8279 3.6644C17.8855 3.63858 17.9344 3.6063 17.9796 3.57349C18.0226 3.5396 18.0624 3.50517 18.0958 3.4702C18.1641 3.40026 18.2163 3.33141 18.2615 3.26739C18.3061 3.20391 18.3459 3.14258 18.3798 3.09255C18.4132 3.04306 18.4465 2.99787 18.4794 2.9586C18.5122 2.91879 18.5444 2.88436 18.5756 2.85585C18.6069 2.8268 18.6364 2.80259 18.6644 2.7843C18.7204 2.74557 18.7704 2.72513 18.8091 2.71006C18.8285 2.70092 18.8446 2.69661 18.857 2.68854C18.8694 2.68101 18.8774 2.67294 18.8796 2.66326L18.8801 2.6638Z" fill="white"/>
</g>
<g opacity="0.7">
<path d="M18.8522 4.86189C18.8097 4.85974 18.7779 4.94473 18.6806 5.02812C18.6574 5.04963 18.6273 5.06954 18.5961 5.08998C18.5622 5.10881 18.5262 5.12818 18.4837 5.14324C18.4417 5.1583 18.396 5.17175 18.347 5.17928C18.3223 5.18251 18.2975 5.18574 18.2722 5.18681C18.2599 5.18843 18.247 5.18681 18.2346 5.18681C18.2228 5.18681 18.2082 5.18628 18.1937 5.1852C18.0797 5.17874 17.9522 5.1497 17.8058 5.10343C17.7321 5.08084 17.6541 5.05394 17.5691 5.02596C17.5272 5.01198 17.4825 4.99799 17.4368 4.98454C17.3895 4.97109 17.341 4.95764 17.2899 4.94581C17.1883 4.92268 17.0796 4.90385 16.9607 4.89901C16.8429 4.89363 16.7132 4.90331 16.5804 4.94097C16.5142 4.96141 16.4469 4.98616 16.3835 5.0222C16.32 5.05717 16.2603 5.09859 16.2097 5.14163C16.1075 5.22824 16.0306 5.31754 15.9617 5.39231C15.8934 5.46709 15.8342 5.52627 15.7815 5.56123C15.7299 5.59728 15.6696 5.62095 15.6007 5.63762C15.462 5.66883 15.2936 5.65968 15.1295 5.63386C14.9633 5.60696 14.7879 5.565 14.6114 5.53972C14.435 5.51389 14.2558 5.50636 14.0896 5.5338C13.7448 5.59351 13.5253 5.79847 13.4451 5.97277C13.4043 6.05992 13.3967 6.13577 13.4021 6.18473C13.4096 6.23476 13.4258 6.25897 13.4451 6.26166C13.465 6.26435 13.4876 6.24552 13.514 6.21485C13.542 6.18473 13.5769 6.14384 13.6275 6.10296C13.6781 6.06261 13.7437 6.01958 13.8298 5.98891C13.8717 5.97223 13.9191 5.9604 13.9691 5.95125C14.0191 5.94211 14.0724 5.93727 14.1257 5.93942C14.2402 5.94265 14.3699 5.96632 14.5168 6.0072C14.6647 6.04701 14.8282 6.10511 15.0257 6.15353C15.1252 6.1772 15.2312 6.19656 15.3452 6.20571C15.4587 6.21539 15.5819 6.2127 15.711 6.19011C15.8396 6.1659 15.9768 6.11856 16.0984 6.03787C16.2205 5.95825 16.3098 5.86303 16.3862 5.78072C16.4211 5.74199 16.4561 5.70379 16.4905 5.66614C16.5223 5.63224 16.5524 5.60212 16.5809 5.57737C16.6374 5.52788 16.6831 5.50206 16.7444 5.48054C16.866 5.43912 17.0279 5.44127 17.1888 5.46602C17.2291 5.47193 17.2695 5.47946 17.3104 5.48753C17.3529 5.49668 17.3954 5.50529 17.4368 5.51443C17.5218 5.53272 17.6079 5.55209 17.695 5.56769C17.8688 5.59889 18.049 5.61449 18.2163 5.5919C18.2373 5.58921 18.2577 5.58652 18.2792 5.58168C18.3008 5.57737 18.3217 5.57361 18.3416 5.56769C18.382 5.55747 18.4202 5.54348 18.4562 5.52896C18.5283 5.49883 18.5913 5.46117 18.6461 5.42083C18.701 5.38048 18.7462 5.33422 18.7833 5.2901C18.8194 5.2433 18.8484 5.19757 18.8667 5.15238C18.9054 5.06255 18.9092 4.98562 18.9 4.93613C18.8893 4.8861 18.871 4.86296 18.8516 4.86243L18.8522 4.86189Z" fill="white"/>
</g>
<g opacity="0.7">
<path d="M19.0447 7.06599C19.0555 7.04931 19.0534 7.02564 19.0372 6.99444C19.0291 6.97884 19.0178 6.96109 19.0017 6.94226C18.9856 6.92505 18.9657 6.90568 18.9415 6.88524C18.9178 6.86479 18.8882 6.84758 18.8559 6.82714C18.8231 6.80777 18.7854 6.79163 18.7446 6.77334C18.6617 6.74268 18.5617 6.71578 18.4476 6.70771C18.3341 6.70018 18.2071 6.70771 18.0737 6.74214C17.9409 6.77603 17.801 6.83682 17.6703 6.93365C17.6541 6.94603 17.638 6.9584 17.6218 6.97077C17.6057 6.98314 17.5912 6.99821 17.5756 7.01273C17.5605 7.02726 17.5449 7.04178 17.5299 7.05631C17.5159 7.07083 17.5019 7.08643 17.4884 7.1015C17.4357 7.16175 17.3911 7.22146 17.3502 7.2758C17.3093 7.33013 17.2727 7.37854 17.2377 7.41728C17.2028 7.45655 17.171 7.48291 17.1414 7.50174C17.1119 7.51949 17.078 7.53294 17.0376 7.54208C16.9967 7.55123 16.9494 7.55446 16.8994 7.55392C16.8488 7.55338 16.7955 7.54746 16.7417 7.53832C16.6885 7.52971 16.632 7.5168 16.5734 7.50281C16.4566 7.47484 16.334 7.44202 16.2086 7.42212C16.0827 7.40221 15.9579 7.39522 15.8347 7.41351C15.5964 7.44902 15.4243 7.57382 15.3522 7.69056C15.3145 7.74812 15.3027 7.80192 15.3011 7.83796C15.3022 7.87562 15.3129 7.89714 15.3307 7.90574C15.3484 7.91381 15.3732 7.90951 15.4006 7.89768C15.4302 7.88745 15.4625 7.8697 15.5044 7.85518C15.5459 7.84011 15.5948 7.82613 15.6535 7.81913C15.7116 7.8116 15.7799 7.81053 15.8514 7.82021C15.9197 7.83043 16.0037 7.85302 16.0957 7.88638C16.1887 7.91919 16.2936 7.96438 16.4184 8.01011C16.4808 8.0327 16.5486 8.05584 16.6245 8.07574C16.6998 8.09511 16.7799 8.11017 16.8671 8.11716C16.9537 8.12362 17.0473 8.12254 17.1458 8.10479C17.2442 8.0865 17.348 8.05099 17.4427 7.99236C17.5368 7.93372 17.6122 7.86163 17.6692 7.79331C17.7267 7.72499 17.7714 7.65936 17.8101 7.60126C17.8483 7.5437 17.8817 7.49259 17.9129 7.45009L17.9355 7.41997L17.9581 7.39415C17.9656 7.38554 17.9721 7.37639 17.9807 7.36832L18.0054 7.34465C18.071 7.28171 18.148 7.23114 18.227 7.19403C18.3067 7.15637 18.3879 7.13108 18.4648 7.11387C18.5423 7.09719 18.6144 7.09235 18.6805 7.08805C18.7128 7.08859 18.7446 7.08697 18.7736 7.08805C18.8021 7.0902 18.8301 7.08912 18.8548 7.09127C18.8796 7.09343 18.9027 7.09396 18.9237 7.09396C18.9441 7.0945 18.9624 7.09558 18.9786 7.09396C19.0109 7.09128 19.034 7.08213 19.0447 7.06545V7.06599Z" fill="white"/>
</g>
<g opacity="0.7">
<path d="M11.7343 18.696C11.7424 18.6573 11.6805 18.604 11.5627 18.5416C11.5331 18.526 11.5003 18.5099 11.4643 18.4932C11.4282 18.476 11.3895 18.4566 11.3475 18.4378C11.2636 18.3991 11.1673 18.3609 11.0624 18.3135C11.0097 18.2904 10.9548 18.2673 10.8973 18.2436C10.8397 18.2199 10.7811 18.192 10.7192 18.1661C10.5955 18.115 10.4664 18.0543 10.3286 17.9945C10.0559 17.8697 9.75948 17.7283 9.45338 17.5696C9.14835 17.4087 8.86323 17.2462 8.60448 17.094C8.47698 17.0155 8.35325 16.9439 8.24082 16.8718C8.18433 16.8363 8.12785 16.8035 8.07567 16.7701C8.02348 16.7363 7.97291 16.7045 7.92396 16.6744C7.82551 16.6152 7.7389 16.5582 7.65875 16.5114C7.61894 16.4877 7.58128 16.4667 7.54632 16.4474C7.51189 16.4275 7.48014 16.4097 7.45056 16.3946C7.33221 16.3339 7.25312 16.3134 7.22569 16.3425C7.19879 16.3715 7.22569 16.4474 7.301 16.5614C7.31983 16.5899 7.34135 16.6206 7.36556 16.6539C7.39031 16.6868 7.41882 16.7201 7.45002 16.7567C7.51242 16.8288 7.58397 16.9106 7.67004 16.9934C7.71254 17.0354 7.75773 17.0789 7.80561 17.1236C7.85349 17.1682 7.90567 17.2118 7.95893 17.2575C8.0649 17.3506 8.18487 17.441 8.31129 17.5367C8.5679 17.7229 8.8627 17.9101 9.18655 18.0806C9.51148 18.249 9.83425 18.384 10.1328 18.4884C10.2834 18.5379 10.4265 18.5847 10.5632 18.618C10.6315 18.6352 10.6966 18.6535 10.7606 18.667C10.8246 18.6804 10.886 18.6928 10.9451 18.7036C11.0624 18.7272 11.1705 18.7391 11.2652 18.7493C11.3126 18.7541 11.3567 18.7579 11.3976 18.7601C11.4384 18.7611 11.4766 18.7611 11.5105 18.7601C11.6466 18.7563 11.7252 18.7353 11.7332 18.6966L11.7343 18.696Z" fill="white"/>
</g>
<path d="M10.5622 22.4386C10.5143 22.4085 10.46 22.415 10.4083 22.4123C9.84402 22.387 9.27917 22.3644 8.71485 22.338C8.03433 22.3063 7.35381 22.2729 6.67544 22.2116C5.8018 22.132 4.93461 22.0131 4.08141 21.8049C3.91733 21.7646 3.75487 21.7188 3.59187 21.6753C3.56658 21.6683 3.5413 21.6607 3.51655 21.6505C3.39497 21.601 3.36485 21.5042 3.44339 21.3988C3.60478 21.183 3.76939 20.97 3.93293 20.7564C4.53867 19.9635 5.14442 19.17 5.75016 18.377C5.76952 18.3517 5.78674 18.3249 5.80879 18.3023C5.85506 18.2544 5.85829 18.2038 5.83785 18.1425C5.77813 17.9644 5.81794 17.7982 5.90885 17.6416C5.9379 17.5916 5.97341 17.5448 6.00784 17.4985C6.27628 17.1387 6.55871 16.7895 6.818 16.4232C6.86965 16.3505 6.93151 16.2838 6.9966 16.222C7.17467 16.0525 7.38878 16.0046 7.6271 16.0471C7.6583 16.0525 7.68788 16.0649 7.71909 16.0697C7.74007 16.073 7.76158 16.067 7.7718 16.0444C7.79171 16.0014 7.81216 15.9584 7.82883 15.9137C7.94127 15.6162 8.01388 15.3085 8.05907 14.9943C8.13062 14.5016 8.14138 14.0056 8.14784 13.509C8.15376 13.0814 8.15053 12.6537 8.18604 12.2265C8.21778 11.8419 8.27265 11.461 8.38078 11.0893C8.53786 10.5481 8.81222 10.0709 9.1748 9.64219C9.43517 9.33448 9.72837 9.0612 10.0415 8.80889C10.4944 8.44362 10.9705 8.11224 11.4934 7.8524C11.7925 7.70393 12.1024 7.58665 12.4284 7.51295C12.4386 7.5108 12.4494 7.50918 12.4596 7.50649C12.5279 7.4882 12.5397 7.47529 12.5311 7.40859C12.5182 7.30906 12.5026 7.21008 12.4865 7.11109C12.3832 6.48114 12.2804 5.85066 12.1761 5.22071C12.0771 4.62196 11.9765 4.02321 11.8775 3.42446C11.807 2.99786 11.9205 2.6299 12.2363 2.32971C12.3687 2.20383 12.5268 2.11991 12.7 2.06504C12.8512 2.01716 13.0062 1.98434 13.1616 1.95476C13.6232 1.86707 14.0783 1.74926 14.534 1.63682C15.6045 1.37322 16.6745 1.1064 17.7456 0.842258C17.858 0.814284 17.972 0.790076 18.0866 0.772861C18.5654 0.700237 18.9624 0.843872 19.2615 1.23174C19.3772 1.38129 19.4348 1.55721 19.4681 1.74065C19.5111 1.9795 19.551 2.2189 19.5913 2.45829C19.7145 3.18668 19.8511 3.91293 19.9926 4.6381C20.2046 5.72585 20.4337 6.80984 20.6721 7.89221C20.7813 8.38713 20.8937 8.88098 21.0018 9.3759C21.0325 9.51523 21.0524 9.65618 21.0502 9.79982C21.0422 10.2409 20.8421 10.5648 20.458 10.7767C20.2853 10.872 20.0959 10.9241 19.9044 10.9623C19.0975 11.1248 18.29 11.284 17.4825 11.4444C17.001 11.5396 16.5196 11.6343 16.0381 11.7295C16.0176 11.7338 15.9967 11.7381 15.9762 11.7435C15.9418 11.7526 15.9213 11.773 15.924 11.8112C15.9262 11.843 15.9283 11.8747 15.9305 11.9059C15.9838 12.5994 15.959 13.2885 15.8207 13.9711C15.6938 14.5973 15.3839 15.1095 14.8594 15.4834C14.7217 15.5813 14.584 15.6792 14.4468 15.7776C13.4984 16.4587 12.7635 17.3242 12.2229 18.3571C12.2105 18.3803 12.1987 18.4045 12.189 18.4287C12.1852 18.4378 12.1868 18.4491 12.1863 18.4599C12.2164 18.4997 12.2654 18.5104 12.3068 18.5325C12.6694 18.7272 12.7248 19.1157 12.6237 19.3884C12.6091 19.4277 12.5908 19.4664 12.5742 19.5046C12.4122 19.8715 12.2503 20.2384 12.0873 20.6047C12.055 20.6768 12.0222 20.7489 11.984 20.8183C11.8926 20.984 11.7586 21.0996 11.5676 21.1287C11.4907 21.14 11.4611 21.1787 11.4364 21.2427C11.3083 21.5779 11.176 21.9114 11.0491 22.2471C11.0227 22.317 10.9899 22.3811 10.9441 22.4397H10.5638L10.5622 22.4386ZM14.3392 11.7392C14.3909 11.772 14.4387 11.7569 14.4845 11.7505C14.5522 11.7408 14.62 11.7284 14.6862 11.7112C15.2489 11.567 15.8208 11.4648 16.3899 11.3518C17.4303 11.1447 18.4723 10.9473 19.5128 10.7418C19.7247 10.6998 19.9367 10.6519 20.1432 10.589C20.4816 10.4852 20.6769 10.2469 20.7431 9.89934C20.7694 9.76054 20.7501 9.62605 20.7205 9.49156C20.6188 9.02784 20.5171 8.56358 20.4155 8.09986C20.1454 6.86794 19.8818 5.6344 19.6419 4.39655C19.4853 3.58854 19.3288 2.77999 19.2061 1.96552C19.1884 1.84555 19.1663 1.72612 19.1227 1.61154C18.9775 1.22851 18.5955 1.00096 18.191 1.06121C18.1178 1.07197 18.0457 1.08757 17.9737 1.10371C16.9445 1.33664 15.9224 1.60024 14.8981 1.85523C14.2736 2.0107 13.6512 2.17586 13.0169 2.29152C12.9082 2.31142 12.8001 2.3394 12.6984 2.38459C12.3896 2.5223 12.2057 2.7547 12.1632 3.09415C12.1481 3.21143 12.1675 3.32655 12.1852 3.4406C12.2788 4.02966 12.3767 4.61765 12.4736 5.20618C12.5871 5.89907 12.7006 6.59143 12.8152 7.28432C12.8453 7.46507 12.8361 7.44355 13.0013 7.43602C13.4559 7.41666 13.897 7.48067 14.3145 7.67003C14.8782 7.92556 15.2666 8.34195 15.4555 8.93531C15.562 9.26992 15.5814 9.60884 15.4856 9.94937C15.3672 10.3701 15.0875 10.6218 14.6636 10.716C14.612 10.7273 14.5598 10.7342 14.5076 10.7423C14.436 10.7536 14.4323 10.7574 14.4317 10.8338C14.4317 10.8919 14.4333 10.95 14.4339 11.0081C14.4339 11.1883 14.4145 11.3664 14.3763 11.5423C14.3618 11.6079 14.351 11.6746 14.3392 11.7386V11.7392ZM15.6604 12.5041C15.6518 12.3422 15.6405 12.1103 15.6276 11.8785C15.6255 11.836 15.605 11.8204 15.5663 11.8258C15.5405 11.829 15.5147 11.8365 15.4888 11.8408C15.0886 11.9097 14.6991 12.0361 14.2908 12.0603C14.2483 12.063 14.2235 12.084 14.2074 12.1211C14.1864 12.1695 14.1638 12.2174 14.1402 12.2642C14.0724 12.3971 13.9874 12.5176 13.876 12.6176C13.6754 12.7968 13.443 12.8748 13.1745 12.8307C13.1082 12.8199 13.0655 12.8456 13.0465 12.9076C13.0406 12.928 13.0368 12.9485 13.0304 12.9689C12.9588 13.1976 12.8577 13.4111 12.7081 13.6C12.6016 13.7339 12.4757 13.8447 12.3235 13.9243C12.1847 13.997 12.0373 14.0319 11.8807 14.0206C11.6069 14.0007 11.4063 13.8609 11.2583 13.6365C11.1755 13.5112 11.1341 13.3692 11.1023 13.2245C11.0706 13.0803 11.0404 12.9356 11.0066 12.7919C10.9807 12.6838 10.942 12.58 10.8855 12.4837C10.8129 12.3605 10.7112 12.2733 10.5697 12.2368C10.5444 12.2303 10.5175 12.2255 10.4939 12.2158C10.4358 12.191 10.4078 12.1351 10.4202 12.0738C10.4385 11.9829 10.5084 11.9291 10.6047 11.9398C10.7693 11.9586 10.9049 12.035 11.0152 12.1577C11.0937 12.2448 11.1496 12.3465 11.1938 12.4546C11.2519 12.5967 11.2895 12.7451 11.325 12.8942C11.3546 13.0173 11.3837 13.1405 11.4186 13.2621C11.4493 13.3692 11.4977 13.4692 11.5687 13.5564C11.6693 13.6796 11.7979 13.7382 11.9582 13.7258C12.0782 13.7167 12.182 13.6683 12.2767 13.5973C12.3918 13.5101 12.4832 13.4009 12.5586 13.2788C12.7468 12.9732 12.8292 12.6408 12.8205 12.283C12.8125 11.9517 12.7156 11.6499 12.5274 11.3776C12.2944 11.0409 11.9851 10.8047 11.5951 10.6767C11.5451 10.66 11.4934 10.6482 11.445 10.6272C11.3697 10.5949 11.3412 10.5191 11.3713 10.4432C11.4046 10.3593 11.473 10.3297 11.5795 10.3566C12.224 10.5196 12.8813 11.0597 13.0659 11.8564C13.1067 12.0318 13.1256 12.2099 13.125 12.3906C13.125 12.4858 13.1562 12.523 13.2477 12.5439C13.2999 12.5558 13.3526 12.5536 13.4048 12.5402C13.5366 12.5063 13.6474 12.4385 13.7345 12.3336C13.8163 12.2352 13.8755 12.1233 13.9228 12.0054C14.0336 11.7295 14.1084 11.4438 14.1359 11.1479C14.1724 10.7552 14.11 10.3792 13.9207 10.0295C13.8109 9.82671 13.6684 9.65026 13.4736 9.52438C13.0723 9.26562 12.657 9.23173 12.2309 9.46682C12.2035 9.48188 12.1772 9.50071 12.1481 9.51254C12.0884 9.53783 12.0335 9.52169 11.9932 9.47112C11.9394 9.40388 11.9421 9.31296 12.0066 9.25755C12.0502 9.22043 12.1008 9.18923 12.1524 9.16341C12.5376 8.96867 12.9346 8.95791 13.3338 9.11069C13.7544 9.27208 14.0444 9.57495 14.2332 9.97949C14.2935 10.1091 14.3387 10.2442 14.371 10.3835C14.3822 10.4325 14.4022 10.4464 14.449 10.4432C14.8223 10.4195 15.1176 10.2388 15.2161 9.81219C15.2667 9.5927 15.2597 9.37106 15.2053 9.15265C15.0681 8.59963 14.7362 8.2053 14.2268 7.95623C13.8056 7.75073 13.3585 7.69962 12.8991 7.74696C12.4483 7.79323 12.0217 7.92879 11.6166 8.13107C10.9404 8.46944 10.3443 8.92079 9.79184 9.43293C9.66381 9.55182 9.54438 9.67824 9.4298 9.81004C9.11079 10.1764 8.8644 10.5852 8.71001 11.0479C8.60941 11.3497 8.54432 11.659 8.50666 11.9742C8.45986 12.368 8.44049 12.7634 8.43941 13.1599C8.43834 13.6086 8.43404 14.0578 8.40768 14.5059C8.39369 14.7431 8.36732 14.9793 8.32859 15.2138C8.27426 15.5431 8.18603 15.8632 8.05531 16.1709C8.02357 16.2456 8.02411 16.2483 8.08059 16.2898C8.25543 16.4178 8.42704 16.5501 8.60672 16.6706C9.56644 17.3135 10.5837 17.8471 11.6569 18.2737C11.7285 18.3023 11.8027 18.3695 11.8764 18.3361C11.941 18.3071 11.9539 18.2151 11.9883 18.1506C12.4924 17.2124 13.1487 16.4016 13.9965 15.7518C14.202 15.5942 14.4118 15.443 14.6179 15.287C14.7228 15.2074 14.8277 15.1267 14.9267 15.0395C15.1531 14.84 15.3167 14.5963 15.4135 14.3101C15.449 14.2052 15.4813 14.0992 15.5066 13.9911C15.6158 13.5263 15.647 13.0523 15.661 12.5057L15.6604 12.5041ZM3.81996 21.4068C3.86622 21.4434 3.90873 21.4488 3.94961 21.4601C4.6963 21.6586 5.45643 21.7807 6.22356 21.8646C6.83253 21.9313 7.44311 21.9776 8.05531 22.0034C8.29255 22.0136 8.52979 22.026 8.76757 22.0368C9.37923 22.0658 9.99142 22.0943 10.6031 22.1228C10.6348 22.1245 10.6666 22.1245 10.6983 22.1266C10.7462 22.1298 10.7752 22.1137 10.7935 22.0647C10.9103 21.7592 11.0302 21.4547 11.148 21.1491C11.1669 21.1007 11.1604 21.0905 11.1061 21.0684C10.9544 21.0077 10.8032 20.9452 10.6499 20.8877C9.06452 20.2943 7.58244 19.5024 6.18267 18.5546C6.0498 18.4647 6.07778 18.4443 5.96696 18.589C5.27783 19.4911 4.5887 20.3938 3.89958 21.296C3.87429 21.3294 3.85116 21.3638 3.82104 21.4063L3.81996 21.4068ZM11.4364 20.8301C11.565 20.8425 11.6634 20.7839 11.7296 20.6671C11.7479 20.6348 11.7624 20.601 11.7769 20.5671C11.9512 20.1711 12.1255 19.7752 12.2987 19.3787C12.3176 19.3351 12.3353 19.291 12.3482 19.2453C12.3907 19.0931 12.3466 18.9645 12.2352 18.8564C12.1771 18.7999 12.1061 18.7654 12.0319 18.7369C11.9136 18.6917 11.7947 18.6482 11.6768 18.6019C10.2862 18.0618 8.98759 17.3549 7.79117 16.463C7.75298 16.4345 7.71371 16.407 7.67228 16.385C7.51143 16.2984 7.37264 16.3123 7.23277 16.4291C7.16337 16.4866 7.10581 16.5555 7.05094 16.6271C6.78519 16.9751 6.5189 17.3237 6.25315 17.6718C6.22141 17.7137 6.18859 17.7557 6.16223 17.8014C6.08369 17.9364 6.09714 18.0623 6.20043 18.1807C6.26014 18.249 6.33331 18.3006 6.4097 18.3485C6.5033 18.4077 6.59852 18.4647 6.69105 18.5255C7.48023 19.0479 8.3017 19.5127 9.15383 19.9242C9.82466 20.2481 10.5186 20.5165 11.2131 20.7828C11.282 20.8091 11.3535 20.8301 11.4364 20.8296V20.8301Z" fill="#000E3F"/>
<path d="M6.60674 27.0317C6.32808 27.2597 5.95474 27.0053 5.6524 26.81C4.96005 26.3635 4.42048 25.6905 3.77654 25.18C3.64528 25.0762 3.54791 24.9358 3.49788 24.776C3.3338 24.2477 3.09603 22.5709 3.20792 22.2933C3.41181 21.7882 3.93417 21.3772 4.36453 21.7112C4.91164 22.1362 5.51684 23.0873 5.87673 23.6683C6.27213 24.3064 6.58953 25.0729 6.88057 25.8008C7.01452 26.1365 6.60943 27.029 6.6062 27.0317H6.60674Z" fill="#FD8A02"/>
<path d="M6.60029 27.1061C7.90914 26.4083 7.99307 26.4739 9.29062 25.7805C9.49075 25.6735 9.73767 25.7585 9.83235 25.9645C10.4774 27.3707 12.0654 28.2939 13.6233 28.204C15.3228 28.1061 16.8699 26.8903 17.494 25.3066C18.118 23.7228 17.8522 21.8518 16.927 20.4235C16.0017 18.9952 13.1682 17.5713 11.5377 18.0587C7.96994 19.1238 6.65839 19.5666 3.58934 21.7297C3.39137 21.8696 3.36662 22.1547 3.53769 22.3263C4.31612 23.1101 4.55605 23.4113 5.54105 24.2161C5.58947 24.2559 5.62874 24.306 5.65295 24.3635C5.88696 24.9176 6.0435 25.9624 6.0236 26.7532C6.01607 27.0523 6.33615 27.2465 6.60029 27.1061Z" fill="#FFCF00"/>
<path d="M13.6233 28.2039C12.0648 28.2938 10.4767 27.3706 9.83226 25.9644C9.73758 25.7584 9.49066 25.6734 9.29054 25.7804C7.99298 26.4733 7.90906 26.4082 6.6002 27.106C6.33606 27.2464 6.01598 27.0522 6.02351 26.7531C6.04342 25.9623 5.88741 24.9181 5.65286 24.3634C5.65286 24.3634 5.65286 24.3624 5.65232 24.3618C5.6152 24.2758 5.63887 24.1757 5.71688 24.1235C7.7778 22.7394 8.64552 22.3068 10.8926 21.2519C12.0535 20.7064 13.2768 20.198 14.5598 20.19C15.6433 20.183 16.7848 20.6128 17.4401 21.4472C17.4524 21.4628 17.4621 21.4805 17.4691 21.4988C17.9285 22.7184 17.971 24.0966 17.495 25.3065C16.8709 26.8902 15.3232 28.1055 13.6238 28.2039H13.6233Z" fill="#FD8A02"/>
<g opacity="0.25">
<path d="M13.6233 28.204C12.0648 28.2938 10.4773 27.3707 9.83226 25.9644C9.73758 25.7589 9.49066 25.6734 9.29054 25.7805C7.99298 26.4739 7.90852 26.4083 6.6002 27.106C6.33606 27.2464 6.01598 27.0522 6.02351 26.7531C6.04342 25.9628 5.88741 24.9181 5.65286 24.3635C5.65286 24.3635 5.65286 24.3624 5.65232 24.3619C5.6152 24.2763 5.63887 24.1763 5.71688 24.1241C5.7696 24.0886 5.82231 24.0536 5.87396 24.0192C6.08484 24.7503 6.70349 25.3996 7.45717 25.4001C8.44003 25.4007 9.39652 24.3613 10.2616 24.8277C10.7264 25.0784 10.8861 25.6508 11.154 26.1054C11.8238 27.2416 13.3623 27.6988 14.6185 27.2975C15.8746 26.8956 16.8171 25.767 17.205 24.5066C17.5267 23.4619 17.5046 22.3402 17.2814 21.2648C17.3368 21.3235 17.3895 21.3843 17.439 21.4483C17.4514 21.4639 17.4611 21.4816 17.4681 21.4999C17.9275 22.72 17.97 24.0977 17.4939 25.3076C16.8698 26.8913 15.3216 28.1066 13.6227 28.205L13.6233 28.204Z" fill="#000E3F"/>
</g>
<path d="M12.5806 22.6463C11.8528 23.2881 11.5246 24.3941 11.8033 25.2705C12.0814 26.1468 12.9454 26.7289 13.8524 26.6514C14.7594 26.574 15.6432 25.8423 15.9488 24.916C16.6632 22.7512 14.2817 21.146 12.5801 22.6458L12.5806 22.6463Z" fill="#FFCF00"/>
<g opacity="0.25">
<path d="M13.8125 26.6545C12.9201 26.712 12.0776 26.1337 11.8033 25.2703C11.5251 24.394 11.8527 23.2874 12.5806 22.6462C13.3832 21.9382 14.3376 21.9221 15.0466 22.3293C14.592 22.3535 14.1197 22.5343 13.691 22.9124C12.9626 23.5542 12.6349 24.6603 12.9136 25.5366C13.0664 26.0181 13.3961 26.4113 13.8131 26.6545H13.8125Z" fill="#000E3F"/>
</g>
<path d="M10.4261 19.083L11.2885 19.678C11.6177 19.9055 11.579 20.4037 11.2185 20.5774L8.73317 21.7733C8.54704 21.8632 8.3254 21.8341 8.16832 21.7002L7.29897 20.9583C7.00363 20.706 7.07734 20.2315 7.43508 20.0809L9.92745 19.0319C10.0915 18.963 10.2793 18.9824 10.4261 19.0835V19.083Z" fill="#FD8A02"/>
<g opacity="0.7">
<path d="M17.4217 21.545C17.433 21.5289 17.4094 21.4891 17.3518 21.4272C17.2953 21.3643 17.2012 21.2847 17.0732 21.1894C16.816 21.0044 16.4093 20.7704 15.8568 20.6025C15.5809 20.5197 15.2699 20.4541 14.9299 20.4218C14.5905 20.39 14.2214 20.396 13.8395 20.4476C13.4581 20.4998 13.068 20.6009 12.6796 20.7333C12.2912 20.8672 11.9034 21.0318 11.5171 21.2099C11.1309 21.3885 10.7618 21.5655 10.4025 21.7376C10.0442 21.9098 9.69934 22.0776 9.37173 22.2395C8.71649 22.5629 8.12958 22.8614 7.64004 23.1196C6.66149 23.6361 6.07297 23.9911 6.10686 24.0632C6.14075 24.1353 6.79006 23.9099 7.81272 23.4876C8.32432 23.2767 8.92899 23.0164 9.5966 22.7189C9.93067 22.5704 10.2803 22.4128 10.6418 22.2471C11.0023 22.0808 11.3751 21.9082 11.757 21.7317C12.1363 21.5563 12.5059 21.396 12.8668 21.2637C13.2278 21.1324 13.5813 21.0307 13.9218 20.97C14.2618 20.9097 14.5905 20.8877 14.8998 20.8968C15.2086 20.9059 15.4964 20.9436 15.7568 20.9958C16.277 21.1018 16.6826 21.2648 16.9618 21.3831C17.1006 21.4444 17.2103 21.4912 17.2867 21.5224C17.3636 21.552 17.4104 21.5601 17.4217 21.544V21.545Z" fill="white"/>
</g>
<g opacity="0.7">
<path d="M14.6324 26.4615C14.663 26.4867 14.7346 26.4604 14.8368 26.3883C14.939 26.3162 15.0724 26.1979 15.2214 26.0338C15.3694 25.8692 15.534 25.6572 15.6814 25.3925C15.8288 25.1284 15.9541 24.8067 16.009 24.4479C16.0623 24.0885 16.0343 23.7276 15.9245 23.4198C15.8159 23.1121 15.6394 22.8722 15.4597 22.7113C15.2779 22.55 15.0972 22.466 14.967 22.4365C14.9342 22.4295 14.9046 22.4246 14.8787 22.4225C14.8529 22.4203 14.8298 22.4219 14.8115 22.4241C14.7738 22.4289 14.7523 22.4413 14.7453 22.4596C14.7168 22.5397 14.9471 22.6699 15.1574 22.983C15.2618 23.1385 15.3618 23.3397 15.4172 23.5732C15.4732 23.8056 15.4823 24.0783 15.4404 24.3629C15.3548 24.9369 15.0853 25.4318 14.8906 25.7987C14.7916 25.9821 14.7104 26.1344 14.663 26.2484C14.6157 26.3619 14.6022 26.4367 14.6329 26.462L14.6324 26.4615Z" fill="white"/>
</g>
<g opacity="0.7">
<path d="M10.1303 18.8946C10.1669 18.9672 10.36 18.9462 10.6451 18.8881C10.7161 18.8731 10.7936 18.8569 10.8764 18.8392C10.9587 18.8214 11.0464 18.8021 11.1384 18.7822C11.3229 18.744 11.5241 18.702 11.7366 18.6627C11.9491 18.6251 12.1525 18.5939 12.3386 18.5654C12.4322 18.5519 12.521 18.539 12.6044 18.5272C12.6883 18.5143 12.7668 18.5024 12.8384 18.4917C13.1256 18.4459 13.3139 18.3986 13.3231 18.3174C13.3317 18.2404 13.1542 18.1441 12.847 18.085C12.8088 18.078 12.7684 18.071 12.7259 18.0645C12.684 18.0581 12.6399 18.0543 12.5941 18.05C12.5027 18.0403 12.4053 18.0376 12.302 18.036C12.096 18.0365 11.8695 18.0548 11.635 18.0963C11.4009 18.1393 11.182 18.2017 10.9889 18.2733C10.8926 18.3109 10.8022 18.347 10.7199 18.3884C10.6785 18.4088 10.6387 18.4276 10.6015 18.4481C10.5644 18.4691 10.5289 18.4895 10.4956 18.5094C10.2282 18.6724 10.0959 18.8247 10.1308 18.8935L10.1303 18.8946Z" fill="white"/>
</g>
<g opacity="0.7">
<path d="M3.59297 22.0528C3.6387 22.1184 3.88024 22.0361 4.23852 21.8629C4.41766 21.7762 4.62693 21.6681 4.85556 21.5438C5.08527 21.4201 5.33488 21.2813 5.59525 21.1328C5.85616 20.9854 6.10416 20.8423 6.32795 20.7089C6.55228 20.5761 6.7524 20.4523 6.91863 20.3431C7.25109 20.1247 7.44583 19.9601 7.41301 19.8869C7.38073 19.8154 7.1252 19.8493 6.7411 19.9773C6.54905 20.0408 6.3258 20.1296 6.08264 20.2388C5.84002 20.349 5.57857 20.4808 5.31121 20.632C5.04384 20.7837 4.79638 20.9403 4.57743 21.092C4.35848 21.2442 4.16805 21.3905 4.01473 21.5223C3.70755 21.7865 3.54724 21.9877 3.59243 22.0522L3.59297 22.0528Z" fill="white"/>
</g>
<path d="M17.1098 26.4621C17.0839 26.4879 17.0533 26.5105 17.0339 26.5406C16.8419 26.8354 16.5949 27.0813 16.3303 27.3083C15.6401 27.8995 14.8509 28.2793 13.945 28.3993C13.2494 28.4918 12.5769 28.3933 11.9276 28.1314C11.2896 27.8742 10.7419 27.4901 10.2922 26.9678C10.0953 26.7386 9.9264 26.4906 9.7903 26.2205C9.76663 26.1732 9.74296 26.1258 9.71391 26.0817C9.64612 25.9795 9.55898 25.9462 9.44116 25.9774C9.40566 25.9865 9.37015 26 9.33841 26.0177C8.56698 26.4352 7.75574 26.7709 6.97623 27.1711C6.89661 27.212 6.817 27.2539 6.73684 27.2948C6.5733 27.3788 6.40654 27.3879 6.23116 27.3298C5.95734 27.2389 5.71365 27.0931 5.48125 26.9263C5.09392 26.6487 4.75124 26.3195 4.40909 25.9903C4.1923 25.7816 3.97496 25.5744 3.7388 25.3867C3.56504 25.2484 3.44561 25.0709 3.3746 24.86C3.33748 24.7497 3.30682 24.6373 3.28799 24.5227C3.21375 24.0692 3.13521 23.6168 3.09379 23.159C3.07872 22.9912 3.07711 22.8217 3.06474 22.6533C3.04537 22.3908 3.14113 22.1675 3.29391 21.9631C3.33156 21.9126 3.37137 21.8631 3.40795 21.812C3.45798 21.742 3.52146 21.6861 3.59086 21.6382C4.45482 21.04 5.32578 20.4541 6.2543 19.9587C7.2124 19.4476 8.21085 19.035 9.24105 18.695C9.97805 18.4519 10.7215 18.2281 11.465 18.0048C11.8916 17.8768 12.3268 17.8569 12.7668 17.9053C13.2472 17.9586 13.7099 18.0828 14.1585 18.2593C14.3549 18.3367 14.5485 18.4201 14.7379 18.5148C14.775 18.5331 14.8111 18.5578 14.8568 18.5519C15.0677 18.673 15.278 18.794 15.4889 18.915C15.5045 18.9592 15.5459 18.9758 15.5804 18.9984C15.7659 19.12 15.9456 19.2502 16.1199 19.3874C16.4196 19.6235 16.6939 19.8855 16.9279 20.1873C17.2147 20.5574 17.432 20.9663 17.6052 21.4004C17.6816 21.5914 17.7666 21.7791 17.8086 21.9825C17.836 22.117 17.871 22.2499 17.899 22.3843C18.0313 23.0207 18.0625 23.6615 17.9651 24.3054C17.9016 24.7239 17.8102 25.1355 17.6219 25.519C17.6085 25.5465 17.6068 25.5798 17.5999 25.6105C17.4369 25.8945 17.2733 26.1786 17.1103 26.4621H17.1098ZM17.1055 25.9123C17.2986 25.5809 17.4406 25.2291 17.5412 24.8611C17.8156 23.8535 17.7596 22.8551 17.453 21.8641C17.3954 21.6791 17.2964 21.5193 17.1571 21.3843C16.9742 21.2073 16.7768 21.0491 16.5567 20.9216C16.0064 20.6021 15.4098 20.445 14.7766 20.4213C14.1741 20.3987 13.5878 20.4977 13.0105 20.6613C12.5473 20.7925 12.0992 20.9657 11.657 21.1535C10.6118 21.5978 9.59879 22.11 8.59388 22.6372C7.74229 23.0837 6.93212 23.6001 6.12411 24.1193C6.03965 24.1736 5.95949 24.2338 5.87987 24.2946C5.82608 24.3361 5.82339 24.3527 5.84491 24.4173C5.88311 24.5324 5.92776 24.6459 5.9595 24.7627C6.13595 25.4028 6.21502 26.0559 6.21233 26.7198C6.21233 26.7779 6.2091 26.836 6.22309 26.893C6.24084 26.9645 6.28388 27.0135 6.34952 27.0458C6.42214 27.0807 6.49476 27.0748 6.56416 27.0431C6.68897 26.986 6.81377 26.9279 6.93374 26.8623C7.15592 26.7407 7.38078 26.624 7.61157 26.5191C8.1307 26.284 8.64767 26.0435 9.1512 25.7756C9.2163 25.7412 9.28516 25.7116 9.35509 25.6896C9.59126 25.6137 9.79245 25.6799 9.94415 25.8773C10.0023 25.9532 10.0458 26.0382 10.0867 26.1237C10.1642 26.2862 10.2599 26.4379 10.3686 26.581C10.8302 27.191 11.4219 27.6246 12.139 27.8882C12.9444 28.1835 13.7588 28.2147 14.5776 27.9528C15.6826 27.5993 16.5105 26.8989 17.1055 25.9123ZM16.9521 20.7984C16.9543 20.7931 16.9591 20.7871 16.9575 20.7845C16.9468 20.7608 16.936 20.7366 16.9226 20.714C16.8021 20.5149 16.6633 20.3288 16.5067 20.1567C16.149 19.7629 15.7299 19.4439 15.2796 19.1647C15.0376 19.0146 14.7863 18.8795 14.5281 18.758C14.0676 18.5406 13.591 18.376 13.0934 18.2684C12.514 18.1431 11.9432 18.1528 11.3746 18.3384C10.672 18.5675 9.96406 18.7811 9.26095 19.0081C7.95909 19.4283 6.7234 19.9937 5.55441 20.7048C4.9406 21.0782 4.34884 21.4833 3.75655 21.8883C3.73503 21.9034 3.71405 21.9201 3.69522 21.9384C3.60269 22.0277 3.58763 22.1272 3.65541 22.238C3.68554 22.287 3.72373 22.3316 3.76354 22.3736C3.89104 22.507 4.02069 22.6383 4.1498 22.7706C4.56295 23.1934 4.98579 23.6055 5.44252 23.9821C5.48717 24.0192 5.53289 24.0552 5.57969 24.0891C5.59637 24.1015 5.61896 24.1053 5.63833 24.0891C5.80617 23.9509 5.9993 23.8514 6.17952 23.7319C6.74707 23.3554 7.32376 22.9938 7.91874 22.6619C9.05867 22.0266 10.2373 21.4698 11.423 20.9265C11.8647 20.7242 12.3187 20.551 12.784 20.4095C13.2811 20.2583 13.7863 20.1523 14.3059 20.126C15.2318 20.0786 16.1022 20.2519 16.8849 20.7737C16.9043 20.7866 16.9226 20.8108 16.9521 20.7979V20.7984ZM3.41118 22.4311C3.36115 22.5403 3.36438 22.6361 3.36761 22.7292C3.37352 22.8766 3.38536 23.024 3.39934 23.1708C3.44561 23.6491 3.52361 24.1225 3.62206 24.5932C3.67639 24.8541 3.80766 25.0601 4.01477 25.2232C4.08525 25.2786 4.15303 25.3377 4.21812 25.3991C4.48011 25.6438 4.73994 25.8908 5.00139 26.1361C5.2553 26.3749 5.52106 26.5992 5.8164 26.7859C5.84114 26.8015 5.86535 26.8279 5.89978 26.8064C5.90301 26.7961 5.90839 26.7865 5.90839 26.7768C5.90946 26.7348 5.91 26.6923 5.91 26.6504C5.90677 26.1845 5.8589 25.7235 5.76906 25.2667C5.72656 25.0494 5.66792 24.8358 5.59906 24.6244C5.54903 24.47 5.45596 24.357 5.3317 24.2629C5.24777 24.1989 5.16116 24.1381 5.081 24.0698C4.78459 23.8164 4.49625 23.5533 4.22296 23.2747C3.95398 23.0008 3.6807 22.7313 3.41065 22.4317L3.41118 22.4311Z" fill="#000E3F"/>
<path d="M11.9497 23.3204C12.3327 22.6641 12.8486 22.2429 13.5426 22.0616C14.1811 21.8948 14.7853 21.9943 15.3227 22.3774C15.9182 22.8013 16.2302 23.3941 16.2636 24.1252C16.2856 24.612 16.1614 25.0655 15.9225 25.4894C15.6062 26.0522 15.157 26.4669 14.5572 26.7106C14.1198 26.8887 13.6674 26.936 13.2074 26.8134C12.4086 26.6003 11.7415 25.9505 11.6124 25.016C11.5537 24.5948 11.6065 24.1849 11.7426 23.7836C11.8023 23.6077 11.8867 23.4436 11.9497 23.3204ZM12.209 23.4753C12.1659 23.5437 12.1116 23.6695 12.0621 23.7976C11.9255 24.1526 11.8658 24.519 11.9023 24.8993C11.9879 25.7891 12.6679 26.4395 13.4619 26.5589C13.8734 26.6208 14.2608 26.5379 14.626 26.348C15.1979 26.0505 15.5976 25.5949 15.8241 24.9929C15.9763 24.5889 16.014 24.172 15.9117 23.7486C15.6589 22.7044 14.5964 22.0191 13.4872 22.3876C12.9363 22.5705 12.5307 22.9309 12.2095 23.4759L12.209 23.4753Z" fill="#000E3F"/>
<path d="M10.635 19.0838C10.8572 19.2355 11.0799 19.3861 11.301 19.5394C11.3613 19.5814 11.4183 19.6287 11.4743 19.6771C11.7874 19.9477 11.7825 20.4841 11.4059 20.7294C11.3489 20.7665 11.2881 20.7999 11.2263 20.8294C10.457 21.2012 9.68663 21.5718 8.91681 21.9425C8.8883 21.9565 8.85925 21.9688 8.8302 21.9818C8.58597 22.0856 8.35356 22.0598 8.14107 21.9054C8.00497 21.8064 7.87694 21.6956 7.74836 21.5864C7.58751 21.4502 7.42828 21.3115 7.27066 21.1716C7.22385 21.1296 7.17866 21.0839 7.14208 21.0333C6.89839 20.6998 7.0006 20.2366 7.36372 20.0408C7.47024 19.9832 7.58374 19.9386 7.69564 19.8918C8.31321 19.6325 8.93133 19.3737 9.54945 19.115C9.62745 19.0822 9.70384 19.0466 9.78292 19.0171C9.862 18.988 9.94216 18.96 10.0239 18.9407C10.2009 18.8992 10.3698 18.9213 10.5258 19.0192C10.5614 19.0418 10.5974 19.0644 10.6329 19.087C10.6334 19.0859 10.6345 19.0848 10.635 19.0838ZM10.5474 19.3936C10.5474 19.3936 10.5458 19.3958 10.5452 19.3963C10.5108 19.3716 10.4753 19.3484 10.4425 19.3221C10.3268 19.2296 10.1955 19.2091 10.0541 19.2365C9.94969 19.257 9.85178 19.2963 9.75549 19.3404C9.6452 19.3909 9.536 19.4447 9.4241 19.4915C8.88883 19.7169 8.35302 19.9402 7.81722 20.1651C7.73437 20.1995 7.65207 20.235 7.57083 20.2727C7.53264 20.2904 7.49552 20.3114 7.46217 20.3367C7.30562 20.4577 7.22654 20.696 7.40999 20.8908C7.44226 20.9252 7.47777 20.9569 7.51381 20.9876C7.75052 21.1893 7.99206 21.3862 8.22446 21.5933C8.39983 21.7499 8.57574 21.7795 8.78824 21.6692C9.07873 21.5186 9.3773 21.3835 9.67211 21.2421C10.1385 21.0177 10.6044 20.7929 11.0703 20.5691C11.1418 20.5346 11.2123 20.4981 11.2698 20.4421C11.4102 20.3055 11.4264 20.1102 11.3107 19.9536C11.2758 19.9068 11.2333 19.8681 11.1848 19.8348C10.9718 19.6879 10.7599 19.54 10.5474 19.392V19.3936Z" fill="#000E3F"/>
</svg>
