<svg width="30" height="30" viewBox="0 0 30 30" fill="none" xmlns="http://www.w3.org/2000/svg">
<g clip-path="url(#clip0_4016_4285)">
<path opacity="0.25" d="M0.826564 22.711C1.43209 21.9924 1.34101 20.4536 1.86557 19.5647C2.37495 18.7011 2.93494 18.1934 4.01667 18.2631C4.83472 18.3154 4.76276 18.6702 5.1462 18.2013C5.30475 18.0079 5.28901 14.7936 5.08042 14.4248C4.31634 13.0754 1.88806 13.5769 1.40285 11.7379C0.971058 10.1018 2.16243 6.99036 2.90008 5.51956C3.78728 3.75021 5.34298 2.52004 7.26413 2.0399C8.24916 1.79364 8.89011 2.01685 9.84759 2.17315C11.1705 2.38904 11.9695 2.20126 13.2502 1.94545C15.0769 1.58056 17.8842 2.11973 19.2076 3.53712C19.9953 4.38104 20.5272 5.68767 20.9871 6.74467C21.3509 7.58127 21.5077 9.2882 22.0216 9.93815C22.8717 11.0143 25.0082 9.70651 26.2727 10.4751C26.673 10.7185 26.7955 11.3718 27.111 11.5298C28.0291 11.9897 28.9607 11.3527 29.6736 12.4378C30.6345 13.9008 29.2519 16.3774 28.3895 17.535C27.2375 19.0812 25.4619 19.3792 24.2543 20.6408C23.8702 21.0422 23.1135 22.3371 23.4081 22.9049C23.6127 23.2991 25.652 23.2783 26.1861 23.61C27.7103 24.5562 28.0021 27.6524 26.2817 28.4463C24.7085 29.1721 22.1869 29.108 20.4811 29.0232C19.5433 28.9765 18.5223 28.9146 17.598 28.7398C17.1718 28.6588 16.6619 28.3597 16.2509 28.3237C15.7111 28.2771 15.2923 28.4789 14.7227 28.444C13.2041 28.3513 12.3568 25.7408 10.6403 27.2066C10.0629 27.6997 10.1051 28.317 9.16223 28.3822C8.84513 28.4041 8.03495 27.9229 7.87303 27.9397C7.58966 27.9695 7.31024 28.3159 6.96727 28.3934C6.11099 28.588 5.6539 27.8368 5.03038 27.8936C4.18141 27.9706 4.10157 28.9276 2.94168 28.3558C1.44896 27.6198 0.825439 24.1863 0.825439 22.7121L0.826564 22.711ZM18.651 20.8145C18.5701 21.3627 18.4874 21.3965 19.1014 21.5623C19.0193 21.2716 18.8692 21.0226 18.651 20.8145Z" fill="#000E3F"/>
<path d="M0.00112447 22.0762C0.60665 21.3577 0.515568 19.8188 1.04013 18.9299C1.54951 18.0663 2.1095 17.5587 3.19124 17.6284C4.00928 17.6807 3.93732 18.0354 4.32076 17.5665C4.47931 17.3731 4.46357 14.1588 4.25498 13.79C3.49091 12.4406 1.06262 12.9422 0.577413 11.1031C0.145618 9.467 1.33699 6.35559 2.07464 4.88479C2.96184 3.11545 4.51754 1.88528 6.43869 1.40513C7.42373 1.15887 8.06467 1.38209 9.02215 1.53839C10.3451 1.75428 11.144 1.5665 12.4248 1.31068C14.2515 0.945791 17.0587 1.48497 18.3822 2.90236C19.1699 3.74627 19.7018 5.0529 20.1617 6.1099C20.5254 6.9465 20.6823 8.65345 21.1962 9.30339C22.0463 10.3795 24.1828 9.07174 25.4472 9.84031C25.8475 10.0838 25.9701 10.7371 26.2855 10.8951C27.2036 11.355 28.1353 10.718 28.8482 11.8031C29.809 13.266 28.4265 15.7426 27.564 16.9003C26.412 18.4464 24.6365 18.7444 23.4288 20.0061C23.0448 20.4075 22.288 21.7023 22.5827 22.2702C22.7873 22.6643 24.8265 22.6435 25.3606 22.9752C26.8849 23.9214 27.1767 27.0177 25.4562 27.8115C23.8831 28.5374 21.3615 28.4733 19.6557 28.3884C18.7179 28.3417 17.6968 28.2799 16.7725 28.105C16.3464 28.0241 15.8364 27.725 15.4254 27.689C14.8857 27.6423 14.4668 27.8441 13.8973 27.8093C12.3787 27.7165 11.5314 25.1061 9.8149 26.5718C9.23749 27.0649 9.27966 27.6822 8.33679 27.7474C8.01969 27.7694 7.20951 27.2881 7.04759 27.305C6.76423 27.3348 6.4848 27.6811 6.14183 27.7587C5.28555 27.9532 4.82846 27.2021 4.20494 27.2589C3.35597 27.3359 3.27613 28.2928 2.11625 27.721C0.623516 26.9851 0 23.5515 0 22.0773L0.00112447 22.0762ZM17.8256 20.1798C17.7446 20.728 17.662 20.7617 18.2759 20.9276C18.1939 20.6369 18.0437 20.3878 17.8256 20.1798Z" fill="white"/>
<path d="M13.2737 2.02433C14.4757 2.22055 15.7689 2.54664 16.8911 3.01498C17.0631 3.08695 17.2099 3.20727 17.3161 3.36019C18.6514 5.28697 19.6972 7.59043 20.0773 9.90908C20.1447 10.3206 19.9446 10.7305 19.5769 10.9267C18.7819 11.3523 17.9065 11.6464 17.0165 11.8162C16.5414 11.9067 16.2024 12.3278 16.2215 12.8113C16.3148 15.1508 16.4846 17.7224 16.5774 20.0602C16.597 20.5482 16.2513 20.9772 15.7694 21.0576C12.4882 21.6052 9.14971 21.4703 5.90225 20.7343C5.46314 20.6348 5.14886 20.2474 5.14267 19.7971C5.11287 17.6949 5.04653 15.5044 5.01786 13.4039C5.01223 12.9969 4.75417 12.6387 4.37129 12.5004C3.51051 12.1889 2.64636 11.7735 1.81931 11.3625C1.39258 11.1505 1.18399 10.6614 1.32117 10.2048C1.62815 9.18268 1.81144 8.12231 2.0875 7.08949C2.43439 5.79186 2.95952 4.48747 3.94399 3.57328C4.86886 2.71475 6.11646 2.28408 7.37249 2.11541C7.55409 2.09123 7.7385 2.11991 7.90436 2.1975C9.33581 2.86318 11.2609 2.67033 12.7514 2.08168C12.9172 2.01646 13.0966 1.99509 13.2726 2.02376L13.2737 2.02433Z" fill="white"/>
<g opacity="0.25">
<path d="M6.04361 7.72696C5.9306 10.4122 5.81703 13.1042 5.40772 15.7607C5.33632 16.2257 5.25086 16.7013 5.09344 17.1427C5.06589 15.8895 5.03609 14.6317 5.01922 13.4044C5.0136 12.9979 4.75553 12.6392 4.37265 12.5009C4.10897 12.4059 3.84528 12.3002 3.58215 12.1883C4.71393 10.903 5.56234 9.3698 6.04361 7.72752V7.72696Z" fill="#000E3F"/>
</g>
<g opacity="0.25">
<path d="M19.5781 10.9265C18.7831 11.3521 17.9078 11.6461 17.0177 11.8159C16.5426 11.9064 16.2036 12.3281 16.2227 12.8111C16.3161 15.1511 16.4859 17.7222 16.5786 20.06C16.5977 20.548 16.2525 20.9775 15.7707 21.0579C12.4895 21.6055 9.15097 21.4706 5.90295 20.7341C5.78038 20.7065 5.66794 20.6559 5.56842 20.5879C7.83928 20.8803 10.1776 20.6081 12.2388 19.6315C13.4228 19.0704 14.5608 18.2091 14.9864 16.9694C15.5526 15.3198 14.7205 13.4818 15.0752 11.7749C15.2102 11.1261 15.5115 10.525 15.7105 9.8931C15.909 9.26115 15.999 8.55104 15.7156 7.95227C16.0389 8.41442 16.1435 8.99127 16.3712 9.5074C16.5994 10.023 17.0419 10.5267 17.6058 10.5172C18.3738 10.5037 18.786 9.59736 18.8574 8.83273C19.0221 7.06788 18.3845 5.36656 17.5845 3.75745C18.791 5.59932 19.7238 7.74761 20.078 9.90883C20.1454 10.3198 19.9453 10.7297 19.5776 10.9265H19.5781Z" fill="#000E3F"/>
</g>
<path d="M16.5787 20.0602C16.5978 20.5482 16.2526 20.9777 15.7708 21.0576C12.4896 21.6057 9.15159 21.4702 5.90357 20.7337C5.46447 20.6342 5.15074 20.2474 5.144 19.7965C5.14119 19.5632 5.13669 19.3281 5.13275 19.0926C8.76309 20.4042 12.8623 20.4638 16.5466 19.3045C16.5585 19.5587 16.5686 19.81 16.5787 20.059V20.0602Z" fill="#915EFD"/>
<path d="M12.6407 11.2826C12.6171 11.3388 12.5912 11.3939 12.5631 11.4484C12.5558 11.4625 12.5485 11.476 12.5412 11.49C12.3641 11.8195 12.1156 12.104 11.8227 12.3278C11.7546 12.38 11.6844 12.4284 11.6118 12.4734C11.261 12.6921 10.8629 12.8298 10.4553 12.863C10.3339 12.8731 10.2107 12.8737 10.0887 12.8658C10.0348 12.8624 9.98135 12.8568 9.92737 12.8501C9.45116 12.7877 8.99182 12.5886 8.63368 12.2592C8.62018 12.2468 8.60725 12.2344 8.59432 12.2221C8.57239 12.2007 8.55103 12.1793 8.53079 12.1574C8.18164 11.7891 7.96574 11.2961 7.90165 10.7816C7.88816 10.6748 7.88141 10.568 7.88141 10.4606C7.88141 10.2734 7.90165 10.0861 7.94382 9.90397C7.99329 9.68807 8.07088 9.48623 8.17152 9.30182C8.17546 9.29395 8.17995 9.28551 8.18445 9.27764C8.46838 8.76826 8.9266 8.38706 9.44948 8.17398C9.4506 8.17398 9.45173 8.17286 9.45285 8.17286C9.91501 7.98507 10.4272 7.92772 10.9147 8.02892C10.9731 8.04073 11.031 8.05535 11.0889 8.07222C11.4229 8.16892 11.74 8.34378 12.0149 8.60578C12.0234 8.61365 12.0318 8.62151 12.0402 8.62995C12.0577 8.64738 12.0751 8.66481 12.0925 8.6828C12.3973 9.00046 12.6171 9.39065 12.7284 9.80671C12.7509 9.88992 12.7689 9.97369 12.7824 10.0586C12.8471 10.4662 12.8066 10.8884 12.6401 11.2826H12.6407Z" fill="#14FD3B"/>
<path d="M14.061 2.16987C13.8766 2.93226 13.4718 3.6418 12.8859 4.16468C11.8177 5.11878 10.199 5.40608 8.86767 4.87815C7.74545 4.43286 6.87174 3.4259 6.55127 2.26601C6.82227 2.20192 7.09832 2.15244 7.37382 2.11533C7.49132 2.09959 7.60995 2.10634 7.72409 2.13445C7.87195 2.59773 8.15982 3.01209 8.52583 3.31008C9.02903 3.71938 9.66773 3.91729 10.2997 3.9246C11.2324 3.93528 12.1871 3.51136 12.7499 2.71524C12.9 2.50328 13.0175 2.26433 13.0996 2.01188C13.1581 2.0102 13.216 2.01413 13.2739 2.02425C13.5331 2.06642 13.7962 2.11477 14.061 2.16987Z" fill="#915EFD"/>
<g opacity="0.7">
<path d="M13.3295 2.35372C13.311 2.34472 13.2806 2.35934 13.2407 2.39307C13.221 2.40994 13.1985 2.43187 13.1743 2.45829C13.162 2.47179 13.1496 2.48584 13.1361 2.50158C13.1226 2.51676 13.1069 2.53195 13.0911 2.54881C13.0596 2.58255 13.0259 2.61965 12.9905 2.66126C12.9534 2.70174 12.9107 2.74335 12.8679 2.78945C12.8263 2.83668 12.774 2.88109 12.724 2.93056C12.6745 2.98117 12.6155 3.02839 12.5564 3.07956C12.5418 3.09249 12.5266 3.10542 12.5115 3.11836C12.4963 3.13129 12.4794 3.14309 12.4631 3.15546C12.4305 3.1802 12.3973 3.2055 12.3636 3.23136C12.331 3.25835 12.2933 3.28084 12.2573 3.30558C12.2208 3.32975 12.1842 3.35618 12.146 3.38035C12.1067 3.4034 12.0673 3.42702 12.0268 3.45119C12.0066 3.463 11.9869 3.47593 11.9661 3.48718C11.9447 3.49786 11.9234 3.50911 11.902 3.51979C11.8587 3.54172 11.816 3.56533 11.7716 3.58669C11.7266 3.60693 11.6805 3.62717 11.6338 3.64741C11.5883 3.6699 11.5394 3.68508 11.491 3.70364C11.4421 3.72106 11.3943 3.74187 11.3431 3.75536C11.2925 3.77054 11.2419 3.78629 11.1902 3.80147C11.1379 3.81328 11.0851 3.82564 11.0322 3.83801C10.8186 3.88186 10.5948 3.90717 10.3654 3.90604C10.1366 3.90042 9.91339 3.86893 9.70086 3.8189C9.64801 3.8054 9.59573 3.79135 9.544 3.77785C9.49284 3.76099 9.44224 3.74412 9.39276 3.72725C9.34216 3.71263 9.29437 3.69014 9.24658 3.67159C9.19879 3.65191 9.14988 3.63505 9.10546 3.61144C9.05936 3.58951 9.01438 3.56814 8.96996 3.54678C8.92611 3.52429 8.88394 3.49899 8.84121 3.47593C8.81984 3.46413 8.79904 3.45288 8.77824 3.44108C8.75744 3.42927 8.73832 3.41577 8.71808 3.4034C8.67816 3.3781 8.63937 3.35337 8.60057 3.32919C8.5629 3.30389 8.52748 3.27634 8.4915 3.25104C8.45608 3.22462 8.41897 3.20156 8.38749 3.17345C8.35432 3.14647 8.32227 3.1206 8.29022 3.09474C8.27448 3.08181 8.25817 3.06944 8.24299 3.05651C8.22838 3.04302 8.21376 3.02952 8.19914 3.01659C8.14179 2.96374 8.08388 2.91483 8.03553 2.8631C7.98662 2.81194 7.93545 2.7664 7.89553 2.71805C7.85393 2.67082 7.81232 2.62752 7.77634 2.58648C7.74204 2.54431 7.70943 2.50552 7.67907 2.47122C7.66389 2.4538 7.64871 2.43805 7.63522 2.42231C7.62229 2.40657 7.60992 2.39195 7.59868 2.37789C7.57506 2.35091 7.5537 2.32842 7.53402 2.31043C7.49522 2.27557 7.46543 2.26039 7.44631 2.26882C7.42719 2.27726 7.41989 2.30874 7.42382 2.36215C7.42607 2.38914 7.43057 2.42119 7.43844 2.45886C7.44237 2.47741 7.44687 2.49765 7.45193 2.51901C7.45755 2.54038 7.46599 2.56175 7.47386 2.5848C7.49016 2.6309 7.50984 2.68206 7.53289 2.73829C7.55707 2.79338 7.58855 2.85017 7.62116 2.91258C7.65209 2.97611 7.69538 3.03739 7.73867 3.10486C7.78084 3.17346 7.83425 3.23867 7.88935 3.30895C7.90341 3.32638 7.91746 3.34437 7.93152 3.3618C7.94614 3.37923 7.96188 3.3961 7.97762 3.41297C8.00967 3.44726 8.04171 3.48212 8.07489 3.5181C8.1075 3.55465 8.14517 3.58669 8.18227 3.62211C8.21994 3.65641 8.25705 3.69239 8.29753 3.72669C8.33914 3.7593 8.38074 3.79303 8.42347 3.82677C8.44484 3.84363 8.4662 3.86107 8.48869 3.87737C8.51174 3.89311 8.53479 3.90885 8.55784 3.9246C8.60451 3.95552 8.65174 3.98869 8.70121 4.01961C8.75182 4.04828 8.80298 4.07752 8.8547 4.10732C8.90587 4.13824 8.96153 4.16242 9.01663 4.18941C9.07229 4.21527 9.12739 4.24395 9.18642 4.26531C9.24489 4.2878 9.30449 4.31085 9.36409 4.3339C9.42537 4.35246 9.48778 4.37157 9.55075 4.39013C9.80375 4.45928 10.0747 4.50257 10.3559 4.50876C10.637 4.51101 10.9091 4.47502 11.1638 4.41317C11.2268 4.39574 11.2897 4.37888 11.3516 4.36201C11.4123 4.34065 11.4719 4.31985 11.5315 4.29848C11.5911 4.2788 11.6473 4.25182 11.7035 4.22764C11.7592 4.20234 11.816 4.17985 11.8677 4.15061C11.9206 4.1225 11.9723 4.09495 12.0234 4.06741C12.0735 4.03817 12.1213 4.00668 12.1691 3.97689C12.1927 3.96171 12.2163 3.94652 12.2399 3.93191C12.263 3.91616 12.2849 3.8993 12.3068 3.88355C12.3507 3.85094 12.3934 3.8189 12.4356 3.78741C12.4766 3.75424 12.5154 3.71938 12.5536 3.68621C12.5913 3.65248 12.6307 3.62155 12.6638 3.58557C12.6981 3.55071 12.7313 3.51698 12.7645 3.48324C12.7808 3.46638 12.7971 3.45063 12.8123 3.4332C12.8269 3.41578 12.8415 3.39834 12.8561 3.38148C12.9129 3.31288 12.9686 3.24936 13.0124 3.18189C13.0574 3.11554 13.1024 3.05595 13.1355 2.99298C13.1698 2.9317 13.2025 2.87547 13.2283 2.82093C13.2525 2.76583 13.2739 2.71524 13.2913 2.66913C13.2997 2.64608 13.3087 2.62471 13.3149 2.60391C13.3205 2.58255 13.3261 2.56286 13.3301 2.54375C13.3391 2.50664 13.3447 2.4746 13.3475 2.44761C13.3531 2.3942 13.3469 2.36272 13.3278 2.35372H13.3295Z" fill="white"/>
</g>
<g opacity="0.7">
<path d="M16.0928 19.9791C16.0731 19.8942 15.4564 19.9724 14.468 20.0707C13.9732 20.1157 13.3851 20.1669 12.7312 20.1984C12.0779 20.2304 11.3588 20.2433 10.6049 20.2237C9.85091 20.2046 9.1335 20.1551 8.48299 20.0904C8.32051 20.073 8.1614 20.0561 8.00734 20.0398C7.85329 20.0207 7.70374 20.0027 7.55924 19.9847C7.27026 19.9493 7.00601 19.9088 6.76762 19.8627C6.5298 19.816 6.31896 19.7621 6.1368 19.7047C5.95463 19.6474 5.80227 19.5855 5.67745 19.5321C5.43063 19.4214 5.29401 19.3432 5.26477 19.3764C5.23891 19.4051 5.32606 19.5462 5.55545 19.7317C5.67127 19.8222 5.82194 19.9217 6.00861 20.0151C6.19471 20.109 6.4151 20.1972 6.66248 20.2743C6.90987 20.3507 7.18424 20.4176 7.4766 20.4755C7.62278 20.5037 7.77458 20.5323 7.93032 20.5621C8.08662 20.5886 8.24854 20.6133 8.4144 20.6392C9.0784 20.7359 9.81436 20.8039 10.5891 20.8236C11.3639 20.8438 12.1027 20.8135 12.77 20.7499C13.438 20.6869 14.0345 20.5902 14.5309 20.4902C15.5233 20.2805 16.1102 20.0544 16.0923 19.978L16.0928 19.9791Z" fill="white"/>
</g>
<path d="M20.2942 10.3206C20.2746 10.3341 20.2678 10.3543 20.265 10.3768C20.2375 10.6146 20.1121 10.7985 19.9417 10.9559C19.8394 11.0504 19.7219 11.1229 19.5976 11.183C18.8656 11.5389 18.1072 11.8201 17.3048 11.9724C17.2014 11.9921 17.0985 12.0123 17.0001 12.0489C16.7139 12.1563 16.5374 12.3564 16.48 12.6606C16.4446 12.8473 16.4536 13.0345 16.4621 13.2217C16.48 13.6186 16.4992 14.0156 16.52 14.4125C16.5481 14.9528 16.5773 15.4926 16.6066 16.0329C16.6189 16.2645 16.6324 16.4956 16.6442 16.7272C16.6712 17.2675 16.6976 17.8073 16.7241 18.3476C16.7454 18.7827 16.7662 19.2185 16.7876 19.6542C16.7949 19.8032 16.8056 19.9516 16.8101 20.1006C16.8135 20.2226 16.796 20.3435 16.76 20.4599C16.6442 20.8332 16.4036 21.0879 16.0336 21.2178C15.8925 21.2673 15.7452 21.2931 15.5973 21.3117C15.1543 21.3679 14.7107 21.4258 14.2665 21.4713C13.9151 21.5073 13.5626 21.5287 13.2101 21.5523C12.4494 21.604 11.6876 21.599 10.9263 21.5804C10.4518 21.5692 9.97838 21.5349 9.50555 21.4933C9.07094 21.455 8.63802 21.4056 8.20623 21.3471C7.46239 21.2459 6.72418 21.1132 5.99271 20.9457C5.88533 20.9209 5.7785 20.89 5.68011 20.8388C5.30679 20.6454 5.1072 20.3328 5.06166 19.9196C5.04816 19.7993 5.04142 19.6773 5.04423 19.5558C5.05547 18.9705 5.02905 18.3864 5.01949 17.8016C5.00094 16.6541 4.97395 15.5066 4.94921 14.3591C4.94527 14.1882 4.94471 14.0173 4.94921 13.8463C4.95427 13.6529 4.94415 13.4601 4.89861 13.2706C4.8407 13.0317 4.70576 12.8523 4.48762 12.7376C4.40947 12.6966 4.32963 12.6583 4.24642 12.6297C3.59816 12.4059 2.98083 12.1119 2.36406 11.8161C2.23475 11.7543 2.10544 11.6924 1.97668 11.6295C1.91709 11.6002 1.85862 11.5699 1.80014 11.5384C1.28907 11.2612 1.11534 10.7378 1.23903 10.2289C1.31437 9.91802 1.40658 9.6116 1.48192 9.30069C1.61798 8.73789 1.74504 8.17285 1.87886 7.60949C2.02841 6.98148 2.20495 6.36077 2.44334 5.75974C2.63956 5.26554 2.87907 4.79496 3.18099 4.35641C3.80169 3.45459 4.63492 2.8277 5.65481 2.44144C6.17263 2.24579 6.70788 2.11422 7.25212 2.01977C7.3938 1.99503 7.53773 1.99391 7.68166 2.00009C7.82841 2.00684 7.95997 2.06756 8.09097 2.12322C8.36084 2.23791 8.63802 2.32843 8.92476 2.38972C9.45214 2.50216 9.98569 2.52747 10.5221 2.49036C11.2592 2.43863 11.9738 2.28177 12.6636 2.01864C12.9841 1.89608 13.3068 1.87977 13.6391 1.94836C14.5038 2.12716 15.3657 2.31607 16.2012 2.60618C16.4458 2.69108 16.6881 2.78328 16.931 2.87492C17.2031 2.97725 17.415 3.15267 17.5781 3.39499C18.6109 4.92932 19.4273 6.56655 19.9451 8.34714C20.062 8.7497 20.1627 9.15676 20.238 9.56944C20.2487 9.62903 20.2549 9.68919 20.2633 9.74935C20.2684 9.78702 20.2633 9.8275 20.2948 9.8573V10.3211L20.2942 10.3206ZM16.7657 11.7908C16.7904 11.8021 16.8106 11.7908 16.8303 11.7829C16.9849 11.7217 17.1457 11.6817 17.3077 11.6497C18.0481 11.5013 18.7515 11.2477 19.4261 10.912C19.52 10.8654 19.6117 10.8148 19.6943 10.749C19.8872 10.5955 19.9873 10.3948 19.9974 10.1491C20.0008 10.0608 19.9923 9.97312 19.9777 9.88597C19.8619 9.21635 19.6921 8.56022 19.4812 7.91422C18.9792 6.37707 18.2348 4.95968 17.3498 3.61201C17.1986 3.38149 16.9945 3.22688 16.737 3.13074C16.0331 2.86874 15.3185 2.64441 14.5864 2.47461C14.4954 2.45325 14.4037 2.43189 14.3121 2.41277C14.2615 2.40209 14.2469 2.41221 14.2272 2.46562C14.1957 2.55389 14.1681 2.64329 14.135 2.731C13.8297 3.53949 13.336 4.20236 12.6051 4.67295C11.8135 5.1829 10.9454 5.39879 10.0054 5.32795C9.53253 5.29196 9.07994 5.17727 8.65433 4.96868C7.66198 4.48235 6.98112 3.70984 6.57912 2.68545C6.56282 2.64441 6.54989 2.60224 6.53358 2.5612C6.51391 2.51285 6.49648 2.50385 6.44419 2.51791C6.16138 2.59381 5.88477 2.68601 5.61433 2.79846C4.54159 3.24487 3.71511 3.96735 3.15231 4.98724C2.93585 5.37968 2.75763 5.78842 2.60807 6.21009C2.38599 6.83473 2.22688 7.47681 2.07901 8.12225C1.9497 8.68673 1.82825 9.2529 1.67983 9.81288C1.63204 9.99392 1.58143 10.1744 1.53533 10.3566C1.50385 10.4814 1.50216 10.6073 1.53477 10.7333C1.59155 10.9525 1.71637 11.1229 1.9109 11.2365C2.07283 11.3309 2.237 11.4231 2.40623 11.503C3.04493 11.8032 3.68925 12.0916 4.34931 12.3435C4.44714 12.3806 4.54215 12.4256 4.63886 12.4661C4.69452 12.4891 4.744 12.5571 4.79853 12.542C4.86544 12.5234 4.86375 12.4351 4.88568 12.3761C5.35964 11.0824 5.70317 9.75554 5.8932 8.38987C5.91119 8.25887 5.93143 8.12787 5.94886 7.99687C5.95842 7.92322 5.99834 7.87599 6.06693 7.85181C6.16982 7.81527 6.25921 7.87599 6.25753 7.98506C6.25696 8.04578 6.25022 8.1065 6.24178 8.1661C6.2148 8.35726 6.18612 8.54786 6.15632 8.73902C6.00396 9.7218 5.77288 10.686 5.47321 11.6345C5.35514 12.0078 5.2247 12.3772 5.08415 12.7427C5.06278 12.7989 5.06053 12.845 5.09089 12.8984C5.16286 13.0244 5.20222 13.1632 5.21964 13.306C5.23595 13.437 5.24663 13.5697 5.25001 13.7018C5.26237 14.2095 5.26968 14.7167 5.28037 15.2244C5.30454 16.4214 5.32872 17.6184 5.35514 18.8159C5.36076 19.0639 5.31185 19.0116 5.56204 19.0965C7.25718 19.6716 9.00179 19.9685 10.7897 20.0146C11.6628 20.0371 12.5326 19.9882 13.3996 19.8842C13.9747 19.815 14.5454 19.7161 15.111 19.5896C15.5254 19.4968 15.9369 19.3933 16.3429 19.268C16.4508 19.2348 16.4531 19.2331 16.4486 19.1184C16.4362 18.821 16.4216 18.523 16.4064 18.2256C16.3788 17.7021 16.349 17.1787 16.3221 16.6553C16.2951 16.1431 16.2686 15.6303 16.2439 15.1175C16.2107 14.4288 16.1781 13.7395 16.1478 13.0508C16.1427 12.9406 16.1461 12.8298 16.1545 12.7202C16.1725 12.4829 16.2507 12.2682 16.4064 12.0849C16.4205 12.068 16.4345 12.0511 16.4497 12.0348C16.475 12.0084 16.4829 11.9792 16.4694 11.9443C16.4615 11.9241 16.457 11.9021 16.4503 11.8808C16.1157 10.8047 15.8588 9.71056 15.6727 8.59958C15.6434 8.42529 15.6176 8.251 15.5923 8.07614C15.5844 8.02161 15.576 7.96651 15.5895 7.91141C15.6063 7.84338 15.6732 7.79447 15.7508 7.79278C15.8228 7.79109 15.8667 7.82989 15.8841 7.91254C15.8875 7.92884 15.888 7.94571 15.8908 7.96201C15.9448 8.28867 15.9948 8.61589 16.0533 8.94142C16.2197 9.86517 16.4435 10.7749 16.7167 11.6728C16.7297 11.7144 16.737 11.7588 16.7662 11.7914L16.7657 11.7908ZM5.36076 19.3855C5.34952 19.6081 5.34615 19.8319 5.40743 20.0517C5.47209 20.2828 5.61321 20.4503 5.82742 20.5577C5.95167 20.6201 6.08323 20.6606 6.21873 20.687C6.36491 20.7157 6.51222 20.7365 6.6584 20.7652C7.43203 20.9187 8.21072 21.0412 8.99504 21.1273C9.46113 21.1784 9.92835 21.2178 10.3967 21.2436C10.9584 21.2751 11.5212 21.2881 12.0839 21.2807C12.6248 21.2734 13.1646 21.2481 13.7037 21.2071C14.1929 21.17 14.6815 21.1171 15.1672 21.0485C15.3854 21.0176 15.6052 20.9906 15.8211 20.9479C16.2231 20.8675 16.484 20.5453 16.4879 20.136C16.489 19.9983 16.4834 19.86 16.4778 19.7222C16.4716 19.562 16.4699 19.5609 16.3181 19.6053C15.3578 19.8858 14.3818 20.0838 13.3883 20.2007C12.884 20.2603 12.3786 20.3025 11.8709 20.3188C11.1315 20.3418 10.3928 20.3289 9.6551 20.2642C9.09962 20.2153 8.5475 20.1456 7.99876 20.0478C7.15092 19.896 6.31825 19.6846 5.50132 19.4102C5.46028 19.3961 5.42036 19.3742 5.36076 19.3855ZM13.9281 2.35149C13.7926 2.29583 13.4569 2.2278 13.3327 2.22499C13.2933 2.22386 13.2714 2.24354 13.2568 2.27615C13.241 2.31157 13.2264 2.34699 13.2101 2.38241C12.9852 2.87661 12.6518 3.28142 12.1975 3.57997C11.425 4.08766 10.5805 4.2479 9.68209 4.04268C8.76958 3.83466 8.11121 3.29492 7.72271 2.43695C7.71371 2.41671 7.70528 2.39646 7.69741 2.37566C7.67885 2.32843 7.64343 2.31213 7.59452 2.30932C7.46689 2.30145 7.34095 2.31776 7.21557 2.33968C7.10706 2.3588 6.99967 2.3841 6.89229 2.4094C6.84281 2.42121 6.83269 2.44482 6.84675 2.49542C6.85237 2.51678 6.8608 2.53702 6.86811 2.55782C7.16441 3.33989 7.64793 3.97747 8.35184 4.434C9.17102 4.96475 10.07 5.13285 11.0292 4.9625C11.9664 4.79607 12.726 4.33054 13.3074 3.57715C13.5902 3.21114 13.7943 2.80352 13.9275 2.35149H13.9281ZM12.8885 2.2784C12.7991 2.30876 12.7316 2.33125 12.6647 2.35542C12.0238 2.58706 11.3643 2.73493 10.6857 2.79397C10.2404 2.83276 9.79397 2.83107 9.34868 2.77653C8.94781 2.72762 8.55537 2.64666 8.17924 2.49542C8.16912 2.49148 8.159 2.4853 8.14832 2.48361C8.13876 2.48249 8.12526 2.48361 8.11908 2.48867C8.1129 2.49429 8.1084 2.50947 8.11177 2.51622C8.12864 2.55108 8.14607 2.58538 8.16631 2.61799C8.39851 2.99918 8.71392 3.29435 9.11142 3.49563C9.88899 3.88919 10.6874 3.91787 11.4942 3.59684C12.0598 3.37194 12.5022 2.99412 12.8115 2.46562C12.8413 2.41446 12.8795 2.36554 12.8879 2.27727L12.8885 2.2784Z" fill="#000E3F"/>
<path d="M7.79987 10.519C7.79425 10.0608 7.91681 9.63347 8.12821 9.2326C8.31712 8.87446 8.59599 8.59165 8.92771 8.36282C9.45508 7.99905 10.0426 7.82983 10.6802 7.88099C11.6427 7.95801 12.3264 8.4584 12.761 9.30906C12.9207 9.62166 13.0101 9.95788 13.032 10.3087C13.0601 10.7596 12.978 11.1909 12.7599 11.5867C12.3292 12.367 11.6748 12.8607 10.7988 13.0237C9.9684 13.1783 9.22288 12.9754 8.59037 12.4002C8.17769 12.0252 7.95167 11.5501 7.84316 11.0121C7.80999 10.8496 7.79987 10.6837 7.80043 10.5184L7.79987 10.519ZM8.95975 12.2771C8.962 12.2861 8.96144 12.2923 8.96425 12.2956C8.971 12.3041 8.97831 12.3131 8.98674 12.3193C9.26898 12.5329 9.58721 12.6628 9.9341 12.7269C9.98021 12.7353 10.0049 12.7168 10.0257 12.6774C10.0516 12.6291 10.0769 12.5779 10.1135 12.538C10.2939 12.344 10.4407 12.1219 10.6301 11.9364C10.665 11.9026 10.6807 11.8706 10.6701 11.82C10.6397 11.68 10.6144 11.5389 10.588 11.3983C10.5801 11.3578 10.5627 11.3303 10.5228 11.3112C10.3046 11.206 10.0882 11.0975 9.87057 10.9901C9.83628 10.9733 9.80254 10.9536 9.76768 10.9373C9.70865 10.9097 9.6648 10.8361 9.59901 10.8451C9.53717 10.853 9.47982 10.8979 9.42135 10.9277C9.38199 10.948 9.34432 10.9705 9.30553 10.9918C9.26842 11.0121 9.2493 11.0424 9.24593 11.0846C9.24368 11.1121 9.23862 11.1391 9.23469 11.1667C9.19983 11.4287 9.16553 11.6912 9.13067 11.9532C9.11549 12.0657 9.07951 12.1675 8.98674 12.2411C8.97494 12.2507 8.96706 12.2658 8.95919 12.2765L8.95975 12.2771ZM8.13102 10.2542C8.12821 10.3284 8.13383 10.3363 8.19793 10.3587C8.24459 10.3751 8.29295 10.3885 8.33792 10.4082C8.56956 10.51 8.80177 10.6112 9.03172 10.7169C9.07726 10.7377 9.11212 10.7399 9.15429 10.7158C9.24481 10.6635 9.33589 10.6112 9.42978 10.5651C9.48544 10.5375 9.50906 10.4959 9.52143 10.438C9.56472 10.2334 9.61138 10.0293 9.6558 9.82519C9.66985 9.76053 9.68335 9.69588 9.69572 9.63122C9.70246 9.59636 9.69291 9.56713 9.66423 9.54295C9.58777 9.47998 9.50962 9.41814 9.43653 9.35179C9.38986 9.30906 9.34545 9.30962 9.28641 9.32368C8.9918 9.3934 8.69663 9.45862 8.40033 9.52159C8.35873 9.53058 8.3278 9.54295 8.31094 9.58231C8.21704 9.80158 8.1507 10.0276 8.13102 10.2542ZM11.636 10.5988C11.6 10.5932 11.5837 10.6084 11.5685 10.6241C11.5151 10.6798 11.4634 10.7371 11.4083 10.7905C11.2469 10.9485 11.0839 11.1048 10.9214 11.2611C10.8995 11.2819 10.8899 11.3061 10.8955 11.3348C10.9248 11.4804 10.9546 11.626 10.9844 11.7722C10.9917 11.8082 11.0142 11.8267 11.0485 11.8397C11.3048 11.9403 11.5612 12.0404 11.8159 12.145C11.8631 12.1641 11.8969 12.1641 11.9351 12.1292C12.1234 11.9572 12.2876 11.7655 12.4203 11.5467C12.4462 11.504 12.4462 11.4675 12.4225 11.4236C12.3421 11.2729 12.2651 11.1206 12.1864 10.9693C12.1431 10.8867 12.0981 10.8057 12.0537 10.7236C11.9593 10.6944 11.8643 10.6646 11.7698 10.6359C11.7226 10.6213 11.6748 10.6089 11.6377 10.5983L11.636 10.5988ZM10.4845 8.18234C10.4002 8.18853 10.2951 8.1919 10.1916 8.20427C10.0437 8.2217 9.89981 8.25824 9.757 8.30041C9.68897 8.32009 9.65917 8.35832 9.65411 8.4286C9.6468 8.52193 9.62937 8.61414 9.61757 8.70691C9.60351 8.82105 9.59058 8.93518 9.57709 9.04931C9.66817 9.12859 9.75925 9.20786 9.85033 9.2877C9.85427 9.29107 9.85933 9.29444 9.86326 9.29781C9.89419 9.32592 9.92848 9.33155 9.97009 9.32368C10.2883 9.26071 10.6077 9.20336 10.9315 9.17806C10.9725 9.17468 11.0052 9.16288 11.0293 9.12746C11.1069 9.01389 11.1856 8.90088 11.2643 8.78787C11.2852 8.75807 11.2902 8.7294 11.2728 8.69566C11.2109 8.5731 11.1497 8.44941 11.0901 8.32572C11.0642 8.27174 11.0248 8.24419 10.9652 8.23182C10.8134 8.20034 10.6599 8.19134 10.4857 8.18291L10.4845 8.18234ZM12.0869 10.3947C12.1105 10.3908 12.1291 10.3818 12.1442 10.3638C12.2848 10.2019 12.4248 10.0394 12.5676 9.87917C12.6098 9.83194 12.6137 9.7864 12.5929 9.72849C12.5288 9.54576 12.4478 9.37203 12.3444 9.20842C12.2707 9.09204 12.1858 8.98353 12.0936 8.8812C12.056 8.83904 12.0161 8.82892 11.9615 8.84578C11.8508 8.87952 11.7383 8.90538 11.6214 8.90313C11.5854 8.90257 11.5584 8.91718 11.5382 8.94642C11.4566 9.06392 11.3751 9.18143 11.293 9.29894C11.2722 9.32874 11.2711 9.35797 11.2852 9.39171C11.4004 9.66495 11.514 9.93932 11.6276 10.2131C11.6433 10.2508 11.6641 10.2778 11.7063 10.2896C11.8176 10.32 11.9278 10.3543 12.0391 10.3863C12.0548 10.3908 12.0717 10.3919 12.0863 10.3947H12.0869Z" fill="#000E3F"/>
<path d="M15.8815 22.0042C15.8011 21.6961 15.579 21.442 15.3249 21.2503C15.0707 21.0585 14.7823 20.918 14.5085 20.7555C12.9641 19.8402 11.8857 18.2333 10.2563 17.4794C10.0118 17.3663 9.74471 17.2725 9.47709 17.3062C9.20946 17.3399 8.94634 17.5367 8.91766 17.8049C8.89799 17.9871 8.98513 18.1619 9.07172 18.3233C9.30785 18.7629 9.55973 19.1942 9.8268 19.6153C10.4104 20.5357 11.7997 20.5649 12.8634 20.7993C13.9277 21.0338 15.0499 21.3003 15.8815 22.0042Z" fill="#915EFD"/>
<path d="M20.2646 25.0336C20.4687 24.9689 20.6306 24.8109 20.6908 24.608C20.8111 24.2049 20.6919 23.7247 20.431 23.3767C20.0903 22.9207 19.5641 22.6413 19.0485 22.3922C15.7482 20.7943 12.128 19.8183 8.90638 18.0771C8.67024 17.9494 8.38069 17.9821 8.17435 18.153C7.46875 18.7366 6.51014 19.0053 5.58077 19.0087C4.65365 19.0121 3.68998 18.8035 2.79659 18.5066C2.52841 18.4178 2.22986 18.5083 2.06681 18.736C0.965962 20.2732 0.625249 22.3247 1.1768 24.1278C1.2482 24.3612 1.44836 24.5338 1.6918 24.5742C3.56067 24.884 5.47338 24.6535 7.35574 24.604C9.23866 24.5546 11.1919 24.7109 13.063 24.9251C14.2105 25.0566 15.3355 25.3535 16.487 25.4491C17.7604 25.5548 19.0474 25.4159 20.264 25.033L20.2646 25.0336Z" fill="white"/>
<g opacity="0.25">
<path d="M20.6912 24.6079C20.6311 24.8108 20.4691 24.9688 20.2651 25.0335C19.0489 25.4169 17.7614 25.5552 16.4885 25.4495C15.3371 25.354 14.2121 25.0571 13.0645 24.9255C11.1934 24.7108 9.24022 24.555 7.35731 24.6045C5.47495 24.654 3.56223 24.8845 1.69337 24.5747C1.44992 24.5342 1.24977 24.3616 1.17836 24.1283C0.893875 23.1978 0.846647 22.201 1.01925 21.2429C1.11708 21.9665 1.48872 22.6569 2.07063 23.1005C2.7425 23.6127 3.61958 23.791 4.46405 23.7747C6.40488 23.737 8.26306 22.757 10.1988 22.8931C11.3975 22.9774 12.5192 23.484 13.6616 23.8567C14.8041 24.2295 16.073 24.4684 17.1891 24.0232C17.5438 23.8815 17.9155 23.5959 17.8885 23.2147C17.8621 22.8408 17.4803 22.617 17.1941 22.3747C16.8545 22.0863 16.6308 21.7039 16.515 21.284C17.3724 21.6292 18.2208 21.9907 19.0489 22.3916C19.5639 22.6412 20.0902 22.9201 20.4315 23.376C20.6918 23.7241 20.811 24.2042 20.6907 24.6073L20.6912 24.6079Z" fill="#000E3F"/>
</g>
<path d="M20.4298 24.1485C20.0638 24.3649 19.5629 24.4021 19.1519 24.4605C18.4767 24.5567 17.7958 24.6146 17.1155 24.6556C15.8117 24.7338 14.4061 24.8277 13.1231 24.5241C12.0492 24.2699 11.04 23.9067 9.92003 23.9208C8.79556 23.9354 7.68852 24.1727 6.56856 24.2497C5.46883 24.325 4.36123 24.2845 3.26937 24.1311C2.75099 24.058 2.23655 23.9596 1.72829 23.8359C1.39039 23.7538 0.974339 23.692 1.10815 24.1755C1.24646 24.6759 1.52645 25.1712 1.73167 25.6468C1.85536 25.9336 2.01335 26.6144 2.34394 26.7381C2.76505 26.8956 3.11082 26.7584 3.26881 26.3817C3.4476 25.9544 3.82205 25.7778 4.28196 25.8925C4.72837 26.0039 4.68845 26.2675 4.92459 26.5543C5.14779 26.8247 5.79886 26.7775 5.97653 26.4913C6.08504 26.3165 6.09741 26.1613 6.31443 26.068C6.48422 25.9949 6.72261 26.0022 6.90365 26.0162C7.38548 26.0539 7.38267 26.5425 7.80434 26.6156C8.32497 26.7055 8.50489 26.5537 8.6595 26.0916C8.79219 25.6963 9.03395 25.4096 9.41739 25.2308C10.2501 24.8428 11.1485 25.0486 11.9615 25.3719C12.2572 25.4894 12.8425 25.6137 13.0264 25.8464C13.1697 26.0275 13.1281 26.3406 13.2799 26.5256C13.4295 26.7083 13.7601 26.7055 13.972 26.6808C14.1891 26.656 14.2256 26.5762 14.3527 26.416C14.5556 26.1602 14.7018 26.2012 15.0341 26.2316C15.304 26.2563 15.7065 26.1894 15.9517 26.2945C16.2581 26.4255 16.1513 26.8427 16.4774 26.9642C16.6471 27.0277 17.0182 27.0356 17.183 26.9473C17.4303 26.8157 17.3376 26.5385 17.4854 26.3558C17.6423 26.1624 18.0162 26.2282 18.254 26.2153C18.5194 26.2006 18.8247 26.1028 19.0271 26.2833C19.2261 26.461 19.2132 26.5138 19.5128 26.5307C19.7349 26.5436 19.9666 26.5655 20.1122 26.3637C20.2674 26.1489 20.6705 25.1481 20.7559 24.8811C20.8212 24.6764 20.9713 23.8263 20.4304 24.1468L20.4298 24.1485Z" fill="#0D51E3"/>
<path d="M11.2425 17.8375C10.5757 17.9477 9.94484 18.2024 9.38654 18.5825C9.00423 18.8433 9.36574 19.4702 9.752 19.2071C10.2653 18.8574 10.8225 18.6359 11.4353 18.5347C11.8935 18.4588 11.699 17.7616 11.243 17.837L11.2425 17.8375Z" fill="#0D51E3"/>
<path d="M12.3989 18.6218C11.695 18.7162 11.0456 19.0822 10.5952 19.631C10.3017 19.988 10.8111 20.503 11.1069 20.1426C11.4909 19.6748 11.9924 19.3999 12.5912 19.3195C12.7863 19.2931 12.8886 19.0451 12.8436 18.8742C12.7885 18.6645 12.5912 18.5959 12.3989 18.6218Z" fill="#0D51E3"/>
<path d="M13.416 19.4034C12.9032 19.6013 12.4495 19.8953 12.0779 20.3029C11.7647 20.6465 12.2752 21.1598 12.5895 20.8146C12.8734 20.5031 13.213 20.254 13.6083 20.1011C13.7899 20.0308 13.9175 19.8576 13.8607 19.6558C13.8118 19.4821 13.5998 19.332 13.416 19.4034Z" fill="#0D51E3"/>
<path d="M14.8548 20.0904C14.3831 20.2844 13.9682 20.5672 13.6454 20.9658C13.5229 21.1176 13.497 21.329 13.6454 21.4774C13.7725 21.6045 14.0334 21.6304 14.1571 21.4774C14.3966 21.1817 14.6923 20.9338 15.0471 20.7881C15.2276 20.7139 15.3563 20.5481 15.2995 20.3434C15.2529 20.1725 15.0364 20.0156 14.8548 20.091V20.0904Z" fill="#0D51E3"/>
<g opacity="0.7">
<path d="M20.5406 24.5708C20.535 24.5292 20.26 24.5286 19.7681 24.559C19.5224 24.5742 19.2221 24.5972 18.8741 24.6236C18.7004 24.6366 18.5148 24.6512 18.3175 24.6658C18.2191 24.6725 18.1179 24.6799 18.0139 24.6866C17.9099 24.6939 17.8036 24.7018 17.6945 24.7074C17.2583 24.7355 16.7809 24.7569 16.2698 24.7648C15.7588 24.7721 15.2134 24.7648 14.6439 24.7231C14.5016 24.7102 14.3577 24.7018 14.2126 24.686C14.1401 24.6776 14.067 24.6697 13.9939 24.6613C13.9208 24.6523 13.8466 24.6461 13.7735 24.6343C13.6262 24.6118 13.4772 24.5933 13.3271 24.568C13.177 24.5427 13.0258 24.5146 12.8717 24.4848C12.2572 24.3667 11.6106 24.2166 10.9196 24.1418C10.2292 24.0693 9.55454 24.0755 8.91359 24.1176C8.59256 24.1379 8.27939 24.166 7.97466 24.198C7.66937 24.2295 7.37251 24.2638 7.08409 24.2975C6.50667 24.365 5.96243 24.4274 5.45361 24.4656C4.94479 24.5039 4.47139 24.5174 4.04072 24.5067C3.17825 24.487 2.48952 24.3616 2.02343 24.2357C1.96495 24.2199 1.90929 24.207 1.85757 24.1924C1.80584 24.1772 1.75805 24.1626 1.71307 24.1491C1.66753 24.1367 1.62593 24.1249 1.58769 24.1142C1.55003 24.1024 1.51573 24.0912 1.48481 24.0822C1.36055 24.0457 1.28971 24.035 1.28072 24.0535C1.27172 24.0721 1.32401 24.1187 1.43477 24.1924C1.46232 24.2104 1.4938 24.2306 1.52866 24.252C1.56408 24.2717 1.60344 24.2925 1.64673 24.315C1.69002 24.3369 1.73612 24.3605 1.78616 24.3858C1.8362 24.4094 1.8913 24.4319 1.94921 24.4572C2.40968 24.6574 3.12259 24.8558 4.01879 24.9312C4.46633 24.97 4.95772 24.9806 5.48228 24.9632C6.00685 24.9458 6.56346 24.9008 7.14256 24.8485C7.43155 24.8227 7.72728 24.7968 8.02976 24.7698C8.33112 24.7439 8.63754 24.7215 8.94901 24.7057C9.5714 24.6725 10.2118 24.672 10.8572 24.7394C11.5016 24.8086 12.1357 24.9509 12.7655 25.0639C12.9229 25.0925 13.0797 25.1195 13.2372 25.1431C13.394 25.1673 13.5509 25.1842 13.7049 25.2044C13.782 25.2151 13.859 25.2202 13.936 25.228C14.0125 25.2348 14.0889 25.2421 14.1643 25.2488C14.3155 25.2618 14.4656 25.2674 14.6135 25.2764C15.2055 25.3034 15.7672 25.2927 16.2895 25.2629C16.8124 25.2331 17.2965 25.1864 17.7362 25.1302C17.8464 25.1173 17.9532 25.1027 18.0578 25.088C18.1618 25.0734 18.2635 25.0599 18.3619 25.0447C18.5587 25.0144 18.7442 24.9863 18.9174 24.9559C19.2632 24.8974 19.56 24.8401 19.8018 24.7895C20.2848 24.6877 20.5484 24.6101 20.5428 24.5691L20.5406 24.5708Z" fill="white"/>
</g>
<g opacity="0.7">
<path d="M11.3206 18.127C11.3184 18.0455 11.202 17.9712 11.0063 17.9386C10.909 17.9218 10.7927 17.9178 10.6645 17.9279C10.5368 17.9392 10.3974 17.9645 10.2563 18.0083C10.1152 18.0528 9.98586 18.1112 9.8751 18.1753C9.76434 18.24 9.67101 18.3103 9.60073 18.3794C9.45905 18.5177 9.40564 18.6448 9.45005 18.7134C9.49559 18.7837 9.62659 18.7859 9.80089 18.7539C9.88803 18.7376 9.98755 18.7139 10.0938 18.6841C10.2012 18.6549 10.3159 18.6206 10.4362 18.5824C10.5565 18.5453 10.6707 18.5082 10.7752 18.4711C10.8798 18.4351 10.9748 18.3974 11.0558 18.3614C11.2172 18.2883 11.3234 18.2119 11.3206 18.1281V18.127Z" fill="white"/>
</g>
<g opacity="0.7">
<path d="M12.6642 18.8018C12.667 18.7197 12.5838 18.6399 12.4331 18.596C12.3583 18.5741 12.2678 18.5629 12.1677 18.5651C12.0677 18.5685 11.9586 18.5859 11.849 18.6208C11.7393 18.6562 11.6404 18.7057 11.5572 18.7608C11.4745 18.817 11.407 18.8783 11.3587 18.9401C11.262 19.0632 11.2406 19.1768 11.2907 19.242C11.3413 19.3089 11.4492 19.3191 11.5791 19.3039C11.6443 19.2954 11.7163 19.282 11.7922 19.2628C11.8686 19.2443 11.9485 19.2207 12.0322 19.1937C12.116 19.1672 12.1947 19.1397 12.2678 19.1105C12.3409 19.0824 12.4073 19.0514 12.4652 19.0205C12.5799 18.9575 12.6614 18.8867 12.6642 18.8029V18.8018Z" fill="white"/>
</g>
<g opacity="0.7">
<path d="M12.9085 19.8184C12.9648 19.9747 13.2144 20.0275 13.4663 19.9365C13.7181 19.8454 13.8761 19.6452 13.8193 19.4895C13.7631 19.3332 13.5135 19.2803 13.2616 19.3714C13.0097 19.4625 12.8517 19.6627 12.9085 19.8184Z" fill="white"/>
</g>
<g opacity="0.7">
<path d="M15.1931 20.3299C15.156 20.1679 14.9727 20.0718 14.7827 20.1151C14.5927 20.1584 14.469 20.3248 14.5061 20.4867C14.5432 20.6486 14.7265 20.7448 14.9165 20.7015C15.106 20.6582 15.2302 20.4918 15.1931 20.3299Z" fill="white"/>
</g>
<path d="M13.9776 20.1383C14.0119 20.1568 14.0299 20.1697 14.0496 20.177C14.1322 20.2074 14.2143 20.2552 14.2986 20.2597C14.3785 20.2636 14.4443 20.1889 14.519 20.154C14.6242 20.1051 14.7282 20.0545 14.8328 20.0056C15.1032 19.8791 15.3815 20.0342 15.4776 20.2659C15.5232 20.375 15.5468 20.4863 15.5148 20.6043C15.4788 20.737 15.4715 20.7218 15.6115 20.7775C15.8988 20.8911 16.1872 21.0013 16.4739 21.116C17.396 21.4842 18.3107 21.8699 19.2041 22.304C19.4324 22.4147 19.659 22.5294 19.8749 22.6638C20.0818 22.7926 20.2763 22.9365 20.4467 23.1119C20.6789 23.3503 20.8408 23.6275 20.9184 23.953C20.9307 24.0059 20.9381 24.0598 20.9679 24.1099C21.0662 24.274 21.0764 24.454 21.0544 24.6384C21.0348 24.8037 20.9915 24.9639 20.9313 25.1179C20.7902 25.4772 20.6491 25.8365 20.4843 26.1862C20.454 26.2508 20.4191 26.3138 20.3859 26.3774C20.269 26.6039 20.0767 26.7153 19.8288 26.7366C19.6966 26.7479 19.5645 26.7411 19.433 26.7186C19.3031 26.6961 19.1918 26.6439 19.0996 26.55C19.0765 26.5263 19.0529 26.5033 19.0287 26.4802C18.9618 26.4162 18.8814 26.3835 18.7898 26.3819C18.7234 26.3807 18.6571 26.3807 18.5913 26.3886C18.3934 26.4128 18.1949 26.4184 17.9964 26.4167C17.9301 26.4167 17.8649 26.4206 17.7997 26.4381C17.7187 26.46 17.6619 26.5089 17.6344 26.5865C17.6119 26.6483 17.5945 26.713 17.5815 26.7777C17.5332 27.0104 17.3876 27.1442 17.1598 27.1887C16.9687 27.2263 16.7764 27.2325 16.5852 27.183C16.3789 27.1296 16.2327 27.0082 16.1608 26.803C16.1428 26.7512 16.1214 26.7001 16.1 26.6489C16.0489 26.5241 15.9522 26.4594 15.8217 26.4448C15.7509 26.437 15.6784 26.433 15.607 26.4358C15.4192 26.4431 15.2319 26.4409 15.0447 26.4212C14.9789 26.4139 14.9126 26.4167 14.8463 26.4139C14.7332 26.4088 14.6427 26.4544 14.5691 26.537C14.5325 26.5781 14.4982 26.6214 14.4623 26.6635C14.3532 26.79 14.2194 26.8642 14.0501 26.8839C13.9006 26.9014 13.7527 26.9025 13.6054 26.8744C13.3507 26.8249 13.1742 26.686 13.109 26.4263C13.0898 26.3515 13.0702 26.2767 13.0561 26.2008C13.0246 26.0282 12.924 25.9129 12.7654 25.8466C12.6788 25.8106 12.5923 25.7752 12.5034 25.7448C12.1695 25.6301 11.8355 25.5171 11.5004 25.4053C11.2541 25.3232 11.0023 25.2641 10.7431 25.2366C10.426 25.2029 10.1151 25.2281 9.80977 25.3192C9.71532 25.3473 9.62255 25.3861 9.53372 25.4294C9.23742 25.5722 9.02939 25.7988 8.90964 26.1058C8.87759 26.1879 8.84723 26.2711 8.81462 26.3532C8.77976 26.4409 8.73591 26.5235 8.67519 26.5966C8.55599 26.74 8.40138 26.8181 8.21865 26.8378C8.06966 26.8541 7.92067 26.8412 7.77561 26.7996C7.66766 26.7692 7.57096 26.7169 7.49225 26.6354C7.43884 26.5798 7.38317 26.5252 7.33707 26.4639C7.19932 26.2818 7.01716 26.2008 6.79058 26.2115C6.73548 26.2143 6.67982 26.2109 6.62528 26.216C6.46673 26.2312 6.34079 26.297 6.26827 26.4465C6.24409 26.496 6.21654 26.5438 6.18899 26.5916C6.12152 26.7108 6.02482 26.7985 5.89719 26.8502C5.6931 26.9328 5.48395 26.9632 5.2658 26.9143C5.06171 26.8687 4.90204 26.7591 4.78791 26.5854C4.75192 26.5303 4.71819 26.4724 4.6912 26.4122C4.56751 26.1333 4.33475 26.0529 4.05532 26.0642C3.82874 26.0732 3.65726 26.1828 3.54031 26.3762C3.50883 26.428 3.4779 26.4808 3.45373 26.5365C3.27044 26.9604 2.83921 27.0706 2.47376 26.9728C2.29553 26.925 2.15497 26.826 2.04927 26.6759C1.97224 26.5668 1.91265 26.4488 1.86654 26.3245C1.68326 25.8275 1.46117 25.3462 1.24415 24.8638C1.15588 24.6676 1.07492 24.4686 1.02319 24.2583C1.00183 24.1717 0.98946 24.0846 0.999018 23.9963C1.00633 23.9294 0.999018 23.8647 0.983838 23.7995C0.852837 23.2311 0.803361 22.6548 0.836533 22.0735C0.903438 20.9091 1.24584 19.833 1.89241 18.858C1.95369 18.7658 2.01947 18.6776 2.09931 18.6005C2.31464 18.392 2.56596 18.3166 2.85889 18.3925C2.91736 18.4077 2.97639 18.4234 3.03374 18.4426C3.5375 18.6079 4.05138 18.7338 4.57538 18.8181C5.03416 18.8923 5.49688 18.9199 5.96129 18.889C6.40433 18.8592 6.83443 18.7664 7.24768 18.6017C7.45908 18.5173 7.65417 18.4043 7.84308 18.279C7.94878 18.2087 8.05504 18.139 8.15737 18.0642C8.32492 17.9427 8.5082 17.882 8.71623 17.8994C8.73253 17.9006 8.7494 17.9011 8.76571 17.9017C8.80281 17.9034 8.8298 17.891 8.83486 17.8494C8.83598 17.8387 8.83767 17.8275 8.83936 17.8168C8.90064 17.4783 9.17782 17.2293 9.52416 17.2028C9.70182 17.1893 9.87612 17.209 10.0476 17.2596C10.2927 17.3321 10.5216 17.4395 10.7431 17.5643C10.8392 17.6183 10.9337 17.6757 11.0276 17.733C11.0675 17.7572 11.1063 17.7662 11.1529 17.7561C11.212 17.7431 11.2721 17.7341 11.3329 17.7291C11.655 17.7021 11.921 17.986 11.9249 18.2705C11.9249 18.2924 11.9238 18.3144 11.9232 18.3369C11.9232 18.3481 11.9215 18.3599 11.9249 18.3695C11.9524 18.4476 12.0312 18.478 12.0834 18.5331C12.1127 18.564 12.1498 18.5691 12.1903 18.5617C12.2718 18.5471 12.3533 18.5348 12.4343 18.5179C12.5175 18.5005 12.599 18.5089 12.6805 18.5269C12.9639 18.5887 13.1281 18.8401 13.0668 19.1229C13.0561 19.1712 13.0426 19.2201 13.019 19.2629C12.9751 19.3433 12.9853 19.3517 13.0555 19.4147C13.0831 19.4394 13.1123 19.4428 13.1461 19.427C13.2214 19.3927 13.2973 19.3601 13.3732 19.3269C13.638 19.21 13.9276 19.3281 14.0479 19.5979C14.1142 19.7475 14.1114 19.8982 14.0344 20.0444C14.0192 20.0736 14.0007 20.1006 13.9759 20.1405L13.9776 20.1383ZM9.34368 18.5044C9.202 18.4144 9.06313 18.3374 8.92032 18.266C8.74209 18.1766 8.5678 18.1862 8.40025 18.2891C8.31086 18.3436 8.22428 18.4026 8.14106 18.4667C8.01344 18.5646 7.87906 18.6506 7.73682 18.7237C7.20495 18.998 6.63765 19.1465 6.04225 19.1931C5.63913 19.2246 5.23769 19.21 4.83626 19.1633C4.19869 19.0891 3.57517 18.9519 2.9674 18.7445C2.89431 18.7197 2.82122 18.6967 2.74419 18.6854C2.5862 18.6618 2.44958 18.7057 2.33151 18.8108C2.26067 18.8738 2.20332 18.948 2.15384 19.0278C2.09537 19.1217 2.03859 19.2162 1.98349 19.3118C1.26833 20.5515 1.02038 21.8817 1.20817 23.2969C1.22166 23.4009 1.24022 23.5038 1.25989 23.6072C1.27058 23.6646 1.28182 23.6747 1.33636 23.6691C1.46455 23.6556 1.58992 23.6764 1.71418 23.7011C1.82775 23.7236 1.93963 23.7534 2.05264 23.7787C2.76949 23.9401 3.49365 24.0542 4.22511 24.1194C4.69233 24.161 5.16123 24.1734 5.63069 24.17C6.14457 24.1667 6.65677 24.1352 7.16728 24.0829C7.74863 24.0227 8.32885 23.9496 8.90964 23.881C9.26047 23.84 9.61299 23.8158 9.96607 23.8119C10.5322 23.8051 11.0889 23.8816 11.6376 24.0137C12.12 24.1295 12.6007 24.2538 13.0825 24.373C13.4845 24.4725 13.891 24.5484 14.3043 24.585C14.7389 24.6237 15.1752 24.6294 15.6109 24.6215C16.2951 24.6097 16.9777 24.5557 17.6608 24.5141C17.8312 24.504 18.0015 24.4866 18.1719 24.4686C18.5227 24.4315 18.8741 24.3938 19.2244 24.3527C19.4487 24.3263 19.6736 24.2988 19.8951 24.2527C20.1301 24.2043 20.3421 24.0969 20.5569 23.9969C20.5973 23.9777 20.5928 23.9496 20.5816 23.9153C20.5023 23.6736 20.3584 23.4734 20.179 23.2974C20.0205 23.1423 19.8411 23.0141 19.6517 22.8994C19.4296 22.765 19.1974 22.6492 18.9641 22.5362C17.7755 21.9627 16.5493 21.4797 15.3208 21.0013C15.2398 20.9698 15.1746 20.9765 15.1009 21.0131C14.8817 21.1227 14.6826 21.2582 14.5218 21.446C14.4538 21.5253 14.3807 21.6012 14.3026 21.6709C14.0962 21.8564 13.6718 21.8379 13.5126 21.4775C13.4356 21.3026 13.453 21.1328 13.5514 20.9715C13.6386 20.8287 13.7527 20.7089 13.873 20.5948C13.9045 20.565 13.9461 20.5442 13.9624 20.4992C13.9309 20.4554 13.8787 20.4503 13.8342 20.4323C13.6772 20.3697 13.525 20.3825 13.3777 20.4705C13.1922 20.5819 13.0241 20.7151 12.8723 20.8697C12.8104 20.9327 12.7491 20.9962 12.6755 21.0463C12.5861 21.1075 12.4877 21.1396 12.3792 21.1283C12.1161 21.1014 11.9035 20.8669 11.8951 20.6027C11.8906 20.4615 11.9457 20.3452 12.0323 20.24C12.12 20.1326 12.2274 20.0449 12.3297 19.9527C12.3533 19.9319 12.387 19.9162 12.3831 19.8644C12.3078 19.833 12.2246 19.8054 12.1487 19.7638C12.0536 19.7121 11.9744 19.7306 11.8878 19.784C11.7034 19.8976 11.5336 20.0275 11.3891 20.19C11.334 20.2518 11.2778 20.3137 11.2142 20.3654C11.0602 20.4902 10.8893 20.4981 10.7189 20.407C10.4828 20.2805 10.3433 19.996 10.4811 19.698C10.5424 19.5659 10.6363 19.4574 10.7391 19.3567C10.7785 19.3185 10.8207 19.2837 10.8679 19.242C10.7701 19.1616 10.6604 19.1364 10.5643 19.0852C10.5159 19.0593 10.4738 19.0605 10.4243 19.0858C10.2916 19.1538 10.16 19.2235 10.0358 19.3056C9.97619 19.3449 9.91547 19.3843 9.8525 19.418C9.7676 19.4636 9.67596 19.4776 9.57982 19.4664C9.193 19.4225 9.01421 18.9233 9.23405 18.6343C9.26665 18.5915 9.30376 18.5522 9.34368 18.505V18.5044ZM4.10592 25.7493C4.13347 25.7493 4.16102 25.7471 4.18857 25.7493C4.51073 25.7763 4.77216 25.904 4.93465 26.1974C4.9667 26.2553 5.00212 26.3116 5.03529 26.3684C5.14043 26.5471 5.29504 26.6332 5.50363 26.618C5.54748 26.6146 5.5919 26.6141 5.63519 26.6062C5.77912 26.5809 5.89213 26.51 5.9596 26.3762C5.97197 26.3515 5.98546 26.3273 5.99615 26.302C6.08948 26.0777 6.26883 25.9635 6.49766 25.9135C6.67251 25.8753 6.8468 25.8787 7.02391 25.9062C7.18358 25.9315 7.31739 25.9978 7.42759 26.1137C7.48044 26.1699 7.52936 26.23 7.58333 26.2851C7.63337 26.3363 7.68284 26.3903 7.74076 26.4313C7.88862 26.5359 8.05111 26.5635 8.22877 26.5157C8.38901 26.4724 8.47672 26.3599 8.53407 26.2149C8.56274 26.1429 8.58916 26.0704 8.61559 25.9978C8.74378 25.6464 8.97542 25.3811 9.29533 25.1922C9.57645 25.0263 9.88399 24.9448 10.2073 24.9206C10.607 24.8908 11.0011 24.9302 11.388 25.0347C11.8732 25.1663 12.3398 25.3513 12.8121 25.5211C12.879 25.5452 12.9425 25.5807 13.0044 25.6166C13.1961 25.7285 13.3175 25.8905 13.3524 26.1137C13.3625 26.1789 13.3749 26.2447 13.3929 26.3082C13.4412 26.478 13.5357 26.5573 13.7105 26.5747C13.7707 26.5809 13.832 26.5764 13.8921 26.5786C14.0473 26.5854 14.1716 26.528 14.2649 26.4032C14.288 26.3723 14.3149 26.3442 14.3402 26.3149C14.4763 26.1592 14.6472 26.0856 14.8541 26.0996C14.8929 26.1024 14.9312 26.103 14.9699 26.1069C15.1515 26.1232 15.3337 26.1238 15.5159 26.1182C15.6266 26.1148 15.7363 26.1238 15.8459 26.1373C16.104 26.1699 16.2833 26.3059 16.3913 26.5404C16.4166 26.5955 16.4385 26.6523 16.4655 26.7068C16.5116 26.8018 16.5852 26.8609 16.6909 26.8834C16.8113 26.9092 16.9321 26.9143 17.0525 26.8963C17.179 26.8772 17.2639 26.8069 17.2942 26.6787C17.3071 26.6253 17.3184 26.5713 17.3325 26.5179C17.3836 26.3189 17.5079 26.1929 17.7063 26.1367C17.7817 26.1153 17.8581 26.1058 17.9352 26.1069C18.1617 26.1109 18.3872 26.0985 18.6121 26.0737C18.6396 26.0709 18.6672 26.0709 18.6947 26.0687C18.9224 26.0524 19.1192 26.1187 19.2812 26.2829C19.3042 26.3065 19.3306 26.3273 19.3565 26.3476C19.3964 26.3785 19.4403 26.4021 19.4909 26.4083C19.573 26.4184 19.655 26.4302 19.7377 26.433C19.9204 26.4392 20.0525 26.3644 20.1335 26.1924C20.3275 25.7775 20.5096 25.358 20.6592 24.9245C20.7081 24.7834 20.7362 24.6367 20.743 24.4871C20.7446 24.4433 20.743 24.3989 20.7368 24.3556C20.7289 24.3033 20.6856 24.2802 20.6395 24.2993C20.6193 24.3078 20.6002 24.319 20.581 24.3297C20.3769 24.445 20.1565 24.5152 19.9277 24.5568C19.7652 24.5861 19.6011 24.6091 19.4375 24.6327C18.995 24.6963 18.5508 24.7424 18.1055 24.7829C17.7541 24.8149 17.4016 24.838 17.0491 24.8627C16.3609 24.9116 15.6722 24.942 14.9818 24.9302C14.2728 24.9178 13.5734 24.8357 12.8863 24.6586C12.427 24.5405 11.9687 24.418 11.5083 24.3061C10.9809 24.1785 10.4457 24.1132 9.90142 24.1222C9.3538 24.1312 8.81181 24.1959 8.27038 24.2673C7.61369 24.3544 6.957 24.4331 6.29525 24.4658C5.60483 24.4995 4.91666 24.4894 4.22848 24.4298C3.56786 24.3724 2.91511 24.2679 2.26629 24.1357C2.04477 24.0907 1.82438 24.0401 1.60286 23.9957C1.53876 23.9828 1.4741 23.9626 1.40664 23.9721C1.3358 23.9822 1.29419 24.0267 1.306 24.0969C1.3178 24.1672 1.33636 24.2375 1.36278 24.3033C1.44037 24.4978 1.52189 24.6912 1.60454 24.8835C1.64615 24.9796 1.69338 25.0735 1.73948 25.1674C1.87779 25.4502 2.00148 25.7387 2.09369 26.04C2.14204 26.1986 2.20951 26.3487 2.3034 26.4876C2.47376 26.7389 2.96908 26.7923 3.15462 26.4392C3.17261 26.4049 3.1906 26.3706 3.20916 26.3374C3.23895 26.2846 3.26538 26.2295 3.29911 26.1794C3.49196 25.8927 3.75958 25.7437 4.1076 25.7482L4.10592 25.7493ZM12.495 18.8249C12.4838 18.8266 12.4399 18.8299 12.3966 18.8378C11.8198 18.9435 11.3306 19.2168 10.9106 19.6204C10.855 19.6739 10.8038 19.7323 10.7689 19.8026C10.7138 19.9145 10.7341 20.0207 10.8263 20.1017C10.8938 20.1613 10.9663 20.1664 11.036 20.1113C11.0658 20.0877 11.0934 20.059 11.1164 20.0286C11.2244 19.8864 11.3565 19.7694 11.4998 19.666C11.799 19.4495 12.1239 19.2927 12.4944 19.2437C12.5383 19.2381 12.5821 19.2308 12.6243 19.2173C12.725 19.1847 12.7772 19.0936 12.7626 18.9823C12.7508 18.8907 12.685 18.835 12.5782 18.826C12.5619 18.8243 12.545 18.826 12.4956 18.826L12.495 18.8249ZM11.3514 18.0372C11.3317 18.0406 11.3042 18.0451 11.2772 18.0501C10.6908 18.1575 10.1477 18.3762 9.64223 18.6905C9.60062 18.7164 9.56295 18.7495 9.52584 18.7821C9.49661 18.8074 9.47581 18.8406 9.46344 18.8777C9.43364 18.9666 9.46569 19.0413 9.5236 19.1049C9.57645 19.1622 9.64391 19.1538 9.70688 19.1234C9.76592 19.0947 9.82327 19.0616 9.87949 19.0267C10.3282 18.7478 10.8105 18.5544 11.3301 18.4549C11.3784 18.4454 11.4279 18.4364 11.4751 18.4223C11.5904 18.388 11.6404 18.3194 11.5836 18.1789C11.5448 18.0822 11.4605 18.0434 11.3514 18.0372ZM10.6216 17.8831C10.6087 17.864 10.6025 17.846 10.5902 17.8393C10.3849 17.7218 10.1741 17.6155 9.94696 17.5452C9.8362 17.5109 9.72206 17.4918 9.60512 17.5031C9.46344 17.5166 9.33918 17.5694 9.24023 17.6746C9.16883 17.7505 9.13565 17.8398 9.14409 17.9455C9.14859 18.0051 9.16939 18.0484 9.22617 18.0765C9.34424 18.135 9.46288 18.1935 9.57701 18.2593C9.64167 18.2964 9.69452 18.2964 9.75973 18.2593C10.0088 18.1176 10.2719 18.0068 10.5429 17.9141C10.5677 17.9056 10.5918 17.8949 10.6216 17.8837V17.8831ZM12.2122 20.5875C12.2128 20.628 12.2223 20.6651 12.242 20.6994C12.3089 20.8174 12.4258 20.845 12.5344 20.7651C12.5737 20.7359 12.6097 20.7005 12.6417 20.6634C12.8323 20.4435 13.0651 20.2788 13.3181 20.1411C13.4047 20.0938 13.4975 20.0573 13.588 20.0162C13.6436 19.9909 13.6976 19.9634 13.7358 19.9139C13.7898 19.8442 13.7915 19.7582 13.7426 19.6823C13.6954 19.6092 13.6116 19.5777 13.5273 19.6036C13.4907 19.6148 13.4553 19.6317 13.4199 19.6463C13.0179 19.8127 12.667 20.0573 12.3505 20.353C12.3145 20.3868 12.2853 20.4272 12.2544 20.4655C12.2257 20.5009 12.2156 20.5442 12.2122 20.5875ZM13.7758 21.2993C13.7758 21.3572 13.8207 21.4145 13.8961 21.4522C13.968 21.4876 14.0361 21.4786 14.0968 21.4291C14.126 21.405 14.1502 21.374 14.1755 21.3448C14.3982 21.0873 14.6495 20.8686 14.9705 20.7404C15.011 20.7241 15.0509 20.7033 15.0875 20.6791C15.1195 20.6583 15.1499 20.633 15.1746 20.6043C15.2331 20.5358 15.2348 20.4486 15.1842 20.3755C15.1324 20.3002 15.052 20.2676 14.9688 20.2906C14.9424 20.2979 14.9177 20.3103 14.8924 20.3215C14.519 20.4863 14.1935 20.7185 13.9135 21.0148C13.8758 21.0547 13.8449 21.1008 13.814 21.1458C13.7887 21.1829 13.7769 21.2256 13.7758 21.2998V21.2993ZM11.7405 18.686C11.6455 18.7046 11.5561 18.7276 11.4661 18.7473C11.3801 18.7664 11.2924 18.7788 11.2075 18.8024C11.1209 18.8266 11.027 18.8344 10.9376 18.9008C10.9961 18.9295 11.0405 18.9486 11.0821 18.9722C11.1361 19.0025 11.1839 18.9969 11.2356 18.9626C11.3829 18.8654 11.5392 18.7844 11.7017 18.7152C11.7163 18.7091 11.7275 18.6956 11.7399 18.6854L11.7405 18.686ZM12.5355 19.5681C12.5743 19.6103 12.6294 19.6193 12.6772 19.6396C12.7199 19.657 12.7722 19.6407 12.775 19.6126C12.7795 19.5732 12.7458 19.5575 12.721 19.54C12.7053 19.5288 12.68 19.5243 12.6597 19.5254C12.617 19.5282 12.572 19.531 12.5349 19.5681H12.5355Z" fill="#000E3F"/>
<path d="M25.3679 26.3775C25.3679 26.8526 23.1134 27.2377 20.3331 27.2377C17.5529 27.2377 15.2989 26.8526 15.2989 26.3775C15.2989 26.1756 15.404 23.9036 16.0832 23.7569C17.0053 23.5579 18.7324 24.7521 20.3331 24.7521C21.9338 24.7521 23.7031 23.5854 24.6263 23.7766C25.346 23.9256 25.3679 26.1694 25.3679 26.3775Z" fill="#0D51E3"/>
<path d="M24.9611 24.0598C24.9611 24.5349 22.8887 24.92 20.3328 24.92C17.7768 24.92 15.705 24.5349 15.705 24.0598C15.705 23.5847 17.7768 23.1996 20.3328 23.1996C22.8887 23.1996 24.9611 23.5847 24.9611 24.0598Z" fill="#996EFC"/>
<path d="M21.1485 18.5297C22.6586 18.8788 24.293 18.356 25.476 17.3535C26.6589 16.3516 27.4202 14.9179 27.8222 13.4207C27.9369 12.994 28.0071 12.4868 27.7159 12.154C27.5118 11.9212 27.184 11.8442 26.8754 11.8161C26.0298 11.7385 25.1611 11.9398 24.4353 12.3806C24.2048 12.9321 23.9861 13.5489 23.755 14.1004C24.4134 13.731 25.2269 13.3881 25.9758 13.2914C26.1917 13.2633 26.4346 13.2554 26.6004 13.3959C26.8821 13.6343 26.7438 14.0875 26.5841 14.4198C26.2833 15.0472 25.9797 15.6781 25.5682 16.2392C25.1566 16.8003 24.6264 17.2928 23.9816 17.5531C23.272 17.8387 22.4821 17.8241 21.7174 17.8055C21.447 18.0282 21.3065 18.2177 21.1473 18.5297H21.1485Z" fill="#FFCF00"/>
<path d="M19.5185 18.5297C18.0083 18.8788 16.3739 18.356 15.191 17.3535C14.008 16.3516 13.2468 14.9179 12.8448 13.4207C12.7301 12.994 12.6598 12.4868 12.951 12.154C13.1551 11.9212 13.4829 11.8442 13.7916 11.8161C14.6372 11.7385 15.5058 11.9398 16.2316 12.3806C16.4622 12.9321 16.6809 13.5489 16.912 14.1004C16.2536 13.731 15.44 13.3881 14.6911 13.2914C14.4752 13.2633 14.2323 13.2554 14.0665 13.3959C13.7848 13.6343 13.9231 14.0875 14.0828 14.4198C14.3836 15.0472 14.6872 15.6781 15.0987 16.2392C15.5103 16.8003 16.0405 17.2928 16.6854 17.5531C17.3949 17.8387 18.1848 17.8241 18.9495 17.8055C19.2199 18.0282 19.3605 18.2177 19.5196 18.5297H19.5185Z" fill="#FFCF00"/>
<path d="M23.4102 18.0867C22.8862 18.7445 22.2565 19.3303 21.8635 20.0736C21.2832 21.1699 21.2883 22.4541 21.3962 23.7079C21.4148 23.921 21.2568 24.1087 21.0443 24.125C20.5849 24.161 20.1217 24.152 19.664 24.0981C19.4577 24.0739 19.3081 23.89 19.3261 23.6826C19.4324 22.4372 19.4335 21.1626 18.8572 20.0736C18.4636 19.3303 17.8345 18.7445 17.3105 18.0867C15.7205 16.0902 15.1403 13.333 15.7722 10.8625C15.8155 10.6933 15.9701 10.5758 16.145 10.5764L20.3606 10.5887L24.5757 10.5764C24.7505 10.5764 24.9051 10.6933 24.9484 10.8625C25.5804 13.333 25.0002 16.0902 23.4102 18.0867Z" fill="#FFCF00"/>
<g opacity="0.25">
<path d="M23.4103 18.0866C22.8863 18.7444 22.2572 19.3303 21.863 20.0735C21.2828 21.1699 21.2879 22.4546 21.3958 23.7078C21.4144 23.9209 21.257 24.1081 21.0433 24.125C20.8302 24.1413 20.616 24.1486 20.4018 24.1458C20.6441 23.4295 20.7869 22.6812 20.8133 21.921C20.8718 20.2236 20.4029 18.4329 21.0888 16.8789C21.7197 15.4492 23.2501 14.4534 23.5048 12.9118C23.6448 12.064 23.3052 11.1739 22.6901 10.5808L24.5747 10.5752C24.7495 10.5746 24.9042 10.6921 24.9474 10.8613C25.5794 13.3318 24.9992 16.089 23.4092 18.0855L23.4103 18.0866Z" fill="#000E3F"/>
</g>
<g opacity="0.7">
<path d="M19.1138 19.883C19.1447 19.8538 19.0767 19.7261 18.9355 19.5159C18.7944 19.3056 18.5836 19.0099 18.3356 18.6405C18.2721 18.5488 18.2108 18.4499 18.1439 18.3487C18.0776 18.2469 18.0124 18.1395 17.9426 18.0293C17.9089 17.9737 17.8752 17.9169 17.8403 17.859C17.8229 17.8303 17.8055 17.8011 17.788 17.7718C17.7712 17.742 17.7543 17.7122 17.7369 17.6824C17.7026 17.6223 17.6677 17.5615 17.6323 17.4997C17.5985 17.4373 17.5637 17.3738 17.5288 17.3102C17.3928 17.0527 17.2528 16.7806 17.1268 16.491C16.9992 16.2021 16.8778 15.899 16.7693 15.583C16.6624 15.2671 16.5742 14.9533 16.5016 14.6475C16.4842 14.571 16.4673 14.4946 16.4505 14.4192C16.4359 14.3433 16.4212 14.2685 16.4072 14.1943C16.3914 14.1201 16.3813 14.0459 16.3695 13.9728C16.3583 13.8997 16.3448 13.8277 16.3369 13.7558C16.3279 13.6838 16.3189 13.613 16.3099 13.5433C16.3015 13.4735 16.2964 13.4038 16.2897 13.3358C16.2863 13.3015 16.2829 13.2678 16.2796 13.234C16.2762 13.2003 16.2751 13.1671 16.2728 13.134C16.2683 13.0676 16.2644 13.0018 16.2604 12.9377C16.2571 12.8736 16.2565 12.8101 16.2542 12.7477C16.2531 12.6853 16.2486 12.6246 16.2503 12.5644C16.2503 12.5043 16.2503 12.4458 16.2503 12.3884C16.2503 12.3598 16.2503 12.3311 16.2503 12.303C16.2514 12.2749 16.2526 12.2473 16.2531 12.2198C16.2571 12.1101 16.2582 12.0044 16.2661 11.9055C16.2728 11.8065 16.2751 11.7121 16.2852 11.6249C16.2925 11.5366 16.2992 11.4551 16.3054 11.3798C16.3138 11.3044 16.3206 11.2353 16.3257 11.1729C16.3279 11.1414 16.3302 11.1116 16.3324 11.0841C16.3352 11.0565 16.3375 11.0301 16.3391 11.0059C16.3425 10.957 16.3442 10.9154 16.3436 10.8811C16.3425 10.8119 16.3324 10.7726 16.3122 10.767C16.2925 10.7608 16.2638 10.7889 16.2273 10.8485C16.2087 10.8783 16.1885 10.9159 16.1665 10.9609C16.1553 10.9834 16.1441 11.0081 16.1317 11.034C16.1199 11.0604 16.1098 11.0891 16.0979 11.1195C16.0749 11.1802 16.0507 11.2477 16.0249 11.3224C16.0007 11.3978 15.9788 11.4804 15.954 11.5693C15.9276 11.6581 15.9096 11.7548 15.8871 11.8571C15.8635 11.9594 15.8478 12.0691 15.8298 12.1838C15.8253 12.2125 15.8208 12.2417 15.8163 12.2709C15.8123 12.3002 15.8095 12.3305 15.8061 12.3609C15.8 12.4216 15.7932 12.4835 15.7865 12.5464C15.7786 12.61 15.7769 12.6746 15.7724 12.7404C15.769 12.8062 15.764 12.8736 15.7617 12.9422C15.7606 13.0108 15.76 13.0805 15.7589 13.1514C15.7589 13.1868 15.7578 13.2228 15.7589 13.2588C15.76 13.2948 15.7612 13.3307 15.7623 13.3673C15.7651 13.4404 15.7662 13.5146 15.7702 13.5894C15.7758 13.6641 15.7814 13.7406 15.787 13.8171C15.7915 13.8941 15.8022 13.9717 15.8106 14.0504C15.8202 14.1291 15.8275 14.2084 15.8416 14.2882C15.8539 14.3681 15.8669 14.4485 15.8798 14.53C15.8955 14.6109 15.9119 14.6925 15.9282 14.7751C15.9973 15.104 16.0878 15.4402 16.202 15.7776C16.3178 16.1138 16.451 16.4348 16.5938 16.7373C16.7355 17.0404 16.8929 17.322 17.0498 17.5846C17.0897 17.6498 17.1296 17.7139 17.169 17.7774C17.2089 17.8404 17.2505 17.9011 17.2899 17.9619C17.3101 17.9922 17.3298 18.022 17.3495 18.0518C17.3697 18.081 17.3905 18.1097 17.4108 18.1384C17.4512 18.1957 17.4912 18.252 17.5305 18.3071C17.6919 18.5252 17.8487 18.7231 17.9994 18.8974C18.3002 19.246 18.5662 19.5063 18.7635 19.6716C18.9608 19.8369 19.0862 19.9111 19.116 19.883H19.1138Z" fill="white"/>
</g>
<g opacity="0.7">
<path d="M15.4963 12.5392C15.525 12.51 15.5222 12.4515 15.4851 12.3722C15.448 12.2929 15.3737 12.1946 15.2607 12.0939C15.1477 11.9933 14.9942 11.8932 14.8059 11.8167C14.6181 11.7403 14.3955 11.6897 14.1576 11.6846C13.9198 11.6812 13.6955 11.724 13.5049 11.7937C13.3143 11.8634 13.1569 11.9573 13.0405 12.054C12.9235 12.1507 12.8459 12.2463 12.806 12.3244C12.7661 12.4026 12.761 12.4605 12.7886 12.4908C12.8465 12.5544 13.0107 12.4948 13.2468 12.4256C13.4824 12.3548 13.8 12.2794 14.1469 12.2856C14.4938 12.2924 14.8081 12.3784 15.0415 12.4582C15.2748 12.5358 15.4373 12.601 15.4969 12.5403L15.4963 12.5392Z" fill="white"/>
</g>
<g opacity="0.7">
<path d="M27.5731 12.415C27.6012 12.3852 27.6034 12.3324 27.5764 12.2621C27.5494 12.1924 27.4904 12.1069 27.3988 12.0198C27.3071 11.9326 27.1806 11.8466 27.0249 11.7803C26.8697 11.7139 26.6842 11.6689 26.4857 11.6628C26.2872 11.6577 26.0994 11.6914 25.9403 11.7488C25.7812 11.8061 25.6497 11.8848 25.5535 11.9664C25.4568 12.0479 25.3933 12.13 25.3624 12.198C25.3309 12.2666 25.3303 12.3189 25.3567 12.3504C25.4118 12.415 25.5558 12.383 25.7503 12.3431C25.9448 12.3015 26.1967 12.2554 26.4688 12.2632C26.741 12.2711 26.99 12.3318 27.1817 12.3847C27.3735 12.4358 27.5151 12.4763 27.5742 12.4145L27.5731 12.415Z" fill="white"/>
</g>
<g opacity="0.7">
<path d="M25.4337 24.3383C25.4179 24.3001 25.2723 24.3142 25.026 24.3721C24.9642 24.3867 24.8967 24.4035 24.8225 24.4232C24.7483 24.4406 24.6673 24.4598 24.5802 24.48C24.4065 24.5205 24.2131 24.5767 23.9938 24.6211C23.8853 24.6459 23.7717 24.6717 23.6531 24.6987C23.5946 24.7139 23.5328 24.7235 23.4709 24.7358C23.4091 24.7476 23.3461 24.76 23.282 24.7724C23.2179 24.7853 23.1527 24.7982 23.0869 24.8112C23.0537 24.8173 23.0206 24.8252 22.9868 24.8308C22.9531 24.8359 22.9188 24.8415 22.8845 24.8471C22.7473 24.8691 22.6062 24.8921 22.4617 24.9157C21.8815 24.9978 21.2411 25.0642 20.5664 25.0912C19.8912 25.112 19.248 25.0906 18.6633 25.0495C18.5171 25.0361 18.3748 25.0237 18.2365 25.0108C18.2017 25.0079 18.1674 25.0051 18.1331 25.0018C18.0988 24.9984 18.0656 24.9933 18.0319 24.9894C17.965 24.981 17.8992 24.9725 17.8345 24.9646C17.7699 24.9568 17.7058 24.9489 17.6434 24.9416C17.581 24.9337 17.5185 24.9287 17.459 24.9174C17.3386 24.8989 17.2234 24.8809 17.1137 24.8635C16.8922 24.8348 16.6949 24.792 16.5189 24.7639C16.4306 24.7499 16.3485 24.7364 16.2732 24.7246C16.1984 24.71 16.1293 24.6976 16.0669 24.688C15.8172 24.6481 15.6711 24.6442 15.6581 24.683C15.6446 24.7223 15.7661 24.8016 15.9988 24.9118C16.0573 24.9394 16.1225 24.9686 16.1939 25.0001C16.2665 25.0299 16.3463 25.058 16.4318 25.0889C16.6038 25.1491 16.7995 25.2216 17.0221 25.2789C17.1334 25.3087 17.2498 25.3402 17.3707 25.3728C17.4314 25.3903 17.4944 25.4015 17.5579 25.4156C17.622 25.4291 17.6867 25.4425 17.753 25.4566C17.8193 25.4701 17.8868 25.4842 17.9554 25.4982C17.9897 25.505 18.024 25.5128 18.0594 25.5184C18.0943 25.5241 18.1297 25.5291 18.1657 25.5348C18.3085 25.5561 18.4552 25.578 18.6059 25.6005C19.2109 25.6742 19.8822 25.7141 20.5867 25.6922C21.2906 25.6646 21.9579 25.5781 22.5562 25.4617C22.7051 25.4285 22.8502 25.3964 22.9908 25.365C23.0262 25.3571 23.061 25.3492 23.0953 25.3413C23.1296 25.3329 23.1639 25.3228 23.1977 25.3138C23.2651 25.2947 23.3315 25.2767 23.3967 25.2581C23.4619 25.2396 23.526 25.2216 23.5884 25.2036C23.6508 25.185 23.7132 25.1693 23.7723 25.1479C23.8909 25.1069 24.005 25.0675 24.1135 25.0299C24.3317 24.9573 24.5217 24.8713 24.6893 24.7988C24.7725 24.7617 24.8506 24.7285 24.9203 24.6937C24.9901 24.6577 25.053 24.6234 25.1093 24.5919C25.3341 24.4654 25.4494 24.3782 25.4331 24.34L25.4337 24.3383Z" fill="white"/>
</g>
<path d="M24.708 10.4471C24.73 10.4775 24.7654 10.4763 24.7963 10.4859C24.9481 10.5331 25.0521 10.6338 25.1213 10.7738C25.1606 10.853 25.1876 10.9368 25.2084 11.0228C25.2635 11.2483 25.3051 11.476 25.3383 11.7054C25.345 11.7543 25.3456 11.8043 25.376 11.8533C25.4254 11.8656 25.4715 11.8409 25.5165 11.8291C25.9084 11.7234 26.3081 11.6818 26.7124 11.684C26.9334 11.6851 27.1532 11.7076 27.3663 11.7723C27.4669 11.8027 27.5636 11.8426 27.6547 11.8949C27.915 12.045 28.0668 12.2693 28.1225 12.5634C28.1652 12.7899 28.154 13.016 28.1062 13.2375C27.8104 14.6003 27.228 15.8249 26.2992 16.8712C25.6245 17.6308 24.8104 18.1964 23.8506 18.5438C23.664 18.6113 23.4734 18.6681 23.2794 18.7108C23.2114 18.726 23.1591 18.7541 23.113 18.8075C22.8825 19.0751 22.6503 19.3405 22.4372 19.6233C21.9773 20.2328 21.7153 20.9198 21.6236 21.6755C21.5753 22.0707 21.5595 22.4671 21.5696 22.8646C21.5713 22.9253 21.5741 22.986 21.5803 23.0462C21.5854 23.0968 21.6023 23.1125 21.6529 23.1193C21.6855 23.1232 21.7186 23.1249 21.7518 23.126C22.2646 23.1513 22.7756 23.1957 23.2839 23.2671C23.6994 23.3251 24.1093 23.4133 24.5107 23.537C24.6372 23.5758 24.7614 23.6219 24.8773 23.6877C25.015 23.7658 25.11 23.8744 25.1837 24.0205C25.3878 24.4282 25.4704 24.865 25.5306 25.3081C25.5778 25.6527 25.593 26.0002 25.5986 26.3482C25.6014 26.5264 25.5283 26.6552 25.39 26.7558C25.2725 26.8413 25.1421 26.8986 25.0049 26.9442C24.7058 27.0431 24.3999 27.1162 24.0901 27.169C23.497 27.2708 22.8993 27.3327 22.2994 27.3782C21.3847 27.4479 20.4688 27.4524 19.5529 27.4282C18.9851 27.4131 18.4166 27.3878 17.851 27.3332C17.2298 27.2736 16.6141 27.1814 16.0125 27.0071C15.9068 26.9762 15.8017 26.9419 15.6982 26.9048C15.6044 26.8711 15.5178 26.8227 15.4346 26.7676C15.2777 26.6642 15.204 26.5191 15.2136 26.333C15.2209 26.1896 15.2282 26.0463 15.24 25.9035C15.267 25.5791 15.2985 25.2552 15.3654 24.9359C15.4143 24.7031 15.4779 24.4754 15.5689 24.2556C15.592 24.1993 15.6162 24.1437 15.6218 24.0824C15.6353 23.9401 15.7146 23.8373 15.8225 23.7535C15.9147 23.6821 16.0193 23.632 16.1278 23.5899C16.3549 23.5016 16.5928 23.451 16.8289 23.3976C17.2708 23.2986 17.7178 23.234 18.1687 23.1918C18.4875 23.162 18.8063 23.1373 19.1262 23.1221C19.269 23.1153 19.269 23.112 19.2763 22.9675C19.2909 22.6588 19.2982 22.3496 19.2752 22.0409C19.2324 21.4708 19.1284 20.9148 18.8794 20.3936C18.736 20.0933 18.5566 19.8162 18.3576 19.5502C18.1693 19.2983 17.964 19.06 17.7588 18.821C17.7184 18.7738 17.6745 18.74 17.6098 18.7266C16.3853 18.4646 15.3761 17.8377 14.5412 16.9156C14.2179 16.5586 13.9362 16.1701 13.6928 15.7546C13.311 15.1041 13.0248 14.4125 12.8061 13.6923C12.7482 13.5023 12.7044 13.3083 12.6813 13.111C12.6746 13.0553 12.6667 13.0013 12.6189 12.9631V12.7315C12.6667 12.6944 12.6734 12.6398 12.6847 12.5853C12.764 12.19 12.995 11.9269 13.3773 11.7959C13.609 11.7166 13.8479 11.6829 14.0908 11.679C14.4889 11.6728 14.8808 11.7273 15.2676 11.819C15.3395 11.8358 15.4076 11.8853 15.4874 11.8589C15.5172 11.7869 15.5211 11.7099 15.5335 11.6345C15.5661 11.4338 15.5841 11.2303 15.633 11.0324C15.6583 10.9306 15.6921 10.8317 15.7449 10.7406C15.8203 10.6113 15.9265 10.5213 16.0733 10.482C16.1047 10.4735 16.1396 10.4747 16.1627 10.446H18.117C18.1726 10.482 18.235 10.4673 18.2941 10.4679C18.7349 10.4713 19.1762 10.4747 19.617 10.4741C20.7527 10.473 21.8879 10.4702 23.0236 10.4679C23.0669 10.4679 23.1124 10.4758 23.1512 10.446H24.708V10.4471ZM16.6462 17.3176L16.6417 17.3243L16.6484 17.3204C16.6091 17.2951 16.5939 17.2518 16.572 17.2147C16.0699 16.3472 15.7427 15.4156 15.5689 14.43C15.5285 14.2023 15.502 13.9717 15.4745 13.7424C15.4666 13.6794 15.4452 13.644 15.3823 13.6249C15.213 13.5737 15.0432 13.5265 14.8684 13.5012C14.7216 13.4798 14.5727 13.4629 14.4237 13.4899C14.2589 13.5197 14.1605 13.6243 14.1437 13.7913C14.1352 13.8739 14.142 13.956 14.1622 14.0375C14.2044 14.2096 14.2696 14.3737 14.3478 14.5317C14.5524 14.9472 14.7644 15.3588 15.005 15.7546C15.1861 16.052 15.3879 16.3343 15.624 16.5906C15.8602 16.8476 16.1188 17.0781 16.4241 17.2518C16.4719 17.2788 16.5208 17.3047 16.5703 17.3288C16.5967 17.3418 16.6237 17.3367 16.6467 17.3176H16.6462ZM20.4266 10.7783V10.7844C19.8695 10.7844 19.3117 10.7861 18.7545 10.7844C17.9983 10.7822 17.2421 10.7766 16.4865 10.7732C16.4038 10.7732 16.3212 10.776 16.238 10.7788C16.1126 10.7833 16.0322 10.848 15.9945 10.9666C15.9816 11.0088 15.9704 11.0515 15.9602 11.0942C15.8169 11.6812 15.7522 12.2783 15.7494 12.8816C15.7455 13.6249 15.8377 14.3563 16.0311 15.0748C16.3358 16.2094 16.8435 17.2406 17.6014 18.1435C17.7116 18.2745 17.8218 18.405 17.9337 18.5348C18.1709 18.8114 18.4099 19.0858 18.632 19.3754C19.1228 20.0163 19.4163 20.7405 19.5349 21.5355C19.6316 22.1826 19.6356 22.8325 19.5608 23.483C19.5512 23.5651 19.5462 23.6483 19.5495 23.7304C19.5563 23.8839 19.626 23.9626 19.7761 23.9913C19.8464 24.0048 19.9184 24.011 19.9898 24.0155C20.3204 24.0374 20.6515 24.034 20.9827 24.0284C21.0158 24.0278 21.049 24.0256 21.0816 24.0194C21.2402 23.9896 21.311 23.9053 21.3116 23.7456C21.3116 23.7124 21.3071 23.6798 21.3037 23.6467C21.279 23.3937 21.2627 23.1406 21.2582 22.8865C21.248 22.3614 21.2644 21.8385 21.3622 21.3207C21.4814 20.6887 21.7096 20.1029 22.0824 19.5755C22.2325 19.3636 22.3928 19.1595 22.5614 18.9627C22.7666 18.7243 22.9769 18.4899 23.1793 18.2492C24.4061 16.7885 25.0296 15.0962 25.1061 13.197C25.1342 12.4987 25.0696 11.8083 24.9088 11.1274C24.8964 11.074 24.8818 11.02 24.8626 10.9689C24.8177 10.848 24.73 10.7822 24.599 10.7794C24.5495 10.7783 24.4994 10.7783 24.45 10.7783C23.109 10.7783 21.7676 10.7783 20.4266 10.7783ZM15.8422 24.472C15.7893 24.5164 15.7888 24.5822 15.7725 24.6384C15.6302 25.1281 15.5678 25.6313 15.5369 26.139C15.5324 26.2161 15.5335 26.2936 15.5301 26.3707C15.5279 26.4196 15.5487 26.4544 15.5858 26.4837C15.651 26.5365 15.7264 26.5708 15.8023 26.6034C16.0266 26.699 16.2616 26.7586 16.4994 26.8075C17.372 26.9858 18.2553 27.0712 19.1442 27.1021C19.811 27.1252 20.4784 27.1353 21.1463 27.119C22.0852 27.096 23.0196 27.0307 23.9462 26.8756C24.2729 26.821 24.5967 26.753 24.9088 26.64C24.9914 26.6102 25.0712 26.5714 25.1505 26.5332C25.2438 26.4882 25.2821 26.4168 25.2798 26.3077C25.2714 25.9271 25.2562 25.5464 25.2017 25.1692C25.1691 24.9454 25.123 24.7239 25.0437 24.5108C25.0223 24.4535 25.0083 24.4467 24.9599 24.4782C24.7873 24.5923 24.5956 24.6609 24.3977 24.7132C23.9383 24.8347 23.4728 24.9235 23.0017 24.9825C22.3933 25.059 21.7822 25.0944 21.1699 25.113C19.9881 25.1484 18.8091 25.1096 17.6351 24.9578C17.0161 24.8779 16.405 24.7655 15.8422 24.4726V24.472ZM20.4823 24.8133C20.6307 24.8094 20.8624 24.8037 21.094 24.7975C21.8277 24.7779 22.5597 24.7301 23.2867 24.6221C23.6471 24.5687 24.0036 24.4962 24.3527 24.3911C24.4848 24.3511 24.6141 24.3017 24.7328 24.2303C24.902 24.1285 24.9071 24.088 24.7401 23.9846C24.6979 23.9587 24.6529 23.9373 24.608 23.9165C24.4978 23.8654 24.3831 23.8254 24.2661 23.7928C23.8028 23.6641 23.3294 23.5887 22.8527 23.5291C22.5187 23.4875 22.1825 23.4662 21.8474 23.4414C21.7872 23.4369 21.7265 23.4364 21.6658 23.4364C21.6411 23.4364 21.6247 23.4538 21.6236 23.478C21.6219 23.5218 21.6247 23.5657 21.6253 23.6101C21.6264 23.704 21.6292 23.7973 21.6079 23.8901C21.5517 24.1375 21.397 24.2876 21.1474 24.3225C21.044 24.3371 20.9388 24.341 20.8342 24.3466C20.5082 24.3641 20.1837 24.3376 19.8588 24.3185C19.793 24.3146 19.7272 24.3028 19.6631 24.287C19.4135 24.2263 19.2555 24.034 19.2431 23.7782C19.2403 23.7231 19.2431 23.668 19.2443 23.6129C19.2465 23.4116 19.2628 23.4235 19.0559 23.4369C18.5881 23.4679 18.1203 23.5016 17.6554 23.5663C17.2455 23.623 16.8396 23.7006 16.4432 23.8238C16.3218 23.8614 16.2031 23.9053 16.0924 23.9683C16.0446 23.9958 15.9974 24.025 15.9625 24.0689C15.9428 24.0936 15.9434 24.1189 15.9647 24.1425C16.0255 24.21 16.1047 24.2494 16.1851 24.2859C16.392 24.3798 16.6102 24.4383 16.8311 24.4894C17.435 24.6283 18.0478 24.7014 18.6646 24.7464C19.2426 24.7885 19.8217 24.806 20.4845 24.8127L20.4823 24.8133ZM17.3057 18.3172C17.3029 18.2762 17.2798 18.2526 17.2607 18.2273C17.1876 18.1306 17.1111 18.0361 17.0431 17.9355C16.9976 17.8675 16.9408 17.8264 16.8632 17.8017C16.3752 17.6454 15.9619 17.3676 15.5954 17.0145C15.2552 16.6873 14.9741 16.3129 14.7295 15.9109C14.4658 15.4768 14.2421 15.0214 14.0183 14.566C13.9525 14.4322 13.9008 14.2928 13.8642 14.1477C13.8344 14.0297 13.8125 13.9105 13.8193 13.7879C13.8367 13.4669 14.02 13.2526 14.3337 13.1852C14.4703 13.1559 14.6081 13.161 14.7453 13.1779C14.937 13.2015 15.127 13.2352 15.3142 13.2836C15.3508 13.2931 15.3873 13.3083 15.4256 13.2892C15.4458 13.2588 15.4402 13.2251 15.4402 13.1925C15.4362 12.9001 15.4317 12.6078 15.4615 12.316C15.4632 12.2997 15.4632 12.2828 15.4638 12.2665C15.4655 12.2277 15.4458 12.2052 15.4104 12.194C15.384 12.1855 15.3581 12.176 15.3322 12.1681C14.8515 12.0242 14.3607 11.9708 13.8603 12.0067C13.7001 12.0186 13.5455 12.0579 13.3976 12.1242C13.1356 12.2423 13.0012 12.447 12.981 12.7309C12.9675 12.9198 12.9911 13.1053 13.0344 13.2886C13.1558 13.7997 13.3296 14.2933 13.5426 14.7729C13.9087 15.5977 14.3899 16.3449 15.0382 16.9786C15.6431 17.57 16.3437 18.008 17.1466 18.279C17.1977 18.2964 17.2478 18.3195 17.3074 18.3184L17.3057 18.3172ZM23.5802 18.2835C23.6021 18.3026 23.624 18.2953 23.6443 18.288C23.7174 18.2633 23.7905 18.238 23.8624 18.2104C24.6884 17.8978 25.3878 17.4002 25.9837 16.7526C26.5769 16.1082 27.0239 15.3706 27.3556 14.5627C27.5169 14.1702 27.6693 13.7738 27.7688 13.3595C27.8183 13.1543 27.8447 12.9474 27.8245 12.7365C27.7936 12.4127 27.6271 12.1945 27.3151 12.0916C27.1729 12.0444 27.0267 12.0174 26.8777 12.0062C26.4217 11.9724 25.9747 12.0247 25.5362 12.1507C25.4091 12.1872 25.3951 12.1647 25.4058 12.33C25.4243 12.6162 25.4384 12.9029 25.426 13.1897C25.426 13.2009 25.4249 13.2116 25.426 13.2229C25.4277 13.2543 25.4423 13.2751 25.4766 13.2712C25.5092 13.2673 25.5424 13.2622 25.5744 13.2538C25.7352 13.2122 25.8994 13.1908 26.0636 13.1734C26.2064 13.1576 26.3492 13.1548 26.4909 13.1902C26.808 13.269 26.9868 13.4927 26.9907 13.8222C26.9929 14.0139 26.9395 14.1927 26.8693 14.3676C26.6466 14.9214 26.379 15.4527 26.0574 15.9559C25.8432 16.291 25.6082 16.6109 25.3304 16.8976C25.0128 17.2254 24.6546 17.4969 24.2391 17.6909C24.125 17.7443 23.9873 17.7589 23.8962 17.8467C23.8062 17.9338 23.741 18.0463 23.6679 18.1497C23.637 18.193 23.5886 18.2262 23.5802 18.2841V18.2835ZM24.256 17.3142C24.3122 17.285 24.3465 17.2692 24.3791 17.2501C24.6929 17.0697 24.9639 16.8369 25.205 16.5687C25.5205 16.2179 25.7768 15.8266 26 15.4127C26.1625 15.112 26.3166 14.8067 26.4729 14.5025C26.546 14.3603 26.6073 14.2124 26.6455 14.0561C26.6697 13.9588 26.6781 13.8604 26.6669 13.7603C26.6517 13.6248 26.5735 13.5388 26.4465 13.4995C26.3779 13.4787 26.3059 13.4714 26.2339 13.4764C25.9798 13.4939 25.7313 13.5428 25.4856 13.6069C25.4238 13.6232 25.3968 13.6575 25.3906 13.721C25.3737 13.8857 25.3557 14.0499 25.3304 14.2135C25.1708 15.248 24.8413 16.2246 24.3313 17.1399C24.3055 17.1866 24.2695 17.2293 24.256 17.3137V17.3142Z" fill="#000E3F"/>
</g>
<defs>
<clipPath id="clip0_4016_4285">
<rect width="30" height="30" fill="white"/>
</clipPath>
</defs>
</svg>
