<svg width="44" height="44" viewBox="0 0 44 44" fill="none" xmlns="http://www.w3.org/2000/svg">
<rect width="44" height="44" rx="6" fill="#2857CB"/>
<path d="M20.3078 23.6923L25.1539 18.8462M30.1113 15.8887L26.0207 29.1833C25.6541 30.3747 25.4706 30.9707 25.1544 31.1683C24.8802 31.3396 24.5406 31.3683 24.2419 31.2443C23.8975 31.1014 23.618 30.5433 23.0603 29.428L20.4694 24.2461C20.3809 24.0691 20.3366 23.981 20.2775 23.9043C20.225 23.8363 20.1645 23.7749 20.0965 23.7225C20.0215 23.6647 19.9349 23.6214 19.7658 23.5369L14.5719 20.9399C13.4566 20.3823 12.8989 20.1032 12.756 19.7588C12.6321 19.4601 12.6603 19.1202 12.8317 18.846C13.0293 18.5297 13.6252 18.346 14.817 17.9793L28.1116 13.8887C29.0486 13.6004 29.5173 13.4563 29.8337 13.5725C30.1094 13.6737 30.3267 13.8908 30.4279 14.1665C30.544 14.4828 30.3999 14.9513 30.1119 15.8873L30.1113 15.8887Z" stroke="white" stroke-width="2" stroke-linecap="round" stroke-linejoin="round"/>
</svg>
