<svg width="33" height="32" viewBox="0 0 33 32" fill="none" xmlns="http://www.w3.org/2000/svg">
<path d="M16.5 2.66602C9.15329 2.66602 3.16663 8.65268 3.16663 15.9993C3.16663 23.346 9.15329 29.3327 16.5 29.3327C23.8466 29.3327 29.8333 23.346 29.8333 15.9993C29.8333 8.65268 23.8466 2.66602 16.5 2.66602ZM22.8733 12.9327L15.3133 20.4927C15.1266 20.6793 14.8733 20.786 14.6066 20.786C14.34 20.786 14.0866 20.6793 13.9 20.4927L10.1266 16.7193C9.73996 16.3327 9.73996 15.6927 10.1266 15.306C10.5133 14.9193 11.1533 14.9193 11.54 15.306L14.6066 18.3727L21.46 11.5194C21.8466 11.1327 22.4866 11.1327 22.8733 11.5194C23.26 11.906 23.26 12.5327 22.8733 12.9327Z" fill="#1A47B6"/>
</svg>
